<?xml version="1.0" encoding="utf-8"?>
<!-- Generator: Adobe Illustrator 24.1.0, SVG Export Plug-In . SVG Version: 6.00 Build 0)  -->
<svg version="1.1" xmlns="http://www.w3.org/2000/svg" xmlns:xlink="http://www.w3.org/1999/xlink" x="0px" y="0px"
	 viewBox="0 0 100 100" style="enable-background:new 0 0 100 100;" xml:space="preserve">
<g id="Layer_8">
	<path d="M23.8,94.3c0,0.9,0,1.7-0.1,2.6c-0.2,1.7-1.7,3.1-3.4,3.1h0c-2.1,0-3.6-1.8-3.4-3.9c0.1-0.9,0.1-1.8-0.1-2.7
		c-0.7-5.3-5-9.5-10.2-10.2c-0.9-0.1-1.8-0.1-2.7-0.1C1.8,83.3,0,81.8,0,79.7v0c0-1.8,1.3-3.3,3.1-3.4c0.9-0.1,1.7-0.1,2.6-0.1
		C15.4,76.5,23.5,84.6,23.8,94.3z"/>
</g>
<g id="Layer_7">
	<path d="M37.5,91.6c0.2,1.7,0.2,3.4,0.1,5.1c-0.1,1.8-1.6,3.3-3.4,3.3h-0.1c-2,0-3.5-1.7-3.4-3.7c0.1-1.7,0-3.4-0.3-5.2
		C28.8,80,19.9,71.2,8.8,69.5c-1.7-0.3-3.5-0.3-5.1-0.2c-2,0.1-3.7-1.4-3.7-3.4v-0.1c0-1.8,1.4-3.3,3.3-3.4c1.7-0.1,3.4,0,5.1,0.1
		C23.7,64,36,76.3,37.5,91.6z"/>
</g>
<g id="Layer_6">
	<path d="M51.4,91.8c0.1,1.6,0.1,3.2,0.1,4.8c-0.1,1.9-1.6,3.4-3.5,3.4h0c-1.9,0-3.5-1.6-3.5-3.5c0-0.5,0-1,0-1.5
		c0-21.9-17.8-39.6-39.6-39.6c-0.5,0-1,0-1.5,0C1.6,55.5,0,53.9,0,52v0c0-1.9,1.5-3.4,3.4-3.5c1.6-0.1,3.2,0,4.9,0.1
		C31.3,50.1,49.9,68.7,51.4,91.8z"/>
</g>
<g id="Layer_5">
	<path d="M65.4,95c0,0.6,0,1.1,0,1.7c-0.1,1.9-1.6,3.3-3.5,3.3h0c-1.9,0-3.5-1.6-3.5-3.5c0-0.9,0-1.9,0-2.8
		C57.7,65.3,34.7,42.3,6.3,41.6c-1,0-1.9,0-2.8,0C1.6,41.6,0,40,0,38.1l0,0c0-1.9,1.5-3.4,3.3-3.5c0.6,0,1.1,0,1.7,0
		C38.3,34.6,65.4,61.7,65.4,95z"/>
</g>
<g id="Layer_4">
	<path d="M79.2,95c0,0.5,0,1.1,0,1.6c0,1.9-1.6,3.4-3.5,3.4h0c-1.9,0-3.5-1.6-3.5-3.5c0-0.5,0-1,0-1.5c0-37.1-30.2-67.3-67.3-67.3
		c-0.5,0-1,0-1.5,0c-1.9,0-3.5-1.5-3.5-3.5v0c0-1.9,1.5-3.4,3.4-3.5c0.5,0,1.1,0,1.6,0C45.9,20.8,79.2,54.1,79.2,95z"/>
</g>
<g id="Layer_3">
	<path d="M93.1,95c0,0.5,0,1.1,0,1.6c0,1.9-1.6,3.4-3.5,3.4h0c-1.9,0-3.5-1.6-3.5-3.5c0-0.5,0-1,0-1.5c0-44.8-36.4-81.2-81.2-81.2
		c-0.5,0-1,0-1.5,0c-1.9,0-3.5-1.5-3.5-3.5l0,0C0,8.5,1.5,7,3.4,6.9c0.5,0,1,0,1.6,0C53.6,6.9,93.1,46.4,93.1,95z"/>
</g>
<g id="Layer_2">
	<circle cx="5" cy="95" r="5"/>
</g>
</svg>
