<?xml version="1.0" encoding="utf-8"?>
<!-- Generator: Adobe Illustrator 24.1.0, SVG Export Plug-In . SVG Version: 6.00 Build 0)  -->
<svg version="1.1" id="Layer_2" xmlns="http://www.w3.org/2000/svg" xmlns:xlink="http://www.w3.org/1999/xlink" x="0px" y="0px"
	 viewBox="0 0 100 100" style="enable-background:new 0 0 100 100;" xml:space="preserve">
<style type="text/css">
	.st0{stroke:#000000;stroke-width:0.25;stroke-miterlimit:10;}
</style>
<g id="Layer_9">
	<path class="st0" d="M78.1,99.9v0.2h-7.3v-0.2C70.7,61,39,29.3,0.1,29.2h-0.2v-7.3h0.2C43.1,22,78,56.9,78.1,99.9z"/>
</g>
<g id="Layer_8">
	<path class="st0" d="M92.7,99.9v0.2h-7.3v-0.2c-0.1-47-38.3-85.2-85.3-85.3h-0.2V7.3h0.2C51.1,7.4,92.6,48.9,92.7,99.9z"/>
</g>
<g id="Layer_7">
	<path class="st0" d="M63.5,99.9v0.2h-7.3v-0.2c-0.1-30.9-25.2-56-56-56h-0.2v-7.3h0.2C35,36.6,63.4,65,63.5,99.9z"/>
</g>
<g id="Layer_6">
	<path class="st0" d="M48.8,99.9v0.2h-7.3v-0.2C41.5,77.1,22.9,58.5,0.1,58.5h-0.2v-7.3h0.2C27,51.2,48.8,73,48.8,99.9z"/>
</g>
<g id="Layer_5">
	<path class="st0" d="M34.2,99.9v0.2h-7.3v-0.2c-0.1-14.8-12-26.7-26.8-26.8h-0.2v-7.3h0.2C18.9,65.8,34.2,81.1,34.2,99.9z"/>
</g>
<g id="Layer_4">
	<path class="st0" d="M19.6,99.9v0.2h-7.3v-0.2c-0.1-6.7-5.5-12.1-12.2-12.2h-0.2v-7.3h0.2C10.8,80.5,19.5,89.1,19.6,99.9z"/>
</g>
<g id="Layer_3">
	<path class="st0" d="M5,100c0,0,0,0.1,0,0.1H0V100h-0.1v-5c0,0,0.1,0,0.1,0s0.1,0,0.1,0c2.7,0.1,4.8,2.2,4.9,4.9
		C5,99.9,5,100,5,100z"/>
	<path class="st0" d="M94.9,0.1c0,0,0-0.1,0-0.1h5v0.1h0.1v5c0,0-0.1,0-0.1,0s-0.1,0-0.1,0C97.1,5,95,2.9,94.9,0.2
		C94.9,0.2,94.9,0.2,94.9,0.1z"/>
</g>
</svg>
