<?xml version="1.0" encoding="utf-8"?>
<!-- Generator: Adobe Illustrator 24.1.0, SVG Export Plug-In . SVG Version: 6.00 Build 0)  -->
<svg version="1.1" xmlns="http://www.w3.org/2000/svg" xmlns:xlink="http://www.w3.org/1999/xlink" x="0px" y="0px"
	 viewBox="0 0 100 100" style="enable-background:new 0 0 100 100;" xml:space="preserve">
<g id="Layer_7">
	<path d="M20,100H10c0-2.8-1.1-5.2-2.9-7.1C5.2,91.1,2.8,90,0,90V80C11,80,20,89,20,100z"/>
</g>
<g id="Layer_6">
	<path d="M40,100H30c0-16.5-13.5-30-30-30V60C22.1,60,40,77.9,40,100z"/>
</g>
<g id="Layer_5">
	<path d="M60,100H50c0-27.6-22.4-50-50-50V40C33.1,40,60,66.9,60,100z"/>
</g>
<g id="Layer_4">
	<path d="M80,100H70c0-38.6-31.4-70-70-70V20C44.1,20,80,55.9,80,100z"/>
</g>
<g id="Layer_3">
	<path d="M100,100H90c0-49.6-40.4-90-90-90V0C55.1,0,100,44.9,100,100z"/>
</g>
</svg>
