<?xml version="1.0" encoding="UTF-8" standalone="no"?>
<svg
   style="font-style:normal;font-weight:normal;font-size:12px;font-family:Dialog;color-interpolation:auto;fill:#000000;fill-opacity:1;stroke:#000000;stroke-width:1;stroke-linecap:square;stroke-linejoin:miter;stroke-miterlimit:10;stroke-dasharray:none;stroke-dashoffset:0;stroke-opacity:1;color-rendering:auto;image-rendering:auto;shape-rendering:auto;text-rendering:auto"
   width="8.5in"
   height="11in"
   version="1.1"
   id="svg12129"
   sodipodi:docname="20210916154515.svg"
   inkscape:version="1.1-dev (b471b9b, 2020-09-09)"
   xmlns:inkscape="http://www.inkscape.org/namespaces/inkscape"
   xmlns:sodipodi="http://sodipodi.sourceforge.net/DTD/sodipodi-0.dtd"
   xmlns="http://www.w3.org/2000/svg"
   xmlns:svg="http://www.w3.org/2000/svg">
  <sodipodi:namedview
     pagecolor="#ffffff"
     bordercolor="#666666"
     borderopacity="1"
     objecttolerance="10"
     gridtolerance="10"
     guidetolerance="10"
     inkscape:pageopacity="0"
     inkscape:pageshadow="2"
     inkscape:window-width="1440"
     inkscape:window-height="791"
     id="namedview12131"
     showgrid="false"
     units="in"
     inkscape:zoom="0.33742895"
     inkscape:cx="325.99456"
     inkscape:cy="336.36711"
     inkscape:window-x="-1"
     inkscape:window-y="25"
     inkscape:window-maximized="0"
     inkscape:current-layer="svg12129" />
  <!--Generated by the Batik Graphics2D SVG Generator-->
  <defs
     id="genericDefs" />
  <g
     id="g15093"
     transform="matrix(0.8,0,0,0.8,69.6,97.2)">
    <path
       style="fill:none;stroke-linecap:round"
       d="M 115,3 125,20.6795 145.3109,20.5 135,38 145.3109,55.5 125,55.3205 115,73 105,55.3205 84.6891,55.5 95,38 84.6891,20.5 105,20.6795 Z"
       id="path8607" />
    <path
       style="fill:none;stroke-linecap:round"
       d="M 115,10 123,24.1436 139.2487,24 131,38 139.2487,52 123,51.8564 115,66 107,51.8564 90.7513,52 99,38 90.7513,24 107,24.1436 Z"
       id="path8611" />
    <path
       style="fill:none;stroke-linecap:round"
       d="M 115,17 121,27.6077 133.1865,27.5 127,38 133.1865,48.5 121,48.3923 115,59 109,48.3923 96.8135,48.5 103,38 96.8135,27.5 109,27.6077 Z"
       id="path8615" />
    <path
       style="fill:none;stroke-linecap:round"
       d="m 115,24 4,7.0718 L 127.1244,31 123,38 127.1244,45 119,44.9282 115,52 111,44.9282 102.8756,45 107,38 102.8756,31 111,31.0718 Z"
       id="path8619" />
    <path
       style="fill:none;stroke-linecap:round"
       d="M 269,3 279,20.6795 299.3109,20.5 289,38 299.3109,55.5 279,55.3205 269,73 259,55.3205 238.6891,55.5 249,38 238.6891,20.5 259,20.6795 Z"
       id="path8639" />
    <path
       style="fill:none;stroke-linecap:round"
       d="M 269,10 277,24.1436 293.2487,24 285,38 293.2487,52 277,51.8564 269,66 261,51.8564 244.7513,52 253,38 244.7513,24 261,24.1436 Z"
       id="path8643" />
    <path
       style="fill:none;stroke-linecap:round"
       d="M 269,17 275,27.6077 287.1865,27.5 281,38 287.1865,48.5 275,48.3923 269,59 263,48.3923 250.8135,48.5 257,38 250.8135,27.5 263,27.6077 Z"
       id="path8647" />
    <path
       style="fill:none;stroke-linecap:round"
       d="m 269,24 4,7.0718 L 281.1244,31 277,38 281.1244,45 273,44.9282 269,52 265,44.9282 256.8756,45 261,38 256.8756,31 265,31.0718 Z"
       id="path8651" />
    <path
       style="fill:none;stroke-linecap:round"
       d="M 423,3 433,20.6795 453.3109,20.5 443,38 453.3109,55.5 433,55.3205 423,73 413,55.3205 392.6891,55.5 403,38 392.6891,20.5 413,20.6795 Z"
       id="path8671" />
    <path
       style="fill:none;stroke-linecap:round"
       d="M 423,10 431,24.1436 447.2487,24 439,38 447.2487,52 431,51.8564 423,66 415,51.8564 398.7513,52 407,38 398.7513,24 415,24.1436 Z"
       id="path8675" />
    <path
       style="fill:none;stroke-linecap:round"
       d="M 423,17 429,27.6077 441.1865,27.5 435,38 441.1865,48.5 429,48.3923 423,59 417,48.3923 404.8135,48.5 411,38 404.8135,27.5 417,27.6077 Z"
       id="path8679" />
    <path
       style="fill:none;stroke-linecap:round"
       d="m 423,24 4,7.0718 L 435.1244,31 431,38 435.1244,45 427,44.9282 423,52 419,44.9282 410.8756,45 415,38 410.8756,31 419,31.0718 Z"
       id="path8683" />
    <path
       style="fill:none;stroke-linecap:round"
       d="M 577,3 587,20.6795 607.3109,20.5 597,38 607.3109,55.5 587,55.3205 577,73 567,55.3205 546.6891,55.5 557,38 546.6891,20.5 567,20.6795 Z"
       id="path8703" />
    <path
       style="fill:none;stroke-linecap:round"
       d="M 577,10 585,24.1436 601.2487,24 593,38 601.2487,52 585,51.8564 577,66 569,51.8564 552.7513,52 561,38 552.7513,24 569,24.1436 Z"
       id="path8707" />
    <path
       style="fill:none;stroke-linecap:round"
       d="M 577,17 583,27.6077 595.1865,27.5 589,38 595.1865,48.5 583,48.3923 577,59 571,48.3923 558.8135,48.5 565,38 558.8135,27.5 571,27.6077 Z"
       id="path8711" />
    <path
       style="fill:none;stroke-linecap:round"
       d="m 577,24 4,7.0718 L 589.1244,31 585,38 589.1244,45 581,44.9282 577,52 573,44.9282 564.8756,45 569,38 564.8756,31 573,31.0718 Z"
       id="path8715" />
    <path
       style="fill:none;stroke-linecap:round"
       d="M 731,3 741,20.6795 761.3109,20.5 751,38 761.3109,55.5 741,55.3205 731,73 721,55.3205 700.6891,55.5 711,38 700.6891,20.5 721,20.6795 Z"
       id="path8735" />
    <path
       style="fill:none;stroke-linecap:round"
       d="M 731,10 739,24.1436 755.2487,24 747,38 755.2487,52 739,51.8564 731,66 723,51.8564 706.7513,52 715,38 706.7513,24 723,24.1436 Z"
       id="path8739" />
    <path
       style="fill:none;stroke-linecap:round"
       d="M 731,17 737,27.6077 749.1865,27.5 743,38 749.1865,48.5 737,48.3923 731,59 725,48.3923 712.8135,48.5 719,38 712.8135,27.5 725,27.6077 Z"
       id="path8743" />
    <path
       style="fill:none;stroke-linecap:round"
       d="m 731,24 4,7.0718 L 743.1244,31 739,38 743.1244,45 735,44.9282 731,52 727,44.9282 718.8756,45 723,38 718.8756,31 727,31.0718 Z"
       id="path8747" />
    <path
       style="fill:none;stroke-linecap:round"
       d="M 38,80 48,97.6795 68.3109,97.5 58,115 68.3109,132.5 48,132.3205 38,150 28,132.3205 7.6891,132.5 18,115 7.6891,97.5 28,97.6795 Z"
       id="path8767" />
    <path
       style="fill:none;stroke-linecap:round"
       d="M 38,87 46,101.1436 62.2487,101 54,115 62.2487,129 46,128.8564 38,143 30,128.8564 13.7513,129 22,115 13.7513,101 30,101.1436 Z"
       id="path8771" />
    <path
       style="fill:none;stroke-linecap:round"
       d="M 38,94 44,104.6077 56.1865,104.5 50,115 56.1865,125.5 44,125.3923 38,136 32,125.3923 19.8135,125.5 26,115 19.8135,104.5 32,104.6077 Z"
       id="path8775" />
    <path
       style="fill:none;stroke-linecap:round"
       d="m 38,101 4,7.0718 L 50.1244,108 46,115 50.1244,122 42,121.9282 38,129 34,121.9282 25.8756,122 30,115 25.8756,108 34,108.0718 Z"
       id="path8779" />
    <path
       style="fill:none;stroke-linecap:round"
       d="M 192,80 202,97.6795 222.3109,97.5 212,115 222.3109,132.5 202,132.3205 192,150 182,132.3205 161.6891,132.5 172,115 161.6891,97.5 182,97.6795 Z"
       id="path8799" />
    <path
       style="fill:none;stroke-linecap:round"
       d="m 192,87 8,14.1436 L 216.2487,101 208,115 216.2487,129 200,128.8564 192,143 184,128.8564 167.7513,129 176,115 167.7513,101 184,101.1436 Z"
       id="path8803" />
    <path
       style="fill:none;stroke-linecap:round"
       d="m 192,94 6,10.6077 L 210.1865,104.5 204,115 210.1865,125.5 198,125.3923 192,136 186,125.3923 173.8135,125.5 180,115 173.8135,104.5 186,104.6077 Z"
       id="path8807" />
    <path
       style="fill:none;stroke-linecap:round"
       d="m 192,101 4,7.0718 L 204.1244,108 200,115 204.1244,122 196,121.9282 192,129 188,121.9282 179.8756,122 184,115 179.8756,108 188,108.0718 Z"
       id="path8811" />
    <path
       style="fill:none;stroke-linecap:round"
       d="M 346,80 356,97.6795 376.3109,97.5 366,115 376.3109,132.5 356,132.3205 346,150 336,132.3205 315.6891,132.5 326,115 315.6891,97.5 336,97.6795 Z"
       id="path8831" />
    <path
       style="fill:none;stroke-linecap:round"
       d="m 346,87 8,14.1436 L 370.2487,101 362,115 370.2487,129 354,128.8564 346,143 338,128.8564 321.7513,129 330,115 321.7513,101 338,101.1436 Z"
       id="path8835" />
    <path
       style="fill:none;stroke-linecap:round"
       d="m 346,94 6,10.6077 L 364.1865,104.5 358,115 364.1865,125.5 352,125.3923 346,136 340,125.3923 327.8135,125.5 334,115 327.8135,104.5 340,104.6077 Z"
       id="path8839" />
    <path
       style="fill:none;stroke-linecap:round"
       d="m 346,101 4,7.0718 L 358.1244,108 354,115 358.1244,122 350,121.9282 346,129 342,121.9282 333.8756,122 338,115 333.8756,108 342,108.0718 Z"
       id="path8843" />
    <path
       style="fill:none;stroke-linecap:round"
       d="M 500,80 510,97.6795 530.3109,97.5 520,115 530.3109,132.5 510,132.3205 500,150 490,132.3205 469.6891,132.5 480,115 469.6891,97.5 490,97.6795 Z"
       id="path8863" />
    <path
       style="fill:none;stroke-linecap:round"
       d="m 500,87 8,14.1436 L 524.2487,101 516,115 524.2487,129 508,128.8564 500,143 492,128.8564 475.7513,129 484,115 475.7513,101 492,101.1436 Z"
       id="path8867" />
    <path
       style="fill:none;stroke-linecap:round"
       d="m 500,94 6,10.6077 L 518.1865,104.5 512,115 518.1865,125.5 506,125.3923 500,136 494,125.3923 481.8135,125.5 488,115 481.8135,104.5 494,104.6077 Z"
       id="path8871" />
    <path
       style="fill:none;stroke-linecap:round"
       d="m 500,101 4,7.0718 L 512.1244,108 508,115 512.1244,122 504,121.9282 500,129 496,121.9282 487.8756,122 492,115 487.8756,108 496,108.0718 Z"
       id="path8875" />
    <path
       style="fill:none;stroke-linecap:round"
       d="M 654,80 664,97.6795 684.3109,97.5 674,115 684.3109,132.5 664,132.3205 654,150 644,132.3205 623.6891,132.5 634,115 623.6891,97.5 644,97.6795 Z"
       id="path8895" />
    <path
       style="fill:none;stroke-linecap:round"
       d="m 654,87 8,14.1436 L 678.2487,101 670,115 678.2487,129 662,128.8564 654,143 646,128.8564 629.7513,129 638,115 629.7513,101 646,101.1436 Z"
       id="path8899" />
    <path
       style="fill:none;stroke-linecap:round"
       d="m 654,94 6,10.6077 L 672.1865,104.5 666,115 672.1865,125.5 660,125.3923 654,136 648,125.3923 635.8135,125.5 642,115 635.8135,104.5 648,104.6077 Z"
       id="path8903" />
    <path
       style="fill:none;stroke-linecap:round"
       d="m 654,101 4,7.0718 L 666.1244,108 662,115 666.1244,122 658,121.9282 654,129 650,121.9282 641.8756,122 646,115 641.8756,108 650,108.0718 Z"
       id="path8907" />
    <path
       style="fill:none;stroke-linecap:round"
       d="M 808,80 818,97.6795 838.3109,97.5 828,115 838.3109,132.5 818,132.3205 808,150 798,132.3205 777.6891,132.5 788,115 777.6891,97.5 798,97.6795 Z"
       id="path8927" />
    <path
       style="fill:none;stroke-linecap:round"
       d="m 808,87 8,14.1436 L 832.2487,101 824,115 832.2487,129 816,128.8564 808,143 800,128.8564 783.7513,129 792,115 783.7513,101 800,101.1436 Z"
       id="path8931" />
    <path
       style="fill:none;stroke-linecap:round"
       d="m 808,94 6,10.6077 L 826.1865,104.5 820,115 826.1865,125.5 814,125.3923 808,136 802,125.3923 789.8135,125.5 796,115 789.8135,104.5 802,104.6077 Z"
       id="path8935" />
    <path
       style="fill:none;stroke-linecap:round"
       d="m 808,101 4,7.0718 L 820.1244,108 816,115 820.1244,122 812,121.9282 808,129 804,121.9282 795.8756,122 800,115 795.8756,108 804,108.0718 Z"
       id="path8939" />
    <path
       style="fill:none;stroke-linecap:round"
       d="M 115,157 125,174.6795 145.3109,174.5 135,192 145.3109,209.5 125,209.3205 115,227 105,209.3205 84.6891,209.5 95,192 84.6891,174.5 105,174.6795 Z"
       id="path8959" />
    <path
       style="fill:none;stroke-linecap:round"
       d="m 115,164 8,14.1436 L 139.2487,178 131,192 139.2487,206 123,205.8564 115,220 107,205.8564 90.7513,206 99,192 90.7513,178 107,178.1436 Z"
       id="path8963" />
    <path
       style="fill:none;stroke-linecap:round"
       d="m 115,171 6,10.6077 L 133.1865,181.5 127,192 133.1865,202.5 121,202.3923 115,213 109,202.3923 96.8135,202.5 103,192 96.8135,181.5 109,181.6077 Z"
       id="path8967" />
    <path
       style="fill:none;stroke-linecap:round"
       d="m 115,178 4,7.0718 L 127.1244,185 123,192 127.1244,199 119,198.9282 115,206 111,198.9282 102.8756,199 107,192 102.8756,185 111,185.0718 Z"
       id="path8971" />
    <path
       style="fill:none;stroke-linecap:round"
       d="M 269,157 279,174.6795 299.3109,174.5 289,192 299.3109,209.5 279,209.3205 269,227 259,209.3205 238.6891,209.5 249,192 238.6891,174.5 259,174.6795 Z"
       id="path8991" />
    <path
       style="fill:none;stroke-linecap:round"
       d="m 269,164 8,14.1436 L 293.2487,178 285,192 293.2487,206 277,205.8564 269,220 261,205.8564 244.7513,206 253,192 244.7513,178 261,178.1436 Z"
       id="path8995" />
    <path
       style="fill:none;stroke-linecap:round"
       d="m 269,171 6,10.6077 L 287.1865,181.5 281,192 287.1865,202.5 275,202.3923 269,213 263,202.3923 250.8135,202.5 257,192 250.8135,181.5 263,181.6077 Z"
       id="path8999" />
    <path
       style="fill:none;stroke-linecap:round"
       d="m 269,178 4,7.0718 L 281.1244,185 277,192 281.1244,199 273,198.9282 269,206 265,198.9282 256.8756,199 261,192 256.8756,185 265,185.0718 Z"
       id="path9003" />
    <path
       style="fill:none;stroke-linecap:round"
       d="M 423,157 433,174.6795 453.3109,174.5 443,192 453.3109,209.5 433,209.3205 423,227 413,209.3205 392.6891,209.5 403,192 392.6891,174.5 413,174.6795 Z"
       id="path9023" />
    <path
       style="fill:none;stroke-linecap:round"
       d="m 423,164 8,14.1436 L 447.2487,178 439,192 447.2487,206 431,205.8564 423,220 415,205.8564 398.7513,206 407,192 398.7513,178 415,178.1436 Z"
       id="path9027" />
    <path
       style="fill:none;stroke-linecap:round"
       d="m 423,171 6,10.6077 L 441.1865,181.5 435,192 441.1865,202.5 429,202.3923 423,213 417,202.3923 404.8135,202.5 411,192 404.8135,181.5 417,181.6077 Z"
       id="path9031" />
    <path
       style="fill:none;stroke-linecap:round"
       d="m 423,178 4,7.0718 L 435.1244,185 431,192 435.1244,199 427,198.9282 423,206 419,198.9282 410.8756,199 415,192 410.8756,185 419,185.0718 Z"
       id="path9035" />
    <path
       style="fill:none;stroke-linecap:round"
       d="M 577,157 587,174.6795 607.3109,174.5 597,192 607.3109,209.5 587,209.3205 577,227 567,209.3205 546.6891,209.5 557,192 546.6891,174.5 567,174.6795 Z"
       id="path9055" />
    <path
       style="fill:none;stroke-linecap:round"
       d="m 577,164 8,14.1436 L 601.2487,178 593,192 601.2487,206 585,205.8564 577,220 569,205.8564 552.7513,206 561,192 552.7513,178 569,178.1436 Z"
       id="path9059" />
    <path
       style="fill:none;stroke-linecap:round"
       d="m 577,171 6,10.6077 L 595.1865,181.5 589,192 595.1865,202.5 583,202.3923 577,213 571,202.3923 558.8135,202.5 565,192 558.8135,181.5 571,181.6077 Z"
       id="path9063" />
    <path
       style="fill:none;stroke-linecap:round"
       d="m 577,178 4,7.0718 L 589.1244,185 585,192 589.1244,199 581,198.9282 577,206 573,198.9282 564.8756,199 569,192 564.8756,185 573,185.0718 Z"
       id="path9067" />
    <path
       style="fill:none;stroke-linecap:round"
       d="M 731,157 741,174.6795 761.3109,174.5 751,192 761.3109,209.5 741,209.3205 731,227 721,209.3205 700.6891,209.5 711,192 700.6891,174.5 721,174.6795 Z"
       id="path9087" />
    <path
       style="fill:none;stroke-linecap:round"
       d="m 731,164 8,14.1436 L 755.2487,178 747,192 755.2487,206 739,205.8564 731,220 723,205.8564 706.7513,206 715,192 706.7513,178 723,178.1436 Z"
       id="path9091" />
    <path
       style="fill:none;stroke-linecap:round"
       d="m 731,171 6,10.6077 L 749.1865,181.5 743,192 749.1865,202.5 737,202.3923 731,213 725,202.3923 712.8135,202.5 719,192 712.8135,181.5 725,181.6077 Z"
       id="path9095" />
    <path
       style="fill:none;stroke-linecap:round"
       d="m 731,178 4,7.0718 L 743.1244,185 739,192 743.1244,199 735,198.9282 731,206 727,198.9282 718.8756,199 723,192 718.8756,185 727,185.0718 Z"
       id="path9099" />
    <path
       style="fill:none;stroke-linecap:round"
       d="M 38,234 48,251.6795 68.3109,251.5 58,269 68.3109,286.5 48,286.3205 38,304 28,286.3205 7.6891,286.5 18,269 7.6891,251.5 28,251.6795 Z"
       id="path9119" />
    <path
       style="fill:none;stroke-linecap:round"
       d="M 38,241 46,255.1436 62.2487,255 54,269 62.2487,283 46,282.8564 38,297 30,282.8564 13.7513,283 22,269 13.7513,255 30,255.1436 Z"
       id="path9123" />
    <path
       style="fill:none;stroke-linecap:round"
       d="M 38,248 44,258.6077 56.1865,258.5 50,269 56.1865,279.5 44,279.3923 38,290 32,279.3923 19.8135,279.5 26,269 19.8135,258.5 32,258.6077 Z"
       id="path9127" />
    <path
       style="fill:none;stroke-linecap:round"
       d="m 38,255 4,7.0718 L 50.1244,262 46,269 50.1244,276 42,275.9282 38,283 34,275.9282 25.8756,276 30,269 25.8756,262 34,262.0718 Z"
       id="path9131" />
    <path
       style="fill:none;stroke-linecap:round"
       d="M 192,234 202,251.6795 222.3109,251.5 212,269 222.3109,286.5 202,286.3205 192,304 182,286.3205 161.6891,286.5 172,269 161.6891,251.5 182,251.6795 Z"
       id="path9151" />
    <path
       style="fill:none;stroke-linecap:round"
       d="m 192,241 8,14.1436 L 216.2487,255 208,269 216.2487,283 200,282.8564 192,297 184,282.8564 167.7513,283 176,269 167.7513,255 184,255.1436 Z"
       id="path9155" />
    <path
       style="fill:none;stroke-linecap:round"
       d="m 192,248 6,10.6077 L 210.1865,258.5 204,269 210.1865,279.5 198,279.3923 192,290 186,279.3923 173.8135,279.5 180,269 173.8135,258.5 186,258.6077 Z"
       id="path9159" />
    <path
       style="fill:none;stroke-linecap:round"
       d="m 192,255 4,7.0718 L 204.1244,262 200,269 204.1244,276 196,275.9282 192,283 188,275.9282 179.8756,276 184,269 179.8756,262 188,262.0718 Z"
       id="path9163" />
    <path
       style="fill:none;stroke-linecap:round"
       d="M 346,234 356,251.6795 376.3109,251.5 366,269 376.3109,286.5 356,286.3205 346,304 336,286.3205 315.6891,286.5 326,269 315.6891,251.5 336,251.6795 Z"
       id="path9183" />
    <path
       style="fill:none;stroke-linecap:round"
       d="m 346,241 8,14.1436 L 370.2487,255 362,269 370.2487,283 354,282.8564 346,297 338,282.8564 321.7513,283 330,269 321.7513,255 338,255.1436 Z"
       id="path9187" />
    <path
       style="fill:none;stroke-linecap:round"
       d="m 346,248 6,10.6077 L 364.1865,258.5 358,269 364.1865,279.5 352,279.3923 346,290 340,279.3923 327.8135,279.5 334,269 327.8135,258.5 340,258.6077 Z"
       id="path9191" />
    <path
       style="fill:none;stroke-linecap:round"
       d="m 346,255 4,7.0718 L 358.1244,262 354,269 358.1244,276 350,275.9282 346,283 342,275.9282 333.8756,276 338,269 333.8756,262 342,262.0718 Z"
       id="path9195" />
    <path
       style="fill:none;stroke-linecap:round"
       d="M 500,234 510,251.6795 530.3109,251.5 520,269 530.3109,286.5 510,286.3205 500,304 490,286.3205 469.6891,286.5 480,269 469.6891,251.5 490,251.6795 Z"
       id="path9215" />
    <path
       style="fill:none;stroke-linecap:round"
       d="m 500,241 8,14.1436 L 524.2487,255 516,269 524.2487,283 508,282.8564 500,297 492,282.8564 475.7513,283 484,269 475.7513,255 492,255.1436 Z"
       id="path9219" />
    <path
       style="fill:none;stroke-linecap:round"
       d="m 500,248 6,10.6077 L 518.1865,258.5 512,269 518.1865,279.5 506,279.3923 500,290 494,279.3923 481.8135,279.5 488,269 481.8135,258.5 494,258.6077 Z"
       id="path9223" />
    <path
       style="fill:none;stroke-linecap:round"
       d="m 500,255 4,7.0718 L 512.1244,262 508,269 512.1244,276 504,275.9282 500,283 496,275.9282 487.8756,276 492,269 487.8756,262 496,262.0718 Z"
       id="path9227" />
    <path
       style="fill:none;stroke-linecap:round"
       d="M 654,234 664,251.6795 684.3109,251.5 674,269 684.3109,286.5 664,286.3205 654,304 644,286.3205 623.6891,286.5 634,269 623.6891,251.5 644,251.6795 Z"
       id="path9247" />
    <path
       style="fill:none;stroke-linecap:round"
       d="m 654,241 8,14.1436 L 678.2487,255 670,269 678.2487,283 662,282.8564 654,297 646,282.8564 629.7513,283 638,269 629.7513,255 646,255.1436 Z"
       id="path9251" />
    <path
       style="fill:none;stroke-linecap:round"
       d="m 654,248 6,10.6077 L 672.1865,258.5 666,269 672.1865,279.5 660,279.3923 654,290 648,279.3923 635.8135,279.5 642,269 635.8135,258.5 648,258.6077 Z"
       id="path9255" />
    <path
       style="fill:none;stroke-linecap:round"
       d="m 654,255 4,7.0718 L 666.1244,262 662,269 666.1244,276 658,275.9282 654,283 650,275.9282 641.8756,276 646,269 641.8756,262 650,262.0718 Z"
       id="path9259" />
    <path
       style="fill:none;stroke-linecap:round"
       d="M 808,234 818,251.6795 838.3109,251.5 828,269 838.3109,286.5 818,286.3205 808,304 798,286.3205 777.6891,286.5 788,269 777.6891,251.5 798,251.6795 Z"
       id="path9279" />
    <path
       style="fill:none;stroke-linecap:round"
       d="m 808,241 8,14.1436 L 832.2487,255 824,269 832.2487,283 816,282.8564 808,297 800,282.8564 783.7513,283 792,269 783.7513,255 800,255.1436 Z"
       id="path9283" />
    <path
       style="fill:none;stroke-linecap:round"
       d="m 808,248 6,10.6077 L 826.1865,258.5 820,269 826.1865,279.5 814,279.3923 808,290 802,279.3923 789.8135,279.5 796,269 789.8135,258.5 802,258.6077 Z"
       id="path9287" />
    <path
       style="fill:none;stroke-linecap:round"
       d="m 808,255 4,7.0718 L 820.1244,262 816,269 820.1244,276 812,275.9282 808,283 804,275.9282 795.8756,276 800,269 795.8756,262 804,262.0718 Z"
       id="path9291" />
    <path
       style="fill:none;stroke-linecap:round"
       d="M 115,311 125,328.6795 145.3109,328.5 135,346 145.3109,363.5 125,363.3205 115,381 105,363.3205 84.6891,363.5 95,346 84.6891,328.5 105,328.6795 Z"
       id="path9311" />
    <path
       style="fill:none;stroke-linecap:round"
       d="m 115,318 8,14.1436 L 139.2487,332 131,346 139.2487,360 123,359.8564 115,374 107,359.8564 90.7513,360 99,346 90.7513,332 107,332.1436 Z"
       id="path9315" />
    <path
       style="fill:none;stroke-linecap:round"
       d="m 115,325 6,10.6077 L 133.1865,335.5 127,346 133.1865,356.5 121,356.3923 115,367 109,356.3923 96.8135,356.5 103,346 96.8135,335.5 109,335.6077 Z"
       id="path9319" />
    <path
       style="fill:none;stroke-linecap:round"
       d="m 115,332 4,7.0718 L 127.1244,339 123,346 127.1244,353 119,352.9282 115,360 111,352.9282 102.8756,353 107,346 102.8756,339 111,339.0718 Z"
       id="path9323" />
    <path
       style="fill:none;stroke-linecap:round"
       d="M 269,311 279,328.6795 299.3109,328.5 289,346 299.3109,363.5 279,363.3205 269,381 259,363.3205 238.6891,363.5 249,346 238.6891,328.5 259,328.6795 Z"
       id="path9343" />
    <path
       style="fill:none;stroke-linecap:round"
       d="m 269,318 8,14.1436 L 293.2487,332 285,346 293.2487,360 277,359.8564 269,374 261,359.8564 244.7513,360 253,346 244.7513,332 261,332.1436 Z"
       id="path9347" />
    <path
       style="fill:none;stroke-linecap:round"
       d="m 269,325 6,10.6077 L 287.1865,335.5 281,346 287.1865,356.5 275,356.3923 269,367 263,356.3923 250.8135,356.5 257,346 250.8135,335.5 263,335.6077 Z"
       id="path9351" />
    <path
       style="fill:none;stroke-linecap:round"
       d="m 269,332 4,7.0718 L 281.1244,339 277,346 281.1244,353 273,352.9282 269,360 265,352.9282 256.8756,353 261,346 256.8756,339 265,339.0718 Z"
       id="path9355" />
    <path
       style="fill:none;stroke-linecap:round"
       d="M 423,311 433,328.6795 453.3109,328.5 443,346 453.3109,363.5 433,363.3205 423,381 413,363.3205 392.6891,363.5 403,346 392.6891,328.5 413,328.6795 Z"
       id="path9375" />
    <path
       style="fill:none;stroke-linecap:round"
       d="m 423,318 8,14.1436 L 447.2487,332 439,346 447.2487,360 431,359.8564 423,374 415,359.8564 398.7513,360 407,346 398.7513,332 415,332.1436 Z"
       id="path9379" />
    <path
       style="fill:none;stroke-linecap:round"
       d="m 423,325 6,10.6077 L 441.1865,335.5 435,346 441.1865,356.5 429,356.3923 423,367 417,356.3923 404.8135,356.5 411,346 404.8135,335.5 417,335.6077 Z"
       id="path9383" />
    <path
       style="fill:none;stroke-linecap:round"
       d="m 423,332 4,7.0718 L 435.1244,339 431,346 435.1244,353 427,352.9282 423,360 419,352.9282 410.8756,353 415,346 410.8756,339 419,339.0718 Z"
       id="path9387" />
    <path
       style="fill:none;stroke-linecap:round"
       d="M 577,311 587,328.6795 607.3109,328.5 597,346 607.3109,363.5 587,363.3205 577,381 567,363.3205 546.6891,363.5 557,346 546.6891,328.5 567,328.6795 Z"
       id="path9407" />
    <path
       style="fill:none;stroke-linecap:round"
       d="m 577,318 8,14.1436 L 601.2487,332 593,346 601.2487,360 585,359.8564 577,374 569,359.8564 552.7513,360 561,346 552.7513,332 569,332.1436 Z"
       id="path9411" />
    <path
       style="fill:none;stroke-linecap:round"
       d="m 577,325 6,10.6077 L 595.1865,335.5 589,346 595.1865,356.5 583,356.3923 577,367 571,356.3923 558.8135,356.5 565,346 558.8135,335.5 571,335.6077 Z"
       id="path9415" />
    <path
       style="fill:none;stroke-linecap:round"
       d="m 577,332 4,7.0718 L 589.1244,339 585,346 589.1244,353 581,352.9282 577,360 573,352.9282 564.8756,353 569,346 564.8756,339 573,339.0718 Z"
       id="path9419" />
    <path
       style="fill:none;stroke-linecap:round"
       d="M 731,311 741,328.6795 761.3109,328.5 751,346 761.3109,363.5 741,363.3205 731,381 721,363.3205 700.6891,363.5 711,346 700.6891,328.5 721,328.6795 Z"
       id="path9439" />
    <path
       style="fill:none;stroke-linecap:round"
       d="m 731,318 8,14.1436 L 755.2487,332 747,346 755.2487,360 739,359.8564 731,374 723,359.8564 706.7513,360 715,346 706.7513,332 723,332.1436 Z"
       id="path9443" />
    <path
       style="fill:none;stroke-linecap:round"
       d="m 731,325 6,10.6077 L 749.1865,335.5 743,346 749.1865,356.5 737,356.3923 731,367 725,356.3923 712.8135,356.5 719,346 712.8135,335.5 725,335.6077 Z"
       id="path9447" />
    <path
       style="fill:none;stroke-linecap:round"
       d="m 731,332 4,7.0718 L 743.1244,339 739,346 743.1244,353 735,352.9282 731,360 727,352.9282 718.8756,353 723,346 718.8756,339 727,339.0718 Z"
       id="path9451" />
    <path
       style="fill:none;stroke-linecap:round"
       d="M 38,388 48,405.6795 68.3109,405.5 58,423 68.3109,440.5 48,440.3205 38,458 28,440.3205 7.6891,440.5 18,423 7.6891,405.5 28,405.6795 Z"
       id="path9471" />
    <path
       style="fill:none;stroke-linecap:round"
       d="M 38,395 46,409.1436 62.2487,409 54,423 62.2487,437 46,436.8564 38,451 30,436.8564 13.7513,437 22,423 13.7513,409 30,409.1436 Z"
       id="path9475" />
    <path
       style="fill:none;stroke-linecap:round"
       d="M 38,402 44,412.6077 56.1865,412.5 50,423 56.1865,433.5 44,433.3923 38,444 32,433.3923 19.8135,433.5 26,423 19.8135,412.5 32,412.6077 Z"
       id="path9479" />
    <path
       style="fill:none;stroke-linecap:round"
       d="m 38,409 4,7.0718 L 50.1244,416 46,423 50.1244,430 42,429.9282 38,437 34,429.9282 25.8756,430 30,423 25.8756,416 34,416.0718 Z"
       id="path9483" />
    <path
       style="fill:none;stroke-linecap:round"
       d="M 192,388 202,405.6795 222.3109,405.5 212,423 222.3109,440.5 202,440.3205 192,458 182,440.3205 161.6891,440.5 172,423 161.6891,405.5 182,405.6795 Z"
       id="path9503" />
    <path
       style="fill:none;stroke-linecap:round"
       d="m 192,395 8,14.1436 L 216.2487,409 208,423 216.2487,437 200,436.8564 192,451 184,436.8564 167.7513,437 176,423 167.7513,409 184,409.1436 Z"
       id="path9507" />
    <path
       style="fill:none;stroke-linecap:round"
       d="m 192,402 6,10.6077 L 210.1865,412.5 204,423 210.1865,433.5 198,433.3923 192,444 186,433.3923 173.8135,433.5 180,423 173.8135,412.5 186,412.6077 Z"
       id="path9511" />
    <path
       style="fill:none;stroke-linecap:round"
       d="m 192,409 4,7.0718 L 204.1244,416 200,423 204.1244,430 196,429.9282 192,437 188,429.9282 179.8756,430 184,423 179.8756,416 188,416.0718 Z"
       id="path9515" />
    <path
       style="fill:none;stroke-linecap:round"
       d="M 346,388 356,405.6795 376.3109,405.5 366,423 376.3109,440.5 356,440.3205 346,458 336,440.3205 315.6891,440.5 326,423 315.6891,405.5 336,405.6795 Z"
       id="path9535" />
    <path
       style="fill:none;stroke-linecap:round"
       d="m 346,395 8,14.1436 L 370.2487,409 362,423 370.2487,437 354,436.8564 346,451 338,436.8564 321.7513,437 330,423 321.7513,409 338,409.1436 Z"
       id="path9539" />
    <path
       style="fill:none;stroke-linecap:round"
       d="m 346,402 6,10.6077 L 364.1865,412.5 358,423 364.1865,433.5 352,433.3923 346,444 340,433.3923 327.8135,433.5 334,423 327.8135,412.5 340,412.6077 Z"
       id="path9543" />
    <path
       style="fill:none;stroke-linecap:round"
       d="m 346,409 4,7.0718 L 358.1244,416 354,423 358.1244,430 350,429.9282 346,437 342,429.9282 333.8756,430 338,423 333.8756,416 342,416.0718 Z"
       id="path9547" />
    <path
       style="fill:none;stroke-linecap:round"
       d="M 500,388 510,405.6795 530.3109,405.5 520,423 530.3109,440.5 510,440.3205 500,458 490,440.3205 469.6891,440.5 480,423 469.6891,405.5 490,405.6795 Z"
       id="path9567" />
    <path
       style="fill:none;stroke-linecap:round"
       d="m 500,395 8,14.1436 L 524.2487,409 516,423 524.2487,437 508,436.8564 500,451 492,436.8564 475.7513,437 484,423 475.7513,409 492,409.1436 Z"
       id="path9571" />
    <path
       style="fill:none;stroke-linecap:round"
       d="m 500,402 6,10.6077 L 518.1865,412.5 512,423 518.1865,433.5 506,433.3923 500,444 494,433.3923 481.8135,433.5 488,423 481.8135,412.5 494,412.6077 Z"
       id="path9575" />
    <path
       style="fill:none;stroke-linecap:round"
       d="m 500,409 4,7.0718 L 512.1244,416 508,423 512.1244,430 504,429.9282 500,437 496,429.9282 487.8756,430 492,423 487.8756,416 496,416.0718 Z"
       id="path9579" />
    <path
       style="fill:none;stroke-linecap:round"
       d="M 654,388 664,405.6795 684.3109,405.5 674,423 684.3109,440.5 664,440.3205 654,458 644,440.3205 623.6891,440.5 634,423 623.6891,405.5 644,405.6795 Z"
       id="path9599" />
    <path
       style="fill:none;stroke-linecap:round"
       d="m 654,395 8,14.1436 L 678.2487,409 670,423 678.2487,437 662,436.8564 654,451 646,436.8564 629.7513,437 638,423 629.7513,409 646,409.1436 Z"
       id="path9603" />
    <path
       style="fill:none;stroke-linecap:round"
       d="m 654,402 6,10.6077 L 672.1865,412.5 666,423 672.1865,433.5 660,433.3923 654,444 648,433.3923 635.8135,433.5 642,423 635.8135,412.5 648,412.6077 Z"
       id="path9607" />
    <path
       style="fill:none;stroke-linecap:round"
       d="m 654,409 4,7.0718 L 666.1244,416 662,423 666.1244,430 658,429.9282 654,437 650,429.9282 641.8756,430 646,423 641.8756,416 650,416.0718 Z"
       id="path9611" />
    <path
       style="fill:none;stroke-linecap:round"
       d="M 808,388 818,405.6795 838.3109,405.5 828,423 838.3109,440.5 818,440.3205 808,458 798,440.3205 777.6891,440.5 788,423 777.6891,405.5 798,405.6795 Z"
       id="path9631" />
    <path
       style="fill:none;stroke-linecap:round"
       d="m 808,395 8,14.1436 L 832.2487,409 824,423 832.2487,437 816,436.8564 808,451 800,436.8564 783.7513,437 792,423 783.7513,409 800,409.1436 Z"
       id="path9635" />
    <path
       style="fill:none;stroke-linecap:round"
       d="m 808,402 6,10.6077 L 826.1865,412.5 820,423 826.1865,433.5 814,433.3923 808,444 802,433.3923 789.8135,433.5 796,423 789.8135,412.5 802,412.6077 Z"
       id="path9639" />
    <path
       style="fill:none;stroke-linecap:round"
       d="m 808,409 4,7.0718 L 820.1244,416 816,423 820.1244,430 812,429.9282 808,437 804,429.9282 795.8756,430 800,423 795.8756,416 804,416.0718 Z"
       id="path9643" />
    <path
       style="fill:none;stroke-linecap:round"
       d="M 115,465 125,482.6795 145.3109,482.5 135,500 145.3109,517.5 125,517.3205 115,535 105,517.3205 84.6891,517.5 95,500 84.6891,482.5 105,482.6795 Z"
       id="path9663" />
    <path
       style="fill:none;stroke-linecap:round"
       d="m 115,472 8,14.1436 L 139.2487,486 131,500 139.2487,514 123,513.8564 115,528 107,513.8564 90.7513,514 99,500 90.7513,486 107,486.1436 Z"
       id="path9667" />
    <path
       style="fill:none;stroke-linecap:round"
       d="m 115,479 6,10.6077 L 133.1865,489.5 127,500 133.1865,510.5 121,510.3923 115,521 109,510.3923 96.8135,510.5 103,500 96.8135,489.5 109,489.6077 Z"
       id="path9671" />
    <path
       style="fill:none;stroke-linecap:round"
       d="m 115,486 4,7.0718 L 127.1244,493 123,500 127.1244,507 119,506.9282 115,514 111,506.9282 102.8756,507 107,500 102.8756,493 111,493.0718 Z"
       id="path9675" />
    <path
       style="fill:none;stroke-linecap:round"
       d="M 269,465 279,482.6795 299.3109,482.5 289,500 299.3109,517.5 279,517.3205 269,535 259,517.3205 238.6891,517.5 249,500 238.6891,482.5 259,482.6795 Z"
       id="path9695" />
    <path
       style="fill:none;stroke-linecap:round"
       d="m 269,472 8,14.1436 L 293.2487,486 285,500 293.2487,514 277,513.8564 269,528 261,513.8564 244.7513,514 253,500 244.7513,486 261,486.1436 Z"
       id="path9699" />
    <path
       style="fill:none;stroke-linecap:round"
       d="m 269,479 6,10.6077 L 287.1865,489.5 281,500 287.1865,510.5 275,510.3923 269,521 263,510.3923 250.8135,510.5 257,500 250.8135,489.5 263,489.6077 Z"
       id="path9703" />
    <path
       style="fill:none;stroke-linecap:round"
       d="m 269,486 4,7.0718 L 281.1244,493 277,500 281.1244,507 273,506.9282 269,514 265,506.9282 256.8756,507 261,500 256.8756,493 265,493.0718 Z"
       id="path9707" />
    <path
       style="fill:none;stroke-linecap:round"
       d="M 423,465 433,482.6795 453.3109,482.5 443,500 453.3109,517.5 433,517.3205 423,535 413,517.3205 392.6891,517.5 403,500 392.6891,482.5 413,482.6795 Z"
       id="path9727" />
    <path
       style="fill:none;stroke-linecap:round"
       d="m 423,472 8,14.1436 L 447.2487,486 439,500 447.2487,514 431,513.8564 423,528 415,513.8564 398.7513,514 407,500 398.7513,486 415,486.1436 Z"
       id="path9731" />
    <path
       style="fill:none;stroke-linecap:round"
       d="m 423,479 6,10.6077 L 441.1865,489.5 435,500 441.1865,510.5 429,510.3923 423,521 417,510.3923 404.8135,510.5 411,500 404.8135,489.5 417,489.6077 Z"
       id="path9735" />
    <path
       style="fill:none;stroke-linecap:round"
       d="m 423,486 4,7.0718 L 435.1244,493 431,500 435.1244,507 427,506.9282 423,514 419,506.9282 410.8756,507 415,500 410.8756,493 419,493.0718 Z"
       id="path9739" />
    <path
       style="fill:none;stroke-linecap:round"
       d="M 577,465 587,482.6795 607.3109,482.5 597,500 607.3109,517.5 587,517.3205 577,535 567,517.3205 546.6891,517.5 557,500 546.6891,482.5 567,482.6795 Z"
       id="path9759" />
    <path
       style="fill:none;stroke-linecap:round"
       d="m 577,472 8,14.1436 L 601.2487,486 593,500 601.2487,514 585,513.8564 577,528 569,513.8564 552.7513,514 561,500 552.7513,486 569,486.1436 Z"
       id="path9763" />
    <path
       style="fill:none;stroke-linecap:round"
       d="m 577,479 6,10.6077 L 595.1865,489.5 589,500 595.1865,510.5 583,510.3923 577,521 571,510.3923 558.8135,510.5 565,500 558.8135,489.5 571,489.6077 Z"
       id="path9767" />
    <path
       style="fill:none;stroke-linecap:round"
       d="m 577,486 4,7.0718 L 589.1244,493 585,500 589.1244,507 581,506.9282 577,514 573,506.9282 564.8756,507 569,500 564.8756,493 573,493.0718 Z"
       id="path9771" />
    <path
       style="fill:none;stroke-linecap:round"
       d="M 731,465 741,482.6795 761.3109,482.5 751,500 761.3109,517.5 741,517.3205 731,535 721,517.3205 700.6891,517.5 711,500 700.6891,482.5 721,482.6795 Z"
       id="path9791" />
    <path
       style="fill:none;stroke-linecap:round"
       d="m 731,472 8,14.1436 L 755.2487,486 747,500 755.2487,514 739,513.8564 731,528 723,513.8564 706.7513,514 715,500 706.7513,486 723,486.1436 Z"
       id="path9795" />
    <path
       style="fill:none;stroke-linecap:round"
       d="m 731,479 6,10.6077 L 749.1865,489.5 743,500 749.1865,510.5 737,510.3923 731,521 725,510.3923 712.8135,510.5 719,500 712.8135,489.5 725,489.6077 Z"
       id="path9799" />
    <path
       style="fill:none;stroke-linecap:round"
       d="m 731,486 4,7.0718 L 743.1244,493 739,500 743.1244,507 735,506.9282 731,514 727,506.9282 718.8756,507 723,500 718.8756,493 727,493.0718 Z"
       id="path9803" />
    <path
       style="fill:none;stroke-linecap:round"
       d="M 38,542 48,559.6795 68.3109,559.5 58,577 68.3109,594.5 48,594.3205 38,612 28,594.3205 7.6891,594.5 18,577 7.6891,559.5 28,559.6795 Z"
       id="path9823" />
    <path
       style="fill:none;stroke-linecap:round"
       d="M 38,549 46,563.1436 62.2487,563 54,577 62.2487,591 46,590.8564 38,605 30,590.8564 13.7513,591 22,577 13.7513,563 30,563.1436 Z"
       id="path9827" />
    <path
       style="fill:none;stroke-linecap:round"
       d="M 38,556 44,566.6077 56.1865,566.5 50,577 56.1865,587.5 44,587.3923 38,598 32,587.3923 19.8135,587.5 26,577 19.8135,566.5 32,566.6077 Z"
       id="path9831" />
    <path
       style="fill:none;stroke-linecap:round"
       d="m 38,563 4,7.0718 L 50.1244,570 46,577 50.1244,584 42,583.9282 38,591 34,583.9282 25.8756,584 30,577 25.8756,570 34,570.0718 Z"
       id="path9835" />
    <path
       style="fill:none;stroke-linecap:round"
       d="M 192,542 202,559.6795 222.3109,559.5 212,577 222.3109,594.5 202,594.3205 192,612 182,594.3205 161.6891,594.5 172,577 161.6891,559.5 182,559.6795 Z"
       id="path9855" />
    <path
       style="fill:none;stroke-linecap:round"
       d="m 192,549 8,14.1436 L 216.2487,563 208,577 216.2487,591 200,590.8564 192,605 184,590.8564 167.7513,591 176,577 167.7513,563 184,563.1436 Z"
       id="path9859" />
    <path
       style="fill:none;stroke-linecap:round"
       d="m 192,556 6,10.6077 L 210.1865,566.5 204,577 210.1865,587.5 198,587.3923 192,598 186,587.3923 173.8135,587.5 180,577 173.8135,566.5 186,566.6077 Z"
       id="path9863" />
    <path
       style="fill:none;stroke-linecap:round"
       d="m 192,563 4,7.0718 L 204.1244,570 200,577 204.1244,584 196,583.9282 192,591 188,583.9282 179.8756,584 184,577 179.8756,570 188,570.0718 Z"
       id="path9867" />
    <path
       style="fill:none;stroke-linecap:round"
       d="M 346,542 356,559.6795 376.3109,559.5 366,577 376.3109,594.5 356,594.3205 346,612 336,594.3205 315.6891,594.5 326,577 315.6891,559.5 336,559.6795 Z"
       id="path9887" />
    <path
       style="fill:none;stroke-linecap:round"
       d="m 346,549 8,14.1436 L 370.2487,563 362,577 370.2487,591 354,590.8564 346,605 338,590.8564 321.7513,591 330,577 321.7513,563 338,563.1436 Z"
       id="path9891" />
    <path
       style="fill:none;stroke-linecap:round"
       d="m 346,556 6,10.6077 L 364.1865,566.5 358,577 364.1865,587.5 352,587.3923 346,598 340,587.3923 327.8135,587.5 334,577 327.8135,566.5 340,566.6077 Z"
       id="path9895" />
    <path
       style="fill:none;stroke-linecap:round"
       d="m 346,563 4,7.0718 L 358.1244,570 354,577 358.1244,584 350,583.9282 346,591 342,583.9282 333.8756,584 338,577 333.8756,570 342,570.0718 Z"
       id="path9899" />
    <path
       style="fill:none;stroke-linecap:round"
       d="M 500,542 510,559.6795 530.3109,559.5 520,577 530.3109,594.5 510,594.3205 500,612 490,594.3205 469.6891,594.5 480,577 469.6891,559.5 490,559.6795 Z"
       id="path9919" />
    <path
       style="fill:none;stroke-linecap:round"
       d="m 500,549 8,14.1436 L 524.2487,563 516,577 524.2487,591 508,590.8564 500,605 492,590.8564 475.7513,591 484,577 475.7513,563 492,563.1436 Z"
       id="path9923" />
    <path
       style="fill:none;stroke-linecap:round"
       d="m 500,556 6,10.6077 L 518.1865,566.5 512,577 518.1865,587.5 506,587.3923 500,598 494,587.3923 481.8135,587.5 488,577 481.8135,566.5 494,566.6077 Z"
       id="path9927" />
    <path
       style="fill:none;stroke-linecap:round"
       d="m 500,563 4,7.0718 L 512.1244,570 508,577 512.1244,584 504,583.9282 500,591 496,583.9282 487.8756,584 492,577 487.8756,570 496,570.0718 Z"
       id="path9931" />
    <path
       style="fill:none;stroke-linecap:round"
       d="M 654,542 664,559.6795 684.3109,559.5 674,577 684.3109,594.5 664,594.3205 654,612 644,594.3205 623.6891,594.5 634,577 623.6891,559.5 644,559.6795 Z"
       id="path9951" />
    <path
       style="fill:none;stroke-linecap:round"
       d="m 654,549 8,14.1436 L 678.2487,563 670,577 678.2487,591 662,590.8564 654,605 646,590.8564 629.7513,591 638,577 629.7513,563 646,563.1436 Z"
       id="path9955" />
    <path
       style="fill:none;stroke-linecap:round"
       d="m 654,556 6,10.6077 L 672.1865,566.5 666,577 672.1865,587.5 660,587.3923 654,598 648,587.3923 635.8135,587.5 642,577 635.8135,566.5 648,566.6077 Z"
       id="path9959" />
    <path
       style="fill:none;stroke-linecap:round"
       d="m 654,563 4,7.0718 L 666.1244,570 662,577 666.1244,584 658,583.9282 654,591 650,583.9282 641.8756,584 646,577 641.8756,570 650,570.0718 Z"
       id="path9963" />
    <path
       style="fill:none;stroke-linecap:round"
       d="M 808,542 818,559.6795 838.3109,559.5 828,577 838.3109,594.5 818,594.3205 808,612 798,594.3205 777.6891,594.5 788,577 777.6891,559.5 798,559.6795 Z"
       id="path9983" />
    <path
       style="fill:none;stroke-linecap:round"
       d="m 808,549 8,14.1436 L 832.2487,563 824,577 832.2487,591 816,590.8564 808,605 800,590.8564 783.7513,591 792,577 783.7513,563 800,563.1436 Z"
       id="path9987" />
    <path
       style="fill:none;stroke-linecap:round"
       d="m 808,556 6,10.6077 L 826.1865,566.5 820,577 826.1865,587.5 814,587.3923 808,598 802,587.3923 789.8135,587.5 796,577 789.8135,566.5 802,566.6077 Z"
       id="path9991" />
    <path
       style="fill:none;stroke-linecap:round"
       d="m 808,563 4,7.0718 L 820.1244,570 816,577 820.1244,584 812,583.9282 808,591 804,583.9282 795.8756,584 800,577 795.8756,570 804,570.0718 Z"
       id="path9995" />
    <path
       style="fill:none;stroke-linecap:round"
       d="M 115,619 125,636.6795 145.3109,636.5 135,654 145.3109,671.5 125,671.3205 115,689 105,671.3205 84.6891,671.5 95,654 84.6891,636.5 105,636.6795 Z"
       id="path10015" />
    <path
       style="fill:none;stroke-linecap:round"
       d="m 115,626 8,14.1436 L 139.2487,640 131,654 139.2487,668 123,667.8564 115,682 107,667.8564 90.7513,668 99,654 90.7513,640 107,640.1436 Z"
       id="path10019" />
    <path
       style="fill:none;stroke-linecap:round"
       d="m 115,633 6,10.6077 L 133.1865,643.5 127,654 133.1865,664.5 121,664.3923 115,675 109,664.3923 96.8135,664.5 103,654 96.8135,643.5 109,643.6077 Z"
       id="path10023" />
    <path
       style="fill:none;stroke-linecap:round"
       d="m 115,640 4,7.0718 L 127.1244,647 123,654 127.1244,661 119,660.9282 115,668 111,660.9282 102.8756,661 107,654 102.8756,647 111,647.0718 Z"
       id="path10027" />
    <path
       style="fill:none;stroke-linecap:round"
       d="M 269,619 279,636.6795 299.3109,636.5 289,654 299.3109,671.5 279,671.3205 269,689 259,671.3205 238.6891,671.5 249,654 238.6891,636.5 259,636.6795 Z"
       id="path10047" />
    <path
       style="fill:none;stroke-linecap:round"
       d="m 269,626 8,14.1436 L 293.2487,640 285,654 293.2487,668 277,667.8564 269,682 261,667.8564 244.7513,668 253,654 244.7513,640 261,640.1436 Z"
       id="path10051" />
    <path
       style="fill:none;stroke-linecap:round"
       d="m 269,633 6,10.6077 L 287.1865,643.5 281,654 287.1865,664.5 275,664.3923 269,675 263,664.3923 250.8135,664.5 257,654 250.8135,643.5 263,643.6077 Z"
       id="path10055" />
    <path
       style="fill:none;stroke-linecap:round"
       d="m 269,640 4,7.0718 L 281.1244,647 277,654 281.1244,661 273,660.9282 269,668 265,660.9282 256.8756,661 261,654 256.8756,647 265,647.0718 Z"
       id="path10059" />
    <path
       style="fill:none;stroke-linecap:round"
       d="M 423,619 433,636.6795 453.3109,636.5 443,654 453.3109,671.5 433,671.3205 423,689 413,671.3205 392.6891,671.5 403,654 392.6891,636.5 413,636.6795 Z"
       id="path10079" />
    <path
       style="fill:none;stroke-linecap:round"
       d="m 423,626 8,14.1436 L 447.2487,640 439,654 447.2487,668 431,667.8564 423,682 415,667.8564 398.7513,668 407,654 398.7513,640 415,640.1436 Z"
       id="path10083" />
    <path
       style="fill:none;stroke-linecap:round"
       d="m 423,633 6,10.6077 L 441.1865,643.5 435,654 441.1865,664.5 429,664.3923 423,675 417,664.3923 404.8135,664.5 411,654 404.8135,643.5 417,643.6077 Z"
       id="path10087" />
    <path
       style="fill:none;stroke-linecap:round"
       d="m 423,640 4,7.0718 L 435.1244,647 431,654 435.1244,661 427,660.9282 423,668 419,660.9282 410.8756,661 415,654 410.8756,647 419,647.0718 Z"
       id="path10091" />
    <path
       style="fill:none;stroke-linecap:round"
       d="M 577,619 587,636.6795 607.3109,636.5 597,654 607.3109,671.5 587,671.3205 577,689 567,671.3205 546.6891,671.5 557,654 546.6891,636.5 567,636.6795 Z"
       id="path10111" />
    <path
       style="fill:none;stroke-linecap:round"
       d="m 577,626 8,14.1436 L 601.2487,640 593,654 601.2487,668 585,667.8564 577,682 569,667.8564 552.7513,668 561,654 552.7513,640 569,640.1436 Z"
       id="path10115" />
    <path
       style="fill:none;stroke-linecap:round"
       d="m 577,633 6,10.6077 L 595.1865,643.5 589,654 595.1865,664.5 583,664.3923 577,675 571,664.3923 558.8135,664.5 565,654 558.8135,643.5 571,643.6077 Z"
       id="path10119" />
    <path
       style="fill:none;stroke-linecap:round"
       d="m 577,640 4,7.0718 L 589.1244,647 585,654 589.1244,661 581,660.9282 577,668 573,660.9282 564.8756,661 569,654 564.8756,647 573,647.0718 Z"
       id="path10123" />
    <path
       style="fill:none;stroke-linecap:round"
       d="M 731,619 741,636.6795 761.3109,636.5 751,654 761.3109,671.5 741,671.3205 731,689 721,671.3205 700.6891,671.5 711,654 700.6891,636.5 721,636.6795 Z"
       id="path10143" />
    <path
       style="fill:none;stroke-linecap:round"
       d="m 731,626 8,14.1436 L 755.2487,640 747,654 755.2487,668 739,667.8564 731,682 723,667.8564 706.7513,668 715,654 706.7513,640 723,640.1436 Z"
       id="path10147" />
    <path
       style="fill:none;stroke-linecap:round"
       d="m 731,633 6,10.6077 L 749.1865,643.5 743,654 749.1865,664.5 737,664.3923 731,675 725,664.3923 712.8135,664.5 719,654 712.8135,643.5 725,643.6077 Z"
       id="path10151" />
    <path
       style="fill:none;stroke-linecap:round"
       d="m 731,640 4,7.0718 L 743.1244,647 739,654 743.1244,661 735,660.9282 731,668 727,660.9282 718.8756,661 723,654 718.8756,647 727,647.0718 Z"
       id="path10155" />
    <path
       style="fill:none;stroke-linecap:round"
       d="M 38,696 48,713.6795 68.3109,713.5 58,731 68.3109,748.5 48,748.3205 38,766 28,748.3205 7.6891,748.5 18,731 7.6891,713.5 28,713.6795 Z"
       id="path10175" />
    <path
       style="fill:none;stroke-linecap:round"
       d="M 38,703 46,717.1436 62.2487,717 54,731 62.2487,745 46,744.8564 38,759 30,744.8564 13.7513,745 22,731 13.7513,717 30,717.1436 Z"
       id="path10179" />
    <path
       style="fill:none;stroke-linecap:round"
       d="M 38,710 44,720.6077 56.1865,720.5 50,731 56.1865,741.5 44,741.3923 38,752 32,741.3923 19.8135,741.5 26,731 19.8135,720.5 32,720.6077 Z"
       id="path10183" />
    <path
       style="fill:none;stroke-linecap:round"
       d="m 38,717 4,7.0718 L 50.1244,724 46,731 50.1244,738 42,737.9282 38,745 34,737.9282 25.8756,738 30,731 25.8756,724 34,724.0718 Z"
       id="path10187" />
    <path
       style="fill:none;stroke-linecap:round"
       d="M 192,696 202,713.6795 222.3109,713.5 212,731 222.3109,748.5 202,748.3205 192,766 182,748.3205 161.6891,748.5 172,731 161.6891,713.5 182,713.6795 Z"
       id="path10207" />
    <path
       style="fill:none;stroke-linecap:round"
       d="m 192,703 8,14.1436 L 216.2487,717 208,731 216.2487,745 200,744.8564 192,759 184,744.8564 167.7513,745 176,731 167.7513,717 184,717.1436 Z"
       id="path10211" />
    <path
       style="fill:none;stroke-linecap:round"
       d="m 192,710 6,10.6077 L 210.1865,720.5 204,731 210.1865,741.5 198,741.3923 192,752 186,741.3923 173.8135,741.5 180,731 173.8135,720.5 186,720.6077 Z"
       id="path10215" />
    <path
       style="fill:none;stroke-linecap:round"
       d="m 192,717 4,7.0718 L 204.1244,724 200,731 204.1244,738 196,737.9282 192,745 188,737.9282 179.8756,738 184,731 179.8756,724 188,724.0718 Z"
       id="path10219" />
    <path
       style="fill:none;stroke-linecap:round"
       d="M 346,696 356,713.6795 376.3109,713.5 366,731 376.3109,748.5 356,748.3205 346,766 336,748.3205 315.6891,748.5 326,731 315.6891,713.5 336,713.6795 Z"
       id="path10239" />
    <path
       style="fill:none;stroke-linecap:round"
       d="m 346,703 8,14.1436 L 370.2487,717 362,731 370.2487,745 354,744.8564 346,759 338,744.8564 321.7513,745 330,731 321.7513,717 338,717.1436 Z"
       id="path10243" />
    <path
       style="fill:none;stroke-linecap:round"
       d="m 346,710 6,10.6077 L 364.1865,720.5 358,731 364.1865,741.5 352,741.3923 346,752 340,741.3923 327.8135,741.5 334,731 327.8135,720.5 340,720.6077 Z"
       id="path10247" />
    <path
       style="fill:none;stroke-linecap:round"
       d="m 346,717 4,7.0718 L 358.1244,724 354,731 358.1244,738 350,737.9282 346,745 342,737.9282 333.8756,738 338,731 333.8756,724 342,724.0718 Z"
       id="path10251" />
    <path
       style="fill:none;stroke-linecap:round"
       d="M 500,696 510,713.6795 530.3109,713.5 520,731 530.3109,748.5 510,748.3205 500,766 490,748.3205 469.6891,748.5 480,731 469.6891,713.5 490,713.6795 Z"
       id="path10271" />
    <path
       style="fill:none;stroke-linecap:round"
       d="m 500,703 8,14.1436 L 524.2487,717 516,731 524.2487,745 508,744.8564 500,759 492,744.8564 475.7513,745 484,731 475.7513,717 492,717.1436 Z"
       id="path10275" />
    <path
       style="fill:none;stroke-linecap:round"
       d="m 500,710 6,10.6077 L 518.1865,720.5 512,731 518.1865,741.5 506,741.3923 500,752 494,741.3923 481.8135,741.5 488,731 481.8135,720.5 494,720.6077 Z"
       id="path10279" />
    <path
       style="fill:none;stroke-linecap:round"
       d="m 500,717 4,7.0718 L 512.1244,724 508,731 512.1244,738 504,737.9282 500,745 496,737.9282 487.8756,738 492,731 487.8756,724 496,724.0718 Z"
       id="path10283" />
    <path
       style="fill:none;stroke-linecap:round"
       d="M 654,696 664,713.6795 684.3109,713.5 674,731 684.3109,748.5 664,748.3205 654,766 644,748.3205 623.6891,748.5 634,731 623.6891,713.5 644,713.6795 Z"
       id="path10303" />
    <path
       style="fill:none;stroke-linecap:round"
       d="m 654,703 8,14.1436 L 678.2487,717 670,731 678.2487,745 662,744.8564 654,759 646,744.8564 629.7513,745 638,731 629.7513,717 646,717.1436 Z"
       id="path10307" />
    <path
       style="fill:none;stroke-linecap:round"
       d="m 654,710 6,10.6077 L 672.1865,720.5 666,731 672.1865,741.5 660,741.3923 654,752 648,741.3923 635.8135,741.5 642,731 635.8135,720.5 648,720.6077 Z"
       id="path10311" />
    <path
       style="fill:none;stroke-linecap:round"
       d="m 654,717 4,7.0718 L 666.1244,724 662,731 666.1244,738 658,737.9282 654,745 650,737.9282 641.8756,738 646,731 641.8756,724 650,724.0718 Z"
       id="path10315" />
    <path
       style="fill:none;stroke-linecap:round"
       d="M 808,696 818,713.6795 838.3109,713.5 828,731 838.3109,748.5 818,748.3205 808,766 798,748.3205 777.6891,748.5 788,731 777.6891,713.5 798,713.6795 Z"
       id="path10335" />
    <path
       style="fill:none;stroke-linecap:round"
       d="m 808,703 8,14.1436 L 832.2487,717 824,731 832.2487,745 816,744.8564 808,759 800,744.8564 783.7513,745 792,731 783.7513,717 800,717.1436 Z"
       id="path10339" />
    <path
       style="fill:none;stroke-linecap:round"
       d="m 808,710 6,10.6077 L 826.1865,720.5 820,731 826.1865,741.5 814,741.3923 808,752 802,741.3923 789.8135,741.5 796,731 789.8135,720.5 802,720.6077 Z"
       id="path10343" />
    <path
       style="fill:none;stroke-linecap:round"
       d="m 808,717 4,7.0718 L 820.1244,724 816,731 820.1244,738 812,737.9282 808,745 804,737.9282 795.8756,738 800,731 795.8756,724 804,724.0718 Z"
       id="path10347" />
    <path
       style="fill:none;stroke-linecap:round"
       d="M 115,773 125,790.6795 145.3109,790.5 135,808 145.3109,825.5 125,825.3205 115,843 105,825.3205 84.6891,825.5 95,808 84.6891,790.5 105,790.6795 Z"
       id="path10367" />
    <path
       style="fill:none;stroke-linecap:round"
       d="m 115,780 8,14.1436 L 139.2487,794 131,808 139.2487,822 123,821.8564 115,836 107,821.8564 90.7513,822 99,808 90.7513,794 107,794.1436 Z"
       id="path10371" />
    <path
       style="fill:none;stroke-linecap:round"
       d="m 115,787 6,10.6077 L 133.1865,797.5 127,808 133.1865,818.5 121,818.3923 115,829 109,818.3923 96.8135,818.5 103,808 96.8135,797.5 109,797.6077 Z"
       id="path10375" />
    <path
       style="fill:none;stroke-linecap:round"
       d="m 115,794 4,7.0718 L 127.1244,801 123,808 127.1244,815 119,814.9282 115,822 111,814.9282 102.8756,815 107,808 102.8756,801 111,801.0718 Z"
       id="path10379" />
    <path
       style="fill:none;stroke-linecap:round"
       d="M 269,773 279,790.6795 299.3109,790.5 289,808 299.3109,825.5 279,825.3205 269,843 259,825.3205 238.6891,825.5 249,808 238.6891,790.5 259,790.6795 Z"
       id="path10399" />
    <path
       style="fill:none;stroke-linecap:round"
       d="m 269,780 8,14.1436 L 293.2487,794 285,808 293.2487,822 277,821.8564 269,836 261,821.8564 244.7513,822 253,808 244.7513,794 261,794.1436 Z"
       id="path10403" />
    <path
       style="fill:none;stroke-linecap:round"
       d="m 269,787 6,10.6077 L 287.1865,797.5 281,808 287.1865,818.5 275,818.3923 269,829 263,818.3923 250.8135,818.5 257,808 250.8135,797.5 263,797.6077 Z"
       id="path10407" />
    <path
       style="fill:none;stroke-linecap:round"
       d="m 269,794 4,7.0718 L 281.1244,801 277,808 281.1244,815 273,814.9282 269,822 265,814.9282 256.8756,815 261,808 256.8756,801 265,801.0718 Z"
       id="path10411" />
    <path
       style="fill:none;stroke-linecap:round"
       d="M 423,773 433,790.6795 453.3109,790.5 443,808 453.3109,825.5 433,825.3205 423,843 413,825.3205 392.6891,825.5 403,808 392.6891,790.5 413,790.6795 Z"
       id="path10431" />
    <path
       style="fill:none;stroke-linecap:round"
       d="m 423,780 8,14.1436 L 447.2487,794 439,808 447.2487,822 431,821.8564 423,836 415,821.8564 398.7513,822 407,808 398.7513,794 415,794.1436 Z"
       id="path10435" />
    <path
       style="fill:none;stroke-linecap:round"
       d="m 423,787 6,10.6077 L 441.1865,797.5 435,808 441.1865,818.5 429,818.3923 423,829 417,818.3923 404.8135,818.5 411,808 404.8135,797.5 417,797.6077 Z"
       id="path10439" />
    <path
       style="fill:none;stroke-linecap:round"
       d="m 423,794 4,7.0718 L 435.1244,801 431,808 435.1244,815 427,814.9282 423,822 419,814.9282 410.8756,815 415,808 410.8756,801 419,801.0718 Z"
       id="path10443" />
    <path
       style="fill:none;stroke-linecap:round"
       d="M 577,773 587,790.6795 607.3109,790.5 597,808 607.3109,825.5 587,825.3205 577,843 567,825.3205 546.6891,825.5 557,808 546.6891,790.5 567,790.6795 Z"
       id="path10463" />
    <path
       style="fill:none;stroke-linecap:round"
       d="m 577,780 8,14.1436 L 601.2487,794 593,808 601.2487,822 585,821.8564 577,836 569,821.8564 552.7513,822 561,808 552.7513,794 569,794.1436 Z"
       id="path10467" />
    <path
       style="fill:none;stroke-linecap:round"
       d="m 577,787 6,10.6077 L 595.1865,797.5 589,808 595.1865,818.5 583,818.3923 577,829 571,818.3923 558.8135,818.5 565,808 558.8135,797.5 571,797.6077 Z"
       id="path10471" />
    <path
       style="fill:none;stroke-linecap:round"
       d="m 577,794 4,7.0718 L 589.1244,801 585,808 589.1244,815 581,814.9282 577,822 573,814.9282 564.8756,815 569,808 564.8756,801 573,801.0718 Z"
       id="path10475" />
    <path
       style="fill:none;stroke-linecap:round"
       d="M 731,773 741,790.6795 761.3109,790.5 751,808 761.3109,825.5 741,825.3205 731,843 721,825.3205 700.6891,825.5 711,808 700.6891,790.5 721,790.6795 Z"
       id="path10495" />
    <path
       style="fill:none;stroke-linecap:round"
       d="m 731,780 8,14.1436 L 755.2487,794 747,808 755.2487,822 739,821.8564 731,836 723,821.8564 706.7513,822 715,808 706.7513,794 723,794.1436 Z"
       id="path10499" />
    <path
       style="fill:none;stroke-linecap:round"
       d="m 731,787 6,10.6077 L 749.1865,797.5 743,808 749.1865,818.5 737,818.3923 731,829 725,818.3923 712.8135,818.5 719,808 712.8135,797.5 725,797.6077 Z"
       id="path10503" />
    <path
       style="fill:none;stroke-linecap:round"
       d="m 731,794 4,7.0718 L 743.1244,801 739,808 743.1244,815 735,814.9282 731,822 727,814.9282 718.8756,815 723,808 718.8756,801 727,801.0718 Z"
       id="path10507" />
    <path
       style="fill:none;stroke-linecap:round"
       d="M 38,850 48,867.6795 68.3109,867.5 58,885 68.3109,902.5 48,902.3205 38,920 28,902.3205 7.6891,902.5 18,885 7.6891,867.5 28,867.6795 Z"
       id="path10527" />
    <path
       style="fill:none;stroke-linecap:round"
       d="M 38,857 46,871.1436 62.2487,871 54,885 62.2487,899 46,898.8564 38,913 30,898.8564 13.7513,899 22,885 13.7513,871 30,871.1436 Z"
       id="path10531" />
    <path
       style="fill:none;stroke-linecap:round"
       d="M 38,864 44,874.6077 56.1865,874.5 50,885 56.1865,895.5 44,895.3923 38,906 32,895.3923 19.8135,895.5 26,885 19.8135,874.5 32,874.6077 Z"
       id="path10535" />
    <path
       style="fill:none;stroke-linecap:round"
       d="m 38,871 4,7.0718 L 50.1244,878 46,885 50.1244,892 42,891.9282 38,899 34,891.9282 25.8756,892 30,885 25.8756,878 34,878.0718 Z"
       id="path10539" />
    <path
       style="fill:none;stroke-linecap:round"
       d="M 192,850 202,867.6795 222.3109,867.5 212,885 222.3109,902.5 202,902.3205 192,920 182,902.3205 161.6891,902.5 172,885 161.6891,867.5 182,867.6795 Z"
       id="path10559" />
    <path
       style="fill:none;stroke-linecap:round"
       d="m 192,857 8,14.1436 L 216.2487,871 208,885 216.2487,899 200,898.8564 192,913 184,898.8564 167.7513,899 176,885 167.7513,871 184,871.1436 Z"
       id="path10563" />
    <path
       style="fill:none;stroke-linecap:round"
       d="m 192,864 6,10.6077 L 210.1865,874.5 204,885 210.1865,895.5 198,895.3923 192,906 186,895.3923 173.8135,895.5 180,885 173.8135,874.5 186,874.6077 Z"
       id="path10567" />
    <path
       style="fill:none;stroke-linecap:round"
       d="m 192,871 4,7.0718 L 204.1244,878 200,885 204.1244,892 196,891.9282 192,899 188,891.9282 179.8756,892 184,885 179.8756,878 188,878.0718 Z"
       id="path10571" />
    <path
       style="fill:none;stroke-linecap:round"
       d="M 346,850 356,867.6795 376.3109,867.5 366,885 376.3109,902.5 356,902.3205 346,920 336,902.3205 315.6891,902.5 326,885 315.6891,867.5 336,867.6795 Z"
       id="path10591" />
    <path
       style="fill:none;stroke-linecap:round"
       d="m 346,857 8,14.1436 L 370.2487,871 362,885 370.2487,899 354,898.8564 346,913 338,898.8564 321.7513,899 330,885 321.7513,871 338,871.1436 Z"
       id="path10595" />
    <path
       style="fill:none;stroke-linecap:round"
       d="m 346,864 6,10.6077 L 364.1865,874.5 358,885 364.1865,895.5 352,895.3923 346,906 340,895.3923 327.8135,895.5 334,885 327.8135,874.5 340,874.6077 Z"
       id="path10599" />
    <path
       style="fill:none;stroke-linecap:round"
       d="m 346,871 4,7.0718 L 358.1244,878 354,885 358.1244,892 350,891.9282 346,899 342,891.9282 333.8756,892 338,885 333.8756,878 342,878.0718 Z"
       id="path10603" />
    <path
       style="fill:none;stroke-linecap:round"
       d="M 500,850 510,867.6795 530.3109,867.5 520,885 530.3109,902.5 510,902.3205 500,920 490,902.3205 469.6891,902.5 480,885 469.6891,867.5 490,867.6795 Z"
       id="path10623" />
    <path
       style="fill:none;stroke-linecap:round"
       d="m 500,857 8,14.1436 L 524.2487,871 516,885 524.2487,899 508,898.8564 500,913 492,898.8564 475.7513,899 484,885 475.7513,871 492,871.1436 Z"
       id="path10627" />
    <path
       style="fill:none;stroke-linecap:round"
       d="m 500,864 6,10.6077 L 518.1865,874.5 512,885 518.1865,895.5 506,895.3923 500,906 494,895.3923 481.8135,895.5 488,885 481.8135,874.5 494,874.6077 Z"
       id="path10631" />
    <path
       style="fill:none;stroke-linecap:round"
       d="m 500,871 4,7.0718 L 512.1244,878 508,885 512.1244,892 504,891.9282 500,899 496,891.9282 487.8756,892 492,885 487.8756,878 496,878.0718 Z"
       id="path10635" />
    <path
       style="fill:none;stroke-linecap:round"
       d="M 654,850 664,867.6795 684.3109,867.5 674,885 684.3109,902.5 664,902.3205 654,920 644,902.3205 623.6891,902.5 634,885 623.6891,867.5 644,867.6795 Z"
       id="path10655" />
    <path
       style="fill:none;stroke-linecap:round"
       d="m 654,857 8,14.1436 L 678.2487,871 670,885 678.2487,899 662,898.8564 654,913 646,898.8564 629.7513,899 638,885 629.7513,871 646,871.1436 Z"
       id="path10659" />
    <path
       style="fill:none;stroke-linecap:round"
       d="m 654,864 6,10.6077 L 672.1865,874.5 666,885 672.1865,895.5 660,895.3923 654,906 648,895.3923 635.8135,895.5 642,885 635.8135,874.5 648,874.6077 Z"
       id="path10663" />
    <path
       style="fill:none;stroke-linecap:round"
       d="m 654,871 4,7.0718 L 666.1244,878 662,885 666.1244,892 658,891.9282 654,899 650,891.9282 641.8756,892 646,885 641.8756,878 650,878.0718 Z"
       id="path10667" />
    <path
       style="fill:none;stroke-linecap:round"
       d="M 808,850 818,867.6795 838.3109,867.5 828,885 838.3109,902.5 818,902.3205 808,920 798,902.3205 777.6891,902.5 788,885 777.6891,867.5 798,867.6795 Z"
       id="path10687" />
    <path
       style="fill:none;stroke-linecap:round"
       d="m 808,857 8,14.1436 L 832.2487,871 824,885 832.2487,899 816,898.8564 808,913 800,898.8564 783.7513,899 792,885 783.7513,871 800,871.1436 Z"
       id="path10691" />
    <path
       style="fill:none;stroke-linecap:round"
       d="m 808,864 6,10.6077 L 826.1865,874.5 820,885 826.1865,895.5 814,895.3923 808,906 802,895.3923 789.8135,895.5 796,885 789.8135,874.5 802,874.6077 Z"
       id="path10695" />
    <path
       style="fill:none;stroke-linecap:round"
       d="m 808,871 4,7.0718 L 820.1244,878 816,885 820.1244,892 812,891.9282 808,899 804,891.9282 795.8756,892 800,885 795.8756,878 804,878.0718 Z"
       id="path10699" />
    <path
       style="fill:none;stroke-linecap:round"
       d="M 115,927 125,944.6795 145.3109,944.5 135,962 145.3109,979.5 125,979.3205 115,997 105,979.3205 84.6891,979.5 95,962 84.6891,944.5 105,944.6795 Z"
       id="path10719" />
    <path
       style="fill:none;stroke-linecap:round"
       d="m 115,934 8,14.1436 L 139.2487,948 131,962 139.2487,976 123,975.8564 115,990 107,975.8564 90.7513,976 99,962 90.7513,948 107,948.1436 Z"
       id="path10723" />
    <path
       style="fill:none;stroke-linecap:round"
       d="m 115,941 6,10.6077 L 133.1865,951.5 127,962 133.1865,972.5 121,972.3923 115,983 109,972.3923 96.8135,972.5 103,962 96.8135,951.5 109,951.6077 Z"
       id="path10727" />
    <path
       style="fill:none;stroke-linecap:round"
       d="m 115,948 4,7.0718 L 127.1244,955 123,962 127.1244,969 119,968.9282 115,976 111,968.9282 102.8756,969 107,962 102.8756,955 111,955.0718 Z"
       id="path10731" />
    <path
       style="fill:none;stroke-linecap:round"
       d="M 269,927 279,944.6795 299.3109,944.5 289,962 299.3109,979.5 279,979.3205 269,997 259,979.3205 238.6891,979.5 249,962 238.6891,944.5 259,944.6795 Z"
       id="path10751" />
    <path
       style="fill:none;stroke-linecap:round"
       d="m 269,934 8,14.1436 L 293.2487,948 285,962 293.2487,976 277,975.8564 269,990 261,975.8564 244.7513,976 253,962 244.7513,948 261,948.1436 Z"
       id="path10755" />
    <path
       style="fill:none;stroke-linecap:round"
       d="m 269,941 6,10.6077 L 287.1865,951.5 281,962 287.1865,972.5 275,972.3923 269,983 263,972.3923 250.8135,972.5 257,962 250.8135,951.5 263,951.6077 Z"
       id="path10759" />
    <path
       style="fill:none;stroke-linecap:round"
       d="m 269,948 4,7.0718 L 281.1244,955 277,962 281.1244,969 273,968.9282 269,976 265,968.9282 256.8756,969 261,962 256.8756,955 265,955.0718 Z"
       id="path10763" />
    <path
       style="fill:none;stroke-linecap:round"
       d="M 423,927 433,944.6795 453.3109,944.5 443,962 453.3109,979.5 433,979.3205 423,997 413,979.3205 392.6891,979.5 403,962 392.6891,944.5 413,944.6795 Z"
       id="path10783" />
    <path
       style="fill:none;stroke-linecap:round"
       d="m 423,934 8,14.1436 L 447.2487,948 439,962 447.2487,976 431,975.8564 423,990 415,975.8564 398.7513,976 407,962 398.7513,948 415,948.1436 Z"
       id="path10787" />
    <path
       style="fill:none;stroke-linecap:round"
       d="m 423,941 6,10.6077 L 441.1865,951.5 435,962 441.1865,972.5 429,972.3923 423,983 417,972.3923 404.8135,972.5 411,962 404.8135,951.5 417,951.6077 Z"
       id="path10791" />
    <path
       style="fill:none;stroke-linecap:round"
       d="m 423,948 4,7.0718 L 435.1244,955 431,962 435.1244,969 427,968.9282 423,976 419,968.9282 410.8756,969 415,962 410.8756,955 419,955.0718 Z"
       id="path10795" />
    <path
       style="fill:none;stroke-linecap:round"
       d="M 577,927 587,944.6795 607.3109,944.5 597,962 607.3109,979.5 587,979.3205 577,997 567,979.3205 546.6891,979.5 557,962 546.6891,944.5 567,944.6795 Z"
       id="path10815" />
    <path
       style="fill:none;stroke-linecap:round"
       d="m 577,934 8,14.1436 L 601.2487,948 593,962 601.2487,976 585,975.8564 577,990 569,975.8564 552.7513,976 561,962 552.7513,948 569,948.1436 Z"
       id="path10819" />
    <path
       style="fill:none;stroke-linecap:round"
       d="m 577,941 6,10.6077 L 595.1865,951.5 589,962 595.1865,972.5 583,972.3923 577,983 571,972.3923 558.8135,972.5 565,962 558.8135,951.5 571,951.6077 Z"
       id="path10823" />
    <path
       style="fill:none;stroke-linecap:round"
       d="m 577,948 4,7.0718 L 589.1244,955 585,962 589.1244,969 581,968.9282 577,976 573,968.9282 564.8756,969 569,962 564.8756,955 573,955.0718 Z"
       id="path10827" />
    <path
       style="fill:none;stroke-linecap:round"
       d="M 731,927 741,944.6795 761.3109,944.5 751,962 761.3109,979.5 741,979.3205 731,997 721,979.3205 700.6891,979.5 711,962 700.6891,944.5 721,944.6795 Z"
       id="path10847" />
    <path
       style="fill:none;stroke-linecap:round"
       d="m 731,934 8,14.1436 L 755.2487,948 747,962 755.2487,976 739,975.8564 731,990 723,975.8564 706.7513,976 715,962 706.7513,948 723,948.1436 Z"
       id="path10851" />
    <path
       style="fill:none;stroke-linecap:round"
       d="m 731,941 6,10.6077 L 749.1865,951.5 743,962 749.1865,972.5 737,972.3923 731,983 725,972.3923 712.8135,972.5 719,962 712.8135,951.5 725,951.6077 Z"
       id="path10855" />
    <path
       style="fill:none;stroke-linecap:round"
       d="m 731,948 4,7.0718 L 743.1244,955 739,962 743.1244,969 735,968.9282 731,976 727,968.9282 718.8756,969 723,962 718.8756,955 727,955.0718 Z"
       id="path10859" />
    <path
       style="fill:none;stroke-linecap:round"
       d="M 38,1004 48,1021.6795 68.3109,1021.5 58,1039 68.3109,1056.5 48,1056.3205 38,1074 28,1056.3205 7.6891,1056.5 18,1039 7.6891,1021.5 28,1021.6795 Z"
       id="path10879" />
    <path
       style="fill:none;stroke-linecap:round"
       d="m 38,1011 8,14.1436 L 62.2487,1025 54,1039 62.2487,1053 46,1052.8564 38,1067 30,1052.8564 13.7513,1053 22,1039 13.7513,1025 30,1025.1436 Z"
       id="path10883" />
    <path
       style="fill:none;stroke-linecap:round"
       d="m 38,1018 6,10.6077 L 56.1865,1028.5 50,1039 56.1865,1049.5 44,1049.3923 38,1060 32,1049.3923 19.8135,1049.5 26,1039 19.8135,1028.5 32,1028.6077 Z"
       id="path10887" />
    <path
       style="fill:none;stroke-linecap:round"
       d="m 38,1025 4,7.0718 8.1244,-0.072 -4.1244,7 4.1244,7 L 42,1045.9282 38,1053 34,1045.9282 25.8756,1046 30,1039 25.8756,1032 34,1032.072 Z"
       id="path10891" />
    <path
       style="fill:none;stroke-linecap:round"
       d="m 192,1004 10,17.6795 L 222.3109,1021.5 212,1039 222.3109,1056.5 202,1056.3205 192,1074 182,1056.3205 161.6891,1056.5 172,1039 161.6891,1021.5 182,1021.6795 Z"
       id="path10911" />
    <path
       style="fill:none;stroke-linecap:round"
       d="m 192,1011 8,14.1436 L 216.2487,1025 208,1039 216.2487,1053 200,1052.8564 192,1067 184,1052.8564 167.7513,1053 176,1039 167.7513,1025 184,1025.1436 Z"
       id="path10915" />
    <path
       style="fill:none;stroke-linecap:round"
       d="m 192,1018 6,10.6077 L 210.1865,1028.5 204,1039 210.1865,1049.5 198,1049.3923 192,1060 186,1049.3923 173.8135,1049.5 180,1039 173.8135,1028.5 186,1028.6077 Z"
       id="path10919" />
    <path
       style="fill:none;stroke-linecap:round"
       d="m 192,1025 4,7.0718 8.1244,-0.072 -4.1244,7 4.1244,7 -8.1244,-0.072 -4,7.0718 -4,-7.0718 -8.1244,0.072 4.1244,-7 -4.1244,-7 8.1244,0.072 z"
       id="path10923" />
    <path
       style="fill:none;stroke-linecap:round"
       d="m 346,1004 10,17.6795 L 376.3109,1021.5 366,1039 376.3109,1056.5 356,1056.3205 346,1074 336,1056.3205 315.6891,1056.5 326,1039 315.6891,1021.5 336,1021.6795 Z"
       id="path10943" />
    <path
       style="fill:none;stroke-linecap:round"
       d="m 346,1011 8,14.1436 L 370.2487,1025 362,1039 370.2487,1053 354,1052.8564 346,1067 338,1052.8564 321.7513,1053 330,1039 321.7513,1025 338,1025.1436 Z"
       id="path10947" />
    <path
       style="fill:none;stroke-linecap:round"
       d="m 346,1018 6,10.6077 L 364.1865,1028.5 358,1039 364.1865,1049.5 352,1049.3923 346,1060 340,1049.3923 327.8135,1049.5 334,1039 327.8135,1028.5 340,1028.6077 Z"
       id="path10951" />
    <path
       style="fill:none;stroke-linecap:round"
       d="m 346,1025 4,7.0718 8.1244,-0.072 -4.1244,7 4.1244,7 -8.1244,-0.072 -4,7.0718 -4,-7.0718 -8.1244,0.072 4.1244,-7 -4.1244,-7 8.1244,0.072 z"
       id="path10955" />
    <path
       style="fill:none;stroke-linecap:round"
       d="m 500,1004 10,17.6795 L 530.3109,1021.5 520,1039 530.3109,1056.5 510,1056.3205 500,1074 490,1056.3205 469.6891,1056.5 480,1039 469.6891,1021.5 490,1021.6795 Z"
       id="path10975" />
    <path
       style="fill:none;stroke-linecap:round"
       d="m 500,1011 8,14.1436 L 524.2487,1025 516,1039 524.2487,1053 508,1052.8564 500,1067 492,1052.8564 475.7513,1053 484,1039 475.7513,1025 492,1025.1436 Z"
       id="path10979" />
    <path
       style="fill:none;stroke-linecap:round"
       d="m 500,1018 6,10.6077 L 518.1865,1028.5 512,1039 518.1865,1049.5 506,1049.3923 500,1060 494,1049.3923 481.8135,1049.5 488,1039 481.8135,1028.5 494,1028.6077 Z"
       id="path10983" />
    <path
       style="fill:none;stroke-linecap:round"
       d="m 500,1025 4,7.0718 8.1244,-0.072 -4.1244,7 4.1244,7 -8.1244,-0.072 -4,7.0718 -4,-7.0718 -8.1244,0.072 4.1244,-7 -4.1244,-7 8.1244,0.072 z"
       id="path10987" />
    <path
       style="fill:none;stroke-linecap:round"
       d="m 654,1004 10,17.6795 L 684.3109,1021.5 674,1039 684.3109,1056.5 664,1056.3205 654,1074 644,1056.3205 623.6891,1056.5 634,1039 623.6891,1021.5 644,1021.6795 Z"
       id="path11007" />
    <path
       style="fill:none;stroke-linecap:round"
       d="m 654,1011 8,14.1436 L 678.2487,1025 670,1039 678.2487,1053 662,1052.8564 654,1067 646,1052.8564 629.7513,1053 638,1039 629.7513,1025 646,1025.1436 Z"
       id="path11011" />
    <path
       style="fill:none;stroke-linecap:round"
       d="m 654,1018 6,10.6077 L 672.1865,1028.5 666,1039 672.1865,1049.5 660,1049.3923 654,1060 648,1049.3923 635.8135,1049.5 642,1039 635.8135,1028.5 648,1028.6077 Z"
       id="path11015" />
    <path
       style="fill:none;stroke-linecap:round"
       d="m 654,1025 4,7.0718 8.1244,-0.072 -4.1244,7 4.1244,7 -8.1244,-0.072 -4,7.0718 -4,-7.0718 -8.1244,0.072 4.1244,-7 -4.1244,-7 8.1244,0.072 z"
       id="path11019" />
    <path
       style="fill:none;stroke-linecap:round"
       d="m 808,1004 10,17.6795 L 838.3109,1021.5 828,1039 838.3109,1056.5 818,1056.3205 808,1074 798,1056.3205 777.6891,1056.5 788,1039 777.6891,1021.5 798,1021.6795 Z"
       id="path11039" />
    <path
       style="fill:none;stroke-linecap:round"
       d="m 808,1011 8,14.1436 L 832.2487,1025 824,1039 832.2487,1053 816,1052.8564 808,1067 800,1052.8564 783.7513,1053 792,1039 783.7513,1025 800,1025.1436 Z"
       id="path11043" />
    <path
       style="fill:none;stroke-linecap:round"
       d="m 808,1018 6,10.6077 L 826.1865,1028.5 820,1039 826.1865,1049.5 814,1049.3923 808,1060 802,1049.3923 789.8135,1049.5 796,1039 789.8135,1028.5 802,1028.6077 Z"
       id="path11047" />
    <path
       style="fill:none;stroke-linecap:round"
       d="m 808,1025 4,7.0718 8.1244,-0.072 -4.1244,7 4.1244,7 -8.1244,-0.072 -4,7.0718 -4,-7.0718 -8.1244,0.072 4.1244,-7 -4.1244,-7 8.1244,0.072 z"
       id="path11051" />
  </g>
  <WCB
     layer="12345"
     node="2510"
     lastpath="193"
     lastpathnc="2509"
     lastknownposx="3.720718503937109"
     lastknownposy="5.533218503936942"
     pausedposx="3.720718503937109"
     pausedposy="5.533218503936942"
     randseed="1631821639.6"
     row="0"
     application="Axidraw" />
</svg>
