<?xml version="1.0" encoding="utf-8"?>
<!-- Generator: Adobe Illustrator 26.0.3, SVG Export Plug-In . SVG Version: 6.00 Build 0)  -->
<svg version="1.1" xmlns="http://www.w3.org/2000/svg" xmlns:xlink="http://www.w3.org/1999/xlink" x="0px" y="0px"
	 viewBox="0 0 594 594" style="enable-background:new 0 0 594 594;" xml:space="preserve">
<style type="text/css">
	.st0{fill:none;stroke:#000000;stroke-linecap:round;stroke-miterlimit:10;}
	.st1{fill:none;stroke:#C8C8C8;stroke-linecap:round;stroke-miterlimit:10;}
</style>
<g id="Layer_3">
	<g>
		<path class="st0" d="M11.5,0c13.3,11.3,78.8,35.1,79.1,67.9c0.2,32.8-83.2,86.3-77.6,128.9c5.6,42.7,108.2,90.4,111.1,127
			c2.9,36.6-89,64.3-93.9,92.5c-5,28.2,67.1,47,64,76.7c-3.1,29.6-68.9,84.2-82.6,101"/>
		<path class="st0" d="M23,0c12.7,11.3,75.2,35.1,75.3,67.9c0.1,32.8-79.9,86.8-74.6,129.2S127.1,285.8,130,322.4
			s-84.2,65.8-88.5,94.1c-4.3,28.3,65.5,46.2,62.5,75.8C100.9,521.9,36.4,577.1,23,594"/>
		<path class="st0" d="M34.6,0c12.1,11.3,71.6,35,71.6,67.9c0,32.9-76.5,87.3-71.6,129.4s98.3,87,101.4,123.6s-79.4,67.3-83.1,95.7
			c-3.7,28.5,64,45.5,60.9,75c-3,29.6-66.1,85.3-79.2,102.3"/>
		<path class="st0" d="M46.1,0c11.4,11.3,68,35,67.9,67.9c-0.1,32.9-73.2,87.8-68.5,129.7s93.4,85.3,96.5,121.9
			c3.1,36.5-74.7,68.8-77.7,97.4c-3,28.6,62.4,44.7,59.4,74.2c-3,29.5-64.8,85.8-77.6,103"/>
		<path class="st0" d="M57.6,0c10.8,11.3,64.4,34.9,64.2,67.9c-0.2,33-69.9,88.3-65.5,129.9c4.4,41.7,88.4,83.6,91.7,120.1
			c3.2,36.5-69.9,70.3-72.3,99c-2.4,28.7,60.9,43.9,57.9,73.4c-3,29.5-63.4,86.4-75.9,103.6"/>
		<path class="st0" d="M69.1,0c10.2,11.3,60.8,34.9,60.4,67.9S63,156.7,67,198.1s83.5,81.9,86.8,118.4
			c3.3,36.5-65.1,71.8-66.9,100.6s59.3,43.1,56.4,72.5c-3,29.5-62,86.9-74.2,104.3"/>
		<path class="st0" d="M80.6,0c9.6,11.3,57.2,34.9,56.7,67.9c-0.5,33.1-63.2,89.2-59.5,130.4c3.7,41.2,78.5,80.2,82,116.7
			c3.4,36.5-60.4,73.3-61.5,102.3c-1.1,29,57.8,42.3,54.8,71.7c-3,29.4-60.6,87.4-72.5,104.9"/>
		<path class="st0" d="M92.2,0c8.9,11.3,53.5,34.8,53,67.9s-59.9,89.7-56.4,130.7c3.4,40.9,73.6,78.5,77.1,115
			c3.5,36.5-55.6,74.8-56,103.9S166,459,163,488.4c-2.9,29.4-59.2,88-70.9,105.6"/>
		<path class="st0" d="M103.7,0c8.3,11.3,49.9,34.8,49.2,67.9c-0.7,33.1-56.6,90.2-53.4,130.9c3.1,40.7,68.6,76.8,72.2,113.3
			c3.6,36.5-50.8,76.3-50.6,105.5c0.2,29.3,54.7,40.7,51.8,70.1s-57.8,88.5-69.2,106.2"/>
		<path class="st0" d="M115.2,0c7.7,11.3,46.3,34.8,45.5,68c-0.8,33.2-53.2,90.7-50.4,131.2s63.7,75.1,67.4,111.6
			c3.7,36.5-46.1,77.8-45.2,107.2c0.8,29.4,53.1,39.9,50.3,69.3c-2.9,29.4-56.4,89.1-67.5,106.9"/>
		<path class="st0" d="M126.7,0c7.1,11.3,42.7,34.7,41.8,68c-0.9,33.2-49.9,91.2-47.4,131.4c2.5,40.2,58.7,73.4,62.5,109.9
			c3.8,36.4-41.3,79.3-39.8,108.8c1.5,29.5,51.6,39.1,48.7,68.4c-2.9,29.3-55,89.6-65.9,107.5"/>
		<path class="st0" d="M138.2,0c6.5,11.3,39.1,34.7,38,68c-1.1,33.3-46.6,91.7-44.4,131.7c2.2,40,53.8,71.7,57.7,108.2
			c3.9,36.4-36.5,80.8-34.4,110.4c2.1,29.7,50,38.3,47.2,67.6c-2.8,29.3-53.6,90.1-64.2,108.2"/>
		<path class="st0" d="M149.8,0c5.8,11.3,35.5,34.7,34.3,68c-1.2,33.3-43.2,92.2-41.3,131.9c1.9,39.7,48.9,70,52.8,106.5
			c4,36.4-31.8,82.3-29,112.1c2.8,29.8,48.5,37.5,45.7,66.8c-2.8,29.3-52.2,90.7-62.5,108.8"/>
		<path class="st0" d="M161.3,0c5.2,11.3,31.9,34.6,30.6,68c-1.3,33.4-39.9,92.7-38.3,132.2c1.6,39.5,43.9,68.3,48,104.7
			c4.1,36.4-27,83.8-23.6,113.7c3.4,29.9,46.9,36.7,44.2,66c-2.8,29.2-50.8,91.2-60.9,109.5"/>
		<path class="st0" d="M172.8,0c4.6,11.3,28.3,34.6,26.9,68c-1.4,33.4-36.6,93.2-35.3,132.4c1.3,39.2,39,66.6,43.1,103
			c4.2,36.4-22.2,85.3-18.1,115.3c4.1,30.1,45.4,35.9,42.6,65.1c-2.8,29.2-49.4,91.8-59.2,110.1"/>
		<path class="st0" d="M184.3,0c4,11.3,24.6,34.6,23.1,68c-1.5,33.4-33.3,93.7-32.3,132.7c1,39,34,64.9,38.3,101.3
			c4.3,36.4-17.5,86.8-12.7,117c4.7,30.2,43.8,35.1,41.1,64.3c-2.7,29.2-48,92.3-57.5,110.8"/>
		<path class="st0" d="M195.8,0c3.4,11.3,21,34.5,19.4,68c-1.6,33.5-29.9,94.1-29.2,132.9c0.7,38.8,29.1,63.2,33.4,99.6
			c4.4,36.4-12.7,88.2-7.3,118.6c5.4,30.4,42.3,34.4,39.6,63.5C249,511.8,205,575.4,195.8,594"/>
		<path class="st0" d="M207.4,0c2.7,11.3,17.4,34.5,15.7,68c-1.8,33.5-26.6,94.6-26.2,133.1c0.4,38.5,24.1,61.5,28.6,97.9
			c4.4,36.4-7.9,89.7-1.9,120.2s40.7,33.6,38,62.7c-2.7,29.1-45.3,93.4-54.2,112"/>
		<path class="st0" d="M218.9,0c2.1,11.3,13.8,34.4,11.9,68c-1.9,33.6-23.3,95.1-23.2,133.4s19.2,59.8,23.7,96.2
			c4.5,36.3-3.2,91.2,3.5,121.9c6.7,30.6,39.2,32.8,36.5,61.9c-2.7,29.1-43.9,93.9-52.5,112.7"/>
		<path class="st0" d="M230.4,0c1.5,11.3,10.2,34.4,8.2,68c-2,33.6-19.9,95.6-20.2,133.6c-0.2,38,14.2,58.1,18.9,94.5
			c4.6,36.3,1.6,92.7,8.9,123.5s37.6,32,35,61c-2.6,29.1-42.5,94.5-50.8,113.3"/>
		<path class="st0" d="M241.9,0c0.9,11.3,6.6,34.4,4.5,68c-2.1,33.7-16.6,96.1-17.1,133.9c-0.5,37.8,9.3,56.4,14,92.8
			c4.7,36.3,6.4,94.2,14.3,125.1c8,30.9,36.1,31.2,33.5,60.2s-41.1,95-49.2,114"/>
		<path class="st0" d="M253.4,0c0.2,11.3,3,34.3,0.7,68c-2.2,33.7-13.3,96.6-14.1,134.1c-0.8,37.5,4.3,54.7,9.2,91
			S260.4,388.9,269,420c8.6,31,34.5,30.4,31.9,59.4c-2.6,29-39.7,95.5-47.5,114.6"/>
		<path class="st0" d="M265,0c-0.4,11.3-0.6,34.3-3,68c-2.3,33.7-10,97.1-11.1,134.4c-1.1,37.3-0.6,53,4.3,89.3
			c4.9,36.3,15.9,97.2,25.2,128.4c9.3,31.2,33,29.6,30.4,58.6c-2.6,29-38.3,96.1-45.8,115.3"/>
		<path class="st0" d="M276.5,0c-1,11.3-4.2,34.3-6.7,68s-6.6,97.6-8.1,134.6s-5.6,51.3-0.5,87.6s20.7,98.7,30.6,130
			c9.9,31.3,31.4,28.8,28.9,57.7c-2.5,28.9-36.9,96.6-44.2,115.9"/>
		<path class="st0" d="M288,0c-1.6,11.3-7.9,34.2-10.4,68c-2.6,33.8-3.3,98.1-5,134.9s-10.5,49.7-5.4,85.9
			c5.1,36.3,25.4,100.2,36,131.7c10.6,31.4,29.9,28,27.4,56.9C328,506.3,295,574.6,288,594"/>
		<path class="st0" d="M299.5,0c-2.2,11.3-11.5,34.2-14.2,68.1c-2.7,33.9,0,98.6-2,135.1c-2,36.6-15.4,48-10.3,84.2
			c5.2,36.2,30.2,101.7,41.4,133.3c11.2,31.6,28.3,27.2,25.8,56.1c-2.5,28.9-34.1,97.7-40.8,117.2"/>
		<path class="st0" d="M311,0c-2.9,11.3-15.1,34.2-17.9,68.1c-2.8,33.9,3.4,99.1,1,135.4s-20.4,46.3-15.1,82.5
			c5.3,36.2,35,103.2,46.8,134.9c11.9,31.7,26.8,26.4,24.3,55.3C347.7,505,317.4,574.4,311,594"/>
		<path class="st0" d="M322.6,0c-3.5,11.3-18.7,34.1-21.6,68.1s6.7,99.5,4,135.6c-2.7,36.1-25.3,44.6-20,80.8
			c5.4,36.2,39.7,104.7,52.2,136.6c12.5,31.8,25.2,25.6,22.8,54.5c-2.4,28.8-31.3,98.8-37.5,118.5"/>
		<path class="st0" d="M334.1,0c-4.1,11.3-22.3,34.1-25.4,68.1c-3.1,34,10,100,7.1,135.9S285.5,246.8,291,283
			c5.5,36.2,44.5,106.2,57.7,138.2c13.2,32,23.7,24.8,21.3,53.6c-2.4,28.8-30,99.3-35.8,119.2"/>
		<path class="st0" d="M345.6,0c-4.7,11.3-25.9,34-29.1,68.1c-3.2,34,13.3,100.5,10.1,136.1c-3.3,35.6-35.2,41.2-29.7,77.4
			c5.6,36.2,49.3,107.7,63.1,139.8c13.8,32.1,22.1,24,19.7,52.8C377.3,503,351.2,574,345.6,594"/>
		<path class="st0" d="M357.1,0c-5.3,11.3-29.5,34-32.8,68.1s16.7,101,13.1,136.4c-3.6,35.3-40.2,39.5-34.5,75.6
			c5.7,36.2,54,109.2,68.5,141.5c14.4,32.2,20.6,23.3,18.2,52c-2.4,28.7-27.2,100.4-32.5,120.5"/>
		<path class="st0" d="M368.6,0c-6,11.3-33.1,34-36.5,68.1c-3.4,34.1,20,101.5,16.1,136.6c-3.9,35.1-45.1,37.8-39.4,73.9
			c5.8,36.2,58.8,110.7,73.9,143.1c15.1,32.4,19,22.5,16.7,51.2c-2.4,28.7-25.8,100.9-30.8,121.1"/>
		<path class="st0" d="M380.2,0c-6.6,11.3-36.8,33.9-40.3,68.1c-3.5,34.2,23.3,102,19.2,136.8c-4.2,34.8-50.1,36.1-44.2,72.2
			c5.8,36.2,63.6,112.2,79.3,144.7c15.7,32.5,17.5,21.7,15.1,50.3c-2.3,28.7-24.4,101.5-29.1,121.8"/>
		<path class="st0" d="M391.7,0c-7.2,11.4-40.4,33.9-44,68.1s26.7,102.5,22.2,137.1s-55,34.4-49.1,70.5
			c5.9,36.1,68.3,113.7,84.7,146.3c16.4,32.6,15.9,20.9,13.6,49.5c-2.3,28.7-23,102-27.4,122.4"/>
		<path class="st0" d="M403.2,0c-7.8,11.4-44,33.9-47.7,68.1c-3.8,34.2,30,103,25.2,137.3c-4.8,34.4-60,32.7-53.9,68.8
			c6,36.1,73.1,115.2,90.1,148c17,32.8,14.4,20.1,12.1,48.7c-2.3,28.6-21.6,102.5-25.8,123.1"/>
		<path class="st0" d="M414.7,0c-8.5,11.4-47.6,33.8-51.5,68.1c-3.9,34.3,33.3,103.5,28.2,137.6c-5.1,34.1-64.9,31-58.8,67.1
			c6.1,36.1,77.9,116.7,95.6,149.6c17.7,32.9,12.8,19.3,10.6,47.9c-2.3,28.6-20.2,103.1-24.1,123.7"/>
		<path class="st0" d="M426.2,0C417.2,11.4,375,33.8,371,68.1c-4,34.3,36.6,104,31.2,137.8c-5.4,33.9-69.9,29.3-63.6,65.4
			c6.2,36.1,82.6,118.2,101,151.2c18.3,33.1,11.3,18.5,9,47.1c-2.2,28.6-18.8,103.6-22.4,124.4"/>
		<path class="st0" d="M437.8,0c-9.7,11.4-54.8,33.8-58.9,68.1c-4.1,34.4,40,104.5,34.3,138.1c-5.7,33.6-74.8,27.6-68.5,63.7
			C350.9,306,432,389.6,451,422.8c19,33.2,9.7,17.7,7.5,46.2c-2.2,28.5-17.4,104.2-20.8,125"/>
		<path class="st0" d="M449.3,0c-10.3,11.4-58.4,33.7-62.7,68.1c-4.2,34.4,43.3,105,37.3,138.3c-6,33.4-79.7,25.9-73.3,62
			c6.4,36.1,92.2,121.2,111.8,154.5c19.6,33.3,8.2,16.9,6,45.4c-2.2,28.5-16,104.7-19.1,125.6"/>
		<path class="st0" d="M460.8,0c-10.9,11.4-62,33.7-66.4,68.1c-4.3,34.5,46.6,105.4,40.3,138.6c-6.3,33.1-84.7,24.2-78.2,60.2
			c6.5,36.1,96.9,122.7,117.2,156.1c20.3,33.5,6.6,16.1,4.5,44.6c-2.2,28.5-14.6,105.2-17.4,126.3"/>
		<path class="st0" d="M472.3,0c-11.6,11.4-65.7,33.7-70.1,68.2c-4.5,34.5,50,105.9,43.3,138.8c-6.6,32.9-89.6,22.5-83,58.5
			c6.6,36.1,101.7,124.2,122.6,157.8c20.9,33.6,5.1,15.3,2.9,43.8c-2.1,28.5-13.2,105.8-15.8,126.9"/>
		<path class="st0" d="M483.8,0c-12.2,11.4-69.3,33.6-73.8,68.2c-4.6,34.5,53.3,106.4,46.4,139.1c-6.9,32.6-94.6,20.8-87.9,56.8
			c6.7,36,106.5,125.7,128,159.4c21.6,33.7,3.5,14.5,1.4,43c-2.1,28.4-11.9,106.3-14.1,127.6"/>
		<path class="st0" d="M495.4,0c-12.8,11.4-72.9,33.6-77.6,68.2c-4.7,34.6,56.6,106.9,49.4,139.3c-7.2,32.4-99.5,19.1-92.8,55.1
			c6.8,36,111.2,127.2,133.5,161c22.2,33.9,2,13.7-0.1,42.1c-2.1,28.4-10.5,106.9-12.4,128.2"/>
		<path class="st0" d="M506.9,0c-13.4,11.4-76.5,33.5-81.3,68.2c-4.8,34.6,59.9,107.4,52.4,139.6c-7.5,32.2-104.5,17.4-97.6,53.4
			c6.9,36,116,128.7,138.9,162.7c22.9,34,0.4,12.9-1.6,41.3c-2.1,28.4-9.1,107.4-10.7,128.9"/>
		<path class="st0" d="M518.4,0c-14.1,11.4-80.1,33.5-85,68.2c-4.9,34.7,63.3,107.9,55.4,139.8s-109.4,15.7-102.5,51.7
			S507.1,389.8,530.6,424c23.5,34.1-1.1,12.1-3.2,40.5c-2,28.3-7.7,107.9-9.1,129.5"/>
		<path class="st0" d="M529.9,0c-14.7,11.4-83.7,33.5-88.8,68.2c-5,34.7,66.6,108.4,58.5,140.1c-8.1,31.7-114.4,14-107.3,50
			c7.1,36,125.5,131.7,149.7,165.9c24.2,34.3-2.7,11.4-4.7,39.7c-2,28.3-6.3,108.5-7.4,130.2"/>
		<path class="st0" d="M541.4,0c-15.3,11.4-87.3,33.4-92.5,68.2c-5.2,34.7,69.9,108.9,61.5,140.3c-8.4,31.4-119.3,12.3-112.2,48.3
			c7.2,36,130.3,133.2,155.1,167.6s-4.2,10.6-6.2,38.8c-2,28.3-4.9,109-5.7,130.8"/>
		<path class="st0" d="M553,0C537,11.4,462,33.4,456.7,68.2c-5.3,34.8,73.3,109.4,64.5,140.6c-8.8,31.2-124.3,10.6-117,46.6
			c7.3,36,135.1,134.7,160.5,169.2c25.5,34.5-5.8,9.8-7.7,38c-2,28.2-3.5,109.6-4.1,131.5"/>
		<path class="st0" d="M564.5,0c-16.5,11.4-94.5,33.4-100,68.2c-5.4,34.8,76.6,109.9,67.5,140.8c-9.1,30.9-129.2,8.9-121.9,44.8
			C417.5,289.8,550,390,576.1,424.7c26.1,34.7-7.3,9-9.3,37.2c-1.9,28.2-2.1,110.1-2.4,132.1"/>
		<path class="st0" d="M594,445.3c-5.6,1.5-16.3,0.9-17.3,16c-1.9,28.2-0.7,110.6-0.7,132.8"/>
		<path class="st0" d="M576,0c-17.2,11.4-98.2,33.3-103.7,68.2c-5.5,34.9,79.9,110.4,70.6,141s-134.2,7.2-126.7,43.1
			c7.4,35.9,144.6,137.7,171.4,172.5c2.8,3.7,4.9,6.6,6.5,9.1"/>
		<path class="st0" d="M594,23.8c-11.3,12.6-35.1,74.6-67.9,74.6c-32.8,0-86.8-79.9-129.2-74.6S308.2,127.1,271.6,130
			s-65.8-84.2-94.1-88.5c-28.3-4.3-46.2,65.4-75.8,62.5C72.1,101,16.9,37,0,23.8"/>
		<path class="st0" d="M594,47.5c-11.3,11.2-35,66.8-67.9,66.4c-32.9-0.4-87.8-73.2-129.7-68.5s-85.3,93.4-121.9,96.5
			c-36.5,3.1-68.8-74.7-97.4-77.7c-28.6-3-44.7,62.2-74.2,59.4C73.4,120.9,17.2,60.1,0,47.5"/>
		<path class="st0" d="M594,71.3c-11.3,9.8-34.9,59-67.9,58.3c-33-0.7-88.7-66.5-130.2-62.5s-81.9,83.5-118.4,86.8
			c-36.5,3.3-71.8-65.1-100.6-66.9s-43.1,59-72.5,56.4C74.8,140.7,17.4,83.2,0,71.3"/>
		<path class="st0" d="M594,95c-11.3,8.5-34.8,51.1-67.9,50.1c-33.1-1.1-89.7-59.9-130.7-56.4c-40.9,3.4-78.5,73.6-115,77.1
			c-36.5,3.5-74.8-55.6-103.9-56S135,165.5,105.6,163c-29.4-2.4-88-56.8-105.6-68"/>
		<path class="st0" d="M594,118.8c-11.3,7.1-34.8,43.3-68,41.9c-33.2-1.4-90.7-53.2-131.2-50.4s-75.1,63.7-111.6,67.4
			c-36.5,3.7-77.8-46.1-107.2-45.2c-29.4,0.8-39.9,52.5-69.3,50.3C77.5,180.5,17.8,129.3,0,118.8"/>
		<path class="st0" d="M594,142.6c-11.3,5.7-34.7,35.5-68,33.7c-33.3-1.8-91.7-46.6-131.7-44.4c-40,2.2-71.7,53.8-108.2,57.7
			c-36.4,3.9-80.8-36.5-110.4-34.4c-29.7,2.1-38.3,49.3-67.6,47.2C78.9,200.3,18,152.4,0,142.6"/>
		<path class="st0" d="M594,166.3c-11.3,4.4-34.6,27.7-68,25.5c-33.4-2.1-92.7-39.9-132.2-38.3c-39.5,1.6-68.3,43.9-104.7,48
			c-36.4,4.1-83.8-27-113.7-23.6c-29.9,3.4-36.7,46.1-66,44.2C80.2,220.2,18.2,175.5,0,166.3"/>
		<path class="st0" d="M594,190.1c-11.3,3-34.6,19.8-68,17.4c-33.4-2.5-93.7-33.3-132.7-32.3c-39,1-64.9,34-101.3,38.3
			c-36.4,4.3-86.8-17.5-117-12.7c-30.2,4.7-35.1,42.9-64.3,41.1C81.6,240.1,18.5,198.6,0,190.1"/>
		<path class="st0" d="M594,213.8c-11.3,1.7-34.5,12-68,9.2c-33.5-2.8-94.6-26.6-133.1-26.2c-38.5,0.4-61.5,24.1-97.9,28.6
			c-36.4,4.4-89.7-7.9-120.2-1.9c-30.5,6-33.6,39.7-62.7,38c-29.1-1.6-93.4-39.9-112-47.7"/>
		<path class="st0" d="M594,237.6c-11.3,0.3-34.4,4.2-68,1c-33.6-3.2-95.6-19.9-133.6-20.2c-38-0.2-58.1,14.2-94.5,18.9
			c-36.3,4.6-92.7,1.6-123.5,8.9s-32,36.4-61,35C84.3,279.8,18.9,244.8,0,237.6"/>
		<path class="st0" d="M594,261.4c-11.3-1.1-34.3-3.6-68-7.2c-33.7-3.5-96.6-13.3-134.1-14.1c-37.5-0.8-54.7,4.3-91,9.2
			S205.1,260.4,174,269c-31,8.6-30.4,33.2-59.4,31.9c-29-1.3-95.5-33.1-114.6-39.6"/>
		<path class="st0" d="M594,285.1c-11.3-2.4-34.3-11.4-68-15.4c-33.8-3.9-97.6-6.6-134.6-8.1s-51.3-5.6-87.6-0.5
			c-36.3,5-98.7,20.7-130,30.6c-31.3,9.9-28.8,30-57.7,28.9C87,319.5,19.3,290.9,0,285.1"/>
		<path class="st0" d="M594,308.9c-11.3-3.8-34.2-19.3-68.1-23.5c-33.9-4.3-98.6,0-135.1-2c-36.6-2-48-15.4-84.2-10.3
			c-36.2,5.2-101.7,30.2-133.3,41.4c-31.6,11.2-27.2,26.8-56.1,25.8C88.3,339.4,19.5,314,0,308.9"/>
		<path class="st0" d="M594,332.6c-11.3-5.2-34.1-27.1-68.1-31.7c-33.9-4.6-99.5,6.7-135.6,4c-36.1-2.7-44.6-25.3-80.8-20
			c-36.2,5.4-104.7,39.7-136.6,52.2c-31.8,12.5-25.6,23.5-54.5,22.8C89.7,359.3,19.8,337.1,0,332.6"/>
		<path class="st0" d="M594,356.4c-11.3-6.5-34-34.9-68.1-39.9c-34-5-100.5,13.3-136.1,10.1c-35.6-3.3-41.2-35.2-77.4-29.7
			c-36.2,5.6-107.7,49.3-139.8,63.1c-32.1,13.8-24,20.3-52.8,19.7C91,379.1,20,360.2,0,356.4"/>
		<path class="st0" d="M594,380.2c-11.3-7.9-34-42.7-68.1-48.1c-34.1-5.3-101.5,20-136.6,16.1c-35.1-3.9-37.8-45.1-73.9-39.4
			c-36.2,5.8-110.7,58.8-143.1,73.9c-32.4,15.1-22.5,17.1-51.2,16.7C92.4,399,20.2,383.3,0,380.2"/>
		<path class="st0" d="M594,403.9c-11.4-9.3-33.9-50.6-68.1-56.2c-34.2-5.7-102.5,26.7-137.1,22.2s-34.4-55-70.5-49.1
			c-36.1,5.9-113.7,68.3-146.3,84.7c-32.6,16.4-20.9,13.9-49.5,13.6c-28.7-0.3-102-12.8-122.4-15.2"/>
		<path class="st0" d="M594,427.7c-11.4-10.6-33.8-58.4-68.1-64.4c-34.3-6-103.5,33.3-137.6,28.2c-34.1-5.1-31-64.9-67.1-58.8
			c-36.1,6.1-116.7,77.9-149.6,95.6c-32.9,17.7-19.3,10.7-47.9,10.6C95.1,438.7,20.6,429.4,0,427.7"/>
		<path class="st0" d="M594,451.4c-11.4-12-33.8-66.2-68.1-72.6c-34.4-6.4-104.5,40-138.1,34.3c-33.6-5.7-27.6-74.8-63.7-68.5
			C288,350.9,204.4,432,171.2,451c-33.2,19-17.7,7.4-46.2,7.5c-28.5,0.1-104.2-6-125-7.1"/>
		<path class="st0" d="M594,475.2c-11.4-13.3-33.7-74-68.1-80.8c-34.5-6.7-105.4,46.6-138.6,40.3c-33.1-6.3-24.2-84.7-60.2-78.2
			C291,363,204.3,453.5,170.9,473.8c-33.5,20.3-16.1,4.2-44.6,4.5c-28.5,0.2-105.2-2.6-126.3-3"/>
		<path class="st0" d="M594,499c-11.4-14.7-33.6-81.9-68.2-89c-34.5-7.1-106.4,53.3-139.1,46.4c-32.6-6.9-20.8-94.6-56.8-87.9
			c-36,6.7-125.7,106.5-159.4,128c-33.7,21.6-14.5,1-43,1.4c-28.4,0.4-106.3,0.7-127.6,1"/>
		<path class="st0" d="M594,522.7c-11.4-16.1-33.5-89.7-68.2-97.1c-34.6-7.5-107.4,59.9-139.6,52.4c-32.2-7.5-17.4-104.5-53.4-97.6
			c-36,6.9-128.7,116-162.7,138.9c-34,22.9-12.9-2.2-41.3-1.6c-28.4,0.6-107.4,4.1-128.9,5.1"/>
		<path class="st0" d="M594,546.5c-11.4-17.4-33.5-97.5-68.2-105.3c-34.7-7.8-108.4,66.6-140.1,58.5c-31.7-8.1-14-114.4-50-107.3
			c-36,7.1-131.7,125.5-165.9,149.7c-34.3,24.2-11.4-5.4-39.7-4.7c-28.3,0.7-108.5,7.5-130.2,9.2"/>
		<path class="st0" d="M594,570.2c-11.4-18.8-33.4-105.3-68.2-113.5c-34.8-8.2-109.4,73.3-140.6,64.5c-31.2-8.8-10.6-124.3-46.6-117
			c-36,7.3-134.7,135.1-169.2,160.5c-34.5,25.5-9.8-8.7-38-7.7C103.2,557.9,21.9,567.9,0,570.2"/>
		<path class="st0" d="M149,594c-1.9-5.8-0.3-17.9-16.3-17.3C104.6,577.8,22.1,591,0,594"/>
		<path class="st0" d="M594,594c-11.4-20.2-33.3-113.2-68.2-121.7c-34.9-8.5-110.4,79.9-141,70.6s-7.2-134.2-43.1-126.7
			c-35.9,7.4-137.7,144.6-172.5,171.4c-3.7,2.9-6.7,5-9.2,6.5"/>
	</g>
</g>
<g id="_x31__-_Guides">
	<g transform="translate(412,412)">
		<line class="st1" x1="-115.4" y1="-403.4" x2="-115.4" y2="172.6"/>
		<line class="st1" x1="-403.4" y1="-115.4" x2="172.6" y2="-115.4"/>
		<line class="st1" x1="-403.4" y1="-403.4" x2="172.6" y2="172.6"/>
		<line class="st1" x1="172.6" y1="-403.4" x2="-403.4" y2="172.6"/>
		<g transform="translate(412,412)">
			<rect x="-815.4" y="-815.4" class="st1" width="576" height="576"/>
		</g>
	</g>
</g>
</svg>
