<?xml version="1.0" encoding="utf-8"?>
<!-- Generator: Adobe Illustrator 25.3.1, SVG Export Plug-In . SVG Version: 6.00 Build 0)  -->
<svg version="1.1" id="Layer_3" xmlns="http://www.w3.org/2000/svg" xmlns:xlink="http://www.w3.org/1999/xlink" x="0px" y="0px"
	 viewBox="0 0 100 100" style="enable-background:new 0 0 100 100;" xml:space="preserve">
<style type="text/css">
	.st0{fill:none;stroke:#000000;stroke-miterlimit:10;}
</style>
<path class="st0" d="M10,0v5.2C10,7.9,7.9,10,5.2,10H0"/>
<path class="st0" d="M0,50h3.3C4.3,50,5,49.3,5,48.3V37.6C5,36.7,5.7,36,6.7,36h1.7c0.9,0,1.7-0.7,1.7-1.7v-3.6
	c0-0.9-0.7-1.7-1.7-1.7H6.7C5.7,29,5,28.3,5,27.4V16.7C5,15.7,4.3,15,3.3,15H0"/>
<line class="st0" x1="10" y1="90" x2="0" y2="90"/>
<path class="st0" d="M10,90L10,90c2.8,0,5,2.2,5,5v5"/>
<line class="st0" x1="10" y1="100" x2="10" y2="100"/>
<line class="st0" x1="10" y1="90" x2="10" y2="100"/>
<path class="st0" d="M10,90L10,90c0-2.8-2.2-5-5-5H0"/>
<line class="st0" x1="90" y1="90" x2="85" y2="90"/>
<line class="st0" x1="90" y1="85" x2="100" y2="85"/>
<line class="st0" x1="90" y1="90" x2="100" y2="90"/>
<path class="st0" d="M85,85h-7.5c-1.4,0-2.5,1.1-2.5,2.5l0,0c0,1.4,1.1,2.5,2.5,2.5H85"/>
<line class="st0" x1="85" y1="85" x2="90" y2="85"/>
<line class="st0" x1="85" y1="100" x2="85" y2="90"/>
<line class="st0" x1="90" y1="15" x2="90" y2="21.6"/>
<line class="st0" x1="85" y1="21.6" x2="85" y2="15"/>
<line class="st0" x1="90" y1="90" x2="90" y2="85"/>
<line class="st0" x1="85" y1="15" x2="85" y2="10"/>
<line class="st0" x1="85" y1="85" x2="85" y2="50"/>
<line class="st0" x1="90" y1="15" x2="90" y2="10"/>
<line class="st0" x1="85" y1="0" x2="85" y2="10"/>
<line class="st0" x1="85" y1="50" x2="85" y2="21.6"/>
<line class="st0" x1="90" y1="85" x2="90" y2="50"/>
<line class="st0" x1="90" y1="50" x2="90" y2="21.6"/>
<line class="st0" x1="90" y1="10" x2="90" y2="0"/>
<line class="st0" x1="90" y1="90" x2="90" y2="100"/>
<line class="st0" x1="85" y1="85" x2="85" y2="90"/>
<path class="st0" d="M50,10v1.7c0,1.8,1.5,3.3,3.3,3.3h15.9"/>
<line class="st0" x1="50" y1="10" x2="50" y2="0"/>
<line class="st0" x1="90" y1="15" x2="85" y2="15"/>
<line class="st0" x1="85" y1="15" x2="69.2" y2="15"/>
<line class="st0" x1="90" y1="15" x2="100" y2="15"/>
<line class="st0" x1="50" y1="10" x2="69.2" y2="10"/>
<line class="st0" x1="90" y1="10" x2="100" y2="10"/>
<line class="st0" x1="85" y1="10" x2="69.2" y2="10"/>
<path class="st0" d="M43.9,21.6v2c0,2.1-1.7,3.8-3.8,3.8h0c-2.1,0-3.8-1.7-3.8-3.8v-2"/>
<path class="st0" d="M43.9,21.6v-5.4c0-3.4,2.7-6.1,6.1-6.1h0"/>
<line class="st0" x1="90" y1="10" x2="85" y2="10"/>
<path class="st0" d="M15,0v5.2c0,2.6,2.1,4.8,4.8,4.8H30c3.4,0,6.1,2.7,6.1,6.1v5.4"/>
<path class="st0" d="M85,21.6"/>
<path class="st0" d="M43.9,21.6"/>
<path class="st0" d="M69.2,50"/>
<path class="st0" d="M69.2,15"/>
<path class="st0" d="M50,85h4.4c1.7,0,3.1-1.4,3.1-3.1l0,0c0-1.7-1.4-3.1-3.1-3.1H50"/>
<path class="st0" d="M50,78.9H24.1c-1.7,0-3-1.3-3-3V53.1c0-1.7-1.4-3.1-3.1-3.1h0c-1.7,0-3.1,1.4-3.1,3.1v24.9
	c0,3.9,3.2,7.1,7.1,7.1H50"/>
<line class="st0" x1="50" y1="78.9" x2="50" y2="85"/>
<line class="st0" x1="90" y1="50" x2="100" y2="50"/>
<line class="st0" x1="90" y1="50" x2="85" y2="50"/>
<path class="st0" d="M50,78.9v-9.7C50,58.6,58.6,50,69.2,50h0"/>
<line class="st0" x1="69.2" y1="50" x2="85" y2="50"/>
<line class="st0" x1="50" y1="85" x2="50" y2="100"/>
</svg>
