<svg xmlns="http://www.w3.org/2000/svg" viewBox="0 0 100 100"><path d="M10.5,100H0V89.5A10.5,10.5,0,0,1,10.5,100Z"/><path d="M10.5,0A10.5,10.5,0,0,1,0,10.5V0Z"/><path d="M0,22.5v-5A17.6,17.6,0,0,0,17.5,0h5A22.5,22.5,0,0,1,0,22.5Z"/><path d="M100,77.5v5A17.6,17.6,0,0,0,82.5,100h-5A22.5,22.5,0,0,1,100,77.5Z"/><path d="M100,0V10.5A10.5,10.5,0,0,1,89.5,0Z"/><path d="M100,89.5V100H89.5A10.5,10.5,0,0,1,100,89.5Z"/><path d="M100,22.5v-5A17.6,17.6,0,0,1,82.5,0h-5a22.1,22.1,0,0,0,4.6,13.6L57.5,38.3l-5.1-5.2-4.3,4.3,5.2,5.1L50,45.8l-5.1-5.2-4.3,4.3L45.8,50l-3.3,3.3-5.1-5.2-4.3,4.3,5.2,5.1L13.6,82.1A22.1,22.1,0,0,0,0,77.5v5A17.6,17.6,0,0,1,17.5,100h5a22.1,22.1,0,0,0-4.6-13.6L42.5,61.7l5.1,5.2,4.3-4.3-5.2-5.1L50,54.2l5.1,5.2,4.3-4.3L54.2,50l3.3-3.3,5.1,5.2,4.3-4.3-5.2-5.1L86.4,17.9A22.1,22.1,0,0,0,100,22.5Z"/></svg>