<svg id="a3f43ba5-185e-4833-85a4-a66910dfc028" data-name="Layer 6" xmlns="http://www.w3.org/2000/svg" viewBox="0 0 1000 1000.5"><rect x="1" y="167" width="114" height="167"/><rect x="146" y="167" width="36" height="167"/><rect x="213" y="167" width="454" height="167"/><rect x="698" y="167" width="69" height="167"/><rect x="1" y="667" width="384" height="167"/><rect x="630" y="667" width="38" height="167"/><rect x="699" y="667" width="36" height="167"/><rect x="766" y="667" width="234" height="167"/><rect x="452" y="667" width="147" height="167"/><rect x="803" y="167" width="197" height="167"/><polygon points="566 376 0 375 0 625 566 626 566 376"/><rect x="633" y="375" width="367" height="250"/><rect x="167" width="167" height="129"/><rect x="375" y="871.5" width="251" height="129"/><rect x="375" width="251" height="129"/><rect x="667" width="167" height="129"/><rect x="167" y="871.5" width="167" height="129"/><rect x="667" y="871.5" width="167" height="129"/></svg>