<svg id="a72ddb11-c516-42f7-925c-45b134ef48da" data-name="Layer 7" xmlns="http://www.w3.org/2000/svg" viewBox="0 0 1000 1000"><path d="M777.5,0H525a25,25,0,0,1-7.3,17.7A25,25,0,0,1,500,25a25,25,0,0,1-17.7-7.3A25,25,0,0,1,475,0H221.5c.3,153.3,124.6,277.5,278,277.5a277.1,277.1,0,0,0,196.6-81.4A277,277,0,0,0,777.5,0Z"/><path d="M223,651A126.5,126.5,0,0,0,96.5,524.5H0v253H96.5A126.5,126.5,0,0,0,223,651Z"/><path d="M348,777A126.5,126.5,0,0,0,221.5,903.5V1000h253V903.5A126.5,126.5,0,0,0,348,777Z"/><path d="M1000,222V475H747.6v-.5H0v-252H273.2l2,2a315.6,315.6,0,0,0,224.6,93,315.8,315.8,0,0,0,123.7-25,318.6,318.6,0,0,0,101-68.1l1.8-1.9h21.3V222Z"/><path d="M524,1000H777c0-122.6,99.4-222,222-222h1V525h-1C736.7,525,524,737.7,524,1000Z"/></svg>