<?xml version="1.0" encoding="utf-8"?>
<!-- Generator: Adobe Illustrator 25.2.3, SVG Export Plug-In . SVG Version: 6.00 Build 0)  -->
<svg version="1.1" xmlns="http://www.w3.org/2000/svg" xmlns:xlink="http://www.w3.org/1999/xlink" x="0px" y="0px"
	 viewBox="0 0 1000 1000" style="enable-background:new 0 0 1000 1000;" xml:space="preserve">
<g id="Layer_9">
	<path d="M500,738.3c-13.8,0-50,7.1-50,20.9c0,0,25,122.9,25,240.8h50c0-84.9,29-241.8,29-241.8C554,744.4,513.8,738.3,500,738.3z"
		/>
</g>
<g id="Layer_8">
	<path d="M640,653.8c0,179.4,129.9,179.4,179.5,179.4H999V666.8h-66.5c-39.2,0-70.9-31.7-70.9-70.9c0-39.2,31.7-70.9,70.9-70.9
		c0,0,0,0,0.1,0H999v-50.5H819.5C647,474.5,640,554.8,640,653.8z"/>
</g>
<g id="Layer_7">
	<path d="M749,915.1c-83,0-84,37.6-84,83.9h168C833,952.7,833,915.1,749,915.1z"/>
</g>
<g id="Layer_6">
	<path d="M0,666.3v166.4c139,0,166.5,18.4,166.5,166.3v1H334C334,815.7,184.5,666.3,0,666.3z"/>
</g>
<g id="Layer_5">
	<path d="M833.5,1V0H666c0,262.7-9,333.7,334,333.7V167.3C908,167.3,833.5,92.9,833.5,1z"/>
</g>
<g id="Layer_4">
	<path d="M333,191.8V1H167.5v99.9C167.5,349.7,161,475,0,475v49.5C183.9,524.5,333,547.5,333,191.8z"/>
</g>
<g id="Layer_3">
	<path d="M126,250.2c0-83.4-37.4-83.4-83.5-83.4H0v166.9h42.5C88.6,333.7,126,333.7,126,250.2z"/>
</g>
<g id="Layer_2">
	<path d="M475,0c0,213.8-142,499.5-38.1,576.7c37,27.5,88.1,27.5,125.9,0.9C683.8,492.2,525,241.8,525,0H475z"/>
</g>
</svg>
