<?xml version="1.0" encoding="utf-8"?>
<!-- Generator: Adobe Illustrator 25.2.1, SVG Export Plug-In . SVG Version: 6.00 Build 0)  -->
<svg version="1.1" id="Layer_1" xmlns="http://www.w3.org/2000/svg" xmlns:xlink="http://www.w3.org/1999/xlink" x="0px" y="0px"
	 viewBox="0 0 100 100" style="enable-background:new 0 0 100 100;" xml:space="preserve">
<g id="Layer_6">
	<path d="M48.5,36.1c-2.1-13-9.6-17.6-15-36.1H16.8c-2.9,42.9,24.9,35.2,25.6,45.6C43,56.4,24.2,57.3,18,76.4
		c-2.1,6.8-2.6,13.6-1.4,23.6h16.7C28.5,77.7,53.7,68.6,48.5,36.1z"/>
</g>
<g id="Layer_5">
	<path d="M36,48.3c0.4-4.7-17.1-4.6-23.4-17.1C9.4,25,7.9,18.1,0,16.6v16.7c3.7,0.6,6.4,4,6.1,7.8c-0.4,3.2-2.9,5.8-6.1,6.3v5
		c3.4,0.5,6,3.3,6.3,6.7c0.2,3.8-1.2,4.3-6.3,7.6v16.5c13-4.7,8.3-16.3,16.3-25.1C23.9,49.8,35.7,52.2,36,48.3z"/>
</g>
<g id="Layer_4">
	<path d="M75.7,20.4c6.4,1,8.8-6.3,11-4.7c2.6,1.9-3.3,8.6,0.3,14.6c3.5,3.8,9.2,3.9,13,3.1c0-5.6,0-11.1,0-16.7
		c-8.7,4.8-1.1-9.4-5.5-11.2c-3.9-2.4-6.7,2.2-9.5,0.2C83.5,4.6,83.3,2,83.4,0H66.7C66.7,13,68.1,19.2,75.7,20.4z"/>
</g>
<g id="Layer_3">
	<path d="M73,71.7c-2.9-1-5.8-2.2-8.8-2.7c-13.6-2.4-15.5,22.1-16.8,31h5c0.2-14.1,12.1-10.7,14.2,0c0,0,16.7,0,16.7,0
		c-0.8,0,4.2-11,5-11.9c2.9-3.5,7.2-5.4,11.7-4.8c0-5.5,0-11.1,0-16.6c-7.5,2.8-11.6,8.6-20.4,7C77.4,73.3,75.2,72.5,73,71.7z"/>
</g>
<g id="Layer_2_1_">
	<path d="M88.9,46.6c-2.6-0.5-5.1-1.5-7.4-2.8c-8.2-5.2-5.6-15.3-12.2-18.2c-4.2-1.9-6.8,1.7-10.4-0.7C56.1,23,52.6,15.8,52.6,0h-5
		c-1.5,21.1,2.1,32.2,9,36.5c5.3,3.4,8.7-0.3,13.8,3.3c6.7,4.7,4,14.2,9.2,15.8c3,1,4.6-1.9,11.9-3c2.8-0.4,5.7-0.4,8.5,0v-5
		C96.2,47.9,92.5,47.5,88.9,46.6z"/>
</g>
</svg>
