<?xml version="1.0" encoding="utf-8"?>
<!-- Generator: Adobe Illustrator 25.3.1, SVG Export Plug-In . SVG Version: 6.00 Build 0)  -->
<svg version="1.1" id="Layer_3" xmlns="http://www.w3.org/2000/svg" xmlns:xlink="http://www.w3.org/1999/xlink" x="0px" y="0px"
	 viewBox="0 0 100 100" style="enable-background:new 0 0 100 100;" xml:space="preserve">
<path d="M89.8,13.5H100V0H86.5v10.2C86.5,12,88,13.5,89.8,13.5z"/>
<path d="M89.8,86.5H100V100H86.5V89.8C86.5,88,88,86.5,89.8,86.5z"/>
<path d="M0,86.5L0,86.5L0,100h13.5v0C13.5,92.5,7.5,86.5,0,86.5z"/>
<path d="M100,27v46H89.6c-1.7,0-3.1-1.4-3.1-3.1v-4.2c0-1.7-1.4-3.1-3.1-3.1H65c-1.9,0-3.5-1.6-3.5-3.5v-7c0-1.9,1.6-3.5,3.5-3.5
	h11.4c1.7,0,3.1-1.4,3.1-3.1v-5.3c0-7.2,5.9-13.1,13.1-13.1H100z"/>
<path d="M73,0v25.9c0,8.6-7,15.6-15.6,15.6h0c-2.7,0-4.9-2.2-4.9-4.9V31c0-2.2-1.8-4-4-4h0c-2.2,0-4,1.8-4,4v0.8
	c0,1-0.8,1.8-1.8,1.8h-6.4c-5.1,0-9.3-4.1-9.3-9.3V0H73z"/>
<path d="M81.3,76.3v6.9c0,1.8-1.5,3.3-3.3,3.3h-1.7c-1.8,0-3.3,1.5-3.3,3.3V100H27V89.8c0-1.8,1.5-3.3,3.3-3.3h18.9
	c1.8,0,3.3-1.5,3.3-3.3v-6.9c0-1.8,1.5-3.3,3.3-3.3H78C79.8,73,81.3,74.5,81.3,76.3z"/>
<path d="M44.5,49.1v20.6c0,1.8-1.5,3.3-3.3,3.3H0V27h3.7C5.5,27,7,25.5,7,23.7v-6.9c0-1.8-1.5-3.3-3.3-3.3H0V0h13.5v23
	c0,12.6,10.2,22.8,22.8,22.8h4.9C43,45.8,44.5,47.2,44.5,49.1z"/>
</svg>
