<?xml version="1.0" encoding="utf-8"?>
<!-- Generator: Adobe Illustrator 25.3.1, SVG Export Plug-In . SVG Version: 6.00 Build 0)  -->
<svg version="1.1" id="Layer_3" xmlns="http://www.w3.org/2000/svg" xmlns:xlink="http://www.w3.org/1999/xlink" x="0px" y="0px"
	 viewBox="0 0 100 100" style="enable-background:new 0 0 100 100;" xml:space="preserve">
<style type="text/css">
	.st0{fill:none;stroke:#000000;stroke-width:0.25;stroke-miterlimit:10;}
</style>
<path class="st0" d="M0,10c6,0,8,3.8,10.9,1C13.8,8.2,10,6,10,0"/>
<path class="st0" d="M19.9,0c0,33-0.2,31.5,18.2,31.5c10.8,0,5.2,10.1,11.2,15.5c7.7,6.9,14.7-2.3,8.2-10.3C53.3,31.4,59.2,30,67,30
	C77,30,80,12.5,80,0"/>
<path class="st0" d="M30,0c0,11.9-0.6,14.9,4.4,15.1c4.1,0.2,2.6-6.1,5.7-7c5.4-1.6,6.2,14.9,11.3,9.7c2.4-2.4,1.8-4.1,4.2-6.5
	C57,10,58,9.9,59.2,11.2c3,3.3,4.5,11.7,9.4,6.8C70.7,15.9,70,8.6,70,0"/>
<path class="st0" d="M100,10c-10,0-14.7,10,0,10"/>
<path class="st0" d="M90,0c0,8.5-3.9,11.2-3.9,16.2c0,5.4,3.3,4.8,2.3,11.7c-0.7,5-5.1,19,0.5,19c5.8,0-1.4-17,11.1-17"/>
<path class="st0" d="M0,19.9c6.3,0,12.2-1.2,14.1,0.7C18.3,24.8,9.2,37,14.4,37c6.3,0,15.6-2,18.3,3.4c1.6,3.1,0.2,19.7-6.5,17.3
	c-2.6-0.9-0.3-7.2-0.3-11.6C25.9,35,5.7,52.2,7,40.2C7.9,33.4,10.5,30,0,30"/>
<path class="st0" d="M0,70c19.9,0,30,0,34.9-2.7c4.1-2.2,2.5-8.4,4.6-12.1c1.1-1.8,3.6-2.9,5.3-1.7c2.3,1.8,1.1,5.3,2.1,7.7
	c3,5.5,11.9,3.3,13.8-2.1c1-2.7,3.7-4.6,6.6-4.6c8.7,0.5,5.9,8.7,9.3,13.1C80,71.8,87.3,70,100,70"/>
<path class="st0" d="M0,90c9,0,10.1,1.4,10.1,10"/>
<path class="st0" d="M0,80c6.2,0,21.8-0.3,34.3-0.1c9.9,0.2,17.8-0.1,17.8,3.7c0,4.5-13.5,3.2-21.7,3.2C22.1,86.9,20,90.5,20,100"/>
<path class="st0" d="M30,100c0-9.2,5.9-7.2,33.5-7.2c6.3,0,6.5,2.8,6.5,7.2"/>
<path class="st0" d="M100,80c-10.9,0-23.1-2.1-33.3-2.1c-10.9,0-9.3,10,0,9.8C79.2,87.5,80,86.2,80,100"/>
<path class="st0" d="M100,90c-10,0-10,2.5-10,10"/>
</svg>
