<?xml version="1.0" encoding="utf-8"?>
<!-- Generator: Adobe Illustrator 25.4.1, SVG Export Plug-In . SVG Version: 6.00 Build 0)  -->
<svg version="1.1" id="Layer_3" xmlns="http://www.w3.org/2000/svg" xmlns:xlink="http://www.w3.org/1999/xlink" x="0px" y="0px"
	 viewBox="0 0 100 100" style="enable-background:new 0 0 100 100;" xml:space="preserve">
<style type="text/css">
	.st0{fill:none;stroke:#000000;stroke-miterlimit:10;}
</style>
<path class="st0" d="M100,60c-5.5,0-10-4.5-10-10s4.5-10,10-10"/>
<polyline class="st0" points="30,100 30,70 0,70 "/>
<polyline class="st0" points="20,100 20,80 0,80 "/>
<polyline class="st0" points="10,100 10,90 0,90 "/>
<path class="st0" d="M30,0c0,7.7-2.9,14.7-7.7,20c-0.4,0.4-0.8,0.8-1.1,1.2c-3.1,3.1-7,5.6-11.2,7.1C6.9,29.4,3.5,30,0,30"/>
<path class="st0" d="M20,0c0,5.5-2.2,10.5-5.9,14.1c-1.2,1.2-2.6,2.3-4.1,3.2C7.1,19,3.6,20,0,20"/>
<path class="st0" d="M10,0c0,2.8-1.1,5.3-2.9,7.1S2.8,10,0,10"/>
<path class="st0" d="M100,10c-7.3,0-14.1,2-20,5.4c-3.8,2.2-7.1,5-10,8.2c-1.8,2-3.3,4.1-4.6,6.4c-1.8,3.1-3.2,6.5-4.1,10
	c-0.8,3.2-1.3,6.5-1.3,10c0,22.1,17.9,40,40,40"/>
<path class="st0" d="M100,20c-7.7,0-14.7,2.9-20,7.7c-3.7,3.3-6.6,7.6-8.3,12.3c-1.1,3.1-1.7,6.5-1.7,10c0,16.5,13.5,30,30,30"/>
<path class="st0" d="M100,30c-11,0-20,9-20,20s9,20,20,20"/>
<polyline class="st0" points="40,100 40,60 0,60 "/>
<line class="st0" x1="65" y1="30" x2="26.4" y2="30"/>
<line class="st0" x1="61.3" y1="40" x2="0" y2="40"/>
<polyline class="st0" points="60,0 60,20 34.7,20 "/>
<line class="st0" x1="60" y1="100" x2="60" y2="50"/>
<line class="st0" x1="70" y1="100" x2="70" y2="76.4"/>
<line class="st0" x1="80" y1="100" x2="80" y2="84.7"/>
<line class="st0" x1="90.1" y1="100" x2="90.1" y2="88.8"/>
<line class="st0" x1="70" y1="23.6" x2="70" y2="0"/>
<line class="st0" x1="80" y1="15.3" x2="80.1" y2="0"/>
<line class="st0" x1="90.1" y1="11.2" x2="90.1" y2="0"/>
<polyline class="st0" points="0,50 50,50 50,100 "/>
<line class="st0" x1="90" y1="50" x2="100" y2="50"/>
<polyline class="st0" points="38.7,10 50,10 50,0 "/>
<path class="st0" d="M40,0c0,22.1-17.9,40-40,40"/>
</svg>
