<?xml version="1.0" encoding="utf-8"?>
<!-- Generator: Adobe Illustrator 25.4.1, SVG Export Plug-In . SVG Version: 6.00 Build 0)  -->
<svg version="1.1" id="Layer_3" xmlns="http://www.w3.org/2000/svg" xmlns:xlink="http://www.w3.org/1999/xlink" x="0px" y="0px"
	 viewBox="0 0 100 100" style="enable-background:new 0 0 100 100;" xml:space="preserve">
<style type="text/css">
	.st0{fill:none;stroke:#000000;stroke-miterlimit:10;}
</style>
<polyline class="st0" points="20,100 20,80 0,80 "/>
<polyline class="st0" points="30,100 30,70 0,70 "/>
<polyline class="st0" points="40,100 40,60 0,60 "/>
<polyline class="st0" points="60,100 60,90 40,90 "/>
<polyline class="st0" points="70,100 70,80 40,80 "/>
<line class="st0" x1="80" y1="100" x2="80" y2="0"/>
<polyline class="st0" points="100,40 90,40 90,60 100,60 "/>
<polyline class="st0" points="100,20 90,20 90,30 100,30 "/>
<polyline class="st0" points="100,70 90,70 90,80 100,80 "/>
<polyline class="st0" points="60,0 60,70 70,70 70,0 "/>
<polyline class="st0" points="0,20 50,20 50,40 0,40 "/>
<line class="st0" x1="40" y1="30" x2="0" y2="30"/>
<polyline class="st0" points="40,0 40,10 20,10 20,0 "/>
<line class="st0" x1="30" y1="10" x2="30" y2="0"/>
</svg>
