<?xml version="1.0" encoding="utf-8"?>
<!-- Generator: Adobe Illustrator 25.2.1, SVG Export Plug-In . SVG Version: 6.00 Build 0)  -->
<svg version="1.1" id="Layer_1" xmlns="http://www.w3.org/2000/svg" xmlns:xlink="http://www.w3.org/1999/xlink" x="0px" y="0px"
	 viewBox="0 0 100 100" style="enable-background:new 0 0 100 100;" xml:space="preserve">
<path d="M33,0c0,18.2-14.8,33-33,33v7c22.1,0,40-17.9,40-40H33z M60,0c0,33.1-26.9,60-60,60v7h0c36.9,0,67-30.1,67-67v0H60z M67,100
	c0-18.2,14.8-33,33-33v-7c-22.1,0-40,17.9-40,40H67z M40,100c0-33.1,26.9-60,60-60v-7h0c-36.9,0-67,30.1-67,67v0H40z M50,50 M0,56.2
	v-4c28.8,0,52.2-23.4,52.2-52.2h4C56.2,31,31,56.2,0,56.2z M47.8,100h-4c0-31,25.2-56.2,56.2-56.2v4C71.2,47.8,47.8,71.2,47.8,100z
	 M56.3,100h-4c0-26.3,21.4-47.7,47.7-47.7v4C75.9,56.3,56.3,75.9,56.3,100z M0,47.7v-4c24.1,0,43.7-19.6,43.7-43.7h4
	C47.7,26.3,26.3,47.7,0,47.7z"/>
</svg>
