<?xml version="1.0" encoding="utf-8"?>
<!-- Generator: Adobe Illustrator 25.3.1, SVG Export Plug-In . SVG Version: 6.00 Build 0)  -->
<svg version="1.1" id="Layer_3" xmlns="http://www.w3.org/2000/svg" xmlns:xlink="http://www.w3.org/1999/xlink" x="0px" y="0px"
	 viewBox="0 0 100 100" style="enable-background:new 0 0 100 100;" xml:space="preserve">
<style type="text/css">
	.st0{fill:none;stroke:#000000;stroke-width:4;stroke-miterlimit:10;}
</style>
<path class="st0" d="M100,2c-1.1,0-2-0.9-2-2"/>
<line class="st0" x1="98" y1="0" x2="98" y2="0"/>
<line class="st0" x1="87.3" y1="0" x2="87.3" y2="0"/>
<path class="st0" d="M87.3,0c0,7,5.7,12.7,12.7,12.7"/>
<path class="st0" d="M76.7,0c0,12.9,10.4,23.3,23.3,23.3"/>
<path class="st0" d="M100,98c-0.7,0-1.3,0-2,0c0,0.7,0,1.3,0,2"/>
<path class="st0" d="M44.7,0C44.1,29.8,70.2,55.9,100,55.3"/>
<path class="st0" d="M2,100c0-1.1-0.9-2-2-2"/>
<line class="st0" x1="0" y1="98" x2="0" y2="98"/>
<line class="st0" x1="0" y1="87.3" x2="0" y2="87.3"/>
<path class="st0" d="M12.7,100C12.7,93,7,87.3,0,87.3"/>
<path class="st0" d="M23.3,100c0-12.9-10.4-23.3-23.3-23.3"/>
<path class="st0" d="M55.3,0C55.1,24.4,75.6,44.9,100,44.7"/>
<path class="st0" d="M66,0c0,18.8,15.2,34,34,34"/>
<path class="st0" d="M44.7,100C44.8,75.6,24.4,55.1,0,55.3"/>
<path class="st0" d="M34,100c0-18.8-15.2-34-34-34"/>
<path class="st0" d="M0,2c0.7,0,1.3,0,2,0c0-0.7,0-1.3,0-2"/>
<path class="st0" d="M0,12.7c4.6,0,9.3,0.4,13.7,1.1C13,9.3,12.7,4.6,12.7,0"/>
<path class="st0" d="M100,87.3c-4.6,0-9.3-0.4-13.7-1.1c0.7,4.5,1.1,9.1,1.1,13.8"/>
<path class="st0" d="M34,0c-0.7,35.5,30.5,66.7,66,66"/>
<path class="st0" d="M0,23.3c9.9,0,19.9,1.9,29,5.7c-3.8-9.1-5.7-19.1-5.7-29"/>
<path class="st0" d="M100,76.7c-10,0-19.9-1.9-29-5.7c3.8,9.1,5.7,19.1,5.7,29"/>
<path class="st0" d="M55.3,100C55.9,70.2,29.8,44.1,0,44.7"/>
<path class="st0" d="M66,100c0.7-35.5-30.5-66.7-66-66"/>
</svg>
