<?xml version="1.0" encoding="utf-8"?>
<!-- Generator: Adobe Illustrator 25.4.1, SVG Export Plug-In . SVG Version: 6.00 Build 0)  -->
<svg version="1.1" id="Layer_4" xmlns="http://www.w3.org/2000/svg" xmlns:xlink="http://www.w3.org/1999/xlink" x="0px" y="0px"
	 viewBox="0 0 100 100" style="enable-background:new 0 0 100 100;" xml:space="preserve">
<style type="text/css">
	.st0{fill:none;stroke:#000000;stroke-miterlimit:10;}
</style>
<line class="st0" x1="10" y1="0" x2="0" y2="10"/>
<line class="st0" x1="16.9" y1="0" x2="0" y2="16.9"/>
<line class="st0" x1="23.8" y1="0" x2="0" y2="23.8"/>
<line class="st0" x1="30.8" y1="0" x2="0" y2="30.8"/>
<line class="st0" x1="37.7" y1="0" x2="0" y2="37.7"/>
<line class="st0" x1="44.6" y1="0" x2="0" y2="44.6"/>
<line class="st0" x1="51.5" y1="0" x2="0" y2="51.5"/>
<line class="st0" x1="58.5" y1="0" x2="0" y2="58.5"/>
<line class="st0" x1="65.4" y1="0" x2="0" y2="65.4"/>
<line class="st0" x1="72.3" y1="0" x2="0" y2="72.3"/>
<line class="st0" x1="79.2" y1="0" x2="0" y2="79.2"/>
<line class="st0" x1="86.2" y1="0" x2="0" y2="86.2"/>
<line class="st0" x1="93.1" y1="0" x2="0" y2="93.1"/>
<polygon class="st0" points="12.1,95 95,12.1 95,95 "/>
<polygon class="st0" points="24.1,90 90,24.2 90,90 "/>
<polygon class="st0" points="36.2,85 85,36.2 85,85 "/>
<polygon class="st0" points="48.3,80 80,48.3 80,80 "/>
<polygon class="st0" points="60.4,75 75,60.4 75,75 "/>
<polygon class="st0" points="100,0 100,100 0,100 "/>
</svg>
