<?xml version="1.0" encoding="utf-8"?>
<!-- Generator: Adobe Illustrator 25.3.1, SVG Export Plug-In . SVG Version: 6.00 Build 0)  -->
<svg version="1.1" id="Layer_3" xmlns="http://www.w3.org/2000/svg" xmlns:xlink="http://www.w3.org/1999/xlink" x="0px" y="0px"
	 viewBox="0 0 100 100" style="enable-background:new 0 0 100 100;" xml:space="preserve">
<style type="text/css">
	.st0{fill:none;stroke:#000000;stroke-miterlimit:10;}
</style>
<path class="st0" d="M34,100V83c0-0.6,0-1.2-0.1-1.8c-0.4-3.9-2.1-7.9-4.7-10.4c-2.6-2.6-6.5-4.3-10.4-4.7C18.2,66,17.6,66,17,66H0"
	/>
<path class="st0" d="M23.3,100V88.3c0-3-1.2-6.5-3.2-8.5s-5.5-3.2-8.5-3.2H0"/>
<path class="st0" d="M12.7,100v-6.3c0-1.5-0.6-3.8-1.6-4.7c-1-1-3.2-1.6-4.7-1.6H0"/>
<polyline class="st0" points="2,100 2,99 2,98 1,98 0,98 "/>
<polyline class="st0" points="2,0 2,2 0,2 "/>
<polyline class="st0" points="12.7,0 12.7,12.7 0,12.7 "/>
<polyline class="st0" points="23.3,0 23.3,23.3 0,23.3 "/>
<polyline class="st0" points="100,98 98,98 98,100 "/>
<polyline class="st0" points="100,87.3 87.3,87.3 87.3,100 "/>
<polyline class="st0" points="100,76.7 76.7,76.7 76.7,100 "/>
<path class="st0" d="M44.7,100V77.6c0-1.7-0.2-3.5-0.6-5.2c-0.9-4.1-3-8-5.8-10.8s-6.6-4.8-10.8-5.8c-1.7-0.4-3.4-0.6-5.2-0.6H0"/>
<path class="st0" d="M34,0v33.1c0,0.3,0,0.6,0,1c-0.3,0-0.6,0-1,0H0"/>
<path class="st0" d="M100,66c-1,0-33,0-34,0c0,1,0,33,0,34"/>
<path class="st0" d="M55.3,100c-0.4-6.7,1.2-30.6-1.5-36.6l0,0c-2.6-8.2-9-14.6-17.2-17.2l0,0c-5.9-2.6-30-1.1-36.6-1.5"/>
<path class="st0" d="M44.7,0v27.7c0,11.7,7.5,22.6,18.7,26.1l0,0c5.9,2.6,30,1.1,36.6,1.5"/>
<path class="st0" d="M55.3,0v22.4c0,1.7,0.2,3.5,0.6,5.2c0.9,4.1,3,8,5.8,10.8c2.8,2.8,6.6,4.8,10.8,5.8c1.7,0.4,3.4,0.6,5.2,0.6
	H100"/>
<path class="st0" d="M66,0v17c0,0.6,0,1.2,0.1,1.8c0.4,3.9,2.1,7.9,4.7,10.4c2.6,2.6,6.5,4.3,10.4,4.7C81.8,34,82.4,34,83,34h17"/>
<path class="st0" d="M76.7,0v11.7c0,3,1.2,6.5,3.2,8.5s5.5,3.2,8.5,3.2H100"/>
<path class="st0" d="M87.3,0v6.3c0,1.5,0.6,3.8,1.6,4.7c1,1,3.2,1.6,4.7,1.6h6.3"/>
<polyline class="st0" points="98,0 98,1 98,2 99,2 100,2 "/>
</svg>
