<?xml version="1.0" encoding="utf-8"?>
<!-- Generator: Adobe Illustrator 25.3.1, SVG Export Plug-In . SVG Version: 6.00 Build 0)  -->
<svg version="1.1" id="Layer_3" xmlns="http://www.w3.org/2000/svg" xmlns:xlink="http://www.w3.org/1999/xlink" x="0px" y="0px"
	 viewBox="0 0 100 100" style="enable-background:new 0 0 100 100;" xml:space="preserve">
<style type="text/css">
	.st0{fill:none;stroke:#000000;stroke-miterlimit:10;}
</style>
<path class="st0" d="M75,0v12.5C75,19.4,69.4,25,62.5,25h-25C30.6,25,25,19.4,25,12.5V0"/>
<path class="st0" d="M0,25h12.5C19.4,25,25,30.6,25,37.5V100"/>
<path class="st0" d="M0,75h37.5C44.4,75,50,69.4,50,62.5v0C50,55.6,44.4,50,37.5,50H0"/>
<path class="st0" d="M100,75H62.5C55.6,75,50,80.6,50,87.5V100"/>
<path class="st0" d="M100,25H87.5C80.6,25,75,30.6,75,37.5V100"/>
<path class="st0" d="M100,50H62.5C55.6,50,50,44.4,50,37.5V0"/>
</svg>
