<?xml version="1.0" encoding="utf-8"?>
<!-- Generator: Adobe Illustrator 24.1.0, SVG Export Plug-In . SVG Version: 6.00 Build 0)  -->
<svg version="1.1" xmlns="http://www.w3.org/2000/svg" xmlns:xlink="http://www.w3.org/1999/xlink" x="0px" y="0px"
	 viewBox="0 0 100 100" style="enable-background:new 0 0 100 100;" xml:space="preserve">
<style type="text/css">
	.st0{opacity:0.8;enable-background:new    ;}
	.st1{opacity:0.2;enable-background:new    ;}
	.st2{opacity:0.4;enable-background:new    ;}
	.st3{opacity:0.5;enable-background:new    ;}
	.st4{opacity:0.7;enable-background:new    ;}
</style>
<g id="Layer_6">
	<path class="st0" d="M100,50c0,27.6-22.4,50-50,50c-12.2,0-24.1-4.5-33.2-12.6c5.3-1.4,10.3-3.5,15-6.2c0.9-0.5,1.8-1.1,2.7-1.7
		c4.3-2.8,8.2-6.3,11.6-10.2c4.5-5.2,7.8-10.5,11.8-15.6c4-5.3,8.9-9.8,14.6-13.2C80,36.1,88.4,33.6,97,33C99,38.4,100,44.2,100,50z
		"/>
</g>
<g id="Layer_5">
	<path class="st1" d="M97,33c-8.6,0.6-17,3.1-24.5,7.5c-5.7,3.4-10.6,7.9-14.6,13.2c-11.1-14-35.1-28.9-29.2-49
		c25-11.7,54.8-1,66.5,24C95.9,30.1,96.5,31.6,97,33z"/>
</g>
<g id="Layer_4">
	<path class="st2" d="M57.9,53.7c-4,5.1-7.3,10.5-11.8,15.6c-10.5-16.7-35.8-21-33.4-52.6c4.5-5,9.9-9.1,16-12
		C22.8,24.8,46.7,39.7,57.9,53.7z"/>
</g>
<g id="Layer_3">
	<path class="st3" d="M46.1,69.3c-3.4,3.9-7.3,7.3-11.6,10.2c-0.9,0.6-1.8,1.2-2.7,1.7C23.4,70.5,8.9,64.1,0,51c0-0.3,0-0.7,0-1
		c0-12.3,4.5-24.1,12.7-33.2C10.3,48.3,35.6,52.7,46.1,69.3z"/>
</g>
<g id="Layer_2">
	<path class="st4" d="M31.8,81.2c-4.7,2.7-9.7,4.8-15,6.2C6.3,78.1,0.3,64.9,0,51C8.9,64.1,23.4,70.5,31.8,81.2z"/>
</g>
</svg>
