<?xml version="1.0" encoding="UTF-8" standalone="no"?>
<svg
   viewBox="0 0 816 1056"
   version="1.1"
   id="svg1194"
   sodipodi:docname="20220212205914.svg"
   width="8.5in"
   height="11in"
   inkscape:version="1.1-dev (b471b9b, 2020-09-09)"
   xmlns:inkscape="http://www.inkscape.org/namespaces/inkscape"
   xmlns:sodipodi="http://sodipodi.sourceforge.net/DTD/sodipodi-0.dtd"
   xmlns="http://www.w3.org/2000/svg"
   xmlns:svg="http://www.w3.org/2000/svg">
  <sodipodi:namedview
     pagecolor="#ffffff"
     bordercolor="#666666"
     borderopacity="1"
     objecttolerance="10"
     gridtolerance="10"
     guidetolerance="10"
     inkscape:pageopacity="0"
     inkscape:pageshadow="2"
     inkscape:window-width="1440"
     inkscape:window-height="847"
     id="namedview1196"
     showgrid="false"
     units="in"
     inkscape:zoom="0.58996212"
     inkscape:cx="407.65329"
     inkscape:cy="528"
     inkscape:window-x="0"
     inkscape:window-y="25"
     inkscape:window-maximized="1"
     inkscape:current-layer="Layer_2" />
  <defs
     id="defs1104">
    <style
       id="style1102">.cls-1,.cls-2{fill:none;stroke:#000;stroke-miterlimit:10;}.cls-1{stroke-linecap:square;}.cls-2{stroke-linecap:round;}</style>
  </defs>
  <g
     id="Layer_2"
     data-name="Layer 2"
     transform="matrix(0.83895155,0,0,0.83857423,64.499906,191.99169)"
     inkscape:groupmode="layer"
     style="display:inline"
     inkscape:label="Circle">
    <circle
       class="cls-2"
       cx="400.5"
       cy="400.69"
       r="400"
       id="circle1191" />
  </g>
  <g
     id="Layer_1"
     data-name="Layer 1"
     transform="matrix(0.83895155,0,0,0.83857423,64.499906,191.99625)"
     inkscape:groupmode="layer"
     inkscape:label="Lines">
    <path
       class="cls-1"
       d="m 612.54,61.08 c -46.22,31.45 -91.79,67.44 -92.66,93.88 -1.61,48.5 147.35,95.58 174.5,136 27.15,40.42 22.87,69 -11.63,106.73 -34.5,37.73 -200.08,77.7 -195.37,119.45 4.71,41.75 187.52,83.9 223.62,131 0.44,0.57 0.87,1.16 1.29,1.75"
       transform="translate(0.5,0.69)"
       id="path1106" />
    <path
       class="cls-1"
       d="m 404,0 c -15.08,25.34 -107.58,100.76 -91.5,152 16.08,51.24 162.42,110.69 188,155.52 25.58,44.83 -1,75.15 -34.5,113.48 -33.5,38.33 -167.83,75.32 -166.5,116.43 1.33,41.11 157.08,86.44 174.5,130.2 17.42,43.76 -58.5,110.31 -70,132.37"
       transform="translate(0.5,0.69)"
       id="path1108" />
    <path
       class="cls-1"
       d="m 66.18,179.54 c 57.08,50 156.55,108.5 175.82,150 23.5,50.65 -32.83,83.28 -65,122.42 -32.17,39.14 -124.83,72.22 -128,112.47 -3.17,40.25 116.5,89.82 109,129.09 -1.08,5.64 -4.5,11.49 -9.64,17.43"
       transform="translate(0.5,0.69)"
       id="path1110" />
    <path
       class="cls-1"
       d="m 71.24,172.08 c 54.4,51.27 163.35,113 183.69,156.39 23.6,50.36 -31.25,82.87 -63.48,122 -32.23,39.13 -127,72.34 -129.92,112.64 -2.92,40.3 118.52,89.63 112.27,129.11 -1.3,8.21 -7.47,16.89 -16.64,25.66"
       transform="translate(0.5,0.69)"
       id="path1112" />
    <path
       class="cls-1"
       d="m 76.77,164.32 c 50,52.44 169.6,117.68 191.08,163.05 23.71,50.07 -29.65,82.46 -62,121.52 -32.35,39.06 -129.08,72.5 -131.8,112.84 -2.72,40.34 120.56,89.49 115.55,129.2 -1.33,10.57 -10.57,22 -23.87,33.32"
       transform="translate(0.5,0.69)"
       id="path1114" />
    <path
       class="cls-1"
       d="m 83,156.08 c 43.2,53.5 175,122.63 197.77,170.18 23.82,49.78 -28,82.06 -60.42,121.08 C 187.93,486.36 89.07,520 86.57,560.38 c -2.5,40.38 122.59,89.32 118.83,129.25 -1.21,12.82 -13.79,26.87 -31.09,40.67"
       transform="translate(0.5,0.69)"
       id="path1116" />
    <path
       class="cls-1"
       d="m 89.9,146.63 c 0.45,0.75 0.92,1.49 1.4,2.24 35,54.19 178.48,126.8 202.4,176.29 23.92,49.49 -26.47,81.65 -58.9,120.63 -32.43,38.98 -133.43,72.82 -135.7,113.21 -2.27,40.39 124.62,89.15 122.1,129.31 -0.94,15 -17.08,31.7 -38.14,47.78"
       transform="translate(0.5,0.69)"
       id="path1118" />
    <path
       class="cls-1"
       d="m 98.71,136.89 a 94,94 0 0 0 6.41,12.17 c 33.78,54 177.48,125.8 201.5,175 24.02,49.2 -24.87,81.24 -57.37,120.18 -32.5,38.94 -135.58,73 -137.63,113.44 -2.05,40.44 126.65,88.98 125.38,129.32 -0.54,17.08 -20.45,36.54 -44.93,54.73"
       transform="translate(0.5,0.69)"
       id="path1120" />
    <path
       class="cls-1"
       d="m 109,125.57 a 89.35,89.35 0 0 0 10,23.69 c 32.59,53.83 176.47,124.79 200.6,173.7 24.13,48.91 -23.33,80.84 -55.9,119.73 -32.57,38.89 -137.7,73.13 -139.55,113.64 -1.85,40.51 128.68,88.81 128.65,129.42 0,19.14 -23.89,41.39 -51.37,61.56"
       transform="translate(0.5,0.69)"
       id="path1122" />
    <path
       class="cls-1"
       d="m 121.42,113 a 87.5,87.5 0 0 0 11.35,36.51 c 31.42,53.64 175.48,123.78 199.71,172.4 24.23,48.62 -21.7,80.43 -54.33,119.28 -32.63,38.85 -139.88,73.24 -141.48,113.81 -1.6,40.57 130.71,88.62 131.93,129.46 0.63,21.19 -27.39,46.31 -57.39,68.27"
       transform="translate(0.5,0.69)"
       id="path1124" />
    <path
       class="cls-1"
       d="m 136.45,99.35 c -1.15,17.22 1.23,34.53 10.15,50.3 30.23,53.46 174.47,122.78 198.8,171.1 24.33,48.32 -20.1,80 -52.8,118.84 -32.7,38.84 -142,73.45 -143.4,114 -1.4,40.55 132.73,88.51 135.2,129.57 1.4,23.23 -30.95,51.34 -62.91,74.9"
       transform="translate(0.5,0.69)"
       id="path1126" />
    <path
       class="cls-1"
       d="m 154.42,84.24 c -4.82,22.13 -5.12,45.21 6,65.61 29.06,53.27 173.47,121.77 197.91,169.8 24.44,48.03 -18.51,79.62 -51.28,118.35 -32.77,38.73 -144.18,73.6 -145.32,114.24 -1.14,40.64 134.76,88.3 138.47,129.59 2.27,25.26 -34.55,56.47 -67.88,81.39"
       transform="translate(0.5,0.69)"
       id="path1128" />
    <path
       class="cls-1"
       d="m 175.41,68.52 c -9.41,26.72 -14.41,56.26 -1.16,81.53 27.87,53.09 172.46,120.76 197,168.5 24.54,47.74 -16.92,79.21 -49.75,117.94 -32.83,38.73 -146.33,73.76 -147.25,114.44 -0.92,40.68 136.75,88.13 141.75,129.64 3.26,27.3 -38.2,61.73 -72.23,87.77"
       transform="translate(0.5,0.69)"
       id="path1130" />
    <path
       class="cls-1"
       d="m 198.7,53.66 c -14,30.32 -25.77,66.57 -10.63,96.58 26.7,52.91 171.46,119.76 196.1,167.21 24.64,47.45 -15.32,78.8 -48.17,117.49 -32.85,38.69 -148.53,73.92 -149.22,114.64 -0.69,40.72 138.82,88 145,129.7 4.36,29.33 -41.86,67.12 -75.9,94"
       transform="translate(0.5,0.69)"
       id="path1132" />
    <path
       class="cls-1"
       d="m 222.8,41.29 c -17.77,32.52 -37.42,75 -20.9,109.15 25.52,52.72 170.45,118.75 195.2,165.91 24.75,47.16 -13.73,78.39 -46.7,117 C 317.43,471.96 199.77,507.46 199.3,548.23 198.83,589 340.15,636 347.6,678 c 5.57,31.37 -45.52,72.66 -78.82,100"
       transform="translate(0.5,0.69)"
       id="path1134" />
    <path
       class="cls-1"
       d="m 247.73,30 c -20.39,33.55 -49.68,82.48 -32,120.62 24.33,52.56 169.44,117.76 194.27,164.62 24.83,46.86 -12.14,78 -45.17,116.6 -33.03,38.6 -152.78,74.23 -153,115 -0.22,40.77 142.87,87.66 151.57,129.85 6.88,33.39 -49.13,78.3 -80.92,105.77"
       transform="translate(0.5,0.69)"
       id="path1136" />
    <path
       class="cls-1"
       d="M 272.46,20.67 C 251,54 211.09,109.1 229.55,150.83 252.71,203.19 398,267.57 423,314.14 c 25,46.57 -10.6,77.58 -43.7,116.15 -33.1,38.57 -154.93,74.39 -155,115.24 -0.07,40.85 144.96,87.47 154.9,129.87 8.3,35.39 -52.63,84 -82.14,111.23"
       transform="translate(0.5,0.69)"
       id="path1138" />
    <path
       class="cls-1"
       d="m 296.36,13.56 c -21.13,32.23 -71.82,92.75 -53,137.47 22,52.17 167.43,115.72 192.5,162 25.07,46.28 -9,77.17 -42.13,115.7 -33.13,38.53 -157.06,74.56 -156.85,115.45 0.21,40.89 146.93,87.29 158.12,129.92 9.79,37.31 -55.74,89.65 -82.32,116.21"
       transform="translate(0.5,0.69)"
       id="path1140" />
    <path
       class="cls-1"
       d="M 319.45,8.12 C 299.79,38.6 238.31,104 257.2,151.22 c 20.8,52 166.43,114.72 191.6,160.72 25.17,46 -7.37,76.77 -40.6,115.25 -33.23,38.48 -159.2,74.7 -158.8,115.64 0.4,40.94 149,87.12 161.4,130 11.38,39.17 -58.8,95.39 -81.73,120.9"
       transform="translate(0.5,0.69)"
       id="path1142" />
    <path
       class="cls-1"
       d="m 341.66,4.23 c -17.6,28.52 -89.26,98 -70.63,147.19 19.62,51.81 165.42,113.71 190.7,159.42 25.28,45.71 -5.73,76.36 -39.08,114.8 -33.35,38.44 -161.38,74.86 -160.73,115.84 0.65,40.98 151,86.95 164.68,130 13,40.93 -60.94,100.7 -80.05,125"
       transform="translate(0.5,0.69)"
       id="path1144" />
    <path
       class="cls-1"
       d="m 363.07,1.68 c -15.65,26.77 -96.27,99.42 -78.22,149.94 18.44,51.62 164.42,112.7 189.8,158.11 25.38,45.41 -4.18,76 -37.55,114.36 -33.37,38.36 -163.53,75 -162.65,116 0.88,41 153,86.78 168,130.09 14.55,42.38 -62,105.3 -77.45,128.31"
       transform="translate(0.5,0.69)"
       id="path1146" />
    <path
       class="cls-1"
       d="m 383.82,0.32 c -14.62,25.61 -102.34,100.27 -85.15,151.49 17.27,51.44 163.43,111.7 188.91,156.82 25.48,45.12 -2.6,75.55 -36,113.91 -33.4,38.36 -165.71,75.18 -164.58,116.24 1.13,41.06 155,86.61 171.2,130.14 16.1,43.34 -61.28,108.62 -74,130.77"
       transform="translate(0.5,0.69)"
       id="path1148" />
    <path
       class="cls-1"
       d="m 423.56,0.68 c -17.36,26 -112,100.91 -97.24,151.53 14.91,51.07 161.42,109.68 187.1,154.22 25.68,44.54 0.6,74.73 -33,113 -33.6,38.27 -169.95,75.5 -168.42,116.65 1.53,41.15 159.14,86.27 177.8,130.26 18.46,43.51 -53.43,109.94 -65.43,132.93"
       transform="translate(0.5,0.69)"
       id="path1150" />
    <path
       class="cls-1"
       d="m 442.39,2.22 c -21,27.37 -115.59,100.7 -102.24,150.18 13.73,50.89 160.41,108.68 186.2,152.93 25.79,44.25 2.18,74.32 -31.45,112.56 -33.63,38.24 -172.13,75.65 -170.35,116.84 1.78,41.19 161.14,86.1 181.05,130.27 19.21,42.66 -46.6,107.7 -60.32,132.42"
       transform="translate(0.5,0.69)"
       id="path1152" />
    <path
       class="cls-1"
       d="M 460.36,4.52 C 435,33.57 342.1,104.62 354,152.6 c 12.54,50.7 159.4,107.67 185.3,151.62 25.9,43.95 3.77,73.92 -29.93,112.12 -33.7,38.2 -174.28,75.81 -172.28,117 2,41.19 163.16,85.97 184.31,130.41 C 541,705 482.84,767.52 466.88,794.43"
       transform="translate(0.5,0.69)"
       id="path1154" />
    <path
       class="cls-1"
       d="m 477.33,7.53 c -30,30.76 -119.93,99 -109.53,145.27 11.37,50.52 158.4,106.66 184.4,150.32 26,43.66 5.37,73.51 -28.4,111.67 -33.77,38.16 -176.43,75.96 -174.2,117.21 2.23,41.25 165.2,85.76 187.6,130.42 19.8,39.41 -29.91,98.44 -47.9,127.58"
       transform="translate(0.5,0.69)"
       id="path1156" />
    <path
       class="cls-1"
       d="m 493.43,11 c -34.31,32.25 -120.8,97.59 -111.81,142 10.19,50.34 157.4,105.66 183.5,149 26.1,43.34 7,73.11 -26.87,111.22 -33.87,38.11 -178.58,76.14 -176.13,117.46 2.45,41.32 167.23,85.59 190.88,130.48 19.52,37.06 -21.14,91.79 -40.42,122.78"
       transform="translate(0.5,0.69)"
       id="path1158" />
    <path
       class="cls-1"
       d="m 508.56,14.91 c -38.18,33.48 -120.75,95.72 -113.11,138.28 9,50.15 156.39,104.65 182.6,147.73 26.21,43.08 8.55,72.7 -25.35,110.77 C 518.8,449.76 372,488 374.65,529.33 c 2.65,41.33 169.26,85.42 194.15,130.53 19,34.35 -12.68,84.08 -32.09,116.17"
       transform="translate(0.5,0.69)"
       id="path1160" />
    <path
       class="cls-1"
       d="M 522.81,19.21 C 481.36,53.6 402.9,112.72 409.27,153.39 417.1,203.35 564.66,257 591,299.82 c 26.34,42.82 10.15,72.29 -23.82,110.32 -33.97,38.03 -182.91,76.44 -180,117.86 2.91,41.42 171.28,85.23 197.42,130.57 18,31.17 -4.84,75.19 -23,107.31"
       transform="translate(0.5,0.69)"
       id="path1162" />
    <path
       class="cls-1"
       d="m 536.25,23.81 c -44.09,35 -118.33,91 -113.15,129.77 6.65,49.79 154.38,102.63 180.8,145.13 26.42,42.5 11.73,71.89 -22.3,109.88 -34.03,37.99 -185,76.59 -181.9,118 3.1,41.41 173.3,85.12 200.7,130.69 16.66,27.72 1.76,65.72 -13.8,96.62"
       transform="translate(0.5,0.69)"
       id="path1164" />
    <path
       class="cls-1"
       d="m 549,28.65 c -46.09,35.24 -116.1,88.2 -112,125.13 5.47,49.6 153.37,101.62 179.9,143.83 26.53,42.21 13.25,71.48 -20.85,109.39 -34.1,37.91 -187.18,76.79 -183.82,118.28 3.36,41.49 175.34,84.92 203.97,130.72 14.92,23.86 7,55.45 -4.83,83.63"
       transform="translate(0.5,0.69)"
       id="path1166" />
    <path
       class="cls-1"
       d="M 561,33.7 C 513.49,68.91 447.7,118.88 450.75,154 c 4.29,49.42 152.37,100.62 179,142.54 26.63,41.92 14.92,71.07 -19.25,109 -34.17,37.93 -189.33,76.86 -185.75,118.39 3.58,41.53 177.37,84.75 207.25,130.76 12.85,19.79 10.3,44.95 2.86,69.14"
       transform="translate(0.5,0.69)"
       id="path1168" />
    <path
       class="cls-1"
       d="m 561.88,33 -0.92,0.68"
       transform="translate(0.5,0.69)"
       id="path1170" />
    <path
       class="cls-1"
       d="m 572.68,38.68 c -48.31,34.93 -110.22,82.11 -108.11,115.49 3.12,49.24 151.38,99.61 178.1,141.24 26.72,41.63 16.51,70.66 -17.67,108.52 -34.18,37.86 -191.53,77.07 -187.73,118.65 3.8,41.58 179.41,84.58 210.53,130.81 10.5,15.6 11.64,34.57 8.39,53.81"
       transform="translate(0.5,0.69)"
       id="path1172" />
    <path
       class="cls-1"
       d="m 583.14,44.3 c -48.49,34.35 -106,78.52 -104.74,110.07 1.93,49 150.37,98.6 177.2,139.94 26.83,41.34 18.1,70.25 -16.2,108.07 -34.3,37.82 -193.63,77.23 -189.6,118.85 4.03,41.62 181.43,84.41 213.8,130.87 8,11.47 11,24.8 11,38.73"
       transform="translate(0.5,0.69)"
       id="path1174" />
    <path
       class="cls-1"
       d="m 593.42,49.79 c -48.21,33.58 -101.66,75 -101.19,104.77 0.75,48.87 149.36,97.6 176.3,138.64 26.94,41.04 19.69,69.85 -14.68,107.63 -34.37,37.78 -195.78,77.39 -191.53,119.05 4.25,41.66 183.47,84.24 217.08,130.92 a 63,63 0 0 1 10.6,24.76"
       transform="translate(0.5,0.69)"
       id="path1176" />
    <path
       class="cls-1"
       d="m 603.2,55.39 c -47.44,32.61 -96.9,71.26 -97.15,99.37 -0.43,48.68 148.36,96.59 175.4,137.34 27.04,40.75 21.28,69.45 -13.15,107.18 -34.43,37.73 -197.93,77.55 -193.45,119.25 4.48,41.7 185.49,84.07 220.35,131 a 62.38,62.38 0 0 1 7.15,12.38"
       transform="translate(0.5,0.69)"
       id="path1178" />
    <path
       class="cls-1"
       d="m 621.46,66.85 c -44.58,30.13 -86.33,63.51 -87.76,88.3 -2.78,48.32 146.35,94.58 173.6,134.75 27.25,40.17 24.47,68.63 -10.1,106.28 C 662.63,433.83 495,474 499.9,515.83 c 4.69,39.7 171.54,79.54 220.24,124"
       transform="translate(0.5,0.69)"
       id="path1180" />
    <path
       class="cls-1"
       d="m 630,72.7 c -42.56,28.65 -80.57,59.49 -82.47,82.65 -4,48.13 145.34,93.57 172.69,133.45 27.35,39.88 26.06,68.22 -8.57,105.83 -34.63,37.61 -204.38,78 -199.22,119.85 4.63,37.55 155.32,75 214,116.71"
       transform="translate(0.5,0.69)"
       id="path1182" />
    <path
       class="cls-1"
       d="m 638.19,78.62 c -40.18,27 -74.53,55.39 -76.84,76.93 -5.14,47.95 144.34,92.55 171.8,132.14 27.46,39.59 27.65,67.82 -7,105.39 -34.65,37.57 -206.58,78.18 -201.15,120.05 4.58,35.65 141.65,71 206.91,110.26"
       transform="translate(0.5,0.69)"
       id="path1184" />
    <path
       class="cls-1"
       d="m 646.06,84.61 c -37.48,25.3 -68.25,51.2 -70.89,71.13 -6.32,47.77 143.34,91.55 170.91,130.85 27.57,39.3 29.24,67.41 -5.53,104.94 -34.77,37.53 -208.68,78.33 -203.08,120.25 4.54,33.9 129.7,67.4 199.15,104.39"
       transform="translate(0.5,0.69)"
       id="path1186" />
    <path
       class="cls-1"
       d="m 653.64,90.68 c -34.48,23.44 -61.75,46.93 -64.64,65.26 -7.5,47.58 142.33,90.54 170,129.55 27.67,39.01 30.83,67 -4,104.49 -34.83,37.49 -210.83,78.49 -205,120.45 4.49,32.27 119,64 190.9,98.93"
       transform="translate(0.5,0.69)"
       id="path1188" />
  </g>
  <WCB
     layer="0"
     node="0"
     lastpath="0"
     lastpathnc="0"
     lastknownposx="0"
     lastknownposy="0"
     pausedposx="0"
     pausedposy="0"
     randseed="0"
     row="0"
     application="Axidraw" />
</svg>
