<?xml version="1.0" encoding="utf-8"?>
<!-- Generator: Adobe Illustrator 24.1.0, SVG Export Plug-In . SVG Version: 6.00 Build 0)  -->
<svg version="1.1" id="Layer_2" xmlns="http://www.w3.org/2000/svg" xmlns:xlink="http://www.w3.org/1999/xlink" x="0px" y="0px"
	 viewBox="0 0 99.1 96.7" style="enable-background:new 0 0 99.1 96.7;" xml:space="preserve">
<path id="Layer_1-2" d="M31,37.8c1.5-1.2,1.7-3.5,0.5-5c-0.5-0.6-1.1-1-1.9-1.2C-0.2,24.4,14.9,5,42.3,0.8C63.1-4,96,13.2,65.4,32.2
	C19.9,60.5,82,33.4,96.8,43.5c2.5,1.8,3,5.2,1.3,7.7c-0.1,0.2-0.3,0.3-0.4,0.5c-7,8.4-22.5,6.7-32,12.1c-2.3,1.2-3.1,4.1-1.9,6.4
	c0,0.1,0.1,0.1,0.1,0.2c12.3,19.6-35.2,35.5-47.5,20.6c-7.4-8.3,4.3-12.5,9.3-18.6c1.2-1.5,1-3.6-0.5-4.8c-0.6-0.5-1.2-0.7-1.9-0.8
	C12.8,66-5,70.4,1.4,54.8C7.8,44.5,22.4,45,31,37.8z M91,46.1c-1.7,1.6-1.7,1.6,0.5,2.5C92.2,47.7,92.3,46.4,91,46.1L91,46.1z
	 M81.3,52.9c-0.8,1.7-0.5,2.5,1.2,2.6C83.5,54.2,83.2,53.5,81.3,52.9L81.3,52.9z M64.7,9.4c-0.5,1.2,0.9,1.8,1.3,0.9
	C66.1,9.5,65.7,9.2,64.7,9.4z M81.4,47.3c0.2-0.4,0.1-0.8-0.3-1c-0.3-0.2-0.7-0.1-0.9,0.2C79.7,47.4,80.7,47.9,81.4,47.3L81.4,47.3z
	 M85.1,49c0.5-0.6,0.4-0.8-0.3-1.1C84.3,48.5,84.5,48.7,85.1,49z"/>
</svg>
