<?xml version="1.0" encoding="utf-8"?>
<!-- Generator: Adobe Illustrator 24.1.0, SVG Export Plug-In . SVG Version: 6.00 Build 0)  -->
<svg version="1.1" id="Layer_1" xmlns="http://www.w3.org/2000/svg" xmlns:xlink="http://www.w3.org/1999/xlink" x="0px" y="0px"
	 viewBox="0 0 84.5 95.9" style="enable-background:new 0 0 84.5 95.9;" xml:space="preserve">
<path id="Layer_2_1_" d="M65.3,15.3c-10.5,11-23.1,16.1,10.4,14c2.4-0.2,4.8,0.7,6.5,2.5C92.6,43.4,65.4,71,55.4,53.1
	c-6.4-11.5-25.4-29.6-26.6-6.8c-0.1,0.7,0,1.3,0.1,2C31.7,61.1,48.6,70,46.1,84.2c-0.1,0.4-0.2,0.7-0.3,1.1
	c-5.3,15.8-27.3,12.3-35.5,0.2c-0.1-0.2-0.3-0.3-0.4-0.5C-19.5,49.5,22.2-11.2,61.8,1.8c4.3,1.4,6.7,6,5.3,10.4
	C66.7,13.3,66.1,14.4,65.3,15.3z"/>
</svg>
