<?xml version="1.0" encoding="utf-8"?>
<!-- Generator: Adobe Illustrator 24.1.0, SVG Export Plug-In . SVG Version: 6.00 Build 0)  -->
<svg version="1.1" id="Layer_1" xmlns="http://www.w3.org/2000/svg" xmlns:xlink="http://www.w3.org/1999/xlink" x="0px" y="0px"
	 viewBox="0 0 76.8 141.9" style="enable-background:new 0 0 76.8 141.9;" xml:space="preserve">
<path id="Layer_2_1_" d="M27.5,78.7C26.8,61,0.1,20.4,20.1,27c4.1,1.4,7.7,4,10.3,7.5C54.6,66.9,54,32.8,52.6,8.4
	c-0.4-6.5,7.1-10.7,12.3-6.9c11.7,8.6,15.6,36.4,8,49.2c-7.7,18-36.6,1.4-19,33.2c33.3,40.3,22.9,79.7-29.6,44.1
	c-19.8-11-40-74.3-5.8-45c2.3,2,5.8,1.7,7.7-0.6C27,81.3,27.5,80,27.5,78.7z M69.5,17c0.4,1,1,1.2,1.6,0.6
	C71.8,16.6,70.3,15.9,69.5,17z M41.5,129.4c-0.1-0.6-0.7-0.8-1.1-0.4C40,129.8,41.1,130,41.5,129.4L41.5,129.4z M58.9,56.2
	c0.8-0.2,0.9-1,0.1-1.3C58,54.5,57.9,56.1,58.9,56.2z M14.5,83.1c-0.1-0.4-0.4-0.6-0.8-0.5c-0.3,0-0.5,0.3-0.5,0.5
	C13.3,83.9,14.3,83.8,14.5,83.1z M17.5,114.6c-0.1-0.2-0.3-0.4-0.5-0.3c-0.1,0-0.3,0.2-0.3,0.3C17,115.2,17.2,115.1,17.5,114.6
	L17.5,114.6z M26.2,59.7c0.2-0.3,0.1-0.5-0.2-0.5C25.5,59.3,25.8,59.9,26.2,59.7L26.2,59.7z"/>
</svg>
