<?xml version="1.0" encoding="utf-8"?>
<!-- Generator: Adobe Illustrator 24.1.0, SVG Export Plug-In . SVG Version: 6.00 Build 0)  -->
<svg version="1.1" id="Layer_1" xmlns="http://www.w3.org/2000/svg" xmlns:xlink="http://www.w3.org/1999/xlink" x="0px" y="0px"
	 viewBox="0 0 107.7 97.2" style="enable-background:new 0 0 107.7 97.2;" xml:space="preserve">
<path id="Layer_2_1_" d="M9.8,47.2c14.7-5.5,24.8,4.1,12.7-17.8C4.8-2.4,72.1-14.4,63.1,24.1C64.6,62.3,71.8,3.6,86,13.2
	c5.7,10.1-11.4,19.3-4,28.6c6.4-4,18.4-23.4,25.2-9.1c3,15.8-21.4,18.2-21.2,31.1c17.7,2.8,34,30.4,8.5,33.3
	c-14,0.5-30.7-44.6-38.6-30.4c-1,1.8-1.4,3.9-1.3,6C57.8,128.4-28.4,61.4,9.8,47.2z M27.8,58.2c-0.3,1.5-0.3,1.5,0.9,1.7
	C29.1,59.1,28.9,58.6,27.8,58.2L27.8,58.2z M89.9,77.9c1.2-1,0-2.3-1-1.4C88.5,77.2,88.9,77.7,89.9,77.9z M26,78.3
	c0.3,0.8,0.7,1.2,1.5,0.9C28.7,78.1,26.9,76.7,26,78.3z M56.6,43.9c-0.1-0.8-1-1-1.1-0.1c0,0.3,0.2,0.6,0.5,0.6
	C56.3,44.5,56.6,44.2,56.6,43.9z M64.1,43.6c0.1-0.1,0.1-0.4,0-0.5c-0.1-0.1-0.4-0.1-0.5,0s-0.1,0.4,0,0.5S63.9,43.7,64.1,43.6z
	 M98.5,72c-0.3-0.5-0.7-0.6-0.9,0C97.8,72.5,98.2,72.4,98.5,72z"/>
</svg>
