<?xml version="1.0" encoding="utf-8"?>
<!-- Generator: Adobe Illustrator 24.1.0, SVG Export Plug-In . SVG Version: 6.00 Build 0)  -->
<svg version="1.1" id="Layer_2" xmlns="http://www.w3.org/2000/svg" xmlns:xlink="http://www.w3.org/1999/xlink" x="0px" y="0px"
	 viewBox="0 0 99 99.8" style="enable-background:new 0 0 99 99.8;" xml:space="preserve">
<g id="Layer_2_1_">
	<g id="Layer_1-2">
		<g id="Layer_6">
			<path d="M90.3,58c-6.8,29.8-61.4-17-53.6,21.9c3.1,8,0.7,20.7-10,19.8C-14.7,90.9-3.4,43,29.5,32.4c1.8-0.5,2.7-2.4,2.2-4.2
				c-0.1-0.2-0.2-0.5-0.3-0.7c-5-8.6-2.1-17.9,6.1-23.2c6.6-4.3,14.9-5,22.5-3.9c6.4,0.9,15.5,2.2,14.9,10.4
				c-0.1,1.8-1.9,11.4-3.8,11.9c9-2.3,25.9-6.1,27.9,7.5C96.6,58.1,67.8,35.4,54.4,43c-2.1,1.1-2.8,3.7-1.7,5.8
				c0.5,1,1.5,1.8,2.6,2.1c9.2,2.8,24.7-3.3,33,2.1C90,54.2,90.7,56.1,90.3,58z M74.4,55.7c1.2,1.2,1.9,1.2,2.3-0.3
				C75.6,54.7,75.6,54.7,74.4,55.7L74.4,55.7z M12.8,74.2c-0.4-2.1-2.6,0.4-0.8,0.7C12.5,74.8,12.8,74.6,12.8,74.2z M42.3,20.6
				c-2.5,0.5,0.8,2.6,0.5,0.5C42.7,20.8,42.5,20.6,42.3,20.6z M43.5,29.5c-0.7,0.3-1,1.3,0,1.5S44.5,29.6,43.5,29.5z M61.6,34.8
				c0.2-0.9-1-1.2-1.2-0.4S61.4,35.4,61.6,34.8z M39.5,32.6c-0.6,0.2-0.7,1,0,1.1c0.3,0,0.5-0.3,0.5-0.6
				C39.9,32.9,39.7,32.7,39.5,32.6z M67.6,59.5c0.3-0.2,0.3-0.6,0.1-0.9c-0.2-0.3-0.6-0.3-0.9-0.1c-0.1,0-0.1,0.1-0.1,0.2
				C66.6,59.3,66.9,59.6,67.6,59.5z M26.7,86.1c-0.1-0.2-0.1-0.7-0.5-0.4C26.1,86.1,26.3,86.2,26.7,86.1z M17.9,59.4
				c-0.4,0-0.6,0.4-0.2,0.6c0.2,0,0.4-0.1,0.4-0.3C18.1,59.6,18,59.5,17.9,59.4z M80.2,36.1c-0.2-0.1-0.6-0.5-0.7,0
				C79.7,36.6,80,36.5,80.2,36.1z M13.1,70.8c0-0.3-0.1-0.4-0.3-0.2C12.7,70.8,12.9,70.9,13.1,70.8z"/>
		</g>
	</g>
</g>
</svg>
