<?xml version="1.0" encoding="utf-8"?>
<!-- Generator: Adobe Illustrator 24.1.0, SVG Export Plug-In . SVG Version: 6.00 Build 0)  -->
<svg version="1.1" id="Layer_3" xmlns="http://www.w3.org/2000/svg" xmlns:xlink="http://www.w3.org/1999/xlink" x="0px" y="0px"
	 viewBox="0 0 99.3 131.1" style="enable-background:new 0 0 99.3 131.1;" xml:space="preserve">
<g id="Layer_7">
	<path d="M56.9,36.5C63.8,26.7,64.3-8,74.7,1.7c2.3,2.2,3.7,5.3,3.8,8.5C79.6,26,64.3,37.5,63,51.5c31.4-16.4,53.8-4.9,17.8,20.8
		c-18.7,11.8,7.6,33.3,7,49.7c-0.5,18.8-22.6,4.1-25-6.5c-4.4-12.8-6.6-57.1-24.4-30.3c-26,38.4-31.8-11.2-7.6-25.6
		c1.9-1.1,2.9-3.4,2.4-5.5c-2.8-11.6-22-17.6-30.7-25.3c-0.2-0.1-0.3-0.3-0.5-0.4c-6.6-7.3,4.3-16,9.5-20.8
		c17.9-15,32.5,19.1,40.7,29c1,1.2,2.9,1.4,4.1,0.3C56.6,36.8,56.7,36.7,56.9,36.5z M19.5,89.5c0.2-1.4,0.2-1.4-1.2-1.2
		C18.2,88.9,18.5,89.3,19.5,89.5L19.5,89.5z M51,57.1c0-0.3-0.3-0.6-0.6-0.5c-0.3,0-0.5,0.2-0.5,0.5c-0.1,0.3,0.2,0.6,0.5,0.7
		s0.6-0.2,0.7-0.5C51,57.2,51,57.1,51,57.1z M42.9,55.2c-0.3,0.5-0.3,0.9,0.4,1c0.3,0,0.5-0.3,0.5-0.6c0-0.3-0.3-0.5-0.6-0.5
		C43.1,55.1,43,55.1,42.9,55.2z M34.5,61.2c0.2,0.8,0.3,1.2,1.1,1C35.9,61.4,35.7,61.1,34.5,61.2L34.5,61.2z M66.1,16
		c0.3,0,0.5-0.2,0.5-0.5c0-0.2-0.1-0.4-0.3-0.5C65.7,14.7,65.3,15.9,66.1,16z M68.7,116.4c-0.1-0.2-0.1-0.6-0.4-0.4
		C68.1,116.5,68.3,116.6,68.7,116.4L68.7,116.4z M41.4,41.1c-0.4-0.3-0.6-0.2-0.7,0.3C41.1,41.7,41.3,41.6,41.4,41.1z M10.2,20.7
		c-0.1-0.2-0.1-0.6-0.4-0.4C9.7,20.7,9.9,20.8,10.2,20.7z M24.5,20.5c0,0.4,0.5,0.5,0.5,0.1S24.6,20.1,24.5,20.5z M20.4,19.6
		c0.1-0.3-0.3-0.5-0.4-0.1C20.1,19.7,20.3,19.7,20.4,19.6z M62.4,82.5c0.2,0.2,0.3,0.4,0.4,0.1C62.7,82.4,62.6,82.2,62.4,82.5
		L62.4,82.5z M23.1,82.8c-0.2,0.1-0.2,0.3,0,0.4c0.1-0.1,0.2-0.2,0.1-0.3C23.2,82.9,23.2,82.9,23.1,82.8L23.1,82.8z M64.9,22.4
		c0.3,0,0.2,0,0.1-0.2L64.9,22.4z M5.3,19.7c0-0.2,0-0.2-0.2-0.1L5.3,19.7z"/>
</g>
</svg>
