<?xml version="1.0" encoding="utf-8"?>
<!-- Generator: Adobe Illustrator 24.1.0, SVG Export Plug-In . SVG Version: 6.00 Build 0)  -->
<svg version="1.1" id="Layer_1" xmlns="http://www.w3.org/2000/svg" xmlns:xlink="http://www.w3.org/1999/xlink" x="0px" y="0px"
	 viewBox="0 0 96.6 63.3" style="enable-background:new 0 0 96.6 63.3;" xml:space="preserve">
<path id="Layer_2_1_" d="M59.1,46.7C41.9,86.1-19,44.5,5.9,32.5c2-1,4.2,1.2,5.4,3C31.5,65.6,33.3,40,37.7,19.2
	c0.8-3.6,4.3-5.9,7.9-5.1c0.5,0.1,0.9,0.3,1.4,0.4c9.1,4.2,16.5,20.3,17.1-4.4c-0.2-2.3,2.1-4.5,4-2.3c8.9,14.3,8.3-11.1,17-7.6
	c1.4,0.6,2.6,1.7,3.2,3.2c13.1,26.3,12.8,84.2-19.1,43.6C66.8,43.8,60.8,42.9,59.1,46.7z M28.3,53.3c-0.1-0.9-1.4-0.5-0.8,0.2
	C27.7,53.8,28,53.7,28.3,53.3z M27.2,51c0.2-0.2-0.1-0.4-0.3-0.3C26.8,51,26.9,51.1,27.2,51z"/>
</svg>
