<?xml version="1.0" encoding="utf-8"?>
<!-- Generator: Adobe Illustrator 24.1.0, SVG Export Plug-In . SVG Version: 6.00 Build 0)  -->
<svg version="1.1" id="Layer_1" xmlns="http://www.w3.org/2000/svg" xmlns:xlink="http://www.w3.org/1999/xlink" x="0px" y="0px"
	 viewBox="0 0 97 128.1" style="enable-background:new 0 0 97 128.1;" xml:space="preserve">
<path id="Layer_2_1_" d="M31.1,53.5c6.2-16-9.1-35-3.4-50.6c0.5-1.4,1.7-2.3,3.1-2.6c16.5-3.2,18.4,32,30,41.5c1,0.8,2.4,1,3.5,0.5
	C73.2,37.9,53.6,9.4,68.8,6c14.3-2.6,30.4,45.8,27.9,57.2c-0.2,1-1.2,1.6-2.2,1.4c-0.6-0.1-1-0.5-1.3-1.1c-3-7.3-9.4-26.4-12.8-15.7
	c-3.9,15.9,17.4,49.3-3.9,54.6c-1.8,0.4-3.6,0-5-1.2C60.8,92.4,60.7,75.4,54,63.5c-0.9-1.6-2.9-2.1-4.5-1.2c-0.6,0.3-1,0.8-1.3,1.4
	c-8.9,17.5,0.2,52.3-11.8,62.5c-3.7,3-9.1,2.6-12.3-0.9C5.7,105.3,16.6,73.9,8.6,49.9c-23.7-71.1,7.8-36.3,20.3,3.5
	c0.2,0.6,0.9,1,1.5,0.7C30.7,54,31,53.8,31.1,53.5z M21,66.5c1.5-0.7,1.5-0.7,0.3-1.7C20.4,65.1,20.3,65.6,21,66.5z M43.1,27.1
	c0.5-1.2,0.2-1.7-1-1.7C41.6,26.4,41.8,27,43.1,27.1z M58.7,55.8c-0.8,0.4-1.5,0.6-0.8,1.5C58.8,57.4,59.1,57,58.7,55.8z M77.5,86.3
	c-0.9,0.8,0.6,1.9,1,0.9C78.6,86.3,78.2,86.1,77.5,86.3z M39.5,15.8C39,17,41.1,17,40.6,15.9C40.3,15.4,39.9,15.4,39.5,15.8
	L39.5,15.8z M31,87.2c0.3-0.7-0.7-1.3-1.1-0.6S30.6,87.8,31,87.2z M37.6,64.4c0.7,0,1-0.2,0.8-0.8C37.8,62.8,36.9,63.8,37.6,64.4
	L37.6,64.4z M13.8,36.6c0.4-0.8,0.6-1.3-0.2-1.6C12.8,35.4,12.8,35.9,13.8,36.6z M33.6,21.2c0.2,0.1,0.5-0.1,0.5-0.3
	c0.1-0.2-0.1-0.5-0.3-0.5l0,0C33.3,20.3,33.2,21,33.6,21.2z M14.9,88c0-0.2,0-0.2-0.2-0.1L14.9,88z M16.9,96.6
	c0.2,0.3,0.3,0,0.4-0.2C17.2,96.1,17,96.4,16.9,96.6L16.9,96.6z M39.7,62.5c0.2-0.1,0.5-0.2,0.3-0.4C39.6,62,39.6,62.1,39.7,62.5z
	 M19.6,61.7c0.1-0.1,0.1-0.3,0-0.4c-0.1-0.1-0.2-0.1-0.3,0c-0.1,0.1-0.1,0.3,0,0.4C19.4,61.8,19.5,61.8,19.6,61.7z M38.6,13.4
	c-0.1-0.1-0.3-0.1-0.4,0.1c-0.1,0.1-0.1,0.3,0,0.4C38.6,14,38.9,13.6,38.6,13.4L38.6,13.4z M38.4,92.6c0.1,0,0.3,0,0.3-0.2
	s0-0.3-0.2-0.3l0,0c-0.1-0.1-0.3,0-0.3,0.1C38.2,92.4,38.2,92.5,38.4,92.6C38.4,92.6,38.4,92.6,38.4,92.6L38.4,92.6z M81,81.1
	c-0.1,0.1-0.1,0.2,0.1,0.2L81,81.1z"/>
</svg>
