<?xml version="1.0" encoding="utf-8"?>
<!-- Generator: Adobe Illustrator 24.1.0, SVG Export Plug-In . SVG Version: 6.00 Build 0)  -->
<svg version="1.1" id="Layer_2" xmlns="http://www.w3.org/2000/svg" xmlns:xlink="http://www.w3.org/1999/xlink" x="0px" y="0px"
	 viewBox="0 0 100 107.9" style="enable-background:new 0 0 100 107.9;" xml:space="preserve">
<path id="Layer_2_1_" d="M25.3,81.3c59-0.4-80.5-45,0.9-80.8c0.9-0.4,2-0.6,3-0.4c19.6,3.2,19.2,79.7,35.5,44.1c0.9-1.8,3-2.7,4.9-2
	c8.2,3.1,7.2,19.3,20.1-3.6c11.8-7.8,14.3,20.1,3.1,21.9C79,60.9,74.5,68,71.1,80.1c-0.5,1.9-1.6,3.6-3.2,4.7
	c-2.7,2-6.4,2.1-9.3,0.3c-12.1-6.7-13.4,19.1-25.4,21.4C9.8,117.6-2.6,57.5,25.3,81.3z M92.3,56.3c-1,0-1.2,0.4-0.9,1.1
	C92.3,57.5,92.6,57.2,92.3,56.3L92.3,56.3z M15,85.6c0.1-0.7-1-0.7-1,0S15.1,86.3,15,85.6z M86.4,50.5c0.1,0.4,0.7,0.5,0.7,0
	c0-0.2-0.2-0.4-0.4-0.4S86.4,50.3,86.4,50.5z M8.6,14.4c-0.3,0-0.5,0.3-0.2,0.5C8.8,15.2,9,14.6,8.6,14.4z M27.5,51.3
	c-0.1-0.4-0.6-0.5-0.6-0.1c0,0.2,0.2,0.3,0.3,0.3C27.3,51.5,27.5,51.4,27.5,51.3z M6,40.5c0.2-0.2-0.4-0.3-0.3,0S5.8,40.6,6,40.5z
	 M62.2,82c0.2-0.2-0.1-0.5-0.3-0.3c-0.1,0.1-0.1,0.2,0,0.3C62,82.1,62.1,82.1,62.2,82C62.2,82,62.2,82,62.2,82z M50.5,79.9
	c0-0.1-0.1-0.2-0.2-0.2c-0.1,0-0.2,0.1-0.2,0.1c0,0.1,0.1,0.2,0.2,0.2C50.4,80.1,50.5,80,50.5,79.9L50.5,79.9z M67.6,70.5
	c0,0.1,0,0.2,0.1,0.3c0.1,0,0.2,0,0.3-0.1c0,0,0,0,0-0.1c0-0.1,0-0.2-0.1-0.3C67.7,70.3,67.6,70.3,67.6,70.5
	C67.6,70.5,67.6,70.5,67.6,70.5L67.6,70.5z M50.5,52.1c-0.2,0-0.2,0-0.1,0.1L50.5,52.1z M44.5,53.1c-0.1-0.3-0.4-0.5-0.6-0.2
	C43.7,53.4,44.3,53.5,44.5,53.1L44.5,53.1z M19.4,20.8c-0.1,0.3,0.3,0.4,0.3,0.1C19.7,20.7,19.5,20.7,19.4,20.8z M56.6,62.7
	c-0.3-0.1-0.4,0.2-0.2,0.4C56.6,62.9,56.8,62.9,56.6,62.7z M42.7,28.4c-0.3,0-0.4,0.4-0.1,0.4S43,28.5,42.7,28.4z M31.6,15.1
	c0,0.1,0,0.2,0.2,0.2c0.1,0,0.2,0,0.2-0.2c0,0,0-0.1,0-0.1C32,14.9,31.7,14.9,31.6,15.1z M9.5,41.2c0.1-0.2-0.2-0.4-0.3-0.1
	S9.4,41.3,9.5,41.2z"/>
</svg>
