<svg id="b2180949-a992-410a-8900-f00d1167d659" data-name="Layer 6" xmlns="http://www.w3.org/2000/svg" viewBox="0 0 1000 1000"><line x1="500" x2="500" y2="184" style="fill:none;stroke:#000;stroke-miterlimit:10;stroke-width:50px"/><line x1="500" y1="315.5" x2="500" y2="1000" style="fill:none;stroke:#000;stroke-miterlimit:10;stroke-width:50px"/><path d="M0,250H124.8A125.3,125.3,0,0,1,250,375.2h0A125.2,125.2,0,0,1,124.8,500.4H0" style="fill:none;stroke:#000;stroke-miterlimit:10;stroke-width:50px"/><path d="M750,0c0,138.1-111.4,250-248.7,250h-2.6C361.4,250,250,138.1,250,0h0" style="fill:none;stroke:#000;stroke-miterlimit:10;stroke-width:50px"/><line x1="730" y1="250" x2="1000" y2="250" style="fill:none;stroke:#000;stroke-miterlimit:10;stroke-width:50px"/><polyline points="1000 750 750 750 750 500 1000 500" style="fill:none;stroke:#000;stroke-miterlimit:10;stroke-width:50px"/><path d="M250,1000V750H500c138.1,0,250,111.9,250,250" style="fill:none;stroke:#000;stroke-miterlimit:10;stroke-width:50px"/><line y1="750" x2="190" y2="750.1" style="fill:none;stroke:#000;stroke-miterlimit:10;stroke-width:50px"/></svg>