<?xml version="1.0" encoding="utf-8"?>
<!-- Generator: Adobe Illustrator 25.2.3, SVG Export Plug-In . SVG Version: 6.00 Build 0)  -->
<svg version="1.1" xmlns="http://www.w3.org/2000/svg" xmlns:xlink="http://www.w3.org/1999/xlink" x="0px" y="0px"
	 viewBox="0 0 1000 1000" style="enable-background:new 0 0 1000 1000;" xml:space="preserve">
<g id="Layer_6">
	<path d="M328.4,0c-1,29.7-5.5,72.2-22.6,119.5c-52,143.3-166.7,182.8-151.3,238.6c14.3,51.8,116.5,29.4,200.9,127.4
		c28.9,33.6,51,70.5,51,70.5c40.2,67.2,41.8,105.8,58.5,106.4c22.4,0.8,52.6-67.4,56.1-135.6c3.4-68.5-22.5-90.5-4.8-118.9
		c30.4-48.8,128.2-16.2,145.4-55.3c14.7-33.7-54.6-65.1-51.7-133.4c1.8-41.3,28.1-50.6,48.1-114.1C671,63,672.5,25.6,671.6,0
		C557.2,0,442.8,0,328.4,0z"/>
</g>
<g id="Layer_5">
	<path d="M1000,328.4c-19,1.8-49,1.7-71.4-16.7c-61.7-50.7,7-180.6-41.5-217.8c-44.8-34.4-177,19.9-189.4,91.2
		c-14.5,83.3,142,144.5,122.6,213.8c-18.6,66.2-172.4,48.9-190.7,120.9c-9.9,39,23.8,90.1,63.2,111c62.6,33.1,120.8-23.8,158.8,8.4
		c39,33.1,10.1,120.9,29.2,125.3c14,3.3,27.2-44.8,80-76.1c15.7-9.3,30-14.2,39.1-16.8C1000,557.2,1000,442.8,1000,328.4z"/>
</g>
<g id="Layer_4">
	<path d="M0,328.4c55.6-13.1,66.2-67.6,75.2-86c11.3-23.3,20.5-47.4,29.4-71.7c15.5-42.5,40.4-86,62.2-83.9
		c8.3,0.8,13.8,8.1,16.3,11.3c26.6,34.9-4.5,108.5-28.7,152.7c-18.8,34.4-48.4,69.8-55,109.4c-2.2,13.4-0.8,20.9,2.8,30.2
		c19.6,49.8,103.7,26.5,179.9,86.1c30,23.5,60.1,60.9,51,79.4c-9.7,19.7-54.1-0.3-106.4,24c-43.3,20.1-65.4,58.1-75.9,76.1
		c-45.5,78.1-32.4,161.7-42.5,162.2c-12.3,0.6-10.8-122.1-69-145.3C24.2,667,9.4,669.2,0,671.6C0,557.2,0,442.8,0,328.4z"/>
</g>
<g id="Layer_3">
	<path d="M328.4,1000c-1.7-24.9-8.2-61.9-34.7-91c-37.4-41.1-79.8-28.3-106.3-65.3c-26.6-37.1-19.8-99.9,12-142.4
		c33.2-44.4,94.6-67.7,139.4-51c80.9,30.1,76.2,178.5,118.4,178.7c24.4,0.1,47.4-49.3,74.6-110.2c30.4-68,34.4-101.6,51.5-103.1
		c23.1-1.9,24.8,58.1,74.6,88.8c58.3,36,121.5-5.9,138.6,21.3c17.2,27.4-27.6,100.7-72.8,143.9c-23.2,22.2-46.1,36-55.1,67.5
		c-6.9,24.2-2.2,47,2.9,62.6C557.2,1000,442.8,1000,328.4,1000z"/>
</g>
</svg>
