<?xml version="1.0" encoding="utf-8"?>
<!-- Generator: Adobe Illustrator 25.2.3, SVG Export Plug-In . SVG Version: 6.00 Build 0)  -->
<svg version="1.1" xmlns="http://www.w3.org/2000/svg" xmlns:xlink="http://www.w3.org/1999/xlink" x="0px" y="0px"
	 viewBox="0 0 1000 1000" style="enable-background:new 0 0 1000 1000;" xml:space="preserve">
<g id="Layer_13">
	<path d="M745.9,754.2C625.8,633.9,436.3,618.1,298,717V453.1l79.3-134.9h-77.8l-44.7,77.4l-45.6-77.4h-57.3L227.7,454v329.8
		c-49,61.4-75.6,137.7-75.4,216.3h170c0-98,79.7-177.7,177.7-177.7s177.7,79.7,177.7,177.7h170C847.9,907.8,811.2,819.3,745.9,754.2
		z"/>
</g>
<g id="Layer_12">
	<path d="M500,877.4c-67.7,0.1-122.6,55-122.7,122.7h55c0-37.4,30.4-67.7,67.7-67.7c37.4,0,67.6,30.3,67.7,67.7h55
		C622.6,932.4,567.7,877.5,500,877.4z"/>
</g>
<g id="Layer_11">
	<path d="M0.1,377.7v55c37.4,0.1,67.6,30.3,67.7,67.7c-0.1,37.4-30.3,67.6-67.7,67.7v55c67.7-0.1,122.6-55,122.7-122.7
		C122.7,432.7,67.8,377.8,0.1,377.7z"/>
</g>
<g id="Layer_10">
	<path d="M85.1,236.9L85.1,236.9c0-46.9-38.1-85-85-85v170C47,321.8,85,283.8,85.1,236.9z"/>
</g>
<g id="Layer_9">
	<path d="M0.1,678.1v170c46.9,0,85-38.1,85-85l0,0C85,716.2,47,678.2,0.1,678.1z"/>
</g>
<g id="Layer_8">
	<polygon points="209.4,170 252.9,171.1 252.9,123.1 209.4,122 209.4,47.2 322.3,47.1 322.3,0 151.9,0.1 151.9,286.2 209.4,286.2 	
		"/>
</g>
<g id="Layer_7">
	<path d="M322.3,64.4h-54.9v144.5c0,54.7,35.8,77.3,85,77.3s79.9-21.7,79.9-78V0.1h-55v209.8c0,20-9.5,27.5-24.4,27.5
		s-30.6-8.7-30.6-29.2V64.4z"/>
</g>
<g id="Layer_6">
	<path d="M527.4,286.2h95.4v-6.4h0.1v-73.2l21.3-40l96.4,155.7H1000v-170h-42.4v120.9H775.7l-92.1-147.7l36.5-78.1l14.2-0.2h113.8
		V0.1h-170l-55.2,115.5l0.6-115.5h-55.2l-0.4,230h-42.1c-20.1,0-28.1-14.6-28.1-29.5c0-0.4,0-64.9,0.1-65.4c0.5-14.3,9.3-28,29.2-28
		h26.1V51.1h-26.8c-53.6,0-76.5,34.4-77.3,82.1c0,1-0.1,66-0.1,67C448.9,249.4,471.1,286.2,527.4,286.2z"/>
</g>
<g id="Layer_5">
	<polygon points="739.3,77.2 717.7,123.5 792.4,243.2 921,243.2 921,152.3 848.1,77.2 	"/>
</g>
<g id="Layer_4">
	<path d="M551.6,343.8v180c0,69.7,26.9,98.5,126,98.5c13.6,0,25.9-0.4,36.9-1.4c20-33.5,51-59.1,87.7-72.5
		c0.9-8.7,1.4-17.4,1.3-26.1v-90.4h196.6v-54.6H732V537c0,25.6-7.5,23.1-54.4,23.1c-53.7,0-54.5-11.1-54.5-37.2V343.8H551.6z"/>
</g>
<g id="Layer_3">
	<path d="M357.2,403.7v136.1c0.1,47.4,38.5,85.8,85.9,85.8h3.7c47.4,0,85.8-38.4,85.9-85.8V403.7c-0.1-47.4-38.5-85.8-85.9-85.9
		h-3.7C395.7,317.9,357.3,356.3,357.2,403.7z M417.2,403.7c0-14.3,11.6-25.9,25.9-25.9h3.7c14.3,0,25.9,11.6,25.9,25.9v136.1
		c-0.1,14.3-11.6,25.8-25.9,25.8h-3.7c-14.3,0-25.8-11.5-25.9-25.8V403.7z"/>
</g>
<g id="Layer_2">
	<path d="M860.5,568.1c-71.8,0-132,54.3-139.3,125.7c16.3,11.9,31.6,25,45.9,39.2c33,32.9,59.6,71.7,78.4,114.3c5,0.6,10,0.8,15,0.8
		h140v-280H860.5z M1000.1,678.3h-27.6c-15.2,0-27.6-12.4-27.6-27.6c0-15.2,12.4-27.6,27.6-27.6l0,0h27.6V678.3z"/>
</g>
</svg>
