<?xml version="1.0" encoding="utf-8"?>
<!-- Generator: Adobe Illustrator 25.2.3, SVG Export Plug-In . SVG Version: 6.00 Build 0)  -->
<svg version="1.1" xmlns="http://www.w3.org/2000/svg" xmlns:xlink="http://www.w3.org/1999/xlink" x="0px" y="0px"
	 viewBox="0 0 100 100" style="enable-background:new 0 0 100 100;" xml:space="preserve">
<style type="text/css">
	.st0{display:none;}
	.st1{display:inline;fill:none;stroke:#000000;stroke-miterlimit:10;}
	.st2{fill:none;stroke:#000000;stroke-miterlimit:10;}
</style>
<g id="Layer_1" class="st0">
	<line class="st1" x1="40" y1="100" x2="40" y2="91.4"/>
	<line class="st1" x1="40" y1="8.6" x2="40" y2="0"/>
	<line class="st1" x1="60" y1="8.6" x2="60" y2="0"/>
	<line class="st1" x1="60" y1="100" x2="60" y2="91.4"/>
	<line class="st1" x1="8.6" y1="40" x2="0" y2="40"/>
	<line class="st1" x1="100" y1="40" x2="91.4" y2="40"/>
	<line class="st1" x1="8.6" y1="60" x2="0" y2="60"/>
	<line class="st1" x1="100" y1="60" x2="91.4" y2="60"/>
</g>
<g id="Layer_2">
	<polyline class="st2" points="0,40 20,40 20,60 0,60 	"/>
	<polyline class="st2" points="60,0 60,40 100,40 	"/>
	<polyline class="st2" points="100,60 40,60 40,0 	"/>
	<polyline class="st2" points="40,99.5 40,73.1 90.5,73.1 90.5,89.1 60,89.1 60,99.5 	"/>
</g>
</svg>
