<?xml version="1.0" encoding="utf-8"?>
<!-- Generator: Adobe Illustrator 25.3.1, SVG Export Plug-In . SVG Version: 6.00 Build 0)  -->
<svg version="1.1" id="Layer_3" xmlns="http://www.w3.org/2000/svg" xmlns:xlink="http://www.w3.org/1999/xlink" x="0px" y="0px"
	 viewBox="0 0 100 100" style="enable-background:new 0 0 100 100;" xml:space="preserve">
<style type="text/css">
	.st0{fill:none;stroke:#000000;stroke-miterlimit:10;}
</style>
<path class="st0" d="M0,75c14.7,0,17.3-3.6,18.8-1.8C21,75.8,6,83.9,8.2,86.2c2.2,2.3,9.9-4.3,14.3-1.8C26.1,86.5,25,89,25,100"/>
<path class="st0" d="M0,25.1c15.2,0,27.8-3.2,25.6,2.5C22.8,31,14.4,32,15.5,36c2.9,10.8,32.4-19.2,28.1,17.8
	c-0.9,7.9,0.7,22,8.5,17.3c5.2-3.2,6.3-29.7-6-43.9c-6-7-21-3.4-21-27.2"/>
<path class="st0" d="M75,100c0-33.7-23.3,4.2-28.1-12.2c-2.7-9.4,13.3-6.5,18.1-19.9c4.8-13.5-10.4-32.9-6.3-44.6
	C63.8,8.1,74.7,20.8,74.7,0"/>
<path class="st0" d="M100,25c-18,0-31.8-3.5-23,6.2c1.2,1.4,4.8,3.4,4.2,7.6c-0.7,5.1-10.6,5.3-8.8,11.3c1,3.2,12.2,7.7,9.9,11
	C69.6,79.6,82.8,74.7,100,75"/>
<path class="st0" d="M20.1,43.9c-16.1,0-20,10.4-6.3,12.5c2.7,0.3,7.8,0.1,7.9,3.7c-0.9,3-16.3,2.8-14.8,7
	c2.1,2.4,14.7-0.3,17.5-0.3c10.1-1.4,3.9,22.7,15.1,20.7C47.3,86.1,36.9,43.9,20.1,43.9z"/>
</svg>
