<?xml version="1.0" encoding="utf-8"?>
<!-- Generator: Adobe Illustrator 25.3.1, SVG Export Plug-In . SVG Version: 6.00 Build 0)  -->
<svg version="1.1" id="Layer_3" xmlns="http://www.w3.org/2000/svg" xmlns:xlink="http://www.w3.org/1999/xlink" x="0px" y="0px"
	 viewBox="0 0 100 100" style="enable-background:new 0 0 100 100;" xml:space="preserve">
<rect y="20" width="15" height="15"/>
<rect y="65" width="15" height="15"/>
<polygon points="50,20 50,80 35,80 35,100 20,100 20,65 35,65 35,35 20,35 20,0 35,0 35,20 "/>
<polygon points="100,20 100,35 65,35 65,0 80,0 80,20 "/>
<polygon points="100,65 100,80 80,80 80,100 65,100 65,65 "/>
<rect x="55" y="40" width="40" height="20"/>
</svg>
