<?xml version="1.0" encoding="utf-8"?>
<!-- Generator: Adobe Illustrator 25.3.1, SVG Export Plug-In . SVG Version: 6.00 Build 0)  -->
<svg version="1.1" id="Layer_4" xmlns="http://www.w3.org/2000/svg" xmlns:xlink="http://www.w3.org/1999/xlink" x="0px" y="0px"
	 viewBox="0 0 100 100" style="enable-background:new 0 0 100 100;" xml:space="preserve">
<style type="text/css">
	.st0{fill:none;stroke:#000000;stroke-miterlimit:10;}
</style>
<polyline class="st0" points="20,0 13.2,39.7 0,50 "/>
<polyline class="st0" points="0,20 11.1,12.5 8.7,28.1 0,33.5 "/>
<polyline class="st0" points="0,66.5 20,50 33.5,0 "/>
<polyline class="st0" points="50,0 33.5,46.4 71.4,46.4 85.8,64.9 100,50 "/>
<polyline class="st0" points="66.5,0 53.1,33.7 66.5,33.5 80,0 "/>
<polyline class="st0" points="100,20 88.9,10.4 77.9,36.6 85.8,48.2 100,33.5 "/>
<polyline class="st0" points="100,66.5 85.8,81.4 65.6,54.7 41.5,54.7 33.5,100 "/>
<polyline class="st0" points="0,80 29.6,54.7 20,100 "/>
<polyline class="st0" points="50,100 50,62.9 62.3,62.9 79.7,87.6 66.5,100 "/>
<line class="st0" x1="80" y1="100" x2="100" y2="80"/>
</svg>
