<?xml version="1.0" encoding="utf-8"?>
<!-- Generator: Adobe Illustrator 25.4.1, SVG Export Plug-In . SVG Version: 6.00 Build 0)  -->
<svg version="1.1" id="Layer_4" xmlns="http://www.w3.org/2000/svg" xmlns:xlink="http://www.w3.org/1999/xlink" x="0px" y="0px"
	 viewBox="0 0 100 100" style="enable-background:new 0 0 100 100;" xml:space="preserve">
<style type="text/css">
	.st0{fill:none;stroke:#000000;stroke-miterlimit:10;}
</style>
<path class="st0" d="M15,0c0,5.1,0.5,10.1,1.3,15"/>
<path class="st0" d="M22.5,35c2.4,5.3,5.3,10.3,8.8,15"/>
<path class="st0" d="M85,83.7c4.9,0.9,9.9,1.3,15,1.3"/>
<path class="st0" d="M45.2,65c2.5,2.1,5.1,4.1,7.9,5.9c3.8,2.5,7.8,4.7,11.9,6.6"/>
<path class="st0" d="M35,0c0,6,0.8,11.7,2.3,17.2"/>
<path class="st0" d="M58.5,50c0.5,0.4,1,0.8,1.5,1.2"/>
<path class="st0" d="M60,51.2c1.6,1.3,3.3,2.5,5,3.6"/>
<path class="st0" d="M100,65c-5.2,0-10.2-0.6-15-1.8"/>
<path class="st0" d="M58.5,50c0.5-0.4,1-0.8,1.5-1.2"/>
<path class="st0" d="M100,35c-5.2,0-10.2,0.6-15,1.8c-7.2,1.7-14,4.6-20,8.5c-1.7,1.1-3.4,2.3-5,3.6L58.5,50
	c-5.1,4.3-9.6,9.3-13.2,15c-3.5,5.4-6.2,11.4-7.9,17.8C35.8,88.3,35,94,35,100"/>
<line class="st0" x1="65" y1="22.5" x2="65" y2="0"/>
<line class="st0" x1="65" y1="77.5" x2="65" y2="54.8"/>
<line class="st0" x1="65" y1="77.5" x2="65" y2="100"/>
<line class="st0" x1="65" y1="45.2" x2="65" y2="48.5"/>
<line class="st0" x1="65" y1="54.8" x2="65" y2="48.5"/>
<line class="st0" x1="85" y1="36.8" x2="85" y2="54.7"/>
<line class="st0" x1="85" y1="63.2" x2="85" y2="83.7"/>
<line class="st0" x1="85" y1="83.7" x2="85" y2="100"/>
<line class="st0" x1="85" y1="54.7" x2="85" y2="63.2"/>
<line class="st0" x1="85" y1="16.3" x2="85" y2="0"/>
<path class="st0" d="M100,15c-5.1,0-10.1,0.5-15,1.3c-7,1.2-13.7,3.3-20,6.2c-4.2,1.9-8.1,4.1-11.9,6.6c-2.7,1.8-5.4,3.8-7.9,5.9
	c-2.6,2.2-5,4.5-7.3,7c-2.4,2.5-4.6,5.2-6.6,8c-3.4,4.7-6.3,9.7-8.8,15c-2.9,6.3-5,13-6.2,20c-0.9,4.9-1.3,9.9-1.3,15"/>
<path class="st0" d="M60,51.2c0-0.4,0-0.8,0-1.2c0-0.4,0-0.8,0-1.2"/>
<path class="st0" d="M0,15h16.3H25c4.3,0,8.5,0.8,12.3,2.2c6.3,2.4,11.8,6.5,15.8,11.9"/>
<path class="st0" d="M37.3,82.8c4.7-1.8,8.9-4.5,12.4-8c1.2-1.2,2.3-2.5,3.3-3.9"/>
<line class="st0" x1="0" y1="85" x2="16.3" y2="85"/>
<line class="st0" x1="22.5" y1="65" x2="0" y2="65"/>
<path class="st0" d="M0,35h22.5h2.7c5.3,0,10,2.8,12.7,7"/>
</svg>
