<svg id="e7a690f9-adb6-4cc7-b7e5-f0c9210beeea" data-name="Layer 7" xmlns="http://www.w3.org/2000/svg" viewBox="0 0 1000 1000"><polygon points="777.5 222 777.5 0 728 0 728 97 626 97 626 0 375 0 375 195 273 195 273 0 222.5 0 222.5 247 483 247 483 555 626 555 626 272 1000 272 1000 222 777.5 222"/><rect x="375" y="897" width="250" height="103"/><polygon points="909 507 728 507 728 732 222 732 222 1000 272 1000 272 777 454 777 454 856 727 856 727 1000 777 1000 777 777.5 1000 777.5 1000 728 810 728 810 625 1000 625 1000 374.5 909 374.5 909 507"/><polygon points="167 615 223 615 223 678 413 678 413 395 339 395 339 572 263 572 263 395 167 395 167 222 0 222 0 272 83 272 83 375 0 375 0 625 83 625 83 728 0 728 0 777 167 777 167 615"/><rect x="812" y="812" width="108" height="108"/><rect x="80" y="80" width="108" height="108"/></svg>