<?xml version="1.0" encoding="utf-8"?>
<!-- Generator: Adobe Illustrator 24.1.3, SVG Export Plug-In . SVG Version: 6.00 Build 0)  -->
<svg version="1.1" id="Layer_1" xmlns:serif="http://www.serif.com/"
	 xmlns="http://www.w3.org/2000/svg" xmlns:xlink="http://www.w3.org/1999/xlink" x="0px" y="0px" viewBox="0 0 1080 1080"
	 style="enable-background:new 0 0 1080 1080;" xml:space="preserve">
<path d="M679.7,18.4c-91.6-24.5-187.9-24.5-279.5,0l105.9,263.7c22.5-3,45.3-3,68,0L679.7,18.4z M400.2,18.4
	c-91.6,24.5-175,72.8-242.1,139.8l223.5,175.4c18.1-13.8,37.8-25.2,58.8-33.9L400.2,18.4z M158.1,158.2
	c-67,67-115.3,150.5-139.7,242.1l281.2,40.2c8.7-21,20.1-40.8,33.9-58.8L158.1,158.2z M18.4,400.3c-24.5,91.6-24.5,187.9,0,279.5
	L282,574c-3-22.5-3-45.3,0-68L18.4,400.3z M18.4,679.8c24.5,91.6,72.8,175,139.7,242.1l175.4-223.5c-13.8-18-25.2-37.8-33.9-58.8
	L18.4,679.8z M158.1,921.8c67.1,67.1,150.5,115.3,242.1,139.7l40.2-281.2c-21-8.7-40.8-20.1-58.8-33.9L158.1,921.8z M400.2,1061.6
	c91.6,24.5,187.9,24.5,279.5,0L573.9,798c-22.5,3-45.4,3-68,0L400.2,1061.6z M679.7,1061.6c91.6-24.5,175-72.7,242.1-139.7
	L698.3,746.5c-18.1,13.8-37.8,25.2-58.8,33.9L679.7,1061.6z M921.8,921.8c67.1-67,115.3-150.5,139.7-242.1l-281.2-40.2
	c-8.7,21-20.1,40.8-33.9,58.8L921.8,921.8z M1061.6,679.8c24.5-91.6,24.5-187.9,0-279.5L797.9,506.1c3,22.5,3,45.3,0,68
	L1061.6,679.8z M1061.6,400.3c-24.5-91.6-72.8-175-139.7-242.1L746.4,381.7c13.8,18,25.2,37.8,33.9,58.8L1061.6,400.3z M921.8,158.2
	C854.7,91.1,771.3,42.9,679.7,18.4l-40.2,281.2c21,8.7,40.8,20.1,58.8,33.9L921.8,158.2z"/>
</svg>
