<?xml version="1.0" encoding="utf-8"?>
<!-- Generator: Adobe Illustrator 24.1.3, SVG Export Plug-In . SVG Version: 6.00 Build 0)  -->
<svg version="1.1" id="Layer_1" xmlns:serif="http://www.serif.com/"
	 xmlns="http://www.w3.org/2000/svg" xmlns:xlink="http://www.w3.org/1999/xlink" x="0px" y="0px" viewBox="0 0 1079.3 1078.8"
	 style="enable-background:new 0 0 1079.3 1078.8;" xml:space="preserve">
<path d="M651.4,11.7c-73.7-15.6-149.8-15.6-223.5,0c31,86.7,68.3,170.7,111.8,251.9c-48.5,0-96.1,12.7-138,37
	c-2.9-92.1-12.7-183.5-29.2-274.1C300.9,49.8,234.9,87.9,179,138.3c70.2,59.6,144.5,113.7,222.7,162.3c-41.9,24.2-76.8,59-101,101
	C252.1,323.3,198,249,138.3,178.8C88,234.8,49.9,300.7,26.6,372.3c90.6,16.5,182,26.3,274.1,29.2c-24.2,41.9-37,89.5-37,137.9
	c-81.2-43.5-165.2-80.7-252-111.8c-15.6,73.7-15.6,149.8,0,223.5c86.7-31,170.7-68.2,252-111.7c0,48.4,12.7,96,37,137.9
	c-92.1,3-183.4,12.7-274.1,29.2C49.9,778.1,88,844,138.3,900c59.6-70.3,113.8-144.5,162.4-222.8c24.2,41.9,59,76.8,101,101
	C323.4,826.8,249.2,880.9,179,940.5c56,50.4,121.9,88.4,193.5,111.8c16.5-90.7,26.3-182,29.2-274.1c41.9,24.2,89.5,37,138,37
	c-43.5,81.2-80.7,165.2-111.8,251.9c73.7,15.6,149.8,15.6,223.5,0c-31-86.7-68.3-170.7-111.7-251.9c48.4,0,96-12.8,137.9-37
	c2.9,92.1,12.7,183.4,29.2,274.1c71.6-23.4,137.6-61.4,193.5-111.8c-70.2-59.6-144.5-113.7-222.7-162.3c41.9-24.2,76.8-59.1,101-101
	C827.2,755.5,881.3,829.7,941,900c50.3-56,88.4-122,111.7-193.5c-90.6-16.5-182-26.3-274.1-29.2c24.2-41.9,37-89.5,37-137.9
	c81.2,43.5,165.2,80.7,252,111.7c15.6-73.7,15.6-149.8,0-223.5c-86.7,31-170.7,68.3-252,111.8c0-48.5-12.7-96-37-137.9
	c92.1-3,183.4-12.7,274.1-29.2c-23.3-71.6-61.4-137.5-111.7-193.5C881.4,249,827.2,323.3,778.6,401.6c-24.2-42-59-76.8-101-101
	c78.3-48.6,152.5-102.7,222.7-162.3c-56-50.4-121.9-88.4-193.5-111.8c-16.5,90.6-26.3,182-29.2,274.1c-41.9-24.2-89.5-37-137.9-37
	C583.2,182.4,620.4,98.4,651.4,11.7z M539.7,361.7c98.1,0,177.8,79.7,177.8,177.9s-79.7,177.9-177.8,177.9
	c-98.2,0-177.9-79.7-177.9-177.9C361.8,441.4,441.5,361.7,539.7,361.7z"/>
</svg>
