<?xml version="1.0" encoding="utf-8"?>
<!-- Generator: Adobe Illustrator 24.1.3, SVG Export Plug-In . SVG Version: 6.00 Build 0)  -->
<svg version="1.1" id="Layer_1" xmlns:serif="http://www.serif.com/"
	 xmlns="http://www.w3.org/2000/svg" xmlns:xlink="http://www.w3.org/1999/xlink" x="0px" y="0px" viewBox="0 0 1079.4 1079"
	 style="enable-background:new 0 0 1079.4 1079;" xml:space="preserve">
<path d="M643.4,10.1C575-3.4,504.6-3.4,436.1,10.1c27.7,141.3,52.9,283.1,75.7,425.3c-51.3-134.6-100.4-270-147.1-406.2
	c-66,22.6-127,57.8-179.5,103.6c94.6,108.6,187.3,218.7,278.2,330.4C351.7,372.3,241.5,279.6,132.8,185
	C87,237.6,51.8,298.5,29.2,364.5c136.2,46.7,271.6,95.7,406.1,147.1c-142.2-22.8-283.9-48-425.3-75.7c-13.4,68.4-13.4,138.8,0,207.3
	c141.3-27.6,283.1-52.9,425.3-75.7C300.7,618.8,165.5,667.9,29.2,714.6c22.6,66,57.8,126.9,103.6,179.5
	c108.6-94.6,218.7-187.3,330.5-278.2c-90.9,111.7-183.6,221.9-278.2,330.4c52.6,45.8,113.5,81,179.5,103.6
	c46.7-136.2,95.7-271.6,147.1-406.2c-22.8,142.2-48,284-75.7,425.3c68.4,13.4,138.8,13.4,207.3,0c-27.6-141.3-52.9-283.1-75.7-425.3
	c51.3,134.6,100.4,270,147.1,406.2c65.9-22.6,126.9-57.8,179.5-103.6c-94.6-108.6-187.4-218.7-278.2-330.4
	C727.8,706.7,838,799.5,946.5,894.1c45.8-52.6,81.1-113.5,103.7-179.5C914,667.9,778.6,618.9,644.1,567.5
	c142.2,22.8,283.9,48,425.3,75.7c13.4-68.4,13.4-138.8,0-207.3c-141.3,27.6-283.1,52.9-425.3,75.7
	c134.6-51.3,269.9-100.4,406.1-147.1c-22.6-66-57.8-126.9-103.7-179.5C838,279.6,727.8,372.3,616.1,463.1
	c90.8-111.7,183.6-221.9,278.2-330.4c-52.6-45.8-113.6-81-179.5-103.6c-46.7,136.2-95.7,271.6-147.1,406.2
	C590.5,293.1,615.8,151.4,643.4,10.1z"/>
</svg>
