<?xml version="1.0" encoding="utf-8"?>
<!-- Generator: Adobe Illustrator 24.1.3, SVG Export Plug-In . SVG Version: 6.00 Build 0)  -->
<svg version="1.1" id="Layer_1" xmlns:serif="http://www.serif.com/"
	 xmlns="http://www.w3.org/2000/svg" xmlns:xlink="http://www.w3.org/1999/xlink" x="0px" y="0px" viewBox="0 0 1079.2 1079"
	 style="enable-background:new 0 0 1079.2 1079;" xml:space="preserve">
<path d="M610.1,4.6c-46.8-6.2-94.1-6.2-140.9,0l70.5,189.8c-60.6,0-120.1,15.9-172.6,46.2L333.1,41c-43.5,18-84.5,41.7-122,70.4
	L367,240.5c-52.5,30.3-96.1,73.9-126.4,126.3L111.5,210.9C82.8,248.3,59.1,289.3,41,333l199.6,33.9c-30.2,52.5-46.2,112-46.2,172.6
	L4.6,469.1c-6.1,46.7-6.1,94.1,0,140.9l189.8-70.4c0,60.6,16,120.1,46.2,172.6L41,746.1c18.1,43.6,41.7,84.6,70.5,122l129.1-155.9
	c30.3,52.5,73.9,96,126.4,126.3L211.1,967.6c37.4,28.7,78.5,52.4,122,70.4l34-199.6c52.4,30.3,112,46.2,172.6,46.2l-70.5,189.8
	c46.8,6.2,94.1,6.2,140.9,0l-70.4-189.8c60.6,0,120.1-15.9,172.6-46.2l33.9,199.6c43.6-18,84.6-41.7,122-70.4L712.3,838.5
	c52.5-30.3,96-73.9,126.3-126.3L967.8,868c28.7-37.4,52.4-78.4,70.5-122l-199.6-33.9c30.3-52.5,46.2-112,46.2-172.6l189.8,70.4
	c6.1-46.7,6.1-94.1,0-140.9l-189.8,70.4c0-60.6-15.9-120.1-46.2-172.6l199.6-33.9c-18.1-43.6-41.8-84.6-70.5-122L838.6,366.8
	c-30.3-52.5-73.8-96-126.3-126.3l155.9-129.1C830.8,82.7,789.8,59,746.2,41l-33.9,199.6c-52.5-30.3-112-46.2-172.6-46.2L610.1,4.6z
	 M539.7,262.9c152.7,0,276.8,124,276.8,276.7s-124,276.7-276.8,276.7c-152.7,0-276.8-124-276.8-276.7S387,262.9,539.7,262.9z"/>
</svg>
