<?xml version="1.0" encoding="utf-8"?>
<!-- Generator: Adobe Illustrator 24.1.3, SVG Export Plug-In . SVG Version: 6.00 Build 0)  -->
<svg version="1.1" id="Layer_1" xmlns:serif="http://www.serif.com/"
	 xmlns="http://www.w3.org/2000/svg" xmlns:xlink="http://www.w3.org/1999/xlink" x="0px" y="0px" viewBox="0 0 1079.1 1079.2"
	 style="enable-background:new 0 0 1079.1 1079.2;" xml:space="preserve">
<path d="M630,7.6c-59.8-10.2-121-10.2-180.9,0L507.3,349c21.5-3.7,43.4-3.7,64.9,0L630,7.6z M352,33.6
	c-56.9,21.1-109.9,51.7-156.7,90.5l221,266.6c16.7-13.8,35.7-24.8,56.1-32.4L352,33.6z M124.1,195.4C85.3,242,54.8,295,33.8,352
	l324.6,120.4c7.6-20.4,18.5-39.4,32.4-56.1L124.1,195.4z M7.6,449.1C-2.5,509-2.5,570.1,7.6,630L349,572c-3.6-21.5-3.6-43.3,0-64.8
	L7.6,449.1z M33.8,727.1c21.1,57,51.6,109.9,90.4,156.7l266.6-220.9c-13.9-16.8-24.9-35.8-32.4-56.1L33.8,727.1z M195.3,955
	c46.7,38.8,99.8,69.4,156.7,90.5l120.4-324.6c-20.4-7.6-39.4-18.5-56.1-32.4L195.3,955z M449.1,1071.6c59.9,10.2,121.1,10.2,180.9,0
	l-58-341.4c-21.5,3.7-43.4,3.7-64.9,0L449.1,1071.6z M727.3,1045.4c56.9-21.1,109.8-51.7,156.7-90.5L663,688.4
	c-16.8,13.9-35.7,24.8-56.1,32.4L727.3,1045.4z M955,883.8c38.8-46.7,69.3-99.7,90.4-156.7L720.8,606.7
	c-7.6,20.4-18.5,39.4-32.4,56.1L955,883.8z M1071.4,630c10.2-59.9,10.2-121,0-180.9l-341.3,58.1c3.6,21.5,3.6,43.3,0,64.8
	L1071.4,630z M1045.4,352c-21.1-57-51.7-109.9-90.4-156.7L688.5,416.2c13.9,16.8,24.9,35.8,32.4,56.1L1045.4,352z M884,124.1
	c-46.8-38.8-99.8-69.4-156.7-90.5L606.8,358.3c20.4,7.6,39.4,18.5,56.1,32.4L884,124.1z"/>
</svg>
