<?xml version="1.0" encoding="utf-8"?>
<!-- Generator: Adobe Illustrator 24.1.3, SVG Export Plug-In . SVG Version: 6.00 Build 0)  -->
<svg version="1.1" id="Layer_1" xmlns:serif="http://www.serif.com/"
	 xmlns="http://www.w3.org/2000/svg" xmlns:xlink="http://www.w3.org/1999/xlink" x="0px" y="0px" viewBox="0 0 1079.2 1079.1"
	 style="enable-background:new 0 0 1079.2 1079.1;" xml:space="preserve">
<path d="M679.2,18.4c-91.4-24.5-187.8-24.5-279.3,0l139.7,320.8c-35.2,0-69.7,9.3-100.2,26.8L399.9,18.4
	C308.5,42.9,225,91,158.1,158l281.3,208c-30.5,17.6-55.7,42.9-73.3,73.3L158.1,158c-67,67-115.2,150.5-139.7,241.9l347.7,39.5
	c-17.6,30.5-26.8,65-26.8,100.2L18.4,399.9c-24.5,91.5-24.5,187.8,0,279.3l320.9-139.6c0,35.2,9.2,69.7,26.8,100.2L18.4,679.3
	c24.5,91.5,72.7,174.9,139.7,241.9l208-281.3c17.6,30.5,42.9,55.7,73.3,73.3l-281.3,208c66.9,67,150.4,115.2,241.8,139.6l39.5-347.6
	c30.5,17.6,65,26.8,100.2,26.8l-139.7,320.8c91.5,24.5,187.9,24.5,279.3,0L539.6,740c35.2,0,69.7-9.3,100.2-26.8l39.5,347.6
	c91.5-24.5,174.9-72.6,241.9-139.6l-281.3-208c30.5-17.6,55.7-42.9,73.3-73.3l208,281.3c67-67,115.2-150.4,139.7-241.9l-347.7-39.5
	c17.6-30.5,26.8-65,26.8-100.2l320.9,139.6c24.5-91.5,24.5-187.8,0-279.3L740,539.6c0-35.2-9.3-69.8-26.8-100.2l347.7-39.5
	C1036.4,308.5,988.2,225,921.2,158l-208,281.3c-17.6-30.5-42.9-55.7-73.3-73.3l281.3-208C854.1,91,770.7,42.9,679.2,18.4L639.7,366
	c-30.5-17.6-65-26.8-100.2-26.8L679.2,18.4z"/>
</svg>
