<?xml version="1.0" encoding="utf-8"?>
<!-- Generator: Adobe Illustrator 24.1.3, SVG Export Plug-In . SVG Version: 6.00 Build 0)  -->
<svg version="1.1" id="Layer_1" xmlns:serif="http://www.serif.com/"
	 xmlns="http://www.w3.org/2000/svg" xmlns:xlink="http://www.w3.org/1999/xlink" x="0px" y="0px" viewBox="0 0 1080 1080"
	 style="enable-background:new 0 0 1080 1080;" xml:space="preserve">
<path d="M1077.5,592.2c3.3-34.8,3.3-69.8,0-104.5L815.9,494c-3-17.9-7.7-35.4-14-52.3l229.8-125.3c-14.4-31.8-31.9-62-52.2-90.5
	L756,362.1c-11.4-14-24.3-26.7-38.2-38.2L854,100.5c-28.3-20.2-58.6-37.7-90.5-52.2L638.3,278.2c-16.9-6.3-34.4-11-52.2-14
	l6.3-261.7c-34.7-3.3-69.7-3.3-104.5,0l6.3,261.7c-17.8,2.9-35.3,7.6-52.2,14L316.6,48.4c-31.8,14.4-62,32-90.5,52.2L362.5,324
	c-14,11.5-26.8,24.3-38.2,38.2L100.8,226c-20.3,28.3-37.7,58.6-52.2,90.5l229.7,125.3c-6.3,16.9-11,34.4-14,52.3L2.6,487.8
	c-3.4,34.7-3.4,69.6,0,104.5l261.6-6.3c3,17.9,7.6,35.3,14,52.2L48.5,763.5c14.4,31.8,31.9,62,52.2,90.5l223.4-136.2
	c11.4,13.9,24.3,26.7,38.2,38.2L226.1,979.4c28.4,20.2,58.7,37.7,90.5,52.1l125.3-229.7c16.9,6.3,34.4,11,52.2,14l-6.3,261.6
	c34.8,3.4,69.8,3.4,104.5,0l-6.3-261.6c17.8-2.9,35.3-7.6,52.2-14l125.3,229.7c31.8-14.4,62-31.9,90.5-52.1L717.7,756
	c14-11.5,26.8-24.3,38.2-38.2L979.3,854c20.3-28.4,37.7-58.7,52.2-90.5L801.8,638.2c6.3-16.9,11-34.3,14-52.2L1077.5,592.2z
	 M761.6,540c0,122.3-99.3,221.6-221.7,221.6c-122.3,0-221.6-99.3-221.6-221.6S417.7,318.4,540,318.4
	C662.4,318.5,761.6,417.8,761.6,540z"/>
</svg>
