<?xml version="1.0" encoding="utf-8"?>
<!-- Generator: Adobe Illustrator 24.1.3, SVG Export Plug-In . SVG Version: 6.00 Build 0)  -->
<svg version="1.1" id="Layer_1" xmlns:serif="http://www.serif.com/"
	 xmlns="http://www.w3.org/2000/svg" xmlns:xlink="http://www.w3.org/1999/xlink" x="0px" y="0px" viewBox="0 0 1079.1 1079.1"
	 style="enable-background:new 0 0 1079.1 1079.1;" xml:space="preserve">
<path d="M1079,550.2c0.1-7.1,0.1-14.2,0-21.3l-283.1-23c3,22.3,3,45,0,67.5L1079,550.2z M1012.1,279.1c-3.4-6.3-7-12.4-10.7-18.5
	L744.7,382.2c13.8,17.9,25.1,37.5,33.7,58.5L1012.1,279.1z M818.5,77.7C812.4,74,806.3,70.5,800,67L638.4,300.7
	c20.9,8.7,40.5,20,58.5,33.8L818.5,77.7z M550.2,0.1C543.1,0,536,0,528.9,0.1l-23.1,283.1c22.4-2.9,45.1-2.9,67.5,0L550.2,0.1z
	 M279.1,67c-6.2,3.5-12.3,7-18.5,10.7l121.6,256.7c18-13.8,37.6-25.1,58.5-33.8L279.1,67z M77.7,260.6c-3.7,6.1-7.2,12.2-10.6,18.5
	l233.7,161.6c8.7-20.9,20-40.5,33.7-58.5L77.7,260.6z M0.1,528.9c-0.1,7.2-0.1,14.2,0,21.3l283.1,23.1c-2.9-22.4-2.9-45.1,0-67.5
	L0.1,528.9z M67.1,800.1c3.4,6.2,7,12.4,10.6,18.5L334.4,697c-13.8-17.9-25.1-37.6-33.7-58.5L67.1,800.1z M260.6,1001.4
	c6.1,3.7,12.3,7.2,18.5,10.7l161.6-233.7c-20.9-8.7-40.5-20-58.5-33.8L260.6,1001.4z M528.9,1079c7.1,0.1,14.2,0.1,21.3,0
	l23.1-283.1c-22.4,2.9-45.1,2.9-67.5,0L528.9,1079z M800,1012.1c6.3-3.5,12.4-7,18.5-10.7L696.9,744.7
	c-17.9,13.8-37.5,25.1-58.5,33.8L800,1012.1z M1001.4,818.5c3.7-6.1,7.3-12.3,10.7-18.5L778.4,638.4c-8.7,20.8-20,40.5-33.7,58.5
	L1001.4,818.5z"/>
</svg>
