<?xml version="1.0" encoding="utf-8"?>
<!-- Generator: Adobe Illustrator 26.0.3, SVG Export Plug-In . SVG Version: 6.00 Build 0)  -->
<svg version="1.1" id="Layer_1" xmlns="http://www.w3.org/2000/svg" xmlns:xlink="http://www.w3.org/1999/xlink" x="0px" y="0px"
	 viewBox="0 0 800 800" style="enable-background:new 0 0 800 800;" xml:space="preserve">
<style type="text/css">
	.st0{fill:none;stroke:#000000;stroke-miterlimit:10;}
</style>
<path class="st0" d="M527.5,400c0,5.9-0.4,11.9-1.2,17.7"/>
<path class="st0" d="M485.3,494.8c4.4-4,8.5-8.2,12.4-12.8c3.8-4.5,7.3-9.4,10.5-14.4c3.1-5,5.9-10.3,8.4-15.7"/>
<path class="st0" d="M422.1,525.6c5.8-1,11.6-2.5,17.3-4.3c5.6-1.8,11.2-4.1,16.5-6.7"/>
<path class="st0" d="M287.4,459.9c2.8,5.2,5.9,10.3,9.4,15.1c3.5,4.8,7.3,9.4,11.4,13.6c4.1,4.3,8.5,8.2,13.2,11.9
	c4.7,3.7,9.6,7,14.7,9.9"/>
<path class="st0" d="M280.2,356.4c-2,5.6-3.7,11.3-4.9,17.1c-1.2,5.8-2.1,11.7-2.5,17.6c-0.4,5.9-0.4,11.9,0,17.8
	c0.4,5.9,1.2,11.8,2.5,17.6c1.2,5.8,2.9,11.5,4.9,17.1"/>
<path class="st0" d="M336.2,289.6c-5.1,3-10.1,6.3-14.7,9.9c-4.7,3.7-9.1,7.6-13.2,11.9s-7.9,8.8-11.4,13.6
	c-3.5,4.8-6.6,9.8-9.4,15.1"/>
<path class="st0" d="M439.4,278.7c-5.6-1.8-11.4-3.3-17.3-4.3c-5.8-1-11.8-1.7-17.7-1.9"/>
<path class="st0" d="M455.9,285.4c5.3,2.6,10.5,5.6,15.4,8.9c4.9,3.3,9.6,7,14,11"/>
<path class="st0" d="M526.3,382.3c-0.8-5.9-2.1-11.7-3.7-17.4c-1.6-5.7-3.7-11.3-6.1-16.7c-2.4-5.4-5.2-10.7-8.4-15.7
	c-3.1-5-6.6-9.8-10.5-14.4"/>
<path class="st0" d="M532.5,400c0,6.2-0.4,12.3-1.3,18.4"/>
<path class="st0" d="M521,453.9c-2.5,5.6-5.4,11.1-8.7,16.3c-3.3,5.2-6.9,10.2-10.9,15c-4,4.7-8.3,9.2-12.8,13.3"/>
<path class="st0" d="M458.1,519.1c-5.5,2.7-11.3,5-17.1,6.9c-5.9,1.9-11.9,3.4-17.9,4.5"/>
<path class="st0" d="M333.8,514.7c-5.3-3.1-10.5-6.5-15.3-10.3c-4.9-3.8-9.5-7.9-13.7-12.4c-4.3-4.4-8.3-9.2-11.9-14.2
	c-3.6-5-6.9-10.2-9.8-15.7"/>
<path class="st0" d="M275.5,445.3c-2.1-5.8-3.8-11.7-5.1-17.8s-2.1-12.2-2.6-18.3c-0.4-6.2-0.4-12.3,0-18.5
	c0.4-6.2,1.3-12.3,2.6-18.3c1.3-6,3-12,5.1-17.8"/>
<path class="st0" d="M283,337.8c2.9-5.4,6.2-10.7,9.8-15.7c3.6-5,7.6-9.7,11.9-14.2c4.3-4.4,8.9-8.6,13.7-12.4
	c4.9-3.8,10-7.3,15.3-10.3"/>
<path class="st0" d="M404.6,267.6c6.2,0.2,12.3,0.9,18.4,1.9c6.1,1.1,12.1,2.6,17.9,4.5"/>
<path class="st0" d="M458.1,280.9c5.5,2.7,10.9,5.8,16,9.2c5.1,3.4,10,7.3,14.6,11.4"/>
<path class="st0" d="M531.2,381.6c-0.9-6.1-2.1-12.2-3.8-18.1c-1.7-5.9-3.8-11.7-6.3-17.4c-2.5-5.6-5.4-11.1-8.7-16.3
	c-3.3-5.2-6.9-10.2-10.9-15"/>
<path class="st0" d="M537.5,400c0,6.4-0.4,12.8-1.3,19.1"/>
<path class="st0" d="M492,502.2c4.8-4.3,9.2-8.9,13.3-13.8c4.1-4.9,7.9-10.1,11.3-15.5c3.4-5.4,6.4-11.1,9-16.9"/>
<path class="st0" d="M460.3,523.6c-5.8,2.8-11.7,5.2-17.8,7.2c-6.1,2-12.3,3.5-18.6,4.6"/>
<path class="st0" d="M278.6,464.6c3,5.7,6.4,11.1,10.2,16.3c3.8,5.2,7.9,10.1,12.3,14.7c4.4,4.6,9.2,8.9,14.3,12.8
	c5,3.9,10.4,7.5,15.9,10.7"/>
<path class="st0" d="M270.8,353c-2.2,6-4,12.2-5.3,18.4c-1.3,6.3-2.2,12.6-2.7,19c-0.4,6.4-0.4,12.8,0,19.2c0.4,6.4,1.3,12.7,2.7,19
	c1.3,6.3,3.1,12.4,5.3,18.4"/>
<path class="st0" d="M331.2,280.9c-5.5,3.2-10.9,6.8-15.9,10.7c-5,3.9-9.8,8.2-14.3,12.8c-4.4,4.6-8.6,9.5-12.3,14.7
	c-3.8,5.2-7.2,10.6-10.2,16.3"/>
<path class="st0" d="M442.5,269.2c-6.1-2-12.3-3.5-18.6-4.6c-6.3-1.1-12.7-1.8-19.1-2"/>
<path class="st0" d="M492,297.8c-4.8-4.3-9.8-8.2-15.1-11.8c-5.3-3.6-10.9-6.8-16.6-9.6"/>
<path class="st0" d="M505.3,311.6c4.1,4.9,7.9,10.1,11.3,15.5c3.4,5.4,6.4,11.1,9,16.9c2.6,5.8,4.8,11.9,6.6,18
	c1.8,6.2,3.1,12.4,4,18.8"/>
<path class="st0" d="M542.5,400c0,6.6-0.5,13.3-1.4,19.8"/>
<path class="st0" d="M530.2,458c-2.7,6.1-5.8,11.9-9.3,17.6c-3.5,5.6-7.4,11-11.7,16.1c-4.3,5.1-8.9,9.9-13.8,14.3"/>
<path class="st0" d="M424.7,540.3c6.5-1.2,13-2.8,19.3-4.8c6.3-2.1,12.5-4.5,18.4-7.4"/>
<path class="st0" d="M328.8,523.4c-5.7-3.3-11.3-7-16.5-11.1c-5.2-4.1-10.2-8.5-14.8-13.3s-8.9-9.9-12.8-15.2
	c-3.9-5.4-7.4-11-10.5-16.9"/>
<path class="st0" d="M266.1,448.7c-2.3-6.2-4.1-12.6-5.5-19.1c-1.4-6.5-2.3-13.1-2.8-19.7c-0.5-6.6-0.5-13.3,0-19.9
	c0.5-6.6,1.4-13.2,2.8-19.7c1.4-6.5,3.2-12.9,5.5-19.1"/>
<path class="st0" d="M328.8,276.6c-5.7,3.3-11.3,7-16.5,11.1c-5.2,4.1-10.2,8.5-14.8,13.3c-4.6,4.8-8.9,9.9-12.8,15.2
	c-3.9,5.4-7.4,11-10.5,16.9"/>
<path class="st0" d="M444,264.5c-6.3-2.1-12.8-3.7-19.3-4.8c-6.5-1.2-13.1-1.8-19.8-2.1"/>
<path class="st0" d="M495.4,294.1c-4.9-4.4-10.2-8.5-15.7-12.2c-5.5-3.7-11.3-7-17.2-9.9"/>
<path class="st0" d="M541.1,380.2c-0.9-6.6-2.3-13.1-4.1-19.4s-4.1-12.6-6.8-18.7c-2.7-6.1-5.8-11.9-9.3-17.6
	c-3.5-5.6-7.4-11-11.7-16.1"/>
<path class="st0" d="M547.5,400c0,6.9-0.5,13.7-1.4,20.5"/>
<path class="st0" d="M498.7,509.6c5.1-4.6,9.9-9.5,14.3-14.8c4.4-5.3,8.5-10.8,12.1-16.6c3.6-5.8,6.9-11.9,9.7-18.2"/>
<path class="st0" d="M464.7,532.6c-6.2,3-12.5,5.6-19.1,7.7c-6.5,2.1-13.2,3.8-20,5"/>
<path class="st0" d="M269.8,469.2c3.2,6.1,6.9,11.9,10.9,17.5c4,5.6,8.5,10.8,13.2,15.8c4.8,4.9,9.9,9.5,15.3,13.8
	c5.4,4.2,11.1,8.1,17.1,11.5"/>
<path class="st0" d="M261.4,450.4c-2.3-6.5-4.2-13.1-5.7-19.8c-1.4-6.7-2.4-13.5-2.9-20.4c-0.5-6.9-0.5-13.7,0-20.6
	s1.4-13.7,2.9-20.4c1.4-6.7,3.3-13.3,5.7-19.8"/>
<path class="st0" d="M269.8,330.8c3.2-6.1,6.9-11.9,10.9-17.5c4-5.6,8.5-10.8,13.2-15.8c4.8-4.9,9.9-9.5,15.3-13.8
	c5.4-4.2,11.1-8.1,17.1-11.5"/>
<path class="st0" d="M445.6,259.7c-6.5-2.1-13.2-3.8-20-5c-6.8-1.2-13.6-1.9-20.5-2.2"/>
<path class="st0" d="M464.7,267.4c6.2,3,12.1,6.4,17.8,10.3c5.7,3.8,11.1,8.1,16.2,12.7"/>
<path class="st0" d="M513,305.2c4.4,5.3,8.5,10.8,12.1,16.6c3.6,5.8,6.9,11.9,9.7,18.2c2.8,6.3,5.1,12.7,7,19.3
	c1.9,6.6,3.3,13.3,4.3,20.1"/>
<path class="st0" d="M552.5,400c0,7.1-0.5,14.2-1.5,21.2"/>
<path class="st0" d="M502,513.3c5.3-4.8,10.2-9.9,14.8-15.3c4.6-5.4,8.7-11.2,12.5-17.2c3.8-6,7.1-12.3,10-18.8"/>
<path class="st0" d="M426.5,550.2c7-1.2,13.9-3,20.6-5.1c6.8-2.2,13.3-4.9,19.7-8"/>
<path class="st0" d="M265.4,471.6c3.3,6.3,7.1,12.3,11.3,18c4.2,5.7,8.7,11.2,13.7,16.3c4.9,5.1,10.2,9.9,15.8,14.2
	s11.5,8.3,17.6,11.9"/>
<path class="st0" d="M256.7,347.8c-2.4,6.7-4.4,13.5-5.9,20.5c-1.5,6.9-2.5,14-3,21.1c-0.5,7.1-0.5,14.2,0,21.3
	c0.5,7.1,1.5,14.1,3,21.1s3.4,13.8,5.9,20.5"/>
<path class="st0" d="M323.8,267.9c-6.1,3.6-12,7.5-17.6,11.9c-5.6,4.4-10.9,9.1-15.8,14.2c-4.9,5.1-9.5,10.6-13.7,16.3
	c-4.2,5.7-7.9,11.8-11.3,18"/>
<path class="st0" d="M447.1,255c-6.8-2.2-13.7-3.9-20.6-5.1c-7-1.2-14.1-2-21.2-2.2"/>
<path class="st0" d="M466.9,262.9c6.4,3.1,12.5,6.7,18.4,10.6c5.9,4,11.5,8.3,16.8,13.1"/>
<path class="st0" d="M516.8,302c4.6,5.4,8.7,11.2,12.5,17.2c3.8,6,7.1,12.3,10,18.8c2.9,6.5,5.3,13.2,7.3,20
	c2,6.8,3.4,13.8,4.4,20.8"/>
<path class="st0" d="M543.9,464.1c3-6.7,5.5-13.6,7.5-20.6c2-7,3.5-14.2,4.6-21.5c1-7.3,1.5-14.6,1.5-21.9s-0.5-14.7-1.5-21.9
	c-1-7.3-2.5-14.4-4.6-21.5c-2-7-4.5-13.9-7.5-20.6"/>
<path class="st0" d="M533.6,483.5c-3.9,6.2-8.2,12.2-12.9,17.8"/>
<path class="st0" d="M469,541.6c6.6-3.2,12.9-6.9,19-11c6.1-4.1,11.9-8.6,17.3-13.5"/>
<path class="st0" d="M427.3,555.1c-7.2,1.3-14.5,2-21.9,2.3"/>
<path class="st0" d="M383.5,556.6c-7.3-0.8-14.5-2-21.6-3.8c-7.1-1.8-14.1-4-20.9-6.8"/>
<path class="st0" d="M321.2,536.4c-6.4-3.7-12.4-7.8-18.2-12.3"/>
<path class="st0" d="M242.9,411c0.5,7.3,1.5,14.6,3.1,21.8c1.5,7.2,3.5,14.2,6.1,21.1c2.5,6.9,5.5,13.6,8.9,20.1"/>
<path class="st0" d="M272.6,307.4c-4.3,5.9-8.2,12.2-11.6,18.6c-3.4,6.5-6.4,13.2-8.9,20.1c-2.5,6.9-4.5,13.9-6.1,21.1
	c-1.5,7.2-2.5,14.4-3.1,21.8"/>
<path class="st0" d="M383.5,243.4c-7.3,0.8-14.5,2-21.6,3.8c-7.1,1.8-14.1,4-20.9,6.8"/>
<path class="st0" d="M405.5,242.6c7.3,0.3,14.6,1,21.9,2.3c7.2,1.3,14.3,3,21.3,5.3"/>
<path class="st0" d="M520.7,298.8c-4.7-5.6-9.8-10.9-15.3-15.8c-5.4-4.9-11.2-9.4-17.3-13.5s-12.4-7.8-19-11"/>
<path class="st0" d="M537.8,486.1c-4,6.4-8.5,12.5-13.3,18.3"/>
<path class="st0" d="M471.2,546.1c6.8-3.3,13.4-7.1,19.6-11.3c6.3-4.2,12.2-8.9,17.9-14"/>
<path class="st0" d="M428.2,560c-7.5,1.3-15,2.1-22.5,2.4"/>
<path class="st0" d="M339.1,550.7c7,2.8,14.2,5.2,21.6,7c7.3,1.8,14.8,3.1,22.3,3.9"/>
<path class="st0" d="M318.8,540.7c-6.6-3.8-12.8-8-18.8-12.7"/>
<path class="st0" d="M256.5,476.3c-3.6-6.7-6.6-13.6-9.2-20.7c-2.6-7.1-4.7-14.4-6.2-21.8c-1.6-7.4-2.6-14.9-3.2-22.5"/>
<path class="st0" d="M268.5,304.5c-4.4,6.1-8.5,12.5-12,19.2c-3.6,6.7-6.6,13.6-9.2,20.7c-2.6,7.1-4.7,14.4-6.2,21.8
	c-1.6,7.4-2.6,14.9-3.2,22.5"/>
<path class="st0" d="M383,238.4c-7.5,0.8-15,2.1-22.3,3.9c-7.3,1.8-14.5,4.2-21.6,7"/>
<path class="st0" d="M450.2,245.5c-7.2-2.3-14.5-4.2-22-5.5c-7.5-1.3-15-2.1-22.5-2.4"/>
<path class="st0" d="M471.2,253.9c6.8,3.3,13.4,7.1,19.6,11.3c6.3,4.2,12.2,8.9,17.9,14c5.6,5.1,10.9,10.5,15.7,16.3"/>
<path class="st0" d="M548.5,333.9c3.1,6.9,5.7,14,7.8,21.3s3.7,14.7,4.7,22.2s1.6,15,1.6,22.6c0,7.6-0.5,15.1-1.6,22.6
	c-1.1,7.5-2.6,14.9-4.7,22.2c-2.1,7.3-4.7,14.4-7.8,21.3"/>
<path class="st0" d="M542,488.8c-4.1,6.6-8.7,12.9-13.7,18.9"/>
<path class="st0" d="M473.4,550.5c7-3.4,13.8-7.3,20.2-11.7c6.5-4.4,12.6-9.2,18.4-14.4"/>
<path class="st0" d="M429.1,565c-7.7,1.4-15.4,2.2-23.2,2.4"/>
<path class="st0" d="M337.3,555.3c7.2,2.9,14.7,5.3,22.2,7.2c7.6,1.9,15.3,3.2,23,4.1"/>
<path class="st0" d="M316.2,545.1c-6.8-3.9-13.2-8.3-19.4-13.1"/>
<path class="st0" d="M252.1,478.6c-3.7-6.9-6.8-14-9.5-21.3c-2.7-7.3-4.8-14.8-6.4-22.5s-2.7-15.4-3.3-23.1"/>
<path class="st0" d="M232.9,388.3c0.5-7.8,1.6-15.5,3.3-23.1s3.8-15.1,6.4-22.5c2.7-7.3,5.8-14.5,9.5-21.3
	c3.7-6.9,7.8-13.5,12.4-19.8"/>
<path class="st0" d="M337.3,244.7c7.2-2.9,14.7-5.3,22.2-7.2c7.6-1.9,15.3-3.2,23-4.1"/>
<path class="st0" d="M451.8,240.7c-7.4-2.4-15-4.3-22.7-5.7c-7.7-1.4-15.4-2.2-23.2-2.4"/>
<path class="st0" d="M528.3,292.3c-5-6-10.4-11.6-16.2-16.8c-5.8-5.2-11.9-10-18.4-14.4c-6.5-4.4-13.2-8.3-20.2-11.7"/>
<path class="st0" d="M553,331.9c3.2,7.1,5.8,14.5,8,22c2.1,7.5,3.8,15.1,4.9,22.9c1.1,7.7,1.6,15.5,1.6,23.3
	c0,7.8-0.5,15.6-1.6,23.3c-1.1,7.7-2.7,15.4-4.9,22.9c-2.1,7.5-4.8,14.8-8,22"/>
<path class="st0" d="M546.3,491.4c-4.3,6.8-9,13.3-14.1,19.5"/>
<path class="st0" d="M515.4,528.2c-6,5.4-12.3,10.3-19,14.8c-6.7,4.5-13.6,8.5-20.8,12"/>
<path class="st0" d="M430,569.9c-7.9,1.4-15.9,2.2-23.9,2.5"/>
<path class="st0" d="M335.4,559.9c7.4,3,15.1,5.5,22.9,7.4c7.8,1.9,15.7,3.3,23.7,4.2"/>
<path class="st0" d="M313.8,549.4c-7-4-13.6-8.5-20-13.5"/>
<path class="st0" d="M227.9,412c0.6,8,1.7,16,3.3,23.8c1.7,7.9,3.9,15.6,6.6,23.1c2.7,7.5,6,14.9,9.8,22"/>
<path class="st0" d="M227.9,388c0.6-8,1.7-16,3.3-23.8c1.7-7.9,3.9-15.6,6.6-23.1c2.7-7.5,6-14.9,9.8-22s8-13.9,12.8-20.4"/>
<path class="st0" d="M382,228.4c-8,0.8-15.9,2.2-23.7,4.2c-7.8,1.9-15.4,4.4-22.9,7.4"/>
<path class="st0" d="M453.3,235.9c-7.6-2.5-15.4-4.4-23.4-5.8c-7.9-1.4-15.9-2.2-23.9-2.5"/>
<path class="st0" d="M475.6,245c7.2,3.5,14.2,7.5,20.8,12c6.7,4.5,13,9.4,19,14.8c6,5.4,11.6,11.2,16.7,17.3"/>
<path class="st0" d="M557.6,329.8c3.3,7.3,6,14.9,8.2,22.6c2.2,7.7,3.9,15.6,5,23.5c1.1,8,1.7,16,1.7,24c0,8-0.6,16.1-1.7,24
	c-1.1,8-2.8,15.8-5,23.5c-2.2,7.7-5,15.3-8.2,22.6"/>
<path class="st0" d="M550.5,494.1c-4.4,7-9.2,13.7-14.6,20"/>
<path class="st0" d="M477.8,559.5c7.4-3.6,14.6-7.8,21.4-12.4c6.9-4.6,13.4-9.7,19.5-15.2"/>
<path class="st0" d="M430.8,574.8c-8.1,1.4-16.4,2.3-24.6,2.6"/>
<path class="st0" d="M381.4,576.5c-8.2-0.9-16.4-2.3-24.4-4.3s-15.9-4.6-23.6-7.7"/>
<path class="st0" d="M311.2,553.7c-7.2-4.1-14-8.8-20.5-13.8"/>
<path class="st0" d="M243.3,483.3c-3.9-7.3-7.2-14.9-10.1-22.6c-2.8-7.8-5.1-15.7-6.8-23.8c-1.7-8.1-2.9-16.3-3.4-24.5"/>
<path class="st0" d="M256.4,295.7c-4.9,6.7-9.2,13.7-13.1,21c-3.9,7.3-7.2,14.9-10.1,22.6c-2.8,7.8-5.1,15.7-6.8,23.8
	c-1.7,8.1-2.9,16.3-3.4,24.5"/>
<path class="st0" d="M333.5,235.4c7.7-3.1,15.5-5.7,23.6-7.7c8-2,16.2-3.4,24.4-4.3"/>
<path class="st0" d="M406.2,222.6c8.3,0.3,16.5,1.2,24.6,2.6c8.1,1.4,16.2,3.4,24,6"/>
<path class="st0" d="M536,285.9c-5.3-6.3-11.1-12.3-17.2-17.8s-12.7-10.6-19.5-15.2c-6.9-4.6-14-8.8-21.4-12.4"/>
<path class="st0" d="M562.2,327.8c3.4,7.6,6.2,15.3,8.5,23.3c2.3,7.9,4,16,5.1,24.2c1.2,8.2,1.7,16.4,1.7,24.7
	c0,8.3-0.6,16.5-1.7,24.7c-1.2,8.2-2.9,16.3-5.1,24.2c-2.3,7.9-5.1,15.7-8.5,23.3"/>
<path class="st0" d="M554.8,496.7c-4.5,7.2-9.5,14.1-15,20.6"/>
<path class="st0" d="M522.1,535.6c-6.3,5.7-13,10.9-20.1,15.7c-7,4.8-14.4,9-22.1,12.7"/>
<path class="st0" d="M431.7,579.7c-8.4,1.5-16.8,2.4-25.3,2.7"/>
<path class="st0" d="M331.6,569.2c7.9,3.2,16,5.8,24.2,7.9c8.2,2.1,16.6,3.5,25.1,4.4"/>
<path class="st0" d="M308.8,558c-7.4-4.2-14.4-9-21.1-14.2"/>
<path class="st0" d="M217.9,412.7c0.6,8.5,1.8,16.9,3.5,25.2c1.8,8.3,4.1,16.5,7,24.5c2.9,8,6.4,15.8,10.4,23.3"/>
<path class="st0" d="M217.9,387.3c0.6-8.5,1.8-16.9,3.5-25.2s4.1-16.5,7-24.5c2.9-8,6.4-15.8,10.4-23.3c4-7.5,8.5-14.7,13.5-21.6"/>
<path class="st0" d="M331.6,230.8c7.9-3.2,16-5.8,24.2-7.9c8.2-2.1,16.6-3.5,25.1-4.4"/>
<path class="st0" d="M456.4,226.4c-8.1-2.6-16.3-4.7-24.7-6.2c-8.4-1.5-16.8-2.4-25.3-2.7"/>
<path class="st0" d="M539.8,282.7c-5.5-6.5-11.4-12.6-17.7-18.3c-6.3-5.7-13-10.9-20.1-15.7s-14.4-9-22.1-12.7"/>
<path class="st0" d="M566.7,325.8c3.5,7.8,6.4,15.8,8.7,23.9c2.3,8.2,4.1,16.5,5.3,24.9c1.2,8.4,1.8,16.9,1.8,25.4
	c0,8.5-0.6,17-1.8,25.4c-1.2,8.4-3,16.7-5.3,24.9c-2.3,8.2-5.3,16.2-8.7,23.9"/>
<path class="st0" d="M559,499.4c-4.6,7.4-9.8,14.5-15.4,21.2"/>
<path class="st0" d="M482.2,568.5c7.8-3.8,15.4-8.2,22.7-13.1c7.2-4.9,14.1-10.3,20.6-16.1"/>
<path class="st0" d="M432.6,584.7c-8.6,1.5-17.3,2.4-26,2.7"/>
<path class="st0" d="M329.8,573.8c8.1,3.3,16.4,6,24.9,8.1c8.5,2.1,17.1,3.6,25.8,4.5"/>
<path class="st0" d="M306.2,562.4c-7.6-4.4-14.8-9.3-21.7-14.6"/>
<path class="st0" d="M234.4,488c-4.1-7.7-7.7-15.7-10.6-23.9c-3-8.2-5.4-16.6-7.2-25.1c-1.8-8.5-3-17.2-3.6-25.9"/>
<path class="st0" d="M248.3,289.8c-5.1,7.1-9.8,14.5-13.9,22.2c-4.1,7.7-7.7,15.7-10.6,23.9c-3,8.2-5.4,16.6-7.2,25.1
	c-1.8,8.5-3,17.2-3.6,25.9"/>
<path class="st0" d="M380.4,213.5c-8.7,0.9-17.3,2.4-25.8,4.5c-8.5,2.1-16.8,4.8-24.9,8.1"/>
<path class="st0" d="M406.5,212.6c8.7,0.3,17.4,1.2,26,2.7c8.6,1.5,17.1,3.6,25.4,6.3"/>
<path class="st0" d="M482.2,231.5c7.8,3.8,15.4,8.2,22.7,13.1c7.2,4.9,14.1,10.3,20.6,16.1c6.5,5.8,12.6,12.1,18.2,18.8"/>
<path class="st0" d="M571.3,323.7c3.6,8,6.5,16.2,8.9,24.6c2.4,8.4,4.2,16.9,5.4,25.6c1.2,8.6,1.8,17.4,1.8,26.1
	c0,8.7-0.6,17.4-1.8,26.1c-1.2,8.6-3,17.2-5.4,25.6s-5.4,16.6-8.9,24.6"/>
<path class="st0" d="M575.9,478.3c3.6-8.2,6.7-16.6,9.2-25.2c2.5-8.6,4.3-17.4,5.6-26.3c1.2-8.9,1.9-17.8,1.9-26.8
	c0-9-0.6-17.9-1.9-26.8s-3.1-17.7-5.6-26.3s-5.5-17-9.2-25.2"/>
<path class="st0" d="M563.2,502c-4.7,7.6-10,14.9-15.8,21.7"/>
<path class="st0" d="M528.8,543.1c-6.7,6-13.7,11.5-21.2,16.5c-7.4,5-15.2,9.5-23.3,13.4"/>
<path class="st0" d="M433.4,589.6c-8.8,1.6-17.8,2.5-26.7,2.8"/>
<path class="st0" d="M327.9,578.5c8.3,3.4,16.8,6.1,25.5,8.3c8.7,2.2,17.5,3.7,26.4,4.7"/>
<path class="st0" d="M303.8,566.7c-7.8-4.5-15.2-9.5-22.3-15"/>
<path class="st0" d="M230,490.4c-4.2-7.9-7.9-16.1-10.9-24.5c-3.1-8.4-5.5-17-7.4-25.8c-1.9-8.8-3.1-17.7-3.7-26.6"/>
<path class="st0" d="M208,386.6c0.6-8.9,1.9-17.8,3.7-26.6c1.9-8.8,4.3-17.4,7.4-25.8s6.7-16.6,10.9-24.5c4.2-7.9,9-15.5,14.2-22.8"
	/>
<path class="st0" d="M327.9,221.5c8.3-3.4,16.8-6.1,25.5-8.3c8.7-2.2,17.5-3.7,26.4-4.7"/>
<path class="st0" d="M459.5,216.9c-8.5-2.8-17.2-4.9-26.1-6.5c-8.8-1.6-17.8-2.5-26.7-2.8"/>
<path class="st0" d="M547.5,276.3c-5.8-6.9-12-13.3-18.7-19.3c-6.7-6-13.7-11.5-21.2-16.5c-7.4-5-15.2-9.5-23.3-13.4"/>
<path class="st0" d="M589.8,454.4c-2.5,8.8-5.7,17.5-9.4,25.9"/>
<path class="st0" d="M551.3,527c-5.9,7-12.3,13.7-19.1,19.8"/>
<path class="st0" d="M461,587.8c8.7-2.8,17.3-6.3,25.5-10.3s16.2-8.6,23.9-13.8"/>
<path class="st0" d="M326,583.1c8.5,3.4,17.3,6.3,26.2,8.5c8.9,2.2,18,3.8,27.1,4.8c9.1,1,18.3,1.3,27.5,1
	c9.2-0.3,18.3-1.3,27.4-2.9"/>
<path class="st0" d="M257.9,537.2c-6.4-6.6-12.3-13.7-17.7-21.1c-5.4-7.4-10.3-15.2-14.6-23.4c-4.3-8.1-8.1-16.5-11.2-25.2
	c-3.1-8.6-5.7-17.5-7.6-26.5"/>
<path class="st0" d="M203,386.2c0.6-9.2,1.9-18.3,3.8-27.3"/>
<path class="st0" d="M214.4,332.5c3.1-8.6,6.9-17.1,11.2-25.2"/>
<path class="st0" d="M240.2,283.9c5.4-7.4,11.3-14.5,17.7-21.1c6.4-6.6,13.2-12.8,20.5-18.4c7.2-5.7,14.9-10.8,22.8-15.4"/>
<path class="st0" d="M326,216.9c8.5-3.4,17.3-6.3,26.2-8.5"/>
<path class="st0" d="M379.4,203.6c9.1-1,18.3-1.3,27.5-1"/>
<path class="st0" d="M486.6,222.5c-8.3-4-16.8-7.5-25.5-10.3c-8.7-2.8-17.7-5.1-26.7-6.7"/>
<path class="st0" d="M551.3,273c-5.9-7-12.3-13.7-19.1-19.8c-6.8-6.2-14.1-11.8-21.7-17"/>
<path class="st0" d="M567.5,295.3c4.9,7.8,9.2,15.9,12.9,24.3c3.7,8.4,6.9,17.1,9.4,25.9s4.4,17.8,5.7,27c1.3,9.1,1.9,18.3,1.9,27.5
	c0,9.2-0.6,18.4-1.9,27.5"/>
<path class="st0" d="M594.7,455.8c-2.6,9.1-5.8,17.9-9.7,26.5"/>
<path class="st0" d="M555.1,530.2c-6.1,7.2-12.6,14-19.6,20.3"/>
<path class="st0" d="M462.6,592.6c9-2.9,17.7-6.4,26.2-10.6c8.5-4.1,16.6-8.9,24.5-14.1"/>
<path class="st0" d="M435.2,599.4c-9.3,1.6-18.7,2.6-28.1,3c-9.4,0.3-18.9,0-28.2-1c-9.4-1-18.7-2.6-27.8-4.9
	c-9.1-2.3-18.1-5.2-26.9-8.7"/>
<path class="st0" d="M201.9,442.1c2,9.2,4.6,18.3,7.8,27.2c3.2,8.9,7.1,17.5,11.5,25.8c4.4,8.3,9.4,16.3,15,24
	c5.5,7.6,11.6,14.9,18.2,21.6"/>
<path class="st0" d="M198,385.9c0.7-9.4,2-18.8,3.9-28"/>
<path class="st0" d="M209.7,330.7c3.2-8.9,7.1-17.5,11.5-25.8"/>
<path class="st0" d="M298.8,224.6c-8.2,4.7-16,10-23.4,15.8c-7.4,5.8-14.4,12.1-21,18.9c-6.5,6.8-12.6,14-18.2,21.6"/>
<path class="st0" d="M324.1,212.2c8.7-3.5,17.7-6.4,26.9-8.7"/>
<path class="st0" d="M378.8,198.6c9.4-1,18.8-1.3,28.2-1"/>
<path class="st0" d="M435.2,200.6c9.3,1.6,18.4,3.9,27.4,6.8c9,2.9,17.7,6.4,26.2,10.6"/>
<path class="st0" d="M555.1,269.8c-6.1-7.2-12.6-14-19.6-20.3c-7-6.3-14.4-12.1-22.3-17.4"/>
<path class="st0" d="M571.7,292.7c5,8,9.4,16.3,13.3,24.9s7.1,17.5,9.7,26.5s4.6,18.3,5.9,27.6c1.3,9.3,2,18.8,2,28.2
	c0,9.4-0.7,18.8-2,28.2"/>
<path class="st0" d="M599.5,457.2c-2.7,9.3-6,18.4-9.9,27.2"/>
<path class="st0" d="M559,533.4c-6.2,7.4-12.9,14.4-20.1,20.8"/>
<path class="st0" d="M516,572c-8,5.4-16.4,10.2-25.1,14.5c-8.7,4.2-17.7,7.9-26.8,10.8"/>
<path class="st0" d="M436,604.3c-9.5,1.7-19.1,2.7-28.8,3c-9.7,0.3-19.3,0-28.9-1c-9.6-1-19.1-2.7-28.5-5
	c-9.4-2.3-18.6-5.3-27.5-8.9"/>
<path class="st0" d="M250.7,544.1c-6.7-6.9-12.9-14.4-18.6-22.2s-10.8-16-15.3-24.6c-4.5-8.5-8.5-17.4-11.8-26.4s-6-18.4-8-27.8"/>
<path class="st0" d="M193,385.5c0.7-9.6,2-19.2,4-28.7"/>
<path class="st0" d="M205,329c3.3-9.1,7.2-17.9,11.8-26.4"/>
<path class="st0" d="M232.1,278c5.7-7.8,11.9-15.2,18.6-22.2c6.7-6.9,13.9-13.4,21.5-19.4c7.6-5.9,15.6-11.4,24-16.2"/>
<path class="st0" d="M322.3,207.6c9-3.6,18.2-6.6,27.5-8.9"/>
<path class="st0" d="M378.3,193.6c9.6-1,19.3-1.3,28.9-1"/>
<path class="st0" d="M491,213.5c-8.7-4.2-17.7-7.9-26.8-10.8c-9.2-3-18.6-5.3-28.1-7"/>
<path class="st0" d="M559,266.6c-6.2-7.4-12.9-14.4-20.1-20.8c-7.2-6.5-14.8-12.4-22.8-17.8"/>
<path class="st0" d="M576,290c5.1,8.2,9.7,16.7,13.6,25.6c3.9,8.8,7.2,17.9,9.9,27.2c2.7,9.3,4.7,18.7,6,28.3s2,19.2,2,28.9
	c0,9.7-0.7,19.3-2,28.9"/>
<path class="st0" d="M610.4,429.6c1.4-9.8,2.1-19.7,2.1-29.6c0-9.9-0.7-19.8-2.1-29.6c-1.4-9.8-3.4-19.5-6.2-29
	c-2.7-9.5-6.1-18.8-10.1-27.9c-4-9-8.7-17.8-13.9-26.2"/>
<path class="st0" d="M604.3,458.6c-2.7,9.5-6.1,18.8-10.1,27.9"/>
<path class="st0" d="M562.8,536.6c-6.4,7.6-13.2,14.7-20.6,21.3"/>
<path class="st0" d="M465.7,602.1c9.4-3.1,18.6-6.8,27.5-11.1c8.9-4.3,17.5-9.3,25.7-14.8"/>
<path class="st0" d="M320.4,597c9.2,3.7,18.6,6.8,28.2,9.2c9.6,2.4,19.4,4.1,29.2,5.1c9.8,1,19.7,1.4,29.6,1
	c9.9-0.3,19.7-1.4,29.5-3.1"/>
<path class="st0" d="M192.1,444.2c2.1,9.7,4.8,19.2,8.2,28.5c3.4,9.3,7.4,18.3,12.1,27.1c4.6,8.7,9.9,17.1,15.7,25.1
	c5.8,8,12.2,15.6,19.1,22.7"/>
<path class="st0" d="M188,385.2c0.7-9.9,2.1-19.7,4.1-29.4"/>
<path class="st0" d="M200.3,327.3c3.4-9.3,7.4-18.3,12.1-27.1"/>
<path class="st0" d="M228.1,275.1c5.8-8,12.2-15.6,19.1-22.7c6.9-7.1,14.2-13.7,22-19.8c7.8-6.1,16-11.6,24.6-16.6"/>
<path class="st0" d="M320.4,203c9.2-3.7,18.6-6.8,28.2-9.2"/>
<path class="st0" d="M377.8,188.7c9.8-1,19.7-1.4,29.6-1"/>
<path class="st0" d="M436.9,190.7c9.7,1.7,19.4,4.1,28.8,7.2c9.4,3.1,18.6,6.8,27.5,11.1"/>
<path class="st0" d="M518.8,223.8c8.2,5.5,16,11.6,23.4,18.3c7.4,6.6,14.2,13.7,20.6,21.3"/>
<path class="st0" d="M615.4,430.3c1.4-10,2.1-20.1,2.1-30.3c0-10.1-0.7-20.2-2.1-30.3c-1.4-10-3.5-19.9-6.3-29.7
	c-2.8-9.7-6.3-19.3-10.4-28.5c-4.1-9.3-8.9-18.2-14.2-26.8"/>
<path class="st0" d="M609.1,460c-2.8,9.7-6.3,19.3-10.4,28.5"/>
<path class="st0" d="M566.6,539.8c-6.5,7.8-13.6,15.1-21.1,21.8"/>
<path class="st0" d="M467.2,606.9c9.6-3.1,19-6.9,28.1-11.4c9.1-4.4,17.9-9.5,26.3-15.2"/>
<path class="st0" d="M318.5,601.7c9.4,3.8,19,6.9,28.9,9.4c9.8,2.4,19.8,4.2,29.9,5.3c10.1,1.1,20.2,1.4,30.3,1.1s20.2-1.4,30.2-3.2
	"/>
<path class="st0" d="M187.3,445.2c2.1,9.9,4.9,19.7,8.4,29.2c3.5,9.5,7.6,18.8,12.3,27.7c4.8,8.9,10.1,17.5,16.1,25.7
	s12.5,16,19.5,23.2"/>
<path class="st0" d="M183,384.8c0.7-10.1,2.1-20.1,4.2-30"/>
<path class="st0" d="M195.6,325.6c3.5-9.5,7.6-18.8,12.3-27.7"/>
<path class="st0" d="M291.2,211.6c-8.8,5.1-17.2,10.7-25.2,17c-8,6.2-15.5,13-22.6,20.3c-7,7.3-13.6,15.1-19.5,23.2"/>
<path class="st0" d="M318.5,198.3c9.4-3.8,19-6.9,28.9-9.4"/>
<path class="st0" d="M377.3,183.7c10.1-1.1,20.2-1.4,30.3-1.1"/>
<path class="st0" d="M437.8,185.8c10,1.8,19.8,4.2,29.4,7.3s19,6.9,28.1,11.4"/>
<path class="st0" d="M521.6,219.7c8.4,5.7,16.4,11.9,23.9,18.7s14.6,14.1,21.1,21.8"/>
<path class="st0" d="M613.9,461.3c-2.9,10-6.4,19.7-10.6,29.2"/>
<path class="st0" d="M570.4,543c-6.7,7.9-13.9,15.4-21.6,22.3"/>
<path class="st0" d="M524.4,584.5c-8.6,5.8-17.6,11-26.9,15.5c-9.3,4.5-18.9,8.4-28.8,11.6"/>
<path class="st0" d="M316.7,606.3c9.6,3.9,19.5,7.1,29.5,9.6c10.1,2.5,20.3,4.3,30.6,5.4c10.3,1.1,20.7,1.4,31,1.1
	c10.4-0.4,20.7-1.4,30.9-3.2"/>
<path class="st0" d="M239.9,554.6c-7.2-7.5-13.9-15.4-20-23.8c-6.1-8.4-11.6-17.2-16.4-26.3c-4.9-9.1-9.1-18.6-12.6-28.4
	c-3.5-9.7-6.4-19.7-8.6-29.8"/>
<path class="st0" d="M178,384.5c0.7-10.3,2.2-20.6,4.3-30.7"/>
<path class="st0" d="M190.9,323.9c3.5-9.7,7.8-19.2,12.6-28.4"/>
<path class="st0" d="M220,269.2c6.1-8.4,12.8-16.3,20-23.8c7.2-7.5,14.9-14.4,23.1-20.8c8.2-6.4,16.8-12.2,25.7-17.4"/>
<path class="st0" d="M316.6,193.7c9.6-3.9,19.5-7.1,29.5-9.6"/>
<path class="st0" d="M376.7,178.7c10.3-1.1,20.7-1.4,31-1.1"/>
<path class="st0" d="M497.5,200c-9.3-4.5-18.9-8.4-28.8-11.6c-9.9-3.2-19.9-5.7-30.1-7.5"/>
<path class="st0" d="M570.4,257c-6.7-7.9-13.9-15.4-21.6-22.3c-7.7-6.9-15.9-13.3-24.5-19.1"/>
<path class="st0" d="M588.7,282.1c5.5,8.8,10.4,17.9,14.6,27.4c4.2,9.5,7.8,19.2,10.6,29.2c2.9,10,5,20.1,6.5,30.4
	c1.4,10.3,2.2,20.6,2.2,31c0,10.4-0.7,20.7-2.2,31"/>
<path class="st0" d="M625.3,431.7c1.5-10.5,2.2-21.1,2.2-31.7c0-10.6-0.7-21.2-2.2-31.7c-1.5-10.5-3.7-20.9-6.6-31
	s-6.5-20.1-10.9-29.8c-4.3-9.7-9.3-19-14.9-28"/>
<path class="st0" d="M618.7,462.7c-2.9,10.2-6.5,20.1-10.9,29.8"/>
<path class="st0" d="M574.3,546.2c-6.8,8.1-14.2,15.7-22,22.8"/>
<path class="st0" d="M527.2,588.6c-8.8,5.9-18,11.2-27.5,15.9c-9.5,4.6-19.4,8.6-29.4,11.9"/>
<path class="st0" d="M439.5,624c-10.4,1.8-21,2.9-31.6,3.3c-10.6,0.4-21.2,0-31.7-1.1c-10.5-1.1-21-2.9-31.3-5.5
	c-10.3-2.6-20.4-5.8-30.2-9.8"/>
<path class="st0" d="M177.5,447.3c2.2,10.4,5.1,20.6,8.7,30.5c3.6,10,7.9,19.6,12.9,29c5,9.4,10.6,18.3,16.8,26.9
	c6.2,8.6,13,16.7,20.4,24.3"/>
<path class="st0" d="M173.1,384.1c0.7-10.6,2.2-21.1,4.4-31.4"/>
<path class="st0" d="M186.2,322.2c3.6-10,7.9-19.6,12.9-29"/>
<path class="st0" d="M286.2,203c-9.2,5.3-18,11.2-26.3,17.7c-8.3,6.5-16.2,13.6-23.6,21.2c-7.4,7.6-14.2,15.7-20.4,24.3"/>
<path class="st0" d="M314.8,189.1c9.8-4,19.9-7.2,30.2-9.8"/>
<path class="st0" d="M376.2,173.7c10.5-1.1,21.1-1.5,31.7-1.1"/>
<path class="st0" d="M439.5,176c10.4,1.8,20.7,4.4,30.8,7.7c10.1,3.3,19.9,7.2,29.4,11.9"/>
<path class="st0" d="M527.2,211.4c8.8,5.9,17.1,12.5,25,19.5c7.9,7.1,15.2,14.7,22,22.8"/>
<path class="st0" d="M623.5,464.1c-3,10.4-6.7,20.6-11.1,30.5"/>
<path class="st0" d="M578.1,549.4c-7,8.3-14.5,16.1-22.5,23.3"/>
<path class="st0" d="M471.8,621.1c10.3-3.3,20.3-7.4,30.1-12.2c9.7-4.7,19.1-10.2,28.1-16.2"/>
<path class="st0" d="M312.9,615.6c10,4.1,20.3,7.4,30.8,10c10.5,2.6,21.2,4.5,31.9,5.6c10.8,1.1,21.6,1.5,32.4,1.1
	c10.8-0.4,21.6-1.5,32.3-3.4"/>
<path class="st0" d="M172.6,448.3c2.3,10.6,5.2,21,8.9,31.2c3.7,10.2,8.1,20.1,13.2,29.6c5.1,9.6,10.8,18.7,17.2,27.5
	c6.4,8.8,13.3,17.1,20.8,24.8"/>
<path class="st0" d="M168.1,383.8c0.8-10.8,2.3-21.5,4.5-32.1"/>
<path class="st0" d="M181.5,320.5c3.7-10.2,8.1-20.1,13.2-29.6"/>
<path class="st0" d="M211.9,263.3c6.4-8.8,13.3-17.1,20.8-24.8c7.5-7.8,15.6-15,24.1-21.7c8.5-6.7,17.5-12.7,26.9-18.1"/>
<path class="st0" d="M312.9,184.4c10-4.1,20.3-7.4,30.8-10"/>
<path class="st0" d="M375.7,168.8c10.8-1.1,21.6-1.5,32.4-1.1"/>
<path class="st0" d="M440.4,171c10.7,1.9,21.2,4.5,31.5,7.8c10.3,3.3,20.3,7.4,30.1,12.2"/>
<path class="st0" d="M578.1,250.6c-7-8.3-14.5-16.1-22.5-23.3c-8-7.2-16.6-13.9-25.6-20"/>
<path class="st0" d="M597.2,276.8c5.7,9.2,10.8,18.8,15.2,28.6c4.4,9.9,8.1,20.1,11.1,30.5s5.2,21,6.7,31.7
	c1.5,10.7,2.3,21.5,2.3,32.4c0,10.8-0.8,21.6-2.3,32.4"/>
<path class="st0" d="M635.2,433.1c1.5-11,2.3-22,2.3-33.1c0-11.1-0.8-22.1-2.3-33.1c-1.5-11-3.8-21.8-6.9-32.4
	c-3-10.6-6.8-21-11.3-31.1"/>
<path class="st0" d="M601.4,525.9c-5.9,9.4-12.4,18.3-19.5,26.8"/>
<path class="st0" d="M558.9,576.5c-8.2,7.4-16.9,14.2-26.1,20.4c-9.2,6.2-18.8,11.7-28.7,16.6"/>
<path class="st0" d="M473.4,625.9c-10.5,3.4-21.3,6.1-32.2,8c-10.9,1.9-21.9,3.1-33,3.5"/>
<path class="st0" d="M375.2,636.2c-11-1.2-21.9-3.1-32.6-5.8"/>
<path class="st0" d="M311,620.2c-10.3-4.1-20.2-9-29.8-14.5s-18.8-11.7-27.5-18.5s-16.9-14.2-24.6-22.2c-7.7-8-14.8-16.4-21.3-25.4
	s-12.4-18.3-17.6-28.1"/>
<path class="st0" d="M176.8,318.8c-3.8,10.4-6.8,21-9.1,31.9c-2.3,10.8-3.8,21.8-4.6,32.8s-0.8,22.1,0,33.1"/>
<path class="st0" d="M190.3,288.5c5.2-9.8,11.1-19.2,17.6-28.1s13.6-17.4,21.3-25.4"/>
<path class="st0" d="M253.8,212.8c8.7-6.8,17.9-13,27.5-18.5c9.6-5.5,19.5-10.4,29.8-14.5c10.3-4.1,20.8-7.6,31.5-10.2"/>
<path class="st0" d="M532.8,203.1c-9.2-6.2-18.8-11.7-28.7-16.6c-9.9-4.8-20.2-9-30.7-12.4c-10.5-3.4-21.3-6.1-32.2-8
	c-10.9-1.9-21.9-3.1-33-3.5c-11.1-0.4-22.1,0-33.1,1.2"/>
<path class="st0" d="M601.4,274.1c-5.9-9.4-12.4-18.3-19.5-26.8c-7.1-8.5-14.8-16.4-23-23.8"/>
<path class="st0" d="M640.1,433.7c1.6-11.2,2.4-22.5,2.4-33.7c0-11.3-0.8-22.6-2.4-33.7c-1.6-11.2-3.9-22.2-7-33.1
	c-3.1-10.9-7-21.5-11.6-31.8"/>
<path class="st0" d="M605.7,528.5c-6,9.6-12.6,18.7-19.9,27.4"/>
<path class="st0" d="M506.3,618c10.1-4.9,19.9-10.6,29.3-16.9c9.4-6.3,18.3-13.3,26.7-20.8"/>
<path class="st0" d="M408.5,642.4c11.3-0.4,22.5-1.6,33.6-3.5c11.1-2,22.1-4.7,32.8-8.2"/>
<path class="st0" d="M374.7,641.2c-11.2-1.2-22.4-3.1-33.3-5.9"/>
<path class="st0" d="M309.2,624.8c-10.5-4.2-20.6-9.2-30.4-14.8c-9.8-5.6-19.2-12-28-18.9c-8.9-7-17.3-14.5-25.1-22.6
	c-7.8-8.1-15.1-16.8-21.7-25.9c-6.6-9.1-12.6-18.7-17.9-28.7"/>
<path class="st0" d="M172.1,317.1c-3.9,10.6-7,21.5-9.3,32.5c-2.3,11-3.9,22.2-4.7,33.5s-0.8,22.6,0,33.8"/>
<path class="st0" d="M225.6,231.5c-7.8,8.1-15.1,16.8-21.7,25.9c-6.6,9.1-12.6,18.7-17.9,28.7"/>
<path class="st0" d="M341.3,164.7c-11,2.7-21.7,6.2-32.2,10.5c-10.5,4.2-20.6,9.2-30.4,14.8c-9.8,5.6-19.2,12-28,18.9"/>
<path class="st0" d="M374.7,158.8c11.2-1.2,22.5-1.6,33.8-1.2c11.3,0.4,22.5,1.6,33.6,3.5c11.1,2,22.1,4.7,32.8,8.2
	c10.7,3.5,21.2,7.7,31.4,12.7c10.1,4.9,19.9,10.6,29.3,16.9"/>
<path class="st0" d="M605.7,271.5c-6-9.6-12.6-18.7-19.9-27.4c-7.3-8.6-15.1-16.8-23.5-24.3"/>
<path class="st0" d="M609.9,531.2c-6.1,9.8-12.9,19.1-20.3,27.9"/>
<path class="st0" d="M565.6,583.9c-8.6,7.7-17.7,14.8-27.2,21.3c-9.6,6.4-19.5,12.2-29.9,17.3"/>
<path class="st0" d="M476.5,635.4c-11,3.6-22.2,6.4-33.5,8.4c-11.3,2-22.8,3.2-34.3,3.6"/>
<path class="st0" d="M374.1,646.1c-11.5-1.2-22.8-3.2-34-6"/>
<path class="st0" d="M181.5,516.2c5.4,10.2,11.5,20,18.3,29.3c6.8,9.3,14.2,18.2,22.2,26.5s16.6,16,25.7,23.1
	c9.1,7.1,18.6,13.5,28.6,19.3c10,5.8,20.4,10.8,31,15.1"/>
<path class="st0" d="M167.4,315.4c-3.9,10.8-7.1,21.9-9.5,33.2c-2.4,11.3-4,22.7-4.8,34.2c-0.8,11.5-0.8,23,0,34.5"/>
<path class="st0" d="M222,228.1c-8,8.3-15.4,17.1-22.2,26.5c-6.8,9.3-12.9,19.1-18.3,29.3"/>
<path class="st0" d="M247.6,205c9.1-7.1,18.6-13.5,28.6-19.3c10-5.8,20.4-10.8,31-15.1c10.7-4.3,21.7-7.9,32.8-10.7"/>
<path class="st0" d="M538.4,194.8c-9.6-6.4-19.5-12.2-29.9-17.3c-10.4-5.1-21.1-9.4-32-12.9c-11-3.6-22.2-6.4-33.5-8.4
	c-11.3-2-22.8-3.2-34.3-3.6c-11.5-0.4-23,0-34.5,1.2"/>
<path class="st0" d="M565.6,216.1c8.6,7.7,16.6,16,24,24.8s14.2,18.2,20.3,27.9"/>
<path class="st0" d="M626.1,299.3c4.7,10.5,8.6,21.4,11.8,32.4c3.2,11.1,5.6,22.4,7.2,33.8c1.6,11.4,2.4,22.9,2.4,34.4
	c0,11.5-0.8,23-2.4,34.4"/>
<path class="st0" d="M650,435.1c1.6-11.6,2.5-23.4,2.5-35.1c0-11.8-0.8-23.5-2.5-35.1c-1.6-11.6-4.1-23.2-7.3-34.5
	c-3.2-11.3-7.3-22.4-12-33.1"/>
<path class="st0" d="M614.1,533.8c-6.2,10-13.1,19.5-20.7,28.5"/>
<path class="st0" d="M510.7,626.9c10.6-5.2,20.8-11,30.5-17.6c9.7-6.6,19-13.8,27.8-21.7"/>
<path class="st0" d="M408.8,652.3c11.7-0.4,23.5-1.6,35-3.7c11.6-2,23-4.9,34.2-8.5"/>
<path class="st0" d="M373.6,651.1c-11.7-1.2-23.3-3.3-34.7-6.1"/>
<path class="st0" d="M177.1,518.5c5.5,10.4,11.8,20.4,18.7,29.9c6.9,9.5,14.5,18.5,22.6,27c8.2,8.5,16.9,16.3,26.2,23.6
	c9.3,7.2,19,13.8,29.2,19.7c10.2,5.9,20.8,11,31.7,15.4"/>
<path class="st0" d="M148.1,417.6c-0.8-11.7-0.8-23.5,0-35.2c0.8-11.7,2.5-23.4,4.9-34.9c2.4-11.5,5.7-22.8,9.7-33.9"/>
<path class="st0" d="M177.1,281.5c5.5-10.4,11.8-20.4,18.7-29.9c6.9-9.5,14.5-18.5,22.6-27"/>
<path class="st0" d="M338.9,155c-11.4,2.8-22.6,6.5-33.5,10.9c-10.9,4.4-21.5,9.6-31.7,15.4c-10.2,5.9-19.9,12.5-29.2,19.7"/>
<path class="st0" d="M373.6,148.9c11.7-1.2,23.5-1.6,35.2-1.2s23.5,1.6,35,3.7c11.6,2,23,4.9,34.2,8.5c11.2,3.6,22.1,8,32.7,13.2
	c10.6,5.2,20.8,11,30.5,17.6"/>
<path class="st0" d="M614.1,266.2c-6.2-10-13.1-19.5-20.7-28.5c-7.6-9-15.7-17.5-24.5-25.3"/>
<path class="st0" d="M618.4,536.5c-6.4,10.2-13.4,19.9-21.1,29.1"/>
<path class="st0" d="M572.3,591.4c-8.9,8-18.4,15.4-28.3,22.1c-9.9,6.7-20.3,12.7-31.1,18"/>
<path class="st0" d="M479.6,644.9c-11.4,3.7-23.1,6.6-34.9,8.7c-11.8,2.1-23.7,3.3-35.7,3.8"/>
<path class="st0" d="M373.1,656.1c-11.9-1.3-23.7-3.3-35.4-6.2"/>
<path class="st0" d="M172.6,520.9c5.6,10.6,12,20.8,19,30.5c7,9.7,14.8,18.9,23.1,27.5c8.3,8.6,17.2,16.7,26.7,24
	c9.4,7.4,19.4,14.1,29.8,20.1c10.4,6,21.2,11.3,32.3,15.7"/>
<path class="st0" d="M143.1,418c-0.8-12-0.8-24,0-35.9s2.5-23.8,5-35.6c2.5-11.7,5.8-23.3,9.9-34.5"/>
<path class="st0" d="M214.8,221.1c-8.3,8.6-16,17.8-23.1,27.5c-7,9.7-13.4,19.9-19,30.5"/>
<path class="st0" d="M241.5,197.1c9.4-7.4,19.4-14.1,29.8-20.1c10.4-6,21.2-11.3,32.3-15.7c11.1-4.5,22.5-8.2,34.2-11.1"/>
<path class="st0" d="M373.1,143.9c11.9-1.3,23.9-1.7,35.9-1.3c12,0.4,23.9,1.7,35.7,3.8c11.8,2.1,23.5,5,34.9,8.7
	c11.4,3.7,22.5,8.2,33.3,13.5c10.8,5.3,21.2,11.3,31.1,18"/>
<path class="st0" d="M572.3,208.6c8.9,8,17.2,16.7,25,25.8s14.8,18.9,21.1,29.1"/>
<path class="st0" d="M635.2,295.3c4.9,11,9,22.2,12.3,33.8s5.8,23.3,7.5,35.1c1.7,11.9,2.5,23.8,2.5,35.8c0,12-0.8,24-2.5,35.8"/>
<path class="st0" d="M659.9,436.5c1.7-12.1,2.6-24.3,2.6-36.5c0-12.2-0.9-24.4-2.6-36.5c-1.7-12.1-4.2-24.1-7.6-35.8
	c-3.4-11.7-7.6-23.2-12.5-34.4"/>
<path class="st0" d="M622.6,539.1c-6.5,10.4-13.7,20.3-21.5,29.6"/>
<path class="st0" d="M515.1,635.9c11-5.4,21.6-11.5,31.7-18.3c10.1-6.8,19.8-14.4,28.9-22.5"/>
<path class="st0" d="M409.2,662.3c12.2-0.4,24.4-1.7,36.4-3.8c12-2.1,23.9-5.1,35.5-8.9"/>
<path class="st0" d="M372.6,661.1c-12.2-1.3-24.2-3.4-36.1-6.4"/>
<path class="st0" d="M301.7,643.4c-11.3-4.6-22.3-9.9-32.9-16.1c-10.6-6.1-20.7-13-30.4-20.5c-9.6-7.5-18.7-15.7-27.2-24.5
	c-8.5-8.8-16.4-18.2-23.5-28.1c-7.2-9.9-13.7-20.3-19.4-31.1"/>
<path class="st0" d="M153.3,310.2c-4.2,11.5-7.6,23.2-10.1,35.2c-2.5,12-4.2,24.1-5.1,36.3c-0.9,12.2-0.9,24.4,0,36.6"/>
<path class="st0" d="M168.2,276.8c5.7-10.8,12.2-21.2,19.4-31.1c7.2-9.9,15-19.3,23.5-28.1"/>
<path class="st0" d="M336.5,145.3c-11.9,3-23.5,6.7-34.8,11.3c-11.3,4.6-22.3,9.9-32.9,16.1c-10.6,6.1-20.7,13-30.4,20.5"/>
<path class="st0" d="M546.8,182.4c-10.1-6.8-20.7-13-31.7-18.3c-11-5.4-22.3-9.9-34-13.7c-11.6-3.8-23.5-6.7-35.5-8.9
	c-12-2.1-24.2-3.4-36.4-3.8s-24.4,0-36.6,1.3"/>
<path class="st0" d="M575.6,204.9c9.1,8.2,17.6,17,25.4,26.3c7.9,9.4,15,19.3,21.5,29.6"/>
<path class="st0" d="M626.9,541.8c-6.6,10.6-13.9,20.7-21.9,30.2"/>
<path class="st0" d="M579,598.8c-9.3,8.3-19.1,16-29.4,23s-21.1,13.2-32.3,18.7"/>
<path class="st0" d="M482.7,654.4c-11.8,3.8-23.9,6.9-36.2,9s-24.7,3.5-37.1,3.9"/>
<path class="st0" d="M372,666c-12.4-1.3-24.7-3.5-36.8-6.5"/>
<path class="st0" d="M299.8,648c-11.5-4.7-22.8-10.1-33.5-16.4c-10.8-6.2-21.1-13.2-30.9-20.9c-9.8-7.7-19.1-16-27.7-25
	c-8.7-9-16.7-18.5-24-28.6c-7.3-10.1-13.9-20.7-19.8-31.6"/>
<path class="st0" d="M133.2,418.7c-0.9-12.4-0.9-24.9,0-37.3c0.9-12.4,2.6-24.8,5.2-37c2.6-12.2,6-24.2,10.3-35.9"/>
<path class="st0" d="M207.6,214.2c-8.7,9-16.7,18.5-24,28.6c-7.3,10.1-13.9,20.7-19.8,31.6"/>
<path class="st0" d="M235.3,189.2c9.8-7.7,20.2-14.6,30.9-20.9c10.8-6.2,22-11.7,33.5-16.4c11.5-4.7,23.4-8.5,35.5-11.5"/>
<path class="st0" d="M372,134c12.4-1.3,24.8-1.7,37.3-1.3s24.8,1.7,37.1,3.9c12.3,2.2,24.4,5.2,36.2,9c11.8,3.8,23.4,8.5,34.6,14
	c11.2,5.5,22,11.7,32.3,18.7"/>
<path class="st0" d="M579,201.2c9.3,8.3,17.9,17.3,25.9,26.8s15.3,19.6,21.9,30.2"/>
<path class="st0" d="M644.4,291.2c5.1,11.4,9.3,23.1,12.8,35.1c3.4,12,6,24.2,7.8,36.5c1.7,12.3,2.6,24.8,2.6,37.2
	c0,12.5-0.9,24.9-2.6,37.2"/>
<path class="st0" d="M631.1,544.4c-6.7,10.8-14.2,21-22.3,30.8"/>
<path class="st0" d="M519.5,644.9c11.4-5.6,22.4-11.9,32.9-19c10.5-7.1,20.5-14.9,30-23.4"/>
<path class="st0" d="M409.5,672.3c12.7-0.4,25.3-1.8,37.8-4c12.5-2.2,24.8-5.3,36.9-9.2"/>
<path class="st0" d="M371.5,671c-12.6-1.3-25.1-3.5-37.4-6.6"/>
<path class="st0" d="M159.4,527.9c6,11.2,12.7,22,20.1,32.2c7.5,10.3,15.6,20,24.4,29.1c8.8,9.1,18.3,17.6,28.3,25.4
	c10,7.8,20.5,14.9,31.5,21.3c11,6.3,22.4,11.9,34.2,16.7"/>
<path class="st0" d="M128.2,419c-0.9-12.7-0.9-25.4,0-38s2.7-25.2,5.3-37.6c2.6-12.4,6.1-24.6,10.5-36.5"/>
<path class="st0" d="M204,210.7c-8.8,9.1-17,18.9-24.4,29.1c-7.5,10.3-14.2,21-20.1,32.2"/>
<path class="st0" d="M334.1,135.6c-12.3,3.1-24.4,7-36.2,11.7c-11.8,4.8-23.2,10.3-34.2,16.7c-11,6.3-21.5,13.4-31.5,21.3"/>
<path class="st0" d="M552.4,174.1c-10.5-7.1-21.5-13.4-32.9-19s-23.2-10.3-35.2-14.2c-12.1-3.9-24.4-7-36.9-9.2
	c-12.5-2.2-25.1-3.5-37.8-4c-12.7-0.4-25.4,0-38,1.3"/>
<path class="st0" d="M631.1,255.6c-6.7-10.8-14.2-21-22.3-30.8c-8.2-9.7-17-18.9-26.4-27.3"/>
<path class="st0" d="M669.8,437.9c1.8-12.6,2.7-25.2,2.7-37.9c0-12.7-0.9-25.4-2.7-37.9c-1.8-12.6-4.4-25-7.9-37.2
	c-3.5-12.2-7.8-24.1-13-35.7"/>
<path class="st0" d="M674.8,438.6c-1.8,12.8-4.5,25.4-8,37.9c-3.6,12.4-8,24.6-13.2,36.4"/>
<path class="st0" d="M635.3,547.1c-6.8,11-14.5,21.4-22.8,31.3c-8.3,9.9-17.3,19.2-26.9,27.8c-9.6,8.6-19.8,16.6-30.5,23.8
	c-10.7,7.2-21.9,13.7-33.5,19.4c-11.6,5.7-23.6,10.5-35.9,14.5c-12.3,4-24.8,7.1-37.6,9.4"/>
<path class="st0" d="M371,676c-12.8-1.4-25.6-3.6-38.1-6.7"/>
<path class="st0" d="M261.2,640.3c-11.2-6.5-21.9-13.7-32.1-21.6c-10.2-8-19.8-16.6-28.8-25.9c-9-9.3-17.3-19.2-24.9-29.7
	c-7.6-10.5-14.4-21.4-20.5-32.8"/>
<path class="st0" d="M139.2,494.9c-4.4-12.1-8-24.6-10.7-37.2"/>
<path class="st0" d="M175.5,236.9c-7.6,10.5-14.4,21.4-20.5,32.8c-6.1,11.4-11.3,23.2-15.7,35.4c-4.4,12.1-8,24.6-10.7,37.2
	c-2.7,12.6-4.5,25.4-5.4,38.3c-0.9,12.9-0.9,25.8,0,38.7"/>
<path class="st0" d="M371,124c-12.8,1.4-25.6,3.6-38.1,6.7c-12.5,3.1-24.8,7.1-36.8,12c-12,4.8-23.6,10.5-34.8,17
	c-11.2,6.5-21.9,13.7-32.1,21.6c-10.2,8-19.8,16.6-28.8,25.9"/>
<path class="st0" d="M409.7,122.7c12.9,0.5,25.8,1.8,38.5,4c12.7,2.2,25.3,5.4,37.6,9.4c12.3,4,24.3,8.8,35.9,14.5"/>
<path class="st0" d="M635.3,252.9c6.8,11,12.9,22.4,18.2,34.2c5.3,11.8,9.7,24,13.2,36.4s6.3,25.1,8,37.9
	c1.8,12.8,2.7,25.7,2.7,38.6"/>
<path class="st0" d="M658.1,514.9c5.4-12,9.9-24.4,13.5-37c3.6-12.6,6.4-25.5,8.2-38.6"/>
<path class="st0" d="M449.1,678.2c13-2.3,25.7-5.5,38.2-9.5c12.5-4.1,24.7-9,36.5-14.8c11.8-5.8,23.2-12.4,34.1-19.7
	c10.9-7.4,21.3-15.5,31.1-24.3s18.9-18.3,27.4-28.4c8.5-10.1,16.2-20.7,23.2-31.9"/>
<path class="st0" d="M370.5,681c-13.1-1.4-26.1-3.7-38.8-6.8"/>
<path class="st0" d="M150.6,532.6c6.2,11.6,13.2,22.8,20.9,33.4c7.7,10.6,16.2,20.7,25.3,30.2c9.1,9.5,18.9,18.3,29.3,26.4
	c10.4,8.1,21.3,15.5,32.7,22"/>
<path class="st0" d="M134.5,496.6c-4.5-12.4-8.1-25-10.9-37.9"/>
<path class="st0" d="M171.5,234c-7.7,10.6-14.7,21.8-20.9,33.4c-6.2,11.6-11.5,23.6-16,36c-4.5,12.4-8.1,25-10.9,37.9
	c-2.7,12.9-4.6,25.9-5.5,39c-0.9,13.1-0.9,26.3,0,39.4"/>
<path class="st0" d="M370.5,119c-13.1,1.4-26.1,3.7-38.8,6.8c-12.8,3.2-25.3,7.3-37.5,12.2c-12.2,4.9-24,10.7-35.4,17.3
	c-11.4,6.6-22.3,13.9-32.7,22c-10.4,8.1-20.2,16.9-29.3,26.4"/>
<path class="st0" d="M409.9,117.7c13.1,0.5,26.2,1.8,39.2,4.1c13,2.3,25.7,5.5,38.2,9.5c12.5,4.1,24.7,9,36.5,14.8"/>
<path class="st0" d="M639.6,250.3c7,11.2,13.2,22.8,18.5,34.8c5.3,12,9.9,24.4,13.5,37s6.4,25.5,8.2,38.6c1.8,13,2.7,26.2,2.7,39.3"
	/>
<path class="st0" d="M684.7,440c-1.9,13.3-4.6,26.4-8.3,39.2c-3.7,12.9-8.3,25.5-13.7,37.7"/>
<path class="st0" d="M643.8,552.4c-7.1,11.4-15,22.2-23.6,32.4c-8.6,10.3-17.9,19.9-27.9,28.9c-9.9,9-20.5,17.2-31.6,24.7
	c-11.1,7.5-22.7,14.2-34.7,20.1c-12,5.9-24.5,10.9-37.2,15s-25.7,7.4-38.9,9.7"/>
<path class="st0" d="M369.9,685.9c-13.3-1.4-26.5-3.7-39.5-7"/>
<path class="st0" d="M256.2,649c-11.6-6.7-22.7-14.2-33.3-22.4c-10.5-8.2-20.5-17.2-29.8-26.8s-17.9-19.9-25.8-30.7
	s-15-22.2-21.3-34"/>
<path class="st0" d="M129.8,498.3c-4.6-12.6-8.3-25.5-11.1-38.6"/>
<path class="st0" d="M167.4,231c-7.9,10.8-15,22.2-21.3,34c-6.3,11.8-11.7,24.1-16.3,36.6c-4.6,12.6-8.3,25.5-11.1,38.6
	c-2.8,13.1-4.6,26.4-5.6,39.7c-0.9,13.4-0.9,26.8,0,40.1"/>
<path class="st0" d="M193.2,200.3c9.3-9.6,19.3-18.6,29.8-26.8c10.5-8.2,21.7-15.7,33.3-22.4c11.6-6.7,23.6-12.6,36.1-17.6
	c12.4-5,25.2-9.2,38.1-12.4c13-3.2,26.2-5.6,39.5-7"/>
<path class="st0" d="M410,112.7c13.4,0.5,26.7,1.9,39.9,4.2c13.2,2.3,26.2,5.6,38.9,9.7c12.7,4.1,25.2,9.2,37.2,15"/>
<path class="st0" d="M687.5,400c0-13.4-0.9-26.8-2.8-40s-4.6-26.4-8.3-39.2c-3.7-12.9-8.3-25.5-13.7-37.7
	c-5.4-12.2-11.7-24.1-18.8-35.4"/>
<path class="st0" d="M689.7,440.7c-1.9,13.5-4.7,26.8-8.5,39.9c-3.8,13.1-8.4,25.9-14,38.3"/>
<path class="st0" d="M648.1,555c-7.2,11.5-15.2,22.6-24,33s-18.2,20.2-28.3,29.4c-10.1,9.1-20.9,17.5-32.2,25.1
	c-11.3,7.6-23.1,14.4-35.3,20.4c-12.2,6-24.9,11.1-37.8,15.3c-13,4.2-26.2,7.5-39.6,9.9"/>
<path class="st0" d="M369.4,690.9c-13.5-1.4-27-3.8-40.2-7.1"/>
<path class="st0" d="M253.8,653.3c-11.8-6.8-23.1-14.4-33.8-22.8c-10.7-8.4-20.9-17.5-30.3-27.3c-9.5-9.8-18.2-20.2-26.2-31.3
	c-8-11-15.2-22.6-21.6-34.6"/>
<path class="st0" d="M125.1,500c-4.7-12.8-8.4-25.9-11.2-39.2"/>
<path class="st0" d="M108.2,420.4c-1-13.6-1-27.2,0-40.8c1-13.6,2.8-27.1,5.7-40.4c2.8-13.3,6.6-26.4,11.2-39.2
	c4.7-12.8,10.2-25.3,16.6-37.3c6.4-12,13.6-23.6,21.6-34.6"/>
<path class="st0" d="M369.4,109.1c-13.5,1.4-27,3.8-40.2,7.1c-13.2,3.3-26.2,7.5-38.8,12.6c-12.6,5.1-24.9,11.1-36.7,17.9
	s-23.1,14.4-33.8,22.8c-10.7,8.4-20.9,17.5-30.3,27.3"/>
<path class="st0" d="M528.2,137.1c-12.2-6-24.9-11.1-37.8-15.3c-13-4.2-26.2-7.5-39.6-9.9c-13.4-2.4-27-3.8-40.6-4.3"/>
<path class="st0" d="M648.1,245c7.2,11.5,13.6,23.6,19.2,36c5.5,12.4,10.2,25.3,14,38.3c3.8,13.1,6.6,26.4,8.5,39.9
	c1.9,13.5,2.8,27.1,2.8,40.7"/>
<path class="st0" d="M671.8,521c5.6-12.7,10.4-25.7,14.2-39c3.8-13.3,6.7-26.9,8.6-40.6"/>
<path class="st0" d="M451.7,693c13.6-2.4,27.1-5.8,40.3-10c13.2-4.3,26-9.5,38.5-15.5s24.5-13,35.9-20.8
	c11.5-7.7,22.4-16.3,32.7-25.6c10.3-9.3,19.9-19.2,28.8-29.9s17.1-21.8,24.4-33.6"/>
<path class="st0" d="M368.9,695.9c-13.8-1.4-27.4-3.9-40.9-7.2"/>
<path class="st0" d="M137.3,539.7c6.5,12.2,13.9,24,22,35.2c8.1,11.2,17.1,21.8,26.7,31.8c9.6,10,19.9,19.2,30.8,27.8
	c10.9,8.5,22.4,16.3,34.4,23.2"/>
<path class="st0" d="M120.4,501.8c-4.7-13-8.6-26.3-11.4-39.9"/>
<path class="st0" d="M103.2,420.8c-1-13.8-1-27.7,0-41.5s2.9-27.6,5.8-41.1c2.9-13.5,6.7-26.9,11.4-39.9c4.7-13,10.4-25.7,16.9-37.9
	c6.5-12.2,13.9-24,22-35.2"/>
<path class="st0" d="M368.9,104.1c-13.8,1.4-27.4,3.9-40.9,7.2c-13.4,3.4-26.6,7.6-39.5,12.8c-12.8,5.2-25.3,11.3-37.3,18.2
	c-12,6.9-23.5,14.7-34.4,23.2c-10.9,8.5-21.2,17.8-30.8,27.8"/>
<path class="st0" d="M410.4,102.7c13.8,0.5,27.6,1.9,41.3,4.3c13.6,2.4,27.1,5.8,40.3,10c13.2,4.3,26,9.5,38.5,15.5"/>
<path class="st0" d="M697.5,400c0-13.9-1-27.7-2.9-41.4c-1.9-13.7-4.8-27.3-8.6-40.6c-3.8-13.3-8.6-26.3-14.2-39
	c-5.6-12.7-12.1-24.9-19.5-36.6"/>
<path class="st0" d="M699.6,442.1c-2,13.9-4.9,27.7-8.8,41.3c-3.9,13.5-8.7,26.8-14.4,39.7"/>
<path class="st0" d="M452.5,697.9c13.9-2.4,27.6-5.9,40.9-10.2c13.4-4.4,26.5-9.6,39.1-15.8c12.7-6.2,24.9-13.2,36.5-21.1
	c11.7-7.9,22.8-16.6,33.3-26c10.5-9.4,20.3-19.6,29.3-30.4c9.1-10.8,17.3-22.2,24.8-34.1"/>
<path class="st0" d="M368.4,700.8c-14-1.5-27.9-3.9-41.6-7.3"/>
<path class="st0" d="M132.9,542c6.6,12.4,14.1,24.4,22.4,35.8c8.3,11.4,17.3,22.2,27.1,32.3c9.8,10.1,20.3,19.6,31.4,28.2
	c11.1,8.7,22.8,16.6,35,23.6"/>
<path class="st0" d="M115.7,503.5c-4.8-13.2-8.7-26.8-11.6-40.6"/>
<path class="st0" d="M98.2,421.1c-1-14.1-1-28.2,0-42.2c1-14.1,2.9-28,5.9-41.8c2.9-13.8,6.8-27.3,11.6-40.6
	c4.8-13.2,10.6-26.1,17.2-38.6c6.6-12.4,14.1-24.4,22.4-35.8"/>
<path class="st0" d="M368.4,99.2c-14,1.5-27.9,3.9-41.6,7.3c-13.7,3.4-27.1,7.8-40.1,13S260.9,131,248.8,138
	c-12.2,7-23.9,14.9-35,23.6c-11.1,8.7-21.6,18.1-31.4,28.2"/>
<path class="st0" d="M532.6,128.1c-12.7-6.2-25.7-11.5-39.1-15.8s-27.1-7.8-40.9-10.2c-13.9-2.4-27.9-3.9-42-4.4"/>
<path class="st0" d="M656.5,239.7c7.5,11.9,14.1,24.4,19.8,37.3c5.7,12.9,10.6,26.1,14.4,39.7c3.9,13.5,6.8,27.3,8.8,41.3
	c2,13.9,2.9,28,2.9,42.1"/>
<path class="st0" d="M704.5,442.8c-2,14.2-5,28.2-8.9,42c-3.9,13.8-8.8,27.2-14.7,40.3"/>
<path class="st0" d="M660.8,563c-7.6,12.1-16,23.7-25.2,34.7c-9.2,11-19.2,21.3-29.8,30.9c-10.6,9.6-21.9,18.4-33.8,26.4
	c-11.9,8-24.3,15.2-37.2,21.5c-12.9,6.3-26.2,11.6-39.8,16.1s-27.5,7.9-41.6,10.4"/>
<path class="st0" d="M367.9,705.8c-14.2-1.5-28.4-4-42.2-7.4"/>
<path class="st0" d="M246.2,666.3c-12.4-7.2-24.3-15.2-35.6-24c-11.3-8.8-21.9-18.4-31.9-28.7c-9.9-10.3-19.2-21.3-27.6-32.9
	c-8.4-11.6-16-23.7-22.7-36.4"/>
<path class="st0" d="M111,505.2c-4.9-13.5-8.8-27.2-11.8-41.2"/>
<path class="st0" d="M93.2,421.5c-1-14.3-1-28.6,0-42.9c1-14.3,3-28.5,6-42.5c3-14,6.9-27.8,11.8-41.2c4.9-13.5,10.7-26.5,17.4-39.2
	c6.7-12.6,14.3-24.8,22.7-36.4"/>
<path class="st0" d="M367.9,94.2c-14.2,1.5-28.4,4-42.2,7.4c-13.9,3.5-27.5,7.9-40.8,13.3c-13.3,5.4-26.2,11.6-38.6,18.8
	c-12.4,7.2-24.3,15.2-35.6,24c-11.3,8.8-21.9,18.4-31.9,28.7"/>
<path class="st0" d="M410.7,92.7c14.3,0.5,28.6,2,42.7,4.5s28,6,41.6,10.4c13.6,4.4,26.9,9.8,39.8,16.1"/>
<path class="st0" d="M660.8,237c7.6,12.1,14.3,24.8,20.1,37.9c5.8,13.1,10.7,26.6,14.7,40.3c3.9,13.8,6.9,27.8,8.9,42
	c2,14.2,3,28.5,3,42.8"/>
<path class="st0" d="M709.5,443.5c-2,14.4-5.1,28.7-9.1,42.6c-4,14-9,27.7-14.9,41"/>
<path class="st0" d="M665,565.6c-7.7,12.3-16.3,24.1-25.6,35.3c-9.4,11.1-19.5,21.6-30.3,31.4c-10.8,9.7-22.3,18.7-34.4,26.8
	s-24.7,15.4-37.8,21.8c-13.1,6.4-26.6,11.8-40.4,16.3c-13.8,4.5-28,8-42.3,10.5"/>
<path class="st0" d="M367.3,710.8c-14.5-1.5-28.8-4.1-42.9-7.6"/>
<path class="st0" d="M124.1,546.7c6.8,12.8,14.6,25.2,23.1,37c8.6,11.8,17.9,22.9,28,33.4c10.1,10.5,20.9,20.2,32.4,29.2
	c11.5,9,23.5,17.1,36.1,24.4"/>
<path class="st0" d="M106.3,506.9c-5-13.7-9-27.7-12-41.9"/>
<path class="st0" d="M147.2,216.3c-8.6,11.8-16.3,24.1-23.1,37c-6.8,12.8-12.8,26.2-17.7,39.8c-5,13.7-9,27.7-12,41.9
	c-3,14.2-5.1,28.7-6.1,43.2s-1,29.1,0,43.6"/>
<path class="st0" d="M367.3,89.2c-14.5,1.5-28.8,4.1-42.9,7.6c-14.1,3.5-28,8-41.5,13.5c-13.5,5.5-26.6,11.8-39.2,19.1
	c-12.6,7.3-24.7,15.4-36.1,24.4c-11.5,9-22.3,18.7-32.4,29.2"/>
<path class="st0" d="M537,119.1c-13.1-6.4-26.6-11.8-40.4-16.3c-13.8-4.5-28-8-42.3-10.5c-14.3-2.5-28.8-4-43.4-4.6"/>
<path class="st0" d="M665,234.4c7.7,12.3,14.5,25.2,20.5,38.5c5.9,13.3,10.9,27,14.9,41c4,14,7,28.2,9.1,42.6c2,14.4,3,28.9,3,43.5"
	/>
<path class="st0" d="M717.5,400c0,14.8-1,29.5-3.1,44.2"/>
<path class="st0" d="M690.1,529.1c-6,13.5-13,26.6-20.8,39.1"/>
<path class="st0" d="M539.2,685.4c13.3-6.5,26.1-13.9,38.4-22.1c12.3-8.3,23.9-17.4,34.9-27.3c11-9.9,21.3-20.5,30.8-31.9"/>
<path class="st0" d="M323.2,708.1c14.3,3.6,28.9,6.1,43.6,7.7c14.7,1.5,29.5,2.1,44.3,1.5c14.8-0.5,29.5-2.1,44.1-4.6"/>
<path class="st0" d="M241.2,675c-12.8-7.4-25.1-15.7-36.7-24.8c-11.6-9.1-22.6-19-32.9-29.6c-10.3-10.6-19.8-22-28.5-33.9
	c-8.7-12-16.5-24.5-23.5-37.6"/>
<path class="st0" d="M101.6,508.6c-5.1-13.9-9.1-28.1-12.2-42.6"/>
<path class="st0" d="M101.6,291.4c5.1-13.9,11.1-27.4,18-40.5c6.9-13.1,14.8-25.6,23.5-37.6c8.7-12,18.2-23.3,28.5-33.9
	s21.3-20.5,32.9-29.6"/>
<path class="st0" d="M241.2,125c12.8-7.4,26.1-13.9,39.8-19.4c13.7-5.5,27.8-10.1,42.1-13.7"/>
<path class="st0" d="M366.8,84.2c14.7-1.5,29.5-2.1,44.3-1.5"/>
<path class="st0" d="M498.1,98c14.1,4.6,27.8,10.1,41.1,16.6"/>
<path class="st0" d="M577.5,136.8c12.3,8.3,23.9,17.4,34.9,27.3"/>
<path class="st0" d="M705.2,312.5c4.1,14.2,7.2,28.7,9.2,43.3"/>
<path class="st0" d="M722.5,400c0,15-1,30-3.1,44.9"/>
<path class="st0" d="M694.6,531.2c-6.1,13.7-13.2,27-21.1,39.7"/>
<path class="st0" d="M541.4,689.9c13.5-6.6,26.5-14.1,39-22.5c12.4-8.4,24.3-17.7,35.5-27.7s21.6-20.9,31.3-32.4"/>
<path class="st0" d="M456,717.6c-14.8,2.6-29.7,4.2-44.7,4.7c-15,0.5-30,0-45-1.6c-14.9-1.6-29.7-4.2-44.3-7.8"/>
<path class="st0" d="M115.2,551.4c7,13.3,15,26,23.8,38.2c8.8,12.1,18.5,23.7,28.9,34.5c10.4,10.8,21.6,20.9,33.4,30.1
	c11.8,9.2,24.3,17.7,37.3,25.2"/>
<path class="st0" d="M96.9,510.3c-5.1-14.1-9.3-28.6-12.4-43.2"/>
<path class="st0" d="M201.4,145.9c-11.8,9.2-23,19.3-33.4,30.1c-10.4,10.8-20.1,22.3-28.9,34.5c-8.8,12.1-16.8,24.9-23.8,38.2
	c-7,13.3-13.2,27-18.3,41.1"/>
<path class="st0" d="M322,87.1c-14.6,3.6-28.9,8.3-42.8,13.9c-13.9,5.6-27.4,12.2-40.4,19.7"/>
<path class="st0" d="M366.3,79.3c14.9-1.6,30-2.1,45-1.6"/>
<path class="st0" d="M499.7,93.3c14.3,4.6,28.2,10.3,41.7,16.9"/>
<path class="st0" d="M580.3,132.6c12.4,8.4,24.3,17.7,35.5,27.7"/>
<path class="st0" d="M710,311.1c4.1,14.4,7.3,29.1,9.4,44"/>
<path class="st0" d="M727.5,400c0,15.2-1.1,30.5-3.2,45.6"/>
<path class="st0" d="M699.2,533.2c-6.2,13.9-13.4,27.4-21.5,40.3"/>
<path class="st0" d="M543.6,694.4c13.7-6.7,26.9-14.3,39.6-22.8s24.7-17.9,36-28.1c11.3-10.2,21.9-21.2,31.7-32.9"/>
<path class="st0" d="M456.9,722.5c-15,2.6-30.2,4.2-45.4,4.8c-15.2,0.5-30.5,0-45.7-1.6c-15.2-1.6-30.2-4.2-45-7.9"/>
<path class="st0" d="M110.8,553.8c7.2,13.5,15.2,26.4,24.2,38.7c9,12.3,18.8,24,29.4,35c10.6,11,21.9,21.2,34,30.6
	c12,9.4,24.7,17.9,37.9,25.5"/>
<path class="st0" d="M92.3,512c-5.2-14.3-9.4-29-12.6-43.9"/>
<path class="st0" d="M198.4,141.9c-12,9.4-23.4,19.6-34,30.6c-10.6,11-20.4,22.7-29.4,35c-9,12.3-17.1,25.3-24.2,38.7
	c-7.2,13.5-13.4,27.4-18.6,41.7"/>
<path class="st0" d="M236.2,116.4c13.2-7.6,26.9-14.3,41.1-20c14.1-5.7,28.7-10.4,43.5-14.1"/>
<path class="st0" d="M365.8,74.3c15.2-1.6,30.4-2.1,45.7-1.6"/>
<path class="st0" d="M501.2,88.5c14.5,4.7,28.7,10.4,42.4,17.1"/>
<path class="st0" d="M583.1,128.5c12.6,8.5,24.7,17.9,36,28.1"/>
<path class="st0" d="M714.8,309.7c4.2,14.7,7.4,29.6,9.5,44.7"/>
<path class="st0" d="M732.5,400c0,15.5-1.1,30.9-3.2,46.3"/>
<path class="st0" d="M703.8,535.2c-6.3,14.1-13.6,27.8-21.8,41"/>
<path class="st0" d="M545.8,698.8c13.9-6.8,27.3-14.5,40.2-23.2c12.8-8.7,25-18.2,36.6-28.6c11.5-10.4,22.3-21.5,32.2-33.4"/>
<path class="st0" d="M319.6,722.6c15,3.7,30.3,6.4,45.7,8.1c15.4,1.6,30.9,2.2,46.4,1.6c15.5-0.5,30.9-2.2,46.1-4.8"/>
<path class="st0" d="M106.4,556.1c7.3,13.7,15.5,26.8,24.6,39.3c9.1,12.5,19.1,24.4,29.8,35.5c10.8,11.1,22.3,21.5,34.5,31
	c12.2,9.5,25.1,18.2,38.5,25.9"/>
<path class="st0" d="M87.6,513.7c-5.3-14.5-9.6-29.4-12.8-44.6"/>
<path class="st0" d="M195.3,138c-12.2,9.5-23.7,19.9-34.5,31s-20.7,23-29.8,35.5c-9.1,12.5-17.3,25.7-24.6,39.3
	s-13.6,27.8-18.9,42.4"/>
<path class="st0" d="M319.6,77.4c-15,3.7-29.8,8.5-44.1,14.3c-14.4,5.8-28.3,12.6-41.7,20.3"/>
<path class="st0" d="M365.2,69.3c15.4-1.6,30.9-2.2,46.4-1.6"/>
<path class="st0" d="M502.7,83.8c14.7,4.8,29.1,10.6,43,17.4"/>
<path class="st0" d="M585.9,124.3c12.8,8.7,25,18.2,36.6,28.6"/>
<path class="st0" d="M719.6,308.4c4.3,14.9,7.5,30,9.6,45.4"/>
<path class="st0" d="M737.5,400c0,15.7-1.1,31.4-3.3,47"/>
<path class="st0" d="M708.3,537.3c-6.4,14.4-13.8,28.2-22.1,41.6"/>
<path class="st0" d="M658.5,616.9c-10.1,12-21,23.4-32.7,33.9s-24.1,20.2-37.1,29s-26.7,16.7-40.8,23.5"/>
<path class="st0" d="M458.6,732.4c-15.5,2.7-31.1,4.4-46.8,4.9c-15.7,0.5-31.4,0-47.1-1.6c-15.6-1.6-31.1-4.4-46.4-8.2"/>
<path class="st0" d="M102,558.4c7.4,13.9,15.7,27.2,25,39.9c9.2,12.7,19.3,24.8,30.3,36.1c10.9,11.3,22.6,21.8,35,31.5
	c12.4,9.7,25.4,18.5,39,26.3"/>
<path class="st0" d="M82.9,515.4c-5.4-14.8-9.7-29.9-13-45.3"/>
<path class="st0" d="M82.9,284.6c5.4-14.8,11.8-29.1,19.2-43c7.4-13.9,15.7-27.2,25-39.9c9.2-12.7,19.3-24.8,30.3-36.1
	c10.9-11.3,22.6-21.8,35-31.5"/>
<path class="st0" d="M231.2,107.7c13.6-7.9,27.8-14.8,42.3-20.6c14.6-5.9,29.5-10.7,44.8-14.6"/>
<path class="st0" d="M364.7,64.3c15.6-1.6,31.4-2.2,47.1-1.6"/>
<path class="st0" d="M504.3,79c14.9,4.9,29.5,10.7,43.7,17.6"/>
<path class="st0" d="M588.7,120.2c13,8.8,25.4,18.5,37.1,29"/>
<path class="st0" d="M724.4,307c4.3,15.1,7.6,30.5,9.8,46.1"/>
<path class="st0" d="M742.5,400c0,15.9-1.1,31.9-3.3,47.7"/>
<path class="st0" d="M712.9,539.3c-6.5,14.6-14,28.7-22.4,42.2"/>
<path class="st0" d="M662.4,620.2c-10.3,12.2-21.3,23.7-33.2,34.4c-11.9,10.7-24.4,20.5-37.7,29.4c-13.2,8.9-27,16.9-41.4,23.9"/>
<path class="st0" d="M459.5,737.3c-15.7,2.8-31.6,4.4-47.5,5s-31.9,0-47.8-1.7c-15.9-1.7-31.6-4.4-47.1-8.3"/>
<path class="st0" d="M97.6,560.8c7.5,14.1,15.9,27.6,25.3,40.5c9.4,12.9,19.6,25.1,30.7,36.6c11.1,11.5,22.9,22.2,35.5,32
	c12.6,9.8,25.8,18.7,39.6,26.7"/>
<path class="st0" d="M78.2,517.1c-5.5-15-9.9-30.3-13.2-45.9"/>
<path class="st0" d="M189.1,130.1c-12.6,9.8-24.4,20.5-35.5,32c-11.1,11.5-21.3,23.7-30.7,36.6c-9.4,12.9-17.8,26.4-25.3,40.5
	c-7.5,14.1-14,28.7-19.4,43.7"/>
<path class="st0" d="M317.1,67.7c-15.5,3.9-30.7,8.8-45.4,14.8c-14.8,6-29.1,13-42.9,20.9"/>
<path class="st0" d="M364.2,59.4c15.9-1.7,31.8-2.2,47.8-1.7"/>
<path class="st0" d="M505.8,74.3c15.2,4.9,30,10.9,44.3,17.9"/>
<path class="st0" d="M591.5,116.1c13.2,8.9,25.8,18.7,37.7,29.4"/>
<path class="st0" d="M729.2,305.6c4.4,15.3,7.7,30.9,9.9,46.7"/>
<path class="st0" d="M747.5,400c0,16.2-1.1,32.3-3.4,48.4"/>
<path class="st0" d="M717.5,541.3c-6.6,14.8-14.2,29.1-22.8,42.8"/>
<path class="st0" d="M552.3,712.3c14.5-7.1,28.6-15.2,42-24.2s26.2-19,38.2-29.8c12-10.8,23.3-22.5,33.7-34.9"/>
<path class="st0" d="M315.9,737.2c15.7,3.9,31.7,6.7,47.7,8.4c16.1,1.7,32.3,2.3,48.5,1.7c16.2-0.6,32.3-2.3,48.2-5.1"/>
<path class="st0" d="M93.2,563.1c7.6,14.3,16.2,28,25.7,41.1c9.5,13.1,19.9,25.5,31.2,37.1c11.2,11.6,23.3,22.5,36,32.4
	s26.2,19,40.2,27.1"/>
<path class="st0" d="M73.5,518.9c-5.5-15.2-10-30.8-13.4-46.6"/>
<path class="st0" d="M73.5,281.1c5.5-15.2,12.1-30,19.7-44.3c7.6-14.3,16.2-28,25.7-41.1c9.5-13.1,19.9-25.5,31.2-37.1
	c11.2-11.6,23.3-22.5,36-32.4"/>
<path class="st0" d="M226.2,99.1c14-8.1,28.6-15.2,43.6-21.3c15-6.1,30.4-11.1,46.1-15"/>
<path class="st0" d="M363.7,54.4c16.1-1.7,32.3-2.3,48.5-1.7"/>
<path class="st0" d="M507.4,69.5c15.4,5,30.4,11.1,45,18.2"/>
<path class="st0" d="M594.3,111.9c13.4,9,26.2,19,38.2,29.8"/>
<path class="st0" d="M734,304.2c4.5,15.6,7.8,31.4,10.1,47.4"/>
<path class="st0" d="M752.5,400c0,16.4-1.1,32.8-3.4,49.1"/>
<path class="st0" d="M722,543.4c-6.7,15-14.4,29.5-23.1,43.4"/>
<path class="st0" d="M670,626.6c-10.5,12.6-22,24.4-34.2,35.4c-12.2,11-25.1,21.1-38.8,30.3c-13.6,9.2-27.8,17.4-42.6,24.6"/>
<path class="st0" d="M314.7,742c15.9,4,32.1,6.8,48.4,8.5c16.3,1.7,32.7,2.3,49.1,1.7c16.4-0.6,32.7-2.3,48.9-5.1"/>
<path class="st0" d="M223.8,705.3c-14.2-8.2-27.8-17.4-40.8-27.5c-12.9-10.1-25.1-21.1-36.5-32.9c-11.4-11.8-22-24.4-31.6-37.7
	c-9.6-13.3-18.4-27.2-26.1-41.7"/>
<path class="st0" d="M68.8,520.6c-5.6-15.4-10.1-31.2-13.6-47.3"/>
<path class="st0" d="M183,122.2c-12.9,10.1-25.1,21.1-36.5,32.9c-11.4,11.8-22,24.4-31.6,37.7c-9.6,13.3-18.4,27.2-26.1,41.7
	c-7.7,14.5-14.4,29.5-20,44.9"/>
<path class="st0" d="M223.8,94.7c14.2-8.2,29-15.4,44.2-21.6c15.2-6.1,30.8-11.2,46.8-15.2"/>
<path class="st0" d="M363.2,49.4c16.3-1.7,32.7-2.3,49.1-1.7"/>
<path class="st0" d="M508.9,64.8c15.6,5.1,30.8,11.2,45.6,18.4"/>
<path class="st0" d="M597.1,107.8c13.6,9.2,26.6,19.3,38.8,30.3"/>
<path class="st0" d="M738.8,302.8c4.5,15.8,7.9,31.9,10.2,48.1"/>
<path class="st0" d="M754,449.8c-2.3,16.5-5.8,32.8-10.4,48.8"/>
<path class="st0" d="M726.6,545.4c-6.8,15.2-14.6,29.9-23.4,44"/>
<path class="st0" d="M510.5,740c15.8-5.1,31.3-11.4,46.2-18.7s29.4-15.6,43.2-24.9c13.8-9.3,26.9-19.6,39.3-30.7"/>
<path class="st0" d="M313.5,746.9c-16.2-4-32-9.2-47.4-15.4"/>
<path class="st0" d="M179.9,681.7c-13.1-10.2-25.5-21.4-37.1-33.4"/>
<path class="st0" d="M110.8,189.9c-9.8,13.5-18.6,27.6-26.4,42.3c-7.8,14.7-14.6,29.9-20.3,45.6c-5.7,15.6-10.3,31.7-13.7,47.9
	c-3.5,16.3-5.8,32.8-6.9,49.4c-1.2,16.6-1.2,33.3,0,49.9"/>
<path class="st0" d="M142.8,151.7c11.6-12,23.9-23.1,37.1-33.4"/>
<path class="st0" d="M266.1,68.5c15.4-6.2,31.3-11.4,47.4-15.4"/>
<path class="st0" d="M362.6,44.5c16.6-1.7,33.2-2.3,49.8-1.7"/>
<path class="st0" d="M462.1,47.9c16.4,2.9,32.6,6.9,48.4,12.1"/>
<path class="st0" d="M556.7,78.7c15,7.3,29.4,15.6,43.2,24.9"/>
<path class="st0" d="M639.2,134.3c12.4,11.1,23.9,23.1,34.6,35.9c10.7,12.8,20.5,26.2,29.3,40.4c8.8,14.1,16.6,28.8,23.4,44"/>
<path class="st0" d="M754,350.2c2.3,16.5,3.5,33.1,3.5,49.8"/>
<path class="st0" d="M759,450.5c-2.3,16.7-5.9,33.2-10.5,49.5"/>
<path class="st0" d="M731.2,547.4c-6.9,15.4-14.8,30.3-23.7,44.7"/>
<path class="st0" d="M642.6,669.4c-12.5,11.3-25.9,21.7-39.9,31.1c-14,9.4-28.6,17.9-43.8,25.3s-30.8,13.7-46.9,18.9"/>
<path class="st0" d="M312.3,751.7c-16.4-4.1-32.4-9.3-48.1-15.6"/>
<path class="st0" d="M176.8,685.7c-13.3-10.4-25.9-21.7-37.6-33.8"/>
<path class="st0" d="M106.7,186.9c-9.9,13.7-18.9,28-26.8,42.9C72,244.7,65.1,260.2,59.4,276c-5.8,15.9-10.4,32.1-13.9,48.6
	c-3.5,16.5-5.9,33.2-7,50.1c-1.2,16.8-1.2,33.7,0,50.6"/>
<path class="st0" d="M139.2,148.2c11.7-12.1,24.3-23.4,37.6-33.8"/>
<path class="st0" d="M264.2,63.9c15.6-6.3,31.7-11.5,48.1-15.6"/>
<path class="st0" d="M362.1,39.5c16.8-1.8,33.7-2.4,50.5-1.8"/>
<path class="st0" d="M462.9,43c16.6,2.9,33,7,49.1,12.2"/>
<path class="st0" d="M558.9,74.2c15.2,7.4,29.8,15.8,43.8,25.3"/>
<path class="st0" d="M642.6,130.6c12.5,11.3,24.3,23.4,35.1,36.4s20.8,26.6,29.7,40.9c8.9,14.3,16.9,29.2,23.7,44.7"/>
<path class="st0" d="M759,349.5c2.3,16.7,3.5,33.6,3.5,50.5"/>
<path class="st0" d="M763.9,451.1c-2.4,16.9-5.9,33.7-10.7,50.2"/>
<path class="st0" d="M735.7,549.5c-7,15.6-15,30.8-24.1,45.3"/>
<path class="st0" d="M513.6,749.5c16.3-5.3,32.2-11.7,47.5-19.2c15.4-7.5,30.2-16.1,44.4-25.6c14.2-9.6,27.7-20.1,40.4-31.6"/>
<path class="st0" d="M311.1,756.6c-16.6-4.1-32.9-9.4-48.8-15.8"/>
<path class="st0" d="M173.7,689.6c-13.5-10.5-26.2-22-38.1-34.3"/>
<path class="st0" d="M33.4,425.6c-1.2-17.1-1.2-34.2,0-51.3c1.2-17.1,3.6-34,7.1-50.8c3.6-16.7,8.3-33.2,14.1-49.3
	c5.9-16.1,12.8-31.7,20.9-46.8s17.1-29.6,27.2-43.5"/>
<path class="st0" d="M135.6,144.7c11.9-12.3,24.6-23.8,38.1-34.3"/>
<path class="st0" d="M262.3,59.3c15.9-6.4,32.2-11.7,48.8-15.8"/>
<path class="st0" d="M361.6,34.5c17-1.8,34.1-2.4,51.2-1.8"/>
<path class="st0" d="M463.8,38.1c16.9,3,33.5,7.1,49.7,12.4"/>
<path class="st0" d="M561.1,69.7c15.4,7.5,30.2,16.1,44.4,25.6"/>
<path class="st0" d="M645.9,126.9c12.7,11.4,24.6,23.8,35.6,36.9c11,13.1,21.1,27,30.1,41.5c9.1,14.5,17.1,29.6,24.1,45.3"/>
<path class="st0" d="M763.9,348.9c2.4,16.9,3.6,34,3.6,51.1"/>
<path class="st0" d="M768.9,451.8c-2.4,17.2-6,34.2-10.8,50.8"/>
<path class="st0" d="M740.3,551.5c-7.1,15.8-15.2,31.2-24.4,45.9"/>
<path class="st0" d="M515.1,754.3c16.5-5.4,32.6-11.9,48.2-19.5c15.6-7.6,30.6-16.3,45-26c14.4-9.7,28.1-20.4,41-32"/>
<path class="st0" d="M309.9,761.4c-16.8-4.2-33.3-9.6-49.4-16.1"/>
<path class="st0" d="M170.7,693.5c-13.7-10.7-26.6-22.3-38.6-34.8"/>
<path class="st0" d="M28.4,426c-1.2-17.3-1.2-34.7,0-52c1.2-17.3,3.6-34.5,7.2-51.5c3.6-17,8.4-33.7,14.3-50
	c5.9-16.3,13-32.2,21.1-47.5c8.1-15.3,17.3-30,27.5-44.1"/>
<path class="st0" d="M132,141.2c12-12.5,25-24.1,38.6-34.8"/>
<path class="st0" d="M260.5,54.6c16.1-6.5,32.6-11.9,49.4-16.1"/>
<path class="st0" d="M361.1,29.5c17.2-1.8,34.6-2.4,51.9-1.8"/>
<path class="st0" d="M464.7,33.2c17.1,3,33.9,7.2,50.4,12.6"/>
<path class="st0" d="M563.3,65.2c15.6,7.6,30.6,16.3,45,26"/>
<path class="st0" d="M740.3,248.5c-7.1-15.8-15.2-31.2-24.4-45.9c-9.2-14.7-19.4-28.8-30.5-42c-11.1-13.3-23.2-25.8-36.1-37.4"/>
<path class="st0" d="M768.9,348.2c2.4,17.2,3.6,34.5,3.6,51.8"/>
<path class="st0" d="M773.8,452.5c-2.4,17.4-6.1,34.6-10.9,51.5"/>
<path class="st0" d="M744.9,553.5c-7.1,16.1-15.4,31.6-24.7,46.5"/>
<path class="st0" d="M516.7,759c16.7-5.4,33-12,48.8-19.7c15.8-7.7,31-16.5,45.6-26.3c14.6-9.8,28.4-20.7,41.5-32.4"/>
<path class="st0" d="M308.7,766.3c-17.1-4.3-33.8-9.7-50.1-16.3"/>
<path class="st0" d="M167.6,697.5c-13.9-10.8-26.9-22.6-39.1-35.2"/>
<path class="st0" d="M23.4,426.3c-1.2-17.5-1.2-35.1,0-52.7c1.2-17.5,3.7-35,7.3-52.2c3.7-17.2,8.5-34.1,14.5-50.6
	c6-16.5,13.2-32.6,21.4-48.1c8.3-15.5,17.6-30.4,27.9-44.7"/>
<path class="st0" d="M128.4,137.8c12.2-12.6,25.3-24.4,39.1-35.2"/>
<path class="st0" d="M258.6,50c16.3-6.6,33-12,50.1-16.3"/>
<path class="st0" d="M360.5,24.6c17.5-1.8,35.1-2.5,52.6-1.8"/>
<path class="st0" d="M465.6,28.2c17.3,3.1,34.4,7.3,51.1,12.7"/>
<path class="st0" d="M565.5,60.7c15.8,7.7,31,16.5,45.6,26.3"/>
<path class="st0" d="M744.9,246.5c-7.1-16.1-15.4-31.6-24.7-46.5c-9.3-14.9-19.7-29.1-31-42.6s-23.5-26.1-36.6-37.9"/>
<path class="st0" d="M773.8,347.5c2.4,17.4,3.7,35,3.7,52.5"/>
<path class="st0" d="M778.8,453.2c-2.5,17.6-6.2,35.1-11.1,52.2"/>
<path class="st0" d="M749.4,555.6c-7.2,16.3-15.6,32-25.1,47.1"/>
<path class="st0" d="M655.9,684.3c-13.2,11.9-27.3,22.9-42.1,32.9c-14.8,10-30.2,18.9-46.2,26.7c-16,7.8-32.5,14.5-49.5,20"/>
<path class="st0" d="M307.5,771.1c-17.3-4.3-34.2-9.8-50.8-16.5"/>
<path class="st0" d="M164.5,701.4c-14-11-27.3-22.9-39.7-35.7"/>
<path class="st0" d="M18.4,426.7c-1.2-17.8-1.2-35.6,0-53.4c1.2-17.8,3.7-35.4,7.4-52.8c3.7-17.4,8.6-34.6,14.7-51.3
	c6.1-16.7,13.3-33,21.7-48.8c8.4-15.7,17.8-30.8,28.3-45.3"/>
<path class="st0" d="M124.9,134.3c12.4-12.8,25.6-24.7,39.7-35.7"/>
<path class="st0" d="M256.7,45.4c16.5-6.7,33.5-12.2,50.8-16.5"/>
<path class="st0" d="M360,19.6c17.7-1.9,35.5-2.5,53.3-1.9"/>
<path class="st0" d="M466.4,23.3c17.5,3.1,34.8,7.4,51.8,12.9"/>
<path class="st0" d="M567.7,56.2c16,7.8,31.4,16.7,46.2,26.7"/>
<path class="st0" d="M749.4,244.4c-7.2-16.3-15.6-32-25.1-47.1c-9.4-15.1-19.9-29.5-31.4-43.2c-11.4-13.6-23.8-26.5-37.1-38.4"/>
<path class="st0" d="M778.8,346.8c2.5,17.6,3.7,35.4,3.7,53.2"/>
<path class="st0" d="M783.7,453.9c-2.5,17.9-6.3,35.5-11.2,52.9"/>
<path class="st0" d="M754,557.6c-7.3,16.5-15.8,32.4-25.4,47.7"/>
<path class="st0" d="M659.3,688c-13.4,12.1-27.6,23.2-42.6,33.3c-15,10.1-30.6,19.1-46.8,27c-16.2,7.9-33,14.7-50.1,20.3"/>
<path class="st0" d="M306.3,776c-17.5-4.4-34.7-9.9-51.4-16.7"/>
<path class="st0" d="M161.4,705.4c-14.2-11.1-27.6-23.2-40.2-36.2"/>
<path class="st0" d="M86.5,172.2c-10.6,14.6-20.2,29.9-28.6,45.8s-15.8,32.4-22,49.4s-11.2,34.3-14.9,52
	c-3.8,17.6-6.3,35.5-7.5,53.5c-1.3,18-1.3,36.1,0,54.1"/>
<path class="st0" d="M121.3,130.8c12.5-13,26-25.1,40.2-36.2"/>
<path class="st0" d="M254.8,40.7c16.7-6.8,33.9-12.3,51.4-16.7"/>
<path class="st0" d="M359.5,14.6c17.9-1.9,36-2.5,54-1.9"/>
<path class="st0" d="M467.3,18.4c17.8,3.1,35.3,7.5,52.5,13.1"/>
<path class="st0" d="M569.9,51.7c16.2,7.9,31.9,16.9,46.8,27"/>
<path class="st0" d="M659.3,112c13.4,12.1,26,25.1,37.6,38.9c11.6,13.8,22.2,28.4,31.8,43.7c9.6,15.3,18,31.3,25.4,47.7"/>
<path class="st0" d="M783.7,346.1c2.5,17.9,3.8,35.9,3.8,53.9"/>
<path class="st0" d="M788.7,454.6c-2.5,18.1-6.3,36-11.4,53.6"/>
<path class="st0" d="M758.6,559.6c-7.4,16.7-16,32.9-25.7,48.3"/>
<path class="st0" d="M662.6,691.7c-13.6,12.2-28,23.5-43.2,33.7s-31,19.4-47.4,27.4c-16.4,8-33.4,14.9-50.8,20.5"/>
<path class="st0" d="M305,780.8c-17.7-4.4-35.1-10.1-52.1-16.9"/>
<path class="st0" d="M158.4,709.3c-14.4-11.3-28-23.5-40.7-36.6"/>
<path class="st0" d="M82.5,169.3c-10.7,14.8-20.4,30.3-29,46.4c-8.6,16.1-16,32.9-22.3,50c-6.3,17.2-11.3,34.8-15.1,52.6
	c-3.8,17.9-6.3,36-7.6,54.2s-1.3,36.5,0,54.8"/>
<path class="st0" d="M117.7,127.3c12.7-13.1,26.3-25.4,40.7-36.6"/>
<path class="st0" d="M253,36.1c16.9-6.8,34.3-12.5,52.1-16.9"/>
<path class="st0" d="M359,9.7c18.2-1.9,36.5-2.5,54.7-1.9"/>
<path class="st0" d="M468.2,13.5c18,3.2,35.8,7.6,53.1,13.2"/>
<path class="st0" d="M572.1,47.2c16.4,8,32.3,17.2,47.4,27.4"/>
<path class="st0" d="M758.6,240.4c-7.4-16.7-16-32.9-25.7-48.3c-9.7-15.5-20.4-30.3-32.2-44.3s-24.5-27.2-38-39.4"/>
<path class="st0" d="M788.7,345.4c2.5,18.1,3.8,36.4,3.8,54.6"/>
</svg>
