<?xml version="1.0" encoding="utf-8"?>
<!-- Generator: Adobe Illustrator 26.0.3, SVG Export Plug-In . SVG Version: 6.00 Build 0)  -->
<svg version="1.1" id="Layer_1" xmlns="http://www.w3.org/2000/svg" xmlns:xlink="http://www.w3.org/1999/xlink" x="0px" y="0px"
	 viewBox="0 0 800 800" style="enable-background:new 0 0 800 800;" xml:space="preserve">
<style type="text/css">
	.st0{fill:none;stroke:#000000;stroke-miterlimit:10;}
</style>
<path class="st0" d="M466,497.8c4.6-3.1,8.9-6.5,13-10.1c4.1-3.7,7.9-7.6,11.4-11.8"/>
<path class="st0" d="M436.5,512.2c-5.2,1.7-10.6,3-16,4"/>
<path class="st0" d="M387.7,517.4c-5.5-0.6-10.9-1.5-16.2-2.9"/>
<path class="st0" d="M355.8,509.4c-5.1-2.1-10-4.5-14.8-7.2c-4.8-2.7-9.3-5.8-13.6-9.2"/>
<path class="st0" d="M304.5,469.4c-3.2-4.4-6.1-9.1-8.7-14c-2.6-4.9-4.8-9.9-6.7-15s-3.4-10.5-4.5-15.8"/>
<path class="st0" d="M282.3,408.2c-0.4-5.5-0.4-11,0-16.5"/>
<path class="st0" d="M284.6,375.5c1.1-5.4,2.7-10.7,4.5-15.8c1.9-5.2,4.1-10.2,6.7-15c2.6-4.9,5.5-9.5,8.7-14"/>
<path class="st0" d="M355.8,290.6c-5.1,2.1-10,4.5-14.8,7.2c-4.8,2.7-9.3,5.8-13.6,9.2c-4.3,3.4-8.4,7.1-12.2,11"/>
<path class="st0" d="M371.5,285.5c5.3-1.3,10.7-2.3,16.2-2.9"/>
<path class="st0" d="M404.1,282.1c5.5,0.2,11,0.8,16.4,1.7c5.4,1,10.7,2.3,16,4c5.2,1.7,10.3,3.8,15.3,6.2"/>
<path class="st0" d="M490.4,324.2c3.5,4.2,6.8,8.7,9.7,13.3"/>
<path class="st0" d="M507.8,352c2.2,5,4.1,10.2,5.6,15.5s2.7,10.7,3.4,16.1c0.8,5.4,1.1,10.9,1.1,16.4c0,5.5-0.4,11-1.1,16.4
	c-0.8,5.4-1.9,10.8-3.4,16.1c-1.5,5.3-3.4,10.5-5.6,15.5c-2.2,5-4.8,9.9-7.7,14.5"/>
<path class="st0" d="M493.5,478.4c-3.7,4.4-7.6,8.4-11.8,12.2c-4.2,3.8-8.7,7.3-13.4,10.5"/>
<path class="st0" d="M437.7,516c-5.4,1.8-10.9,3.1-16.5,4.1"/>
<path class="st0" d="M387.2,521.3c-5.6-0.6-11.3-1.6-16.8-3"/>
<path class="st0" d="M324.9,496.1c4.5,3.5,9.2,6.7,14.1,9.5s10,5.3,15.3,7.5"/>
<path class="st0" d="M301.3,471.7c-3.3-4.6-6.4-9.4-9-14.4c-2.7-5-5-10.2-6.9-15.5c-1.9-5.3-3.5-10.8-4.7-16.4"/>
<path class="st0" d="M278.3,408.5c-0.4-5.7-0.4-11.4,0-17"/>
<path class="st0" d="M301.3,328.3c-3.3,4.6-6.4,9.4-9,14.4c-2.7,5-5,10.2-6.9,15.5c-1.9,5.3-3.5,10.8-4.7,16.4"/>
<path class="st0" d="M312.2,315.3c3.9-4.1,8.2-7.9,12.6-11.4s9.2-6.7,14.1-9.5s10-5.3,15.3-7.5"/>
<path class="st0" d="M370.5,281.6c5.5-1.4,11.1-2.4,16.8-3"/>
<path class="st0" d="M453.5,290.3c-5.1-2.5-10.4-4.6-15.8-6.4c-5.4-1.8-10.9-3.1-16.5-4.1c-5.6-1-11.3-1.6-16.9-1.8"/>
<path class="st0" d="M493.5,321.6c3.7,4.4,7,9,10,13.8"/>
<path class="st0" d="M511.5,350.4c2.3,5.2,4.3,10.5,5.8,16c1.6,5.5,2.7,11,3.5,16.6c0.8,5.6,1.2,11.3,1.2,17c0,5.7-0.4,11.4-1.2,17
	c-0.8,5.6-2,11.2-3.5,16.6c-1.6,5.5-3.5,10.8-5.8,16s-5,10.2-8,15"/>
<path class="st0" d="M470.5,504.5c4.9-3.3,9.5-6.9,13.9-10.8c4.4-3.9,8.4-8.2,12.2-12.6"/>
<path class="st0" d="M438.9,519.8c-5.6,1.8-11.3,3.2-17.1,4.3"/>
<path class="st0" d="M386.8,525.3c-5.8-0.6-11.6-1.6-17.3-3.1"/>
<path class="st0" d="M352.8,516.8c-5.4-2.2-10.7-4.8-15.8-7.7c-5.1-2.9-10-6.2-14.6-9.8"/>
<path class="st0" d="M276.8,426.2c1.2,5.7,2.8,11.4,4.8,16.9c2,5.5,4.4,10.9,7.1,16.1c2.8,5.2,5.9,10.2,9.3,14.9"/>
<path class="st0" d="M274.3,408.8c-0.4-5.9-0.4-11.7,0-17.6"/>
<path class="st0" d="M298.1,325.9c-3.4,4.7-6.6,9.7-9.3,14.9c-2.8,5.2-5.1,10.5-7.1,16.1c-2,5.5-3.6,11.2-4.8,16.9"/>
<path class="st0" d="M352.8,283.2c-5.4,2.2-10.7,4.8-15.8,7.7s-10,6.2-14.6,9.8s-9,7.5-13.1,11.8"/>
<path class="st0" d="M369.5,277.7c5.7-1.4,11.5-2.4,17.3-3.1"/>
<path class="st0" d="M455.2,286.8c-5.3-2.6-10.7-4.8-16.3-6.6c-5.6-1.8-11.3-3.2-17.1-4.3c-5.8-1-11.6-1.6-17.5-1.8"/>
<path class="st0" d="M496.5,319c3.8,4.5,7.2,9.2,10.3,14.2"/>
<path class="st0" d="M515.1,348.8c2.4,5.4,4.4,10.9,6,16.5c1.6,5.6,2.8,11.4,3.7,17.2s1.2,11.7,1.2,17.5c0,5.9-0.4,11.7-1.2,17.5
	s-2,11.6-3.7,17.2c-1.6,5.6-3.6,11.2-6,16.5c-2.4,5.4-5.1,10.5-8.3,15.5"/>
<path class="st0" d="M510.2,468.9c3.2-5.1,6.1-10.5,8.5-16c2.5-5.5,4.5-11.2,6.2-17c1.7-5.8,2.9-11.7,3.8-17.7
	c0.8-6,1.3-12,1.3-18.1c0-6.1-0.4-12.1-1.3-18.1c-0.8-6-2.1-11.9-3.8-17.7c-1.7-5.8-3.7-11.5-6.2-17"/>
<path class="st0" d="M499.6,483.6c-3.9,4.6-8.1,9-12.6,13c-4.5,4.1-9.3,7.8-14.3,11.2"/>
<path class="st0" d="M440.2,523.6c-5.8,1.9-11.6,3.3-17.6,4.4"/>
<path class="st0" d="M386.4,529.3c-6-0.6-12-1.7-17.9-3.1"/>
<path class="st0" d="M351.3,520.5c-5.6-2.3-11.1-4.9-16.3-8c-5.2-3-10.3-6.4-15-10.1"/>
<path class="st0" d="M272.8,427c1.3,5.9,2.9,11.7,5,17.4c2.1,5.7,4.5,11.2,7.4,16.6s6.1,10.5,9.6,15.4"/>
<path class="st0" d="M270.3,409.1c-0.4-6-0.4-12.1,0-18.1"/>
<path class="st0" d="M294.8,323.6c-3.6,4.9-6.8,10-9.6,15.4c-2.8,5.3-5.3,10.9-7.4,16.6c-2.1,5.7-3.7,11.5-5,17.4"/>
<path class="st0" d="M351.3,279.5c-5.6,2.3-11.1,4.9-16.3,8c-5.2,3-10.3,6.4-15,10.1s-9.3,7.8-13.5,12.1"/>
<path class="st0" d="M368.6,273.9c5.9-1.5,11.8-2.5,17.9-3.1"/>
<path class="st0" d="M457,283.2c-5.4-2.7-11.1-4.9-16.8-6.8c-5.8-1.9-11.6-3.3-17.6-4.4c-6-1.1-12-1.7-18-1.9"/>
<path class="st0" d="M499.6,316.4c3.9,4.6,7.5,9.5,10.7,14.7"/>
<path class="st0" d="M513.6,471c3.3-5.3,6.2-10.8,8.8-16.5c2.5-5.7,4.7-11.6,6.4-17.6c1.7-6,3-12.1,3.9-18.3
	c0.9-6.2,1.3-12.4,1.3-18.6c0-6.2-0.4-12.5-1.3-18.6c-0.9-6.2-2.2-12.3-3.9-18.3c-1.7-6-3.9-11.9-6.4-17.6"/>
<path class="st0" d="M474.9,511.1c5.2-3.5,10.1-7.3,14.7-11.5s9-8.7,13-13.4"/>
<path class="st0" d="M441.4,527.4c-5.9,1.9-12,3.4-18.1,4.5"/>
<path class="st0" d="M386,533.3c-6.2-0.7-12.4-1.7-18.4-3.2"/>
<path class="st0" d="M317.5,505.6c4.9,3.8,10.1,7.3,15.5,10.5c5.4,3.1,11,5.9,16.8,8.2"/>
<path class="st0" d="M291.6,478.8c-3.7-5-7-10.3-9.9-15.9c-2.9-5.5-5.5-11.2-7.6-17.1c-2.1-5.9-3.9-11.9-5.2-18"/>
<path class="st0" d="M266.3,409.3c-0.4-6.2-0.4-12.5,0-18.7"/>
<path class="st0" d="M268.9,372.1c1.3-6.1,3-12.1,5.2-18c2.1-5.9,4.7-11.6,7.6-17.1c2.9-5.5,6.2-10.8,9.9-15.9"/>
<path class="st0" d="M349.8,275.8c-5.8,2.3-11.4,5.1-16.8,8.2c-5.4,3.1-10.6,6.6-15.5,10.5c-4.9,3.8-9.6,8-13.9,12.5"/>
<path class="st0" d="M367.6,270c6.1-1.5,12.2-2.6,18.4-3.2"/>
<path class="st0" d="M404.7,266.1c6.2,0.2,12.4,0.9,18.6,2c6.1,1.1,12.2,2.6,18.1,4.5c5.9,1.9,11.7,4.3,17.3,7"/>
<path class="st0" d="M502.6,313.9c4,4.8,7.7,9.8,11,15.1"/>
<path class="st0" d="M517,473.1c3.4-5.4,6.4-11.1,9-17s4.8-11.9,6.6-18.1s3.1-12.5,4-18.8c0.9-6.4,1.3-12.8,1.3-19.2
	c0-6.4-0.4-12.8-1.3-19.2c-0.9-6.4-2.2-12.7-4-18.8c-1.8-6.2-4-12.2-6.6-18.1"/>
<path class="st0" d="M505.7,488.7c-4.1,4.9-8.6,9.5-13.4,13.8c-4.8,4.3-9.8,8.3-15.2,11.9"/>
<path class="st0" d="M442.6,531.2c-6.1,2-12.4,3.5-18.7,4.7"/>
<path class="st0" d="M385.6,537.2c-6.4-0.7-12.7-1.8-19-3.3"/>
<path class="st0" d="M315,508.7c5.1,4,10.4,7.6,16,10.8c5.6,3.2,11.3,6,17.3,8.4"/>
<path class="st0" d="M265,428.7c1.3,6.3,3.1,12.5,5.3,18.5s4.8,11.9,7.8,17.6c3,5.7,6.4,11.1,10.2,16.3"/>
<path class="st0" d="M262.3,409.6c-0.4-6.4-0.4-12.8,0-19.3"/>
<path class="st0" d="M288.4,318.9c-3.8,5.2-7.2,10.7-10.2,16.3c-3,5.7-5.6,11.6-7.8,17.6c-2.2,6-4,12.2-5.3,18.5"/>
<path class="st0" d="M300.7,304.1c4.5-4.6,9.2-8.9,14.3-12.9s10.4-7.6,16-10.8s11.3-6,17.3-8.4"/>
<path class="st0" d="M366.6,266.1c6.2-1.6,12.6-2.7,19-3.3"/>
<path class="st0" d="M404.8,262.1c6.4,0.2,12.8,0.9,19.1,2c6.3,1.1,12.6,2.7,18.7,4.7c6.1,2,12.1,4.4,17.9,7.2"/>
<path class="st0" d="M505.7,311.3c4.1,4.9,7.9,10.1,11.3,15.6"/>
<path class="st0" d="M542,400c0,6.6-0.5,13.2-1.4,19.8"/>
<path class="st0" d="M462.2,527.6c5.9-2.9,11.7-6.2,17.2-9.9c5.5-3.7,10.7-7.8,15.6-12.2c4.9-4.4,9.5-9.2,13.8-14.3"/>
<path class="st0" d="M365.6,537.8c6.4,1.6,12.9,2.7,19.5,3.4c6.6,0.7,13.2,0.9,19.8,0.7c6.6-0.2,13.2-0.9,19.7-2.1"/>
<path class="st0" d="M346.8,531.7c-6.1-2.5-12.1-5.4-17.8-8.7c-5.7-3.3-11.2-7-16.4-11.1"/>
<path class="st0" d="M274.6,466.7c3.1,5.8,6.6,11.5,10.5,16.8c3.9,5.3,8.1,10.4,12.7,15.2"/>
<path class="st0" d="M258.3,409.9c0.5,6.6,1.4,13.2,2.8,19.6c1.4,6.5,3.2,12.8,5.5,19"/>
<path class="st0" d="M258.3,390.1c0.5-6.6,1.4-13.2,2.8-19.6"/>
<path class="st0" d="M285.1,316.5c3.9-5.3,8.1-10.4,12.7-15.2"/>
<path class="st0" d="M346.8,268.3c-6.1,2.5-12.1,5.4-17.8,8.7c-5.7,3.3-11.2,7-16.4,11.1"/>
<path class="st0" d="M365.6,262.2c6.4-1.6,12.9-2.7,19.5-3.4"/>
<path class="st0" d="M405,258.1c6.6,0.2,13.2,0.9,19.7,2.1c6.5,1.1,12.9,2.7,19.2,4.8c6.3,2,12.4,4.5,18.4,7.4
	c5.9,2.9,11.7,6.2,17.2,9.9s10.7,7.8,15.6,12.2c4.9,4.4,9.5,9.2,13.8,14.3"/>
<path class="st0" d="M529.7,342.2c2.7,6,5,12.3,6.8,18.6"/>
<path class="st0" d="M546,400c0,6.8-0.5,13.6-1.4,20.3"/>
<path class="st0" d="M464,531.2c6.1-3,12-6.4,17.6-10.2c5.6-3.8,11-8,16.1-12.5c5.1-4.5,9.8-9.4,14.1-14.7"/>
<path class="st0" d="M425.4,543.8c-6.7,1.2-13.5,1.9-20.3,2.1c-6.8,0.2-13.6,0-20.4-0.7c-6.8-0.7-13.5-1.9-20.1-3.5"/>
<path class="st0" d="M310.1,515c5.4,4.2,11,8,16.9,11.4c5.9,3.4,12,6.4,18.3,8.9"/>
<path class="st0" d="M271.1,468.5c3.2,6,6.8,11.8,10.8,17.3c4,5.5,8.4,10.7,13.1,15.6"/>
<path class="st0" d="M254.4,410.2c0.5,6.8,1.4,13.5,2.8,20.2c1.4,6.6,3.3,13.2,5.6,19.6"/>
<path class="st0" d="M254.4,389.8c0.5-6.8,1.4-13.5,2.8-20.2"/>
<path class="st0" d="M281.9,314.2c4-5.5,8.4-10.7,13.1-15.6"/>
<path class="st0" d="M310.1,285c5.4-4.2,11-8,16.9-11.4c5.9-3.4,12-6.4,18.3-8.9"/>
<path class="st0" d="M364.7,258.3c6.6-1.6,13.3-2.8,20.1-3.5"/>
<path class="st0" d="M405.1,254.1c6.8,0.2,13.6,0.9,20.3,2.1c6.7,1.2,13.3,2.8,19.8,4.9c6.5,2.1,12.8,4.7,18.9,7.6
	c6.1,3,12,6.4,17.6,10.2c5.6,3.8,11,8,16.1,12.5c5.1,4.5,9.8,9.4,14.1,14.7"/>
<path class="st0" d="M533.4,340.6c2.8,6.2,5.1,12.6,7,19.1"/>
<path class="st0" d="M550,400c0,7-0.5,14-1.5,20.9"/>
<path class="st0" d="M514.9,496.4c-4.5,5.4-9.3,10.4-14.5,15.1s-10.7,9-16.5,12.9c-5.8,3.9-11.8,7.4-18.1,10.5"/>
<path class="st0" d="M363.7,545.5c6.8,1.7,13.7,2.9,20.6,3.6s13.9,1,20.9,0.7c7-0.2,13.9-1,20.8-2.2"/>
<path class="st0" d="M343.8,539.1c-6.5-2.6-12.8-5.7-18.8-9.2s-11.8-7.4-17.3-11.7"/>
<path class="st0" d="M292.1,504.2c-4.9-5-9.3-10.4-13.5-16c-4.1-5.7-7.8-11.6-11.1-17.7"/>
<path class="st0" d="M259,451.3c-2.4-6.6-4.3-13.3-5.8-20.1c-1.5-6.8-2.4-13.8-2.9-20.7"/>
<path class="st0" d="M250.4,389.5c0.5-7,1.5-13.9,2.9-20.7"/>
<path class="st0" d="M278.6,311.8c4.1-5.7,8.6-11,13.5-16"/>
<path class="st0" d="M343.8,260.9c-6.5,2.6-12.8,5.7-18.8,9.2c-6,3.5-11.8,7.4-17.3,11.7"/>
<path class="st0" d="M363.7,254.5c6.8-1.7,13.7-2.9,20.6-3.6"/>
<path class="st0" d="M514.9,303.6c-4.5-5.4-9.3-10.4-14.5-15.1c-5.2-4.7-10.7-9-16.5-12.9c-5.8-3.9-11.8-7.4-18.1-10.5
	c-6.3-3.1-12.8-5.7-19.4-7.8c-6.6-2.2-13.4-3.8-20.3-5.1c-6.9-1.2-13.8-1.9-20.8-2.2"/>
<path class="st0" d="M537,339c2.8,6.4,5.2,13,7.2,19.7"/>
<path class="st0" d="M554,400c0,7.2-0.5,14.3-1.5,21.4"/>
<path class="st0" d="M467.5,538.4c6.4-3.1,12.7-6.7,18.6-10.7c5.9-4,11.6-8.4,16.9-13.2c5.3-4.8,10.3-10,14.9-15.5"/>
<path class="st0" d="M362.7,549.4c7,1.7,14,3,21.2,3.7c7.1,0.7,14.3,1,21.5,0.7c7.2-0.3,14.3-1,21.4-2.2"/>
<path class="st0" d="M305.2,521.4c5.7,4.4,11.6,8.4,17.8,12s12.7,6.7,19.3,9.4"/>
<path class="st0" d="M289.2,507c-5-5.2-9.6-10.7-13.8-16.5c-4.2-5.8-8-11.9-11.4-18.2"/>
<path class="st0" d="M246.4,410.7c0.5,7.2,1.5,14.3,3,21.3c1.5,7,3.5,13.9,5.9,20.7"/>
<path class="st0" d="M246.4,389.3c0.5-7.2,1.5-14.3,3-21.3"/>
<path class="st0" d="M275.4,309.5c4.2-5.8,8.8-11.3,13.8-16.5"/>
<path class="st0" d="M305.2,278.6c5.7-4.4,11.6-8.4,17.8-12c6.2-3.6,12.7-6.7,19.3-9.4"/>
<path class="st0" d="M362.7,250.6c7-1.7,14-3,21.2-3.7"/>
<path class="st0" d="M518,301c-4.6-5.5-9.6-10.7-14.9-15.5c-5.3-4.8-11-9.2-16.9-13.2c-5.9-4-12.2-7.6-18.6-10.7
	c-6.4-3.1-13.1-5.8-19.9-8c-6.8-2.2-13.8-4-20.8-5.2c-7.1-1.2-14.2-2-21.4-2.2"/>
<path class="st0" d="M540.7,337.4c2.9,6.6,5.4,13.3,7.3,20.2"/>
<path class="st0" d="M558,400c0,7.4-0.5,14.7-1.5,22"/>
<path class="st0" d="M521,501.6c-4.7,5.6-9.8,10.9-15.3,15.9c-5.5,4.9-11.3,9.5-17.4,13.6s-12.5,7.8-19.1,11"/>
<path class="st0" d="M427.4,555.6c-7.2,1.3-14.6,2-21.9,2.3c-7.4,0.3-14.7,0-22-0.8c-7.3-0.8-14.6-2-21.7-3.8"/>
<path class="st0" d="M340.8,546.5c-6.8-2.8-13.4-6-19.8-9.7s-12.5-7.8-18.3-12.3"/>
<path class="st0" d="M260.5,474.2c3.5,6.5,7.4,12.7,11.7,18.7c4.3,6,9.1,11.6,14.2,16.9"/>
<path class="st0" d="M251.5,454c-2.5-6.9-4.5-14-6.1-21.2c-1.5-7.2-2.6-14.5-3.1-21.8"/>
<path class="st0" d="M242.4,389c0.5-7.3,1.5-14.6,3.1-21.8"/>
<path class="st0" d="M272.2,307.1c4.3-6,9.1-11.6,14.2-16.9"/>
<path class="st0" d="M340.8,253.5c-6.8,2.8-13.4,6-19.8,9.7c-6.4,3.7-12.5,7.8-18.3,12.3"/>
<path class="st0" d="M361.8,246.7c7.1-1.8,14.4-3.1,21.7-3.8"/>
<path class="st0" d="M405.5,242.1c7.4,0.3,14.7,1,21.9,2.3c7.2,1.3,14.4,3.1,21.4,5.3c7,2.3,13.8,5,20.4,8.3c6.6,3.2,13,6.9,19.1,11
	c6.1,4.1,11.9,8.6,17.4,13.6c5.5,4.9,10.6,10.2,15.3,15.9"/>
<path class="st0" d="M544.3,335.7c3,6.7,5.5,13.6,7.5,20.7"/>
<path class="st0" d="M562,400c0,7.5-0.5,15.1-1.6,22.5"/>
<path class="st0" d="M471,545.6c6.8-3.3,13.3-7.1,19.6-11.3s12.2-8.9,17.8-13.9c5.6-5,10.9-10.5,15.7-16.3"/>
<path class="st0" d="M360.8,557.2c7.3,1.8,14.8,3.1,22.3,3.9c7.5,0.8,15,1.1,22.6,0.8c7.5-0.3,15-1.1,22.5-2.4"/>
<path class="st0" d="M300.3,527.7c5.9,4.6,12.2,8.9,18.7,12.6c6.5,3.8,13.3,7.1,20.3,9.9"/>
<path class="st0" d="M283.5,512.5c-5.2-5.4-10.1-11.2-14.5-17.3c-4.4-6.1-8.4-12.5-12-19.2"/>
<path class="st0" d="M238.4,411.3c0.5,7.5,1.6,15,3.1,22.4c1.6,7.4,3.6,14.6,6.2,21.7"/>
<path class="st0" d="M238.4,388.7c0.5-7.5,1.6-15,3.1-22.4"/>
<path class="st0" d="M268.9,304.8c4.4-6.1,9.3-11.9,14.5-17.3"/>
<path class="st0" d="M300.3,272.3c5.9-4.6,12.2-8.9,18.7-12.6c6.5-3.8,13.3-7.1,20.3-9.9"/>
<path class="st0" d="M360.8,242.8c7.3-1.8,14.8-3.1,22.3-3.9"/>
<path class="st0" d="M524.1,295.9c-4.8-5.8-10.1-11.2-15.7-16.3c-5.6-5-11.6-9.7-17.8-13.9c-6.3-4.2-12.8-8-19.6-11.3
	c-6.8-3.3-13.8-6.1-21-8.5c-7.2-2.3-14.5-4.2-21.9-5.5c-7.4-1.3-14.9-2.1-22.5-2.4"/>
<path class="st0" d="M548,334.1c3.1,6.9,5.7,14,7.7,21.2"/>
<path class="st0" d="M566,400c0,7.7-0.5,15.4-1.6,23.1"/>
<path class="st0" d="M527.2,506.7c-5,5.9-10.3,11.5-16.1,16.7c-5.7,5.2-11.8,9.9-18.2,14.3c-6.4,4.3-13.1,8.2-20.1,11.6"/>
<path class="st0" d="M428.8,563.5c-7.6,1.3-15.3,2.2-23,2.4c-7.7,0.3-15.5,0-23.1-0.8c-7.7-0.8-15.3-2.2-22.8-4"/>
<path class="st0" d="M297.8,530.8c6.1,4.8,12.5,9.1,19.2,13s13.6,7.3,20.8,10.2"/>
<path class="st0" d="M280.6,515.3c-5.4-5.6-10.3-11.5-14.9-17.7c-4.5-6.3-8.6-12.8-12.3-19.6"/>
<path class="st0" d="M244,456.8c-2.6-7.3-4.8-14.7-6.4-22.3s-2.7-15.2-3.2-22.9"/>
<path class="st0" d="M234.4,388.4c0.5-7.7,1.6-15.4,3.2-22.9"/>
<path class="st0" d="M265.7,302.4c4.5-6.3,9.5-12.2,14.9-17.7"/>
<path class="st0" d="M337.8,246.1c-7.2,2.9-14.1,6.3-20.8,10.2s-13.1,8.2-19.2,13"/>
<path class="st0" d="M359.8,238.9c7.5-1.9,15.1-3.2,22.8-4"/>
<path class="st0" d="M405.8,234.1c7.7,0.3,15.4,1.1,23,2.4s15.1,3.2,22.5,5.6c7.4,2.4,14.5,5.3,21.5,8.7c6.9,3.4,13.6,7.3,20.1,11.6
	c6.4,4.3,12.5,9.1,18.2,14.3c5.7,5.2,11.1,10.7,16.1,16.7"/>
<path class="st0" d="M551.6,332.5c3.1,7.1,5.8,14.3,7.9,21.8"/>
<path class="st0" d="M570,400c0,7.9-0.6,15.8-1.7,23.7"/>
<path class="st0" d="M474.5,552.8c7.1-3.5,14-7.4,20.5-11.9c6.6-4.4,12.8-9.3,18.7-14.6c5.9-5.3,11.4-11,16.5-17.1"/>
<path class="st0" d="M429.5,567.4c-7.8,1.4-15.7,2.2-23.6,2.5c-7.9,0.3-15.8,0-23.7-0.8c-7.9-0.8-15.7-2.2-23.4-4.1"/>
<path class="st0" d="M336.3,557.6c-7.3-3-14.5-6.4-21.3-10.4c-6.9-4-13.4-8.4-19.7-13.3"/>
<path class="st0" d="M277.7,518.1c-5.5-5.7-10.6-11.8-15.2-18.2c-4.7-6.4-8.9-13.1-12.6-20.1"/>
<path class="st0" d="M230.4,411.9c0.6,7.9,1.7,15.7,3.3,23.5c1.6,7.7,3.8,15.4,6.5,22.8"/>
<path class="st0" d="M230.4,388.1c0.6-7.9,1.7-15.7,3.3-23.5"/>
<path class="st0" d="M262.5,300.1c4.7-6.4,9.7-12.5,15.2-18.2"/>
<path class="st0" d="M295.3,266c6.2-4.9,12.8-9.3,19.7-13.3c6.9-4,14-7.4,21.3-10.4"/>
<path class="st0" d="M358.9,235c7.7-1.9,15.5-3.3,23.4-4.1"/>
<path class="st0" d="M530.2,290.7c-5.1-6.1-10.6-11.8-16.5-17.1c-5.9-5.3-12.1-10.2-18.7-14.6c-6.6-4.4-13.4-8.4-20.5-11.9
	s-14.5-6.4-22-8.9c-7.5-2.4-15.2-4.4-23-5.7s-15.7-2.2-23.6-2.5"/>
<path class="st0" d="M555.3,330.9c3.2,7.2,5.9,14.7,8.1,22.3"/>
<path class="st0" d="M574,400c0,8.1-0.6,16.2-1.7,24.2"/>
<path class="st0" d="M533.3,511.8c-5.2,6.2-10.8,12-16.9,17.5c-6,5.4-12.4,10.4-19.1,14.9c-6.7,4.5-13.7,8.6-21,12.1"/>
<path class="st0" d="M430.2,571.4c-8,1.4-16,2.3-24.1,2.5c-8.1,0.3-16.2,0-24.3-0.8c-8.1-0.8-16-2.3-23.9-4.2"/>
<path class="st0" d="M292.9,537.1c6.4,5,13.1,9.5,20.1,13.6c7,4.1,14.3,7.6,21.8,10.6"/>
<path class="st0" d="M274.8,520.9c-5.6-5.8-10.8-12-15.6-18.6c-4.8-6.6-9.1-13.4-12.9-20.6"/>
<path class="st0" d="M226.4,412.1c0.6,8.1,1.7,16.1,3.4,24c1.7,7.9,3.9,15.7,6.7,23.3"/>
<path class="st0" d="M226.4,387.9c0.6-8.1,1.7-16.1,3.4-24"/>
<path class="st0" d="M259.2,297.7c4.8-6.6,10-12.8,15.6-18.6"/>
<path class="st0" d="M292.9,262.9c6.4-5,13.1-9.5,20.1-13.6c7-4.1,14.3-7.6,21.8-10.6"/>
<path class="st0" d="M357.9,231.2c7.9-2,15.8-3.4,23.9-4.2"/>
<path class="st0" d="M406.1,226.1c8.1,0.3,16.2,1.1,24.1,2.5c8,1.4,15.8,3.4,23.6,5.9c7.7,2.5,15.2,5.5,22.5,9.1
	c7.3,3.6,14.3,7.6,21,12.1s13.1,9.5,19.1,14.9c6,5.4,11.7,11.3,16.9,17.5"/>
<path class="st0" d="M559,329.2c3.3,7.4,6.1,15,8.3,22.8"/>
<path class="st0" d="M478,560c7.4-3.6,14.6-7.8,21.5-12.4c6.9-4.6,13.4-9.7,19.6-15.3s11.9-11.5,17.3-17.9"/>
<path class="st0" d="M455,569.3c-7.9,2.6-15.9,4.6-24.1,6"/>
<path class="st0" d="M356.9,572.7c8,2,16.2,3.4,24.5,4.3c8.2,0.9,16.5,1.2,24.8,0.9"/>
<path class="st0" d="M333.3,565c-7.7-3.1-15.1-6.7-22.3-10.9c-7.2-4.1-14.1-8.8-20.6-13.9"/>
<path class="st0" d="M242.8,483.6c3.9,7.3,8.3,14.4,13.2,21.1s10.2,13.1,16,19"/>
<path class="st0" d="M222.4,387.6c0.6-8.3,1.7-16.5,3.5-24.6c1.7-8.1,4-16.1,6.8-23.9"/>
<path class="st0" d="M242.8,316.4c3.9-7.3,8.3-14.4,13.2-21.1"/>
<path class="st0" d="M311,245.8c-7.2,4.1-14.1,8.8-20.6,13.9c-6.5,5.1-12.7,10.7-18.5,16.6"/>
<path class="st0" d="M406.2,222.1c-8.3-0.3-16.6,0-24.8,0.9c-8.2,0.9-16.4,2.3-24.5,4.3"/>
<path class="st0" d="M430.9,224.7c8.2,1.4,16.2,3.4,24.1,6c7.9,2.6,15.6,5.7,23,9.3c7.4,3.6,14.6,7.8,21.5,12.4
	c6.9,4.6,13.4,9.7,19.6,15.3c6.2,5.5,11.9,11.5,17.3,17.9"/>
<path class="st0" d="M551,305.7c4.4,7,8.3,14.4,11.7,21.9s6.2,15.4,8.5,23.3c2.3,8,4,16.1,5.2,24.3s1.7,16.5,1.7,24.8
	c0,8.3-0.6,16.6-1.7,24.8s-2.9,16.3-5.2,24.3s-5.1,15.8-8.5,23.3c-3.4,7.6-7.3,14.9-11.7,21.9"/>
<path class="st0" d="M539.4,517c-5.4,6.5-11.3,12.6-17.6,18.3s-13,10.9-20,15.6c-7,4.7-14.4,9-22,12.7"/>
<path class="st0" d="M456.2,573.1c-8.1,2.6-16.3,4.7-24.6,6.1"/>
<path class="st0" d="M406.4,581.9c-8.5,0.3-16.9,0-25.4-0.9c-8.4-0.9-16.8-2.4-25-4.4"/>
<path class="st0" d="M287.9,543.4c6.7,5.2,13.7,10,21.1,14.2c7.3,4.2,15,8,22.8,11.1"/>
<path class="st0" d="M269.1,526.4c-5.9-6.1-11.3-12.6-16.3-19.5c-5-6.9-9.5-14.1-13.5-21.5"/>
<path class="st0" d="M229,337.8c-2.9,8-5.2,16.1-7,24.4c-1.8,8.3-2.9,16.7-3.5,25.1"/>
<path class="st0" d="M239.3,314.6c4-7.5,8.5-14.7,13.5-21.5"/>
<path class="st0" d="M309,242.4c-7.3,4.2-14.4,9-21.1,14.2c-6.7,5.2-13,10.9-18.9,17"/>
<path class="st0" d="M356,223.4c8.2-2.1,16.6-3.5,25-4.4c8.4-0.9,16.9-1.2,25.4-0.9"/>
<path class="st0" d="M539.4,283c-5.4-6.5-11.3-12.6-17.6-18.3c-6.3-5.7-13-10.9-20-15.6c-7-4.7-14.4-9-22-12.7s-15.5-6.9-23.5-9.5
	c-8.1-2.6-16.3-4.7-24.6-6.1"/>
<path class="st0" d="M554.3,303.6c4.5,7.2,8.5,14.7,11.9,22.4c3.4,7.7,6.3,15.7,8.7,23.9c2.3,8.1,4.1,16.4,5.3,24.8
	s1.8,16.9,1.8,25.3c0,8.5-0.6,16.9-1.8,25.3s-2.9,16.7-5.3,24.8c-2.3,8.1-5.2,16.1-8.7,23.9s-7.4,15.2-11.9,22.4"/>
<path class="st0" d="M557.7,498.6c4.6-7.3,8.7-15,12.2-22.9c3.5-7.9,6.5-16.1,8.9-24.4c2.4-8.3,4.2-16.8,5.4-25.4
	c1.2-8.6,1.8-17.2,1.8-25.9c0-8.7-0.6-17.3-1.8-25.9c-1.2-8.6-3-17.1-5.4-25.4c-2.4-8.3-5.4-16.5-8.9-24.4
	c-3.5-7.9-7.6-15.6-12.2-22.9"/>
<path class="st0" d="M481.5,567.2c7.8-3.8,15.3-8.1,22.5-13s14-10.2,20.4-16c6.4-5.8,12.5-12,18-18.7"/>
<path class="st0" d="M457.5,576.9c-8.2,2.7-16.6,4.8-25.2,6.3"/>
<path class="st0" d="M355,580.5c8.4,2.1,16.9,3.6,25.6,4.5c8.6,0.9,17.3,1.2,25.9,0.9"/>
<path class="st0" d="M330.3,572.5c-8-3.2-15.8-7-23.3-11.4c-7.5-4.3-14.7-9.2-21.5-14.5"/>
<path class="st0" d="M266.2,529.2c-6-6.2-11.6-12.9-16.7-19.9c-5.1-7-9.7-14.4-13.8-22"/>
<path class="st0" d="M225.2,336.4c-3,8.1-5.4,16.5-7.2,24.9c-1.8,8.5-3,17.1-3.6,25.7"/>
<path class="st0" d="M235.8,312.7c4.1-7.6,8.7-15,13.8-22"/>
<path class="st0" d="M266.2,270.8c6-6.2,12.5-12,19.3-17.4c6.8-5.3,14-10.2,21.5-14.5"/>
<path class="st0" d="M355,219.5c8.4-2.1,16.9-3.6,25.6-4.5c8.6-0.9,17.3-1.2,25.9-0.9"/>
<path class="st0" d="M542.5,280.4c-5.6-6.6-11.6-12.9-18-18.7c-6.4-5.8-13.3-11.1-20.4-16c-7.2-4.8-14.7-9.2-22.5-13
	c-7.8-3.8-15.8-7-24.1-9.7c-8.2-2.7-16.6-4.8-25.2-6.3"/>
<path class="st0" d="M545.5,522.1c-5.7,6.8-11.8,13.1-18.4,19.1c-6.6,5.9-13.6,11.4-20.9,16.3c-7.3,4.9-15,9.4-23,13.3"/>
<path class="st0" d="M458.7,580.7c-8.4,2.7-17,4.9-25.7,6.4"/>
<path class="st0" d="M354,584.4c8.6,2.1,17.3,3.7,26.1,4.6c8.8,0.9,17.7,1.2,26.5,0.9"/>
<path class="st0" d="M283,549.7c7,5.4,14.3,10.4,22,14.8s15.6,8.3,23.8,11.6"/>
<path class="st0" d="M263.3,532c-6.1-6.4-11.8-13.1-17-20.3c-5.2-7.2-9.9-14.7-14-22.5"/>
<path class="st0" d="M221.5,335c-3,8.3-5.5,16.8-7.3,25.5c-1.8,8.7-3.1,17.4-3.7,26.2"/>
<path class="st0" d="M232.2,310.8c4.2-7.8,8.8-15.3,14-22.5"/>
<path class="st0" d="M305,235.5c-7.7,4.4-15,9.4-22,14.8c-7,5.4-13.6,11.4-19.7,17.7"/>
<path class="st0" d="M406.6,210.1c-8.8-0.3-17.7,0-26.5,0.9c-8.8,0.9-17.5,2.5-26.1,4.6"/>
<path class="st0" d="M433,212.9c8.7,1.5,17.3,3.7,25.7,6.4c8.4,2.7,16.6,6.1,24.6,9.9c8,3.9,15.6,8.3,23,13.3
	c7.3,4.9,14.3,10.4,20.9,16.3c6.6,5.9,12.7,12.3,18.4,19.1"/>
<path class="st0" d="M561.1,299.3c4.7,7.5,8.8,15.3,12.4,23.4c3.6,8.1,6.6,16.4,9.1,24.9c2.4,8.5,4.3,17.2,5.5,25.9
	c1.2,8.8,1.8,17.6,1.8,26.4c0,8.8-0.6,17.7-1.8,26.4s-3.1,17.4-5.5,25.9c-2.4,8.5-5.5,16.8-9.1,24.9c-3.6,8.1-7.8,15.9-12.4,23.4"/>
<path class="st0" d="M564.5,502.8c4.8-7.7,9-15.6,12.7-23.9c3.7-8.3,6.8-16.8,9.3-25.4c2.5-8.7,4.4-17.5,5.6-26.5
	c1.3-8.9,1.9-18,1.9-27c0-9-0.6-18.1-1.9-27c-1.3-8.9-3.1-17.8-5.6-26.5s-5.6-17.2-9.3-25.4c-3.7-8.3-7.9-16.2-12.7-23.9"/>
<path class="st0" d="M485,574.4c8.1-4,16-8.5,23.4-13.5c7.5-5.1,14.6-10.6,21.3-16.7s13-12.5,18.8-19.5"/>
<path class="st0" d="M459.9,584.5c-8.6,2.8-17.4,5-26.3,6.5"/>
<path class="st0" d="M406.8,593.9c-9,0.3-18.1,0-27-0.9c-9-0.9-17.9-2.5-26.7-4.7"/>
<path class="st0" d="M327.3,579.9c-8.4-3.4-16.5-7.3-24.3-11.9s-15.3-9.6-22.4-15.1"/>
<path class="st0" d="M228.7,491.1c4.2,8,9,15.6,14.3,23c5.3,7.3,11.1,14.2,17.4,20.7"/>
<path class="st0" d="M206.5,386.5c0.6-9,1.9-18,3.8-26.8c1.9-8.8,4.4-17.5,7.5-26"/>
<path class="st0" d="M228.7,308.9c4.2-8,9-15.6,14.3-23"/>
<path class="st0" d="M303,232c-7.8,4.5-15.3,9.6-22.4,15.1c-7.1,5.6-13.8,11.6-20.1,18.1"/>
<path class="st0" d="M353.1,211.8c8.8-2.2,17.7-3.8,26.7-4.7c9-0.9,18-1.3,27-0.9"/>
<path class="st0" d="M548.6,275.3c-5.8-6.9-12.1-13.4-18.8-19.5c-6.7-6-13.8-11.6-21.3-16.7c-7.5-5.1-15.3-9.6-23.4-13.5
	s-16.5-7.3-25.1-10.1c-8.6-2.8-17.4-5-26.3-6.5"/>
<path class="st0" d="M551.7,527.3c-5.9,7.1-12.3,13.7-19.2,19.9c-6.9,6.2-14.1,11.9-21.8,17c-7.6,5.2-15.6,9.8-23.9,13.8"/>
<path class="st0" d="M461.2,588.3c-8.8,2.8-17.7,5.1-26.8,6.7"/>
<path class="st0" d="M406.9,597.9c-9.2,0.3-18.4,0-27.6-1c-9.2-1-18.3-2.6-27.2-4.8"/>
<path class="st0" d="M325.8,583.6c-8.5-3.5-16.8-7.5-24.8-12.1c-8-4.6-15.6-9.8-22.9-15.4"/>
<path class="st0" d="M257.6,537.5c-6.4-6.6-12.3-13.7-17.8-21.2c-5.4-7.5-10.3-15.3-14.6-23.4"/>
<path class="st0" d="M213.9,332.3c-3.2,8.7-5.7,17.5-7.6,26.6c-1.9,9-3.2,18.2-3.8,27.4"/>
<path class="st0" d="M225.2,307c4.3-8.1,9.2-16,14.6-23.4"/>
<path class="st0" d="M257.6,262.5c6.4-6.6,13.3-12.8,20.5-18.5s14.9-10.8,22.9-15.4"/>
<path class="st0" d="M406.9,202.1c-9.2-0.3-18.4,0-27.6,1c-9.2,1-18.3,2.6-27.2,4.8"/>
<path class="st0" d="M434.4,205c9.1,1.6,18,3.8,26.8,6.7c8.8,2.8,17.3,6.3,25.6,10.3c8.3,4,16.3,8.7,23.9,13.8
	c7.6,5.2,14.9,10.8,21.8,17c6.9,6.2,13.3,12.8,19.2,19.9"/>
<path class="st0" d="M567.9,295.1c4.9,7.8,9.2,16,13,24.4c3.7,8.4,6.9,17.1,9.4,26c2.5,8.9,4.5,17.9,5.7,27
	c1.3,9.1,1.9,18.3,1.9,27.6c0,9.2-0.6,18.4-1.9,27.6c-1.3,9.1-3.2,18.2-5.7,27c-2.5,8.9-5.7,17.5-9.4,26c-3.7,8.4-8.1,16.6-13,24.4"
	/>
<path class="st0" d="M488.6,581.6c8.5-4.1,16.6-8.8,24.4-14.1c7.8-5.3,15.2-11.1,22.2-17.4c7-6.3,13.5-13.1,19.6-20.3"/>
<path class="st0" d="M462.4,592.1c-8.9,2.9-18.1,5.2-27.3,6.8"/>
<path class="st0" d="M351.1,596c9.1,2.3,18.4,3.9,27.8,4.9c9.4,1,18.8,1.3,28.2,1"/>
<path class="st0" d="M275.6,559.2c7.4,5.8,15.2,11.1,23.4,15.8c8.1,4.7,16.6,8.8,25.3,12.4"/>
<path class="st0" d="M254.7,540.3c-6.5-6.8-12.6-14-18.1-21.6c-5.5-7.6-10.5-15.6-14.9-23.9"/>
<path class="st0" d="M210.2,330.9c-3.2,8.8-5.8,17.9-7.8,27.1s-3.3,18.5-3.9,27.9"/>
<path class="st0" d="M221.6,305.2c4.4-8.3,9.4-16.3,14.9-23.9"/>
<path class="st0" d="M299,225.1c-8.1,4.7-16,10-23.4,15.8c-7.4,5.8-14.4,12.1-20.9,18.9"/>
<path class="st0" d="M407,198.1c-9.4-0.3-18.8,0-28.2,1c-9.4,1-18.6,2.6-27.8,4.9"/>
<path class="st0" d="M435.1,201.1c9.3,1.6,18.4,3.9,27.3,6.8c8.9,2.9,17.7,6.4,26.1,10.6c8.5,4.1,16.6,8.8,24.4,14.1
	s15.2,11.1,22.2,17.4c7,6.3,13.5,13.1,19.6,20.3"/>
<path class="st0" d="M571.3,293c5,8,9.4,16.3,13.2,24.9c3.8,8.6,7,17.4,9.6,26.5c2.6,9,4.6,18.3,5.9,27.6c1.3,9.3,2,18.7,2,28.1
	c0,9.4-0.7,18.8-2,28.1c-1.3,9.3-3.3,18.5-5.9,27.6c-2.6,9-5.8,17.9-9.6,26.5s-8.2,16.9-13.2,24.9"/>
<path class="st0" d="M557.8,532.4c-6.2,7.3-12.8,14.3-20,20.7c-7.1,6.4-14.7,12.3-22.6,17.7c-8,5.4-16.3,10.2-24.9,14.4"/>
<path class="st0" d="M463.7,595.9c-9.1,3-18.4,5.3-27.9,7"/>
<path class="st0" d="M407.2,605.9c-9.6,0.3-19.2,0-28.7-1c-9.5-1-19-2.7-28.3-5"/>
<path class="st0" d="M322.8,591c-8.9-3.6-17.5-7.8-25.8-12.6c-8.3-4.8-16.3-10.2-23.8-16.1"/>
<path class="st0" d="M218.1,496.7c4.5,8.5,9.6,16.6,15.2,24.4s11.8,15.1,18.5,22"/>
<path class="st0" d="M194.5,385.6c0.7-9.6,2-19.1,4-28.5c2-9.4,4.6-18.6,7.9-27.6"/>
<path class="st0" d="M218.1,303.3c4.5-8.5,9.6-16.6,15.2-24.4"/>
<path class="st0" d="M251.8,256.9c6.7-6.9,13.8-13.3,21.4-19.2c7.6-5.9,15.5-11.3,23.8-16.1"/>
<path class="st0" d="M350.2,200.1c9.3-2.3,18.8-4,28.3-5c9.5-1,19.1-1.3,28.7-1"/>
<path class="st0" d="M557.8,267.6c-6.2-7.3-12.8-14.3-20-20.7c-7.1-6.4-14.7-12.3-22.6-17.7c-8-5.4-16.3-10.2-24.9-14.4
	c-8.6-4.2-17.5-7.8-26.6-10.8c-9.1-3-18.4-5.3-27.9-7"/>
<path class="st0" d="M574.7,290.8c5.1,8.1,9.6,16.6,13.5,25.4c3.9,8.8,7.2,17.8,9.8,27s4.6,18.6,6,28.1c1.3,9.5,2,19.1,2,28.7
	c0,9.6-0.7,19.2-2,28.7c-1.3,9.5-3.3,18.9-6,28.1c-2.6,9.2-5.9,18.2-9.8,27c-3.9,8.8-8.4,17.2-13.5,25.4"/>
<path class="st0" d="M492.1,588.7c8.8-4.3,17.3-9.2,25.4-14.6c8.1-5.5,15.8-11.5,23.1-18c7.3-6.5,14.1-13.6,20.4-21.1"/>
<path class="st0" d="M464.9,599.7c-9.3,3-18.8,5.4-28.4,7.1"/>
<path class="st0" d="M407.3,609.9c-9.8,0.3-19.6,0-29.3-1c-9.7-1-19.4-2.7-28.9-5.1"/>
<path class="st0" d="M270.7,565.5c7.7,6,15.8,11.5,24.3,16.4c8.5,4.9,17.3,9.2,26.3,12.8"/>
<path class="st0" d="M248.9,545.9c-6.8-7-13.1-14.5-18.8-22.4c-5.7-7.9-10.9-16.2-15.5-24.8"/>
<path class="st0" d="M190.5,385.4c0.7-9.8,2-19.4,4.1-29c2-9.6,4.7-19,8.1-28.2"/>
<path class="st0" d="M214.6,301.4c4.6-8.6,9.8-16.9,15.5-24.8"/>
<path class="st0" d="M295,218.1c-8.5,4.9-16.6,10.4-24.3,16.4c-7.7,6-15,12.6-21.8,19.6"/>
<path class="st0" d="M407.3,190.1c-9.8-0.3-19.6,0-29.3,1c-9.7,1-19.4,2.7-28.9,5.1"/>
<path class="st0" d="M560.9,265c-6.3-7.5-13.1-14.5-20.4-21.1c-7.3-6.5-15-12.6-23.1-18c-8.1-5.5-16.6-10.4-25.4-14.6
	c-8.8-4.3-17.9-8-27.2-11c-9.3-3-18.8-5.4-28.4-7.1"/>
<path class="st0" d="M578.1,288.7c5.2,8.3,9.8,16.9,13.8,25.9c4,8.9,7.3,18.1,10,27.5c2.7,9.4,4.7,19,6.1,28.7
	c1.4,9.7,2,19.4,2,29.2c0,9.8-0.7,19.5-2,29.2c-1.4,9.7-3.4,19.3-6.1,28.7c-2.7,9.4-6,18.6-10,27.5c-4,8.9-8.6,17.6-13.8,25.9"/>
<path class="st0" d="M611.9,429.8c-1.4,9.9-3.5,19.6-6.2,29.2"/>
<path class="st0" d="M563.9,537.6c-6.4,7.6-13.3,14.8-20.7,21.5"/>
<path class="st0" d="M466.1,603.5c-9.5,3.1-19.2,5.5-29,7.2s-19.7,2.8-29.7,3.1"/>
<path class="st0" d="M348.2,607.6c-9.7-2.4-19.2-5.5-28.4-9.2c-9.2-3.7-18.2-8.1-26.8-13.1"/>
<path class="st0" d="M211,500.5c4.7,8.8,10,17.3,15.8,25.3c5.9,8.1,12.3,15.7,19.2,22.9"/>
<path class="st0" d="M198.9,473.2c-3.4-9.4-6.2-19-8.2-28.7c-2.1-9.7-3.5-19.6-4.2-29.6c-0.7-9.9-0.7-19.9,0-29.9"/>
<path class="st0" d="M226.9,274.2c-5.9,8.1-11.1,16.5-15.8,25.3c-4.7,8.8-8.7,17.9-12.1,27.3c-3.4,9.4-6.2,19-8.2,28.7"/>
<path class="st0" d="M246.1,251.3c6.9-7.2,14.3-13.8,22.2-20"/>
<path class="st0" d="M293,214.7c8.6-5,17.6-9.4,26.8-13.1c9.2-3.7,18.7-6.8,28.4-9.2c9.7-2.4,19.5-4.1,29.4-5.2
	c9.9-1,19.9-1.4,29.8-1c10,0.3,19.9,1.4,29.7,3.1c9.8,1.7,19.5,4.1,29,7.2c9.5,3.1,18.7,6.8,27.7,11.2c9,4.4,17.6,9.4,25.9,14.9
	c8.3,5.6,16.1,11.7,23.5,18.4s14.3,13.8,20.7,21.5"/>
<path class="st0" d="M581.5,286.6c5.3,8.5,10,17.3,14,26.4c4.1,9.1,7.5,18.5,10.2,28.1"/>
<path class="st0" d="M615.9,430.3c-1.4,10.1-3.5,20-6.3,29.7"/>
<path class="st0" d="M567,540.1c-6.5,7.8-13.6,15.1-21.1,21.9"/>
<path class="st0" d="M467.4,607.3c-9.7,3.1-19.5,5.6-29.5,7.4c-10,1.8-20.1,2.8-30.2,3.2"/>
<path class="st0" d="M291,588.8c8.8,5.1,17.9,9.5,27.3,13.3c9.4,3.8,19.1,6.9,28.9,9.4"/>
<path class="st0" d="M207.5,502.3c4.8,9,10.2,17.6,16.1,25.8c6,8.2,12.5,16,19.5,23.3"/>
<path class="st0" d="M195.1,474.6c-3.5-9.5-6.3-19.3-8.4-29.2c-2.1-9.9-3.5-20-4.2-30.1c-0.7-10.1-0.7-20.3,0-30.4"/>
<path class="st0" d="M223.6,271.9c-6,8.2-11.4,16.8-16.1,25.8c-4.8,9-8.9,18.2-12.4,27.8c-3.5,9.5-6.3,19.3-8.4,29.2"/>
<path class="st0" d="M243.2,248.6c7.1-7.3,14.6-14.1,22.6-20.4"/>
<path class="st0" d="M291,211.2c8.8-5.1,17.9-9.5,27.3-13.3c9.4-3.8,19.1-6.9,28.9-9.4c9.8-2.5,19.9-4.2,30-5.3s20.3-1.4,30.4-1.1
	c10.1,0.4,20.3,1.4,30.2,3.2c10,1.8,19.9,4.2,29.5,7.4c9.7,3.1,19.1,6.9,28.2,11.4c9.1,4.4,17.9,9.5,26.3,15.2
	c8.4,5.7,16.4,11.9,24,18.7c7.5,6.8,14.6,14.1,21.1,21.9"/>
<path class="st0" d="M609.6,339.9c-2.8-9.8-6.3-19.3-10.4-28.6c-4.1-9.3-8.9-18.2-14.3-26.9"/>
<path class="st0" d="M619.8,430.9c-1.4,10.2-3.6,20.4-6.4,30.3"/>
<path class="st0" d="M570.1,542.7c-6.6,7.9-13.8,15.4-21.5,22.3"/>
<path class="st0" d="M407.7,621.9c10.3-0.4,20.6-1.4,30.8-3.2c10.2-1.8,20.2-4.3,30.1-7.5"/>
<path class="st0" d="M289,592.3c9,5.2,18.3,9.7,27.8,13.6c9.6,3.9,19.4,7.1,29.5,9.6"/>
<path class="st0" d="M204,504.2c4.9,9.1,10.3,17.9,16.4,26.3s12.7,16.3,19.9,23.7"/>
<path class="st0" d="M178.5,384.5c-0.7,10.3-0.7,20.7,0,31c0.7,10.3,2.2,20.6,4.3,30.7c2.1,10.1,5,20.1,8.5,29.8"/>
<path class="st0" d="M182.9,353.8c2.1-10.1,5-20.1,8.5-29.8s7.7-19.2,12.6-28.3c4.9-9.1,10.3-17.9,16.4-26.3"/>
<path class="st0" d="M240.3,245.8c7.2-7.4,14.9-14.4,23-20.7"/>
<path class="st0" d="M570.1,257.3c-6.6-7.9-13.8-15.4-21.5-22.3c-7.7-6.9-15.8-13.3-24.4-19.1c-8.6-5.8-17.5-11-26.8-15.5
	c-9.3-4.5-18.9-8.4-28.7-11.6c-9.8-3.2-19.9-5.7-30.1-7.5c-10.2-1.8-20.5-2.9-30.8-3.2c-10.3-0.4-20.7,0-31,1.1
	c-10.3,1.1-20.5,2.9-30.5,5.4c-10,2.5-19.9,5.7-29.5,9.6c-9.6,3.9-18.9,8.4-27.8,13.6"/>
<path class="st0" d="M588.3,282.4c5.5,8.8,10.3,17.9,14.5,27.3c4.2,9.4,7.7,19.2,10.6,29.1"/>
<path class="st0" d="M623.8,431.5c-1.5,10.4-3.7,20.7-6.6,30.8"/>
<path class="st0" d="M573.1,545.3c-6.8,8.1-14.1,15.6-21.9,22.7"/>
<path class="st0" d="M469.8,614.9c-10,3.3-20.2,5.8-30.6,7.6c-10.4,1.8-20.8,2.9-31.4,3.3"/>
<path class="st0" d="M345.3,619.3c-10.2-2.5-20.2-5.8-30-9.7c-9.8-3.9-19.2-8.6-28.3-13.8"/>
<path class="st0" d="M237.4,557c-7.3-7.6-14.1-15.6-20.3-24.2s-11.8-17.4-16.7-26.7"/>
<path class="st0" d="M174.6,384.2c-0.7,10.5-0.7,21,0,31.5c0.7,10.5,2.2,20.9,4.4,31.2c2.2,10.3,5.1,20.4,8.7,30.3"/>
<path class="st0" d="M178.9,353c2.2-10.3,5.1-20.4,8.7-30.3c3.6-9.9,7.9-19.5,12.8-28.8c4.9-9.3,10.5-18.2,16.7-26.7"/>
<path class="st0" d="M237.4,243c7.3-7.6,15.1-14.6,23.4-21.1"/>
<path class="st0" d="M287,204.3c9.1-5.3,18.6-9.9,28.3-13.8c9.8-3.9,19.8-7.2,30-9.7c10.2-2.5,20.6-4.4,31.1-5.5
	c10.5-1.1,21-1.5,31.5-1.1c10.5,0.4,21,1.5,31.4,3.3c10.4,1.8,20.6,4.4,30.6,7.6c10,3.3,19.8,7.2,29.2,11.8
	c9.5,4.6,18.6,9.9,27.3,15.8c8.7,5.9,17,12.4,24.8,19.4c7.8,7,15.1,14.6,21.9,22.7"/>
<path class="st0" d="M617.2,337.7c-2.9-10.1-6.5-20-10.8-29.6c-4.3-9.6-9.2-18.9-14.8-27.8"/>
<path class="st0" d="M627.8,432c-1.5,10.6-3.7,21.1-6.7,31.4"/>
<path class="st0" d="M576.2,547.8c-6.9,8.2-14.3,15.9-22.3,23.1"/>
<path class="st0" d="M471.1,618.7c-10.2,3.3-20.6,5.9-31.1,7.8c-10.5,1.9-21.2,3-31.9,3.4"/>
<path class="st0" d="M285,599.2c9.3,5.4,18.9,10.1,28.8,14.1c9.9,4,20.1,7.3,30.5,9.9"/>
<path class="st0" d="M234.6,559.8c-7.4-7.7-14.3-15.9-20.6-24.6c-6.3-8.7-12-17.8-17-27.2"/>
<path class="st0" d="M183.9,478.7c-3.7-10.1-6.6-20.4-8.8-30.8c-2.2-10.5-3.7-21.1-4.5-31.8c-0.7-10.7-0.7-21.4,0-32.1"/>
<path class="st0" d="M175,352.2c2.2-10.5,5.2-20.8,8.8-30.8c3.7-10.1,8-19.9,13.1-29.3c5-9.5,10.7-18.5,17-27.2"/>
<path class="st0" d="M234.6,240.2c7.4-7.7,15.4-14.9,23.8-21.5"/>
<path class="st0" d="M576.2,252.2c-6.9-8.2-14.3-15.9-22.3-23.1c-8-7.2-16.4-13.8-25.3-19.8c-8.9-6-18.2-11.3-27.8-16
	s-19.6-8.7-29.8-12c-10.2-3.3-20.6-5.9-31.1-7.8c-10.5-1.9-21.2-3-31.9-3.4s-21.4,0-32.1,1.1c-10.7,1.1-21.2,3-31.6,5.6
	c-10.4,2.6-20.6,5.9-30.5,9.9s-19.6,8.7-28.8,14.1"/>
<path class="st0" d="M595.1,278.1c5.7,9.1,10.7,18.5,15.1,28.3c4.4,9.8,8,19.9,11,30.2"/>
<path class="st0" d="M631.7,432.6c-1.5,10.8-3.8,21.5-6.8,31.9"/>
<path class="st0" d="M579.3,550.4c-7,8.3-14.6,16.2-22.7,23.5"/>
<path class="st0" d="M408.2,633.9c10.9-0.4,21.7-1.5,32.5-3.4s21.3-4.5,31.7-7.9"/>
<path class="st0" d="M283,602.6c9.4,5.4,19.2,10.2,29.3,14.3s20.5,7.5,31,10.1"/>
<path class="st0" d="M231.7,562.6c-7.6-7.8-14.6-16.2-21-25c-6.4-8.8-12.2-18.1-17.3-27.7"/>
<path class="st0" d="M180.1,480c-3.7-10.2-6.7-20.7-9-31.4c-2.3-10.7-3.8-21.5-4.5-32.3c-0.8-10.9-0.8-21.8,0-32.6"/>
<path class="st0" d="M171.1,351.3c2.3-10.7,5.3-21.1,9-31.4c3.7-10.2,8.2-20.2,13.3-29.8c5.1-9.6,10.9-18.9,17.3-27.7"/>
<path class="st0" d="M231.7,237.4c7.6-7.8,15.7-15.1,24.3-21.8"/>
<path class="st0" d="M283,197.4c9.4-5.4,19.2-10.2,29.3-14.3s20.5-7.5,31-10.1s21.3-4.5,32.2-5.7c10.8-1.1,21.7-1.5,32.6-1.1
	c10.9,0.4,21.7,1.5,32.5,3.4c10.7,1.9,21.3,4.5,31.7,7.9c10.4,3.4,20.5,7.5,30.3,12.2c9.8,4.8,19.2,10.2,28.3,16.3
	c9,6.1,17.6,12.8,25.7,20.1c8.1,7.3,15.7,15.1,22.7,23.5"/>
<path class="st0" d="M624.9,335.5c-3-10.5-6.7-20.7-11.2-30.7c-4.4-10-9.6-19.6-15.3-28.8"/>
<path class="st0" d="M635.7,433.1c-1.5,11-3.8,21.8-6.9,32.5"/>
<path class="st0" d="M582.3,553c-7.1,8.5-14.8,16.5-23.1,23.9"/>
<path class="st0" d="M473.5,626.4c-10.5,3.4-21.3,6.1-32.2,8c-10.9,1.9-21.9,3.1-33,3.5"/>
<path class="st0" d="M281,606.1c9.6,5.5,19.6,10.4,29.8,14.6c10.3,4.2,20.8,7.6,31.6,10.3"/>
<path class="st0" d="M228.8,565.3c-7.7-8-14.8-16.5-21.3-25.4c-6.5-9-12.4-18.4-17.6-28.2"/>
<path class="st0" d="M176.4,481.4c-3.8-10.4-6.8-21.1-9.2-31.9c-2.3-10.8-3.8-21.8-4.6-32.9c-0.8-11.1-0.8-22.1,0-33.2"/>
<path class="st0" d="M207.5,260.1c-6.5,9-12.4,18.4-17.6,28.2c-5.2,9.8-9.7,19.9-13.5,30.3c-3.8,10.4-6.8,21.1-9.2,31.9"/>
<path class="st0" d="M228.8,234.7c7.7-8,15.9-15.4,24.7-22.2"/>
<path class="st0" d="M582.3,247c-7.1-8.5-14.8-16.5-23.1-23.9c-8.2-7.4-17-14.2-26.2-20.4c-9.2-6.2-18.8-11.7-28.8-16.6
	c-10-4.9-20.2-9-30.8-12.4c-10.5-3.4-21.3-6.1-32.2-8c-10.9-1.9-21.9-3.1-33-3.5c-11.1-0.4-22.2,0-33.2,1.2
	c-11,1.2-21.9,3.1-32.7,5.8c-10.8,2.7-21.3,6.1-31.6,10.3c-10.3,4.2-20.2,9-29.8,14.6"/>
<path class="st0" d="M601.8,273.9c5.9,9.4,11.1,19.2,15.6,29.3c4.5,10.1,8.3,20.5,11.4,31.2"/>
<path class="st0" d="M639.6,433.7c-1.6,11.2-3.9,22.2-7,33"/>
<path class="st0" d="M585.4,555.6c-7.2,8.6-15.1,16.7-23.5,24.3"/>
<path class="st0" d="M408.4,641.9c11.3-0.4,22.5-1.6,33.6-3.5c11.1-2,22-4.7,32.8-8.2"/>
<path class="st0" d="M279,609.6c9.8,5.6,19.9,10.6,30.3,14.8c10.4,4.2,21.2,7.7,32.1,10.4"/>
<path class="st0" d="M186.3,513.6c5.3,9.9,11.3,19.5,17.9,28.6c6.6,9.1,13.9,17.8,21.7,25.9"/>
<path class="st0" d="M158.6,383.1c-0.8,11.2-0.8,22.5,0,33.8c0.8,11.2,2.4,22.4,4.7,33.4c2.3,11,5.5,21.9,9.3,32.5"/>
<path class="st0" d="M163.3,349.7c2.3-11,5.5-21.9,9.3-32.5c3.9-10.6,8.4-20.9,13.7-30.8c5.3-9.9,11.3-19.5,17.9-28.6"/>
<path class="st0" d="M225.9,231.9c7.8-8.1,16.2-15.7,25.1-22.6"/>
<path class="st0" d="M585.4,244.4c-7.2-8.6-15.1-16.7-23.5-24.3c-8.4-7.5-17.3-14.5-26.6-20.8c-9.3-6.3-19.1-11.9-29.2-16.9
	c-10.1-4.9-20.6-9.2-31.3-12.6c-10.7-3.5-21.7-6.2-32.8-8.2c-11.1-2-22.3-3.1-33.6-3.5c-11.3-0.4-22.5,0-33.7,1.2
	c-11.2,1.2-22.3,3.1-33.2,5.9c-10.9,2.7-21.7,6.2-32.1,10.4c-10.4,4.2-20.6,9.2-30.3,14.8"/>
<path class="st0" d="M632.6,333.3c-3.1-10.8-7-21.4-11.5-31.7s-9.9-20.3-15.9-29.8"/>
<path class="st0" d="M643.6,434.2c-1.6,11.3-4,22.6-7.1,33.6"/>
<path class="st0" d="M588.4,558.1c-7.4,8.8-15.3,17-23.8,24.7"/>
<path class="st0" d="M408.6,645.9c11.4-0.4,22.9-1.6,34.1-3.6s22.4-4.8,33.3-8.3"/>
<path class="st0" d="M277,613c9.9,5.7,20.2,10.8,30.8,15c10.6,4.3,21.5,7.8,32.6,10.6"/>
<path class="st0" d="M223,570.9c-8-8.2-15.3-17-22.1-26.3c-6.7-9.3-12.8-19-18.2-29.1"/>
<path class="st0" d="M154.6,382.8c-0.8,11.4-0.8,22.9,0,34.3c0.8,11.4,2.4,22.8,4.8,34c2.4,11.2,5.5,22.2,9.5,33"/>
<path class="st0" d="M201,255.4c-6.7,9.3-12.8,19-18.2,29.1c-5.4,10.1-10,20.6-14,31.4c-3.9,10.8-7.1,21.8-9.5,33"/>
<path class="st0" d="M223,229.1c8-8.2,16.5-15.9,25.5-23"/>
<path class="st0" d="M588.4,241.9c-7.4-8.8-15.3-17-23.8-24.7c-8.5-7.7-17.5-14.7-27-21.1c-9.5-6.4-19.4-12.1-29.7-17.2
	c-10.3-5-20.9-9.3-31.8-12.9c-10.9-3.5-22-6.3-33.3-8.3c-11.3-2-22.7-3.2-34.1-3.6c-11.4-0.4-22.9,0-34.3,1.2
	c-11.4,1.2-22.7,3.2-33.8,6c-11.1,2.8-22,6.3-32.6,10.6c-10.6,4.3-20.9,9.3-30.8,15"/>
<path class="st0" d="M608.6,269.6c6.1,9.7,11.5,19.8,16.1,30.3c4.7,10.5,8.6,21.2,11.7,32.3"/>
<path class="st0" d="M650,400c0,11.6-0.8,23.3-2.4,34.8"/>
<path class="st0" d="M612,532.5c6.2-9.9,11.6-20.2,16.4-30.8c4.7-10.6,8.7-21.6,11.9-32.8"/>
<path class="st0" d="M567.3,585.8c-8.7,7.8-17.8,15-27.5,21.5"/>
<path class="st0" d="M373.9,648.6c11.6,1.2,23.2,1.6,34.9,1.2s23.2-1.6,34.7-3.6"/>
<path class="st0" d="M339.5,642.6c-11.3-2.8-22.4-6.4-33.2-10.8"/>
<path class="st0" d="M150.6,417.4c0.8,11.6,2.4,23.2,4.9,34.5c2.4,11.4,5.6,22.6,9.6,33.5c4,10.9,8.7,21.6,14.2,31.9
	c5.5,10.3,11.6,20.2,18.5,29.6s14.3,18.3,22.4,26.7"/>
<path class="st0" d="M275,183.5c-10.1,5.8-19.7,12.3-28.9,19.5c-9.2,7.2-17.8,15-25.9,23.3c-8.1,8.4-15.6,17.3-22.4,26.7
	c-6.8,9.4-13,19.3-18.5,29.6"/>
<path class="st0" d="M306.3,168.2c10.8-4.4,21.9-8,33.2-10.8"/>
<path class="st0" d="M373.9,151.4c11.6-1.2,23.2-1.6,34.9-1.2"/>
<path class="st0" d="M539.8,192.7c-9.7-6.5-19.7-12.3-30.2-17.4c-10.5-5.1-21.3-9.5-32.3-13.1c-11.1-3.6-22.4-6.4-33.8-8.4"/>
<path class="st0" d="M591.5,239.3c7.5,8.9,14.3,18.3,20.5,28.2c6.2,9.9,11.6,20.2,16.4,30.8c4.7,10.6,8.7,21.6,11.9,32.8
	c3.2,11.2,5.6,22.6,7.3,34.1"/>
<path class="st0" d="M654,400c0,11.8-0.8,23.6-2.5,35.4"/>
<path class="st0" d="M644.2,470c-3.3,11.4-7.3,22.5-12.1,33.3c-4.8,10.8-10.4,21.3-16.6,31.3"/>
<path class="st0" d="M570,588.8c-8.8,7.9-18.1,15.2-27.9,21.8"/>
<path class="st0" d="M373.4,652.6c11.8,1.2,23.6,1.6,35.4,1.2c11.8-0.4,23.6-1.7,35.2-3.7"/>
<path class="st0" d="M338.6,646.5c-11.5-2.9-22.7-6.5-33.7-11"/>
<path class="st0" d="M146.6,417.7c0.8,11.8,2.5,23.5,4.9,35.1c2.5,11.6,5.7,23,9.8,34.1c4,11.1,8.9,21.9,14.4,32.4
	c5.6,10.4,11.8,20.5,18.8,30.1c7,9.6,14.6,18.6,22.8,27.1"/>
<path class="st0" d="M273,180c-10.2,5.9-20.1,12.5-29.4,19.8c-9.3,7.3-18.1,15.2-26.3,23.7c-8.2,8.5-15.8,17.6-22.8,27.1
	c-7,9.6-13.2,19.6-18.8,30.1"/>
<path class="st0" d="M304.8,164.5c11-4.4,22.2-8.1,33.7-11"/>
<path class="st0" d="M373.4,147.4c11.8-1.2,23.6-1.6,35.4-1.2"/>
<path class="st0" d="M444.1,149.9c11.6,2.1,23.1,4.9,34.4,8.6c11.2,3.7,22.2,8.1,32.9,13.3c10.6,5.2,20.9,11.1,30.7,17.7"/>
<path class="st0" d="M651.5,364.6c-1.6-11.7-4.1-23.3-7.4-34.7c-3.3-11.4-7.3-22.5-12.1-33.3c-4.8-10.8-10.4-21.3-16.6-31.3
	c-6.3-10-13.2-19.6-20.8-28.7"/>
<path class="st0" d="M658,400c0,12-0.8,24-2.5,35.9"/>
<path class="st0" d="M618.8,536.7c6.4-10.2,12-20.8,16.9-31.8c4.9-11,9-22.3,12.3-33.8"/>
<path class="st0" d="M572.6,591.7c-8.9,8-18.4,15.4-28.4,22.2"/>
<path class="st0" d="M444.8,654.1c-11.8,2.1-23.8,3.3-35.8,3.8c-12,0.4-24,0-36-1.3"/>
<path class="st0" d="M337.6,650.3c-11.7-2.9-23.1-6.6-34.2-11.1"/>
<path class="st0" d="M214.4,579.2c-8.3-8.6-16.1-17.9-23.1-27.6c-7.1-9.7-13.4-19.9-19.1-30.5c-5.6-10.6-10.5-21.6-14.6-32.9
	c-4.1-11.3-7.4-22.8-9.9-34.6c-2.5-11.8-4.2-23.7-5-35.6"/>
<path class="st0" d="M271,176.6c-10.4,6-20.4,12.7-29.8,20.1c-9.5,7.4-18.4,15.4-26.7,24.1c-8.3,8.6-16.1,17.9-23.1,27.6
	c-7.1,9.7-13.4,19.9-19.1,30.5"/>
<path class="st0" d="M303.4,160.8c11.1-4.5,22.6-8.2,34.2-11.1"/>
<path class="st0" d="M373,143.4c11.9-1.3,24-1.7,36-1.3"/>
<path class="st0" d="M544.3,186.1c-10-6.7-20.4-12.7-31.2-18c-10.8-5.3-21.9-9.8-33.4-13.5c-11.4-3.7-23.1-6.6-34.9-8.7"/>
<path class="st0" d="M655.5,364.1c-1.7-11.9-4.2-23.7-7.5-35.2c-3.3-11.5-7.4-22.8-12.3-33.8s-10.5-21.6-16.9-31.8
	c-6.4-10.2-13.4-19.9-21.2-29.1"/>
<path class="st0" d="M662,400c0,12.2-0.9,24.4-2.5,36.5"/>
<path class="st0" d="M651.9,472.2c-3.4,11.7-7.5,23.2-12.5,34.3c-5,11.1-10.7,21.9-17.2,32.3"/>
<path class="st0" d="M575.3,594.7c-9.1,8.2-18.7,15.7-28.8,22.5"/>
<path class="st0" d="M372.6,660.6c12.1,1.3,24.3,1.7,36.5,1.3c12.2-0.4,24.3-1.7,36.4-3.8"/>
<path class="st0" d="M336.6,654.2c-11.8-3-23.5-6.7-34.8-11.3"/>
<path class="st0" d="M138.6,418.3c0.9,12.2,2.6,24.3,5.1,36.2c2.5,11.9,5.9,23.7,10.1,35.1c4.2,11.5,9.1,22.6,14.9,33.4
	c5.7,10.8,12.2,21.1,19.4,31c7.2,9.9,15,19.2,23.5,28"/>
<path class="st0" d="M269,173.1c-10.6,6.1-20.7,12.9-30.3,20.4c-9.6,7.5-18.7,15.7-27.2,24.5c-8.5,8.8-16.3,18.1-23.5,28
	c-7.2,9.9-13.6,20.2-19.4,31"/>
<path class="st0" d="M301.9,157.1c11.3-4.6,22.9-8.3,34.8-11.3"/>
<path class="st0" d="M372.6,139.4c12.1-1.3,24.3-1.7,36.5-1.3"/>
<path class="st0" d="M445.5,142c12,2.1,23.9,5.1,35.5,8.8c11.6,3.8,22.9,8.3,33.9,13.7c11,5.3,21.5,11.5,31.7,18.3"/>
<path class="st0" d="M659.5,363.5c-1.7-12.1-4.2-24-7.6-35.8c-3.4-11.7-7.5-23.2-12.5-34.3c-5-11.1-10.7-21.9-17.2-32.3
	c-6.5-10.3-13.6-20.2-21.5-29.6"/>
<path class="st0" d="M666,400c0,12.4-0.9,24.8-2.6,37"/>
<path class="st0" d="M625.6,541c6.6-10.5,12.4-21.5,17.4-32.8s9.3-23,12.7-34.9"/>
<path class="st0" d="M578,597.7c-9.2,8.3-19,15.9-29.2,22.8"/>
<path class="st0" d="M446.2,662c-12.2,2.2-24.5,3.4-36.9,3.9s-24.8,0-37.1-1.3"/>
<path class="st0" d="M335.6,658.1c-12-3-23.8-6.8-35.3-11.5"/>
<path class="st0" d="M208.7,584.8c-8.6-8.9-16.6-18.4-23.9-28.4c-7.3-10-13.9-20.5-19.7-31.5c-5.8-10.9-10.9-22.3-15.1-33.9
	c-4.2-11.6-7.7-23.6-10.2-35.7s-4.3-24.4-5.2-36.7"/>
<path class="st0" d="M267,169.6c-10.7,6.2-21,13.1-30.8,20.8c-9.8,7.6-19,15.9-27.6,24.8c-8.6,8.9-16.6,18.4-23.9,28.4
	s-13.9,20.5-19.7,31.5"/>
<path class="st0" d="M300.4,153.4c11.5-4.6,23.3-8.5,35.3-11.5"/>
<path class="st0" d="M372.2,135.5c12.3-1.3,24.7-1.7,37.1-1.3"/>
<path class="st0" d="M548.7,179.5c-10.3-6.9-21-13.1-32.1-18.6c-11.1-5.4-22.6-10.1-34.4-13.9c-11.8-3.8-23.8-6.8-36-9"/>
<path class="st0" d="M603.8,229c8,9.5,15.2,19.5,21.8,30c6.6,10.5,12.4,21.5,17.4,32.8c5,11.3,9.3,23,12.7,34.9
	c3.4,11.9,6,24,7.7,36.3"/>
<path class="st0" d="M670,400c0,12.6-0.9,25.1-2.6,37.6"/>
<path class="st0" d="M659.5,474.4c-3.5,12.1-7.8,23.9-12.9,35.4s-11,22.6-17.7,33.3"/>
<path class="st0" d="M580.7,600.6c-9.3,8.4-19.3,16.2-29.7,23.2"/>
<path class="st0" d="M446.9,665.9c-12.4,2.2-24.9,3.5-37.5,3.9c-12.6,0.4-25.1,0-37.6-1.3"/>
<path class="st0" d="M334.7,662c-12.2-3-24.2-6.9-35.8-11.6"/>
<path class="st0" d="M130.7,418.8c0.9,12.5,2.6,25,5.2,37.3s6.1,24.4,10.4,36.2c4.3,11.8,9.4,23.3,15.3,34.4
	c5.9,11.1,12.6,21.8,20,31.9c7.4,10.2,15.5,19.8,24.2,28.9"/>
<path class="st0" d="M265,166.2c-10.9,6.3-21.3,13.3-31.2,21.1c-9.9,7.7-19.3,16.2-28,25.2c-8.7,9-16.8,18.7-24.2,28.9
	c-7.4,10.2-14.1,20.8-20,31.9"/>
<path class="st0" d="M298.9,149.7c11.7-4.7,23.6-8.6,35.8-11.6"/>
<path class="st0" d="M371.8,131.5c12.5-1.3,25.1-1.8,37.6-1.3"/>
<path class="st0" d="M446.9,134.1c12.4,2.2,24.6,5.2,36.5,9.1c12,3.9,23.6,8.6,34.9,14.1c11.3,5.5,22.2,11.8,32.6,18.8"/>
<path class="st0" d="M606.8,226.4c8.1,9.6,15.5,19.8,22.1,30.5c6.7,10.7,12.6,21.8,17.7,33.3c5.1,11.5,9.4,23.3,12.9,35.4
	s6.1,24.4,7.8,36.8"/>
<path class="st0" d="M674,400c0,12.8-0.9,25.5-2.7,38.1"/>
<path class="st0" d="M632.4,545.2c6.8-10.8,12.8-22.1,17.9-33.8c5.2-11.7,9.6-23.7,13.1-35.9"/>
<path class="st0" d="M583.3,603.6c-9.5,8.5-19.5,16.4-30.1,23.5"/>
<path class="st0" d="M447.6,669.8c-12.6,2.2-25.3,3.6-38,4c-12.7,0.4-25.5,0-38.2-1.3"/>
<path class="st0" d="M333.7,665.9c-12.4-3.1-24.5-7-36.4-11.8"/>
<path class="st0" d="M202.9,590.3c-8.9-9.2-17.1-19-24.6-29.3c-7.5-10.3-14.3-21.2-20.3-32.4c-6-11.3-11.2-22.9-15.5-34.9
	c-4.4-12-7.9-24.3-10.5-36.7c-2.7-12.5-4.4-25.1-5.3-37.9"/>
<path class="st0" d="M158.1,271.4c6-11.3,12.8-22.1,20.3-32.4c7.5-10.3,15.7-20.1,24.6-29.3c8.9-9.2,18.4-17.7,28.4-25.6
	c10.1-7.9,20.6-15,31.7-21.4"/>
<path class="st0" d="M297.4,146c11.8-4.8,24-8.7,36.4-11.8"/>
<path class="st0" d="M371.4,127.5c12.7-1.3,25.5-1.8,38.2-1.3"/>
<path class="st0" d="M553.2,172.8c-10.6-7.1-21.6-13.5-33.1-19.1c-11.5-5.6-23.3-10.4-35.4-14.3c-12.1-3.9-24.5-7-37.1-9.2"/>
<path class="st0" d="M671.3,361.9c-1.8-12.6-4.4-25.1-7.9-37.4c-3.5-12.3-7.9-24.3-13.1-35.9c-5.2-11.7-11.2-22.9-17.9-33.8
	c-6.8-10.8-14.3-21.2-22.5-30.9"/>
<path class="st0" d="M678,400c0,12.9-0.9,25.9-2.7,38.7"/>
<path class="st0" d="M667.2,476.6c-3.6,12.4-8,24.6-13.3,36.4c-5.3,11.8-11.3,23.3-18.2,34.2"/>
<path class="st0" d="M586,606.6c-9.6,8.7-19.8,16.6-30.6,23.9"/>
<path class="st0" d="M370.9,676.5c12.9,1.4,25.8,1.8,38.8,1.4c12.9-0.5,25.8-1.8,38.6-4.1"/>
<path class="st0" d="M332.7,669.7c-12.6-3.1-24.9-7.1-36.9-12"/>
<path class="st0" d="M122.7,419.4c0.9,12.9,2.7,25.7,5.4,38.4c2.7,12.7,6.3,25.1,10.7,37.3s9.7,24,15.8,35.4
	c6.1,11.4,12.9,22.4,20.6,32.9c7.6,10.5,15.9,20.4,24.9,29.7"/>
<path class="st0" d="M261,159.2c-11.2,6.5-22,13.7-32.2,21.7c-10.2,8-19.8,16.6-28.8,26c-9,9.3-17.3,19.2-24.9,29.7
	c-7.6,10.5-14.5,21.5-20.6,32.9"/>
<path class="st0" d="M295.9,142.2c12-4.8,24.3-8.9,36.9-12"/>
<path class="st0" d="M370.9,123.5c12.9-1.4,25.8-1.8,38.8-1.4"/>
<path class="st0" d="M448.3,126.2c12.7,2.2,25.3,5.4,37.6,9.4c12.3,4,24.3,8.9,36,14.5c11.6,5.7,22.9,12.2,33.6,19.4"/>
<path class="st0" d="M675.3,361.3c-1.8-12.8-4.5-25.5-8.1-37.9c-3.6-12.4-8-24.6-13.3-36.4c-5.3-11.8-11.3-23.3-18.2-34.2
	c-6.9-11-14.5-21.5-22.8-31.4"/>
<path class="st0" d="M682,400c0,13.1-0.9,26.2-2.7,39.2"/>
<path class="st0" d="M639.1,549.4c7-11.1,13.1-22.7,18.5-34.7s9.8-24.3,13.5-37"/>
<path class="st0" d="M588.7,609.6c-9.8,8.8-20.1,16.9-31,24.2"/>
<path class="st0" d="M370.5,680.5c13.1,1.4,26.2,1.8,39.3,1.4c13.1-0.5,26.2-1.8,39.1-4.1"/>
<path class="st0" d="M331.8,673.6c-12.7-3.2-25.2-7.2-37.4-12.2"/>
<path class="st0" d="M118.7,419.7c0.9,13.1,2.7,26.1,5.5,39c2.7,12.8,6.4,25.5,10.8,37.8c4.5,12.3,9.8,24.3,16,35.9
	c6.2,11.6,13.1,22.7,20.8,33.4c7.7,10.6,16.2,20.7,25.3,30.1"/>
<path class="st0" d="M259,155.8c-11.4,6.6-22.3,13.9-32.6,22c-10.3,8.1-20.1,16.9-29.2,26.3c-9.1,9.4-17.6,19.5-25.3,30.1
	c-7.7,10.6-14.7,21.8-20.8,33.4"/>
<path class="st0" d="M294.4,138.5c12.2-4.9,24.7-9,37.4-12.2"/>
<path class="st0" d="M370.5,119.5c13.1-1.4,26.2-1.8,39.3-1.4"/>
<path class="st0" d="M557.7,166.2c-10.9-7.3-22.3-13.9-34.1-19.7c-11.8-5.8-24-10.7-36.5-14.7c-12.5-4.1-25.2-7.2-38.2-9.5"/>
<path class="st0" d="M616,218.7c8.4,10.1,16.2,20.7,23.1,31.8c7,11.1,13.1,22.7,18.5,34.7c5.3,12,9.8,24.3,13.5,37
	c3.6,12.6,6.4,25.5,8.2,38.5"/>
<path class="st0" d="M619.1,583.8c-8.6,10.2-17.8,19.8-27.7,28.7"/>
<path class="st0" d="M370.1,684.4c13.2,1.4,26.6,1.9,39.9,1.4s26.6-1.9,39.7-4.2c13.1-2.3,26.1-5.5,38.7-9.7"/>
<path class="st0" d="M330.8,677.5c-12.9-3.2-25.6-7.3-37.9-12.3c-12.3-5-24.3-10.8-35.9-17.5c-11.5-6.7-22.6-14.1-33.1-22.3
	c-10.5-8.2-20.4-17.1-29.7-26.7c-9.3-9.6-17.8-19.8-25.6-30.6c-7.8-10.8-14.9-22.1-21.1-33.8"/>
<path class="st0" d="M131.2,497.8c-4.6-12.5-8.2-25.3-11-38.4"/>
<path class="st0" d="M114.7,420c-0.9-13.3-0.9-26.6,0-39.9c0.9-13.3,2.8-26.5,5.6-39.5"/>
<path class="st0" d="M131.2,302.2c4.6-12.5,10-24.7,16.2-36.5"/>
<path class="st0" d="M168.6,231.9c7.8-10.8,16.4-21,25.6-30.6c9.3-9.6,19.2-18.5,29.7-26.7"/>
<path class="st0" d="M257,152.3c11.5-6.7,23.5-12.5,35.9-17.5"/>
<path class="st0" d="M410,114.2c13.3,0.5,26.6,1.9,39.7,4.2"/>
<path class="st0" d="M488.4,128c12.7,4.1,25,9.1,37,14.9"/>
<path class="st0" d="M661.3,283.7c-5.4-12.2-11.7-23.9-18.7-35.2c-7.1-11.3-14.9-22.1-23.5-32.3"/>
<path class="st0" d="M674.9,321.2c3.7,12.8,6.4,25.8,8.3,39c1.9,13.2,2.8,26.5,2.8,39.8c0,13.3-0.9,26.6-2.8,39.8"/>
<path class="st0" d="M687.2,440.4c1.9-13.4,2.8-26.9,2.8-40.4c0-13.5-0.9-27-2.8-40.4c-1.9-13.4-4.7-26.6-8.4-39.6"/>
<path class="st0" d="M622.2,586.4c-8.7,10.3-18.1,20.1-28.1,29.1"/>
<path class="st0" d="M489.6,675.8c-12.8,4.2-26,7.4-39.3,9.8s-26.7,3.8-40.2,4.2c-13.5,0.5-27,0-40.4-1.4"/>
<path class="st0" d="M143.9,536.1c6.3,11.9,13.5,23.4,21.4,34.3s16.6,21.3,26,31s19.4,18.8,30.1,27.1c10.6,8.3,21.8,15.9,33.5,22.6
	c11.7,6.8,23.8,12.7,36.4,17.7s25.4,9.2,38.5,12.5"/>
<path class="st0" d="M127.5,499.2c-4.6-12.7-8.3-25.7-11.2-38.9"/>
<path class="st0" d="M116.3,339.7c-2.8,13.2-4.7,26.6-5.6,40.1c-0.9,13.5-0.9,27,0,40.5"/>
<path class="st0" d="M127.5,300.8c4.6-12.7,10.1-25,16.5-37"/>
<path class="st0" d="M165.4,229.5c7.9-10.9,16.6-21.3,26-31c9.4-9.7,19.4-18.8,30.1-27.1"/>
<path class="st0" d="M255,148.9c11.7-6.8,23.8-12.7,36.4-17.7"/>
<path class="st0" d="M410.1,110.2c13.5,0.5,26.9,1.9,40.2,4.2"/>
<path class="st0" d="M489.6,124.2c12.8,4.2,25.4,9.2,37.5,15.2"/>
<path class="st0" d="M622.2,213.6c8.7,10.3,16.6,21.3,23.8,32.7c7.2,11.5,13.5,23.4,19,35.7"/>
<path class="st0" d="M691.1,440.9c1.9-13.6,2.9-27.2,2.9-40.9c0-13.7-1-27.4-2.9-40.9c-1.9-13.6-4.8-27-8.5-40.1"/>
<path class="st0" d="M625.2,589c-8.8,10.5-18.3,20.3-28.5,29.5"/>
<path class="st0" d="M490.9,679.6c-13,4.2-26.3,7.5-39.8,9.9c-13.5,2.4-27.1,3.8-40.8,4.3c-13.7,0.5-27.4,0-41-1.4"/>
<path class="st0" d="M140.4,538c6.4,12.1,13.7,23.7,21.7,34.8c8,11.1,16.9,21.6,26.4,31.4c9.5,9.8,19.7,19,30.5,27.4
	c10.8,8.4,22.1,16.1,34,22.9c11.9,6.8,24.2,12.9,36.9,18s25.7,9.4,39,12.7"/>
<path class="st0" d="M123.7,500.6c-4.7-12.9-8.5-26-11.3-39.4"/>
<path class="st0" d="M106.7,420.5c-1-13.7-1-27.4,0-41c1-13.7,2.9-27.2,5.7-40.6"/>
<path class="st0" d="M123.7,299.4c4.7-12.9,10.3-25.4,16.7-37.5"/>
<path class="st0" d="M162.1,227.2c8-11.1,16.9-21.6,26.4-31.4c9.5-9.8,19.7-19,30.5-27.4"/>
<path class="st0" d="M253,145.4c11.9-6.8,24.2-12.9,36.9-18"/>
<path class="st0" d="M410.3,106.2c13.7,0.5,27.3,1.9,40.8,4.3"/>
<path class="st0" d="M490.9,120.4c13,4.2,25.7,9.4,38,15.4"/>
<path class="st0" d="M668.6,280.4c-5.6-12.5-12-24.6-19.3-36.2c-7.3-11.6-15.3-22.7-24.1-33.2"/>
<path class="st0" d="M628.3,591.6c-8.9,10.6-18.6,20.6-28.9,29.9"/>
<path class="st0" d="M368.9,696.4c13.8,1.5,27.7,1.9,41.5,1.5c13.9-0.5,27.7-1.9,41.3-4.3c13.7-2.4,27.1-5.8,40.3-10.1"/>
<path class="st0" d="M136.9,539.9c6.5,12.3,13.9,24,22,35.3c8.2,11.2,17.1,21.9,26.7,31.8c9.6,10,20,19.3,30.9,27.8
	c10.9,8.5,22.5,16.3,34.5,23.2c12,6.9,24.5,13,37.4,18.2c12.9,5.2,26.1,9.5,39.5,12.8"/>
<path class="st0" d="M120,501.9c-4.7-13-8.6-26.4-11.5-40"/>
<path class="st0" d="M108.5,338c-2.9,13.6-4.8,27.3-5.8,41.2c-1,13.8-1,27.7,0,41.6"/>
<path class="st0" d="M120,298.1c4.7-13,10.4-25.7,16.9-38"/>
<path class="st0" d="M216.5,165.2c-10.9,8.5-21.3,17.8-30.9,27.8c-9.6,10-18.6,20.6-26.7,31.8"/>
<path class="st0" d="M251,141.9c12-6.9,24.5-13,37.4-18.2"/>
<path class="st0" d="M410.4,102.2c13.9,0.5,27.7,1.9,41.3,4.3"/>
<path class="st0" d="M492.1,116.6c13.2,4.3,26.1,9.5,38.5,15.6"/>
<path class="st0" d="M628.3,208.4c8.9,10.6,17.1,21.9,24.4,33.6c7.4,11.8,13.9,24,19.5,36.7"/>
<path class="st0" d="M686.5,317.9c3.8,13.3,6.7,26.9,8.6,40.7s2.9,27.6,2.9,41.5c0,13.9-1,27.7-2.9,41.5"/>
<path class="st0" d="M699.1,442c2-13.9,2.9-28,2.9-42c0-14.1-1-28.1-2.9-42c-2-13.9-4.9-27.7-8.8-41.2"/>
<path class="st0" d="M631.3,594.1c-9,10.8-18.8,20.9-29.3,30.3"/>
<path class="st0" d="M493.3,687.2c-13.4,4.3-27,7.8-40.9,10.2c-13.8,2.4-27.8,3.9-41.9,4.4c-14.1,0.5-28.1,0-42.1-1.5"/>
<path class="st0" d="M133.3,541.8c6.6,12.4,14.1,24.4,22.3,35.7c8.3,11.4,17.3,22.2,27.1,32.3c9.8,10.1,20.2,19.5,31.3,28.2
	c11.1,8.7,22.8,16.5,34.9,23.6c12.2,7,24.8,13.2,37.9,18.5c13,5.3,26.4,9.6,40.1,13"/>
<path class="st0" d="M116.2,503.3c-4.8-13.2-8.7-26.7-11.6-40.5"/>
<path class="st0" d="M98.7,421.1c-1-14-1-28.1,0-42.1s2.9-28,5.9-41.7"/>
<path class="st0" d="M116.2,296.7c4.8-13.2,10.5-26.1,17.1-38.5"/>
<path class="st0" d="M155.7,222.5c8.3-11.4,17.3-22.2,27.1-32.3c9.8-10.1,20.2-19.5,31.3-28.2"/>
<path class="st0" d="M249,138.5c12.2-7,24.8-13.2,37.9-18.5"/>
<path class="st0" d="M410.5,98.2c14.1,0.5,28.1,2,41.9,4.4"/>
<path class="st0" d="M493.3,112.8c13.4,4.3,26.4,9.6,39.1,15.8"/>
<path class="st0" d="M675.9,277.2c-5.7-12.8-12.3-25.3-19.8-37.2c-7.5-11.9-15.7-23.3-24.8-34.1"/>
<path class="st0" d="M703,442.6c2-14.1,3-28.3,3-42.6c0-14.2-1-28.5-3-42.6c-2-14.1-4.9-28.1-8.9-41.8"/>
<path class="st0" d="M634.4,596.7c-9.2,10.9-19.1,21.2-29.7,30.7"/>
<path class="st0" d="M368,704.3c14.2,1.5,28.4,2,42.7,1.5s28.4-2,42.5-4.5s27.9-5.9,41.4-10.3"/>
<path class="st0" d="M129.8,543.7c6.7,12.6,14.2,24.7,22.6,36.2c8.4,11.5,17.5,22.5,27.4,32.7c9.9,10.2,20.5,19.8,31.7,28.6
	c11.2,8.8,23.1,16.7,35.4,23.9c12.3,7.1,25.2,13.4,38.4,18.7c13.2,5.3,26.8,9.7,40.6,13.2"/>
<path class="st0" d="M112.5,504.7c-4.9-13.4-8.8-27.1-11.8-41"/>
<path class="st0" d="M100.7,336.4c-3,13.9-4.9,28.1-5.9,42.3s-1,28.5,0,42.7"/>
<path class="st0" d="M112.5,295.3c4.9-13.4,10.7-26.4,17.4-39"/>
<path class="st0" d="M211.6,158.9c-11.2,8.8-21.8,18.3-31.7,28.6c-9.9,10.2-19.1,21.2-27.4,32.7"/>
<path class="st0" d="M247,135c12.3-7.1,25.2-13.4,38.4-18.7"/>
<path class="st0" d="M410.7,94.2c14.2,0.5,28.4,2,42.5,4.5"/>
<path class="st0" d="M494.6,109c13.6,4.4,26.8,9.7,39.6,16"/>
<path class="st0" d="M634.4,203.3c9.2,10.9,17.5,22.5,25.1,34.5c7.6,12.1,14.2,24.7,20,37.7"/>
<path class="st0" d="M707,443.1c2-14.3,3-28.7,3-43.1c0-14.4-1-28.9-3-43.1c-2-14.3-5-28.4-9-42.3"/>
<path class="st0" d="M637.5,599.3c-9.3,11.1-19.3,21.5-30,31.1"/>
<path class="st0" d="M495.8,694.8c-13.7,4.5-27.7,8-42,10.5c-14.2,2.5-28.6,4-43,4.5c-14.4,0.5-28.9,0-43.2-1.5"/>
<path class="st0" d="M325,700.8c-14-3.5-27.7-8-41.1-13.4c-13.4-5.4-26.4-11.7-38.9-19c-12.5-7.2-24.5-15.3-35.9-24.2
	c-11.4-8.9-22.1-18.6-32.1-28.9c-10-10.4-19.3-21.5-27.8-33.1c-8.5-11.7-16.1-23.9-22.9-36.7"/>
<path class="st0" d="M108.7,506c-4.9-13.6-8.9-27.5-11.9-41.6"/>
<path class="st0" d="M90.8,421.6c-1-14.4-1-28.9,0-43.2c1-14.4,3-28.7,6-42.8"/>
<path class="st0" d="M108.7,294c4.9-13.6,10.8-26.8,17.6-39.5"/>
<path class="st0" d="M209.1,155.7c-11.4,8.9-22.1,18.6-32.1,28.9c-10,10.4-19.3,21.5-27.8,33.1"/>
<path class="st0" d="M245,131.5c12.5-7.2,25.5-13.6,38.9-19"/>
<path class="st0" d="M410.8,90.2c14.4,0.5,28.8,2,43,4.5"/>
<path class="st0" d="M495.8,105.2c13.7,4.5,27.1,9.9,40.1,16.2"/>
<path class="st0" d="M637.5,200.7c9.3,11.1,17.8,22.7,25.4,35c7.6,12.2,14.4,25,20.3,38.2"/>
<path class="st0" d="M640.5,601.8c-9.4,11.2-19.6,21.7-30.4,31.5"/>
<path class="st0" d="M367.2,712.3c14.5,1.5,29.2,2,43.8,1.5s29.2-2,43.6-4.6s28.6-6.1,42.5-10.6"/>
<path class="st0" d="M122.8,547.4c6.9,12.9,14.6,25.3,23.2,37.2c8.6,11.8,18,23,28.2,33.6c10.2,10.5,21,20.3,32.6,29.3
	c11.5,9,23.7,17.2,36.3,24.5c12.7,7.3,25.8,13.7,39.4,19.2c13.6,5.5,27.5,10,41.7,13.5"/>
<path class="st0" d="M104.9,507.4c-5-13.7-9-27.8-12.1-42.1"/>
<path class="st0" d="M92.9,334.7c-3,14.3-5.1,28.8-6.1,43.4c-1,14.6-1,29.2,0,43.8"/>
<path class="st0" d="M104.9,292.6c5-13.7,11-27.1,17.8-40"/>
<path class="st0" d="M146,215.4c8.6-11.8,18-23,28.2-33.6c10.2-10.5,21-20.3,32.6-29.3"/>
<path class="st0" d="M243,128.1c12.7-7.3,25.8-13.7,39.4-19.2"/>
<path class="st0" d="M411,86.2c14.6,0.5,29.2,2,43.6,4.6"/>
<path class="st0" d="M497,101.4c13.9,4.5,27.5,10,40.6,16.4"/>
<path class="st0" d="M640.5,198.2c9.4,11.2,18,23,25.7,35.4c7.7,12.4,14.6,25.3,20.6,38.7"/>
<path class="st0" d="M701.8,313.4c4,14.1,7.1,28.4,9.1,42.8c2,14.5,3.1,29.1,3.1,43.7c0,14.6-1,29.2-3.1,43.7"/>
<path class="st0" d="M714.9,444.3c2.1-14.7,3.1-29.5,3.1-44.3c0-14.8-1-29.6-3.1-44.3c-2.1-14.7-5.1-29.2-9.2-43.4"/>
<path class="st0" d="M643.6,604.4c-9.5,11.3-19.8,22-30.8,31.9"/>
<path class="st0" d="M498.3,702.4c-14.1,4.6-28.5,8.2-43,10.7c-14.6,2.6-29.3,4.1-44.1,4.6c-14.8,0.5-29.6,0-44.3-1.5"/>
<path class="st0" d="M323.1,708.6c-14.4-3.6-28.5-8.2-42.2-13.7c-13.7-5.5-27.1-12-39.9-19.4c-12.8-7.4-25.1-15.7-36.8-24.8
	c-11.7-9.1-22.7-19-33-29.7c-10.3-10.7-19.8-22-28.5-34c-8.7-12-16.6-24.6-23.5-37.6"/>
<path class="st0" d="M101.2,508.8c-5.1-13.9-9.2-28.2-12.2-42.6"/>
<path class="st0" d="M88.9,333.9c-3.1,14.5-5.1,29.2-6.2,43.9s-1,29.6,0,44.4"/>
<path class="st0" d="M101.2,291.2c5.1-13.9,11.1-27.5,18-40.5"/>
<path class="st0" d="M142.7,213.1c8.7-12,18.2-23.3,28.5-34c10.3-10.7,21.3-20.6,33-29.7"/>
<path class="st0" d="M241,124.6c12.8-7.4,26.1-13.9,39.9-19.4"/>
<path class="st0" d="M411.1,82.2c14.8,0.5,29.5,2.1,44.1,4.6"/>
<path class="st0" d="M498.3,97.6c14.1,4.6,27.8,10.1,41.1,16.6"/>
<path class="st0" d="M690.5,270.7c-6-13.5-13-26.6-20.8-39.2c-7.8-12.6-16.6-24.5-26.1-35.9"/>
<path class="st0" d="M722,400c0,15-1,30-3.1,44.8"/>
<path class="st0" d="M709.5,488.8c-4.1,14.4-9.3,28.5-15.4,42.2"/>
<path class="st0" d="M541.2,689.4c-13.5,6.6-27.4,12.2-41.7,16.8"/>
<path class="st0" d="M279.4,698.6c13.9,5.6,28.2,10.3,42.7,13.9c14.5,3.6,29.3,6.2,44.2,7.8c14.9,1.6,29.9,2.1,44.9,1.6
	c15-0.5,29.9-2.1,44.7-4.7"/>
<path class="st0" d="M201.8,653.7c-11.8-9.2-23-19.3-33.4-30.1"/>
<path class="st0" d="M139.5,589.3c-8.8-12.1-16.8-24.9-23.8-38.1c-7-13.2-13.1-27-18.3-41"/>
<path class="st0" d="M78.8,377.5c-1,15-1,30,0,44.9c1,15,3.1,29.8,6.3,44.5"/>
<path class="st0" d="M97.4,289.9c5.1-14.1,11.2-27.8,18.3-41"/>
<path class="st0" d="M201.8,146.3c11.8-9.2,24.3-17.6,37.2-25.1c13-7.5,26.5-14.1,40.4-19.7c13.9-5.6,28.2-10.3,42.7-13.9"/>
<path class="st0" d="M411.2,78.2c15,0.5,29.9,2.1,44.7,4.7"/>
<path class="st0" d="M646.7,193c-9.6-11.5-20.1-22.3-31.2-32.3c-11.1-10-23-19.3-35.4-27.7c-12.4-8.4-25.4-15.9-38.9-22.5
	c-13.5-6.6-27.4-12.2-41.7-16.8"/>
<path class="st0" d="M673.1,229.4c7.9,12.7,15,26,21.1,39.7c6.1,13.7,11.2,27.8,15.4,42.2s7.3,29.1,9.3,43.9"/>
<path class="st0" d="M726,400c0,15.2-1.1,30.3-3.2,45.4"/>
<path class="st0" d="M713.4,489.9c-4.2,14.6-9.4,28.9-15.6,42.7"/>
<path class="st0" d="M542.9,693c-13.6,6.7-27.7,12.3-42.2,17"/>
<path class="st0" d="M456.6,721c-14.9,2.6-30.1,4.2-45.2,4.8c-15.2,0.5-30.4,0-45.5-1.6c-15.1-1.6-30.1-4.2-44.8-7.9
	c-14.7-3.7-29.2-8.4-43.3-14.1"/>
<path class="st0" d="M199.3,656.9c-12-9.3-23.3-19.5-33.8-30.4"/>
<path class="st0" d="M93.7,511.5c5.2,14.3,11.4,28.1,18.5,41.5s15.2,26.3,24.1,38.6"/>
<path class="st0" d="M81.1,467.8c-3.2-14.8-5.3-29.9-6.3-45s-1.1-30.3,0-45.5"/>
<path class="st0" d="M93.7,288.5c5.2-14.3,11.4-28.1,18.5-41.5"/>
<path class="st0" d="M321.1,83.7c-14.7,3.7-29.2,8.4-43.3,14.1c-14.1,5.7-27.7,12.3-40.9,19.9c-13.1,7.6-25.7,16.1-37.7,25.4"/>
<path class="st0" d="M411.4,74.2c15.2,0.5,30.3,2.1,45.2,4.8"/>
<path class="st0" d="M500.7,90c14.4,4.7,28.5,10.4,42.2,17c13.6,6.7,26.8,14.3,39.4,22.7c12.6,8.5,24.6,17.8,35.8,28
	c11.3,10.2,21.8,21.1,31.6,32.7"/>
<path class="st0" d="M722.8,354.6c-2.1-15-5.3-29.9-9.5-44.5c-4.2-14.6-9.4-28.9-15.6-42.7c-6.2-13.9-13.3-27.3-21.4-40.2"/>
<path class="st0" d="M730,400c0,15.4-1.1,30.7-3.2,45.9"/>
<path class="st0" d="M717.2,491c-4.2,14.8-9.5,29.2-15.7,43.3"/>
<path class="st0" d="M544.7,696.6c-13.8,6.7-28.1,12.5-42.7,17.2"/>
<path class="st0" d="M276.4,706c14.2,5.8,28.9,10.5,43.8,14.2s30.1,6.4,45.3,8c15.3,1.6,30.7,2.1,46,1.6c15.4-0.5,30.7-2.1,45.8-4.8
	"/>
<path class="st0" d="M196.8,660c-12.1-9.5-23.5-19.8-34.2-30.8"/>
<path class="st0" d="M89.9,512.9c5.3,14.4,11.5,28.5,18.7,42.1c7.2,13.6,15.4,26.6,24.4,39"/>
<path class="st0" d="M70.8,377c-1.1,15.3-1.1,30.7,0,46s3.2,30.6,6.4,45.6"/>
<path class="st0" d="M89.9,287.1c5.3-14.4,11.5-28.5,18.7-42.1"/>
<path class="st0" d="M196.8,140c12.1-9.5,24.9-18.1,38.2-25.7c13.3-7.7,27.1-14.4,41.4-20.2c14.2-5.8,28.9-10.5,43.8-14.2"/>
<path class="st0" d="M411.5,70.2c15.4,0.5,30.7,2.1,45.8,4.8"/>
<path class="st0" d="M652.8,187.9c-9.9-11.8-20.6-22.8-32-33.1c-11.4-10.3-23.5-19.8-36.3-28.3c-12.7-8.6-26.1-16.3-39.9-23
	c-13.8-6.7-28.1-12.5-42.7-17.2"/>
<path class="st0" d="M679.9,225.1c8.1,13,15.4,26.6,21.6,40.7c6.2,14,11.5,28.5,15.7,43.3c4.2,14.8,7.4,29.8,9.6,45"/>
<path class="st0" d="M734,400c0,15.6-1.1,31.1-3.3,46.5"/>
<path class="st0" d="M721.1,492.1c-4.3,14.9-9.6,29.6-15.9,43.8"/>
<path class="st0" d="M546.4,700.2c-14,6.8-28.4,12.7-43.2,17.5"/>
<path class="st0" d="M458,728.9c-15.3,2.7-30.8,4.3-46.3,4.9c-15.5,0.5-31.1,0-46.6-1.6c-15.5-1.6-30.8-4.3-45.9-8.1
	c-15.1-3.8-29.9-8.6-44.3-14.4"/>
<path class="st0" d="M194.4,663.2c-12.3-9.6-23.8-20-34.6-31.2"/>
<path class="st0" d="M129.8,596.3c-9.1-12.6-17.4-25.8-24.7-39.5c-7.3-13.7-13.6-28-19-42.6"/>
<path class="st0" d="M73.3,469.4c-3.2-15.2-5.4-30.6-6.5-46.1c-1.1-15.5-1.1-31.1,0-46.6"/>
<path class="st0" d="M86.1,285.8c5.3-14.6,11.7-28.8,19-42.6"/>
<path class="st0" d="M194.4,136.8c12.3-9.6,25.2-18.3,38.6-26.1c13.5-7.8,27.5-14.6,41.9-20.4c14.4-5.8,29.2-10.6,44.3-14.4"/>
<path class="st0" d="M411.7,66.2c15.5,0.5,31,2.2,46.3,4.9"/>
<path class="st0" d="M655.9,185.3c-10-11.9-20.8-23.1-32.4-33.5c-11.6-10.4-23.8-20-36.7-28.7c-12.9-8.7-26.4-16.5-40.4-23.3
	S518,87.2,503.2,82.3"/>
<path class="st0" d="M730.7,353.5c-2.2-15.4-5.4-30.6-9.7-45.6c-4.3-14.9-9.6-29.6-15.9-43.8c-6.3-14.2-13.6-28-21.9-41.1"/>
<path class="st0" d="M738,400c0,15.7-1.1,31.5-3.3,47"/>
<path class="st0" d="M724.9,493.2c-4.3,15.1-9.7,29.9-16.1,44.3"/>
<path class="st0" d="M548.2,703.8c-14.1,6.9-28.8,12.8-43.7,17.7"/>
<path class="st0" d="M458.7,732.9c-15.5,2.7-31.2,4.4-46.9,4.9c-15.7,0.5-31.5,0-47.1-1.6s-31.2-4.4-46.4-8.2
	c-15.3-3.8-30.3-8.7-44.8-14.6"/>
<path class="st0" d="M191.9,666.3c-12.4-9.7-24.1-20.2-35-31.6"/>
<path class="st0" d="M82.4,515.6c5.4,14.8,11.8,29.2,19.2,43.1c7.4,13.9,15.7,27.3,25,40"/>
<path class="st0" d="M69.4,470.3c-3.3-15.4-5.5-31-6.6-46.7c-1.1-15.7-1.1-31.5,0-47.2"/>
<path class="st0" d="M82.4,284.4c5.4-14.8,11.8-29.2,19.2-43.1"/>
<path class="st0" d="M318.2,72c-15.3,3.8-30.3,8.7-44.8,14.6c-14.6,5.9-28.8,12.8-42.4,20.7c-13.6,7.9-26.7,16.7-39.1,26.4"/>
<path class="st0" d="M411.8,62.2c15.7,0.5,31.4,2.2,46.9,4.9"/>
<path class="st0" d="M504.4,78.5c15,4.9,29.6,10.8,43.7,17.7S576,111,589,119.8s25.5,18.5,37.2,29c11.7,10.5,22.6,21.9,32.8,33.9"/>
<path class="st0" d="M686.6,220.9c8.3,13.3,15.7,27.3,22.1,41.6c6.4,14.4,11.8,29.2,16.1,44.3c4.3,15.1,7.6,30.5,9.8,46.1"/>
<path class="st0" d="M742,400c0,15.9-1.1,31.8-3.3,47.6"/>
<path class="st0" d="M728.8,494.3c-4.4,15.3-9.8,30.3-16.3,44.8"/>
<path class="st0" d="M549.9,707.4c-14.3,7-29.1,13-44.2,17.9"/>
<path class="st0" d="M271.9,717.1c14.8,6,29.9,10.9,45.4,14.7c15.5,3.9,31.2,6.6,47,8.3c15.8,1.7,31.8,2.2,47.7,1.7
	c15.9-0.6,31.8-2.2,47.5-5"/>
<path class="st0" d="M189.4,669.5c-12.5-9.8-24.4-20.5-35.5-31.9"/>
<path class="st0" d="M123.3,601c-9.4-12.9-17.8-26.4-25.3-40.5c-7.5-14.1-14-28.6-19.4-43.6"/>
<path class="st0" d="M58.8,376.1c-1.1,15.9-1.1,31.8,0,47.7c1.1,15.9,3.3,31.7,6.6,47.2"/>
<path class="st0" d="M78.6,283c5.4-15,11.9-29.5,19.4-43.6"/>
<path class="st0" d="M189.4,130.5c12.5-9.8,25.8-18.7,39.6-26.7c13.8-8,28.1-15,42.9-20.9c14.8-6,29.9-10.9,45.4-14.7"/>
<path class="st0" d="M411.9,58.2c15.9,0.6,31.8,2.2,47.5,5"/>
<path class="st0" d="M505.7,74.7c15.1,4.9,29.9,10.9,44.2,17.9s28.1,15,41.3,23.9c13.2,8.9,25.8,18.7,37.6,29.4
	c11.8,10.7,22.9,22.1,33.1,34.3"/>
<path class="st0" d="M738.7,352.4c-2.2-15.8-5.5-31.4-9.9-46.7s-9.8-30.3-16.3-44.8c-6.5-14.5-14-28.6-22.4-42.1"/>
<path class="st0" d="M746,400c0,16.1-1.1,32.2-3.4,48.2"/>
<path class="st0" d="M732.6,495.4c-4.4,15.5-10,30.6-16.5,45.4"/>
<path class="st0" d="M551.7,711c-14.5,7.1-29.4,13.1-44.8,18.1"/>
<path class="st0" d="M270.4,720.8c14.9,6,30.3,11,45.9,14.9c15.6,3.9,31.5,6.7,47.5,8.4s32.1,2.2,48.2,1.7c16.1-0.6,32.1-2.2,48-5"
	/>
<path class="st0" d="M187,672.7c-12.7-9.9-24.7-20.7-35.9-32.3"/>
<path class="st0" d="M120.1,603.4c-9.5-13-18-26.7-25.6-40.9c-7.6-14.2-14.1-29-19.6-44.1"/>
<path class="st0" d="M61.6,471.9c-3.3-15.8-5.6-31.7-6.7-47.8c-1.1-16.1-1.1-32.2,0-48.3"/>
<path class="st0" d="M74.9,281.7c5.5-15.1,12.1-29.9,19.6-44.1"/>
<path class="st0" d="M316.3,64.3c-15.6,3.9-31,8.9-45.9,14.9c-14.9,6-29.4,13.1-43.4,21.2c-14,8.1-27.3,17.1-40,27"/>
<path class="st0" d="M412.1,54.2c16.1,0.6,32.1,2.2,48,5"/>
<path class="st0" d="M665.1,177.6c-10.4-12.3-21.6-23.9-33.5-34.7c-12-10.8-24.7-20.7-38-29.7c-13.4-9-27.3-17.1-41.8-24.1
	c-14.5-7.1-29.4-13.1-44.8-18.1"/>
<path class="st0" d="M693.4,216.6c8.5,13.7,16.1,27.9,22.7,42.6c6.6,14.7,12.1,29.9,16.5,45.4c4.4,15.5,7.8,31.3,10,47.2"/>
<path class="st0" d="M750,400c0,16.3-1.1,32.6-3.4,48.7"/>
<path class="st0" d="M736.4,496.5c-4.5,15.7-10.1,31-16.7,45.9"/>
<path class="st0" d="M553.4,714.6c-14.6,7.1-29.8,13.3-45.3,18.3"/>
<path class="st0" d="M460.8,744.7c-16,2.8-32.3,4.5-48.6,5.1c-16.3,0.6-32.6,0-48.8-1.7c-16.2-1.7-32.3-4.5-48.1-8.5
	c-15.8-3.9-31.3-9-46.4-15.1"/>
<path class="st0" d="M184.5,675.8c-12.8-10-25-21-36.3-32.7"/>
<path class="st0" d="M116.8,605.7c-9.6-13.2-18.2-27-25.9-41.4c-7.7-14.4-14.3-29.3-19.9-44.6"/>
<path class="st0" d="M50.9,375.6c-1.1,16.3-1.1,32.6,0,48.8c1.1,16.3,3.4,32.4,6.8,48.4"/>
<path class="st0" d="M71.1,280.3c5.6-15.3,12.2-30.2,19.9-44.6"/>
<path class="st0" d="M184.5,124.2c12.8-10,26.4-19.2,40.5-27.3c14.1-8.1,28.8-15.3,43.9-21.4c15.1-6.1,30.6-11.1,46.4-15.1"/>
<path class="st0" d="M412.2,50.2c16.3,0.6,32.5,2.3,48.6,5.1"/>
<path class="st0" d="M508.2,67.1c15.5,5,30.6,11.1,45.3,18.3c14.6,7.1,28.8,15.3,42.3,24.4c13.5,9.1,26.4,19.2,38.5,30.1
	c12.1,10.9,23.4,22.6,33.9,35.1"/>
<path class="st0" d="M696.8,214.5c8.6,13.8,16.3,28.2,22.9,43.1c6.6,14.9,12.2,30.2,16.7,45.9c4.5,15.7,7.9,31.6,10.2,47.8"/>
<path class="st0" d="M754,400c0,16.5-1.2,32.9-3.4,49.3"/>
<path class="st0" d="M740.3,497.6c-4.5,15.8-10.2,31.4-16.9,46.4"/>
<path class="st0" d="M555.2,718.2c-14.8,7.2-30.1,13.4-45.8,18.5"/>
<path class="st0" d="M461.5,748.6c-16.2,2.9-32.6,4.6-49.1,5.2c-16.5,0.6-33,0-49.4-1.7c-16.4-1.7-32.6-4.6-48.6-8.6
	c-16-4-31.7-9.1-47-15.3"/>
<path class="st0" d="M182.1,679c-13-10.1-25.3-21.2-36.7-33"/>
<path class="st0" d="M113.6,608.1c-9.7-13.3-18.4-27.3-26.2-41.9c-7.7-14.6-14.5-29.6-20.1-45.1"/>
<path class="st0" d="M53.7,473.6c-3.4-16.1-5.7-32.5-6.9-48.9c-1.1-16.4-1.1-32.9,0-49.4"/>
<path class="st0" d="M67.3,278.9c5.6-15.5,12.3-30.6,20.1-45.1"/>
<path class="st0" d="M182.1,121c13-10.1,26.7-19.4,40.9-27.6c14.3-8.2,29.1-15.5,44.4-21.7c15.3-6.2,31-11.3,47-15.3"/>
<path class="st0" d="M412.4,46.2c16.5,0.6,32.9,2.3,49.1,5.2"/>
<path class="st0" d="M671.2,172.5c-10.6-12.6-22.1-24.5-34.3-35.5c-12.2-11-25.3-21.2-38.9-30.4c-13.7-9.2-28-17.5-42.8-24.7
	s-30.1-13.4-45.8-18.5"/>
<path class="st0" d="M750.6,350.7c-2.3-16.3-5.7-32.5-10.3-48.3c-4.5-15.8-10.2-31.4-16.9-46.4c-6.7-15.1-14.5-29.6-23.2-43.6"/>
</svg>
