<?xml version="1.0" encoding="utf-8"?>
<!-- Generator: Adobe Illustrator 24.1.0, SVG Export Plug-In . SVG Version: 6.00 Build 0)  -->
<svg version="1.1" id="Layer_1" xmlns="http://www.w3.org/2000/svg" xmlns:xlink="http://www.w3.org/1999/xlink" x="0px" y="0px"
	 viewBox="0 0 100 100" style="enable-background:new 0 0 100 100;" xml:space="preserve">
<style type="text/css">
	.st0{fill:#333333;}
	.st1{fill:#666666;}
	.st2{fill:#1A1A1A;}
	.st3{fill:#4D4D4D;}
	.st4{fill:#999999;}
	.st5{fill:#B3B3B3;}
	.st6{fill:#CCCCCC;}
	.st7{fill:#E6E6E6;}
</style>
<g id="Layer_10">
	<g id="Layer_5">
		<polygon class="st0" points="0,0 50,50 100,0 		"/>
	</g>
</g>
<g id="Layer_9">
	<g id="Layer_4">
		<polygon class="st1" points="100,100 50,50 0,100 		"/>
	</g>
</g>
<g id="Layer_8">
	<g id="Layer_3">
		<polygon class="st2" points="100,0 50,50 100,100 		"/>
	</g>
</g>
<g id="Layer_7">
	<g id="Layer_2_1_">
		<polygon class="st3" points="0,100 50,50 0,0 		"/>
	</g>
</g>
<g id="Layer_2_2_">
</g>
<g id="Layer_3_1_">
	<path class="st4" d="M50,26L50,26c-3,0-5.5-2.5-5.5-5.5l0,0c0-3,2.5-5.5,5.5-5.5l0,0c3,0,5.5,2.5,5.5,5.5l0,0
		C55.5,23.6,53,26,50,26z"/>
</g>
<g id="Layer_4_1_">
	<rect x="74" y="44.5" class="st5" width="11" height="11"/>
</g>
<g id="Layer_5_1_">
	<rect x="44.5" y="75" transform="matrix(0.7071 -0.7071 0.7071 0.7071 -42.2767 58.9329)" class="st6" width="11" height="11"/>
</g>
<polygon class="st7" points="25,47.8 21.7,47.8 21.7,44.5 17.2,44.5 17.2,47.8 14,47.8 14,52.3 17.2,52.3 17.2,55.5 21.7,55.5 
	21.7,52.3 25,52.3 "/>
</svg>
