<?xml version="1.0" encoding="utf-8"?>
<!-- Generator: Adobe Illustrator 24.1.0, SVG Export Plug-In . SVG Version: 6.00 Build 0)  -->
<svg version="1.1" id="Layer_1" xmlns="http://www.w3.org/2000/svg" xmlns:xlink="http://www.w3.org/1999/xlink" x="0px" y="0px"
	 viewBox="0 0 100 100" style="enable-background:new 0 0 100 100;" xml:space="preserve">
<style type="text/css">
	.st0{fill:#333333;}
	.st1{fill:#4D4D4D;}
	.st2{fill:#666666;}
	.st3{fill:#1A1A1A;}
</style>
<g id="Layer_2_2_">
</g>
<path class="st0" d="M0,0l50,50V0H0z M14.3,41L14.3,41c-3,0-5.4-2.4-5.4-5.4v0c0-3,2.4-5.4,5.4-5.4h0c3,0,5.4,2.4,5.4,5.4v0
	C19.7,38.5,17.3,41,14.3,41z"/>
<path class="st1" d="M0,100l50-50H0V100z M41,85.7L41,85.7c0,3-2.4,5.4-5.4,5.4h0c-3,0-5.4-2.4-5.4-5.4v0c0-3,2.4-5.4,5.4-5.4h0
	C38.5,80.3,41,82.7,41,85.7z"/>
<path class="st2" d="M100,100L50,50v50H100z M85.7,59L85.7,59c3,0,5.4,2.4,5.4,5.4v0c0,3-2.4,5.4-5.4,5.4h0c-3,0-5.4-2.4-5.4-5.4v0
	C80.3,61.5,82.7,59,85.7,59z"/>
<path class="st3" d="M100,0L50,50h50V0z M59,14.3L59,14.3c0-3,2.4-5.4,5.4-5.4h0c3,0,5.4,2.4,5.4,5.4v0c0,3-2.4,5.4-5.4,5.4h0
	C61.5,19.7,59,17.3,59,14.3z"/>
</svg>
