<?xml version="1.0" encoding="utf-8"?>
<!-- Generator: Adobe Illustrator 24.1.0, SVG Export Plug-In . SVG Version: 6.00 Build 0)  -->
<svg version="1.1" id="Layer_1" xmlns="http://www.w3.org/2000/svg" xmlns:xlink="http://www.w3.org/1999/xlink" x="0px" y="0px"
	 viewBox="0 0 100 100" style="enable-background:new 0 0 100 100;" xml:space="preserve">
<style type="text/css">
	.st0{fill:#1A1A1A;}
	.st1{fill:#333333;}
	.st2{fill:#4D4D4D;}
	.st3{fill:#666666;}
</style>
<g id="Layer_2_2_">
</g>
<g>
	<g>
		<polygon class="st0" points="50,0 50,4.5 95.5,4.5 90.9,9.1 50,9.1 50,13.6 86.4,13.6 81.8,18.2 50,18.2 50,22.7 77.3,22.7 
			72.7,27.3 50,27.3 50,31.8 68.2,31.8 63.6,36.4 50,36.4 50,40.9 59.1,40.9 54.5,45.5 50,45.5 50,50 100,50 100,0 		"/>
	</g>
</g>
<g>
	<g>
		<polygon class="st1" points="45.5,0 40.9,0 36.4,0 31.8,0 27.3,0 22.7,0 18.2,0 13.6,0 9.1,0 4.5,0 0,0 0,50 4.5,50 4.5,4.5 
			9.1,9.1 9.1,50 13.6,50 13.6,13.6 18.2,18.2 18.2,50 22.7,50 22.7,22.7 27.3,27.3 27.3,50 31.8,50 31.8,31.8 36.4,36.4 36.4,50 
			40.9,50 40.9,40.9 45.5,45.5 45.5,50 50,50 50,0 		"/>
	</g>
</g>
<g>
	<g>
		<polygon class="st2" points="50,54.5 50,50 0,50 0,54.5 0,59.1 0,63.6 0,68.2 0,72.7 0,77.3 0,81.8 0,86.4 0,90.9 0,95.5 0,100 
			50,100 50,95.5 4.5,95.5 9.1,90.9 50,90.9 50,86.4 13.6,86.4 18.2,81.8 50,81.8 50,77.3 22.7,77.3 27.3,72.7 50,72.7 50,68.2 
			31.8,68.2 36.4,63.6 50,63.6 50,59.1 40.9,59.1 45.5,54.5 		"/>
	</g>
</g>
<g>
	<g>
		<polygon class="st3" points="95.5,50 95.5,95.5 90.9,90.9 90.9,50 86.4,50 86.4,86.4 81.8,81.8 81.8,50 77.3,50 77.3,77.3 
			72.7,72.7 72.7,50 68.2,50 68.2,68.2 63.6,63.6 63.6,50 59.1,50 59.1,59.1 54.5,54.5 54.5,50 50,50 50,100 54.5,100 59.1,100 
			63.6,100 68.2,100 72.7,100 77.3,100 81.8,100 86.4,100 90.9,100 95.5,100 100,100 100,50 		"/>
	</g>
</g>
</svg>
