<?xml version="1.0" encoding="utf-8"?>
<!-- Generator: Adobe Illustrator 24.1.0, SVG Export Plug-In . SVG Version: 6.00 Build 0)  -->
<svg version="1.1" id="Layer_2" xmlns="http://www.w3.org/2000/svg" xmlns:xlink="http://www.w3.org/1999/xlink" x="0px" y="0px"
	 viewBox="0 0 320.3 100" style="enable-background:new 0 0 320.3 100;" xml:space="preserve">
<g id="Layer_2_1_">
	<g id="Layer_1-2">
		<path d="M19.1,79.4l0.2-0.6l0.1-1.1C19.3,78.3,19.2,78.9,19.1,79.4z M15.6,80.4c-1.1-1.2-2.1-2.6-2.9-4c-1.9-3.3-3.6-6.7-4.9-10.2
			C4.8,59,2.6,51.5,1.1,43.9C0.4,40.7,0,37.4,0,34.1c0-0.6,0-4.4,1.5-4.4c0.1,0,0.2,0,0.2-0.1C9.9,22.2,19.1,16,29,11.2
			c2.7-1.3,5.5-2.5,8.2-3.7c1.2-0.5,2.4-1,3.6-1.5c2.9-1.4,6.4-1.3,9.2,0.4c3.7,2.2,6.6,6,9.3,9.2c1.5,1.7,2.9,3.5,4.3,5.2
			c1.9,2.2,4,4.2,6.3,6c2.2,1.5,4.7,2.5,7.3,2.9c7.7,0.4,15.3-2.8,22.2-5.8c6.5-2.8,12.6-6.4,18.8-9.6c6-3.2,11.8-7.8,18.7-8.3
			c9.9-0.7,15,9,20.2,16c0.4,0.4,0.8,0.8,1.2,1.1c2.6,1.6,5.5,2.6,8.5,3c6.4,0.4,12.7-1.2,18.2-4.4c5.7-3.3,11.1-7.2,16.9-10.4
			s13.9-7.1,20.4-3.6c5.4,2.9,10,7.2,14.8,11c3.3,2.5,7.2,4.3,11.3,5.1c13.7,1,25.5-7.4,35.5-15.9c2.7-2.6,5.1-5.8,8.1-8
			c1.4-0.1,2.8,0.5,3.6,1.6c1.8,1.9,3.3,4,4.6,6.2c5.7,9.3,9.5,19.8,12.8,30.1c2.9,8.7,5,17.7,6.4,26.8c0.5,3.2,0.7,6.4,0.7,9.6
			c-0.1,2,0,5.8-2.3,6.8s-5,1.7-7.3,3.1c-2.7,1.6-5.2,3.3-7.8,5.1c-5.2,3.5-10.8,6.8-16.8,8.6c-6.5,2-13.7,3.1-20,0
			c-3.8-1.9-7.2-5.1-10.5-7.8c-4.3-3.6-7.8-8-12.1-11.6c-1.7-1.2-3.7-1.9-5.8-2.3c-5.8-0.4-11.2,1.3-16.5,3.9
			c-5.9,2.9-10.9,7.2-16.9,9.8c-6.2,2.6-13,3.4-19.7,2.3C174.1,91,169.1,81.6,164,73.3l-0.5-0.6c-0.5-0.5-1-1-1.6-1.5
			c-1-0.5-2.1-0.9-3.2-1.1c-3.9-0.1-7.5,1.2-11.1,2.5c-3.6,1.3-7.2,2.9-10.7,4.6c-7,3.5-13.6,7.5-20.8,10.4
			c-3.7,1.7-7.6,2.9-11.5,3.6c-3,0.4-6,0.4-8.9,0c-4-0.5-7.5-2.9-10.5-5.5c-6.7-5.8-11.2-13.4-16.6-20.3c-0.5-0.7-1.1-1.4-1.6-2.1
			c-1.1-1.2-2.2-2.3-3.5-3.4c-1.4-0.8-2.8-1.3-4.4-1.6c-6.9-0.2-13.5,2.8-19.5,5.8c-5.9,2.9-11.4,6.4-16.4,10.7
			c-1.6,1.6-3.4,3.3-4.3,5.3c-0.4,1-1.1,1.7-2.3,1.1C16.3,80.9,15.9,80.6,15.6,80.4z"/>
	</g>
</g>
</svg>
