<?xml version="1.0" encoding="utf-8"?>
<!-- Generator: Adobe Illustrator 24.1.0, SVG Export Plug-In . SVG Version: 6.00 Build 0)  -->
<svg version="1.1" id="Layer_1" xmlns="http://www.w3.org/2000/svg" xmlns:xlink="http://www.w3.org/1999/xlink" x="0px" y="0px"
	 viewBox="0 0 249.4 100" style="enable-background:new 0 0 249.4 100;" xml:space="preserve">
<path id="Layer_2_1_" d="M236.9,3.9c11.8,19.1,13.8,43.1,12,65.4c-0.4,2.9-1,5.8-1.8,8.6c-2.4,8.3-6.7,15.6-14.2,20.2
	c-11.5,7.3-19.9-10.4-26.1-20.9c-2.1,7.3-7.3,12.5-13.8,16.3c-2.2,1.2-4.6,2-7,2.3c-9.6,1.3-19.6-4.3-23.1-15.4
	c-6.3,9.4-17.8,17.8-30.3,15.7c-9.4-2.1-13.6-11.5-16.7-19.9c-3.1,7.3-9.4,12.5-16.9,16.6c-2.7,1.7-5.8,2.5-9,2.4
	c-8.6-0.4-15.6-8.4-18-17c-6.3,17.8-31.4,27.2-47,15.7c-7.3-6.3-10.5-15.7-13-24.3c-1-2.7-1.9-5.4-2.7-8.1c-4.1-13.7-7-27.8-8.6-42
	C0.2,17,0,14.3,0,11.6c0.1-1.4,0-5.1,2-5.7c1.2-0.1,2.3,0.5,3,1.4c2.6,2.4,4.4,6.1,6,9.2c4.1,8.2,7.4,16.8,9.8,25.7
	c1.1,0.4,2.2,0.6,3.3,0.8c2.4,0.1,4.8-0.2,7.1-0.9c2.3-0.8,4.5-2.1,6.3-3.7c6-5.8,8.7-13.9,11.8-21.6c1.5-4,3.1-7.8,5-11.6
	c0.4-0.9,1.1-1.7,1.9-2.2c1.1-0.7,2.7,0.6,3.4,1.3c2.6,2.4,4.4,6.1,6,9.2c3.4,6.7,6.2,13.8,8.3,21c1,3.3,2,6.6,2.8,9.9h0.1
	c3.2,0.2,6.4-0.4,9.2-2c2.2-1.1,4.3-2.5,6.2-4.1c4.5-4.4,6.8-10.4,8.9-16.3c0.9-2.8,1.6-5.5,2.3-8.4c0.4-1.5,0.8-3.1,1.2-4.6
	c0.2-0.7,0.4-1.4,0.6-2.1c0.2-1.1,0.5-2.1,1.1-3c0.3-0.7,1.1-1,1.7-0.7c0.1,0,0.1,0.1,0.2,0.1c1,0.3,2.3,2,2.8,2.7
	c2,2.8,3.7,5.9,5,9.1c3.9,8.7,6.8,17.9,8.6,27.3c0.4,1.9,0.7,3.9,0.9,5.8c4.4-1.1,8.6-3.2,12-6.2c1.9-1.9,3.5-4,4.8-6.3
	c0.9-1.8,1.7-3.7,2.3-5.6c1.4-4.5,2.2-9.1,3.2-13.8c0.6-2.5,1.2-5,1.9-7.4c0.3-1.1,0.6-2.1,1-3.2c0.4-1.3,0.8-2.5,1.3-3.8
	c0.2-0.6,0.8-2,1.5-2c1.9-0.1,3.2,1.8,4.3,3.2c2.2,3.1,4,6.5,5.5,10c4.4,9.6,7.5,19.7,9.4,30c0.4,2,0.7,4,1,6.1
	c2.1-0.8,4-1.9,5.7-3.3c1.7-1.6,3.1-3.4,4.3-5.4c1.2-2,2.2-4.1,3.2-6.2c4.3-9.3,6.4-19.8,11.6-29.2c13.6,11.5,15.7,30.3,17.8,47
	c18.8-9.4,13.6-32.4,19.9-49C236.4,3.4,236.7,3.7,236.9,3.9z"/>
</svg>
