<?xml version="1.0" encoding="utf-8"?>
<!-- Generator: Adobe Illustrator 24.1.0, SVG Export Plug-In . SVG Version: 6.00 Build 0)  -->
<svg version="1.1" id="Layer_1" xmlns="http://www.w3.org/2000/svg" xmlns:xlink="http://www.w3.org/1999/xlink" x="0px" y="0px"
	 viewBox="0 0 286.8 100" style="enable-background:new 0 0 286.8 100;" xml:space="preserve">
<path id="Layer_2_1_" d="M5.3,75.7c-1.5-3.5-2.7-7-3.6-10.7c-0.9-3.1-1.5-6.3-1.7-9.5c0-0.1,0-0.1,0-0.2c0-1-0.3-3,0.4-3.9
	c0.2-0.4,0.7-0.5,1.1-0.4c0.7-0.2,1.5-0.5,2.2-0.8L6.9,49c2.3-0.9,4.6-1.8,6.8-2.8c4.4-1.9,8.8-4,13.1-6s8.6-4,12.8-6.2
	s8.4-4.5,12.6-6.6c8.2-4.1,16.8-7.5,25-11.7c3.8-1.9,7.5-4.1,11.3-6.1c4.1-2.2,8.6-4.2,12.4-6.9c0.2-0.2,0.4-0.4,0.7-0.7
	c0.4-0.4,0.7-0.8,1.1-1.3c0.5-0.8,1.6-1.1,2.4-0.7l1.2,1c1.1,1.2,2.1,2.6,2.9,4.1c1.9,3.3,3.5,6.8,4.8,10.4
	c1.7,4.4,3.1,8.8,4.3,13.3l5.2-2.8c6.2-3.3,12.3-6.8,18.4-10.3c2.9-1.6,5.7-3.3,8.5-5.1c2.9-1.6,5.7-3.4,8.4-5.4
	c0.5-0.5,1-1,1.5-1.5c0.7-0.8,1.5-2.5,2.6-2.5c2.6-0.1,4.4,3.6,5.5,5.5c2.7,5,5,10.2,6.7,15.7c0.3,0.9,0.6,1.7,0.9,2.6
	c7.7-3.2,15.4-6.2,23.1-9.4c4.9-2,10-3.9,14.2-7.3c0.7-0.7,1.3-1.4,1.9-2.2c0.8-1.1,1.3-2.7,2.6-3.4c1-0.1,2,0.4,2.6,1.2
	c2.1,2,3.6,5.1,4.9,7.7c2.4,5,4.5,10.2,6.1,15.5c6.2-2.1,12.5-4.2,18.7-6.5c3.7-1.3,7.4-2.6,10.6-5c1-1.1,1.8-2.3,2.3-3.7
	c0.2-0.6,0.4-1.2,0.7-1.7c0.4-0.9,1.4-1.2,2.3-0.8c0.1,0,0.1,0.1,0.2,0.1l1.6,1.2c1.5,1.6,2.7,3.3,3.7,5.2
	c4.5,7.8,7.5,16.6,10.1,25.1s4.8,17.6,5.2,26.6c0,1.2,0,2.4,0,3.6c0,1.6-0.3,3.2-1,4.7c-1.4,1.8-2.7,0.6-4-0.5
	c-0.5-0.4-1-0.9-1.5-1.3c-1.2-0.7-2.5-1.2-3.8-1.5c-4.8-0.3-9.4,0.7-14,1.8c-4.6,1.1-9,2.6-13.4,4.3c-9.2,3.7-18.1,8-26.6,12.9
	c-2.2,1.3-4.4,2.6-6.6,3.9c-1.8,1.2-3.7,2.1-5.7,2.9c-1.8,0.6-3.2-0.3-4.5-1.4c-2.2-2.1-3.8-5.3-5.1-8c-2.9-6.1-5.3-12.4-7.1-18.8
	c-0.1-0.4-0.3-0.9-0.4-1.3c-6.1,3.2-12.1,6.8-18,10.5c-4.7,2.9-9.3,5.9-14.1,8.5c-2.4,1.3-6.2,3.2-8.4,0.5
	c-3.8-4.4-6.1-9.8-8.2-15.2c-0.6-1.6-1.2-3.2-1.8-4.8c-5.7,2.7-11.4,5.5-17.1,8.4c-6.8,3.4-13.7,6.8-20.4,10.2
	c-3.5,1.8-6.9,3.6-10.3,5.7c-1.6,1-3.2,2-4.7,3.1c-0.9,0.6-1.7,1.2-2.6,1.8l-1.6,1.2c-0.6,0.5-1.2,0.9-2,1.1
	c-2.4,0.1-4.1-3.4-5.1-5.1c-2.6-4.6-4.6-9.5-6.2-14.6c-1.6-4.6-2.9-9.3-3.9-14c-0.1-0.4-0.2-0.8-0.3-1.3c-2.4,0.9-4.9,1.7-7.2,2.5
	c-8.5,2.8-17.2,4.9-25.7,7.8c-4.1,1.4-8.3,2.9-12.5,4.2c-2.2,0.7-4.4,1.2-6.6,1.7c-2,0.3-3.9,0.8-5.8,1.4l0.1-0.1
	c-0.3,0.1-0.6,0.1-0.9-0.1C7.8,81.5,5.6,76.3,5.3,75.7z"/>
</svg>
