<?xml version="1.0" encoding="utf-8"?>
<!-- Generator: Adobe Illustrator 24.1.0, SVG Export Plug-In . SVG Version: 6.00 Build 0)  -->
<svg version="1.1" id="Layer_1" xmlns="http://www.w3.org/2000/svg" xmlns:xlink="http://www.w3.org/1999/xlink" x="0px" y="0px"
	 viewBox="0 0 310.8 100" style="enable-background:new 0 0 310.8 100;" xml:space="preserve">
<path id="Layer_2_1_" d="M74.1,99.3c-0.9-0.5-1.7-1-2.6-1.6c-2-1.4-3.8-3-5.6-4.7C58.3,85.3,51.6,76.7,46,67.4l-0.8-1.3
	c-2.6,1.3-5.1,2.6-7.7,3.9c-2.2,1.1-4.5,2.2-6.7,3.3c-2,0.9-3.8,2-5.4,3.4c0,0.2,0,0.5-0.1,0.7c-1,3-6.5-2.6-7.3-3.4
	C13,69.2,8.8,63.8,5.2,57.9c-1.6-2.4-2.9-5-4.1-7.7l-0.7-2c-0.4-0.9-0.5-1.8-0.4-2.8l1.8-0.8L1,44.8c4.4-2.3,8.5-5.2,12.7-7.8
	c3.9-2.5,7.8-5,11.5-7.8s7.7-5.8,11.3-9c1.9-1.7,3.8-3.5,5.5-5.3c1.6-1.5,3-3.3,4.2-5.2l0.1-0.2c0.8-1.7,1.2-3.4,1.9-5.1
	c0.4-0.9,0.9-1.8,1.5-2.6C50,1.3,50.5,0.7,51,0.3c1-0.4,2.1-0.3,3,0.3c1.8,0.9,3.4,2.1,4.9,3.4c4.9,4.3,9.3,9.1,13.3,14.3
	c2.8,3.5,5.4,7.2,7.9,10.9c6-2.6,11.9-5.2,17.6-8.3c2.5-1.3,4.9-2.7,7.2-4.3c2-1.4,3.7-3.2,5.1-5.2c0.2-0.5,0.5-0.9,0.8-1.4
	c0.9-1.4,4.5,1.2,5,1.6c4.4,3,8.1,7.3,11.5,11.3c1.2,1.4,2.3,2.8,3.4,4.2c8.4-3,16.8-6.3,24.6-10.9c2-1.1,3.7-2.5,5.2-4.2l1-1.7
	c0.2-0.4,0.4-0.8,0.7-1.2l1.3-0.3c1.5,0.3,3,1,4.2,2c4.8,3.3,8.8,7.9,12.5,12.3l0.2,0.2c2.3-1.1,4.6-2.2,6.9-3.4
	c4.1-2.1,8.1-4.3,12-6.7c3.2-2,6.5-4.1,8.9-7.1c0.5-0.8,1-1.6,1.4-2.4c0.2-0.9,0.7-1.8,1.3-2.5c1.5-1.4,5.1,1.2,6,1.9
	c5.3,3.6,9.7,8.7,13.8,13.6c2.1,2.5,4.2,5.1,6.2,7.7l6.9-1.7c4-0.9,8-2.1,11.8-3.5c2-0.8,3.9-1.6,5.8-2.6c1.6-0.8,3-1.9,4.1-3.2
	c0.3-0.5,0.5-1.1,0.6-1.7c0.3-1.1,0.1-2.4,0.4-3.5c1.2-4.5,8.3,1.8,9.5,2.9c7.1,6,13.1,13.5,18.5,21s10.8,15.5,14.3,24l1.3,3.5
	c0.6,1.6,0.8,3.3,0.7,4.9c-0.6,2-2.5,1.8-4.1,0.9c-1.2-0.7-2.4-1.3-3.6-1.8c-2-0.5-4-0.6-6-0.3c-4.4,1.1-8.6,2.6-12.7,4.6
	c-4.7,2.1-9.2,4.3-13.9,6.3c-4.2,1.8-8.3,3.8-12.4,5.9c-2.1,1.1-4.1,2.2-6.3,3.3c-2.3,1.3-4.9,1.9-7.5,1.8c-3.3-0.3-6.4-3-8.8-4.9
	c-2.5-2.1-4.8-4.4-7-6.8c-1.4-1.5-2.8-3.1-4.1-4.7c-2.6,1.5-5.1,3.2-7.6,4.9c-3.9,2.6-7.7,5.4-11.6,8c-3,2-6.1,3.8-9.7,4.4
	c-1.6,0.2-3.3-0.1-4.8-0.8c-2-1.1-3.8-2.3-5.5-3.8c-2.4-2.2-4.6-4.2-6.8-6.7c-1.2-1.3-2.5-2.7-3.7-4.1c-2.4,1.1-4.7,2.1-7.1,3.3
	c-8.6,4.2-17.5,8.2-25.4,13.7c-1,0.7-1.9,1.3-2.9,2c-0.8,0.6-1.7,1-2.6,1.2c-1.7,0.4-1.7,0.3-3.5-0.3c-2-0.9-3.8-2.1-5.3-3.6
	c-5-4.4-9.5-9.3-13.5-14.7l-1,0.6c-8.2,5.1-15.9,10.9-23.1,17.5c-1.7,1.5-3.4,3.1-5.2,4.6c-1.4,1.2-2.8,2.5-4.3,3.6
	c-1.2,1-2.7,1.7-4.2,1.8c-0.2,0-0.4,0-0.6,0C75.4,99.8,74.7,99.6,74.1,99.3z"/>
</svg>
