<?xml version="1.0" encoding="utf-8"?>
<!-- Generator: Adobe Illustrator 24.1.0, SVG Export Plug-In . SVG Version: 6.00 Build 0)  -->
<svg version="1.1" id="Layer_1" xmlns="http://www.w3.org/2000/svg" xmlns:xlink="http://www.w3.org/1999/xlink" x="0px" y="0px"
	 viewBox="0 0 276.5 100" style="enable-background:new 0 0 276.5 100;" xml:space="preserve">
<path id="Layer_2_1_" d="M0.5,83.8C0,79.4-0.2,75,0.2,70.5c0.2-3,0.5-5.9,0.8-8.9c0.5-5.1,1.2-10.2,1.8-15.4L2.9,45
	c0-0.1,0-0.2,0-0.2c0.1-0.6,0.2-1.3,0.2-1.9c0-0.4,0.1-0.7,0.1-1.1L3,43.3c0.3-2.7,0.5-5.5,0.6-8.2v-0.9c-0.1-0.4-0.1-0.8-0.1-1.2
	c-0.1-3.7,1-7.6,2-11.2c1.2-4.4,2.8-8.6,4.8-12.7c0.6-1.1,1.2-2.2,1.9-3.2c0.5-0.7,1.3-1.8,2.3-1.6c1.5,0.2,0.9,4.7,0.9,5.5
	c-0.1,1-0.1,2-0.2,3c-0.2,2-0.4,3.9-0.6,5.9c0,0,0,0.1,0,0.1V19c0,0,0-0.1,0-0.1v0.2c0,0.1,0,0.3-0.1,0.5c-0.2,1.3-0.3,2.6-0.5,4
	C14.1,24,14,24.4,14,24.8c-0.7,5.6-1.6,11.2-2.3,16.8c-0.3,2.5-0.5,4.9-0.6,7.4c0,0.7,0,1.5,0.1,2.2c0.1,0.8,0.2,1.6,0.4,2.3
	c0.3,0.8,0.8,1.5,1.3,2.2c1.9,1.4,4,1.5,6.3,1.3c3.4-0.7,6.7-2.2,9.5-4.2c3.4-2.8,6.5-5.9,9.4-9.2c3.8-4.6,7.5-9.2,10.9-14.1
	c1.7-2.7,3.4-5.4,5.1-8.1l1-1.8c1.2-3.1,2.7-6.1,4.4-9C60.6,8.4,62,6.1,64.5,5c0.6-0.3,1.3-0.1,1.7,0.4c0,0,0,0.1,0.1,0.1
	c1.5,2.2,1.3,5.5,1.3,8.1c0,2.2-0.2,4.4-0.3,6.6s-0.3,4.4-0.5,6.6c-0.3,3.8-0.7,7.5-0.9,11.2c0,1.2,0,2.3,0.1,3.5
	c0.1,0.8,0.3,1.6,0.5,2.4c0.3,0.9,0.8,1.7,1.4,2.4c1.3,0.8,2.8,1.2,4.3,1.1c4.7-0.9,8.8-3.3,12.7-6c1.5-1.2,2.9-2.4,4.2-3.8
	c1.2-1.6,2.4-3.2,3.6-4.8c4.6-7,9-14.3,13.3-21.5c0.9-1.6,1.8-3.2,2.8-4.7c1.6-2.3,3.3-5.3,6.1-6.4c0.6-0.4,1.4-0.2,1.8,0.5
	c0,0,0,0.1,0.1,0.1c0.7,0.9,1.2,1.9,1.4,3c0.4,1.5,0.6,3.1,0.6,4.7c0.1,3.5,0.1,7-0.2,10.5l-0.4,5.7c0,2-0.1,4.1,0,6.1
	c0.2,1.8,0.6,3.5,1.1,5.2c0.5,1.4,1.2,2.8,2.1,4c0.8,0.5,1.7,0.8,2.6,0.9c2.2-0.4,4.3-1.3,6.2-2.6c1.6-1.2,3-2.6,4.4-4
	c2.8-3.4,5.2-7,7.8-10.6c3-4.2,5.9-8.9,9.6-12.4c0.5-0.7,1.4-1.1,2.2-1c1.3,1.1,2.7,2,3.5,3.5c0.9,2,1.5,4.1,1.9,6.2
	c0.5,2.3,0.8,4.6,1.1,6.9c0.4,2.6,1,5.3,1.7,7.8c0.8,2.6,2.1,5.1,3.9,7.2c1.6,1.2,3.5,1.8,5.5,1.7c3.3-0.6,6.4-1.8,9.1-3.7
	c3.6-3,6.9-6.2,10-9.6c3.4-3.6,7.1-6.8,11-9.8l-0.4,0.3c1.4-1.2,2.9-2.2,4.6-2.9c1.9-0.6,3.9-0.4,5.6,0.7c2.4,1.5,4,4.2,5.3,6.6
	c3,5.4,5.8,10.9,10.3,15.2c1.3,1.1,2.8,2,4.4,2.8c1.7,0.7,3.6,1,5.4,0.8c3.5-0.6,6.9-2.1,9.8-4.2c1.6-1.3,3.2-2.7,4.6-4.2
	c1.6-2,3-4.1,4.5-6.1c5-7.6,9.7-15.3,14.6-23c0.7-1.1,2.9-5.3,4.9-4.6s1.4,5.3,1.3,6.6c-0.5,4.9-1.5,9.8-2.9,14.5
	c-1.9,6.5-4.1,13.4-7.4,19.3c-6.5,11.6-12.7,23.4-19.8,34.7c-3.6,5.8-7.5,11.6-13.1,15.7c-2.6,2.1-5.6,3.5-8.9,4.2
	c-3.3,0.7-6.8,0.2-9.9-1.4c-6.2-3.6-10.6-9.4-14.3-15.4c-1.9-3.1-3.6-6.5-6.1-9.1c-0.8-0.7-1.8-1.1-2.9-1.2
	c-0.5,0.1-0.9,0.3-1.3,0.5c-2.8,2.3-5.4,4.9-7.7,7.6c-4.2,5-8.1,10.3-12.8,14.9c-2,1.9-4.2,3.6-6.6,5.1c-2.1,1.2-4.4,1.9-6.9,2
	c-2.2,0.2-4.3-0.7-5.9-2.3c-1.7-1.5-2.5-3.5-3.5-5.5c-1.4-3.2-2.5-6.4-3.4-9.8c-0.4-1.4-0.8-2.9-1.1-4.4c-1-5-1.5-10-2.7-15
	c-0.4-0.8-0.8-1.6-1.3-2.4c-2,3.3-4,6.7-6.1,10c-2.2,3.6-4.4,7.1-6.8,10.5c-2,2.8-4.2,5.5-6.7,7.9c-2.1,2.2-4.7,4-7.6,5.1
	c-2.3,1-5.1,0.2-6.4-2c-0.8-1.6-1.5-3.3-1.9-5.1c-0.2-0.9-0.4-1.8-0.7-2.6c-1.4-4.9-2.4-10-2.8-15.1c-0.3-5.1-0.2-10.2-0.5-15.4
	c-0.1-0.7-0.2-1.4-0.4-2.1c0-0.1-0.1-0.1-0.1-0.2c-0.3,0.4-0.7,0.9-1,1.3c-0.6,1-1.2,2-1.8,3c-3.1,5.5-6.2,11-9.4,16.4
	c-2,3.4-4.3,6.7-6.7,9.9c-2.4,3.2-5.1,6.2-8.2,8.8c-3.1,2.6-6.6,5-10.5,6.2c-1.6,0.5-3.3,0.6-4.9,0.3c-1.5-0.6-2.8-1.6-3.7-3
	c-1-1.4-1.4-3.6-1.8-5.3c-0.4-2.1-0.8-4.3-1-6.5c-0.4-3.6-0.6-7.3-0.8-11c-0.2-6.1,0-12.1,0.5-18.2c-2.4,3.8-4.8,7.6-7.3,11.3
	c-3.4,5.2-7.1,10.2-11,15.2c-2.1,2.7-4.4,5.2-6.8,7.6c-4.6,4.6-12.3,9.9-18.8,5.6c-1.1-0.8-2-1.8-2.6-3C1.4,88.2,0.8,86,0.5,83.8z"
	/>
</svg>
