<?xml version="1.0" encoding="utf-8"?>
<!-- Generator: Adobe Illustrator 24.1.0, SVG Export Plug-In . SVG Version: 6.00 Build 0)  -->
<svg version="1.1" xmlns="http://www.w3.org/2000/svg" xmlns:xlink="http://www.w3.org/1999/xlink" x="0px" y="0px"
	 viewBox="0 0 100 100" style="enable-background:new 0 0 100 100;" xml:space="preserve">
<g id="Layer_14">
	<path d="M70.7,78.3c-0.3-0.3-0.7-0.7-1-1c-1.2-1.2-2.7-2.1-4.4-2.5c-0.9-0.2-1.8-0.5-2.7-0.7c-1.2-0.2-2-1.1-2.2-2.2
		c-0.3-1.7-1.1-3.3-2.5-4.5c-1.5-1-2.9-2.3-4.4-3.2c-1.5-1-2.8-2.3-3.8-3.8c-0.3-0.3-0.4-0.7-0.5-1.1c-0.2-1.6,0-3.2,0.5-4.8
		c0.9-2.2,1-4.6,0.5-6.9c-0.2-0.9-0.5-1.8-0.9-2.7c-0.4-0.7-0.3-1.5,0.1-2.2c0.8-1.4,0.9-3,0.2-4.4c-0.6-1.2-0.8-2.6-0.7-3.9
		c0.3-1.7,0.8-3.4,1.6-5c0.1-0.4,0.4-0.7,0.7-1c1.5-1.4,2.6-3,3.5-4.8c0.4-0.7,0.6-1.6,0.5-2.5c-0.1-1.5-0.8-2.9-1.9-3.9
		c-0.7-0.7-1.5-1.3-2.2-2c-1.8-1.8-4-3-6.5-3.7C43,11,41.3,11.2,39.8,12c-1.2,0.7-2.5,1.3-3.7,2c-0.6-0.2-1.2-0.1-1.3,0
		c-1,0.3-2.1,0.4-3.1,0.2c-2.6-0.4-5.1-1.1-7.4-2.2c-1.3-0.6-2.6-0.9-3.9-1.1c-2.3-0.3-4.6,0.3-6.5,1.5c-0.9,0.7-1.7,1.4-2.5,2.2
		c-0.9,0.7-1.5,1.7-1.9,2.8C9,19.2,8.8,21,8.9,22.8c0,0.7,0.2,1.4,0.5,2c1.3,2.2,3.4,3.8,5.9,4.4c1.9,0.5,3.8,1,5.6,1.6
		c3.6,1.3,7.3,2.4,11,3.2c4.8,1,5.9,5.2,4.3,8.8c-0.5,1-1.1,1.9-1.9,2.7c-1.8,2.2-3.8,4.2-5.6,6.7c-1.3,1.7-2.2,3.6-2.8,5.6
		c-0.6,1.6-0.6,3.4-0.2,5c0,0.3,0.1,0.6,0.3,0.9c0.8,1.2,2.5,1.6,3.7,0.8c1.2-0.6,2.2-1.5,3.1-2.5c1.1-1.3,2.3-2.5,3.4-3.8
		c0.7-1.1,2-1.8,3.4-1.6c0.3,0.3,0.4,0.6,0.4,1c0,1.8-0.2,3.6-0.5,5.4c-0.4,2-0.8,3.9-1.1,5.9c-0.5,3.5-1.1,6.9-1.3,10.3
		c-0.1,1.3,0,2.7,0,4c-0.1,3.6,1.1,6.8,2.4,10c0,0.1,0.1,0.1,0.1,0.2c1.2,2.2,3.9,3.1,6.2,2.2c0.3-0.2,0.7-0.3,1-0.4
		c1.8-0.6,3.4-1.9,4.3-3.6c1.1-1.8,1.5-3.9,2.1-5.9c0.4-1.2,1.3-2.2,2.6-2.6c1.1-0.4,2.4,0.1,3.1,1.1c0.7,0.8,1.3,1.6,1.9,2.5
		c1.4,2.1,2.9,3.9,5.7,3.9c1.9,0.2,3.8-0.6,5-2.1C73.8,85.4,73.5,81,70.7,78.3z M70.8,86.3c-0.5,1.2-1,2.5-2.5,2.7
		c-1.5,0.3-3.1-0.2-4.1-1.4c-2.1-2.5-3.2-5.4-4.3-8.4c-1-2.7-2.1-5.4-4.4-7.3c-2.7-2.2-3.5-2-5.4,0.7c-0.5,0.8-0.7,1.8-0.6,2.8
		c0.1,3.2,0.3,6.3,0.1,9.5c-0.1,2.9-1.1,5.8-2.9,8.1c-1.4,1.7-4.4,2.4-5.7-0.7c-1.9-4.2-2.5-8.8-1.9-13.4c0.3-2.3,0.6-4.7,0.9-7.1
		c0.2-0.9,0.5-1.9,0.9-2.8c1.2-2.7,2.1-5.5,3.5-8.1c1.2-2.1,1.8-4.5,1.8-6.9c0-0.8-0.3-1.6-0.7-2.3c-1.3-2.1-4.1-2.7-6.2-1.4
		c-2.4,1.5-4.3,3.6-5.6,6.1c-1.1,1.9-2.4,3.6-4.1,5c-0.5,0.5-1.1,0.8-1.7,1c-0.5-0.3-0.5-0.7-0.5-1.1c0.2-2.3,1.1-4.4,2.4-6.2
		c1.1-1.4,2.1-2.8,3-4.3c1.1-1.8,2.3-3.5,3.7-5.1c0.7-0.9,1.3-1.8,1.8-2.8c0.7-1.3,0.9-2.9,0.6-4.4c-0.4-2.3-1.4-4.5-2.8-6.4
		c-1.1-1.2-2.4-2.1-3.9-2.7c-2.5-1-5.1-1.9-7.8-2.6c-1.4-0.5-2.7-0.9-4.1-1.5c-1.8-0.9-3.4-2.2-4.6-3.8c-1.2-1.5-0.6-3.7,1.2-4.9
		c1.8-1.1,3.9-1.5,6-1.1c1.5,0.3,2.9,0.7,4.2,1.4c1.7,0.6,3.5,1.1,5.3,1.3c1.3,0.1,2.7-0.1,3.8-0.7c1.9-1,4-1.3,5.9-2.2
		c0.3-0.1,0.7-0.1,1-0.1c2.5-0.3,5.2,0.6,7.2,2.6c0.8,0.6,1.5,1.4,2.2,2.2c1.1,1.1,1.2,2.9,0.2,4.1c-0.5,0.8-1.1,1.6-1.7,2.3
		c-1.3,1.3-2.3,2.9-3,4.7c-0.7,2.2-1,4.6-0.8,6.9c0.1,0.6,0.4,1.2,0.7,1.8c0.4,0.7,0.4,1.6,0,2.3c-1,1.4-1,3.2-0.1,4.7
		c1.5,2.8,1.2,5.6,0.3,8.5c-0.8,2.5-0.9,5.1,0.8,7.4c0.1,0.2,0.2,0.3,0.3,0.5c0.3,1.7,1.6,2.6,3,3.4c2.1,1.2,3.9,2.9,5.2,4.9
		c0.4,0.6,0.7,1.4,0.8,2.1c0.2,1.7,1.7,3,3.4,3c1.1,0,2.1,0.2,3.1,0.5c2,0.7,3.7,1.9,4.9,3.6c0.6,0.9,1,1.9,1.3,3
		C71.1,84.6,71.1,85.5,70.8,86.3z M41,54.4l0.1-0.1L41,54.4L41,54.4z"/>
</g>
<g id="Layer_13">
	<path d="M93.6,68L93.6,68c-1-1.8-2.6-2.9-4-4.1c-1-1-2.2-1.7-3.5-2.2c-1.6-0.6-3.2-1.5-4.7-2.6c-0.4-0.2-0.7-0.5-0.9-0.8
		c-0.8-1.4-1.5-2.9-2.2-4.4c-0.4-0.7-0.5-1.5-0.2-2.2c0.4-1.2,1.1-2.2,2-2.9c1.4-0.9,2.7-2,4.4-2.5c2.2-0.6,4.4-1.5,5.6-4
		c0.2-1.3-0.1-2.6-0.8-4.2c-1.4-2.5-2.5-5.3-4.7-7.3c-1.4-1.3-2.6-2.8-3.9-4.3c-0.6-0.6-1.1-1.3-1.5-2.1c-1.7-3.2-1.2-5.1,2-6.8
		c0.3-0.1,0.5-0.2,0.8-0.3c2.1-0.7,4.3-1.2,6.5-1.4c1.6-0.1,3.1-0.7,4.3-1.8c1.1-1,1.1-2.2-0.1-3.3c-1.2-1.1-2.6-1.9-4.1-2.4
		c-3.5-1.1-7.1-2.1-10.7-2.8c-0.9-0.3-2-0.5-3-0.6c-1.7,0.1-3.4-0.1-5.1,0c-4.3,0.1-8.5,1.7-11.7,4.6c-1.4,1.2-2,3.1-1.3,4.8
		c0.2,0.5,0.4,0.9,0.6,1.3c0.7,1.4,1.5,2.7,2.4,3.9c1.7,2.2,1.6,4.1,0.1,6.2c-1.1,1.6-2.5,2.9-4.2,3.9c-0.8,0.4-1.4,1-1.9,1.6
		c-1.2,1.5-2,3.2-1.3,5.2c0.5,1.4,1.6,2.6,2.9,3.2c1.3,0.7,1.4,0.9,0.7,2.2c-0.5,1.2-1,2.4-1.3,3.6c-0.5,2.1-0.2,4.4,0.9,6.3
		c0.1,0.4,0.4,0.7,0.8,0.9c0.9,0.5,1.9,1,2.8,1.5c2.1,0.8,3.8,2.4,4.7,4.5c0.8,1.7,2,3.3,3.6,4.4c1.8,1.2,3.9,2,6,2.4
		c2.2,0.4,4.2,1.5,5.8,3.1c1.6,1.7,3.5,3.1,5.6,4.1c2,1.1,4.3,1.3,6.5,0.7C94.3,72.6,95.1,70.5,93.6,68z M88.1,69.4
		c-2.3,1.5-3.5,1.4-5.7-0.8c-1.2-1.1-2.4-2.1-3.7-3c-1.9-1.1-4-1.8-6.2-2c-1.3-0.3-2.6-0.7-3.8-1.4c-1.4-0.7-2.4-1.9-3-3.3
		c-0.3-0.8-0.8-1.7-1.2-2.5c-0.8-1.5-2.1-2.8-3.7-3.6c-0.7-0.4-1.4-0.9-2.1-1.5c-0.2-0.2-0.3-0.4-0.4-0.6c-0.5-2.1-1.1-4.1,0-6.2
		c0.4-0.9,0.8-1.8,1.2-2.7c0.8-1.8,0.4-2.9-1.3-3.8c-0.3-0.2-0.5-0.3-0.8-0.4c-0.4-0.1-0.7-0.4-1-0.7c-1.1-1.2-1-3,0.2-4.1
		c0.6-0.6,1.3-1.3,2.1-1.8c1.7-1.3,3.3-2.9,4.6-4.6c1.2-1.3,1.4-3.3,0.5-4.9c-0.4-1-0.9-1.9-1.6-2.7c-0.2-0.2-0.5-0.5-0.5-0.7
		c-0.1-1.2-0.9-2.1-1.5-3.1c-0.6-0.9-1-2-1-3.1c1.1-1.6,2.8-2.8,4.7-3.2c0.9-0.2,1.9-0.5,2.8-0.9c1.9-0.8,4-1,6-0.8
		c1.3,0.1,2.7-0.2,4,0.3c0.5,0.2,0.9-0.2,1.4-0.3c1.8,1.1,4,1.4,6,1.8c2.2,0.5,4.3,1.2,6.3,2.1c0.3,0.2,0.6,0.5,0.6,0.9
		c-0.3,0.8-1,1-1.8,1.1c-1.9,0.2-3.7,0.4-5.6,0.5c-2.7,0-5.5,0.6-8,1.6c-0.9,0.3-1.5,1.1-1.8,2c0,0.1-0.1,0.2-0.1,0.3
		c-0.2,2.5,0,5,0.8,7.4c0.2,0.7,0.8,1.1,1.2,1.7c1.9,2.5,4.1,4.9,6.5,6.9c1.2,1,2.3,2.1,3.3,3.2c1.2,1.3,2,2.9,2.1,4.6
		c0.2,0.9-0.3,1.8-1.1,2.2c-1.2,0.7-2.3,1.4-3.5,2c-0.8,0.4-1.6,1-2.4,1.4c-1.8,0.8-3,2.5-4.2,3.8c-1.2,1.3-1.1,3-0.4,4.5
		c0.7,1.7,1.9,3.1,3.4,4.3c2.5,2,5.1,3.7,7.7,5.5c0.6,0.4,1.1,0.9,1.5,1.5C89.6,67.6,89.4,68.5,88.1,69.4z"/>
</g>
<g id="Layer_12">
	<path d="M12.6,40.7c-0.9,0.2-1.8,0.5-2.6,1.1c-0.6,0.3-0.9,1.1-0.6,1.7c0.2,0.3,0.5,0.6,0.9,0.7c0.3,0.1,0.6,0.2,0.8,0.3
		c1.3,0.4,2.6,0.8,3.9,1c0.9,0.2,1.4,1.1,1.2,2c0,0.2-0.1,0.3-0.2,0.5c-0.3,0.4-0.6,0.8-1,1.2c-1,1-1.7,2.2-2.2,3.5
		c-0.4,0.8-0.8,1.7-0.1,2.5c0.6,0.8,1.8,1.1,2.7,0.6c0.4-0.1,0.8-0.2,1.1-0.4c2.3-1.5,4.7-2.8,6.7-4.8c2.1-2.1,3.9-4.5,5.3-7.1
		c0.9-1.7,0.6-3.8-0.8-5.2c-0.7-0.6-1.5-1.2-2.3-1.6c-2.3-1-4.8-1.6-7.3-1.8c-2.3-0.3-4.6,0.4-7-0.2c-0.9-0.2-1.7,0.3-2,1.1
		c-0.2,0.8,0.1,1.6,0.6,2c0.7,0.8,1.5,1.3,2.5,1.6c0.5,0.1,1.1,0.1,1.4,0.8C13.3,40.6,12.9,40.7,12.6,40.7z"/>
</g>
<g id="Layer_11">
	<path d="M37.9,60.8c0-0.1-0.1-0.1-0.3,0c-0.6-0.2-1.3,0.1-1.5,0.7c-0.2,0.4-0.4,0.7-0.6,1.1c-1.1,2.9-3.7,4.9-6.7,5.4
		c-1.2,0.2-2.3,0.6-3.3,1.2c-1.5,0.6-2.4,2.2-2.2,3.8c0.2,0.7,0.5,1.4,1,2c0.3,0.5,0.8,0.9,0.5,1.7c-0.1,0.1-0.3,0.2-0.5,0.3
		c-1,0.3-2.1,0.5-3.1,0.7c-2.4,0.4-4.4,2.3-4.7,4.8c-0.1,0.2-0.1,0.5-0.1,0.7c0,1.5,1.2,2.6,2.7,2.6c0.3,0,0.6,0,1,0
		c1.5,0,2,0.5,2.1,2c0,0.8,0,1.6-0.2,2.4c-0.2,0.7,0,1.5,0.6,1.9c0.9,0.6,2,0.9,3,0.6c2.3-0.5,4-2.3,4.5-4.5
		c0.4-1.8,1.3-3.4,2.7-4.6c0.2-0.2,0.4-0.4,0.5-0.7c0.7-1.3,0.9-2.7,0.5-4.1c-0.4-2,0.1-4.1,1.3-5.7c0.5-0.6,0.8-1.3,1.1-2
		c0.8-3,1.5-6,1.9-9.1C38.2,61.6,38.2,61.2,37.9,60.8z M34.7,67.8c-1.3,2.4-2.7,4.7-3.8,7.1c-0.6,1.3-0.4,2.7-0.3,4.1
		c0,0.6,0.2,1.3,0.2,1.9c0.1,0.6-0.2,1.2-0.7,1.5c-2,1.3-2.7,3.4-3.2,5.6c-0.2,0.8-0.2,1.6-1.1,1.8c-0.5-0.2-0.5-0.5-0.4-0.9
		c0.1-0.4,0.2-0.8,0.2-1.2c0.3-1.7-0.5-3.3-1.9-4.2L20,83c-0.2-1.3,0.5-2.6,1.7-3.1c1.2-0.4,2.4-0.8,3.7-1.1
		c0.4-0.1,0.8-0.1,1.2-0.3h0.1c1.3-0.4,2.1-1.9,1.6-3.3c-0.3-0.8-0.6-1.5-1.1-2.2c-0.9-1.3-0.6-2.3,0.9-2.9c1-0.4,1.9-0.9,2.9-1.3
		c1.2-0.5,2.3-1.3,3.2-2.3c0.2-0.2,0.4-0.3,0.7-0.2C35.2,66.9,35.1,67.5,34.7,67.8z"/>
</g>
<g id="Layer_10">
	<path d="M51.6,8.4c-1.5-1.5-3.4-2.5-5.4-3.1c-2.3-0.4-4.7-0.1-6.9,0.8c-3.3,1.4-6.9,1.3-10.1,0c-1.6-0.6-3.3-1.1-5.1-1.3
		c-0.9,0-1.7-0.1-2.6-0.3c-2.5-0.6-5-0.5-7.4,0.3c-1.2,0.5-2.5,1-3.6,1.7C9.1,7.1,8,8.2,7.3,9.6c-0.6,1.1-1.1,2.2-1.4,3.4
		c-0.4,0.6-0.4,1.4,0,2c0.6-0.5,1.1-1.1,1.4-1.9c0.9-1.6,1.9-3.1,3.6-4c1.1-0.5,2.3-1,3.4-1.3C17,6.9,20,6.7,22.8,7.4
		c3,0.7,5.9,1.6,8.8,2.5c1.6,0.5,3.3,0.6,5,0.3C38,9.9,39.4,9.5,40.8,9c2.5-0.9,5.2-1,7.8-0.2c1.3,0.4,2.6,0.9,3.8,1.4
		C52.4,9.6,52.1,8.9,51.6,8.4z"/>
</g>
<g id="Layer_9">
	<path d="M80.2,79.4c0.7-0.9,0.9-2.2,0.5-3.3c-0.7-1.9-1.7-3.7-3-5.3c-0.7-0.9-1.6-1.6-2.6-2c-1.5-0.6-3.2-0.9-4.8-0.9
		c-0.5,0-0.9,0-1.4,0c-2.2-0.1-3.9-0.9-4.6-3.1c-0.5-1.4-1.1-2.7-1.7-4c-0.6-1.3-1.7-2.4-2.9-3.2c-1.1-0.6-2.3-0.8-3.5-0.6
		c-0.7,0.1-1.3,0.7-1.4,1.4c-0.1,0.7,0.2,1.3,0.9,1.6c0.4,0.2,0.8,0.3,1.2,0.4c2.4,0.4,3.6,1.9,4.4,4c0.4,1,0.8,2.1,1.2,3.1
		c0.7,1.9,2.4,3.3,4.5,3.5c1.2,0.2,2.3,0.2,3.5,0.2c2.6-0.1,5,1.2,6.3,3.4c0.6,1,1,2.1,1.1,3.3c0,0.8,0.4,1.6,1.1,2
		C79.4,79.9,80,79.8,80.2,79.4L80.2,79.4z"/>
</g>
<g id="Layer_8">
	<path d="M92.9,21.5c-0.3-0.6-0.6-1.1-1-1.6c-1-1.7-2.9-2.6-4.8-2.2c-1.8,0.3-3.3,1.2-4.4,2.6c-1.3,1.6-1.8,4.7,0.6,6.2
		c0.1,0.1,0.3,0.2,0.4,0.4c3.3,2.8,8,0.6,9.2-2C93.5,23.8,93.5,22.5,92.9,21.5z"/>
</g>
<g id="Layer_7">
	<path d="M83,55.5c2.1,3.8,5.3,3.5,8.6,1.9c0.4-0.2,0.7-0.6,0.8-1.1c0.4-1.1,0.5-2.2,0.4-3.3c-0.2-1.6-1.4-2.5-2.5-3.5
		c-1.5-1.3-5.4-1-6.8,0.3c-0.2,0.3-0.5,0.5-0.7,0.8C82,52.2,82,54.1,83,55.5z"/>
</g>
<g id="Layer_6">
	<path d="M23.4,66.6c0.9-1.9,0-5.3-1.9-6.2c-2.9-1.3-5-0.4-6.8,2.2c-1.1,1.7-0.1,4.8,1.6,5.7C18.9,69.9,22.3,68.9,23.4,66.6z"/>
</g>
<g id="Layer_5">
	<path d="M39.4,28.1c1.6-0.3,3.2-0.1,4.7-0.4c1.9-0.3,2.7-0.9,3.1-2.8c0.1-0.6,0.2-1.3,0.2-1.9c0.2-0.9-0.4-1.8-1.3-2
		c-2-0.8-4.1-1.1-6.1,0c-1.4,0.7-3.1,0.9-4.6,0.5c-1.4-0.3-2.9-0.5-4.3-0.8c-1.4-0.2-2.7-0.6-4-1.2c-1.3-0.7-2.8-1.1-4.4-1.2
		c-0.8-0.1-1.5,0.4-1.8,1.1c-0.4,0.7-0.3,1.6,0.4,2.1c0.5,0.5,1.2,0.8,1.9,0.9c1.9,0.2,3.8,0.5,5.8,0.6c1.6,0.1,3.2,0.8,4.5,1.8
		c1,0.8,2.1,1.5,3.2,2.3C37.4,27.5,38.3,28.3,39.4,28.1L39.4,28.1z"/>
</g>
<g id="Layer_4">
	<path d="M82.8,38.9c-0.5-1.8-1.8-3.2-3.4-4.1c-1.2-0.7-2.3-1.5-3.5-2.3c-1.2-0.7-2-1.9-2-3.3c-0.1-1.5-0.9-2.9-2.3-3.6
		c-1.4,0.4-1.9,0.5-2.4,1.4c-0.9,1.6-2.6,2.7-4.4,2.9c-0.2,0-0.3,0-0.5,0.1c-1.2,0.4-2.4,1-3.4,1.8c-0.1,0.1-0.2,0.2-0.3,0.3
		c-0.9,0.9-0.8,2.3,0.1,3.2c1.1,1,2.4,1.7,3.8,2c2,0.5,3.9,1.3,5,3.3c0,0.5-0.3,1-0.9,1.2c-0.6,0.4-1.1,0.7-1.7,1
		c-1.4,0.5-1.8,1.7-2.5,2.8c-0.8,1.3-0.2,2.4,0.4,3.6c0.1,0.2,0.2,0.5,0.4,0.8c0.7,0.2,1.3,0.4,1.9,0.5c1.8,0.3,3.6-0.5,4.5-2.1
		c0.2-0.2,0.3-0.5,0.5-0.7c1.8-1.8,4.1-3.1,6.6-3.8c0.9-0.3,1.7-0.6,2.6-1C82.9,42.2,83.4,40.9,82.8,38.9z M80.1,40.3
		c-0.2,0-0.4,0.2-0.7,0c0.2-0.5,0.6-0.8,1.1-0.7C80.6,39.9,80.4,40.2,80.1,40.3z"/>
</g>
<g id="Layer_3">
	<path d="M71.2,9.1c-1.8-0.1-3.6,0-5.4,0.4c-1.1,0.3-2.1,0.9-3,1.7c-0.9,0.7-1.2,1.8-0.9,2.9c0.2,0.7,0.4,1.3,0.6,2
		c0.6,2.2,2.7,3.6,5,3.3c0.9,0.1,1.7-0.6,1.8-1.5v-0.1c0.1-0.8,0.1-1.5,0.2-2.3c0.1-1.3,0.9-2.4,2.1-2.8c0.4-0.1,0.8-0.3,1.1-0.5
		c0.5-0.3,1.3-0.4,1.4-1.4C72.7,9.2,72.7,9.1,71.2,9.1z"/>
</g>
</svg>
