<?xml version="1.0" encoding="utf-8"?>
<!-- Generator: Adobe Illustrator 26.0.2, SVG Export Plug-In . SVG Version: 6.00 Build 0)  -->
<svg version="1.1" id="Layer_1" xmlns="http://www.w3.org/2000/svg" xmlns:xlink="http://www.w3.org/1999/xlink" x="0px" y="0px"
	 viewBox="0 0 600 600" style="enable-background:new 0 0 600 600;" xml:space="preserve">
<style type="text/css">
	.st0{fill:none;stroke:#000000;stroke-linecap:round;stroke-miterlimit:10;}
</style>
<circle class="st0" cx="-267.8" cy="300" r="11.1"/>
<circle class="st0" cx="-362.9" cy="300" r="18.5"/>
<circle class="st0" cx="-292.8" cy="300" r="123.6"/>
<path class="st0" d="M-135.2,439.8c-12.2,3.3-24.9,5.1-38.1,5.1c-80,0-144.9-64.9-144.9-144.9s64.9-144.9,144.9-144.9
	c13.1,0,25.8,1.7,37.8,5"/>
<path class="st0" d="M-135.2,398.8c-12.7,5.3-26.6,8.2-41.2,8.2c-59.1,0-107-47.9-107-107s47.9-107,107-107
	c14.6,0,28.5,2.9,41.2,8.2"/>
<circle class="st0" cx="-379.8" cy="346.4" r="18.5"/>
<circle class="st0" cx="-326.1" cy="391.5" r="123.6"/>
<path class="st0" d="M-134.8,573.4c-11.8,11.2-25,20.1-39.2,26.6"/>
<path class="st0" d="M-295.2,600c-11.5-5.3-22.4-12.2-32.6-20.7c-61.3-51.4-69.3-142.8-17.9-204.2s142.8-69.3,204.2-17.9
	c2.2,1.8,4.2,3.7,6.3,5.6"/>
<path class="st0" d="M-135.2,499.6c-4.1,12.6-10.7,24.7-19.8,35.5c-38,45.3-105.5,51.2-150.8,13.2s-51.2-105.5-13.2-150.8
	s105.5-51.2,150.8-13.2c15.9,13.4,27,30.4,33,48.8"/>
<circle class="st0" cx="-422.6" cy="371.1" r="18.5"/>
<circle class="st0" cx="-410.4" cy="440.2" r="123.6"/>
<path class="st0" d="M-528.4,600c-1.7-5.5-3-11.2-4-17c-13.9-78.8,38.7-154,117.5-167.9c78.8-13.9,154,38.7,167.9,117.5
	c4.1,23.2,2.4,46.2-4,67.3"/>
<path class="st0" d="M-487.3,600c-3.8-8.3-6.7-17.2-8.3-26.6c-10.3-58.2,28.6-113.7,86.8-124c58.2-10.3,113.7,28.6,124,86.8
	c4,22.5,0.6,44.5-8.4,63.7"/>
<circle class="st0" cx="-471.3" cy="362.5" r="18.5"/>
<circle class="st0" cx="-506.3" cy="423.3" r="123.6"/>
<path class="st0" d="M-691.2,600c-25.4-43.5-27.4-99-0.4-145.7c40-69.3,128.6-93.1,198-53s93.1,128.6,53,198
	c-0.1,0.3-0.3,0.5-0.4,0.8"/>
<path class="st0" d="M-640.1,600c-33.6-33.4-42-86.4-17.2-129.4c29.6-51.2,95-68.7,146.2-39.2s68.7,95,39.2,146.2
	c-4.8,8.4-10.6,15.9-17.2,22.4"/>
<circle class="st0" cx="-503" cy="324.7" r="18.5"/>
<circle class="st0" cx="-568.9" cy="348.7" r="123.6"/>
<path class="st0" d="M-735.2,255.1c1.4-0.6,2.9-1.1,4.4-1.7c75.2-27.4,158.4,11.4,185.7,86.6s-11.4,158.4-86.6,185.7
	c-34.9,12.7-71.5,11.2-103.5-1.7"/>
<path class="st0" d="M-735.2,297.8c6.3-3.9,13-7.2,20.2-9.9c55.6-20.2,117,8.4,137.2,64c20.2,55.6-8.4,117-64,137.2
	c-32.2,11.7-66.5,7-93.4-9.9"/>
<circle class="st0" cx="-503" cy="275.3" r="18.5"/>
<circle class="st0" cx="-568.9" cy="251.3" r="123.6"/>
<path class="st0" d="M-735.1,75.9c32-12.8,68.6-14.4,103.5-1.7c75.2,27.4,114,110.5,86.6,185.7s-110.5,114-185.7,86.6
	c-1.5-0.5-2.9-1.1-4.4-1.7"/>
<path class="st0" d="M-735.2,120.8c27-16.9,61.2-21.6,93.4-9.9c55.6,20.2,84.2,81.6,64,137.2c-20.2,55.6-81.6,84.2-137.2,64
	c-7.2-2.6-14-5.9-20.2-9.9"/>
<circle class="st0" cx="-471.3" cy="237.5" r="18.5"/>
<circle class="st0" cx="-506.3" cy="176.7" r="123.6"/>
<path class="st0" d="M-441,0c0.1,0.3,0.3,0.5,0.4,0.8c40,69.3,16.3,157.9-53,198s-157.9,16.3-198-53c-27-46.7-25-102.2,0.4-145.7"/>
<path class="st0" d="M-489,0c6.5,6.5,12.3,14,17.2,22.4c29.6,51.2,12,116.7-39.2,146.2s-116.7,12-146.2-39.2
	c-24.8-43-16.4-96,17.2-129.4"/>
<circle class="st0" cx="-422.6" cy="228.9" r="18.5"/>
<circle class="st0" cx="-410.4" cy="159.8" r="123.6"/>
<path class="st0" d="M-251,0c6.4,21.1,8.1,44,4,67.3c-13.9,78.8-89.1,131.4-167.9,117.5S-546.3,95.8-532.4,17c1-5.8,2.4-11.5,4-17"
	/>
<path class="st0" d="M-293.2,0c9,19.2,12.3,41.3,8.4,63.7c-10.3,58.2-65.8,97.1-124,86.8s-97.1-65.8-86.8-124
	c1.7-9.4,4.5-18.3,8.3-26.6"/>
<circle class="st0" cx="-379.8" cy="253.6" r="18.5"/>
<circle class="st0" cx="-326.1" cy="208.5" r="123.6"/>
<path class="st0" d="M-174,0c14.1,6.5,27.2,15.2,38.9,26.3"/>
<path class="st0" d="M-135.2,237.1c-2,1.9-4.1,3.8-6.3,5.6c-61.3,51.4-152.7,43.4-204.2-17.9S-389,72.1-327.7,20.7
	c10.1-8.5,21.1-15.4,32.6-20.7"/>
<path class="st0" d="M-135.3,167.3c-6,18.2-17,35.1-32.8,48.3c-45.3,38-112.8,32.1-150.8-13.2S-351,89.7-305.7,51.7
	s112.8-32.1,150.8,13.2c9.1,10.9,15.7,23.1,19.9,35.8"/>
<rect x="-735.2" class="st0" width="600" height="600"/>
<circle class="st0" cx="-406.1" cy="135.2" r="11.1"/>
<circle class="st0" cx="-518.8" cy="155.1" r="11.1"/>
<circle class="st0" cx="-592.4" cy="242.8" r="11.1"/>
<circle class="st0" cx="-592.4" cy="357.3" r="11.1"/>
<circle class="st0" cx="-518.8" cy="444.9" r="11.1"/>
<circle class="st0" cx="-406.1" cy="464.8" r="11.1"/>
<circle class="st0" cx="-306.9" cy="407.5" r="11.1"/>
<circle class="st0" cx="-307" cy="192.4" r="11.1"/>
<g>
	<circle class="st0" cx="459.5" cy="300" r="11.1"/>
	<circle class="st0" cx="364.3" cy="300" r="18.5"/>
	<circle class="st0" cx="434.5" cy="300" r="123.6"/>
	<circle class="st0" cx="554" cy="300" r="144.9"/>
	<circle class="st0" cx="550.9" cy="300" r="107"/>
	<circle class="st0" cx="347.5" cy="346.4" r="18.5"/>
	<circle class="st0" cx="401.2" cy="391.5" r="123.6"/>
	<circle class="st0" cx="492.7" cy="468.3" r="144.9"/>
	<circle class="st0" cx="490.4" cy="466.3" r="107"/>
	<circle class="st0" cx="304.7" cy="371.1" r="18.5"/>
	<circle class="st0" cx="316.8" cy="440.2" r="123.6"/>
	<circle class="st0" cx="337.6" cy="557.9" r="144.9"/>
	<circle class="st0" cx="337.1" cy="554.8" r="107"/>
	<circle class="st0" cx="256" cy="362.5" r="18.5"/>
	<circle class="st0" cx="221" cy="423.3" r="123.6"/>
	<circle class="st0" cx="161.2" cy="526.8" r="144.9"/>
	<circle class="st0" cx="162.7" cy="524.1" r="107"/>
	<circle class="st0" cx="224.3" cy="324.7" r="18.5"/>
	<circle class="st0" cx="158.4" cy="348.7" r="123.6"/>
	<circle class="st0" cx="46.1" cy="389.6" r="144.9"/>
	<circle class="st0" cx="49" cy="388.5" r="107"/>
	<circle class="st0" cx="224.3" cy="275.3" r="18.5"/>
	<circle class="st0" cx="158.4" cy="251.3" r="123.6"/>
	<circle class="st0" cx="46.1" cy="210.4" r="144.9"/>
	<circle class="st0" cx="49" cy="211.5" r="107"/>
	<circle class="st0" cx="256" cy="237.5" r="18.5"/>
	<circle class="st0" cx="221" cy="176.7" r="123.6"/>
	<circle class="st0" cx="161.2" cy="73.2" r="144.9"/>
	<circle class="st0" cx="162.7" cy="75.9" r="107"/>
	<circle class="st0" cx="304.7" cy="228.9" r="18.5"/>
	<circle class="st0" cx="316.8" cy="159.8" r="123.6"/>
	<circle class="st0" cx="337.6" cy="42.1" r="144.9"/>
	<circle class="st0" cx="337.1" cy="45.2" r="107"/>
	<circle class="st0" cx="347.5" cy="253.6" r="18.5"/>
	<circle class="st0" cx="401.2" cy="208.5" r="123.6"/>
	<circle class="st0" cx="492.7" cy="131.7" r="144.9"/>
	<circle class="st0" cx="490.4" cy="133.7" r="107"/>
	<circle class="st0" cx="321.2" cy="135.2" r="11.1"/>
	<circle class="st0" cx="208.4" cy="155.1" r="11.1"/>
	<circle class="st0" cx="134.9" cy="242.8" r="11.1"/>
	<circle class="st0" cx="134.9" cy="357.3" r="11.1"/>
	<circle class="st0" cx="208.5" cy="444.9" r="11.1"/>
	<circle class="st0" cx="420.3" cy="407.5" r="11.1"/>
	<circle class="st0" cx="420.3" cy="192.4" r="11.1"/>
</g>
<g>
	<circle class="st0" cx="1282" cy="300" r="11.1"/>
	<circle class="st0" cx="1186.9" cy="300" r="18.5"/>
	<circle class="st0" cx="1257" cy="300" r="123.6"/>
	<circle class="st0" cx="1376.5" cy="300" r="144.9"/>
	<circle class="st0" cx="1373.4" cy="300" r="107"/>
	<circle class="st0" cx="1170" cy="346.4" r="18.5"/>
	<circle class="st0" cx="1223.7" cy="391.5" r="123.6"/>
	<circle class="st0" cx="1315.3" cy="468.3" r="144.9"/>
	<circle class="st0" cx="1312.9" cy="466.3" r="107"/>
	<circle class="st0" cx="1127.2" cy="371.1" r="18.5"/>
	<circle class="st0" cx="1139.4" cy="440.2" r="123.6"/>
	<circle class="st0" cx="1160.1" cy="557.9" r="144.9"/>
	<circle class="st0" cx="1159.6" cy="554.8" r="107"/>
	<circle class="st0" cx="1078.6" cy="362.5" r="18.5"/>
	<circle class="st0" cx="1043.5" cy="423.3" r="123.6"/>
	<circle class="st0" cx="983.7" cy="526.8" r="144.9"/>
	<circle class="st0" cx="985.3" cy="524.1" r="107"/>
	<circle class="st0" cx="1046.8" cy="324.7" r="18.5"/>
	<circle class="st0" cx="980.9" cy="348.7" r="123.6"/>
	<circle class="st0" cx="868.6" cy="389.6" r="144.9"/>
	<circle class="st0" cx="871.5" cy="388.5" r="107"/>
	<circle class="st0" cx="1046.8" cy="275.3" r="18.5"/>
	<circle class="st0" cx="980.9" cy="251.3" r="123.6"/>
	<circle class="st0" cx="868.6" cy="210.4" r="144.9"/>
	<circle class="st0" cx="871.5" cy="211.5" r="107"/>
	<circle class="st0" cx="1078.6" cy="237.5" r="18.5"/>
	<circle class="st0" cx="1043.5" cy="176.7" r="123.6"/>
	<circle class="st0" cx="983.7" cy="73.2" r="144.9"/>
	<circle class="st0" cx="985.3" cy="75.9" r="107"/>
	<circle class="st0" cx="1127.2" cy="228.9" r="18.5"/>
	<circle class="st0" cx="1139.4" cy="159.8" r="123.6"/>
	<circle class="st0" cx="1160.1" cy="42.1" r="144.9"/>
	<circle class="st0" cx="1159.6" cy="45.2" r="107"/>
	<circle class="st0" cx="1170" cy="253.6" r="18.5"/>
	<circle class="st0" cx="1223.7" cy="208.5" r="123.6"/>
	<circle class="st0" cx="1315.3" cy="131.7" r="144.9"/>
	<circle class="st0" cx="1312.9" cy="133.7" r="107"/>
	<circle class="st0" cx="1143.7" cy="135.2" r="11.1"/>
	<circle class="st0" cx="1031" cy="155.1" r="11.1"/>
	<circle class="st0" cx="957.4" cy="242.8" r="11.1"/>
	<circle class="st0" cx="957.4" cy="357.3" r="11.1"/>
	<circle class="st0" cx="1031" cy="444.9" r="11.1"/>
	<circle class="st0" cx="1242.9" cy="407.5" r="11.1"/>
	<circle class="st0" cx="1242.8" cy="192.4" r="11.1"/>
</g>
<rect class="st0" width="600" height="600"/>
</svg>
