<?xml version="1.0" encoding="UTF-8" standalone="no"?>
<svg
   version="1.1"
   id="Layer_1"
   x="0px"
   y="0px"
   viewBox="0 0 816 1056"
   xml:space="preserve"
   sodipodi:docname="plot.svg"
   width="8.5in"
   height="11in"
   inkscape:version="1.1-dev (b471b9b, 2020-09-09)"
   xmlns:inkscape="http://www.inkscape.org/namespaces/inkscape"
   xmlns:sodipodi="http://sodipodi.sourceforge.net/DTD/sodipodi-0.dtd"
   xmlns:xlink="http://www.w3.org/1999/xlink"
   xmlns="http://www.w3.org/2000/svg"
   xmlns:svg="http://www.w3.org/2000/svg"><rect
   style="display:none;opacity:0;fill:none;stroke:url(#linearGradient1114);stroke-width:1.1;stroke-miterlimit:10;stroke-dasharray:none;stroke-opacity:0.963563"
   id="rect293"
   height="1008"
   x="24"
   y="24"
   width="768" /><circle
   class="st0"
   cx="1312.9"
   cy="133.7"
   r="107"
   id="circle268"
   style="stroke:#000000;stroke-width:1.23457;stroke-miterlimit:10;stroke-dasharray:none;stroke-opacity:1"
   transform="matrix(0.810000,0.000000,0.000000,0.810000,-501.265490,284.999990)" />
	<circle
   class="st0"
   cx="1315.3"
   cy="131.7"
   r="144.89999"
   id="circle266"
   style="stroke:#000000;stroke-width:1.23457;stroke-miterlimit:10;stroke-dasharray:none;stroke-opacity:1"
   transform="matrix(0.810000,0.000000,0.000000,0.810000,-501.265490,284.999990)" />
	<circle
   class="st0"
   cx="1143.7"
   cy="135.2"
   r="11.1"
   id="circle270"
   style="stroke:#000000;stroke-width:1.23457;stroke-miterlimit:10;stroke-dasharray:none;stroke-opacity:1"
   transform="matrix(0.810000,0.000000,0.000000,0.810000,-501.265490,284.999990)" />
	<circle
   class="st0"
   cx="1223.7"
   cy="208.5"
   r="123.6"
   id="circle264"
   style="stroke:#000000;stroke-width:1.23457;stroke-miterlimit:10;stroke-dasharray:none;stroke-opacity:1"
   transform="matrix(0.810000,0.000000,0.000000,0.810000,-501.265490,284.999990)" />
	<circle
   class="st0"
   cx="1127.2"
   cy="228.89999"
   r="18.5"
   id="circle254"
   style="stroke:#000000;stroke-width:1.23457;stroke-miterlimit:10;stroke-dasharray:none;stroke-opacity:1"
   transform="matrix(0.810000,0.000000,0.000000,0.810000,-501.265490,284.999990)" />
	<circle
   class="st0"
   cx="1078.6"
   cy="237.5"
   r="18.5"
   id="circle246"
   style="stroke:#000000;stroke-width:1.23457;stroke-miterlimit:10;stroke-dasharray:none;stroke-opacity:1"
   transform="matrix(0.810000,0.000000,0.000000,0.810000,-501.265490,284.999990)" />
	<circle
   class="st0"
   cx="1046.8"
   cy="275.29999"
   r="18.5"
   id="circle238"
   style="stroke:#000000;stroke-width:1.23457;stroke-miterlimit:10;stroke-dasharray:none;stroke-opacity:1"
   transform="matrix(0.810000,0.000000,0.000000,0.810000,-501.265490,284.999990)" />
	<circle
   class="st0"
   cx="1046.8"
   cy="324.70001"
   r="18.5"
   id="circle230"
   style="stroke:#000000;stroke-width:1.23457;stroke-miterlimit:10;stroke-dasharray:none;stroke-opacity:1"
   transform="matrix(0.810000,0.000000,0.000000,0.810000,-501.265490,284.999990)" />
	<circle
   class="st0"
   cx="1078.6"
   cy="362.5"
   r="18.5"
   id="circle222"
   style="stroke:#000000;stroke-width:1.23457;stroke-miterlimit:10;stroke-dasharray:none;stroke-opacity:1"
   transform="matrix(0.810000,0.000000,0.000000,0.810000,-501.265490,284.999990)" />
	<circle
   class="st0"
   cx="1127.2"
   cy="371.10001"
   r="18.5"
   id="circle214"
   style="stroke:#000000;stroke-width:1.23457;stroke-miterlimit:10;stroke-dasharray:none;stroke-opacity:1"
   transform="matrix(0.810000,0.000000,0.000000,0.810000,-501.265490,284.999990)" />
	<circle
   class="st0"
   cx="1223.7"
   cy="391.5"
   r="123.6"
   id="circle208"
   style="stroke:#000000;stroke-width:1.23457;stroke-miterlimit:10;stroke-dasharray:none;stroke-opacity:1"
   transform="matrix(0.810000,0.000000,0.000000,0.810000,-501.265490,284.999990)" />
	<circle
   class="st0"
   cx="1170"
   cy="346.39999"
   r="18.5"
   id="circle206"
   style="stroke:#000000;stroke-width:1.23457;stroke-miterlimit:10;stroke-dasharray:none;stroke-opacity:1"
   transform="matrix(0.810000,0.000000,0.000000,0.810000,-501.265490,284.999990)" />
	<circle
   class="st0"
   cx="1186.9"
   cy="300"
   r="18.5"
   id="circle198"
   style="stroke:#000000;stroke-width:1.23457;stroke-miterlimit:10;stroke-dasharray:none;stroke-opacity:1"
   transform="matrix(0.810000,0.000000,0.000000,0.810000,-501.265490,284.999990)" />
	<circle
   class="st0"
   cx="1257"
   cy="300"
   r="123.6"
   id="circle200"
   style="stroke:#000000;stroke-width:1.23457;stroke-miterlimit:10;stroke-dasharray:none;stroke-opacity:1"
   transform="matrix(0.810000,0.000000,0.000000,0.810000,-501.265490,284.999990)" />
	<circle
   class="st0"
   cx="1170"
   cy="253.60001"
   r="18.5"
   id="circle262"
   style="stroke:#000000;stroke-width:1.23457;stroke-miterlimit:10;stroke-dasharray:none;stroke-opacity:1"
   transform="matrix(0.810000,0.000000,0.000000,0.810000,-501.265490,284.999990)" />
	<circle
   class="st0"
   cx="1376.5"
   cy="300"
   r="144.89999"
   id="circle202"
   style="stroke:#000000;stroke-width:1.23457;stroke-miterlimit:10;stroke-dasharray:none;stroke-opacity:1"
   transform="matrix(0.810000,0.000000,0.000000,0.810000,-501.265490,284.999990)" />
	<circle
   class="st0"
   cx="1373.4"
   cy="300"
   r="107"
   id="circle204"
   style="stroke:#000000;stroke-width:1.23457;stroke-miterlimit:10;stroke-dasharray:none;stroke-opacity:1"
   transform="matrix(0.810000,0.000000,0.000000,0.810000,-501.265490,284.999990)" />
	<circle
   class="st0"
   cx="1282"
   cy="300"
   r="11.1"
   id="circle196"
   style="stroke:#000000;stroke-width:1.23457;stroke-miterlimit:10;stroke-dasharray:none;stroke-opacity:1"
   transform="matrix(0.810000,0.000000,0.000000,0.810000,-501.265490,284.999990)" />
	<circle
   class="st0"
   cx="1242.9"
   cy="407.5"
   r="11.1"
   id="circle280"
   style="stroke:#000000;stroke-width:1.23457;stroke-miterlimit:10;stroke-dasharray:none;stroke-opacity:1"
   transform="matrix(0.810000,0.000000,0.000000,0.810000,-501.265490,284.999990)" />
	<circle
   class="st0"
   cx="1312.9"
   cy="466.29999"
   r="107"
   id="circle212"
   style="stroke:#000000;stroke-width:1.23457;stroke-miterlimit:10;stroke-dasharray:none;stroke-opacity:1"
   transform="matrix(0.810000,0.000000,0.000000,0.810000,-501.265490,284.999990)" />
	<circle
   class="st0"
   cx="1315.3"
   cy="468.29999"
   r="144.89999"
   id="circle210"
   style="stroke:#000000;stroke-width:1.23457;stroke-miterlimit:10;stroke-dasharray:none;stroke-opacity:1"
   transform="matrix(0.810000,0.000000,0.000000,0.810000,-501.265490,284.999990)" />
	<circle
   class="st0"
   cx="1159.6"
   cy="554.79999"
   r="107"
   id="circle220"
   style="stroke:#000000;stroke-width:1.23457;stroke-miterlimit:10;stroke-dasharray:none;stroke-opacity:1"
   transform="matrix(0.810000,0.000000,0.000000,0.810000,-501.265490,284.999990)" />
	<circle
   class="st0"
   cx="1160.1"
   cy="557.90002"
   r="144.89999"
   id="circle218"
   style="stroke:#000000;stroke-width:1.23457;stroke-miterlimit:10;stroke-dasharray:none;stroke-opacity:1"
   transform="matrix(0.810000,0.000000,0.000000,0.810000,-501.265490,284.999990)" />
	<circle
   class="st0"
   cx="1031"
   cy="444.89999"
   r="11.1"
   id="circle278"
   style="stroke:#000000;stroke-width:1.23457;stroke-miterlimit:10;stroke-dasharray:none;stroke-opacity:1"
   transform="matrix(0.810000,0.000000,0.000000,0.810000,-501.265490,284.999990)" />
	<circle
   class="st0"
   cx="1139.4"
   cy="440.20001"
   r="123.6"
   id="circle216"
   style="stroke:#000000;stroke-width:1.23457;stroke-miterlimit:10;stroke-dasharray:none;stroke-opacity:1"
   transform="matrix(0.810000,0.000000,0.000000,0.810000,-501.265490,284.999990)" />
	<circle
   class="st0"
   cx="1043.5"
   cy="423.29999"
   r="123.6"
   id="circle224"
   style="stroke:#000000;stroke-width:1.23457;stroke-miterlimit:10;stroke-dasharray:none;stroke-opacity:1"
   transform="matrix(0.810000,0.000000,0.000000,0.810000,-501.265490,284.999990)" />
	<circle
   class="st0"
   cx="957.40002"
   cy="357.29999"
   r="11.1"
   id="circle276"
   style="stroke:#000000;stroke-width:1.23457;stroke-miterlimit:10;stroke-dasharray:none;stroke-opacity:1"
   transform="matrix(0.810000,0.000000,0.000000,0.810000,-501.265490,284.999990)" />
	<circle
   class="st0"
   cx="980.90002"
   cy="348.70001"
   r="123.6"
   id="circle232"
   style="stroke:#000000;stroke-width:1.23457;stroke-miterlimit:10;stroke-dasharray:none;stroke-opacity:1"
   transform="matrix(0.810000,0.000000,0.000000,0.810000,-501.265490,284.999990)" />
	<circle
   class="st0"
   cx="980.90002"
   cy="251.3"
   r="123.6"
   id="circle240"
   style="stroke:#000000;stroke-width:1.23457;stroke-miterlimit:10;stroke-dasharray:none;stroke-opacity:1"
   transform="matrix(0.810000,0.000000,0.000000,0.810000,-501.265490,284.999990)" />
	<circle
   class="st0"
   cx="957.40002"
   cy="242.8"
   r="11.1"
   id="circle274"
   style="stroke:#000000;stroke-width:1.23457;stroke-miterlimit:10;stroke-dasharray:none;stroke-opacity:1"
   transform="matrix(0.810000,0.000000,0.000000,0.810000,-501.265490,284.999990)" />
	<circle
   class="st0"
   cx="1043.5"
   cy="176.7"
   r="123.6"
   id="circle248"
   style="stroke:#000000;stroke-width:1.23457;stroke-miterlimit:10;stroke-dasharray:none;stroke-opacity:1"
   transform="matrix(0.810000,0.000000,0.000000,0.810000,-501.265490,284.999990)" />
	<circle
   class="st0"
   cx="1139.4"
   cy="159.8"
   r="123.6"
   id="circle256"
   style="stroke:#000000;stroke-width:1.23457;stroke-miterlimit:10;stroke-dasharray:none;stroke-opacity:1"
   transform="matrix(0.810000,0.000000,0.000000,0.810000,-501.265490,284.999990)" />
	<circle
   class="st0"
   cx="1031"
   cy="155.10001"
   r="11.1"
   id="circle272"
   style="stroke:#000000;stroke-width:1.23457;stroke-miterlimit:10;stroke-dasharray:none;stroke-opacity:1"
   transform="matrix(0.810000,0.000000,0.000000,0.810000,-501.265490,284.999990)" />
	<circle
   class="st0"
   cx="1160.1"
   cy="42.099998"
   r="144.89999"
   id="circle258"
   style="stroke:#000000;stroke-width:1.23457;stroke-miterlimit:10;stroke-dasharray:none;stroke-opacity:1"
   transform="matrix(0.810000,0.000000,0.000000,0.810000,-501.265490,284.999990)" />
	<circle
   class="st0"
   cx="1159.6"
   cy="45.200001"
   r="107"
   id="circle260"
   style="stroke:#000000;stroke-width:1.23457;stroke-miterlimit:10;stroke-dasharray:none;stroke-opacity:1"
   transform="matrix(0.810000,0.000000,0.000000,0.810000,-501.265490,284.999990)" />
	<circle
   class="st0"
   cx="985.29999"
   cy="75.900002"
   r="107"
   id="circle252"
   style="stroke:#000000;stroke-width:1.23457;stroke-miterlimit:10;stroke-dasharray:none;stroke-opacity:1"
   transform="matrix(0.810000,0.000000,0.000000,0.810000,-501.265490,284.999990)" />
	<circle
   class="st0"
   cx="983.70001"
   cy="73.199997"
   r="144.89999"
   id="circle250"
   style="stroke:#000000;stroke-width:1.23457;stroke-miterlimit:10;stroke-dasharray:none;stroke-opacity:1"
   transform="matrix(0.810000,0.000000,0.000000,0.810000,-501.265490,284.999990)" />
	<circle
   class="st0"
   cx="871.5"
   cy="211.5"
   r="107"
   id="circle244"
   style="stroke:#000000;stroke-width:1.23457;stroke-miterlimit:10;stroke-dasharray:none;stroke-opacity:1"
   transform="matrix(0.810000,0.000000,0.000000,0.810000,-501.265490,284.999990)" />
	<circle
   class="st0"
   cx="868.59998"
   cy="210.39999"
   r="144.89999"
   id="circle242"
   style="stroke:#000000;stroke-width:1.23457;stroke-miterlimit:10;stroke-dasharray:none;stroke-opacity:1"
   transform="matrix(0.810000,0.000000,0.000000,0.810000,-501.265490,284.999990)" />
	<circle
   class="st0"
   cx="868.59998"
   cy="389.60001"
   r="144.89999"
   id="circle234"
   style="stroke:#000000;stroke-width:1.23457;stroke-miterlimit:10;stroke-dasharray:none;stroke-opacity:1"
   transform="matrix(0.810000,0.000000,0.000000,0.810000,-501.265490,284.999990)" />
	<circle
   class="st0"
   cx="871.5"
   cy="388.5"
   r="107"
   id="circle236"
   style="stroke:#000000;stroke-width:1.23457;stroke-miterlimit:10;stroke-dasharray:none;stroke-opacity:1"
   transform="matrix(0.810000,0.000000,0.000000,0.810000,-501.265490,284.999990)" />
	<circle
   class="st0"
   cx="983.70001"
   cy="526.79999"
   r="144.89999"
   id="circle226"
   style="stroke:#000000;stroke-width:1.23457;stroke-miterlimit:10;stroke-dasharray:none;stroke-opacity:1"
   transform="matrix(0.810000,0.000000,0.000000,0.810000,-501.265490,284.999990)" />
	<circle
   class="st0"
   cx="985.29999"
   cy="524.09998"
   r="107"
   id="circle228"
   style="stroke:#000000;stroke-width:1.23457;stroke-miterlimit:10;stroke-dasharray:none;stroke-opacity:1"
   transform="matrix(0.810000,0.000000,0.000000,0.810000,-501.265490,284.999990)" />
	<circle
   class="st0"
   cx="1242.8"
   cy="192.39999"
   r="11.1"
   id="circle282"
   style="stroke:#000000;stroke-width:1.23457;stroke-miterlimit:10;stroke-dasharray:none;stroke-opacity:1"
   transform="matrix(0.810000,0.000000,0.000000,0.810000,-501.265490,284.999990)" />
<style
   type="text/css"
   id="style8">
	.st0{fill:none;stroke:#000000;stroke-linecap:round;stroke-miterlimit:10;}
</style>

















































<sodipodi:namedview
   pagecolor="#ffffff"
   bordercolor="#666666"
   borderopacity="1"
   objecttolerance="10"
   gridtolerance="10"
   guidetolerance="10"
   inkscape:pageopacity="0"
   inkscape:pageshadow="2"
   inkscape:window-width="1440"
   inkscape:window-height="847"
   id="namedview289"
   showgrid="false"
   inkscape:document-units="in"
   units="in"
   inkscape:snap-page="true"
   inkscape:zoom="0.62508326"
   inkscape:cx="414.3448"
   inkscape:cy="503.13298"
   inkscape:window-x="0"
   inkscape:window-y="25"
   inkscape:window-maximized="0"
   inkscape:current-layer="Layer_1" />
<defs
   id="defs291"><linearGradient
     id="linearGradient1112"
     inkscape:swatch="solid"><stop
       style="stop-color:#000000;stop-opacity:1;"
       offset="0"
       id="stop1110" /></linearGradient><linearGradient
     inkscape:collect="always"
     xlink:href="#linearGradient1112"
     id="linearGradient1114"
     x1="23.5"
     y1="528"
     x2="792.5"
     y2="528"
     gradientUnits="userSpaceOnUse" /></defs><WCB
   layer="0"
   node="0"
   lastpath="0"
   lastpathnc="0"
   lastknownposx="0"
   lastknownposy="0"
   pausedposx="0"
   pausedposy="0"
   randseed="0"
   row="0"
   application="Axidraw" /></svg>
