<svg id="Layer_1" data-name="Layer 1" xmlns="http://www.w3.org/2000/svg" viewBox="0 0 100 100"><path d="M50,0a50,50,0,1,0,50,50A50,50,0,0,0,50,0Zm5.39,16.43A33.8,33.8,0,0,1,72,24.05L55.39,40.61ZM44.61,40.61,28.05,24.05a33.8,33.8,0,0,1,16.56-7.62ZM40.9,44.9H16.38a33.81,33.81,0,0,1,7.67-16.85Zm0,10.2L24.05,72A33.81,33.81,0,0,1,16.38,55.1Zm3.71,4.29V83.57A33.8,33.8,0,0,1,28.05,76Zm10.78,0L72,76a33.8,33.8,0,0,1-16.56,7.62ZM59.1,55.1H83.62A33.81,33.81,0,0,1,76,72Zm0-10.2L76,28.05A33.81,33.81,0,0,1,83.62,44.9Z"/></svg>