<?xml version="1.0" encoding="utf-8"?>
<!-- Generator: Adobe Illustrator 24.2.0, SVG Export Plug-In . SVG Version: 6.00 Build 0)  -->
<svg version="1.1" id="Layer_1" xmlns="http://www.w3.org/2000/svg" xmlns:xlink="http://www.w3.org/1999/xlink" x="0px" y="0px"
	 viewBox="0 0 100 100" style="enable-background:new 0 0 100 100;" xml:space="preserve">
<path d="M50,17.2h16.7v16.7c0,9.2-7.5,16.7-16.7,16.7h0c-9.2,0-16.7-7.5-16.7-16.7v0C33.3,24.7,40.8,17.2,50,17.2z"/>
<path d="M83.3,99.8H100V83.2c0-9.2-7.5-16.7-16.7-16.7h0c-9.2,0-16.7,7.5-16.7,16.7v0C66.7,92.4,74.1,99.8,83.3,99.8z"/>
<path d="M83.3,33.3L83.3,33.3c9.2,0,16.7-7.5,16.7-16.7V0L83.3,0c-9.2,0-16.7,7.5-16.7,16.7v0C66.7,25.9,74.1,33.3,83.3,33.3z"/>
<path d="M16.7,99.8c9.2,0,16.7-7.5,16.7-16.7v0c0-9.2-7.5-16.7-16.7-16.7h0C7.5,66.5,0,74,0,83.2l0,16.7H16.7z"/>
<path d="M16.7,33.3L16.7,33.3c9.2,0,16.7-7.5,16.7-16.7v0C33.3,7.5,25.9,0,16.7,0L0,0l0,16.7C0,25.9,7.5,33.3,16.7,33.3z"/>
<path d="M66.7,67.2c0-9.2-7.5-16.7-16.7-16.7h0c-9.2,0-16.7,7.5-16.7,16.7v16.7H50C59.2,83.9,66.7,76.4,66.7,67.2L66.7,67.2z"/>
</svg>
