<?xml version="1.0" encoding="utf-8"?>
<!-- Generator: Adobe Illustrator 24.2.0, SVG Export Plug-In . SVG Version: 6.00 Build 0)  -->
<svg version="1.1" id="Layer_1" xmlns="http://www.w3.org/2000/svg" xmlns:xlink="http://www.w3.org/1999/xlink" x="0px" y="0px"
	 viewBox="0 0 100 100" style="enable-background:new 0 0 100 100;" xml:space="preserve">
<path d="M83.3,99.8H100V83.2c0-9.2-7.5-16.7-16.7-16.7h0c-9.2,0-16.7,7.5-16.7,16.7v0C66.7,92.4,74.1,99.8,83.3,99.8z"/>
<path d="M62,45.3C62,54.5,54.5,62,45.3,62c-2.2,0-4.2-0.4-6.1-1.2c-0.8-2-1.3-4.1-1.3-6.4c0-4.6,1.9-8.8,4.9-11.8
	c3-3,7.2-4.9,11.8-4.9c2.2,0,4.2,0.4,6.1,1.2C61.5,40.9,62,43.1,62,45.3z"/>
<path d="M83.3,33.3L83.3,33.3c9.2,0,16.7-7.5,16.7-16.7V0L83.3,0c-9.2,0-16.7,7.5-16.7,16.7v0C66.7,25.9,74.1,33.3,83.3,33.3z"/>
<path d="M16.7,99.8c9.2,0,16.7-7.5,16.7-16.7v0c0-9.2-7.5-16.7-16.7-16.7h0C7.5,66.5,0,74,0,83.2l0,16.7H16.7z"/>
<path d="M16.7,33.3L16.7,33.3c9.2,0,16.7-7.5,16.7-16.7v0C33.3,7.5,25.9,0,16.7,0L0,0l0,16.7C0,25.9,7.5,33.3,16.7,33.3z"/>
<path d="M62,45.3C62,54.5,54.5,62,45.3,62c-2.2,0-4.2-0.4-6.1-1.2c-0.8-2-1.3-4.1-1.3-6.4c0-4.6,1.9-8.8,4.9-11.8
	c3-3,7.2-4.9,11.8-4.9c2.2,0,4.2,0.4,6.1,1.2C61.5,40.9,62,43.1,62,45.3z"/>
<path d="M50,19.7c-16.7,0-30.3,13.5-30.3,30.3S33.3,80.3,50,80.3S80.3,66.7,80.3,50S66.7,19.7,50,19.7z M71.2,71.1H54.6
	c-4.6,0-8.8-1.9-11.8-4.9c-1.5-1.5-2.8-3.4-3.6-5.4c-6.2-2.4-10.5-8.5-10.5-15.5V28.7h16.7c4.6,0,8.8,1.9,11.8,4.9
	c1.5,1.5,2.8,3.4,3.6,5.4c6.2,2.5,10.5,8.5,10.5,15.5V71.1z M62,45.3c0-2.3-0.5-4.4-1.3-6.4c-1.9-0.8-4-1.2-6.1-1.2
	c-4.6,0-8.8,1.9-11.8,4.9c-3,3-4.9,7.2-4.9,11.8c0,2.3,0.5,4.5,1.3,6.4c1.9,0.8,4,1.2,6.1,1.2C54.5,62,62,54.5,62,45.3z"/>
</svg>
