<?xml version="1.0" encoding="utf-8"?>
<!-- Generator: Adobe Illustrator 24.2.0, SVG Export Plug-In . SVG Version: 6.00 Build 0)  -->
<svg version="1.1" id="Layer_1" xmlns="http://www.w3.org/2000/svg" xmlns:xlink="http://www.w3.org/1999/xlink" x="0px" y="0px"
	 viewBox="0 0 100 100" style="enable-background:new 0 0 100 100;" xml:space="preserve">
<path d="M0,33.3L0,33.3L0,0h33.3v0C33.3,18.4,18.4,33.3,0,33.3z M66.7,50L66.7,50c0-9.2-7.5-16.7-16.7-16.7h0
	c-9.2,0-16.7,7.5-16.7,16.7v0c0,9.2,7.5,16.7,16.7,16.7h0C59.2,66.7,66.7,59.2,66.7,50z M22,83.3h15.3c4.7,0,7.1-5.7,3.7-9L25.7,59
	c-3.3-3.3-9-1-9,3.7V78C16.7,81,19,83.3,22,83.3z M33.3,100L0,66.7L0,100H33.3z M66.7,0L100,33.3V0H66.7z M78,16.7H62.8
	c-4.7,0-7.1,5.7-3.7,9L74.3,41c3.3,3.3,9,1,9-3.7V22C83.3,19,81,16.7,78,16.7z M100,66.7L100,66.7c-18.4,0-33.3,14.9-33.3,33.3v0
	H100V66.7z"/>
</svg>
