<?xml version="1.0" encoding="utf-8"?>
<!-- Generator: Adobe Illustrator 24.2.0, SVG Export Plug-In . SVG Version: 6.00 Build 0)  -->
<svg version="1.1" id="Layer_1" xmlns="http://www.w3.org/2000/svg" xmlns:xlink="http://www.w3.org/1999/xlink" x="0px" y="0px"
	 viewBox="0 0 100 100" style="enable-background:new 0 0 100 100;" xml:space="preserve">
<path d="M66.7,50L66.7,50c0-9.2-7.5-16.7-16.7-16.7h0c-9.2,0-16.7,7.5-16.7,16.7v0c0,9.2,7.5,16.7,16.7,16.7h0
	C59.2,66.7,66.7,59.2,66.7,50z M22,83.3h15.3c4.7,0,7.1-5.7,3.7-9L25.7,59c-3.3-3.3-9-1-9,3.7V78C16.7,81,19,83.3,22,83.3z M78,16.7
	H62.8c-4.7,0-7.1,5.7-3.7,9L74.3,41c3.3,3.3,9,1,9-3.7V22C83.3,19,81,16.7,78,16.7z M16.7,22v15.3c0,4.7,5.7,7.1,9,3.7L41,25.7
	c3.3-3.3,1-9-3.7-9H22C19,16.7,16.7,19,16.7,22z M83.3,78V62.8c0-4.7-5.7-7.1-9-3.7L59,74.3c-3.3,3.3-1,9,3.7,9H78
	C81,83.3,83.3,81,83.3,78z M81.1,10c4.9,0,8.9,4,8.9,8.9v62.1c0,4.9-4,8.9-8.9,8.9H18.9C14,90,10,86,10,81.1V18.9
	c0-4.9,4-8.9,8.9-8.9H81.1 M81.1,0H18.9C8.5,0,0,8.5,0,18.9v62.1C0,91.5,8.5,100,18.9,100h62.1c10.5,0,18.9-8.5,18.9-18.9V18.9
	C100,8.5,91.5,0,81.1,0L81.1,0z"/>
</svg>
