<?xml version="1.0" encoding="utf-8"?>
<!-- Generator: Adobe Illustrator 24.1.0, SVG Export Plug-In . SVG Version: 6.00 Build 0)  -->
<svg version="1.1" id="Layer_1" xmlns="http://www.w3.org/2000/svg" xmlns:xlink="http://www.w3.org/1999/xlink" x="0px" y="0px"
	 viewBox="0 0 120 120" style="enable-background:new 0 0 120 120;" xml:space="preserve">
<g id="Layer_37">
	<rect x="10" y="110" width="10" height="10"/>
</g>
<g id="Layer_36">
	<rect x="10" y="90" width="10" height="10"/>
</g>
<g id="Layer_35">
	<rect x="10" y="70" width="10" height="10"/>
</g>
<g id="Layer_34">
	<rect x="10" y="50" width="10" height="10"/>
</g>
<g id="Layer_33">
	<rect x="10" y="30" width="10" height="10"/>
</g>
<g id="Layer_32">
	<rect x="10" y="10" width="10" height="10"/>
</g>
<g id="Layer_31">
	<rect x="20" width="10" height="10"/>
</g>
<g id="Layer_30">
	<rect x="20" y="20" width="10" height="10"/>
</g>
<g id="Layer_29">
	<rect x="20" y="40" width="10" height="10"/>
</g>
<g id="Layer_28">
	<rect x="20" y="60" width="10" height="10"/>
</g>
<g id="Layer_27">
	<rect x="20" y="80" width="10" height="10"/>
</g>
<g id="Layer_26">
	<rect x="20" y="100" width="10" height="10"/>
</g>
<g id="Layer_25">
	<rect x="60" width="10" height="10"/>
</g>
<g id="Layer_24">
	<rect x="60" y="20" width="10" height="10"/>
</g>
<g id="Layer_23">
	<rect x="60" y="40" width="10" height="10"/>
</g>
<g id="Layer_22">
	<rect x="60" y="60" width="10" height="10"/>
</g>
<g id="Layer_21">
	<rect x="60" y="80" width="10" height="10"/>
</g>
<g id="Layer_20">
	<rect x="60" y="100" width="10" height="10"/>
</g>
<g id="Layer_19">
	<rect x="50" y="110" width="10" height="10"/>
</g>
<g id="Layer_18">
	<rect x="50" y="90" width="10" height="10"/>
</g>
<g id="Layer_17">
	<rect x="50" y="70" width="10" height="10"/>
</g>
<g id="Layer_16">
	<rect x="50" y="50" width="10" height="10"/>
</g>
<g id="Layer_15">
	<rect x="50" y="30" width="10" height="10"/>
</g>
<g id="Layer_14">
	<rect x="50" y="10" width="10" height="10"/>
</g>
<g id="Layer_13">
	<rect x="90" y="110" width="10" height="10"/>
</g>
<g id="Layer_12">
	<rect x="90" y="90" width="10" height="10"/>
</g>
<g id="Layer_11">
	<rect x="90" y="70" width="10" height="10"/>
</g>
<g id="Layer_10">
	<rect x="90" y="50" width="10" height="10"/>
</g>
<g id="Layer_9">
	<rect x="90" y="30" width="10" height="10"/>
</g>
<g id="Layer_8">
	<rect x="90" y="10" width="10" height="10"/>
</g>
<g id="Layer_7">
	<rect x="100" width="10" height="10"/>
</g>
<g id="Layer_6">
	<rect x="100" y="20" width="10" height="10"/>
</g>
<g id="Layer_5">
	<rect x="100" y="40" width="10" height="10"/>
</g>
<g id="Layer_4">
	<rect x="100" y="60" width="10" height="10"/>
</g>
<g id="Layer_3">
	<rect x="100" y="80" width="10" height="10"/>
</g>
<g id="Layer_2">
	<rect x="100" y="100" width="10" height="10"/>
</g>
</svg>
