<?xml version="1.0" encoding="utf-8"?>
<!-- Generator: Adobe Illustrator 24.1.0, SVG Export Plug-In . SVG Version: 6.00 Build 0)  -->
<svg version="1.1" xmlns="http://www.w3.org/2000/svg" xmlns:xlink="http://www.w3.org/1999/xlink" x="0px" y="0px"
	 viewBox="0 0 100 100" style="enable-background:new 0 0 100 100;" xml:space="preserve">
<style type="text/css">
	.st0{fill:#CCCCCC;}
	.st1{fill:#B3B3B3;}
	.st2{fill:#999999;}
	.st3{fill:#808080;}
	.st4{fill:#666666;}
	.st5{fill:#4D4D4D;}
	.st6{fill:#333333;}
	.st7{fill:#1A1A1A;}
</style>
<g id="Layer_9">
	<g>
		<path class="st0" d="M50.5,0v20c-0.2,0-0.3,0-0.5,0c-8,0-15.3,3.2-20.7,8.3L15.2,14.2C24.2,5.4,36.5,0,50,0C50.2,0,50.3,0,50.5,0z
			"/>
	</g>
</g>
<g id="Layer_8">
	<g>
		<path class="st1" d="M29.3,28.3c-5.6,5.3-9.2,12.9-9.3,21.2H0c0.1-13.9,5.9-26.4,15.1-35.3L29.3,28.3z"/>
	</g>
</g>
<g id="Layer_7">
	<g>
		<path class="st2" d="M28.8,71.2L14.7,85.3C5.6,76.3,0,63.8,0,50c0-0.2,0-0.3,0-0.5h20c0,0.2,0,0.3,0,0.5
			C20,58.3,23.4,65.8,28.8,71.2z"/>
	</g>
</g>
<g id="Layer_6">
	<g>
		<path class="st3" d="M50.5,80v20c-0.2,0-0.3,0-0.5,0c-13.8,0-26.3-5.6-35.3-14.7l14.1-14.1C34.2,76.6,41.7,80,50,80
			C50.2,80,50.3,80,50.5,80z"/>
	</g>
</g>
<g id="Layer_5">
	<g>
		<path class="st4" d="M85.8,84.8c-9,9.2-21.5,15-35.3,15.2V80c8.3-0.1,15.8-3.7,21.2-9.3L85.8,84.8z"/>
	</g>
</g>
<g id="Layer_4">
	<g>
		<path class="st5" d="M100,50c0,13.5-5.4,25.8-14.2,34.8L71.7,70.7C76.8,65.3,80,58,80,50c0-0.2,0-0.3,0-0.5h20
			C100,49.7,100,49.8,100,50z"/>
	</g>
</g>
<g id="Layer_3">
	<g>
		<path class="st6" d="M100,49.5H80c-0.1-8.1-3.5-15.4-8.8-20.7l14.1-14.2C94.3,23.6,99.9,35.9,100,49.5z"/>
	</g>
</g>
<g id="Layer_2">
	<g>
		<path class="st7" d="M85.3,14.6L71.2,28.8c-5.3-5.3-12.6-8.7-20.7-8.8V0C64.1,0.1,76.4,5.7,85.3,14.6z"/>
	</g>
</g>
</svg>
