<?xml version="1.0" encoding="utf-8"?>
<!-- Generator: Adobe Illustrator 24.1.0, SVG Export Plug-In . SVG Version: 6.00 Build 0)  -->
<svg version="1.1" xmlns="http://www.w3.org/2000/svg" xmlns:xlink="http://www.w3.org/1999/xlink" x="0px" y="0px"
	 viewBox="0 0 100 100" style="enable-background:new 0 0 100 100;" xml:space="preserve">
<style type="text/css">
	.st0{fill:#CCCCCC;}
	.st1{fill:#B3B3B3;}
	.st2{fill:#999999;}
	.st3{fill:#808080;}
	.st4{fill:#666666;}
	.st5{fill:#4D4D4D;}
	.st6{fill:#333333;}
	.st7{fill:#1A1A1A;}
</style>
<g id="Layer_9_2_">
	<g id="Layer_9_1_">
		<g id="Layer_9">
			<g>
				<path class="st0" d="M50.5,0v10H50c-10.8,0-20.6,4.3-27.8,11.2l-7.1-7.1C24.2,5.4,36.5,0,50,0C50.2,0,50.3,0,50.5,0z"/>
			</g>
		</g>
	</g>
</g>
<g id="Layer_8_2_">
	<g id="Layer_8_1_">
		<g id="Layer_8">
			<g>
				<path class="st1" d="M22.2,21.2C14.8,28.4,10.1,38.4,10,49.5H0c0.1-13.9,5.9-26.4,15.1-35.3L22.2,21.2z"/>
			</g>
		</g>
	</g>
</g>
<g id="Layer_7_2_">
	<g id="Layer_7_1_">
		<g id="Layer_7">
			<g>
				<path class="st2" d="M21.7,78.3l-7.1,7.1C5.6,76.3,0,63.8,0,50c0-0.2,0-0.3,0-0.5h10V50C10,61,14.5,71,21.7,78.3z"/>
			</g>
		</g>
	</g>
</g>
<g id="Layer_6_2_">
	<g id="Layer_6_1_">
		<g id="Layer_6">
			<g>
				<path class="st3" d="M50.5,90v10c-0.2,0-0.3,0-0.5,0c-13.8,0-26.3-5.6-35.3-14.7l7.1-7.1C29,85.5,39,90,50,90H50.5z"/>
			</g>
		</g>
	</g>
</g>
<g id="Layer_5_2_">
	<g id="Layer_5_1_">
		<g id="Layer_5">
			<g>
				<path class="st4" d="M85.8,84.8c-9,9.2-21.5,15-35.3,15.2V90c11.1-0.1,21.1-4.8,28.3-12.2L85.8,84.8z"/>
			</g>
		</g>
	</g>
</g>
<g id="Layer_4_2_">
	<g id="Layer_4_1_">
		<g id="Layer_4">
			<g>
				<path class="st5" d="M100,50c0,13.5-5.4,25.8-14.2,34.8l-7.1-7.1C85.7,70.6,90,60.8,90,50v-0.5h10C100,49.7,100,49.8,100,50z"/>
			</g>
		</g>
	</g>
</g>
<g id="Layer_3_2_">
	<g id="Layer_3_1_">
		<g id="Layer_3">
			<g>
				<path class="st6" d="M100,49.5H90c-0.1-10.8-4.6-20.7-11.7-27.8l7.1-7.1C94.3,23.6,99.9,35.9,100,49.5z"/>
			</g>
		</g>
	</g>
</g>
<g id="Layer_2">
	<g id="Layer_2_2_">
		<g id="Layer_2_1_">
			<g>
				<path class="st7" d="M85.3,14.6l-7.1,7.1c-7-7.1-16.9-11.6-27.7-11.7V0C64.1,0.1,76.4,5.7,85.3,14.6z"/>
			</g>
		</g>
	</g>
</g>
</svg>
