<?xml version="1.0" encoding="utf-8"?>
<!-- Generator: Adobe Illustrator 24.1.0, SVG Export Plug-In . SVG Version: 6.00 Build 0)  -->
<svg version="1.1" id="Layer_2" xmlns="http://www.w3.org/2000/svg" xmlns:xlink="http://www.w3.org/1999/xlink" x="0px" y="0px"
	 viewBox="0 0 100 100" style="enable-background:new 0 0 100 100;" xml:space="preserve">
<style type="text/css">
	.st0{fill:#404040;}
	.st1{fill:#4D4D4D;}
	.st2{fill:#595959;}
	.st3{fill:#666666;}
	.st4{fill:#737373;}
	.st5{fill:#808080;}
	.st6{fill:#8C8C8C;}
	.st7{fill:#999999;}
	.st8{fill:#A6A6A6;}
	.st9{fill:#B3B3B3;}
	.st10{fill:#BFBFBF;}
	.st11{fill:#CCCCCC;}
	.st12{fill:#D9D9D9;}
	.st13{fill:#E6E6E6;}
	.st14{fill:#F2F2F2;}
	.st15{fill:#333333;}
</style>
<g id="Layer_18">
	<path class="st0" d="M34.7,13c-4.9,2-9.3,5-13,8.7l-7.1-7.1C19.3,10,24.8,6.3,30.9,3.8L34.7,13z"/>
</g>
<g id="Layer_17">
	<path class="st1" d="M21.7,21.7c-3.7,3.7-6.7,8.1-8.7,13l-9.2-3.8c2.5-6.1,6.2-11.6,10.9-16.2L21.7,21.7z"/>
</g>
<g id="Layer_16">
	<path class="st2" d="M13,34.7c-2,4.7-3,9.9-3,15.3H0c0-6.8,1.3-13.2,3.8-19.1L13,34.7z"/>
</g>
<g id="Layer_15">
	<path class="st3" d="M13,65.3l-9.2,3.8C1.3,63.2,0,56.8,0,50h10C10,55.4,11.1,60.6,13,65.3z"/>
</g>
<g id="Layer_14">
	<path class="st4" d="M21.7,78.3l-7.1,7.1C10,80.7,6.3,75.2,3.8,69.1l9.2-3.8C15.1,70.2,18,74.6,21.7,78.3z"/>
</g>
<g id="Layer_13">
	<path class="st5" d="M34.7,87l-3.8,9.2c-6.1-2.5-11.6-6.2-16.2-10.9l7.1-7.1C25.4,82,29.8,84.9,34.7,87z"/>
</g>
<g id="Layer_12">
	<path class="st6" d="M50,90v10c-6.8,0-13.2-1.4-19.1-3.8l3.8-9.2C39.4,88.9,44.6,90,50,90z"/>
</g>
<g id="Layer_11">
	<path class="st7" d="M69.1,96.2C63.2,98.6,56.8,100,50,100V90c5.4,0,10.6-1.1,15.3-3L69.1,96.2z"/>
</g>
<g id="Layer_10">
	<path class="st8" d="M85.3,85.3c-4.6,4.6-10.1,8.3-16.2,10.9L65.3,87c4.9-2,9.3-5,13-8.7L85.3,85.3z"/>
</g>
<g id="Layer_9">
	<path class="st9" d="M96.2,69.1c-2.5,6.1-6.2,11.6-10.9,16.2l-7.1-7.1c3.7-3.7,6.7-8.1,8.7-13L96.2,69.1z"/>
</g>
<g id="Layer_8">
	<path class="st10" d="M100,50c0,6.8-1.3,13.2-3.8,19.1L87,65.3c2-4.7,3-9.9,3-15.3C90,50,100,50,100,50z"/>
</g>
<g id="Layer_7">
	<path class="st11" d="M100,50H90c0-5.4-1.1-10.6-3-15.3l9.2-3.8C98.7,36.8,100,43.2,100,50z"/>
</g>
<g id="Layer_6">
	<path class="st12" d="M96.2,30.9L87,34.7c-2-4.9-5-9.3-8.7-13l7.1-7.1C90,19.3,93.7,24.8,96.2,30.9z"/>
</g>
<g id="Layer_5">
	<path class="st13" d="M85.3,14.6l-7.1,7.1c-3.7-3.7-8.1-6.7-13-8.7L69,3.8C75.2,6.3,80.7,10,85.3,14.6z"/>
</g>
<g id="Layer_4">
	<path class="st14" d="M69.1,3.8L65.3,13c-4.7-2-9.9-3-15.3-3V0C56.8,0,63.2,1.3,69.1,3.8z"/>
</g>
<g id="Layer_3">
	<path class="st15" d="M50,0v10c-5.4,0-10.6,1.1-15.3,3l-3.8-9.2C36.8,1.3,43.2,0,50,0z"/>
</g>
</svg>
