<?xml version="1.0" encoding="utf-8"?>
<!-- Generator: Adobe Illustrator 24.1.0, SVG Export Plug-In . SVG Version: 6.00 Build 0)  -->
<svg version="1.1" xmlns="http://www.w3.org/2000/svg" xmlns:xlink="http://www.w3.org/1999/xlink" x="0px" y="0px"
	 viewBox="0 0 100 100" style="enable-background:new 0 0 100 100;" xml:space="preserve">
<style type="text/css">
	.st0{fill:#0D0D0D;}
	.st1{fill:#1A1A1A;}
	.st2{fill:#4D4D4D;}
	.st3{fill:#666666;}
	.st4{fill:#808080;}
	.st5{fill:#999999;}
	.st6{fill:#A6A6A6;}
	.st7{fill:#B3B3B3;}
	.st8{fill:#CCCCCC;}
	.st9{fill:#D9D9D9;}
	.st10{fill:#E6E6E6;}
	.st11{fill:#F2F2F2;}
	.st12{fill:#8C8C8C;}
	.st13{fill:#BFBFBF;}
	.st14{fill:#333333;}
</style>
<g id="Layer_17">
	<path d="M50,0v20c-4.2,0-8.2,0.9-11.9,2.5L30.5,4C36.5,1.4,43.1,0,50,0z"/>
</g>
<g id="Layer_16">
	<path class="st0" d="M38.1,22.5c-3.8,1.6-7.1,4-9.9,6.9L14.1,15.2C18.7,10.5,24.3,6.6,30.5,4L38.1,22.5z"/>
</g>
<g id="Layer_15">
	<path class="st1" d="M28.2,29.4c-2.7,2.9-4.9,6.3-6.3,10.1L3.4,31.8C5.8,25.6,9.5,20,14.1,15.2L28.2,29.4z"/>
</g>
<g id="Layer_14">
	<path class="st2" d="M22.7,62.4L4.2,70.1c-2.6-5.8-4.1-12.2-4.2-19h20C20.2,55.2,21.1,59,22.7,62.4z"/>
</g>
<g id="Layer_13">
	<path class="st3" d="M29.4,71.8L15.2,85.9c-4.6-4.5-8.4-9.8-11-15.8l18.5-7.7C24.3,66,26.6,69.1,29.4,71.8z"/>
</g>
<g id="Layer_12">
	<path class="st4" d="M38.9,77.9l-7.7,18.5c-6-2.4-11.5-6-16.1-10.5l14.2-14.1C32.1,74.4,35.4,76.5,38.9,77.9z"/>
</g>
<g id="Layer_11">
	<path class="st5" d="M68.7,96.4C62.9,98.7,56.6,100,50,100V80c3.9,0,7.6-0.8,11.1-2.1L68.7,96.4z"/>
</g>
<g id="Layer_10">
	<path class="st6" d="M84.8,85.9c-4.6,4.5-10,8-16.1,10.5l-7.7-18.5c3.6-1.4,6.8-3.5,9.5-6.1L84.8,85.9z"/>
</g>
<g id="Layer_9">
	<path class="st7" d="M95.8,70.1c-2.6,6-6.4,11.3-11,15.8L70.6,71.8c2.8-2.6,5.1-5.8,6.7-9.3L95.8,70.1z"/>
</g>
<g id="Layer_8">
	<path class="st8" d="M100,50c0,0.4,0,0.8,0,1.1H80c0-0.4,0-0.8,0-1.1c0-3.7-0.7-7.2-1.9-10.5l18.5-7.7C98.8,37.5,100,43.6,100,50z"
		/>
</g>
<g id="Layer_7">
	<path class="st9" d="M96.6,31.8l-18.5,7.7c-1.4-3.8-3.6-7.2-6.3-10.1l14.1-14.2C90.5,20,94.2,25.6,96.6,31.8z"/>
</g>
<g id="Layer_6">
	<path class="st10" d="M85.9,15.2L71.8,29.4c-2.8-2.9-6.1-5.3-9.9-6.9L69.5,4C75.7,6.6,81.3,10.5,85.9,15.2z"/>
</g>
<g id="Layer_5">
	<path class="st11" d="M69.5,4l-7.7,18.5C58.2,20.9,54.2,20,50,20V0C56.9,0,63.5,1.4,69.5,4z"/>
</g>
<g id="Layer_4">
	<path class="st12" d="M50,80v20c-6.6,0-12.9-1.3-18.7-3.6l7.7-18.5C42.4,79.2,46.1,80,50,80z"/>
</g>
<g id="Layer_3">
	<path class="st13" d="M100,51.1c-0.1,6.7-1.6,13.1-4.2,19l-18.5-7.7c1.6-3.5,2.5-7.3,2.7-11.3H100z"/>
</g>
<g id="Layer_2">
	<path class="st14" d="M20,50c0,0.4,0,0.8,0,1.1H0c0-0.4,0-0.8,0-1.1c0-6.4,1.2-12.5,3.4-18.2l18.5,7.7C20.7,42.8,20,46.3,20,50z"/>
</g>
</svg>
