<?xml version="1.0" encoding="utf-8"?>
<!-- Generator: Adobe Illustrator 24.1.0, SVG Export Plug-In . SVG Version: 6.00 Build 0)  -->
<svg version="1.1" xmlns="http://www.w3.org/2000/svg" xmlns:xlink="http://www.w3.org/1999/xlink" x="0px" y="0px"
	 viewBox="0 0 100 100" style="enable-background:new 0 0 100 100;" xml:space="preserve">
<g id="Layer_9">
	<path d="M85.3,14.6L50,50V0C63.8,0,76.3,5.6,85.3,14.6z"/>
</g>
<g id="Layer_8">
	<path d="M100,50H50l35.3-35.4C94.4,23.7,100,36.2,100,50z"/>
</g>
<g id="Layer_7">
	<path d="M100,50c0,13.8-5.6,26.3-14.7,35.3L50,50H100z"/>
</g>
<g id="Layer_6">
	<path d="M85.3,85.3c-9,9-21.5,14.7-35.3,14.7V50L85.3,85.3z"/>
</g>
<g id="Layer_5">
	<path d="M50,50v50c-13.8,0-26.3-5.6-35.3-14.7L50,50z"/>
</g>
<g id="Layer_4">
	<path d="M50,50L14.7,85.3C5.6,76.3,0,63.8,0,50H50z"/>
</g>
<g id="Layer_3">
	<path d="M50,50H0c0-13.8,5.6-26.3,14.7-35.4L50,50z"/>
</g>
<g id="Layer_2">
	<path d="M50,0v50L14.7,14.6C23.7,5.6,36.2,0,50,0z"/>
</g>
</svg>
