<?xml version="1.0" encoding="UTF-8" standalone="no"?>
<svg
   version="1.1"
   x="0px"
   y="0px"
   viewBox="0 0 816 1056"
   xml:space="preserve"
   id="svg845"
   sodipodi:docname="20220222133242.svg"
   width="8.5in"
   height="11in"
   inkscape:version="1.1-dev (b471b9b, 2020-09-09)"
   xmlns:inkscape="http://www.inkscape.org/namespaces/inkscape"
   xmlns:sodipodi="http://sodipodi.sourceforge.net/DTD/sodipodi-0.dtd"
   xmlns="http://www.w3.org/2000/svg"
   xmlns:svg="http://www.w3.org/2000/svg"><g
   id="_x31__-_Design"
   transform="matrix(0.98876404,0,0,0.98876404,0.62921552,120.13483)"
   inkscape:groupmode="layer"
   inkscape:label="1 - Design">
	<path
   class="st0"
   d="m 181,33 h 528 c 9.1,0 16.5,7.4 16.5,16.5 0,9.1 -7.4,16.5 -16.5,16.5 H 181 c -9.1,0 -16.5,7.4 -16.5,16.5 0,9.1 7.4,16.5 16.5,16.5 h 462 c 9.1,0 16.5,7.4 16.5,16.5 0,9.1 -7.4,16.5 -16.5,16.5 H 247 c -9.1,0 -16.5,7.4 -16.5,16.5 0,9.1 7.4,16.5 16.5,16.5 h 330 c 9.1,0 16.5,7.4 16.5,16.5 0,9.1 -7.4,16.5 -16.5,16.5 H 313 c -9.1,0 -16.5,7.4 -16.5,16.5 0,9.1 7.4,16.5 16.5,16.5 h 198 c 9.1,0 16.5,7.4 16.5,16.5 0,9.1 -7.4,16.5 -16.5,16.5 H 379 c -9.1,0 -16.5,7.4 -16.5,16.5 0,9.1 7.4,16.5 16.5,16.5 h 231 c 9.1,0 16.5,7.4 16.5,16.5 0,9.1 -7.4,16.5 -16.5,16.5 H 280 c -9.1,0 -16.5,7.4 -16.5,16.5 0,9.1 7.4,16.5 16.5,16.5 h 297 c 9.1,0 16.5,7.4 16.5,16.5 0,9.1 -7.4,16.5 -16.5,16.5 H 379 c -9.1,0 -16.5,7.4 -16.5,16.5 0,9.1 7.4,16.5 16.5,16.5 h 132 c 9.1,0 16.5,7.4 16.5,16.5 0,9.1 -7.4,16.5 -16.5,16.5 H 49 c -9.1,0 -16.5,7.4 -16.5,16.5 0,9.1 7.4,16.5 16.5,16.5 h 396 c 9.1,0 16.5,7.4 16.5,16.5 0,9.1 -7.4,16.5 -16.5,16.5 H 115 c -9.1,0 -16.5,7.4 -16.5,16.5 0,9.1 7.4,16.5 16.5,16.5 h 627 c 9.1,0 16.5,7.4 16.5,16.5 0,9.1 -7.4,16.5 -16.5,16.5 H 49 c -9.1,0 -16.5,7.4 -16.5,16.5 0,9.1 7.4,16.5 16.5,16.5 h 396 c 9.1,0 16.5,7.4 16.5,16.5 0,9.1 -7.4,16.5 -16.5,16.5 H 115 c -9.1,0 -16.5,7.4 -16.5,16.5 0,9.1 7.4,16.5 16.5,16.5 h 660 c 9.1,0 16.5,7.4 16.5,16.5 0,9.1 -7.4,16.5 -16.5,16.5 H 148 c -9.1,0 -16.5,7.4 -16.5,16.5 0,9.1 7.4,16.5 16.5,16.5 h 528 c 9.1,0 16.5,7.4 16.5,16.5 0,9.1 -7.4,16.5 -16.5,16.5 H 181"
   id="path825" />
	</g>
<g
   id="_x32__-_Guides"
   transform="matrix(0.98876404,0,0,0.98876404,0.62921552,120.62922)"
   inkscape:groupmode="layer"
   inkscape:label="2 - Guides">
	<line
   class="st1"
   x1="-400"
   y1="0"
   x2="400"
   y2="0"
   id="line836"
   transform="matrix(1.000000,0.000000,0.000000,1.000000,412.000000,412.000000)" />
		<line
   class="st1"
   x1="400"
   y1="-400"
   x2="-400"
   y2="400"
   id="line840"
   transform="matrix(1.000000,0.000000,0.000000,1.000000,412.000000,412.000000)" />
	<line
   class="st1"
   x1="-400"
   y1="-400"
   x2="400"
   y2="400"
   id="line838"
   transform="matrix(1.000000,0.000000,0.000000,1.000000,412.000000,412.000000)" />
		<line
   class="st1"
   x1="0"
   y1="-400"
   x2="0"
   y2="400"
   id="line834"
   transform="matrix(1.000000,0.000000,0.000000,1.000000,412.000000,412.000000)" />
		<rect
   x="-400"
   y="-400"
   class="st1"
   width="800"
   height="800"
   id="rect830"
   transform="matrix(1.000000,0.000000,0.000000,1.000000,412.000000,412.000000)" />
	</g>
<style
   type="text/css"
   id="style823">
	.st0{fill:none;stroke:#000000;stroke-linecap:round;stroke-miterlimit:10;}
	.st1{fill:none;stroke:#C8C8C8;stroke-linecap:round;stroke-miterlimit:10;}
</style>
<sodipodi:namedview
   pagecolor="#ffffff"
   bordercolor="#666666"
   borderopacity="1"
   objecttolerance="10"
   gridtolerance="10"
   guidetolerance="10"
   inkscape:pageopacity="0"
   inkscape:pageshadow="2"
   inkscape:window-width="2560"
   inkscape:window-height="1387"
   id="namedview847"
   showgrid="false"
   units="in"
   inkscape:zoom="1.409697"
   inkscape:cx="351.49398"
   inkscape:cy="412.5"
   inkscape:window-x="0"
   inkscape:window-y="25"
   inkscape:window-maximized="1"
   inkscape:current-layer="_x31__-_Design" />
<defs
   id="defs849" /><WCB
   layer="12345"
   node="399"
   lastpath="4"
   lastpathnc="399"
   lastknownposx="-1.7763568394002505e-14"
   lastknownposy="-3.1086244689504383e-15"
   pausedposx="9.619832677165336"
   pausedposy="0.13016732283464272"
   randseed="1645556032.3"
   row="0"
   application="Axidraw" /></svg>
