<?xml version="1.0" encoding="UTF-8" standalone="no"?>
<svg
   version="1.1"
   x="0px"
   y="0px"
   viewBox="0 0 429.2 366.8"
   style="enable-background:new 0 0 429.2 366.8;"
   xml:space="preserve"
   id="svg91"
   sodipodi:docname="flower.svg"
   inkscape:version="1.1-dev (b471b9b, 2020-09-09)"
   xmlns:inkscape="http://www.inkscape.org/namespaces/inkscape"
   xmlns:sodipodi="http://sodipodi.sourceforge.net/DTD/sodipodi-0.dtd"
   xmlns="http://www.w3.org/2000/svg"
   xmlns:svg="http://www.w3.org/2000/svg"><defs
   id="defs95" /><sodipodi:namedview
   pagecolor="#ffffff"
   bordercolor="#666666"
   borderopacity="1"
   objecttolerance="10"
   gridtolerance="10"
   guidetolerance="10"
   inkscape:pageopacity="0"
   inkscape:pageshadow="2"
   inkscape:window-width="1440"
   inkscape:window-height="791"
   id="namedview93"
   showgrid="false"
   inkscape:zoom="1.3036981"
   inkscape:cx="282.27393"
   inkscape:cy="185.24227"
   inkscape:window-x="0"
   inkscape:window-y="25"
   inkscape:window-maximized="0"
   inkscape:current-layer="g103" />
<style
   type="text/css"
   id="style8">
	.st0{fill:#474747;stroke:#000000;stroke-miterlimit:10;}
	.st1{fill:#AAAAAA;stroke:#000000;stroke-miterlimit:10;}
	.st2{fill:#E0E0E0;stroke:#000000;stroke-miterlimit:10;}
	.st3{fill:none;stroke:#000000;stroke-miterlimit:10;}
</style>




<g
   id="three"
   inkscape:groupmode="layer"
   style="display:inline"
   inkscape:label="three"><g
     id="Layer_29">
	<path
   class="st0"
   d="m 220,176.6 c 5.1,-34.9 40.7,-44.3 40.7,-91 0,-48 -52.4,-86.9 -53.8,-85 -22.8,30.5 -89.6,61.2 -28.9,130.3 11.9,14.5 29.2,30.9 32.3,47.8 0.1,0 0.2,-0.1 0.2,-0.3"
   id="path10" />
</g><g
     id="Layer_28">
	<path
   class="st0"
   d="m 227.7,180.1 v 0 c 29.5,-9.1 38.1,-44.8 57.5,-65.5 20,-23.5 53.2,-34.5 83.2,-27.1 23.8,7.5 39.5,15.9 59.4,20.4 -28,15.3 -35.9,47.6 -55.1,70.8 -16.8,21.6 -34.6,30.1 -61.8,30 -9.9,-0.9 -19.7,-2.5 -29.3,-5 -15.7,-5.8 -34.1,-17.5 -50.8,-8.7"
   id="path13" />
</g><g
     id="Layer_27"
     style="fill:#333333">
	<path
   class="st0"
   d="m 229.8,196.7 c 11.1,23 56.1,23.4 77.8,37.9 22.3,14.1 34.4,40.9 37.1,66.6 0.1,21.5 -5.3,44.2 4,64.5 l -0.9,-0.3 0.1,0.2 C 300.1,340 235.2,344.8 224.1,276.7 c -3.5,-21.4 7.6,-56.1 -7.5,-72.5"
   id="path16"
   style="fill:#333333" />
</g><g
     id="Layer_26"
     style="fill:#333333">
	<path
   class="st0"
   d="m 215.7,203.2 c -0.2,0.2 -0.4,0.4 -0.7,0.6 -19.5,17.4 -12.1,52.3 -16.8,75.9 -6.8,34.5 -31.3,49.3 -58.5,57.4 -19.2,7 -40.6,2.6 -59.3,11.3 0,-0.3 0.3,-0.5 0.5,-0.7 l -0.4,-0.5 -0.3,0.1 C 82.4,289 62,242.8 130.8,214.8 c 20.3,-8.8 59.6,-4.2 73.9,-19"
   id="path19"
   style="fill:#333333" />
</g><g
     id="Layer_25"
     style="fill:#333333">
	<path
   class="st0"
   d="M 203.7,192.8 C 177.5,184.6 132.8,228.5 76,198.4 35,176.7 -2.2,129.3 0.7,128.4 51.5,111.1 69.9,98.5 91.4,94.9 152.8,84.7 171,154 207,182.2"
   id="path22"
   style="fill:#333333" />
</g></g>




<g
   id="two"
   inkscape:groupmode="layer"
   style="display:inline"
   inkscape:label="two"><g
     id="Layer_24"
     style="fill:#b3b3b3">
	<path
   class="st1"
   d="m 214,177.3 c 0,0 -6,-25.2 -21.6,-43.6 -15.6,-18.4 -30.3,-40.2 -29.6,-56 0.9,-18.3 15.8,-32.4 43,-59.6 0,0 24.4,12.5 38,43 5.2,11.6 12,40.5 -2,61.8 -9.6,14.6 -17.8,18 -25.4,53.8"
   id="path25"
   style="fill:#b3b3b3" />
</g><g
     id="Layer_23"
     style="fill:#b3b3b3">
	<path
   class="st1"
   d="m 271.8,148.2 c 25.6,-51.1 61.2,-54 87.1,-49.8 16.8,2.8 32.2,11.2 48.8,14.4 -28.4,11.1 -29.9,45.6 -48.8,66 -13.6,15.4 -35.8,21.4 -55.8,20 -23.3,-2 -44.7,-12.1 -68.1,-11.1 0.1,-0.2 25.2,-16.4 36.8,-39.5 z"
   id="path28"
   style="fill:#b3b3b3" />
</g><g
     id="Layer_22"
     style="fill:#b3b3b3">
	<path
   class="st1"
   d="m 229.9,265.2 c -0.4,-19.1 4.1,-38.4 -1.4,-57.2 15.7,21.1 101.1,13 105.2,95.1 0.7,14.4 -1.9,30.7 1.9,45.6 0.3,1 -102.9,-12.5 -105.7,-83.5 z"
   id="path31"
   style="fill:#b3b3b3" />
</g><g
     id="Layer_21"
     style="fill:#b3b3b3">
	<path
   class="st1"
   d="m 94.9,269.9 c -3.8,20.8 2.9,42.3 -3,62.8 23.5,-8.6 61.4,-2 83.4,-28.8 26.3,-32 9,-38.6 23.9,-96 -42.2,13 -91.1,1.5 -104.3,62 z"
   id="path34"
   style="fill:#b3b3b3" />
</g><g
     id="Layer_20"
     style="fill:#b3b3b3">
	<path
   class="st1"
   d="m 20.5,133.4 c 30.9,-7.3 53.8,-21.4 71.7,-27.2 51.2,-16.3 67.4,59.9 110.2,78.7 -27.7,-6.5 -53.5,5.9 -80.8,10.3 C 72,203.3 17.9,134 20.5,133.4 Z"
   id="path37"
   style="fill:#b3b3b3" />
</g></g>





<g
   id="one"
   inkscape:groupmode="layer"
   style="display:inline"
   inkscape:label="one"><g
     id="Layer_19"
     style="fill:#ececec">
	<path
   class="st2"
   d="m 215.7,151.8 c 0,0 -11.5,-14.2 -22,-29.9 -7.1,-10.7 -17.3,-28.2 -17.5,-41.5 -0.2,-13 4.9,-34.3 30.9,-50.9 0,0 15.8,13.5 24.8,31.4 5.8,11.8 15.5,30.2 -16.2,90.9 z"
   id="path40"
   style="fill:#ececec" />
</g><g
     id="Layer_18"
     style="fill:#ececec">
	<path
   class="st2"
   d="m 324.4,336.4 c -16.6,-11 -28.4,-4 -46.2,-15.8 -29.9,-19.7 -45.4,-58.9 -40.1,-93.9 22.5,17.3 47.8,-0.5 75.4,41.7 13.2,20.1 11,68.1 10.9,68 z"
   id="path43"
   style="fill:#ececec" />
</g><g
     id="Layer_17"
     style="fill:#ececec">
	<path
   class="st2"
   d="m 290.9,133.7 c 21.1,-34.2 65.6,-29.1 97.9,-16.3 -17.1,10.2 -18.9,32.8 -31,47.1 -8.8,10.5 -21.8,19.1 -35.7,20.5 -21.8,2.2 -44.3,-1.7 -65.9,-4.8 0,0.1 22.7,-20 34.7,-46.5 z"
   id="path46"
   style="fill:#ececec" />
</g><g
     id="Layer_16"
     style="fill:#ececec">
	<path
   class="st2"
   d="m 135.6,312.9 c -9.8,1.4 -23.9,3 -31.6,5.1 h -0.2 l -0.3,0.1 c 3.9,-26 -1.1,-53.4 20,-74.6 11.9,-12 21.8,-16.5 33.7,-18 v 0 c 9.2,-1.2 19.2,-1.2 30.4,-3.5 -4.9,16.4 -1.8,33.9 -7.1,50 -6.2,20.6 -24.7,35.3 -44.9,40.9 z"
   id="path49"
   style="fill:#ececec" />
</g><g
     id="Layer_15"
     style="fill:#ececec">
	<path
   class="st2"
   d="m 38.9,140.8 c 24.3,-2.2 44.6,-23.9 70.2,-17.7 28.6,6.3 46.5,30.4 63.5,52.2 -19.3,-3.2 -36.6,10.6 -55.8,8.5 -31.1,-3.2 -55.6,-23 -77.9,-43 z"
   id="path52"
   style="fill:#ececec" />
</g><g
     id="Layer_14"
     style="fill:#ececec">
	<path
   class="st2"
   d="m 213.5,203.3 c 14,5.4 24.5,-14.5 14.1,-23.3 v 0 c -10.5,-9.3 -28.8,2.6 -22.8,15.9 2.5,6.3 9.2,10.5 16.3,4.8 12.1,-9.2 -4.1,-22.5 -10,-12.7 -3.6,9.7 7.7,12.5 7.1,3.1"
   id="path55"
   style="fill:#ececec" />
</g></g>
<g
   id="Layer_13">
	<path
   class="st3"
   d="M207,29.5c0,0-3.1,9.4-1.1,16.3s7.5,20.4,5.8,26.7"
   id="path58" />
</g>
<g
   id="Layer_12">
	<path
   class="st3"
   d="M231.1,117.4c6.2-24.5-5.2-49.9-26.2-44.4c-20.5,5.3-9.4,35.4,3.7,35.4c16.1,0,18.9-25.1,3.4-25.8   c-11.5-0.6-10.2,16.1-2.1,15.5c6.1-0.5,5.1-8,2.4-8.6"
   id="path61" />
</g>
<g
   id="Layer_11">
	<path
   class="st3"
   d="M227.5,180L227.5,180"
   id="path64" />
</g>
<g
   id="Layer_10">
	<path
   class="st3"
   d="M324.4,336.4c-11.5-24.7-25-21.1-31.6-42.8"
   id="path67" />
</g>
<g
   id="Layer_9">
	<path
   class="st3"
   d="M247.7,285.4c5.6,7.8,20.6,14.6,30.5,14.4c7.9-0.2,17.7-5.9,19.8-14.7c3.1-12.5-3.6-24.5-15.7-29.8   c-19.5-8.2-35.1,15.2-18.1,27.7c13,9.6,33.8-3.9,17.8-17.9c-7.2-6.4-17.5,2.6-13.7,10.5c4.7,9.9,17,3.1,9.4-5.1   c0-0.1,0.1-0.2,0.2-0.2"
   id="path70" />
</g>
<g
   id="Layer_8">
	<path
   class="st3"
   d="M389.2,117.5c-28.3-0.8-27.3,20.7-51,26.2"
   id="path73" />
</g>
<g
   id="Layer_7">
	<path
   class="st3"
   d="M320.1,150.5c1.4,10.1-13.6,8.7-11.6-0.9c0.4-8.4,13.8-10.4,17.3-3.4c6,10.8-2.2,17.8-12.8,18.6   c-21.4,1.8-18.7-31,0.7-31.8c10.5-1.9,26.1,5.8,25,18c-0.6,16.9-19.6,28.9-33.7,34.7"
   id="path76" />
</g>
<g
   id="Layer_6">
	<path
   class="st3"
   d="M151.1,266.9c-8.9-4.1-0.6-10.7,2.5-10.2c19.5,3.1-5,30.2-14.3,7.4c-3.6-8.8,7.9-21.5,19.6-16.3   c8.4,3.7,12.4,12.9,8.8,22.2c-4,10.1-16.8,17.8-24.2,15.4c-32.8-10.7-4.8-50.1,13.8-59.8l0,0l0,0"
   id="path79" />
</g>
<g
   id="Layer_5">
	<path
   class="st3"
   d="M103.8,318.4c7.8-14.7,30.7-17,33.9-35.3"
   id="path82" />
</g>
<g
   id="Layer_4">
	<path
   class="st3"
   d="M40,141.6c20.2,0,34,14.6,51.5,8"
   id="path85" />
</g>
<g
   id="Layer_3">
	<path
   class="st3"
   d="M138.5,137.5c-21.7-12.5-41-4.7-47.1,12.5c-0.5,11.2,10.6,19.4,21.1,19.3c17.2,0.3,26.3-21.5,6.3-26.3   c-12.2-3-21.6,14.2-5.7,15.7c4.2-0.2,6.9-4,3.1-7.1c-0.5-0.5-3.4-2.5-3.8-1.6"
   id="path88" />
</g>
<g
   id="layer1"
   inkscape:label="Layer 1"
   style="display:inline" /></svg>
