<?xml version="1.0" encoding="utf-8"?>
<!-- Generator: Adobe Illustrator 24.1.0, SVG Export Plug-In . SVG Version: 6.00 Build 0)  -->
<svg version="1.1" id="Layer_1" xmlns="http://www.w3.org/2000/svg" xmlns:xlink="http://www.w3.org/1999/xlink" x="0px" y="0px"
	 viewBox="0 0 100 100" style="enable-background:new 0 0 100 100;" xml:space="preserve">
<style type="text/css">
	.st0{opacity:0.94;fill:#020202;enable-background:new    ;}
	.st1{fill:#020202;}
	.st2{opacity:0.94;fill:#A5A5A5;enable-background:new    ;}
	.st3{opacity:0.94;fill:#545454;enable-background:new    ;}
</style>
<g id="Layer_6_1_">
	<g id="Layer_6">
		<path class="st0" d="M13.2,75.7c0.2,1.1-0.5,2.1-1.5,2.5c-0.8,0.5-1.9,0.6-2.8,0.2c-0.5-0.3-0.9-0.7-1.1-1.3
			c-0.4-1.3-0.1-2.7,0.7-3.7C8.7,73.2,9,73,9.2,72.8c0.6-1,1.4-0.9,2.2-0.7c0.8,0.3,1.5,1,1.6,1.9C13.1,74.6,13.2,75.1,13.2,75.7z"
			/>
		<path class="st0" d="M9.5,46c1.1,0,2.6,1.7,2.5,2.8c-0.2,0.9-0.5,1.9-0.9,2.7C10.7,52.1,9.9,52,9.3,52c-1.5,0.1-2.9-1-3-2.5v-0.1
			C6.5,47.3,7.1,46.1,9.5,46z"/>
		<path class="st0" d="M10.4,21.1c-0.1,1.3-0.7,2.4-1.6,3.3c-0.4,0.3-0.9,0.4-1.3,0.2c-1.7-0.6-2.6-2.4-2-4.1
			c0.1-0.3,0.2-0.5,0.3-0.7c0.3-0.6,0.9-1,1.3-1.6C7.2,18,7.4,17.9,7.6,18c0.8,0.2,1.6,0.6,2.2,1.2C10.3,19.7,10.5,20.4,10.4,21.1z"
			/>
		<path class="st0" d="M31.4,22.8h-0.3c-1,0.2-2-0.6-2.2-1.6c0-0.1,0-0.3,0-0.4c-0.1-1.5,0.5-2.9,1.9-3.1c0.6-0.1,1.3,0.1,1.9-0.4
			c0.2-0.1,0.5,0,0.6,0.2c0.6,1,0.9,2.2,0.8,3.4c-0.1,0.9-0.8,1.6-1.7,1.8C32.1,22.7,31.7,22.8,31.4,22.8L31.4,22.8z"/>
		<path class="st0" d="M87.4,76.4c-0.6-1.3,0.5-1.9,1-2.8c0.3-0.4,0.8-0.5,1.2-0.2c0,0,0.1,0,0.1,0.1c0.4,0.3,1,0.5,1.6,0.5
			c0.4,0,0.7,0.2,0.7,0.6c0.2,1.4-0.1,2.8-0.7,4c-0.7,0.6-1.6,0.9-2.5,0.8c-0.8-0.4-1.4-1.2-1.3-2.1C87.4,76.9,87.4,76.7,87.4,76.4z
			"/>
		<path class="st0" d="M35.2,47.1c0.1,0.9-0.3,1.8-1,2.3c-0.2,0.1-0.4,0.3-0.5,0.5c-0.2,0.4-0.7,0.5-1.1,0.3
			C32.3,50.1,32,50,31.7,50c-0.6-0.1-1.1-0.6-1.2-1.2c-0.3-1.1-0.1-2.4,0.5-3.3c0.3-0.5,1-0.8,1.6-0.8c0.2,0,0.5,0,0.7,0
			C34.7,44.8,35.2,45.5,35.2,47.1z"/>
		<path class="st0" d="M68.3,48.8c-0.6,0.1-1.2-0.1-1.6-0.4c-0.6-0.6-0.9-1.5-0.8-2.3c-0.1-1.3,0.6-2.5,1.9-3
			c0.5-0.3,1.1-0.1,1.4,0.3c0.2,0.3,0.4,0.5,0.7,0.8c1,1.1,1,2.8,0,3.9C69.4,48.5,69.1,49.3,68.3,48.8z"/>
		<path class="st0" d="M72.5,18.3c0,1.5-1,2.7-2.4,3.1c-1.1,0-2.1-0.6-2.5-1.7c-0.3-1.1,0.3-2.3,1.4-2.8c0.4-0.1,0.7-0.4,0.9-0.8
			c0.2-0.6,0.5-0.6,1-0.3c0.3,0.2,0.6,0.4,0.9,0.7C72.3,17,72.6,17.7,72.5,18.3z"/>
		<path class="st0" d="M93.7,19.4c0.1,1.4-1.1,2.6-2.5,2.7c-0.1,0-0.2,0-0.2,0c-0.6,0-1.2-0.3-1.6-0.7c-0.6-0.5-0.8-1.4-0.5-2.1
			c0.1-0.3,0.2-0.6,0.3-0.9c0-0.5,0.4-0.9,0.8-0.9c0.1,0,0.1,0,0.2,0c0.5,0,1,0.1,1.4-0.5c0.1-0.1,0.2-0.1,0.4-0.1
			C92.9,17.4,93.6,18.3,93.7,19.4z"/>
		<path class="st0" d="M87.7,47.7c0-1.3,0.6-2.6,1.7-3.5c0.2-0.3,0.6-0.3,0.8-0.2c0.1,0,0.1,0.1,0.2,0.2c0.5,0.6,1.1,1.2,1.6,1.9
			c0.4,0.4,0.4,1.1,0,1.5c-0.8,1.4-1.6,2-2.8,1.8C88.3,49.3,87.7,48.5,87.7,47.7z"/>
		<path class="st1" d="M35.1,76.6c-1.3,0.1-1.4,0-1.8-1.3c-0.4-0.9-0.3-1.9,0.3-2.6c0.5-0.7,1.4-1.1,1.9-0.9c0.9,0.2,1.6,1,1.7,2
			c0.2,0.9-0.1,1.8-0.7,2.5C36,76.7,35.5,76.6,35.1,76.6z"/>
		<path class="st0" d="M67.3,77c-0.5-0.1-1-0.3-1.6-0.5c-0.3-0.1-0.5-0.4-0.6-0.6c-0.3-0.9,0.4-2.8,1.3-3s1.8-0.5,2.6,0.4
			c0.1,0.1,0.3,0.3,0.3,0.5c0.1,1.3-0.5,2.5-1.5,3.2C67.7,77,67.5,77,67.3,77z"/>
		<path class="st1" d="M19.7,33.1c-0.3,1-0.3,2.1,0,3.2c0,0.5,0,1,0,1.5c0,0.2-0.1,0.3-0.2,0.3s-0.2-0.1-0.3-0.3
			C19.1,37.6,19,37.3,19,37c0-0.8-0.2-1.5-0.2-2.3c-0.1-1.5-0.4-2.9-0.4-4.4c0-0.2,0-0.4,0.2-0.5s0.5,0.1,0.5,0.3
			C19.3,31.1,19.5,32.1,19.7,33.1z"/>
		<path class="st1" d="M19,61.2c0.2-0.7,0.3-1.4,0.2-2.1c0-0.1,0.1-0.2,0.3-0.3s0.2,0.1,0.3,0.2c0.2,0.7,0.4,1.4,0.5,2.1
			c0.3,1,0.1,2,0.3,3c0.1,0.4,0,1.2-0.5,1.2c-0.7,0.1-0.4-0.7-0.4-1.2c0-0.7-0.1-1.4-0.3-2.1C19.2,61.8,19.1,61.5,19,61.2z"/>
		<path class="st1" d="M78.8,59.3c-0.2,0.9-0.3,1.8-0.3,2.7c-0.1,0.4-0.3,0.9-0.1,1.3c0.1,0.2,0,0.4-0.1,0.5c-0.1,0-0.1,0-0.2,0
			c-0.3,0-0.6,0-0.6-0.4c0.1-1.4-0.5-2.9,0.2-4.3c0-0.1,0-0.2,0.1-0.3c0.1-0.3,0.3-0.5,0.7-0.4S78.8,58.9,78.8,59.3z"/>
		<path class="st1" d="M17.1,9.8c0-1,0-2.1-0.2-3.1c-0.1-0.2,0-0.4,0.1-0.6C17.1,6,17.1,6,17.2,5.9c0.1,0,0.3,0,0.3,0.2l0,0
			c0.1,0.8,0.2,1.6,0.3,2.4c0,0.7,0.1,1.4,0.2,2.1c0.1,0.6,0,1.2-0.3,1.8c0,0.2-0.2,0.3-0.4,0.3c-0.2,0-0.3-0.3-0.3-0.4
			C17.1,11.5,17.1,10.7,17.1,9.8z"/>
		<path class="st1" d="M76.9,88.2c0-0.8,0.2-1.6,0.4-2.4c0-0.3,0.3-0.5,0.5-0.4h0.1c0.3,0.1,0.3,0.3,0.3,0.6
			c-0.1,1.3-0.2,2.6-0.3,3.9c0,0.3-0.2,0.6-0.6,0.5c-0.2-0.1-0.4-0.3-0.4-0.6C77,89.4,76.9,89,76.9,88.2z"/>
		<path class="st1" d="M77.5,35.4c-0.1-0.7,0.3-1.7,0.3-2.7c0-0.3,0.2-0.5,0.4-0.6c0.3-0.2,0.5-0.1,0.5,0.2c0.1,0.5,0.1,1,0.1,1.5
			c-0.1,0.9-0.3,1.8-0.5,2.7c-0.1,0.3-0.2,0.5-0.4,0.5s-0.3-0.3-0.3-0.6S77.5,35.9,77.5,35.4z"/>
		<path class="st1" d="M80.3,7.6c0.2-1.1,0.3-2.1,0.5-3.1C80.9,4.2,81,3.9,81.3,4c0.4,0.1,0.6,0.4,0.5,0.8c0,0.1,0,0.2,0,0.3
			c-0.3,0.9-0.4,1.8-0.5,2.7c0,0.4-0.1,0.8-0.5,0.7S80.3,7.9,80.3,7.6z"/>
		<path class="st1" d="M20.6,83.8c0,0.8,0,1.5,0.1,2.3c0,0.1,0,0.3-0.1,0.4c-0.1,0-0.3,0-0.4-0.1s-0.3-0.2-0.3-0.3
			c0-1.3-0.6-2.7,0-4c0.1-0.1,0.2-0.3,0.3-0.3c0.2,0,0.4,0.2,0.4,0.4l0,0C20.6,82.8,20.6,83.5,20.6,83.8z"/>
	</g>
</g>
<g id="Layer_5">
	<g id="Layer_1-2">
		<path class="st2" d="M9.5,83.2c0.8,0.1,1.6,0.3,2.3,0.7c0.4,0.2,0.4,0.9,0.7,1.3c0.9,1.2,0.4,2.3-0.1,3.4
			c-0.1,0.2-0.2,0.3-0.3,0.5c-1.4,0.8-2.8,1.5-4.4,0.6c-0.7-0.4-1.2-1.1-1.3-1.9c-0.1-0.7-0.2-1.4-0.1-2.1c0.1-0.8,0.6-1.5,1.3-1.9
			C8.1,83.4,8.8,83.2,9.5,83.2z"/>
		<path class="st2" d="M9.3,66.1c-2.1,0.3-3-2.2-2.3-4.1c0.2-0.5,0.6-0.9,1.1-1.1c0.4-0.1,0.8-0.4,1-0.8c0.8-1.3,1.9-0.8,2.9-0.7
			c1,0.3,1.7,1.2,1.6,2.2c0.1,0.7,0,1.4-0.2,2c-0.3,0.8-0.9,1.4-1.6,1.8C10.9,65.9,10.1,66.1,9.3,66.1z"/>
		<path class="st2" d="M8.3,38.6C5.7,38.5,4.7,36.5,6,34c0.9-1.6,1.4-2.1,3.3-1.3l0.5,0.2c1.2,0.5,1.8,1.9,1.3,3.1
			c-0.2,0.6-0.4,1.1-0.8,1.6C9.6,38.5,9.5,38.6,8.3,38.6z"/>
		<path class="st2" d="M4.4,8.8c0.1-1.3,0.7-2.5,1.7-3.3C6.6,5.1,7.5,5.1,8,5.7C8.1,5.8,8.2,6,8.2,6.2c0.3,0.8,0.7,1.6,1,2.4
			c0.1,0.2,0.1,0.4,0,0.6c-0.1,0.9-0.4,1.7-0.8,2.5C7.8,12.9,7.1,13,6,12.2C4.9,11.5,4.3,10.2,4.4,8.8z"/>
		<path class="st2" d="M30,12.2c-0.3,0-0.5-0.1-0.8-0.1c-0.8-0.3-0.9-0.6-0.9-1.6c0-1.1,0.3-2.2,0.9-3.2c0.3-0.6,0.9-1.2,1.5-1.4
			c1.1-0.4,2.3,0.2,2.6,1.3c0,0.1,0.1,0.2,0.1,0.3C34,9.6,32.6,12.4,30,12.2z"/>
		<path class="st2" d="M70.3,60c0,0.8-0.2,1.6-0.6,2.3c-0.7,1-2.1,1.4-3.1,0.7c0,0-0.1,0-0.1-0.1c-1.1-0.7-1.7-2.1-1.3-3.4
			c0.1-0.6,0.4-1.1,0.8-1.6c0.5-0.8,1.4-1.2,2.3-1c1,0.2,1.7,1,1.9,2C70.2,59.3,70.2,59.7,70.3,60z"/>
		<path class="st2" d="M73.6,6.7c0,0.6-0.1,1.1-0.2,1.7c-0.4,0.9-0.7,1.9-1.7,2c-1.2,0.2-2.3-0.3-3-1.3c-0.2-0.3-0.3-0.7-0.2-1.2
			c0.1-0.7,0.2-1.4,0.3-2.1c0.1-0.3,0.3-0.5,0.6-0.6c0.9-0.4,1.8-0.8,2.7-1c0.3-0.1,0.6,0.1,0.8,0.4C73.4,5.1,73.7,5.9,73.6,6.7z"/>
		<path class="st2" d="M36.3,61c0.2,1.2-1,2-1.6,3c-0.1,0.1-0.2,0.1-0.4,0.1c-1.5,0.1-2.9-1-3-2.5c0-0.1,0-0.2,0-0.3
			c0-1.1,0.3-2.2,0.8-3.2c0.1-0.2,0.2-0.4,0.4-0.4C34.7,57.6,36.2,58.1,36.3,61z"/>
		<path class="st2" d="M91.2,60.4c0.1,0.9-0.1,1.7-0.5,2.5c-0.7,1.1-2.2,1.4-3.3,0.8c-1.1-0.6-1.5-2-1.1-3.1
			c0.2-0.7,0.5-1.3,0.9-1.9c0.6-0.6,1.1-1.1,2-0.6c0.2,0.1,0.5,0.1,0.7,0.1c1,0.1,1.3,0.4,1.3,1.5C91.3,59.9,91.2,60.1,91.2,60.4z"
			/>
		<path class="st2" d="M89.6,8.3c0.1-1.3,0.9-2.5,2-3.3c0.7-0.3,1.5-0.3,2.1,0.2c0.6,0.3,1,1,1.1,1.7c0.1,1.3-0.4,2.6-1.4,3.5
			c-0.8,0.6-1.8,0.7-2.7,0.3C90,10.4,89.6,9.6,89.6,8.3z"/>
		<path class="st2" d="M33.6,34.7c0,0.2,0,0.4,0,0.6c-0.1,0.4-0.3,0.5-0.6,0.2c-0.1-0.1-0.3-0.2-0.5-0.3s-0.5,0.1-0.6,0.3
			S31.8,36,32,36.2c0.1,0.1,0.3,0.3,0.4,0.5c0.1,0.1,0.1,0.3,0,0.5c0,0,0,0-0.1,0c-1.2,0.6-2.7,0.4-3.7-0.5
			c-0.1-0.1-0.3-0.4-0.3-0.5c0.3-1.2,0.1-2.6,1-3.6c0.8-0.8,1.9-1.1,3-0.8C33.1,32.2,33.6,33.2,33.6,34.7z"/>
		<path class="st2" d="M33.7,89c-1,0-1.9-0.7-2.1-1.6c-0.1-0.2-0.1-0.4,0-0.6c0.3-1.6,1.3-3,2.7-3.9c0.6-0.3,1.3-0.1,1.7,0.3
			c0.3,0.4,0.6,0.9,0.8,1.4c0.2,0.4,0.1,0.9-0.1,1.3c-0.3,0.7-0.7,1.4-1.2,2.1C35.1,88.7,34.4,89.1,33.7,89z"/>
		<path class="st2" d="M92.6,33.5c-0.2,3.2-2.5,3.8-4.6,2.8c-0.4-0.2-0.7-0.6-0.7-1.1s0-1,0.1-1.5c0.3-1,0.6-1.2,1.5-1.2
			s0.8,0.1,0.9-0.8c0-0.2,0-0.3,0-0.5c0-0.4,0.4-0.6,0.7-0.6h0.1C92.1,31,92.7,31.9,92.6,33.5z"/>
		<path class="st2" d="M92.3,89.4c0.2,0.7-0.3,1.1-0.7,1.6C91,91.9,90,92.4,89,92.4c-1-0.1-1.3-0.6-1.3-1.8
			c-0.1-1.4,0.5-2.7,1.4-3.7c1.1-1,2-0.9,2.7,0.5C92.2,88.1,92.4,88.8,92.3,89.4z"/>
		<path class="st2" d="M67.8,35.2c-0.2,0-0.5-0.1-0.7-0.1c-0.8-0.2-1.7-0.4-1.5-1.7c-0.6-0.8-0.1-1.5,0.2-2.2c0.3-0.7,1-1.1,1.8-1
			c0.2,0,0.5,0,0.7,0c0.3,0,0.6-0.4,0.9-0.1c0.4,0.3,0.7,0.6,0.8,1.1c0.1,0.4,0.2,0.9,0.3,1.3c0.3,1.2-0.5,2.3-1.7,2.6
			C68.4,35.2,68.1,35.2,67.8,35.2z"/>
		<path class="st2" d="M68,90.2c-0.2,0-0.5,0-0.7,0c-0.8-0.2-1.1-0.6-1.2-1.6c0-0.9,0.3-1.8,0.9-2.6c0.6-0.9,1.5-0.7,2.2-0.9
			c0.1,0,0.2,0.1,0.3,0.2c0.7,0.8,1,2,0.7,3.1C70.1,89.5,69.1,90.2,68,90.2z"/>
		<path class="st2" d="M18.9,74.4c-0.8-0.4-1.5,0.1-2.3,0.2c-0.2,0.1-0.3,0.1-0.5,0.1c-0.1,0-0.2-0.2-0.3-0.3
			c-0.1-0.1,0-0.3,0.1-0.4c0.2-0.2,0.5-0.3,0.8-0.3c2.2-0.3,4.4-1.1,6.6-1.4c0.8-0.2,1.6-0.4,2.4-0.6c1.3-0.2,2.5-0.2,3.8-0.1
			c0.1,0,0.1,0.1,0.2,0.2c0,0.1,0,0.2-0.1,0.3c-0.2,0.1-0.4,0.3-0.6,0.3c-2.3,0.4-4.6,0.8-6.9,1.3c-0.9,0-1.7,0.3-2.5,0.7
			C19.4,74.4,19.1,74.4,18.9,74.4z"/>
		<path class="st2" d="M19.8,47c1.7-0.4,3.7-0.2,5.6-0.7c0.6-0.1,1.2-0.1,1.8,0c0.1,0,0.3,0.1,0.3,0.3l0,0c0,0.2,0,0.4-0.2,0.4
			c-0.9,0-1.6,0.8-2.6,0.6c-1.3-0.1-2.7,0.1-3.9,0.5c-0.4,0.1-0.7,0.1-1.1,0.2c-1.4,0-2.7,0.2-4,0.7c-0.4,0.1-0.7,0-1.1-0.1
			c-0.4-0.1-0.5-0.4-0.1-0.8s0.5-0.7,0.9-0.6C16.8,47.5,18.2,46.7,19.8,47z"/>
		<path class="st2" d="M14.4,19.6h-1.1c-0.1,0-0.3-0.1-0.3-0.3c0-0.2,0-0.3,0.2-0.4c0.1,0,0.2-0.1,0.2-0.1c1,0,2-0.2,2.9-0.5
			c1.2-0.2,2.5-0.2,3.7-0.4c1.5-0.3,3-0.5,4.5-0.7c0.5,0,0.9,0,1.4,0c0.1,0,0.1,0.1,0.2,0.2s0,0.3-0.1,0.4S25.8,18,25.6,18
			c-1.5,0.2-3.1,0.5-4.6,0.6s-3.2,0.5-4.9,0.8C15.5,19.6,15,19.6,14.4,19.6z"/>
		<path class="st2" d="M78.1,17.9c0.6,0,1.2,0,1.8-0.2c0.1,0,0.2-0.1,0.3,0c1.3,0.3,2.6-0.1,3.9,0.2c0.5,0.1,1.1,0.1,1.6,0.1
			c0.1,0,0.2,0.1,0.2,0.2c0,0,0,0,0,0.1s-0.1,0.3-0.2,0.4s-0.2,0.1-0.4,0.1c-1.2-0.1-2.3,0.3-3.5,0.1c-0.6-0.1-1.2,0.3-1.9,0.3
			c-1.2-0.1-2.5-0.1-3.7,0.2c-0.3,0.1-0.4-0.2-0.4-0.5s0-0.9,0.5-0.9S77.3,17.9,78.1,17.9z"/>
		<path class="st2" d="M79.7,45.1c0.9,0,1.7,0,2.6,0c0.2,0,0.4,0.1,0.4,0.3l0,0c0,0.3-0.1,0.5-0.3,0.6c-0.2,0.1-0.3,0.1-0.5,0.1
			c-2.2,0.1-4.4,0.2-6.7,0.3c-0.4,0-1,0.2-1.2-0.5c-0.1-0.4,0.3-0.7,1.2-0.7C76.7,45.5,78.2,44.9,79.7,45.1z"/>
		<path class="st2" d="M79.1,75.7c-1.1,0-2.3,0-3.4,0c-0.3,0-0.5,0-0.8-0.1c-0.2,0-0.3-0.2-0.3-0.4c0-0.3,0.1-0.5,0.4-0.5
			c0.1,0,0.3,0,0.4,0c1.1,0,2.3-0.3,3.4,0.2c0.2,0.1,0.5,0,0.7-0.1s0.4-0.1,0.7-0.1c1.2,0.1,2.3,0.2,3.5,0.2c0.2,0,0.2,0.1,0.2,0.3
			c0,0.2,0,0.4-0.2,0.6S83.2,76,82.9,76C81.6,75.7,80.4,75.7,79.1,75.7L79.1,75.7z"/>
	</g>
</g>
<g id="Layer_3_1_">
	<g id="Layer_3">
		<path class="st3" d="M64,13.9c0.3-2.8,0.5-5.5,0.5-8.3c0-1.6-0.3-1.9-1.7-1.6c-0.1,0-0.3,0.1-0.4,0.1c-1.2,0.1-2.4,0.3-3.5-0.3
			c-0.2-0.1-0.4-0.2-0.7-0.1c-0.7,0.2-1.3,0.2-2,0.2C54,4,51.8,3.7,49.6,4.2c-0.4,0.1-0.8,0.1-1.2,0c-0.8-0.3-1.7-0.3-2.4,0.1
			c-0.7,0.2-1.5,0.3-2.3,0.3c-1.1,0-2.1,0.3-3.1,0.6c-0.3,0.1-0.5,0.4-0.5,0.7c0,0.1,0.1,0.2,0.1,0.3c0.2,0.3,0.4,0.7,0.3,1.2
			c-0.1,2.7,0.4,5.3,0.3,8c0,1.3,0.5,2.6,0.1,4c0.4,1,0.1,2,0.2,3c0.1,1.2,0,2.4-0.2,3.5c-0.1,0.1-0.1,0.3,0,0.5
			c0.2,1,0.3,2,0.2,3.1c0,1.4-0.1,2.8,0,4.3c0.1,1.8,0.1,3.6-0.2,5.4c-0.1,0.5-0.4,1.1-0.2,1.7c0.2,1.3,0.3,2.5,0.2,3.8
			c-0.1,1.6,0,3.2,0.1,4.8c0.3,2.2,0.2,4.4,0.4,6.6c0.2,1.4,0.3,2.8,0.4,4.1c0.2,1.9,0.2,3.9,0.4,5.8c0.2,1.4,0,2.9,0,4.3
			c0,1-0.2,2.1-0.1,3c0.1,1,0.1,1.9,0.1,2.9c-0.1,1.2-0.7,2.4-0.3,3.8c-0.3,1.2-0.4,2.4-0.5,3.7c-0.2,1.2-0.4,2.4-0.4,3.6
			c-0.1,1.2-0.3,2.4-0.6,3.6c-0.3,1.5-0.5,3-0.6,4.6c0,1.5,0.3,1.8,1.6,1.5c1.6-0.4,3.2-1.4,4.9-1.1h0.1c1.6-0.7,3.3-0.5,5-0.7
			c1.9-0.1,3.7-0.4,5.5-0.9c0.8-0.2,1.6-0.5,2.4-0.8c1-0.4,1.5-1.6,1.1-2.6c0,0,0-0.1-0.1-0.1c-0.2-0.5-0.3-1.1-0.2-1.7
			c0.1-4.6-0.2-9.2,0.2-13.7c0.2-2.7,0-5.3,0.3-8c0.1-1.2,0-2.5,0-3.7c0.1-1.2,0.1-2.4,0-3.7c-0.1-0.4,0-0.7,0.1-1.1
			c0.1-0.2,0.1-0.5,0-0.8c-0.2-0.7-0.2-1.4-0.2-2.1c-0.1-1,0.3-1.9,0.3-2.9c-0.1-2.4,0-4.7,0.2-7.1c0.2-1.8,0.4-3.7,0.4-5.6
			c0.1-2.3,0.5-4.7,0.7-7c0.1-0.6,0.2-1.2,0.3-1.8c0.1-1.2,0.2-2.4,0.4-3.6c0.2-0.7,0.4-1.4,0.5-2.2c-0.1-1.9,0.3-3.7,0.4-5.5
			c0-0.9,0.5-1.8,0.3-2.7C63.8,16.2,63.8,15.1,64,13.9z M55.4,75.8c-0.2,0-0.2-0.1-0.2-0.3s0-0.5,0.2-0.5s0.3,0.2,0.3,0.4
			S55.5,75.8,55.4,75.8L55.4,75.8z M59.8,64.7c-0.1,0.1-0.2,0-0.2-0.1s0-0.2,0.1-0.2c0.1-0.1,0.2,0,0.2,0.1
			C59.9,64.5,59.9,64.6,59.8,64.7z"/>
	</g>
</g>
</svg>
