<?xml version="1.0" encoding="utf-8"?>
<!-- Generator: Adobe Illustrator 24.1.0, SVG Export Plug-In . SVG Version: 6.00 Build 0)  -->
<svg version="1.1" id="Layer_1" xmlns="http://www.w3.org/2000/svg" xmlns:xlink="http://www.w3.org/1999/xlink" x="0px" y="0px"
	 viewBox="0 0 100 100" style="enable-background:new 0 0 100 100;" xml:space="preserve">
<style type="text/css">
	.st0{fill:#020202;}
	.st1{opacity:0.94;fill:#7C7C7C;enable-background:new    ;}
	.st2{opacity:0.94;fill:#2B2B2B;enable-background:new    ;}
</style>
<g id="Layer_5">
	<g id="Layer_6">
		<path class="st0" d="M95,55.8c-0.9-1.3-1.8-2.7-2.7-4.1c-0.3-0.5-0.7-1.1-1-1.6c-0.7-0.9-1.4-1.8-1.8-2.9
			c-0.1-0.4-0.4-0.8-0.8-1.1c-0.3-0.2-0.5-0.4-0.7-0.7c-1-1.7-2.6-3.1-3.5-4.9c-0.1-0.1-0.2-0.2-0.3-0.3c-0.8-1-0.8-1-1.8-0.1
			c-0.3,0.2-0.5,0.5-0.8,0.8c-1.7,2-3.7,3.7-5.8,5.1c-0.5,0.3-0.9,0.7-1.2,1.1c-0.2,0.3-0.5,0.6-0.8,0.9l-5.1,4.6
			c-0.3,0.3-0.6,0.5-1,0.6c-0.9,0.1-1.6,0.7-2,1.5c-0.2,0.4-0.6,0.8-0.9,1.2c-1.2,1-2.4,2-3.5,3c-1.6,1.4-3.4,2.5-5,3.9
			c-0.4,0.3-0.9,0.5-1.4,0.8c-0.8,0.7-1.4,1.5-2.2,2.2c-1.9,1.7-3.8,3.4-5.7,5.1c-0.4,0.3-0.8,0.6-1.3,0.7c-0.9,0.2-1.6,0.9-1.9,1.8
			c0,0.2-0.2,0.4-0.3,0.6c-0.8,0.7-1.8,1.4-2.5,2.2c-0.2,0.2-0.5,0.3-0.7,0.4s-0.4,0.2-0.6,0.4c-0.6,0.8-1.3,1.4-2.1,1.9
			c-0.2,0.1-0.3,0.4-0.2,0.6c0,0.1,0.1,0.1,0.2,0.2c0.7,0.7,1.4,1.3,2.1,1.9c1.5,1.3,2.9,2.6,4.3,4c0.9,1.1,1.9,2.1,2.9,3.1
			c0.9,0.7,1.6,1.6,2.3,2.5c0.6,0.8,1.6,1,2.1,1.8c0.1,0.1,0.2,0.1,0.3,0.1c0.3,0,0.6-0.1,0.8-0.3c0.4-0.3,0.8-0.7,1.2-1
			c0.9-1.1,1.9-2.1,2.8-3.2s2-1.9,3-3c1.2-1.4,2.6-2.5,3.9-3.8c2-2.1,4.4-3.7,6.5-5.7c0.1-0.1,0.2-0.2,0.3-0.3
			c2.1-1.3,3.9-3,5.9-4.4c1.6-1.2,3-2.5,4.6-3.6c1.2-0.8,2.3-1.9,3.8-2.3c1.2-1,2.5-1.8,3.8-2.6c0.4-0.4,0.9-0.7,1.5-1
			c0.9-0.4,1.7-0.9,2.5-1.6c0.8-0.5,1.6-1,2.3-1.7C95.9,57.9,96,57.2,95,55.8z M79.2,47.1c-0.2,0-0.3-0.2-0.3-0.4s0.1-0.4,0.3-0.4
			l0,0c0.2,0,0.3,0.2,0.3,0.4C79.5,46.9,79.4,47.1,79.2,47.1L79.2,47.1z"/>
		<path class="st0" d="M65.2,19.5c-0.4-0.4-0.7-0.8-1.1-1.2c-1.7-2-3.8-3.7-5-6.1c-0.1-0.2-0.3-0.4-0.5-0.5l-3.4-3.2
			c-0.3-0.3-0.5-0.5-0.8-0.7c-0.8-0.6-1.3-0.6-1.9,0.1c-0.7,0.6-1.3,1.3-1.9,2c-1.1,1.7-2.8,2.7-3.9,4.3c-0.4,0.6-0.9,1.1-1.5,1.6
			c-0.6,0.5-0.8,1.3-1.5,1.6s-0.8,1.1-1.3,1.6c-1.8,1.7-3.3,3.6-5,5.4c-2,2-3.9,4-5.9,5.9c-0.6,0.4-1.2,0.9-1.8,1.4
			c-1.5,1.6-3.1,3.1-4.9,4.4c-2.1,1.7-4.1,3.5-6.3,5c-1.4,0.9-2.7,2-4,3c-0.2,0.1-0.4,0.2-0.5,0.4c-0.9,1.1-2.3,1.6-3.3,2.6
			c-1.2,0.2-1.6,1.4-2.4,2.1c-0.5,0.3-0.6,0.9-0.4,1.4c0,0.1,0.1,0.1,0.1,0.2c0.7,0.8,1.2,1.8,2.1,2.3c0-0.4,0.1-0.7,0.1-1.1
			c0.1-0.3,0.5-0.3,0.7-0.1s0.3,0.5,0.2,0.7c-0.2,0.5-0.6,0.5-1,0.4c0.5,0.7,1.1,1.3,1.7,1.9c1.2,1.1,2.3,2.2,3.4,3.4
			c1.8,1.8,3.5,3.6,5.2,5.4c0.1,0.1,0.1,0.1,0.2,0.2c0.2,0.2,0.5,0.3,0.7,0.1l0.1-0.1c2-1.8,4-3.6,5.8-5.6c1.2-1.3,2.5-2.5,3.6-3.9
			c0.9-1.1,1.9-2.2,2.9-3.3c1-1.4,2.2-2.7,3.5-3.8c0.9-0.7,2-1.3,2.4-2.5c0.2-0.5,0.6-0.9,1-1.2s0.7-0.6,1-0.9
			c1.8-2.1,4-3.9,5.9-5.9c1.1-1.2,2.6-2,3.6-3.3c0.3-0.4,0.6-0.8,1-1.1c1.7-1.6,3.2-3.3,5-4.8c0.9-0.8,1.9-1.5,3-2
			c0.6-0.2,1-0.7,1.2-1.2c0.1-0.4,0.4-0.8,0.7-1c1.1-0.9,1.9-2.1,3-3C65.4,20.2,65.5,19.8,65.2,19.5C65.3,19.5,65.2,19.5,65.2,19.5z
			 M33.4,32.2c0.2,0,0.2,0.3,0.2,0.5s0,0.4-0.3,0.4s-0.2-0.2-0.2-0.4S33.1,32.2,33.4,32.2z M26,38.5c0.4,0,0.4,0.4,0.4,0.7
			s-0.1,0.5-0.4,0.5c-0.3-0.1-0.4-0.4-0.4-0.6C25.7,38.7,25.8,38.5,26,38.5z M28,45.2c-0.2,0-0.3-0.1-0.4-0.3c0-0.1,0.1-0.3,0.3-0.3
			c0.2,0,0.3,0.2,0.3,0.4C28.3,45,28.2,45.2,28,45.2C28.1,45.2,28,45.2,28,45.2z M28.5,35c-0.3-0.1-0.5-0.3-0.4-0.6
			c0-0.2,0.2-0.3,0.3-0.3c0.4,0,0.4,0.2,0.4,0.5S28.8,35.1,28.5,35z M30.4,45.3c-0.2,0-0.3-0.1-0.4-0.3c0-0.2,0.1-0.4,0.3-0.4h0.1
			c0.2,0,0.3,0.1,0.3,0.3l0,0C30.8,45.2,30.6,45.3,30.4,45.3L30.4,45.3z M31.6,49.8c0,0.2,0,0.4-0.3,0.4s-0.2-0.2-0.2-0.4
			s0-0.5,0.4-0.4S31.7,49.7,31.6,49.8L31.6,49.8z M52.1,28.4c-0.2,0-0.2-0.3-0.2-0.5s0-0.4,0.3-0.4s0.2,0.2,0.2,0.4
			S52.5,28.6,52.1,28.4L52.1,28.4z M54.9,24.4c-0.3,0-0.3-0.2-0.3-0.3c0-0.1,0.1-0.2,0.2-0.2l0,0c0.2,0,0.2,0.1,0.2,0.4
			C55.1,24.3,55,24.5,54.9,24.4L54.9,24.4z M57.4,25.4c-0.2,0-0.4-0.3-0.3-0.5c0-0.3,0.2-0.6,0.5-0.6c0,0,0,0,0.1,0
			c0.3,0,0.4,0.2,0.5,0.4S57.7,25.5,57.4,25.4L57.4,25.4z"/>
	</g>
</g>
<g id="Layer_4_1_">
	<g id="Layer_2-2">
		<path class="st1" d="M13.2,20.1c-0.5,0-1.2-0.1-1.9,0c-1.5,0-2.8-1-3-2.5c-0.2-0.9,0-1.9,0.6-2.7c0-0.1,0.1-0.2,0.1-0.3
			c0.8-1.2,0.8-1.2-0.6-1.4s-2.6-1.3-2.8-2.7C5.3,9.2,5.5,7.9,6.1,6.7C6.4,5.9,7.2,5.5,7.8,5c0.7-0.6,1.7-0.7,2.5-0.4
			c0.3,0.1,0.6,0.2,0.9,0.3c1.2,0.3,2.2,1.3,2.4,2.5c0,0.3,0.1,0.5,0.1,0.8c0.2,0.4-0.1,1.2,0.4,1.4c0.5,0.1,1,0,1.4-0.2
			c1.1-0.2,2.2-0.3,3.3-0.3c1.3,0.1,2.4,0.9,2.8,2.1c0.6,1.5,0.3,3.2-0.7,4.6c-0.7,1-0.7,1.1,0.5,1.1c2.2,0,4.5,0.6,6.4,1.7
			c0.4,0.3,0.8,0.6,1,1c0.9,1.4,0.5,2.8,0.4,4.2c-0.2,0.9-0.6,1.7-1.2,2.3c-0.4,0.5-0.9,0.9-1.4,1.3c-0.3,0.4-0.8,0.5-1.2,0.2
			c-0.4-0.2-0.7,0-1,0.2c-1.6,1.2-3.6,1.6-5.5,1.2c-1.1-0.2-2.2-0.7-3-1.4C15.2,27,14.7,26,14.8,25c0-1.3,0.3-2.6,1-3.8
			c0.4-0.6,0.3-0.9-0.5-1S14,20.1,13.2,20.1z M28.4,21.8c0-0.4-0.3-0.7-0.7-0.7c-0.3,0-0.6,0.2-0.6,0.6s0.2,0.7,0.6,0.7l0,0
			C28,22.5,28.3,22.2,28.4,21.8z M26.6,24.1c0-0.2-0.2-0.4-0.4-0.5c-0.3,0-0.4,0.2-0.5,0.5s0.1,0.4,0.4,0.4
			C26.3,24.5,26.5,24.4,26.6,24.1L26.6,24.1z"/>
		<path class="st1" d="M88.7,84.3c1.2,0,2.4,0.2,3.5,0.7c1.2,0.4,1.8,1.7,1.4,2.9c0,0.1-0.1,0.2-0.1,0.3c-0.5,1-1.2,1.9-2.2,2.5
			c-1.1,0.7-2.3,1.2-3.6,1.5c-1.3,0.3-2.7-0.2-3.5-1.3c-0.5-0.7-0.8-1.5-0.8-2.3c0-0.1,0-0.3,0-0.4c0-0.6-0.3-0.8-0.8-0.5
			c-0.7,0.4-1.5,0.7-2.3,0.7c-0.6,0.1-1.3,0-1.9-0.2c-0.8-0.2-1.4-0.9-1.5-1.8c-0.3-1-0.3-2.1,0-3.1c0.1-0.4-0.1-0.5-0.4-0.5
			s-0.8-0.1-1.2-0.1c-1.1,0-2.1-0.8-2.4-1.9c-0.4-1.3-0.3-2.7,0.4-3.8c0.6-1.3,1.6-2.4,2.9-3.2c0.1,0,0.2-0.1,0.2-0.1
			c0.6-0.1,0.6-1,1.2-1c0.5,0,0.9,0.4,1.5,0.1c0.4-0.2,0.7,0.1,0.9,0.4c0.4,0.6,0.9,1.3,1.3,1.9c0.6,0.9,0.6,2,0,2.8
			c-0.1,0.2-0.2,0.3,0,0.5c0.1,0.1,0.3,0.1,0.4,0c0.6-0.3,1.2-0.5,1.8-0.5c1.9-0.1,3.6,1.2,4,3c0.1,0.9,0,1.7-0.2,2.6
			c-0.2,0.7-0.2,0.7,0.6,0.6C88.1,84.2,88.4,84.2,88.7,84.3z"/>
		<path class="st1" d="M53.3,61.3c0,0.3-1,1.2-1.2,1.1c-0.1,0-0.2-0.1-0.3-0.2c-0.8-1-1.8-1.9-2.7-2.7c-1.1-1-2.1-2.1-3.3-3
			c-0.6-0.5-1.1-1.1-1.5-1.7c-0.4-0.5-0.8-1-1.4-1.2c-0.5-0.2-0.8-0.6-1-1.1s-0.5-0.9-0.9-1.2c-0.9-0.7-0.9-1.1-0.1-1.8
			c0.2-0.2,0.3-0.3,0.5-0.5c0.4-0.4,0.6-0.3,1,0c0.6,0.7,1.4,1,1.6,2c1.4,1.2,2.2,2.9,3.8,3.9c0.4,0.3,0.5,0.8,0.9,1.2
			c0.8,0.9,1.7,1.8,2.5,2.7c0.7,0.7,1.3,1.5,1.9,2.3C53.2,61.1,53.2,61.2,53.3,61.3z"/>
		<path class="st1" d="M74,42c0,0.3-0.3,0.5-0.5,0.7c-1.1,1-1.1,1-1.9-0.2c-0.9-1.3-1.9-2.7-2.9-4S67,36,66.2,34.7
			c-1.1-1.7-2.2-3.3-3.4-4.9c-0.2-0.3-0.3-0.5-0.5-0.8c-0.2-0.2-0.2-0.5,0-0.7l0,0l0.3-0.3c0.9-0.8,0.8-0.8,1.5,0.3
			c0.7,1.1,1.5,2.2,2.3,3.2c1.2,1.5,2.3,3.1,3.4,4.7s2.2,2.9,3.2,4.4c0.3,0.4,0.5,0.8,0.8,1.1C73.9,41.8,73.9,41.9,74,42z M65.1,31
			c-0.2-0.1-0.3,0-0.3,0.2c-0.1,0.1,0,0.3,0.1,0.4s0.2,0,0.3,0l0,0C65.3,31.3,65.2,31.1,65.1,31z"/>
		<path class="st1" d="M54,36.8c0.1,0.1,0.3,0.2,0.3,0.4c0.3,0.7,0.8,1.2,1.4,1.6c0.4,0.3,0.3,0.8,0.6,1.2c0.8,1.2,1.7,2.3,2.8,3.4
			c0.1,0.1,0.2,0.3,0.3,0.4c1,1.6,2.2,3.1,3.7,4.3c0.2,0.2,0.4,0.4,0.4,0.7c0.1,0.3,0.3,0.7,0.6,0.9c0.2,0.3,0.7,0.5,0.6,0.8
			c-0.2,0.5-0.6,0.8-1.1,1c-0.5,0.1-0.8-0.2-1.1-0.6c-0.2-0.3-0.4-0.7-0.6-1c-0.6-1.1-1.4-2.1-2.2-3.1c-1.1-1.5-2.3-3-3.6-4.4
			c-1.3-1.3-2.4-2.7-3.4-4.2c-0.1-0.1-0.2-0.2-0.1-0.4c0.4-0.5,0.8-0.9,1.3-1.2C53.8,36.8,53.9,36.8,54,36.8z"/>
		<path class="st1" d="M43.5,70.2c-0.1,0.4-0.5,0.6-0.8,0.8s-0.6-0.1-0.8-0.3c-1.4-1.5-2.8-3.1-4.2-4.7c-1.1-1.3-2.2-2.5-3.5-3.7
			c-0.1-0.1-0.2-0.3-0.3-0.4c-0.6-1-1.4-1.8-2.4-2.4c-0.2-0.1-0.3-0.3-0.2-0.5c0-0.1,0.1-0.1,0.1-0.1c0.2-0.2,0.4-0.4,0.6-0.6
			c0.3-0.3,0.5-0.2,0.8,0.1c0.7,0.7,1.4,1.3,2,2.1c1.1,1.5,2.6,2.5,3.7,4c0.7,0.9,1.5,1.8,2.3,2.5c0.9,0.8,1.5,1.8,2.3,2.6
			C43.3,69.8,43.5,70,43.5,70.2z"/>
	</g>
</g>
<g id="Layer_3">
	<g id="Layer_4">
		<path class="st2" d="M26.9,79.6c-0.4,1-1,2-1.5,3c-1.3,1.5-3,2.6-4.9,3.3C20.3,86,20.1,86,19.8,86c-1.6-0.3-3.2-0.7-4.7-1.2
			c-0.2-0.1-0.4-0.2-0.6-0.3c-1.1-0.9-2.1-1.8-2.2-3.4c0-0.2-0.1-0.4-0.2-0.7c-0.4-2.2,0.2-4.5,1.7-6.2c0.3-0.5,0.7-0.8,1.2-1.1
			c1.4-0.7,2.9-1.3,4.3-1.9c0.3-0.1,0.5-0.1,0.8,0c1.5,0.5,2.9,1.3,4.3,2.1c0.6,0.4,0.9,1.2,1.3,1.7C26.8,76.3,26.6,77.9,26.9,79.6z
			"/>
		<path class="st2" d="M85.4,28.6c-1.9,0-3.8-0.6-5.4-1.8c-0.6-0.5-1-1.1-1.3-1.8c-0.5-1.1-0.6-2.3-0.1-3.4c0.2-0.4,0.2-0.9,0.3-1.3
			s0.3-0.2,0.5-0.1c0.2,0.2,0.6,0.1,0.7-0.1l0,0c0.2-0.2,0.2-0.5,0-0.6L80,19.4c-0.6-0.5-0.3-0.9,0.1-1.4c0.9-1,1.8-1.9,2.9-2.7
			c0.1-0.1,0.2-0.2,0.4-0.2c1.7,0,3.5-0.3,4.9,1.2c0.3,0.3,0.7,0.5,1.1,0.6c1.9,0.6,3,2.4,2.8,4.3c0,0.5,0,0.9-0.1,1.4
			c-0.2,2.7-2,5-4.5,5.9C86.8,28.8,86.2,28.5,85.4,28.6z"/>
	</g>
</g>
</svg>
