<?xml version="1.0" encoding="utf-8"?>
<!-- Generator: Adobe Illustrator 24.1.0, SVG Export Plug-In . SVG Version: 6.00 Build 0)  -->
<svg version="1.1" xmlns="http://www.w3.org/2000/svg" xmlns:xlink="http://www.w3.org/1999/xlink" x="0px" y="0px"
	 viewBox="0 0 100 100" style="enable-background:new 0 0 100 100;" xml:space="preserve">
<style type="text/css">
	.st0{fill:#020202;}
	.st1{opacity:0.94;fill:#A5A5A5;enable-background:new    ;}
	.st2{opacity:0.94;fill:#7C7C7C;enable-background:new    ;}
	.st3{opacity:0.94;fill:#2B2B2B;enable-background:new    ;}
</style>
<g id="Layer_6_1_">
	<g id="Layer_6">
		<path class="st0" d="M32.8,53.9c-0.1-0.8-0.2-1.7-0.2-2.5c0-1.1,0.1-2.2,0.3-3.3c0.1-0.5,0.1-1.1,0.2-1.6c0.1-0.7-0.3-1.3-0.1-2
			c0.6-2.2,0.9-4.6,2-6.7c0.5-0.8,1-1.6,1.5-2.3c0.5-0.7,1.3-0.6,2-0.9c0.1,0,0.4,0.1,0.5,0.2c0.7,0.7,1.4,1.5,2,2.3
			c0.5,1,1.1,1.9,1.8,2.8c0.2,0.3,0.4,0.6,0.5,1c0.8,3,1.6,5.9,2.3,8.9c0.2,1,0.4,2.1,0.6,3.1c0,0.1,0,0.2,0,0.3
			c-0.2,3.8-0.7,7.4-2.6,10.7c-0.9,1.2-1.9,2.4-3.1,3.4c-0.1,0.1-0.2,0.1-0.2,0.2c-1.7-0.1-3.3-0.3-4.5-1.9c-0.6-0.7-1-1.4-1.2-2.3
			c-0.2-0.7-0.5-1.3-0.8-1.9c-0.2-0.4-0.4-0.9-0.4-1.4c0-1.4-0.2-2.9-0.5-4.3C32.8,55.3,32.8,54.6,32.8,53.9z"/>
		<path class="st0" d="M82.5,50.3c0-1.5-0.1-3.1,0-4.7c0.1-2.9,0.6-5.7,1.6-8.4c0.2-0.6,0.6-1.1,0.8-1.7c0.4-1.2,1.5-1.8,2.7-1.6
			c0.5,0.1,1.1-0.1,1.6-0.1c1,0.1,1.8,0.8,1.9,1.8c0.1,1.1,0.4,2.3,0.8,3.4c0.3,1,0.4,2.1,0.4,3.2c0.1,1,0.2,2,0.4,3
			c0.3,1.3,0.4,2.7,0.3,4.1c-0.2,1.4,0,2.9-0.1,4.3c-0.1,3.6-1.2,7-3,10.1c-0.4,0.6-0.8,1.1-1.3,1.5c-0.9,0.9-2.3,0.8-3.1,0
			c-0.2-0.2-0.4-0.5-0.5-0.8c-0.9-2-1.6-4-2-6.2c-0.4-1.3-0.6-2.6-0.6-3.9C82.5,52.9,82.4,51.6,82.5,50.3L82.5,50.3z"/>
	</g>
</g>
<g id="Layer_5">
	<g id="Layer_1-2">
		<path class="st1" d="M95.9,17.3c0.3,1.1-0.2,2.3-1.2,2.9c-0.3,0.2-0.6,0.4-0.8,0.6c-2.7,2-5.2,4.2-7.5,6.6
			c-0.2,0.2-0.4,0.4-0.6,0.5c-0.7,0.5-1.3,0.4-1.7-0.4c-0.9-1.7-2.1-3.3-3.4-4.8c-0.8-0.9-1.6-1.8-2.4-2.8c-0.3-0.4-0.7-0.8-1.1-1.1
			c-0.4-0.4-0.8-0.8-1.2-1.2c-0.6-0.6-0.7-1.6-0.1-2.3c1.2-1.7,2.5-3.2,4-4.6c1.2-1,2.2-2.1,3.1-3.3c0.1-0.2,0.3-0.2,0.5-0.3
			c0.9-0.5,1.5-1.2,1.9-2.2c0.1-0.4,0.5-0.7,0.9-0.6c0,0,0.1,0,0.1,0c0.8,0.2,1.7,0.2,2.2,1.1c0.1,0.2,0.3,0.4,0.5,0.5
			c3.1,1.9,4.8,5.1,6.2,8.5C95.8,15.4,96,16.3,95.9,17.3z"/>
		<path class="st1" d="M34.2,10.7c0-0.3,0.1-0.6,0.4-0.8c1.7-1.2,2.8-3.1,4.1-4.8c0.4-0.6,0.9-1.1,1.5-1.5c0.3-0.3,0.8-0.2,1.1,0.1
			c1.8,1.5,3.6,3.2,5.1,5c1.6,1.9,2.8,4,3.5,6.3c0.2,0.5,0.1,1.1-0.3,1.4c-2.2,2.5-4.1,5.4-6.5,7.8c-0.7,0.7-1.2,1.5-1.8,2.3
			c-0.1,0.3-0.4,0.5-0.7,0.6C40.3,27.4,40,28,39.4,28s-0.5-0.7-0.8-1s-0.5-0.6-0.8-0.9l-4.2-4.7c-1.3-1.5-2.4-3.3-3-5.3
			c-0.5-1-0.2-2.3,0.8-2.9C32.3,12.4,33,11.3,34.2,10.7c0.1,0.2,0.3,0.4,0.4,0.6s0.2,0.2,0.3,0.1c0.1-0.2,0.1-0.4-0.1-0.6
			C34.7,10.7,34.5,10.7,34.2,10.7z M39.2,16.3c-0.4,0.1-0.7,0.4-0.8,0.8c-0.1,0.3,0.2,0.6,0.5,0.6c0,0,0,0,0,0
			c0.5,0.1,0.6-0.3,0.6-0.7S39.6,16.5,39.2,16.3L39.2,16.3z"/>
		<path class="st1" d="M90.7,90.9c-0.6,1.5-1.4,2.9-2.3,4.2c-0.5,0.7-1.4,0.8-2.1,0.4c-0.1,0-0.1-0.1-0.2-0.1
			c-0.3-0.2-0.5-0.5-0.7-0.8c-1-1.1-2.1-2.2-3.3-3.1c-1.4-1.2-2.6-2.6-3.6-4.2c-0.3-0.5-0.5-1,0-1.6c0.3-0.3,0.5-0.7,0.6-1.1
			c0.1-0.5,0.5-1,0.9-1.2c0.4-0.2,0.6-0.7,0.8-1.1c1.2-2.2,2.6-4.1,3.9-6.2c0.5-0.6,0.8-1.3,0.9-2c0.1-1,1-0.9,1.5-1.3
			s0.8,0.1,1.2,0.4c2.1,1.7,4.4,3.2,6.4,5c0.6,0.5,1,1.1,1.3,1.8c0.4,0.8,0.4,1.8,0,2.6c-0.4,0.7-0.8,1.5-1.2,2.2
			c-1.3,1.8-2.5,3.7-3.5,5.7C91.1,90.6,90.9,90.7,90.7,90.9c0-0.3,0-0.6,0-0.9c0-0.2-0.1-0.3-0.3-0.2c-0.1,0.1-0.2,0.2-0.2,0.3
			C90.2,90.4,90.4,90.7,90.7,90.9z M82.9,89.6c-0.2,0-0.4,0.2-0.4,0.5c0,0,0,0,0,0.1c0,0.3,0.2,0.6,0.4,0.6s0.4-0.3,0.4-0.6
			C83.3,89.9,83.2,89.7,82.9,89.6C82.9,89.6,82.9,89.6,82.9,89.6z M88,94.2c0-0.2-0.1-0.4-0.3-0.3c-0.2,0-0.2,0.2-0.2,0.3
			c0,0.2,0.1,0.4,0.4,0.3S88,94.3,88,94.2z"/>
		<path class="st1" d="M30.4,83c0-0.8,0.4-1.6,1.1-2.1c1.2-1,2.4-2.1,3.4-3.3c0.4-0.4,0.9-0.6,1.3-1c0.5-0.5,0.9-1,1.3-1.6
			c0.6-1,1-0.9,1.9-0.2c1.7,1.4,3.1,3.2,5,4.5c1,0.7,1.5,2.1,2.5,2.9c0.2,0.2,0.1,0.3,0,0.5c-0.9,1.2-1.6,2.5-2.2,3.8
			c-0.6,1.2-1.2,2.3-2,3.3c-0.5,0.8-1,1.7-1.4,2.6c-0.2,0.4-0.4,0.8-0.7,1.2c-0.8,1-1.7,1-2.4-0.2c-0.3-0.4-0.6-0.8-1-1.2
			c-1.1-1.3-2.2-2.6-3.1-4c-0.7-1-1.5-1.9-2.3-2.9c-0.4-0.5-0.7-1-1.1-1.5C30.6,83.6,30.5,83.3,30.4,83z"/>
	</g>
</g>
<g id="Layer_4_1_">
	<g id="Layer_2-2">
		<path class="st2" d="M27.7,15.3c-0.1,0.6-0.4,1.2-1,1.5c-0.7,0.6-1.4,1.2-2,1.8c-2.7,2.4-5.1,5.2-7.1,8.3c-0.3,0.5-0.6,0.9-1,1.3
			c-0.4,0.5-1,0.6-1.5,0.2c-0.1-0.1-0.2-0.2-0.3-0.3c-2.1-2.4-4.3-4.6-6.7-6.7c-0.8-0.7-1.5-1.5-2-2.4c-0.8-1.4-0.8-2.1,0-3.4
			c0.5-0.7,1.1-1.4,1.8-1.9c1-0.8,1.9-1.7,2.6-2.8c0.3-0.3,0.6-0.6,0.9-0.8c1.1-0.8,2.1-1.8,2.8-3c0.2-0.3,0.4-0.5,0.6-0.7
			c0.8-0.6,1.5-1.4,2-2.3c0.5-1,1.3-1,1.9,0.1c0.5,0.8,1.1,1.5,1.8,2.1c0.3,0.4,0.6,0.8,0.9,1.2c1,1.4,1.7,3.1,3.3,3.9
			c0.7,1.2,2,1.9,2.8,3C27.7,14.7,27.7,15,27.7,15.3z M20.4,22c0-0.5-0.3-0.9-0.7-0.8C19.3,21.2,19,21.6,19,22
			c0,0.4,0.4,0.7,0.8,0.7c0,0,0,0,0,0C20.2,22.6,20.4,22.4,20.4,22z"/>
		<path class="st2" d="M74.2,15.2c0.1,0.5-0.1,1.1-0.6,1.4c-0.9,0.8-1.8,1.7-2.7,2.7c-1.5,1.9-3.2,3.6-4.6,5.6
			c-0.6,0.7-1.2,1.3-1.9,1.9c-0.7,0.8-2,0.9-2.8,0.1c0,0,0,0,0,0c-0.6-0.5-1.2-1.1-1.7-1.7c-1.1-1.5-2.4-2.8-3.7-4.1
			c-0.7-0.8-1.4-1.6-2-2.5c-0.8-1.1-0.6-2.6,0.4-3.4c0,0,0,0,0,0c1.1-1.3,2.1-2.6,3-4.1c0.5-0.8,1.2-1.5,1.8-2.2
			c0.8-0.9,1.6-1.9,2.2-2.9c0.2-0.3,0.5-0.7,0.8-1c0.3-0.4,0.7-0.5,1.2-0.4c2.2,0.4,4.2,1.5,5.8,3.2c1.7,1.8,3.2,3.8,4.4,5.9
			C74.1,14.1,74.2,14.6,74.2,15.2z M56.7,17.4c0,0.2,0.1,0.4,0.3,0.4s0.6,0.1,0.7-0.4c0-0.3-0.2-0.5-0.4-0.5c0,0,0,0,0,0
			C56.9,16.9,56.8,17.1,56.7,17.4z"/>
		<path class="st2" d="M6.9,84.2C6.8,83.6,7,83,7.4,82.5C7.5,82.3,7.7,82,8,81.8c1.4-1.4,2.7-2.8,3.9-4.3c0.8-0.8,1.5-1.7,2.1-2.6
			c0.5-0.9,1-1,1.6-0.3c0.8,1,1.9,1.8,3.1,2.3c0.1,0,0.2,0.1,0.2,0.1c1.2,1.4,2.5,2.7,3.9,3.9c0.9,0.7,1,2,0.3,2.9
			C23.1,83.9,23,84,22.9,84c-0.2,0.2-0.4,0.5-0.6,0.7c-1,1.7-2.4,3-3.5,4.7c-0.7,1.2-1.5,2.2-2.2,3.3c-0.5,0.8-1.5,1.1-2.3,0.7
			c-0.1-0.1-0.2-0.1-0.3-0.2c-0.3-0.3-0.6-0.7-0.9-1.1c-0.2-0.2-0.3-0.5-0.5-0.6c-2-1-3.1-3.1-4.4-4.8c-0.3-0.3-0.5-0.8-0.8-1.1
			C7,85.4,6.8,84.8,6.9,84.2z"/>
		<path class="st2" d="M63.7,96.6c-0.7,0.1-1.3-0.3-1.5-0.9c-0.9-1.7-2-3.2-3-4.9c-0.7-1.1-1.7-2-2.9-2.5c-0.9-0.4-1.5-1.4-1.4-2.4
			c0-0.4,0.1-0.7,0.3-1c0.8-0.9,1.3-2,2.1-2.9c1.4-1.6,2.5-3.4,3.5-5.3c0-0.1,0.1-0.2,0.2-0.3c0.8-1.1,0.5-1.1,1.3-0.2
			c1.5,1.8,3.2,3.4,5,4.9c0.1,0.1,0.2,0.2,0.3,0.3c0.8,1.6,2.2,2.4,3.3,3.5c0.7,0.7,0.8,0.7,0.3,1.5c-1,1.7-2.1,3.5-3.2,5.2
			c-0.5,0.6-0.9,1.3-1.2,2c-0.6,0.9-1.3,1.8-2.1,2.6C64.5,96.6,64.1,96.7,63.7,96.6z"/>
	</g>
</g>
<g id="Layer_3">
	<g id="Layer_4">
		<path class="st3" d="M57.8,41.9c-0.1-1.1,0.2-2.2,0.7-3.1c0.5-1.2,1.1-2.3,1.7-3.4c0.8-1.1,1.7-2,3.1-1.8c2.6,0.3,4.8,1.9,6,4.2
			c0.4,0.9,0.6,1.9,0.7,2.9c0.3,2.5,0.7,5,0.9,7.6c0.2,2.3-0.3,4.4-0.4,6.7c-0.3,3-1.2,5.9-2.5,8.6c-0.1,0.4-0.3,0.7-0.6,0.9
			c-1.7,1-3.5,1.7-5.5,0.7c-1.3-0.6-2.2-1.7-2.7-3c-0.6-1.7-1.1-3.4-1.5-5.2c-0.3-1.6-0.5-3.3-0.6-4.9c-0.2-1.5-0.2-3.1-0.1-4.6
			c0.1-1.2,0.2-2.3,0.4-3.5C57.7,43.4,57.8,42.6,57.8,41.9z"/>
		<path class="st3" d="M9.9,51.5c-0.1-1.2,0-2.3,0.2-3.5c-0.3-2.7,0.4-5.3,1-7.8c0.4-1.8,1.1-3.5,2-5c0.2-0.3,0.4-0.6,0.6-0.9
			c0.5-0.8,1.5-1,2.2-0.5c0.1,0.1,0.2,0.1,0.2,0.2c1,0.7,1.9,1.5,2.9,2.2s1.1,1.8,1.5,2.8c0.8,2.2,1.3,4.4,1.5,6.8
			c0.1,1.3,0.2,2.5,0.5,3.8c0,0.2,0,0.3,0,0.5c-0.3,1.6-0.4,3.2-0.2,4.8c0,2.5-0.5,4.9-1.6,7.1c-0.6,1.5-1.9,2.6-3.4,3.1
			c-0.9,0.2-1.9,0.2-2.8,0.1c-0.6-0.1-1.1-0.5-1.5-1c-1.5-1.7-2.4-3.9-2.7-6.1c-0.2-1.2-0.4-2.3-0.5-3.5C9.8,53.5,9.8,52.5,9.9,51.5
			z M15.3,48.4c0.1-0.3,0-0.5-0.2-0.7c-0.2-0.1-0.3,0-0.3,0.2c-0.1,0.3,0,0.5,0.2,0.7C15.1,48.7,15.3,48.5,15.3,48.4z"/>
	</g>
</g>
</svg>
