<?xml version="1.0" encoding="utf-8"?>
<!-- Generator: Adobe Illustrator 24.1.0, SVG Export Plug-In . SVG Version: 6.00 Build 0)  -->
<svg version="1.1" id="Layer_1" xmlns="http://www.w3.org/2000/svg" xmlns:xlink="http://www.w3.org/1999/xlink" x="0px" y="0px"
	 viewBox="0 0 100 100" style="enable-background:new 0 0 100 100;" xml:space="preserve">
<style type="text/css">
	.st0{fill:#020202;}
	.st1{opacity:0.94;fill:#2B2B2B;enable-background:new    ;}
	.st2{opacity:0.94;fill:#7C7C7C;enable-background:new    ;}
</style>
<path class="st0" d="M95.7,6.4C95.5,6,95.1,5.8,94.6,6c-0.1,0.1-0.2,0.1-0.3,0.2c-0.6,0.5-1.1,1.2-1.4,1.9c-0.3,0.7-0.6,1.3-1.1,1.8
	c-0.4,0.4-0.7,0.9-1.1,1.3c-0.7,1-1.5,1.9-2.5,2.7c-2.2,1.8-4.8,2.4-7.5,3c-0.4,0.1-0.8-0.1-1.3,0c-1,0.2-2,0.4-3,0.4s-2,0.1-3,0.2
	c-0.8,0.2-1.7,0.4-2.5,0.5c-1.2,0.1-1.9,1.1-2.9,1.6c-0.1,0.1-0.2,0.3-0.3,0.5c-0.8,1.7-1.2,3.5-1.1,5.3c0.1,0.9,0.1,1.9,0,2.9
	c-0.1,0.5-0.1,1.1,0,1.6c0.6,2.3-0.5,4-1.5,5.8c-0.1,0.1-0.2,0.2-0.3,0.3c-0.7,0.2-1.2,0.8-1.9,1c-2,0.9-4.3,1.3-6.5,1.3h-3.2
	c-2.1,0-4.2,0-6.3,0.2c-2.9,0.4-5.5,1.8-7.4,3.9c-1.5,1.8-2.2,3.9-3,6.1v0.4c0.4,1.5,0.2,3.1,0.2,4.6c0,1.2,0.2,2.3,0.2,3.4
	c0,0.7,0.1,1.3,0.2,2c0.1,0.7-0.3,1.3-0.2,2.1c0,0.2,0,0.5,0.1,0.7c0.4,2.4-0.6,4.8-2.6,6.2c-2.4,1.3-4.9,2.4-7.5,3.1
	c-1.3,0.4-2.7,0.7-4,1c-0.2,0.1-0.4,0.1-0.6,0c-0.4-0.2-0.8-0.1-1.1,0.2c-0.3,0.2-0.6,0.2-0.9,0.3c-1,0.3-2.2,0.1-3.2,0.4
	c-1.7,0.5-3.4,0.9-5,1.5c-1.2,0.5-2.2,1.4-3.4,1.9c-0.6,0.2-0.4,1.1-0.9,1.4c0.2,0.3,0.1,0.4,0,0.5C7.2,79.1,6.7,80,6.3,81
	c-0.2,0.8-0.4,1.6-0.5,2.4c-0.6,2.2-0.8,4.5-0.7,6.8c0.2,1.4,0.4,2.9,0.3,4.3c-0.1,0.4,0.2,0.7,0.6,0.8h0.8c1.7-0.1,3.5,0,5.2,0.2
	c0.4,0.1,0.9,0.1,1.3,0c1-0.2,1.9-0.3,2.9-0.2h6.7c1.2-0.1,2.3-0.1,3.5,0.2h0.5c1.8-0.4,3.7-0.4,5.6,0c0.3,0.1,0.6,0,0.9-0.1
	c0.5-0.2,1.1-0.3,1.7-0.2H46c1.8,0,3.5,0.2,5.3,0c1.5-0.1,3-0.1,4.5,0c2.6,0.1,5.3-0.3,7.9,0.3c0.4,0.1,0.7,0,1.1-0.1
	c0.6-0.2,1.2-0.2,1.8-0.2h5.1c2.1,0.1,4.3-0.4,6.4,0.2h0.3c1.8-0.4,3.6-0.4,5.4,0c0.2,0,0.4,0,0.7-0.1c0.7-0.2,1.4-0.2,2.1-0.2h7.5
	c0.8,0,1-0.2,1.2-1.1c0.1-0.2,0.1-0.5,0-0.7c-0.2-0.7-0.2-1.4,0-2.1c0.2-0.8-0.4-1.4-0.4-2.2c0.1-2-0.1-4.1,0.1-6.2
	c0.1-1.5,0.2-3,0.2-4.5c0.1-2-0.2-4,0.2-6c-0.3-0.7,0.1-1.4,0-2.1c-0.3-1.4-0.3-2.8-0.2-4.1c0.1-0.7,0.2-1.4,0.2-2.2
	c-0.1-0.9-0.1-1.9,0-2.8c0-3.2,0.4-6.5,0.3-9.7c0.1-0.7,0.1-1.5,0-2.2c-0.3-1.4-0.2-2.9-0.4-4.3c-0.3-2-0.6-4-0.8-6
	c-0.1-1.1-0.2-2.3-0.3-3.4c-0.2-2.8,0.3-5.5,0.3-8.2v-0.5c0.2-1.4,0.3-2.8,0.5-4.1s0.1-2.5,0.3-3.7c0-1,0.1-2.1,0.3-3.1
	c0.5-1.1-0.1-2.1,0.1-3.1c-0.2,0-0.2-0.1-0.2-0.2c0.1-1.4,0.3-2.9,0.6-4.3C96.3,7.6,96.1,6.9,95.7,6.4z M27.2,74.6
	c0.3,0,0.5,0.2,0.5,0.5c0,0.3-0.3,0.4-0.4,0.5c-0.4,0-0.5-0.1-0.5-0.4S27,74.7,27.2,74.6z M52.4,93.1c-0.6-0.1-1-0.6-1-1.1
	c0-0.4,0.3-0.8,0.7-0.9h0.1c0.5,0,0.8,0.4,0.8,1C53,92.7,52.7,93.2,52.4,93.1z M53.6,86.5c-0.2,0-0.3-0.2-0.3-0.4
	c0-0.3,0.2-0.4,0.4-0.4s0.3,0.2,0.3,0.4C54,86.3,53.9,86.6,53.6,86.5z"/>
<path class="st1" d="M13.5,59.4c0.4-0.7,0.7-1.6,0.7-2.5c0.6-3.2,1.1-6.5,1.7-9.7c0.5-2.5,1.2-4.9,1.8-7.4c0.5-2,1.1-4,1.7-6
	c0-0.1,0.1-0.3,0.2-0.4c0.7-0.8,1.3-1.7,1.8-2.6c1.3-2,3.3-3.6,5.5-4.6c2.1-1,4.3-1.7,6.6-2.2c0.9-0.2,1.7-0.3,2.6-0.3
	c3.1,0.1,6.2-0.5,9.3-0.4c0.6,0,1.2,0,1.9,0c1.2,0,2.1-1,2.1-2.2l0,0c0.1-1.9,0.4-3.7,0.7-5.5s0.5-3.4,0.7-5.2
	C51,9.2,51.3,9,52.3,8.8c1.6-0.3,3.3,0,4.9-0.5c0.2-0.1,0.4-0.1,0.7,0c1.6,0.3,3.2-0.2,4.8-0.1c1.1,0,2.1-0.4,3.2-0.2H66
	c1-0.6,2.1-0.2,3.2-0.5c1-0.3,2-0.4,3-0.4c0.4,0,0.8,0,1.2-0.2c0.2-0.1,0.4-0.1,0.7-0.1C74.2,7,75,6.9,75,7.5
	c0.1,0.8-0.7,0.5-1.1,0.6c-2.6,0.4-5.2,0.7-7.8,1.2c-1.6,0.2-3.1,0.6-4.5,1.2c-1.1,0.5-2.1,1.3-2.9,2.3c-0.5,0.7-1,1.4-1.6,2.1
	c-0.7,1.1-1.2,2.2-1.5,3.5c-0.5,1.6-0.9,3.2-1.3,4.9c-0.1,0.5-0.2,1-0.2,1.5c-0.1,1.3-0.6,2.5-1.5,3.4c-0.6,0.7-1.5,1.1-2.4,1
	c-1.2,0-2.5,0-3.7,0c-1.1-0.1-2.1,0-3.2,0.3c-0.5,0.2-0.9-0.2-1.4-0.1c-1.1,0.2-2.3,0.3-3.4,0.4c-0.8,0.1-1.7,0.3-2.5,0.6
	c-0.6,0.2-1.1,0-1.7,0.1c-2.1,0.5-4.1,1.2-6.1,2.2c-0.5,0.2-0.8,0.6-1.1,1c-0.8,1.2-1.4,2.5-1.7,3.9c-0.7,3.1-1.2,6.2-1.5,9.4
	c-0.2,2.8-0.3,5.7-0.2,8.5c0.1,1.4,0,2.9,0,4.3c0.1,1.4,0.1,2.8-0.2,4.1c-0.3,0.8-0.9,1.5-1.6,1.3c-0.9-0.1-1.8-0.1-2.6,0.1
	c-0.9,0.1-1.8,0.3-2.7,0.6c-1.7,0.6-3.4,1.1-5.1,1.6c-0.3,0.1-0.7,0.1-1.1,0.1c-0.8,0-1.1-0.5-1.3-1.4c-0.2-1-0.2-2,0-2.9
	c0.1-0.9,0.2-1.9,0.1-2.8c0.1-1.7,0-3.5-0.2-5.2c0-0.2,0-0.4,0-0.6c0.4-1.3,0-2.6,0.2-3.8c0-0.3,0-0.7-0.1-1C9,49.5,9,49,9.1,48.6
	C9.2,47,9.2,45.3,9,43.7c-0.1-0.4-0.1-0.8-0.1-1.2c0.5-2.7,0.1-5.4,0.2-8.1c-0.3-1.3-0.4-2.7-0.2-4.1c0-0.8-0.6-1.3-0.5-2.1
	s0.4-1.4,0-2.2c-0.1-0.2-0.1-0.5-0.1-0.7c-0.1-1.9-0.3-3.8-0.7-5.6c-0.2-1.6-0.5-3.2-0.7-4.9c-0.2-1.4-0.2-2.9-0.1-4.3
	c0-0.5,0.3-0.6,0.5-0.4c0.6,0.7,1.3,0.4,2,0.2s1.5-0.4,2.2-0.6c0.4-0.1,0.8,0,1.2,0.2s0.7,0.6,0.6,1c0,0.5,0,1,0,1.5
	c-0.2,1.3-0.3,2.6-0.2,3.9c0,1.6-0.3,3.3-0.4,4.9s-0.3,3.1-0.4,4.6c-0.1,2-0.1,4.1,0,6.2c0.3,5.1,0.2,10.3,0.2,15.4
	c0,2.7,0.3,5.5,0.5,8.2C13.1,56.8,13.3,58.1,13.5,59.4z M11.3,25.5c-0.4,0-0.7,0.2-0.8,0.6c-0.2,0.4,0,0.8,0.3,1.1
	c0.4,0.3,0.6-0.2,0.9-0.4l0.1-0.1c0.2-0.1,0.3-0.4,0.3-0.6C11.9,25.7,11.6,25.5,11.3,25.5z M12.2,15.8c0-0.2-0.2-0.4-0.4-0.4
	c-0.2-0.1-0.4,0-0.5,0.2v0.1c-0.1,0.3,0.1,0.6,0.4,0.7C12,16.5,12.1,16.1,12.2,15.8z"/>
<path class="st2" d="M38.4,16.1c-1.3-0.1-2.6,0.1-3.8,0.5c-1.5,0.5-3,0.3-4.6,0.7c-2,0.5-4.1,0.8-6.1,1.4c-0.7,0.2-1.4,0.2-2.1,0.1
	c-1-0.1-1.4-0.8-1.3-2s0.1-2.5,0.1-3.8c0-1,0.2-1,0.9-1.1c1-0.2,2.1,0,3.1-0.7c1.4,0,2.7-0.1,4.1-0.5c1,0,2-0.3,2.9-0.8
	c0.1-0.1,0.2-0.1,0.2-0.1c1.5,0.4,3-0.3,4.5-0.4s2.9-0.6,4.3-0.9c0.4-0.1,0.7-0.1,0.9,0.4c0,0.2,0.2,0.4,0.4,0.3
	c0.2,0,0.3-0.2,0.3-0.4l0,0c-0.1-0.5,0.1-0.6,0.5-0.6c0.3,0,0.6,0.2,0.7,0.6l0,0c0,0.2,0,0.5,0,0.7c-0.4,1.6-0.6,3.2-0.7,4.8
	c0,0.5-0.3,1.1-0.8,1.2c-0.5,0.2-1,0.3-1.6,0.3C39.6,16.1,39,16.1,38.4,16.1z"/>
</svg>
