<?xml version="1.0" encoding="utf-8"?>
<!-- Generator: Adobe Illustrator 24.1.0, SVG Export Plug-In . SVG Version: 6.00 Build 0)  -->
<svg version="1.1" xmlns="http://www.w3.org/2000/svg" xmlns:xlink="http://www.w3.org/1999/xlink" x="0px" y="0px"
	 viewBox="0 0 100 100" style="enable-background:new 0 0 100 100;" xml:space="preserve">
<style type="text/css">
	.st0{fill:#020202;}
	.st1{opacity:0.94;fill:#7C7C7C;enable-background:new    ;}
	.st2{opacity:0.94;fill:#545454;enable-background:new    ;}
	.st3{opacity:0.94;fill:#2B2B2B;enable-background:new    ;}
</style>
<g id="Layer_5">
	<g id="Layer_6">
		<path class="st0" d="M90.3,96.8c-1.2,0.2-2.7-0.3-4.1,0.2c-1.8-0.4-3.7,0-5.6-0.2c-1.1-0.2-2.1-0.3-3.2-0.2
			c-1.3,0.2-2.6-0.1-3.9,0s-2.5,0-3.8,0c-4.3,0-8.7-0.4-13.1-0.3c-0.8-0.1-1.6,0-2.4,0.2c-0.1,0-0.2,0.1-0.3,0c-1.5-0.5-3,0-4.5-0.4
			c-1.2-0.3-2.4-0.3-3.7,0c-0.5,0.2-1.1,0.2-1.6,0c-0.4-0.2-0.9-0.2-1.3-0.2c-1.4,0.3-2.8-0.1-4.2,0c-1.4,0.1-2.8,0.1-4.2,0
			c-1.1-0.1-2.2,0.3-3.3-0.2c-0.1,0-0.2,0-0.3,0c-1.2,0.4-2.5-0.1-3.8,0s-2.6,0-4,0l-3.8-0.1c-0.9,0.1-1.7,0-2.6-0.2
			c-0.2,0-0.4,0-0.5,0c-1.6,0.3-3.1-0.1-4.7,0s-3.2,0-4.8,0c-0.4,0-0.9,0.2-1.1-0.3c-0.1-0.5,0.1-1,0.5-1.3c0.4-0.4,0.7-0.9,1-1.4
			c1-1.5,2-3,3.1-4.4c0.6-0.9,1.2-1.7,1.9-2.5c0.7-0.7,1.2-0.6,1.6,0.3c0.6,1.5,1.3,3,2.1,4.4c0.7,1.2,1.5,2.3,2.4,3.3
			c0.3,0.4,0.6,0.2,0.7-0.2c0.6-1.4,1.6-2.6,1.7-4.2c0.1-0.3,0.2-0.7,0.5-0.9c0.4-0.4,0.7-1,0.9-1.5c0.5-1.3,1.2-2.4,2.2-3.4
			c0.3-0.3,0.6-0.4,0.9-0.1s0.6,0.3,0.8,0.6c0.6,1,1.3,2,2.1,3c0.2,0.3,0.4,0.6,0.7,0.9c1.2,1.1,2.3,2.4,3.1,3.8
			c0.6,0.8,1.2,1.6,1.7,2.5c0.2,0.4,0.4,0.3,0.6-0.1c0.5-1.3,0.9-2.5,1.3-3.8c0.6-1.8,1.5-3.5,2.6-5c0.4-0.7,1-0.6,1.5,0
			c0.2,0.3,0.3,0.7,0.5,1c1.4,2.4,3,4.8,4.8,6.9c0.3,0.4,0.6,0.9,0.9,1.3s0.6,0.3,0.8-0.1s0.4-1,0.6-1.5c0.7-1.7,1.6-3.3,2.7-4.7
			c0.9-1.3,1.8-2.5,2.7-3.8c0.4-0.6,1-1.1,1.7-1.5c0.9-0.6,1.5-0.3,2,0.7c0.2,0.4,0.3,0.8,0.4,1.1c1.4,2.9,3,5.8,4.7,8.5
			c0.2,0.2,0.3,0.5,0.6,0.7c0.8,0.9,0.8,0.7,1.6-0.3c0.9-1.3,1.7-2.7,2.6-4c0.7-0.9,1.3-1.9,1.9-2.9c0.5-0.8,1.1-1.5,1.8-2.1
			c0.4-0.4,1-0.4,1.4,0c0.7,0.7,1.7,1.1,1.8,2.3c0.9,1.4,1.7,2.9,2.4,4.3c0.7,1.2,1.5,2.4,2.4,3.4c0.1,0.1,0.2,0.3,0.4,0.4
			c0.4,0.4,0.8,0.3,1-0.2c0.3-1,0.9-1.9,1.2-2.8c0.5-1.3,1.5-2.3,1.8-3.7c0-0.1,0.1-0.3,0.2-0.4c1.2-0.8,1.8-2.3,2.8-3.3
			c0.2-0.3,0.6-0.4,0.8-0.2c0.1,0,0.1,0.1,0.2,0.1c0.8,0.7,1.4,1.5,1.8,2.4c0.5,0.9,0.9,1.7,1.3,2.6c0.3,0.6,0.6,1.2,1.1,1.7
			c1.1,1.5,2.4,2.9,3.6,4.2c0.2,0.2,0.4,0.5,0.7,0.8s0.2,0.6-0.2,0.6c-0.3,0-0.5,0-0.8,0L90.3,96.8z"/>
		<path class="st0" d="M96.5,8.1c0,0.7,0,1.2,0,1.7c0,0.3,0.1,0.7-0.2,0.9c-0.6,0.5-0.7,0.9,0,1.3c0.1,0.1,0.2,0.2,0.2,0.4
			c-0.1,1,0.3,2.1,0.1,3.1c-0.1,0.8-0.1,1.5,0,2.3c0,2.4-0.2,4.8,0,7.1c0.3,3.5,0.1,7.1,0.3,10.6c0.2,1.1,0.2,2.3,0,3.4
			c-0.1,0.4,0,0.8,0.1,1.2c0.2,0.3,0.1,0.7-0.1,1c-0.4,0.7-0.5,1.4-0.3,2.2c0.1,0.7,0.1,1.5,0,2.2c-0.1,1.8-0.1,3.6,0,5.5
			c0.1,0.7-0.1,1.3-0.1,1.9c0,2.3-0.1,4.7,0,7c0.1,1.7-0.2,3.3,0,5s-0.4,3.2,0.2,4.8c0,0.2,0,0.4-0.1,0.6c-0.2,1.1-0.2,2.3-0.1,3.5
			c0,0.2,0.1,0.4,0.1,0.6c-0.4,5.9-0.1,11.8-0.2,17.8c0,0.4,0.2,1-0.1,1.2s-0.7-0.4-1-0.7c-0.5-0.6-1-1.2-1.3-1.9
			c-0.7-1.2-1.5-2.4-2.4-3.5c-1.4-1.9-2.9-3.6-4.2-5.6c-0.6-1-0.6-1.2,0.2-1.8c0.3-0.3,0.6-0.6,0.9-0.9c0.2-0.2,0.4-0.5,0.6-0.6
			c1.9-0.6,3.2-2.4,4.9-3.5c0.2-0.2,0.3-0.3,0.5-0.5c0.2-0.2,0.2-0.6,0-0.8c0,0,0,0,0,0c-0.1-0.1-0.3-0.3-0.4-0.4
			c-1.2-0.9-2.3-1.8-3.5-2.6c-1-0.7-1.9-1.4-2.7-2.3c-0.2-0.3-0.7-0.5-0.6-0.9s0.3-1.3,0.9-1.5c1.2-0.5,1.8-1.9,2.8-2.5
			c0.1-1,1-1.3,1.5-1.9c0.6-0.8,1.3-1.6,2-2.2c0.1-0.1,0.2-0.2,0.3-0.3c1.7-2.3,1.3-2.2-0.6-2.8c-1.9-0.7-3.6-1.8-4.9-3.3
			c-0.3-0.3-0.7-0.5-1-0.8c-0.4-0.3-0.5-1-0.2-1.4c0.1-0.1,0.2-0.2,0.3-0.2c0.4-0.3,0.8-0.5,1.2-0.8c0.8-0.6,1.5-1.4,2-2.2
			c0.5-1,1.2-1.9,2-2.6c0.8-0.8,1.5-1.8,2-2.8c0.4-0.4,0.4-1,0-1.4c-0.1-0.1-0.1-0.1-0.2-0.2c-1-0.9-2.1-1.7-3.3-2.4
			c-0.8-0.7-1.7-1.3-2.7-1.8c-0.5-0.2-0.8-0.9-1.2-1.4c-0.2-0.5-0.1-1,0.2-1.4c0.4-0.7,1-1.3,1.7-1.7c1.1-0.6,2-1.4,2.8-2.4
			c0.3-0.5,0.8-0.8,1.3-1c0.5-0.1,0.8-0.2,0.6-0.9c-0.1-0.5,0.4-0.7,0.7-1.1c0.4-0.6,0.5-1-0.1-1.4c-1.2-0.8-2.1-2.1-3.5-2.6
			c-0.2-0.1-0.4-0.3-0.5-0.5c-1.6-1.9-3.4-3.5-4.8-5.6c-0.3-0.3-0.3-0.8-0.1-1.1c0.2-0.4,0.5-0.7,0.8-1c1.4-1.7,2.7-3.4,3.9-5.2
			c0.4-0.6,0.9-1.1,1.4-1.7c0.2-0.3,0.6-0.5,0.7-0.9c0.5-1.2,1.6-1.7,2.3-2.8c0.1-0.1,0.2-0.2,0.3-0.1c0.1,0.1,0.1,0.2,0.1,0.3
			C96.2,5.2,96.8,6.7,96.5,8.1z M90,16.7c0.3,0,0.5-0.3,0.5-0.6c0-0.3-0.3-0.6-0.6-0.6c0,0-0.1,0-0.1,0c-0.3,0-0.5,0.3-0.5,0.6
			C89.3,16.5,89.6,16.8,90,16.7C90,16.7,90,16.7,90,16.7z M95.5,15.8c0-0.3,0-0.5-0.3-0.6s-0.5-0.1-0.7,0.3
			c-0.1,0.3,0.1,0.7,0.4,0.8C95.2,16.4,95.3,16.2,95.5,15.8L95.5,15.8z"/>
		<path class="st0" d="M11.4,3.4c1.3,0.4,2.8,0.5,4.2,0.3c1.3-0.1,2.7-0.3,4.1-0.2c0.2,0,0.4,0,0.5,0C22.6,4,25,3.1,27.5,2.9
			c1.4-0.1,2.9-0.7,4.3-0.1c0.3,0.1,0.6,0.1,0.9,0c2.2,0,4.4,0,6.7,0s4.5,0.4,6.8,0.3c0.3,0,0.6,0.1,0.9,0.3C47.4,3.8,47.9,4,48.4,4
			c2.2-0.3,4.4,0,6.6-0.5c0.2-0.1,0.5-0.1,0.7,0c1,0.2,2.1,0.3,3.1,0.2c0.2,0,0.4,0,0.5,0c0.6,0,1-0.8,1.6-0.8s1,0.5,1.5,0.5
			c1,0.1,1.9,0,2.8-0.3c0.4-0.1,0.7-0.1,1.1,0.1c0.7,0.2,1.4,0.2,2.2,0c0.7-0.1,1.3-0.2,2-0.2l5.5,0c0.1,0,0.2,0,0.3,0
			c1.2-0.7,2.4-0.3,3.6-0.2c4.2,0,8.3-0.5,12.5-0.4h0.8c0.3,0,0.6,0,0.6,0.4c0.1,0.3-0.1,0.6-0.3,0.8c-1.7,1.8-3.3,3.7-4.8,5.8
			c-0.7,0.9-1.4,1.7-2.2,2.5s-1.8,0.7-2.5-0.4c-0.9-1.6-1.5-3.4-2.6-4.9c-0.6-0.8-1.2-1.5-1.8-2.2c-0.3-0.4-0.8-0.5-1.2-0.2
			c-1,0.5-1.9,1.3-2.5,2.3c-0.7,0.9-1.4,1.7-2.1,2.6c-0.7,0.8-1.3,1.6-1.8,2.5c-1,1.7-1.9,1.9-3.5,1c-1-0.6-1.8-1.4-2.5-2.2
			c-1.5-1.7-2.8-3.5-4.1-5.3c-0.7-1-1.3-1-2,0s-1.5,2.4-2.1,3.6c-0.5,0.9-1,1.7-1.5,2.5c-1,1.4-2,1.5-3.1,0.3c-0.7-0.7-1.3-1.4-2-2
			S49.5,8,48.8,7.2S47.6,5.7,46.9,5c-0.4-0.4-0.7-0.5-1,0c-1.4,1.6-2.8,3.2-4,4.9c-0.3,0.6-0.6,1.1-1,1.6c-0.8,0.8-0.8,0.8-1.6,0
			c-0.3-0.3-0.6-0.6-1-0.8c-2.1-1.2-3.5-3.3-5.3-5c-0.4-0.4-0.5-1-0.9-1.5c-0.6-0.8-1-0.8-1.4,0.1C30,5.6,29.2,6.8,28.5,8
			c-0.3,0.8-0.6,1.6-0.9,2.4c-0.4,0.9-0.6,1-1.3,0.5c-1-0.7-1.9-1.5-2.9-2.2c-0.5-0.6-1-1.3-1.5-2c-0.3-0.4-0.6-0.8-0.8-1.2
			c-0.6-0.9-0.8-0.9-1.1,0.1s-1.1,1.8-1.5,2.8c-0.4,0.8-1.1,1.5-1.4,2.4c-0.3,0.5-0.9,0.6-1.4,0.3c0,0-0.1-0.1-0.1-0.1
			c-0.6-0.6-1.2-1.1-1.9-1.5C12,8.2,10.6,6.8,9.5,5.1C9.3,4.8,9.1,4.7,8.8,4.6C8.6,4.5,8.4,4.4,8.5,4s0.2-0.3,0.4-0.3
			C9.8,3.7,10.7,3.9,11.4,3.4z M87.1,9.4c0.4-0.1,0.7-0.4,0.7-0.8c0-0.4-0.5-0.9-0.8-0.9s-0.6,0.4-0.6,0.9S86.8,9.4,87.1,9.4
			L87.1,9.4z M83.1,6.2c-0.2,0-0.4,0.2-0.3,0.4s0.2,0.5,0.5,0.4s0.2-0.1,0.2-0.3C83.5,6.4,83.3,6.2,83.1,6.2
			C83.1,6.2,83.1,6.2,83.1,6.2z"/>
		<path class="st0" d="M3.3,91.5c0.1-1.2,0.1-2.3,0-3.5c-0.1-0.9,0.3-1.7,0.3-2.6c-0.1-1.2-0.1-2.4,0-3.6c0.1-0.8-0.3-1.5-0.2-2.2
			c0.1-0.7,0.2-1.5,0.1-2.3c0.1-0.9,0-1.8-0.2-2.7c0-0.2,0-0.5,0.1-0.7c0.3-1.7,0.2-3.4-0.3-5c-0.2-0.4-0.2-0.8-0.1-1.2
			c0.5-2,0.6-4,0.5-6c0-2.6,0.1-5.3,0-7.9c-0.1-2.3,0.2-4.5-0.1-6.8c0.3-3.9,0.1-7.8,0.1-11.7c0.1-0.7,0-1.4-0.4-2
			c-0.3-0.4-0.2-0.9,0.1-1.3c0.2-0.3,0.4-0.7,0.3-1.1c-0.2-2.4,0.1-4.7,0-7.1s0-4.7,0-7.1c0-1.9-0.1-3.9,0-5.8
			C3.6,10,3.1,8.9,3.4,7.8c0.3-1,0.4-2.1,0.3-3.2C3.8,4.4,3.7,4,4,3.9s0.5,0.2,0.7,0.4c1.9,1.6,3.6,3.5,5,5.6
			c0.6,0.6,0.5,1.6-0.1,2.1c0,0,0,0,0,0c-0.4,0.5-0.9,1-1.4,1.4c-0.9,0.6-1.6,1.3-2.2,2.2c-0.1,0.2-0.3,0.4-0.5,0.5
			c-0.9,0.8-0.9,1-0.2,1.8c1,1.2,2.1,2.4,3.1,3.6l1.4,1.6c0.8,0.9,1,1.5,0.1,3C8.7,28,7.2,29.7,5.4,31c-0.3,0.2-0.6,0.5-0.8,0.8
			c-0.5,0.7-0.4,1.6,0.2,2.1c1.3,1.3,2.7,2.5,4.4,3.3c0.1,0,0.3,0.1,0.4,0.2c0.7,0.7,1.3,1.5,1.9,2.3c0.6,1.1,0.5,2.5-0.4,3.5
			c-1.1,1.5-2.3,3-3.6,4.3c-0.4,0.5-0.7,1-1,1.5c-0.5,0.9-1.1,1.7-1.7,2.5c-0.5,0.7-0.5,1,0,1.7c0.3,0.5,0.8,0.9,1.2,1.2
			c1.3,0.8,2.4,2.1,3.8,2.9c0.6,0.5,1.2,1.1,1.7,1.8c0.5,0.6,0.4,1.5-0.1,2c-0.7,0.7-1.4,1.2-2.3,1.7c-1.4,0.7-2.7,1.7-3.8,3
			c-0.8,1-1.1,2.3-0.9,3.5c0,0.2,0.2,0.5,0.3,0.6c1.3,1.1,2.5,2.3,3.9,3.3c0.8,0.6,1.5,1.2,2.2,1.8c1,1.1,1.2,2.7,0.7,4.1
			c-0.5,1-1,2-1.5,3c-0.2,0.3-0.3,0.6-0.4,0.9c-0.1,0.9-0.5,1.8-1.2,2.5C8.1,85.8,8,86,7.9,86.3c-1,2.7-2.2,5.3-3.6,7.8
			c-0.1,0.2-0.2,0.5-0.5,0.4s-0.5-0.3-0.5-0.7C3.3,93.1,3.3,92.3,3.3,91.5z"/>
	</g>
</g>
<g id="Layer_4_1_">
	<g id="Layer_2-2">
		<path class="st1" d="M79.6,20.5c-0.1,1,0.1,2,0.4,2.9c0.1,0.1,0.1,0.2,0.1,0.3c-0.4,1.3,0.1,2.6,0.1,3.9c0.1,3.2-0.1,6.3,0,9.5
			c0,0.5-0.1,1-0.2,1.5c-0.2,0.5-0.4,0.7-0.9,0.7c-0.7,0-0.8-0.1-0.8-0.8c0-0.8,0-1.5-0.2-2.2c-0.1-0.2-0.1-0.5,0-0.8
			c0.3-1.8,0.3-3.6,0.1-5.4c-0.1-0.8,0.2-1.6,0.1-2.4s0-1.8-0.1-2.7c0-0.7,0-1.3,0.1-1.9c0-1.5,0-2.9,0-4.4c0-0.4,0-0.7,0.1-1
			c0-0.2,0.2-0.4,0.5-0.4c0.3,0,0.4,0.2,0.4,0.5C79.6,18.5,79.6,19.5,79.6,20.5z"/>
		<path class="st1" d="M32.2,23.9c-0.2,1.6-0.1,3.3,0.1,4.9c0,0.1,0,0.3-0.1,0.4c-0.4,0.9-0.5,2-0.4,3c0,3.2,0,6.4,0,9.6
			c0,1-0.4,1.4-1.2,1.4c-0.2,0-0.3-0.1-0.3-0.3c0,0,0-0.1,0-0.1c0.2-2.1,0.3-4.1,0.2-6.2c0-0.6,0-1.1,0.1-1.7c0,0,0.1-0.1,0-0.1
			c-0.6-1.8,0.5-3.6-0.1-5.4c-0.1-0.7-0.2-1.3-0.1-2c0.1-1,0.1-1.9-0.2-2.9c-0.1-0.2-0.1-0.4,0-0.6c0.2-2.2,0.3-4.3,0.2-6.5
			c0-0.3,0-0.6,0.1-0.9c0-0.2,0.2-0.4,0.5-0.4c0.3,0,0.4,0.2,0.4,0.5c0.1,0.9,0.3,1.7,0.3,2.5C31.9,20.7,32.3,22.1,32.2,23.9z"/>
		<path class="st1" d="M61.6,18.4c-0.1,1.1,0,2.3,0.2,3.4c-0.5,1.1,0.2,2.3-0.1,3.4s0.1,2.3-0.3,3.5c0,0.1,0,0.2,0,0.3
			c0.2,1.5-0.2,3.1,0.1,4.6c0,0.1,0,0.3,0,0.5c-0.3,1.6-0.3,3.2-0.2,4.8c0,0.3,0,0.7-0.1,1c-0.1,0.4-0.6,0.7-1,0.5
			c-0.4,0-0.5-0.4-0.5-0.8c-0.2-1-0.2-2.1,0-3.1c0.5-1.5,0.2-3.1,0.4-4.6c0.1-0.6,0.1-1.2,0-1.8c0-0.6,0.1-1.3,0.2-1.9
			c0-2.3,0-4.7,0.1-7c0.1-1.8,0.2-3.6,0.2-5.4c0-0.4,0.2-0.6,0.5-0.6s0.5,0.2,0.5,0.7C61.6,16.8,61.6,17.7,61.6,18.4z"/>
		<path class="st1" d="M19.6,22c0.1,1-0.1,2.3,0.1,3.5c0,0.8,0,1.6-0.1,2.5c0,4.6,0,9.1,0,13.7c0,0.5,0,0.9,0,1.4
			c0,0.2-0.1,0.4-0.3,0.4c-0.2,0.1-0.5,0-0.6-0.2c-0.3-0.4-0.4-0.9-0.3-1.4c0.3-1.4-0.1-2.9,0.2-4.3c0-1,0-2.1-0.1-3.1
			c0-5.1,0-10.2,0-15.3c0-0.3,0-0.6,0.1-0.9c0-0.2,0.3-0.4,0.5-0.5c0.3,0,0.4,0.1,0.5,0.4c0.2,0.4,0.2,0.8,0.2,1.2L19.6,22z"/>
		<path class="st1" d="M59.9,60.6c0.8,0,0.9,0.1,0.9,1c0.1,3,0,6-0.1,9.1c0,0.9-0.3,1.8-0.2,2.7c0,0.4-0.2,0.6-0.4,0.9
			c-0.2,0.2-0.2,0.5,0,0.7c0.5,0.4,0.4,1,0.4,1.5c0,1.4,0,2.7,0,4.1c0,0.3,0,0.6-0.2,0.9c-0.1,0.2-0.3,0.3-0.5,0.2
			c-0.2,0-0.3-0.1-0.4-0.3c0,0,0,0,0,0c0-0.8-0.5-1.4-0.1-2.2c0-0.1,0-0.2,0-0.3c-0.5-1.4-0.2-2.8-0.2-4.2c0-1.2-0.1-2.3-0.3-3.5
			c-0.1-1-0.1-2,0-3c0-2.2,0-4.5,0-6.7C58.9,60.7,59,60.6,59.9,60.6z"/>
		<path class="st1" d="M79.4,67.6c0,1.9,0,3.8,0,5.6c0,0.6,0,1.2-0.2,1.8c-0.1,0.4-0.2,0.9-0.1,1.3c0.1,1.4,0,2.9-0.2,4.3
			c-0.1,0.5-0.1,1,0.1,1.5c0.1,0.3,0.1,0.7,0.1,1c-0.1,0.5-0.4,0.8-0.8,0.7s-0.4-0.4-0.4-0.8c0-1.5,0-3,0-4.6c0-2,0-4,0-5.9
			c-0.1-1,0-2,0.2-3c0-0.2,0.1-0.4,0-0.7c-0.2-1.4-0.2-2.8,0-4.1c0.1-1.1,0.1-2.2,0-3.3c0-0.2,0-0.5,0.1-0.7
			c0.2-0.3,0.5-0.5,0.8-0.4c0.4,0.1,0.4,0.5,0.4,0.9C79.4,63.4,79.4,65.5,79.4,67.6z"/>
		<path class="st1" d="M19.6,78.2c0.1,1.9-0.3,3.7,0.2,5.6c0,0.3,0,0.6-0.2,0.8c-0.1,0.3-0.3,0.5-0.6,0.4c-0.2-0.1-0.4-0.3-0.4-0.6
			c0-0.1,0-0.3,0-0.4c0-3.5-0.4-7-0.3-10.6c0.1-2.5,0-4.9,0-7.4c0-1.2,0.4-2.3,0.3-3.5c0-0.3,0.2-0.4,0.4-0.6s0.6-0.1,0.6,0.3
			c0,0.9,0,1.8,0,2.7s0,1.9,0,2.9c0,0.7,0.1,1.3,0.2,1.9c0.2,0.7,0.2,1.5,0,2.3c-0.2,1.7-0.3,3.3-0.2,5
			C19.6,77.5,19.6,77.9,19.6,78.2z"/>
		<path class="st1" d="M32.1,62.3c-0.3,1.7-0.3,3.5,0,5.2c0,0.2,0,0.5,0,0.8c0,3.9,0,7.9,0,11.8c0,0.3,0,0.7-0.1,1
			c0,0.2-0.3,0.4-0.5,0.4c-0.3,0-0.4-0.1-0.5-0.4c-0.2-0.6-0.3-1.2-0.2-1.8c0-3.4,0-6.9,0-10.3c0.1-1.6,0-3.2-0.2-4.8
			c-0.1-0.7-0.1-1.4,0-2.1c0-0.8,0.2-1,0.8-0.9S32.2,61.6,32.1,62.3z"/>
		<path class="st1" d="M47.9,15.6c-0.2,1.2-0.3,2.4-0.2,3.7c0,0.6-0.4,0.6-0.8,0.6s-0.6-0.3-0.4-0.7c0.2-0.8,0.2-1.7-0.1-2.5
			c-0.3-1.2,0.1-2.4,0.3-3.6c0-0.3,0.3-0.5,0.6-0.4c0,0,0,0,0.1,0c0.3,0.1,0.3,0.3,0.3,0.6C47.6,14,47.7,14.8,47.9,15.6z"/>
		<path class="st1" d="M47.2,38.7c0,0.7,0,1.4,0,2.1c0,0.6-0.4,0.6-0.8,0.6s-0.9-0.1-0.7-0.6c0.4-1.4,0-2.8,0.4-4.2
			c0.1-0.4,0.2-0.7,0.6-0.6s0.5,0.4,0.5,0.8C47.2,37.4,47.2,38,47.2,38.7L47.2,38.7z"/>
		<path class="st1" d="M46.3,62.6v1.2c0,0.5-0.3,0.7-0.7,0.7s-0.6-0.3-0.6-0.8c0-1,0.1-2.1,0.3-3.1c0-0.2,0.2-0.3,0.4-0.2
			s0.6,0.3,0.6,0.7S46.3,62.1,46.3,62.6L46.3,62.6z"/>
		<path class="st1" d="M45.1,79.4c-0.4-0.1-0.4-0.5-0.4-0.8s0.2-0.7,0.6-0.6s0.4,0.3,0.4,0.6C45.7,79.1,45.5,79.4,45.1,79.4z"/>
	</g>
</g>
<g id="Layer_3_1_">
	<g id="Layer_3">
		<path class="st2" d="M39.3,29.5c0.2-1.5-0.4-2.9-0.3-4.4c0-0.3,0-0.6,0-0.9c0-0.6,0.3-1.1,0.9-1.2c0.3-0.1,0.5-0.2,0.8-0.2
			c1.4,0,2.9-0.1,4.3-0.3c0.3,0,0.5,0,0.8-0.1c0.7-0.4,1.6-0.5,2.4-0.2c1.3-0.5,2.7-0.2,4-0.5c1.2-0.3,2.4-0.4,3.6-0.4
			c0.5,0,1,0,1.5-0.2c0.3-0.1,0.6-0.1,0.8,0.2c0.1,0.2,0.1,0.4,0,0.6c-0.8,2-0.8,4.2-1.1,6.3c-0.1,1.4-0.2,2.7-0.5,4
			c-0.2,0.6-0.4,0.8-1,0.8c-1.7,0-3.4,0.2-5.1,0.5c-0.2,0-0.4,0-0.5,0c-0.9-0.3-1.9-0.3-2.8,0.2c-0.2,0.1-0.5,0.2-0.8,0.2
			c-1.4-0.4-2.6,0.3-3.8,0.7C42,34.9,41.5,35,41,35c-0.9,0-1.3-0.3-1.4-1.3c-0.1-0.7-0.1-1.4-0.2-2.1C39.3,30.9,39.3,30.2,39.3,29.5
			z"/>
		<path class="st2" d="M36,72.9c0-1.4-0.2-2.9,0-4.4c0.1-0.7,0.1-0.8,0.8-0.6c0.7,0,1.3-0.1,2-0.2c1.5,0,3-0.5,4.6-0.4
			c0.2,0,0.4,0,0.7,0c1.7-0.7,3.5-0.4,5.2-0.8c0.8,0,1.6-0.1,2.4-0.3c0.4-0.1,0.7,0.2,0.6,0.6c-0.3,1.6-0.4,3.2-0.6,4.8
			c-0.1,0.7-0.1,1.4,0,2.1c0.3,1.5-0.4,2.4-1.8,2.4c-1,0.2-1.9,0-2.8-0.5c-0.2-0.2-0.5-0.2-0.8-0.1c-1.5,0.7-3.2,0.5-4.8,0.5
			c-1.3,0-2.5,0.5-3.8,0.4c-0.2,0-0.5,0-0.7,0c-0.7-0.1-1-0.3-1-1.1S36,73.7,36,72.9z"/>
	</g>
</g>
<g id="Layer_2">
	<g id="Layer_4">
		<path class="st3" d="M79.9,57.5c-0.7,0-1.4-0.1-2-0.1c-1.4,0.1-2.9-0.1-4.3,0c-0.4,0.1-0.8,0.1-1.2,0c-0.9-0.3-1.9-0.3-2.8,0
			c-0.2,0.1-0.4,0-0.7-0.1c-0.7-0.2-1.5-0.2-2.2,0.1c-0.3,0.1-0.6,0.1-0.9,0c-0.4-0.3-1-0.2-1.4,0.2c-0.1,0.1-0.2,0.1-0.2,0.1
			c-1.3-0.5-2.7,0.1-4-0.3c-0.1-0.1-0.3-0.1-0.4-0.1c-1.5,0.5-3.1-0.5-4.7,0.2c-0.2,0.1-0.4,0.1-0.5,0c-1.2-0.3-2.4-0.4-3.7-0.2
			c-0.9,0.1-1.9,0.1-2.8,0H48c-1.5,0.2-3.1,0.2-4.6,0c-1,0-2-0.4-3-0.3c-2,0-3.9,0.2-5.9,0.5c-1.4,0.2-2.7,0.2-4.1,0.1
			c-1.2,0-2.4,0.3-3.6,0.4c-1.9,0.1-3.6,0.9-5.5,0.8c-0.6,0-1.1,0.7-1.6,0.5s-1.1,0.2-1.7,0.2c-0.3,0-0.6,0.4-1,0.5
			c-0.6,0.4-1,0.3-1.1-0.4c-0.3-1.3-0.5-2.6-0.6-3.9c0-1.6-0.2-3.2-0.4-4.8c-0.1-1.3-0.3-2.6-0.6-3.9c-0.1-0.3,0.1-0.6,0.4-0.5
			c0.9,0.1,1.9,0.1,2.8-0.1c1.1-0.2,2.2-0.6,3.4-0.1c1.8-0.6,3.7-0.1,5.5-0.5c0.9-0.3,1.8-0.3,2.7-0.2c0.1,0,0.3,0.1,0.4,0
			c0.6-0.7,1.3-0.2,1.9-0.2c1.2,0,2.4,0,3.7-0.2c1-0.2,2.1,0,3.1-0.1c2-0.3,4-0.2,6.1-0.5c1.1-0.3,2.3-0.4,3.5-0.2
			c0.8,0,1.6,0,2.4-0.2c2.2,0,4.3-0.4,6.5-0.5c1.5-0.3,3.1-0.4,4.6-0.4c2.7,0.2,5.4-0.3,8.1-0.4c1.4,0,2.9-0.1,4.3-0.3
			c1.5-0.3,3-0.1,4.4-0.5c1-0.1,2-0.2,3-0.1c0.5,0,1,0,1.5,0c0.2,0,0.6-0.3,0.7,0c0.1,0.3,0.1,0.6,0.1,0.9c-0.2,1.5-0.3,3.1-0.6,4.6
			c-0.2,1.7-0.3,3.4-0.2,5.1c0,0.8,0,1.5,0,2.3c0,0.5,0,0.9-0.2,1.3c-0.3,0.9-0.4,1.1-1.2,1.1C80.8,57.5,80.4,57.5,79.9,57.5z
			 M36.9,45.5c-0.3,0.1-0.6,0.2-0.6,0.7c0,0.4,0.3,0.6,0.6,0.7c0.4,0,0.7-0.3,0.7-0.7c0,0,0-0.1,0-0.1
			C37.5,45.7,37.2,45.6,36.9,45.5L36.9,45.5z"/>
	</g>
</g>
</svg>
