<?xml version="1.0" encoding="utf-8"?>
<!-- Generator: Adobe Illustrator 24.1.0, SVG Export Plug-In . SVG Version: 6.00 Build 0)  -->
<svg version="1.1" id="Layer_1" xmlns="http://www.w3.org/2000/svg" xmlns:xlink="http://www.w3.org/1999/xlink" x="0px" y="0px"
	 viewBox="0 0 100 100" style="enable-background:new 0 0 100 100;" xml:space="preserve">
<style type="text/css">
	.st0{fill:#020202;}
	.st1{opacity:0.94;fill:#7C7C7C;enable-background:new    ;}
	.st2{opacity:0.94;fill:#545454;enable-background:new    ;}
	.st3{opacity:0.94;fill:#2B2B2B;enable-background:new    ;}
</style>
<g id="Layer_5">
	<g id="Layer_6">
		<path class="st0" d="M8,87.2C7.7,86,8.4,85,8.4,83.9c0.1-0.6,0.1-1.3-0.1-1.9c-0.2-0.4-0.2-0.8,0-1.2c0.4-1.4,0.6-2.8,0.4-4.2
			c-0.1-0.7,0-1.5,0.2-2.2C9,74.2,9,74,9,73.8c0-3.6,0.5-7.1,0.4-10.7c-0.1-2.8,0-5.7,0-8.5S9.3,49.1,9,46.5c-0.1-1.4,0-2.7-0.2-4.1
			c-0.4-2.5-0.1-5-0.5-7.4c-0.3-1.7-0.5-3.3-0.6-5c-0.1-1.4-0.2-2.8-0.2-4.2c0.1-1,0.1-2.1-0.1-3.1c-0.1-0.2,0-0.4,0.2-0.5
			s0.4-0.1,0.5,0.1c1.4,1.5,3.2,2.5,4.6,3.9c0.3,0.4,0.7,0.7,1.1,0.9c1,0.7,1.9,1.4,2.7,2.2c1,0.9,2,1.8,3.1,2.6
			c0.9,0.7,2,1.1,2.6,2.1c1.5,0.7,2.2,2.3,3.6,3.1c0.6,0.3,1.1,1.1,1.7,1.6c2.2,1.8,4.2,3.9,6.6,5.6c1.5,1.1,2.7,2.5,4.2,3.6
			s2.9,2.7,4.7,3.7c0.6,0.4,1.1,1.1,1.7,1.6c2.2,1.8,4.3,3.7,6.5,5.5c1.6,1.4,3.2,2.7,4.8,4s3.2,2.7,4.8,4.1
			c0.3,0.4,0.7,0.7,1.2,0.8c0.1,0,0.3,0.1,0.4,0.2c0.5,0.9,1.6,1.3,2.3,2c1.9,1.9,4,3.7,6.1,5.4c1.8,1.6,3.7,3.1,5.6,4.7
			c1.1,1.2,2.4,2.2,3.8,3c0.2,0.1,0.3,0.2,0.4,0.4c1.3,1.4,2.7,2.7,4.2,3.8c0.4,0.4,0.9,0.8,1.3,1.2c0.3,0.3,0.2,0.6-0.2,0.7
			c-1.5,0.5-3,0.9-4.5,1.2c-0.3,0-0.7,0.1-1,0.2c-0.9,0.3-1.9,0.4-2.8,0.2c-1.7-0.2-3.5-0.2-5.2,0c-0.3,0-0.6,0-0.9-0.1
			c-1.8-0.2-3.6-0.2-5.4,0.3c-0.3,0.1-0.6,0.1-0.8,0.1c-0.8-0.2-1.7-0.3-2.5-0.1c-1.7,0.2-3.4,0.3-5.1,0.2c-0.6,0-1.2,0.1-1.7,0.3
			c-0.5,0.2-1.1,0.3-1.6,0.1c-0.3-0.1-0.6-0.1-0.8,0c-0.5,0.2-1.1,0.2-1.6,0c-0.2-0.1-0.5-0.1-0.7-0.1c-2.6,0.2-5.2-0.2-7.9,0
			c-0.3,0-0.6,0-0.9,0.1c-0.2,0-0.5,0.2-0.7,0c-0.9-0.4-1.9-0.6-2.9-0.4c-2.2,0-4.4,0.1-6.6,0c-2,0.1-4,0-6-0.3
			c-0.3-0.1-0.7-0.1-1,0c-1.9,0.4-3.7-0.1-5.5-0.1c-1.4,0-2.8-0.3-4.2-0.3c-0.6-0.1-1.2-0.3-1.8-0.6c-1.4-0.4-2.9-0.7-4.3-0.8
			C8.2,88.6,8.1,88.6,8,87.2C8,87.3,8,87.3,8,87.2z M27.2,86.8c-0.3,0-0.7,0-0.7,0.6c0,0.4,0.3,0.6,0.7,0.6l0,0
			c0.3,0,0.6-0.2,0.7-0.5c0,0,0,0,0-0.1C27.9,86.8,27.5,86.8,27.2,86.8L27.2,86.8z M12.5,77.4c0.3,0,0.7-0.1,0.7-0.6
			s-0.4-0.6-0.8-0.6c-0.3,0-0.5,0.2-0.5,0.5c0,0,0,0,0,0.1C11.8,77.2,12,77.4,12.5,77.4L12.5,77.4z M32.5,81.2
			c0.4-0.1,0.6-0.4,0.6-0.8c0-0.4-0.3-0.4-0.6-0.4s-0.7,0.1-0.6,0.6C31.9,80.9,32.2,81.2,32.5,81.2L32.5,81.2z M55.3,75
			c-0.3,0-0.6,0.1-0.6,0.5c0,0.3,0.2,0.6,0.5,0.6l0,0c0.3,0,0.5-0.2,0.5-0.6S55.6,75,55.3,75z M17.5,67.8c0-0.3-0.5-0.7-0.7-0.6
			s-0.3,0.4-0.3,0.6s0.1,0.6,0.5,0.6C17.2,68.3,17.5,68.1,17.5,67.8z M54.2,67.8c0-0.1-0.1-0.3-0.1-0.4s-0.2-0.2-0.3-0.2l0,0
			c-0.3,0.3-0.5,0.6-0.3,1c0.1,0.1,0.2,0.2,0.4,0.2s0.3-0.1,0.3-0.2C54.1,68.1,54.1,67.9,54.2,67.8L54.2,67.8z M16.9,89
			c0.2,0,0.4-0.2,0.4-0.3c0.1-0.3-0.1-0.5-0.4-0.6h-0.1c-0.2,0-0.2,0.1-0.3,0.2C16.4,88.6,16.6,88.9,16.9,89z M25.5,80.2
			c-0.3,0.2-0.2,0.5-0.2,0.8c0,0.1,0.1,0.2,0.2,0.1c0.3-0.1,0.4-0.4,0.2-0.7l0,0C25.7,80.2,25.6,80.2,25.5,80.2L25.5,80.2z M56.4,71
			c0-0.2-0.1-0.3-0.3-0.3c-0.1,0-0.2,0.2-0.2,0.3c0,0.2,0.1,0.4,0.3,0.3S56.4,71.1,56.4,71z M29.7,78.7c0-0.1-0.1-0.3-0.2-0.3
			c-0.2-0.1-0.3,0.1-0.3,0.2s0,0.4,0.3,0.4S29.6,78.9,29.7,78.7z M41.8,86.9c0,0.1,0.1,0.3,0.2,0.3c0.2,0.1,0.3-0.1,0.3-0.2
			s0-0.4-0.3-0.4S41.8,86.8,41.8,86.9z M13.8,87.3c0.1,0.1,0.1,0.2,0.2,0.2c0.3,0.1,0.3-0.2,0.3-0.3c0-0.1-0.1-0.2-0.2-0.3
			C13.9,86.8,13.9,87.1,13.8,87.3L13.8,87.3z"/>
	</g>
</g>
<g id="Layer_4_1_">
	<g id="Layer_2-2">
		<path class="st1" d="M95.6,18.8c0.1,1.7-0.5,3.3-1.8,4.5c-1.2,1.5-2.7,2.6-4.4,3.4c-0.8,0.3-1.4,1-2.3,1c-0.8,0-1.6,0.2-2.4,0.4
			c-0.3,0.1-0.7,0-1-0.1c-0.4,0-0.6,0-0.8,0c-1.8,0.3-3.1-0.7-4.3-1.7c-0.9-0.7-1.6-1.6-2-2.6c-0.3-0.8-0.8-1.6-1.3-2.3
			c-0.6-1.1-0.9-2.3-0.8-3.5c0.2-0.8,0.2-1.6,0.2-2.5c0-0.3,0.1-0.6,0.2-0.8c1.1-1.6,2.3-3,3.7-4.3c1-0.7,2.1-1.4,3.2-2
			c0.7-0.3,1.4-0.4,2.1-0.2c1.5,0.2,3.1,0.6,4.6,1c1.6,0.4,3,1.4,3.9,2.8c0.7,1,1.4,2,2.1,3C95.1,16,95.5,17.4,95.6,18.8z
			 M90.7,15.3c-0.2,0-0.5,0-0.6,0.3s0.1,0.4,0.3,0.6c0.1,0.1,0.2,0.1,0.4,0.2c0.2,0.1,0.4,0.2,0.5,0s0.1-0.3,0.1-0.5
			C91.4,15.3,91.1,15.3,90.7,15.3z"/>
	</g>
</g>
<path class="st2" d="M39.2,16.1c-0.1-1.8,0.9-3.6,2.5-4.4c0.2-0.1,0.3-0.2,0.5-0.3c1.1-0.9,2.6-1.1,3.8-0.6c0.2,0.1,0.5,0.1,0.6,0
	c0.8-0.8,1.4,0,2,0.4c0.5,0.3,1,0.7,1.5,1.1c1.2,1,1.6,2.7,1.1,4.1c-0.2,0.6-0.4,1.2-0.8,1.7c-1.1,1.4-2.4,2.6-3.8,3.6
	c-1.7,1.3-4.2,1-5.5-0.8c-0.1-0.1-0.2-0.2-0.2-0.3C39.8,19.4,39.2,17.8,39.2,16.1z M88.5,48.8c0.1,2.1-0.7,4.2-2.2,5.7
	c-0.3,0.3-0.7,0.5-1.1,0.7c-0.5,0.3-1.1,0.2-1.5-0.1c-0.6-0.3-1.2-0.6-1.9-0.8c-0.4-0.2-0.8-0.4-0.9-0.9c-0.2-0.7-0.9-0.7-1.3-1
	c-0.7-0.5-1.2-1.4-1.3-2.3c-0.1-1-0.1-2,0-3c0.3-1.2,0.8-2.3,1.5-3.3c0.4-0.8,1.3-1.2,2.2-1.2c0.7,0.2,1.4,0.2,2.2,0.2
	c0.2-0.1,0.3,0.2,0.4,0.3c0.3,0.4,0.7,0.7,1.2,0.9c1.6,0.5,2.7,2,2.9,3.6C88.5,48,88.5,48.4,88.5,48.8z M58.6,31.9
	c-0.1-1.8,0.7-3.6,2.3-4.6c0.4-0.4,0.8-0.7,1.3-0.9c0.7-0.4,1.5-0.5,2.2-0.1c0.5,0.3,1.1,0.3,1.7,0.3c1.2-0.1,2.4,0.6,2.8,1.7
	c0.8,1.3,1.2,2.7,1.1,4.2c0,0.4-0.1,0.9-0.3,1.3c-0.9,1.6-2.3,2.9-4,3.6c-0.2,0.1-0.5,0.1-0.7,0.1c-1.3-0.1-2.5-0.5-3.6-1.1
	c-0.2-0.1-0.3-0.2-0.5-0.3C59.3,35.2,58.3,33.6,58.6,31.9z"/>
<g id="Layer_2_1_">
	<g id="Layer_4">
		<path class="st3" d="M32.3,21.6c0,1,0.1,2-0.6,2.8c-0.2,0.3-0.3,0.6-0.3,1c-0.1,0.7-0.3,1.3-0.7,1.9c-0.7,1.2-1.1,2.5-1.3,3.9
			c-0.1,0.2,0,0.4,0.1,0.5c0.3,0.2,0.5,0,0.6-0.1c1.8-1,3.8-1.7,5.9-2c1.5-0.3,3.1-0.4,4.7-0.3c2.7,0.1,5.4,0.7,8,1.6
			c2,0.6,3.4,2.6,3.2,4.7c-0.1,2.4-0.7,4.8-1.7,7.1c-0.8,1.9-1.6,3.8-2.4,5.7c-0.1,0.2-0.2,0.4,0,0.5s0.4,0.1,0.6,0
			c0.2,0,0.4-0.1,0.5-0.2c2-1.1,4.3-1.3,6.5-1.8c0.7,0,1.4,0,2.2,0.1c2.1-0.2,4.2,0.4,6.3,0.3c0.3,0,0.6,0,0.8,0.2
			c0.4,0.3,0.9,0.5,1.5,0.6c1.3,0.4,2.4,1.2,3.1,2.3c1,1.4,1.7,3,1.9,4.7c0.3,2.5,0,5.1-1,7.4c-0.4,1.1-0.7,2.3-1,3.5
			c-0.1,0.4,0.2,0.7,0.6,0.5c1.1-0.5,2.2-0.8,3.3-1.2c1-0.4,2.1-0.7,3.3-0.7c0.8,0,1.7-0.2,2.5-0.2c2.2,0,4.5-0.3,6.7,0.7
			c1.2,0.6,2.6,0.8,3.8,1.4c1.2,0.7,2.3,1.7,3.1,2.8c1.4,1.7,2.1,3.8,2,6c0.1,0.8,0.1,1.5,0,2.3c-0.3,0.7-0.5,1.5-0.7,2.2
			c0,0.2-0.2,0.3-0.3,0.5c-0.7,1.1-1.3,2.2-1.7,3.4c-0.4,1-0.9,2-1.5,3c-0.3,0.6-0.6,0.7-1.2,0.2c-0.3-0.2-0.6-0.5-0.9-0.8
			c-1.5-1.4-3-2.7-4.7-4c-0.8-0.6-1.5-1.3-2.2-2c-0.5-0.6-1.1-1-1.7-1.4c-0.1,0-0.3-0.1-0.4-0.2c-1-1.2-2.1-2.2-3.3-3.1
			c-2.3-2-4.5-4.1-6.9-5.9c-0.6-0.5-1-1.2-1.6-1.7c-1.3-0.9-2.3-2.1-3.5-3.1s-2.1-1.9-3.2-2.8s-2-1.9-3-2.7
			c-1.3-1.2-2.8-2.4-4.3-3.4c-0.4-0.2-0.7-0.5-0.9-0.9c-0.2-0.5-0.6-0.9-1.2-1.1c-0.1,0-0.3-0.1-0.4-0.2c-2-2-4.1-3.9-6.3-5.6
			c-1-0.8-2-1.8-2.9-2.7c-1.8-1.7-3.7-3.3-5.6-4.9c-1.2-1-2.1-2.3-3.6-3c-0.6-0.8-1.4-1.5-2.2-2.1c-1.1-0.9-2.2-1.9-3.3-2.9
			c-0.6-0.6-1.3-1.1-2-1.5c-0.8-0.6-1.5-1.2-2.1-2c-2.1-1.9-4.1-3.9-6.4-5.6c-1.3-1-2.6-2.2-3.8-3.4c-0.7-0.7-0.7-1.1-0.1-1.7
			c1.5-1.3,3.1-2.5,4.8-3.5c0.6-0.2,1.1-0.5,1.5-0.9c0.2-0.2,0.4-0.3,0.6-0.3c1.1-0.3,2.3-0.4,3.4-0.7c2-0.5,4-0.1,5.6,1.1
			c1.3,0.8,2.3,2,3,3.4c0.4,1.1,0.6,2.3,0.7,3.4C32.4,20.9,32.4,21.3,32.3,21.6z M42,36.4c0-0.3-0.3-0.6-0.6-0.7
			c-0.5-0.3-1.1-0.1-1.4,0.3c-0.3,0.5-0.1,1.1,0.3,1.4c0.1,0.1,0.2,0.1,0.4,0.1c0.1,0,0.3,0,0.4,0C41.4,37.1,41.7,36.7,42,36.4z
			 M75.4,67.7c0.2,0,0.5-0.1,0.6-0.3c0.1-0.2-0.3-0.7-0.6-0.7C75.2,66.8,75,67,75,67.2C75,67.4,75.2,67.6,75.4,67.7
			C75.4,67.6,75.4,67.6,75.4,67.7z"/>
	</g>
</g>
</svg>
