<?xml version="1.0" encoding="utf-8"?>
<!-- Generator: Adobe Illustrator 24.1.0, SVG Export Plug-In . SVG Version: 6.00 Build 0)  -->
<svg version="1.1" id="Layer_1" xmlns="http://www.w3.org/2000/svg" xmlns:xlink="http://www.w3.org/1999/xlink" x="0px" y="0px"
	 viewBox="0 0 100 100" style="enable-background:new 0 0 100 100;" xml:space="preserve">
<style type="text/css">
	.st0{fill:none;stroke:#000000;stroke-width:0.125;stroke-miterlimit:10;}
</style>
<g id="Layer_35">
	<rect class="st0" width="100" height="100"/>
</g>
<g id="Layer_34">
	
		<rect x="1.9" y="1.9" transform="matrix(0.9997 -2.404035e-02 2.404035e-02 0.9997 -1.1876 1.2165)" class="st0" width="96.1" height="96.1"/>
</g>
<g id="Layer_33">
	
		<rect x="3.8" y="3.8" transform="matrix(0.9987 -5.006627e-02 5.006627e-02 0.9987 -2.4406 2.566)" class="st0" width="92.3" height="92.3"/>
</g>
<g id="Layer_32">
	
		<rect x="5.7" y="5.7" transform="matrix(0.9969 -7.827421e-02 7.827421e-02 0.9969 -3.7603 4.0671)" class="st0" width="88.6" height="88.6"/>
</g>
<g id="Layer_31">
	<rect x="7.5" y="7.5" transform="matrix(0.9941 -0.1089 0.1089 0.9941 -5.1465 5.7409)" class="st0" width="84.9" height="84.9"/>
</g>
<g id="Layer_30">
	<rect x="9.3" y="9.3" transform="matrix(0.9899 -0.1421 0.1421 0.9899 -6.5969 7.6114)" class="st0" width="81.3" height="81.3"/>
</g>
<g id="Layer_29">
	<rect x="11.1" y="11.1" transform="matrix(0.984 -0.1781 0.1781 0.984 -8.1066 9.7057)" class="st0" width="77.8" height="77.8"/>
</g>
<g id="Layer_28">
	
		<rect x="12.8" y="12.8" transform="matrix(0.9761 -0.2172 0.2172 0.9761 -9.6666 12.054)" class="st0" width="74.5" height="74.5"/>
</g>
<g id="Layer_27">
	
		<rect x="14.4" y="14.4" transform="matrix(0.9657 -0.2595 0.2595 0.9657 -11.2627 14.6889)" class="st0" width="71.2" height="71.2"/>
</g>
<g id="Layer_26">
	
		<rect x="15.9" y="15.9" transform="matrix(0.9523 -0.3052 0.3052 0.9523 -12.8741 17.6451)" class="st0" width="68.1" height="68.1"/>
</g>
<g id="Layer_25">
	
		<rect x="17.4" y="17.4" transform="matrix(0.9351 -0.3543 0.3543 0.9351 -14.4712 20.9575)" class="st0" width="65.2" height="65.2"/>
</g>
<g id="Layer_24">
	
		<rect x="18.8" y="18.8" transform="matrix(0.9136 -0.4067 0.4067 0.9136 -16.0138 24.6588)" class="st0" width="62.5" height="62.5"/>
</g>
<g id="Layer_23">
	
		<rect x="19.9" y="19.9" transform="matrix(0.9055 -0.4244 0.4244 0.9055 -16.4936 25.9459)" class="st0" width="60.2" height="60.2"/>
</g>
<g id="Layer_22">
	
		<rect x="21.1" y="21.1" transform="matrix(0.8941 -0.4478 0.4478 0.8941 -17.0975 27.6857)" class="st0" width="57.8" height="57.8"/>
</g>
<g id="Layer_21">
	
		<rect x="22.3" y="22.3" transform="matrix(0.8811 -0.4729 0.4729 0.8811 -17.7014 29.591)" class="st0" width="55.4" height="55.4"/>
</g>
<g id="Layer_20">
	
		<rect x="23.4" y="23.4" transform="matrix(0.8662 -0.4998 0.4998 0.8662 -18.2966 31.6811)" class="st0" width="53.1" height="53.1"/>
</g>
<g id="Layer_19">
	
		<rect x="24.5" y="24.5" transform="matrix(0.8489 -0.5285 0.5285 0.8489 -18.8714 33.9772)" class="st0" width="50.9" height="50.9"/>
</g>
<g id="Layer_18">
	
		<rect x="25.6" y="25.6" transform="matrix(0.8291 -0.5591 0.5591 0.8291 -19.4104 36.5021)" class="st0" width="48.7" height="48.7"/>
</g>
<g id="Layer_17">
	
		<rect x="26.7" y="26.7" transform="matrix(0.8061 -0.5917 0.5917 0.8061 -19.8933 39.2796)" class="st0" width="46.6" height="46.6"/>
</g>
<g id="Layer_16">
	
		<rect x="27.7" y="27.7" transform="matrix(0.7796 -0.6263 0.6263 0.7796 -20.2939 42.3341)" class="st0" width="44.6" height="44.6"/>
</g>
<g id="Layer_15">
	
		<rect x="28.7" y="28.7" transform="matrix(0.7489 -0.6627 0.6627 0.7489 -20.5791 45.6889)" class="st0" width="42.7" height="42.7"/>
</g>
<g id="Layer_14">
	
		<rect x="29.6" y="29.6" transform="matrix(0.7134 -0.7007 0.7007 0.7134 -20.7078 49.3639)" class="st0" width="40.8" height="40.8"/>
</g>
<g id="Layer_13">
	
		<rect x="30.5" y="30.5" transform="matrix(0.688 -0.7257 0.7257 0.688 -20.6854 51.8895)" class="st0" width="38.9" height="38.9"/>
</g>
<g id="Layer_12">
	
		<rect x="31.3" y="31.3" transform="matrix(0.6703 -0.7421 0.7421 0.6703 -20.6196 53.5883)" class="st0" width="37.4" height="37.4"/>
</g>
<g id="Layer_11">
	<rect x="32" y="32" transform="matrix(0.6508 -0.7593 0.7593 0.6508 -20.5022 55.4261)" class="st0" width="35.9" height="35.9"/>
</g>
<g id="Layer_10">
	
		<rect x="32.8" y="32.8" transform="matrix(0.629 -0.7774 0.7774 0.629 -20.3207 57.4166)" class="st0" width="34.5" height="34.5"/>
</g>
<g id="Layer_9">
	<rect x="33.5" y="33.5" transform="matrix(0.6049 -0.7963 0.7963 0.6049 -20.0595 59.5741)" class="st0" width="33" height="33"/>
</g>
<g id="Layer_8">
	
		<rect x="34.2" y="34.2" transform="matrix(0.5779 -0.8161 0.8161 0.5779 -19.6998 61.9136)" class="st0" width="31.6" height="31.6"/>
</g>
<g id="Layer_7">
	
		<rect x="34.9" y="34.9" transform="matrix(0.5477 -0.8367 0.8367 0.5477 -19.2185 64.45)" class="st0" width="30.3" height="30.3"/>
</g>
<g id="Layer_6">
	<rect x="35.5" y="35.5" transform="matrix(0.5139 -0.8579 0.8579 0.5139 -18.5875 67.1977)" class="st0" width="29" height="29"/>
</g>
<g id="Layer_5">
	
		<rect x="36.1" y="36.1" transform="matrix(0.476 -0.8794 0.8794 0.476 -17.7733 70.1688)" class="st0" width="27.7" height="27.7"/>
</g>
<g id="Layer_4">
	
		<rect x="36.7" y="36.7" transform="matrix(0.4336 -0.9011 0.9011 0.4336 -16.7364 73.372)" class="st0" width="26.5" height="26.5"/>
</g>
<g id="Layer_3">
	
		<rect x="37.3" y="37.3" transform="matrix(0.3862 -0.9224 0.9224 0.3862 -15.4311 76.8099)" class="st0" width="25.4" height="25.4"/>
</g>
<g id="Layer_2">
	
		<rect x="37.8" y="37.8" transform="matrix(0.3333 -0.9428 0.9428 0.3333 -13.8062 80.4758)" class="st0" width="24.3" height="24.3"/>
</g>
</svg>
