<?xml version="1.0" encoding="utf-8"?>
<!-- Generator: Adobe Illustrator 24.1.0, SVG Export Plug-In . SVG Version: 6.00 Build 0)  -->
<svg version="1.1" xmlns="http://www.w3.org/2000/svg" xmlns:xlink="http://www.w3.org/1999/xlink" x="0px" y="0px"
	 viewBox="0 0 100 100" style="enable-background:new 0 0 100 100;" xml:space="preserve">
<style type="text/css">
	.st0{fill:none;stroke:#000000;stroke-width:0.25;stroke-miterlimit:10;}
</style>
<g id="Layer_25">
	<path d="M0,100"/>
</g>
<g id="Layer_24">
	<path class="st0" d="M0,100L0,100C0,44.8,44.8,0,100,0h0"/>
</g>
<g id="Layer_23">
	<path class="st0" d="M100,0L100,0C47.4,2.6,2.6,47.4,0,100"/>
</g>
<g id="Layer_22">
	<path class="st0" d="M100,0L100,0C50,5.3,5.3,50,0,100"/>
</g>
<g id="Layer_21">
	<path class="st0" d="M100,0L100,0C52.7,7.9,7.9,52.7,0,100"/>
</g>
<g id="Layer_20">
	<path class="st0" d="M100,0L100,0C55.3,10.5,10.5,55.3,0,100"/>
</g>
<g id="Layer_19">
	<path class="st0" d="M100,0L100,0C57.9,13.1,13.1,57.9,0,100"/>
</g>
<g id="Layer_18">
	<path class="st0" d="M100,0L100,0C60.6,15.8,15.8,60.6,0,100"/>
</g>
<g id="Layer_17">
	<path class="st0" d="M100,0L100,0C63.2,18.4,18.4,63.2,0,100"/>
</g>
<g id="Layer_16">
	<path class="st0" d="M100,0L100,0C65.8,21,21,65.8,0,100"/>
</g>
<g id="Layer_15">
	<path class="st0" d="M100,0L100,0C68.4,23.7,23.7,68.4,0,100"/>
</g>
<g id="Layer_14">
	<path class="st0" d="M100,0L100,0C71.1,26.3,26.3,71.1,0,100"/>
</g>
<g id="Layer_13">
	<path class="st0" d="M100,0L100,0C73.7,28.9,28.9,73.7,0,100"/>
</g>
<g id="Layer_12">
	<path class="st0" d="M100,0L100,0C76.3,31.6,31.6,76.3,0,100"/>
</g>
<g id="Layer_11">
	<path class="st0" d="M100,0L100,0C79,34.2,34.2,79,0,100"/>
</g>
<g id="Layer_10">
	<path class="st0" d="M100,0L100,0C81.6,36.8,36.8,81.6,0,100"/>
</g>
<g id="Layer_9">
	<path class="st0" d="M100,0L100,0C84.2,39.4,39.4,84.2,0,100"/>
</g>
<g id="Layer_8">
	<path class="st0" d="M100,0L100,0C86.9,42.1,42.1,86.9,0,100"/>
</g>
<g id="Layer_7">
	<path class="st0" d="M100,0L100,0C89.5,44.7,44.7,89.5,0,100"/>
</g>
<g id="Layer_6">
	<path class="st0" d="M100,0L100,0C92.1,47.3,47.3,92.1,0,100"/>
</g>
<g id="Layer_5">
	<path class="st0" d="M100,0L100,0C94.7,50,50,94.7,0,100"/>
</g>
<g id="Layer_4">
	<path class="st0" d="M100,0L100,0C97.4,52.6,52.6,97.4,0,100"/>
</g>
<g id="Layer_3">
	<path class="st0" d="M100,0L100,0c0,55.2-44.8,100-100,100"/>
</g>
</svg>
