<?xml version="1.0" encoding="utf-8"?>
<!-- Generator: Adobe Illustrator 24.1.0, SVG Export Plug-In . SVG Version: 6.00 Build 0)  -->
<svg version="1.1" xmlns="http://www.w3.org/2000/svg" xmlns:xlink="http://www.w3.org/1999/xlink" x="0px" y="0px"
	 viewBox="0 0 100 100" style="enable-background:new 0 0 100 100;" xml:space="preserve">
<style type="text/css">
	.st0{fill:none;stroke:#000000;stroke-width:0.25;stroke-miterlimit:10;}
</style>
<g id="Layer_1">
</g>
<g id="Layer_15">
	<polyline class="st0" points="0,100 0,0 100,0 	"/>
</g>
<g id="Layer_14">
	<polyline class="st0" points="100,0 8.3,8.3 0,100 	"/>
</g>
<g id="Layer_13">
	<polyline class="st0" points="100,0 16.7,16.7 0,100 	"/>
</g>
<g id="Layer_12">
	<polyline class="st0" points="100,0 25,25 0,100 	"/>
</g>
<g id="Layer_11">
	<polyline class="st0" points="100,0 33.3,33.3 0,100 	"/>
</g>
<g id="Layer_10">
	<polyline class="st0" points="100,0 41.7,41.7 0,100 	"/>
</g>
<g id="Layer_9">
	<line class="st0" x1="100" y1="0" x2="0" y2="100"/>
</g>
<g id="Layer_8">
	<polyline class="st0" points="100,0 100,100 0,100 	"/>
</g>
<g id="Layer_7">
	<polyline class="st0" points="0,100 91.7,91.7 100,0 	"/>
</g>
<g id="Layer_6">
	<polyline class="st0" points="0,100 83.3,83.3 100,0 	"/>
</g>
<g id="Layer_5">
	<polyline class="st0" points="0,100 75,75 100,0 	"/>
</g>
<g id="Layer_4">
	<polyline class="st0" points="0,100 66.7,66.7 100,0 	"/>
</g>
<g id="Layer_3">
	<polyline class="st0" points="0,100 58.3,58.3 100,0 	"/>
</g>
<g id="Layer_2">
	<line class="st0" x1="0" y1="100" x2="100" y2="0"/>
</g>
</svg>
