<?xml version="1.0" encoding="utf-8"?>
<!-- Generator: Adobe Illustrator 24.1.0, SVG Export Plug-In . SVG Version: 6.00 Build 0)  -->
<svg version="1.1" id="Layer_1" xmlns="http://www.w3.org/2000/svg" xmlns:xlink="http://www.w3.org/1999/xlink" x="0px" y="0px"
	 viewBox="0 0 100 100" style="enable-background:new 0 0 100 100;" xml:space="preserve">
<style type="text/css">
	.st0{fill:none;stroke:#000000;stroke-width:0.25;stroke-miterlimit:10;}
</style>
<g id="Layer_1_1_">
</g>
<g id="Layer_15">
	<path class="st0" d="M0,100V35.9C0,16.1,16.1,0,35.9,0H100"/>
</g>
<g id="Layer_14">
	<path class="st0" d="M100,0L38.2,5.6C20.9,7.2,7.2,20.9,5.6,38.2L0,100"/>
</g>
<g id="Layer_13">
	<path class="st0" d="M100,0L40.2,12C26,14.8,14.8,26,12,40.2L0,100"/>
</g>
<g id="Layer_12">
	<path class="st0" d="M100,0L42,19.3c-10.7,3.6-19.2,12-22.7,22.7L0,100"/>
</g>
<g id="Layer_11">
	<path class="st0" d="M100,0L44,27.9c-7,3.5-12.6,9.1-16.1,16.1L0,100"/>
</g>
<g id="Layer_10">
	<path class="st0" d="M100,0L46.6,38.2c-3.2,2.3-6,5.1-8.3,8.3L0,100"/>
</g>
<g id="Layer_9">
	<line class="st0" x1="100" y1="0" x2="0" y2="100"/>
</g>
<g id="Layer_8">
	<path class="st0" d="M100,0v64.1c0,19.9-16.1,35.9-35.9,35.9H0"/>
</g>
<g id="Layer_7">
	<path class="st0" d="M0,100l61.8-5.6c17.3-1.6,31-15.3,32.6-32.6L100,0"/>
</g>
<g id="Layer_6">
	<path class="st0" d="M0,100l59.8-12C74,85.2,85.2,74,88,59.8L100,0"/>
</g>
<g id="Layer_5">
	<path class="st0" d="M0,100l58-19.3c10.7-3.6,19.2-12,22.7-22.7L100,0"/>
</g>
<g id="Layer_4">
	<path class="st0" d="M0,100l56-27.9c7-3.5,12.6-9.1,16.1-16.1L100,0"/>
</g>
<g id="Layer_3">
	<path class="st0" d="M0,100l53.4-38.2c3.2-2.3,6-5.1,8.3-8.3L100,0"/>
</g>
<g id="Layer_2_1_">
	<line class="st0" x1="0" y1="100" x2="100" y2="0"/>
</g>
</svg>
