<?xml version="1.0" encoding="utf-8"?>
<!-- Generator: Adobe Illustrator 24.1.0, SVG Export Plug-In . SVG Version: 6.00 Build 0)  -->
<svg version="1.1" id="Layer_1" xmlns="http://www.w3.org/2000/svg" xmlns:xlink="http://www.w3.org/1999/xlink" x="0px" y="0px"
	 viewBox="0 0 100 100" style="enable-background:new 0 0 100 100;" xml:space="preserve">
<style type="text/css">
	.st0{fill:none;stroke:#000000;stroke-width:0.3083;stroke-miterlimit:10;}
	.st1{fill:none;stroke:#000000;stroke-width:0.3076;stroke-miterlimit:10;}
	.st2{fill:none;stroke:#000000;stroke-width:0.307;stroke-miterlimit:10;}
	.st3{fill:none;stroke:#000000;stroke-width:0.3064;stroke-miterlimit:10;}
	.st4{fill:none;stroke:#000000;stroke-width:0.3057;stroke-miterlimit:10;}
</style>
<g id="Layer_10">
	<path class="st0" d="M4.4,95.6L4.4,95.6c-1.8-1.8-1.8-4.7,0-6.5L89.1,4.4c1.8-1.8,4.7-1.8,6.5,0l0,0c1.8,1.8,1.8,4.7,0,6.5
		L10.9,95.6C9.1,97.4,6.2,97.4,4.4,95.6z"/>
</g>
<g id="Layer_9">
	<path class="st1" d="M96.4,23.1c1.8,1.8,1.8,4.7,0,6.5L29.6,96.4c-1.8,1.8-4.7,1.8-6.5,0l0,0c-1.8-1.8-1.8-4.7,0-6.5l66.8-66.8
		C91.7,21.3,94.6,21.3,96.4,23.1L96.4,23.1z"/>
</g>
<g id="Layer_8">
	<path class="st2" d="M97.1,41.7c1.8,1.8,1.8,4.7,0,6.5L48.3,97.1c-1.8,1.8-4.7,1.8-6.5,0l0,0c-1.8-1.8-1.8-4.7,0-6.5l48.9-48.9
		C92.4,39.9,95.3,39.9,97.1,41.7L97.1,41.7z"/>
</g>
<g id="Layer_7">
	<path class="st3" d="M97.9,60.4c1.8,1.8,1.8,4.7,0,6.5l-31,31c-1.8,1.8-4.7,1.8-6.5,0l0,0c-1.8-1.8-1.8-4.7,0-6.5l31-31
		C93.2,58.6,96.1,58.6,97.9,60.4L97.9,60.4z"/>
</g>
<g id="Layer_6">
	<path class="st4" d="M98.7,79.1L98.7,79.1c-1.8-1.8-4.7-1.8-6.5,0l-13,13c-1.8,1.8-1.8,4.7,0,6.5l0,0c1.8,1.8,4.7,1.8,6.5,0l13-13
		C100.4,83.8,100.4,80.9,98.7,79.1z"/>
</g>
<g id="Layer_5">
	<path class="st1" d="M3.6,76.9c-1.8-1.8-1.8-4.7,0-6.5L70.4,3.6c1.8-1.8,4.7-1.8,6.5,0l0,0c1.8,1.8,1.8,4.7,0,6.5L10.1,76.9
		C8.3,78.7,5.4,78.7,3.6,76.9L3.6,76.9z"/>
</g>
<g id="Layer_4">
	<path class="st2" d="M2.9,58.3c-1.8-1.8-1.8-4.7,0-6.5L51.7,2.9c1.8-1.8,4.7-1.8,6.5,0l0,0c1.8,1.8,1.8,4.7,0,6.5L9.4,58.3
		C7.6,60.1,4.7,60.1,2.9,58.3L2.9,58.3z"/>
</g>
<g id="Layer_3">
	<path class="st3" d="M2.1,39.6c-1.8-1.8-1.8-4.7,0-6.5l31-31c1.8-1.8,4.7-1.8,6.5,0l0,0c1.8,1.8,1.8,4.7,0,6.5l-31,31
		C6.8,41.4,3.9,41.4,2.1,39.6L2.1,39.6z"/>
</g>
<g id="Layer_2">
	<path class="st4" d="M1.3,20.9L1.3,20.9c1.8,1.8,4.7,1.8,6.5,0l13-13c1.8-1.8,1.8-4.7,0-6.5l0,0c-1.8-1.8-4.7-1.8-6.5,0l-13,13
		C-0.4,16.2-0.4,19.1,1.3,20.9z"/>
</g>
</svg>
