<?xml version="1.0" encoding="utf-8"?>
<!-- Generator: Adobe Illustrator 24.1.0, SVG Export Plug-In . SVG Version: 6.00 Build 0)  -->
<svg version="1.1" xmlns="http://www.w3.org/2000/svg" xmlns:xlink="http://www.w3.org/1999/xlink" x="0px" y="0px"
	 viewBox="0 0 100 100" style="enable-background:new 0 0 100 100;" xml:space="preserve">
<g id="Layer_16">
	<polygon points="100,0 70.5,70.5 63.4,63.4 89.9,0 	"/>
</g>
<g id="Layer_15">
	<polygon points="89.9,0 63.4,63.4 56.2,56.2 79.8,0 	"/>
</g>
<g id="Layer_14">
	<polygon points="79.8,0 56.2,56.2 49.1,49.1 69.7,0 	"/>
</g>
<g id="Layer_13">
	<polygon points="69.7,0 49.1,49.1 42,42 59.5,0 	"/>
</g>
<g id="Layer_12">
	<polygon points="59.5,0 42,42 34.8,34.8 49.4,0 	"/>
</g>
<g id="Layer_11">
	<polygon points="49.4,0 34.8,34.8 27.7,27.7 39.3,0 	"/>
</g>
<g id="Layer_10">
	<polygon points="39.3,0 27.7,27.7 20.6,20.6 29.2,0 	"/>
</g>
<g id="Layer_9_1_">
	<polygon points="29.2,0 20.6,20.6 13.5,13.5 19.1,0 	"/>
</g>
<g id="Layer_8_1_">
	<polygon points="19.1,0 13.5,13.5 6.3,6.3 9,0 	"/>
</g>
<g id="Layer_7">
	<polygon points="9,0 6.3,6.3 0,0 	"/>
</g>
<g id="Layer_2">
	<path d="M100,0c0,27.6-11.2,52.6-29.3,70.7l-0.2-0.2L100,0z"/>
</g>
</svg>
