<?xml version="1.0" encoding="utf-8"?>
<!-- Generator: Adobe Illustrator 24.1.0, SVG Export Plug-In . SVG Version: 6.00 Build 0)  -->
<svg version="1.1" id="Layer_1" xmlns="http://www.w3.org/2000/svg" xmlns:xlink="http://www.w3.org/1999/xlink" x="0px" y="0px"
	 viewBox="0 0 100 100" style="enable-background:new 0 0 100 100;" xml:space="preserve">
<path id="Layer_2_1_" d="M0,100c18.5-5.7,23.1,0,29.9-3.3c6-2.9,0.6-15.3,4.1-17.3c6-3.4,16.4,6.3,24.3,4.5c4.9-1.2,6-6,5-9.3
	c-1.4-5.3-5.3-11.1-1.7-15.3s16.2,4.8,20,0.4c5.4-6.4-4.7-20.1,0.2-25c3.4-3.4,7.8,1.3,12-1.3c3.9-2.4,0.5-8,1.1-17.3
	c0.4-5.6,2.2-11.1,5.1-16c-4.8,4.5-11.7,11.6-22.3,14.8c-15.3,4.6-20.3,3.2-26.4,9.9c-10,10.9-2.3,22.1-6.6,30.9
	c-4.2,8.6-25.3-1.3-34.7,7.6c-3.1,2.9-0.8,12.4-0.8,23.3C9.1,93.1,3.1,97.2,0,100z"/>
</svg>
