<?xml version="1.0" encoding="utf-8"?>
<!-- Generator: Adobe Illustrator 24.1.0, SVG Export Plug-In . SVG Version: 6.00 Build 0)  -->
<svg version="1.1" id="Layer_1" xmlns="http://www.w3.org/2000/svg" xmlns:xlink="http://www.w3.org/1999/xlink" x="0px" y="0px"
	 viewBox="0 0 100 100" style="enable-background:new 0 0 100 100;" xml:space="preserve">
<path id="Layer_2_1_" d="M0,100c2.5-2,5.3-3.5,8.3-4.6c10.9-4,17-0.2,22.2-3.1c7.6-4.2,0.2-10.5,3.1-18.7c3.1-9,22.8-4.8,29.3-16
	c3.9-6.7-2.3-10.2,1.2-19.3C67.9,28.2,77.6,28,89.3,15.4C93.6,10.8,97.2,5.6,100,0c-4.8,4.6-10.4,8.3-16.6,10.7
	c-13.7,5.3-19.5,0.9-27,6.6C42.8,28,50.6,44,41.5,43.6c-2.3-0.1-3.7-5.8-6.4-5.4c-9.7,1.6-3.1,22.8-14,30.4
	c-3.9,2.8-6.9-11.3-10.5-10.5C2.9,59.7,2,89.6,0,100z"/>
</svg>
