<?xml version="1.0" encoding="utf-8"?>
<!-- Generator: Adobe Illustrator 24.1.0, SVG Export Plug-In . SVG Version: 6.00 Build 0)  -->
<svg version="1.1" id="Layer_1" xmlns="http://www.w3.org/2000/svg" xmlns:xlink="http://www.w3.org/1999/xlink" x="0px" y="0px"
	 viewBox="0 0 100 100" style="enable-background:new 0 0 100 100;" xml:space="preserve">
<path id="Layer_2_1_" d="M0,100c1.9-1.1,5.8-5.3,17.7-6.7C36.9,91,62.3,94,63.4,77.6C64.1,66.9,47,56.1,52.2,46.5
	C59,33.8,79.7,57.1,91.8,48c10.9-8.3-2.3-23.2,8.2-48c-4.3,4.2-10.3,11.4-21.5,9.5C64,7,51.7-4.3,37.6,4.6c-7.6,4.8-3,14.8-3,20.4
	c0,7.7-20,3.2-25.1,15.9C6,49.3,22.2,58.3,18.8,67.7c-1.8,4.8-4.3,1.7-9.7,7.3S8.6,86.3,0,100z"/>
</svg>
