<?xml version="1.0" encoding="utf-8"?>
<!-- Generator: Adobe Illustrator 24.1.0, SVG Export Plug-In . SVG Version: 6.00 Build 0)  -->
<svg version="1.1" id="Layer_1" xmlns="http://www.w3.org/2000/svg" xmlns:xlink="http://www.w3.org/1999/xlink" x="0px" y="0px"
	 viewBox="0 0 100 100" style="enable-background:new 0 0 100 100;" xml:space="preserve">
<path id="Layer_2_1_" d="M0,100c2.8-5.1,7.3-9.1,12.8-11.2c17.9-6.2,33,5.9,46.3,4c16-2.3,2.2-27.7,12-36.5
	c6.8-6.2,11.8,0.2,17.2-3.5c5.6-3.9,2.1-12,2.8-23.6c0.4-7,4.7-16.9,9.1-29.2c-2.8,3.4-6.3,6.1-10.2,7.9c-5.3,2.4-16.9-2.8-19.8,5.3
	c-1.7,4.9,8.2,7.8,6,13.6c-1.3,3.6-10.9-3.4-15.8,2c-4.5,4.9,6.3,10,4.3,13.6c-2.3,4.3-12.4-5-19.8,3.7c-3.9,4.6,3,13.6-0.3,16.6
	c-3,2.7-9.5-3.4-15.9-3.3C21.5,59.6,11.7,66.8,0,100z"/>
</svg>
