<?xml version="1.0" encoding="utf-8"?>
<!-- Generator: Adobe Illustrator 24.1.0, SVG Export Plug-In . SVG Version: 6.00 Build 0)  -->
<svg version="1.1" id="Layer_1" xmlns="http://www.w3.org/2000/svg" xmlns:xlink="http://www.w3.org/1999/xlink" x="0px" y="0px"
	 viewBox="0 0 100 100" style="enable-background:new 0 0 100 100;" xml:space="preserve">
<path id="Layer_2_1_" d="M0,100c-0.8-26.8,10.2-20.8,14.8-32.9c1.6-4.1-1.2-11.2,0.5-14.9c4.8-10.6,19.9-2.6,24.6-8
	c2.7-3-7.1-10.3-3.7-17c4.4-8.5,25,1.7,27.8-2.6c3.2-4.9-2.6-9.8,1.2-15C68.3,5.4,77.4,3,100,0c-9,8.2-14.3,14.3-19.5,25.4
	c-9.7,20.6,15,24.6,8.5,33c-5.2,6.7-24.4-9.8-28.7-3.3C55.9,62,72.7,79.8,64.1,87c-11.1,9.3-34.2-9.4-48-2.6
	C9.3,87.9,3.7,93.3,0,100z"/>
</svg>
