<?xml version="1.0" encoding="utf-8"?>
<!-- Generator: Adobe Illustrator 24.1.0, SVG Export Plug-In . SVG Version: 6.00 Build 0)  -->
<svg version="1.1" id="Layer_1" xmlns="http://www.w3.org/2000/svg" xmlns:xlink="http://www.w3.org/1999/xlink" x="0px" y="0px"
	 viewBox="0 0 100 100" style="enable-background:new 0 0 100 100;" xml:space="preserve">
<path id="Layer_2_1_" d="M0,100c14.9-11.5,19.5-0.8,28.5-8c14.2-11.4,3.1-21.8,12.9-35.2c7.6-10.5,15.1-6.3,29.3-12.5
	c6.1-2.6,20-17.9,29.3-44.4c-2.5,3.5-5.8,6.3-9.8,8.1c-13.9,6.2-20.9-5.6-25.5-1.2c-2.7,2.5-0.6,15.9-9.4,18
	c-12.6,2.9-13.2-3.6-19.1-6.2C30.7,16.3,22.5,19.5,21,23c-2.1,5,8.7,7.4,10.1,17.5c0.6,4.2-0.5,9.5-5.6,11.2
	c-5.4,1.8-11.3-5.6-13.8-2.1c-4.6,6.6,15.4,4.8,12.4,18.5c-1,4.6-14.7,1.8-15.8,6c-0.7,2.7,7.9,4.9,3.7,8.7C4,90.4,3.1,94.6,0,100z"
	/>
</svg>
