<?xml version="1.0" encoding="utf-8"?>
<!-- Generator: Adobe Illustrator 24.1.0, SVG Export Plug-In . SVG Version: 6.00 Build 0)  -->
<svg version="1.1" id="Layer_1" xmlns="http://www.w3.org/2000/svg" xmlns:xlink="http://www.w3.org/1999/xlink" x="0px" y="0px"
	 viewBox="0 0 100 100" style="enable-background:new 0 0 100 100;" xml:space="preserve">
<path id="Layer_2_1_" d="M0,100c1.1-1.6,1.9-3.3,2.4-5.2c3.9-19.4,10.1-14.5,13.2-20.7c5.9-11.7-2.3-15.2-1.7-20.8
	c0.9-9.4,18-5.5,24-12.8c6.4-7.7-4.6-18.3,0.1-24.6c9.7-13.3,16.6-1.3,36.3-1.7C86,13.9,94.3,5.4,100,0c-7.5,13-10.9,20.2-16.8,24
	c-11.1,7.2-17.5-3-27.1,5.8c-1.3,1.2-0.2,9.2,9.2,12.1c9.7,2.9,16.4,1.1,20,5.4c5.8,7,1.6,15.4-1.2,17.3
	c-9.6,6.6-35.7-11.5-42.1-7.2c-3.3,2.2-5.6,7-4.9,10.8c1.1,6.5,8.3,7.7,11.2,13.3c4.3,8.3-1.6,13.4-9.1,11.6
	c-11.9-2.8-8.1-7.8-15.3-9.4c-2.5-0.7-5.2-0.1-7.3,1.5c-3,2.1-2.4,5.2-5,8.8C9.8,96.2,6.7,98.9,0,100z"/>
</svg>
