<?xml version="1.0" encoding="utf-8"?>
<!-- Generator: Adobe Illustrator 24.1.0, SVG Export Plug-In . SVG Version: 6.00 Build 0)  -->
<svg version="1.1" id="Layer_2" xmlns="http://www.w3.org/2000/svg" xmlns:xlink="http://www.w3.org/1999/xlink" x="0px" y="0px"
	 viewBox="0 0 100 100" style="enable-background:new 0 0 100 100;" xml:space="preserve">
<path id="Layer_2_1_" d="M0,100c3.4-2.2,7.2-3.8,11.2-4.8c4.8-1.1,6.8-0.4,9.6-2.4c3.8-2.6,2.7-5.7,5.7-8.1c5.5-4.3,13,2.6,18.3-1
	s1.5-11.3,5.7-16.1c5.7-6.5,17.2,4.1,22.1-0.9c8.5-8.6,1.3-21.2,4.9-24.2c5.2-4.4,12.1,0.8,15.9-3.6s1.4-9.6,0-21.8
	C92.6,9.8,97.3,3.9,100,0c-7.5,8.8-21.6,13.3-29.9,12.3c-6-0.7-9.9-4.1-14.3-0.4c-8.4,7-4.7,19.6-11.2,23.1
	c-5.7,3.1-20.2-10.4-26.1-5.3c-7.9,6.8,6,31.7,1.5,35.7c-4.2,3.7-9-2.2-12.5,0.9C4,69.6,5.5,76.6,6,86.3C6.2,92.4,2.2,97,0,100z"/>
</svg>
