<?xml version="1.0" encoding="utf-8"?>
<!-- Generator: Adobe Illustrator 24.1.3, SVG Export Plug-In . SVG Version: 6.00 Build 0)  -->
<svg version="1.1" id="Layer_1" xmlns="http://www.w3.org/2000/svg" xmlns:xlink="http://www.w3.org/1999/xlink" x="0px" y="0px"
	 viewBox="0 0 327.2 327.5" style="enable-background:new 0 0 327.2 327.5;" xml:space="preserve">
<path id="Layer_2_1_" d="M245.2,244.6c-1,28.1,44.7,35,43.3,3.1c-2.3-28.6-1.1-45.9,14.3-71.1l-0.1,0.2
	c7.1-13.6,10.7-28.5,11.4-43.8c0.5-7,0-0.1,0-0.1c1.8-16.6-0.9-33.2-5.8-49.1l0.1,0.2c-3.9-31.3-61.4-48.4-62.3-9c0,0.1,0,0.2,0,0.3
	c0,0,0-0.1,0-0.2v0.3v-0.1c10.5,29,39.5,31.2,32.1,72.6l0,0l0,0l0,0l0,0c-2.2,11.4-8.5,21.5-14,31.6c-0.4,0.7-1.6,3-1.5,2.8
	C252,201.3,244.6,222.6,245.2,244.6z M0,327.5L0,231c11.6,1.4,15.9,11.1,21.5,18c8.3,9.4,24.3,14.4,29.9,10
	c6.7-5.4-6.9-20.3-1.1-39.8c5.3-17.8,20.2-17.9,23.5-34.4c3-15-5.4-34.6-17.1-37.8c-17.2-4.6-33.8,27.8-47,22.9
	C2.2,167-0.3,153.1-0.4,136.1C-0.4,136.1,0,0,0,0l53.1,0c20.4,18,5.3,43.3-9.4,58.6c-37.3,50.1,16.6,42.7,46.9,23
	c17.6-5.4,13.9,21.3,13.3,31.8v-0.3c-0.6,5.7-1.8,11.5-2.9,17.1v-0.1c0,0.1,0,0,0,0.2c0,0,0,0,0,0.1c-12.9,27.8,6.1,60,34.1,34
	c11.3-10.8,14.9-27.8,27.8-37c0.6-0.5,1.3-0.9,1.9-1.2c9.3-5.7,17.7,4.9,24.5,10.1c0.1,0.1,1.4,1.2,1.5,1.3l-0.1-0.1l0.3,0.2
	c12.2,15.8,60.9,17.3,51-10.2c-9.7-9.2-23.9-11.8-34.1-20.4l0.1,0.1l-0.2-0.1l-0.3-0.3l0.2,0.2c-12.1-10-4.9-24.9,6-32.4
	c20.2-13.1,56.6-51.5,7.6-48.5c-16.7,3.2-30.5,14.3-46.2,20.3l0.2-0.1c-0.1,0.2-0.5,0.3-0.7,0.4c0,0-0.2,0-0.2,0l-0.1,0.1l-0.7,0.3
	l-0.3,0.1l-0.1,0.1l-0.3,0.1h0.1c-0.2,0-0.5,0.2-0.7,0.3h0.1c-0.1,0-0.4,0-0.5,0c-6.1,2.5-12.1,4.8-18.5,6.4
	c-15.8,4.7-35.5,3.6-39.5-15.7c-1.5-4.7-1-10,1.6-14.2c0,0.1-0.1,0.2-0.1,0.2C124.7,9.9,143.3,6,158.3,0h168.9v327.5l-129.1,0.2
	c-1.9-7.1-3.1-14.6-2.7-22v0.1v-0.1c0.4-4.2,1.5-8.1,3-12.1v-0.1c5.9-12.8,13-25.5,14.7-39.7c1.2-8.6,1.4-17.4-0.7-25.9
	c-0.4-1.2-1-3.5-1.3-3.9l-0.1-0.1l0.1,0.2c-25.5-43.7-45-1.6-45.3,29.6c0-0.1,0.1-0.2,0.1-0.2l-0.2,0.9l0.1-0.2
	c-5.8,19.7-27.8,3-40.3,0.3c-26.5-9.1-36.1,12.8-14.7,29.3c-1.9,1.1-4.2,1.4-6.3,1.8c-20.9-2.7-56.7,21-25.2,35.6c1,0.5,2,1,3,1.4
	c0.1,0,0.2,0,0.3,0h-0.1c3.2,1.4,9.3,4.9,9.3,4.9L0,327.5z"/>
</svg>
