<?xml version="1.0" encoding="utf-8"?>
<!-- Generator: Adobe Illustrator 24.1.3, SVG Export Plug-In . SVG Version: 6.00 Build 0)  -->
<svg version="1.1" id="Layer_1" xmlns="http://www.w3.org/2000/svg" xmlns:xlink="http://www.w3.org/1999/xlink" x="0px" y="0px"
	 viewBox="0 0 323.5 323.8" style="enable-background:new 0 0 323.5 323.8;" xml:space="preserve">
<path id="Layer_2_1_" d="M248.8,235.1c0.3,2.2,0.8,4.3,1.5,6.4c0.6,2.1,1.5,4.1,2.5,6c0.7,1.2,1.5,2.3,2.4,3.4c1,1,2.1,1.9,3.3,2.5
	c2.3,1.2,4.9,1.8,7.5,1.8c0.3,0,0.6,0,1,0c2.7-0.1,5.3-1.1,7.5-2.8c2.1-1.8,3.7-4,4.7-6.6c0.7-1.8,1.4-3.7,1.8-5.6
	c0.3-1.1,0.5-2.1,0.7-3.2c0.1-0.5,0.2-1,0.3-1.6s0.2-1,0.2-1.5c0.1-1,0.3-2.1,0.4-3.1c0.2-2.3,0.4-4.7,0.6-7
	c0.4-4.3,0.4-8.6,0.2-12.9c-0.2-4.5-1-9-1.6-13.4s-1.4-8.8-2.1-13.2c0,0.1,0,0.2,0,0.3l-0.3-1.8l0,0l0,0l0,0V183l0,0l0,0
	c0,0,0-0.1,0-0.1l0,0l0,0c-0.5-3.6-1-7.2-1.4-10.8l-0.1-0.8c0-0.3,0-0.6-0.1-0.9c0-0.1,0-0.2,0-0.4s0-0.4,0-0.6
	c-0.1-1.7-0.1-3.4-0.2-5.1s0.1-3.1,0.2-4.7c0.1-0.7,0.2-1.5,0.3-2.2c0.2-1,0.4-2,0.7-3c0.4-1.3,0.8-2.5,1.4-3.8v0.1l0.1-0.2
	c0.5-1,1-2,1.6-2.9c0.7-1,1.5-2,2.3-2.9c0.9-0.9,1.7-1.8,2.6-2.7c1.1-1,2.1-2.1,3.1-3.1l0.1-0.1v-0.1l0,0c1.1-1.2,2-2.5,2.8-3.8
	c0.7-1.2,1.3-2.5,1.7-3.9c0.3-1.3,0.5-2.6,0.5-3.9c0-1.1-0.1-2.2-0.2-3.3c-0.1-0.8-0.3-1.5-0.5-2.3c-0.3-1.1-1-2-1.9-2.6
	c-1-0.7-2.2-1.2-3.5-1.3c-1.3-0.1-2.6,0.1-3.9,0.4c-2.8,0.9-5.4,2.2-7.7,3.9c-1.6,1.1-3.3,2.1-5,3c-0.4,0.2-0.7,0.3-1.1,0.5l0.1-0.2
	c1.3-1.6,2.8-3,4.3-4.4c1.2-1.2,2.4-2.3,3.6-3.5l0,0c2.4-2.2,5-4.4,7.4-6.6c2.4-2.2,4.6-4.6,6.5-7.2c1.3-1.8,2.3-3.7,3.1-5.7
	c0.9-2.1,1.5-4.4,1.8-6.6c0.1-0.6,0.1-1.2,0.1-1.9s0-1.2,0-1.7c0-1.1-0.1-2.1-0.2-3.2s-0.2-2.1-0.3-3.2c-0.1-0.6-0.1-1.2-0.2-1.8
	s-0.1-1-0.3-1.5c-0.3-1.1-0.6-2.3-1-3.4c-0.4-1.1-0.8-2.1-1.3-3.1c-0.9-2.1-2-4.2-3.3-6.1c-0.8-1.2-1.8-2.2-2.8-3.2
	c-0.6-0.5-1.2-1-1.9-1.4c-0.9-0.6-1.7-1.1-2.6-1.6c-1-0.5-2-1-2.9-1.5c-0.8-0.4-1.7-0.8-2.6-1.1l0,0h0h0l0,0h-0.1h0.1l0,0
	c-0.8-0.3-1.6-0.4-2.4-0.5c-2.4,0-4.8,1.1-6.3,3c-0.9,0.9-1.6,2-2.1,3.2c-0.5,0.9-0.8,1.9-1.1,2.9c-0.2,1-0.4,2.1-0.5,3.1
	c-0.1,1-0.2,2.1-0.1,3.1c0.1,1.1,0.3,2.2,0.7,3.3c0.3,1,0.7,2,1.2,3c0.4,0.9,0.8,1.8,1.1,2.8c0.4,1.2,0.7,2.3,0.9,3.5
	c0.2,1.3,0.4,2.7,0.5,4c0,0.8,0,1.7,0,2.6c-0.1,1.2-0.3,2.4-0.5,3.6c-0.4,1.9-0.9,3.7-1.5,5.6c-0.4,1.1-0.8,2.1-1.2,3.2l-0.2,0.2
	c-0.7,0.9-1.5,1.7-2.3,2.5c-1,0.9-2,1.7-3,2.6l-2.5,1.7c-0.7,0.5-1.4,0.9-2.1,1.3c-1.4,0.9-2.9,1.7-4.3,2.5c-2,1.1-4,2.1-6,3.2
	s-3.8,1.9-5.6,3l0,0h0.1h-0.1h-0.1l0,0c-1,0.6-2,1.1-3.1,1.7l0,0l0,0l-0.2,0.1h0.1c-1.9,1.1-3.8,2.3-5.6,3.5
	c-0.9,0.6-1.7,1.2-2.6,1.8s-1.9,1.4-2.8,2.2c-1.8,1.5-3.3,3.2-4.6,5.1c-1.6,2.2-2.5,4.9-2.7,7.6c0,2.4,1.2,4.7,3.2,6.1
	c2,1.3,4.3,2.2,6.6,2.7c4.4,1,8.8,1.6,13.1,3c1.2,0.4,2.4,0.9,3.6,1.4c0.8,0.4,1.5,0.8,2.3,1.3c0.7,0.4,1.3,0.9,1.9,1.4
	s1.2,1.1,1.7,1.7c0.7,0.7,1.3,1.4,1.8,2.2c0.6,0.9,1.2,1.8,1.8,2.8c0.5,0.9,0.9,1.8,1.4,2.8c0.3,0.6,0.6,1.3,0.8,1.9s0.5,1.4,0.7,2
	s0.4,1.4,0.5,2.1s0.2,1.3,0.4,2l0,0c0.1,1.3,0.3,2.5,0.4,3.8c0,1,0,2,0,3s-0.2,2.2-0.4,3.3c-0.4,2.1-1,4.2-1.6,6.4
	c0-0.1,0-0.2,0.1-0.2c-1.5,5.1-3.7,9.9-5.5,14.9l0,0c-0.3,0.9-0.6,1.7-0.9,2.6s-0.5,1.6-0.7,2.4l-0.5,2c-0.1,0.3-0.2,0.6-0.2,0.9
	l-0.6,3.2c-0.2,0.9-0.3,1.9-0.4,2.8s-0.2,1.6-0.3,2.4s-0.2,1.8-0.2,2.7s-0.1,1.9-0.1,2.8v0.2C248.5,230.7,248.6,232.9,248.8,235.1z
	 M0,322.8c0-0.2,0-0.4,0-0.6V0h45.7c0.8,2,1.7,4.1,2.6,6.1c1,2.3,2,4.5,2.9,6.8c0.2,0.7,0.5,1.3,0.7,2l0.5,2
	c0.1,0.7,0.3,1.5,0.4,2.2s0.2,1.4,0.2,2.1c0.1,1.7,0.2,3.4,0.3,5.1s0,3.6,0,5.3c-0.1,1.6-0.2,3.2-0.4,4.8c-0.2,1.3-0.5,2.7-0.8,4
	c-0.5,1.6-1,3.1-1.6,4.7c-0.5,1.2-1,2.3-1.6,3.4c-0.4,0.9-0.9,1.7-1.4,2.6c-0.6,1-1.2,2-1.8,3c-0.8,1.2-1.6,2.4-2.4,3.6
	c-1.4,2-2.8,4-4.2,6.1l0,0c0,0-0.1,0.1-0.1,0.1l0.1-0.1c-1.4,2.1-2.9,4.2-4.3,6.3s-2.8,4.1-4.2,6.2l0,0c-1,1.5-2,3-2.9,4.6
	c-0.5,0.8-0.9,1.7-1.4,2.6s-0.8,1.7-1.2,2.6l0,0l0,0l0,0l0,0l0,0l0,0c-1.2,3-2,6.1-2.5,9.2c-0.1,0.8-0.2,1.6-0.3,2.4
	s-0.1,1.5-0.2,2.3s-0.1,1.7-0.1,2.6s0,1.9,0.1,2.8c0.1,3.1,1.1,6.1,2.9,8.6c1,1.3,2.2,2.4,3.6,3.2c1.5,0.8,3,1.4,4.7,1.8
	c1.3,0.3,2.7,0.5,4.1,0.5c0.3,0,0.7,0,1-0.1c1.8-0.1,3.5-0.6,5.1-1.4c2.1-1.1,4.1-2.5,6-4c2-1.5,3.8-3.2,5.6-4.9s3.6-3.7,5.3-5.6
	c3.3-3.8,6.4-7.8,9.6-11.7L69.8,92c1.5-1.9,3-3.7,4.7-5.5c0.9-1,1.9-2,2.8-3c0.8-0.8,1.5-1.5,2.3-2.2c1.6-1.4,3.1-2.8,4.7-4.1
	c0.9-0.7,1.7-1.4,2.6-2.1l2.7-2c2.1-1.6,4.2-3,6.4-4.4s4.5-2.7,6.7-3.9l0,0l0,0c1.8-0.9,3.6-1.9,5.4-2.7c1-0.5,2-0.9,3-1.3l3.1-1.2
	l3-1.1l0,0l0,0l0,0c2.4-0.8,4.8-1.6,7.3-2.3s4.9-1.3,7.4-1.9c1-0.2,2.1-0.4,3.1-0.6l3.3-0.5c0.5-0.1,1-0.1,1.5-0.2s1.1-0.1,1.7-0.2
	l3-0.2h1.3c0.5,0,1-0.1,1.5,0l3,0.1h-0.3l3.1,0.3c1,0.2,2.1,0.3,3.1,0.5l3.1,0.6c3.4,0.8,6.9,1.7,10.3,2.7c1.6,0.5,3.3,0.9,4.9,1.4
	c0.9,0.3,1.8,0.5,2.7,0.9l2.6,1l1.3,0.6c0.4,0.2,0.9,0.4,1.4,0.6l2.4,1.3c0.4,0.3,0.8,0.5,1.2,0.8s0.8,0.5,1.1,0.7l2.2,1.7
	c1.5,1.3,3.1,2.5,4.5,3.9c1.8,1.7,3.6,3.4,5.5,5.1c1,0.9,2,1.8,3,2.7s1.8,1.6,2.8,2.3s2,1.5,3,2.2c2.1,1.5,4.4,2.7,6.9,3.6
	c3.2,1.1,6.6,1.6,9.9,1.4c1.8-0.1,3.6-0.4,5.3-0.9c1.3-0.3,2.5-0.7,3.7-1.2c1.2-0.5,2.5-1,3.7-1.6s2.5-1.2,3.7-1.9
	c0.5-0.3,1-0.6,1.5-0.8s1-0.6,1.5-0.9c1.1-0.7,2.1-1.4,3.1-2.2c0.5-0.4,1.1-0.8,1.6-1.3l1.7-1.5c0.5-0.4,0.9-0.9,1.3-1.3
	c0.7-0.7,1.4-1.4,2-2.2c1-1.2,1.9-2.6,2.6-4c0.7-1.4,1.2-3,1.3-4.6c0.1-1.6-0.1-3.3-0.8-4.8c-0.5-1.3-1.3-2.4-2.2-3.4
	c-1.1-1-2.3-1.9-3.7-2.5c-1.4-0.6-2.9-1.1-4.5-1.3c-2.2-0.4-4.5-0.6-6.8-0.7c-2.4-0.2-4.9-0.1-7.4,0s-4.8,0.1-7.3,0.1
	c-1.4,0-2.8,0-4.1,0c-1.2,0-2.4,0-3.6-0.1c-0.8-0.1-1.6-0.1-2.4-0.2L213,49c-0.8-0.2-1.5-0.3-2.2-0.5l-2.3-0.7l0,0
	c-0.9-0.3-1.8-0.6-2.7-1s-1.9-0.8-2.8-1.3c-0.7-0.3-1.3-0.7-1.9-1.1c-0.4-0.3-0.8-0.6-1.2-0.9c-0.2-0.2-0.4-0.4-0.6-0.6
	s-0.3-0.4-0.5-0.7s-0.2-0.4-0.3-0.6s-0.2-0.4-0.3-0.6c-0.1-0.3-0.2-0.6-0.2-0.9c0-0.2-0.1-0.4-0.1-0.6c0-0.2,0-0.4,0-0.6
	c0-0.3,0.1-0.6,0.1-0.8c0.1-0.2,0.1-0.5,0.2-0.7s0.2-0.5,0.3-0.8s0.4-0.7,0.6-1s0.5-0.6,0.8-1c0.4-0.5,0.9-0.9,1.3-1.3
	c0.8-0.6,1.6-1.2,2.4-1.7c2.7-1.7,5.6-3.2,8.4-4.8c2.8-1.5,5.4-3.2,8-5c1.1-0.8,2.2-1.7,3.3-2.5s1.9-1.7,2.9-2.6s1.8-1.8,2.7-2.7
	c0.4-0.4,0.8-0.9,1.2-1.4l1.3-1.6c0.4-0.5,0.8-1,1.2-1.6l1.3-1.7c0.3-0.4,0.6-0.9,0.9-1.3l1.3-1.9c0.7-1.1,1.4-2.2,2.1-3.4l0.7-1.2
	H322c0.2,0,0.4,0,0.6,0c0.7-0.1,0.9,0.1,0.8,0.8c0,0.2,0,0.4,0,0.6c0,107.4,0,214.8-0.1,322.2l-124.7,0c0-1.5-0.1-2.9-0.2-4.4
	c-0.2-3-0.6-6-1.4-8.9c-0.4-1.4-0.8-2.9-1.4-4.2c-0.3-0.8-0.7-1.6-1-2.4s-0.7-1.3-1-2c-0.7-1.2-1.5-2.4-2.4-3.6
	c-2-2.8-4.5-5.3-7.5-7.1c-3.5-2.1-7.5-3.2-11.4-4.4c-1.1-0.4-2.1-0.8-3.1-1.2c-0.5-0.3-1-0.6-1.6-0.9l-0.2-0.1
	c-0.5-0.3-0.9-0.7-1.3-1.1c-0.3-0.2-0.5-0.5-0.7-0.8c-0.2-0.2-0.4-0.5-0.5-0.7s-0.3-0.5-0.4-0.8s-0.2-0.5-0.3-0.8
	c-0.2-0.8-0.3-1.5-0.4-2.3c0,0.1,0,0.2,0,0.3c0-0.2,0-0.4,0-0.6c0-0.6-0.1-1.2-0.1-1.7c0-0.7,0.1-1.3,0.2-2c0.1-0.5,0.2-0.9,0.4-1.3
	s0.4-1,0.6-1.4s0.5-0.9,0.8-1.3c0.2-0.3,0.4-0.5,0.6-0.8s0.5-0.5,0.8-0.8c0.5-0.4,1-0.8,1.6-1.2c1-0.6,2-1.2,3-1.7s2.3-1.1,3.5-1.6
	l-0.2,0.1c0.7-0.3,1.4-0.6,2.1-0.8l2.1-0.7l1.1-0.3c0.4-0.1,0.8-0.2,1.2-0.3l2.3-0.4c0.8-0.1,1.5-0.2,2.3-0.2l2.2-0.1
	c4.6,0,9.2,0,13.9-0.3c1.2-0.1,2.3-0.2,3.5-0.4c2-0.3,3.9-0.7,5.8-1.4c1.8-0.7,3.5-1.6,5.1-2.7c0.5-0.4,1-0.8,1.5-1.3
	c0.5-0.5,0.9-1,1.3-1.5c0.7-0.9,1.3-1.9,1.8-2.9c0.9-1.8,1.6-3.7,2-5.7c0.3-1.4,0.5-2.8,0.6-4.3c0-0.9,0.1-1.8,0-2.6
	c0-0.6-0.1-1.3-0.1-1.9c-0.1-0.9-0.2-1.8-0.3-2.7c-0.2-1.9-0.8-3.8-1.6-5.6c-0.8-1.6-1.8-3.2-3.1-4.5c-1-0.9-2-1.8-3.1-2.6
	c-0.8-0.6-1.6-1.1-2.4-1.6c-1.2-0.8-2.5-1.4-3.9-1.8c-1.6-0.4-3.1-0.7-4.8-0.8c-1.8-0.1-3.6-0.1-5.4-0.2l-1-0.1l-0.3-0.1l-0.2-0.1
	l0,0c0,0,0-0.1,0-0.1l0,0l0,0c0,0,0-0.1,0-0.1c0,0,0,0.1,0,0.1c0-0.1,0.1-0.2,0.1-0.2c0.3-0.6,0.6-1.2,1-1.8l0.4-0.6l0,0l0,0
	c2-3,4.3-5.9,6.7-8.7s4.7-5.4,7-8.1c1-1.2,2-2.4,2.9-3.6s1.9-2.6,2.8-4c0.4-0.6,0.8-1.3,1.2-1.9c0.6-1,1.2-2.1,1.7-3.2
	c0.8-1.8,1.4-3.8,1.6-5.8c0.1-0.8,0.2-1.6,0.1-2.5c-0.1-0.9-0.3-1.7-0.5-2.6c-0.3-1.7-1.1-3.2-2.2-4.5c-1.2-1.3-2.7-2.3-4.3-3.1
	c-1-0.5-2.1-0.9-3.1-1.2l-1.1-0.3c-0.7-0.2-1.4-0.3-2.1-0.5s-1.5-0.3-2.2-0.4s-1.4-0.2-2-0.3c-0.8-0.1-1.7-0.2-2.5-0.2h-2.5
	c-1.5,0-3,0.1-4.6,0.3s-2.8,0.3-4.2,0.5c-1.5,0.2-3,0.5-4.5,0.9c-1.5,0.4-3,0.9-4.5,1.3c-0.7,0.2-1.4,0.4-2,0.7s-1.5,0.6-2.3,0.9
	c-1.4,0.6-2.8,1.2-4.2,1.9c-3,1.4-5.9,3.1-8.9,4.4c-0.5,0.2-0.9,0.3-1.4,0.4c-0.5,0.1-1.1,0.2-1.6,0.3c-0.4,0-0.8,0-1.2,0.1h-0.4
	l-0.2-0.1l-0.2-0.1l-0.1-0.1c0-0.2-0.1-0.3-0.1-0.5l0.1,0.2v-0.2V173c0-0.3,0.1-0.6,0.1-0.9c0.4-1.8,1-3.7,1.7-5.4
	c0.7-1.9,1.4-3.9,2.2-5.8c1.3-3.4,2.5-6.8,3.7-10.2l0,0c0-0.1,0-0.1,0.1-0.2l0,0c0,0,0-0.1,0-0.1l0,0l0,0l0.3-0.9
	c0.9-2.8,1.9-5.7,2.7-8.5c0.4-1.5,0.9-3,1.3-4.6s0.9-3,1.2-4.6c0.2-1,0.4-1.9,0.7-2.9c0.1-0.6,0.3-1.2,0.4-1.9
	c0.3-1.7,0.7-3.3,0.9-5c0.7-4.2,0.7-8.4,0.2-12.6c-0.5-4.1-1.8-8-3.8-11.5c-1.9-3.3-4.6-6-7.8-8c-1.7-1-3.5-1.8-5.4-2.3
	c-1.8-0.4-3.7-0.6-5.6-0.4c-2,0.1-4,0.5-6,1.1c-1.9,0.5-3.7,1.2-5.4,2c-1.5,0.6-2.9,1.4-4.2,2.2l-2.5,1.5c-1.3,0.8-2.5,1.7-3.7,2.6
	c-1.5,1.1-2.9,2.3-4.2,3.5c-0.9,0.9-1.8,1.8-2.7,2.7l-2.1,2.4c-0.4,0.4-0.7,0.9-1.1,1.4l-1.6,2.1c-0.4,0.5-0.7,1-1.1,1.6l0,0
	c0,0,0,0.1-0.1,0.1c-0.5,0.8-1.1,1.5-1.6,2.3c-0.6,1-1.2,1.9-1.9,2.9c-1.1,1.7-2.1,3.3-3.2,5c-1.6,2.5-3,5.1-4.3,7.7
	s-2.7,5.3-3.8,8.1c-0.6,1.3-1.2,2.7-1.6,4c-0.7,2.2-1.5,4.4-2.1,6.6c-0.6,2.2-1,4.5-1.3,6.7c-0.3,2-0.5,4-0.5,6.1l-0.1,5.2
	c0,0.1,0,0.1,0,0.2l0,0c0,1.6,0,3.3,0,4.9v4.6c0,0.1,0,0.2,0,0.3c0,2.8,0,5.6,0,8.5c0,1.1,0,2.1-0.1,3.2c0,0.7,0,1.3,0,2
	c-0.1,1.6-0.2,3.2-0.3,4.8c-0.2,1.4-0.3,2.9-0.5,4.3c-0.1,0.7-0.2,1.4-0.3,2.1s-0.2,1.3-0.3,2c-0.4,1.9-0.9,3.9-1.6,5.8
	c-0.5,1.3-1,2.6-1.6,3.9c-0.5,0.9-1,1.8-1.5,2.6l0,0l0,0l0,0c-0.4,0.6-0.8,1.2-1.3,1.7c-0.4,0.5-0.9,0.9-1.4,1.4s-0.9,0.7-1.3,1
	s-1,0.6-1.4,0.8s-1,0.4-1.6,0.6s-1.1,0.3-1.7,0.4s-0.9,0.1-1.4,0.2c-0.7,0-1.4,0-2.2,0c-0.8-0.1-1.5-0.2-2.2-0.3
	c-0.8-0.2-1.5-0.4-2.2-0.6s-1.7-0.7-2.5-1.1c-2.3-1.2-4.5-2.7-6.8-4.1c-2.9-1.8-5.9-3.2-9.1-4.3c-2.7-0.9-5.5-1.2-8.3-1
	c-1.2,0.1-2.4,0.4-3.5,0.8c-1.2,0.5-2.4,1-3.5,1.7c-3.1,2.1-5.7,4.7-7.9,7.6l0,0c0,0-0.1,0.1-0.1,0.1c-0.4,0.4-0.7,0.9-1,1.4l-1,1.5
	c-0.6,0.9-1.2,1.8-1.8,2.7s-1.1,1.9-1.6,2.8s-1,1.9-1.4,2.9c-1,2.1-1.8,4.3-2.3,6.6c-0.6,2.3-0.9,4.6-1.1,7l-0.1,3.4
	c0,1.2,0,2.3,0,3.5l0,0v0.2c0,2.5,0.1,4.9,0.2,7.4c0,1.2,0.1,2.5,0.2,3.7c0.1,2.2,0.3,4.5,0.6,6.7c0.2,1.9,0.6,3.7,1.1,5.5
	c0.5,1.6,1,3.2,1.7,4.7c0.6,1.4,1.3,2.8,2,4.2c0.7,1.3,1.6,2.6,2.6,3.7c1,1.2,2.1,2.2,3.4,3c0.5,0.3,1.1,0.6,1.7,0.8
	c0.6,0.2,1.3,0.2,1.9,0.3c1.6,0.1,3.3,0,4.8-0.3c1.5-0.3,3.1-0.7,4.5-1.2c3.4-1.3,6.7-2.9,9.8-4.7c2.7-1.5,5.4-3.1,8.1-4.7
	c2.7-1.6,5-3.1,7.5-4.7c1.4-0.9,2.9-1.8,4.4-2.6c1.2-0.7,2.5-1.4,3.7-2c1.6-0.7,3.2-1.5,4.8-2.1c1.1-0.4,2.3-0.7,3.4-1
	c1-0.2,2-0.3,3.1-0.4c0.8,0,1.7,0,2.5,0c1.1,0.1,2.2,0.2,3.2,0.5c1,0.2,1.9,0.4,2.8,0.7c0.7,0.2,1.4,0.5,2.1,0.9s1.2,0.6,1.8,1
	c0.6,0.4,1.1,0.8,1.7,1.2c0.6,0.5,1.2,1,1.8,1.6s1.1,1.2,1.7,1.8c1,1.2,1.9,2.6,2.7,3.9l0,0c0.6,0.9,1.1,1.9,1.6,2.8s1,1.8,1.4,2.8
	s0.9,1.9,1.3,2.8s0.7,1.6,1.1,2.4c0-0.1-0.1-0.2-0.1-0.2c0.4,0.9,0.8,1.9,1.2,2.8l1,2.8c0.7,1.8,1.3,3.6,1.9,5.4
	c0-0.1-0.1-0.2-0.1-0.2c0.3,1.1,0.7,2.1,0.9,3.2s0.7,2.3,0.9,3.5c0-0.1,0-0.2,0-0.3c0.3,1.4,0.7,2.8,0.9,4.2s0.5,2.8,0.7,4.3l0,0
	c0.2,1.5,0.4,3.1,0.5,4.6c0.1,1.3,0.2,2.6,0.3,3.9H1.6c-0.2,0-0.4,0-0.6,0c-0.1,0-0.2,0-0.3,0C0.1,323.8-0.1,323.4,0,322.8z"/>
</svg>
