<?xml version="1.0" encoding="utf-8"?>
<!-- Generator: Adobe Illustrator 24.1.3, SVG Export Plug-In . SVG Version: 6.00 Build 0)  -->
<svg version="1.1" id="Layer_1" xmlns="http://www.w3.org/2000/svg" xmlns:xlink="http://www.w3.org/1999/xlink" x="0px" y="0px"
	 viewBox="0 0 327.2 327.5" style="enable-background:new 0 0 327.2 327.5;" xml:space="preserve">
<path id="Layer_2_1_" d="M87.1,59.5c-5,3.3-9.8,6.7-14.6,10.1c-2.2,1.6-4.4,3.1-6.6,4.7c-1.2,0.9-2.5,1.8-3.7,2.8s-2.4,1.9-3.6,2.9
	c-4.5,3.8-8.6,7.9-12.4,12.3c-1.8,2-3.4,4.1-5,6.3c-1.8,2.4-3.5,4.8-5.2,7.2s-3.1,4.7-4.5,7.1c-0.7,1.3-1.4,2.5-2,3.8
	s-1.2,2.8-1.8,4.2c-1,2.6-2,5.2-2.8,7.8s-1.8,5.4-2.6,8.2c-0.4,1.4-0.8,2.8-1.1,4.3s-0.6,3-0.8,4.5c-0.5,2.8-0.7,5.5-0.6,8.3
	c0,0.8,0.1,1.5,0.1,2.3c0,0.6,0.1,1.2,0.2,1.9c0.2,1.2,0.5,2.4,0.9,3.5c0.3,0.7,0.6,1.4,0.9,2c0.4,0.6,0.9,1.2,1.4,1.6
	c0.9,0.7,1.9,1.1,3,1.1c0.2,0,0.5,0,0.7-0.1c0.9-0.2,1.7-0.5,2.6-0.8c1.3-0.6,2.6-1.3,3.8-2.1c2.4-1.6,4.6-3.4,6.7-5.3
	c1-0.9,2-1.9,3-2.9l0,0c0.1-0.1,0.3-0.3,0.4-0.4c0.9-1.1,1.8-2.1,2.7-3.3l0.2-0.3l0.2-0.3l-0.2,0.2c1.5-2,2.8-4,4-6.2
	c1.1-1.9,2.1-3.8,3-5.7c2-3.9,4-7.9,6.1-11.7l0,0c0.6-1.1,1.2-2.1,1.9-3.2s1.3-1.9,1.9-2.8c0.9-1.1,1.7-2.1,2.7-3.1
	c0.7-0.7,1.4-1.4,2.2-2.1s1.5-1.3,2.3-2s1.6-1.2,2.4-1.7s1.5-0.8,2.2-1.2s1.4-0.6,2.1-0.8s1.4-0.4,2.2-0.5s1.3-0.1,1.9-0.2
	s1.2,0,1.8,0.1s1.1,0.2,1.6,0.3s1.1,0.4,1.7,0.6s1,0.5,1.5,0.7s1,0.6,1.5,1c0.8,0.6,1.5,1.2,2.2,1.9c1.3,1.4,2.6,2.8,3.9,4.2
	c0.7,0.8,1.3,1.6,2,2.3c0.7,0.8,1.4,1.5,2.1,2.2c1.2,1.2,2.6,2.2,4.1,2.9c1,0.4,2.1,0.7,3.2,0.8c1.1,0.1,2.2,0.1,3.2-0.2
	c1.9-0.4,3.7-0.9,5.4-1.7c2.7-1.1,5.2-2.6,7.5-4.3c2.2-1.6,4.2-3.5,5.9-5.6c1.9-2.2,3.6-4.4,5.4-6.7c0.8-1.1,1.7-2.2,2.5-3.2
	s1.7-2,2.6-3c0.5-0.5,1-1,1.6-1.6s1.2-1.1,1.8-1.6s1.2-1,1.9-1.4s1.2-0.8,1.9-1.2s1.1-0.6,1.6-0.8s1.2-0.5,1.8-0.7s1-0.3,1.6-0.4
	c0.5-0.1,1-0.1,1.5-0.1c0.4,0,0.8,0,1.2,0l1.1,0.2c0.2,0,0.4,0.1,0.6,0.2l0.8,0.4l0.4,0.3c0.2,0.2,0.4,0.3,0.6,0.5
	c0.2,0.2,0.3,0.4,0.5,0.6l-0.2-0.2l0.2,0.4c0.1,0.1,0.2,0.3,0.2,0.5c0.1,0.2,0.2,0.5,0.3,0.7c0.1,0.3,0.1,0.5,0.2,0.8
	c0.1,0.3,0.1,0.7,0.1,1.1c0,0.6-0.1,1.2-0.1,1.8c-0.7,5.3-1.9,10.6-2.9,15.9c-0.2,1.4-0.4,2.8-0.6,4.1c-0.2,1.2-0.3,2.5-0.2,3.7
	c0,1.7,0.2,3.4,0.8,5c0.4,1.4,1.3,2.6,2.4,3.5c1,0.8,2.3,1.2,3.6,1.1c1.7-0.2,3.4-0.7,5-1.5c1.3-0.5,2.6-1.1,3.8-1.9
	c1.2-0.7,2.4-1.5,3.5-2.3c2.4-1.7,4.7-3.6,7-5.5c2.2-1.9,4.4-3.9,6.5-6s4-4.2,5.9-6.4s3.4-4.2,5.1-6.4s3.5-4.5,5.2-6.8
	c3.4-4.6,6.6-9.3,10.1-13.8c0.8-0.9,1.5-1.8,2.3-2.7s1.5-1.6,2.3-2.3c0.6-0.5,1.1-1.1,1.8-1.6l1.7-1.3c0.6-0.4,1.1-0.9,1.8-1.2
	l1.8-1.1c0.6-0.3,1.1-0.7,1.8-0.9l1.7-0.8c0.8-0.3,1.6-0.6,2.3-0.8c0.8-0.2,1.7-0.4,2.5-0.5c0.9-0.1,1.9-0.1,2.8-0.2
	c0.6,0,1.2,0,1.7,0.1l1.7,0.2c1.4,0.2,2.9,0.5,4.3,0.9c1,0.3,2.1,0.7,3.1,1.1c0.7,0.3,1.4,0.6,2.1,1c0.5,0.3,1,0.7,1.5,1.1
	s0.7,0.6,1.1,1s0.5,0.6,0.8,0.9s0.5,0.7,0.7,1s0.5,1,0.8,1.5s0.4,1,0.5,1.5s0.3,1.2,0.4,1.8c0.1,0.9,0.2,1.7,0.2,2.6
	c0,1.8-0.1,3.6-0.3,5.4c-0.2,1.5-0.4,3-0.6,4.6s-0.5,2.8-0.8,4.2c-0.6,2.4-1.1,4.8-1.8,7.1s-1.5,4.9-2.3,7.4s-1.6,5-2.4,7.6
	c-0.4,1.4-0.8,2.8-1.2,4.2s-0.6,2.7-0.9,4c-0.3,1.5-0.5,3-0.5,4.6c0,1.7,0.1,3.5,0.3,5.2c0.2,1.8,0.8,3.6,1.6,5.3
	c0.4,0.7,0.8,1.3,1.3,1.9c0.5,0.6,1.1,1,1.7,1.4c0.7,0.4,1.5,0.7,2.4,0.9c0.8,0.2,1.6,0.2,2.4,0.2c1.8-0.2,3.5-0.8,5.1-1.6
	c1.5-0.8,3-1.8,4.2-3c0.6-0.5,1.1-1,1.6-1.6c1.9-2.2,3.7-4.5,5.5-6.9s3.5-5,5.1-7.5l-0.1,0.2c1.5-2.4,2.9-4.9,4.1-7.5
	c1.2-2.4,2.3-4.9,3.2-7.4c1-2.7,2-5.4,2.9-8.1c0.4-1.4,0.8-2.8,1.2-4.2s0.7-2.9,1.1-4.3l0,0l0,0v-0.1v0.1c0,0,0-0.1,0-0.1l0,0l0,0
	l0,0l0,0v-0.1c0.3-1.4,0.6-2.7,0.8-4.1s0.5-3,0.6-4.5l0.3-2.8c0.1-0.6,0-1.2,0.1-1.8s0.1-1.5,0.1-2.2s0-1.6,0-2.4
	c0-2.9-0.2-5.8-0.5-8.8c0-0.7-0.1-1.3-0.2-2s-0.1-1.2-0.2-1.8c-0.2-1.4-0.4-2.9-0.6-4.3c-0.5-2.9-1-5.8-1.7-8.6
	c-0.4-1.5-0.8-2.9-1.2-4.3l-0.9-2.7c-0.2-0.7-0.5-1.3-0.8-2c-0.4-0.9-0.7-1.7-1.1-2.5c-1.6-3.5-3.7-6.7-6.3-9.5
	c-1.3-1.4-2.7-2.7-4.2-3.9c-1.1-0.8-2.2-1.6-3.3-2.3l-2.4-1.4c-1.4-0.8-2.9-1.5-4.4-2.1c-3.6-1.5-7.5-2.4-11.4-2.7
	c-1-0.1-2-0.1-2.9-0.2c-0.7,0-1.4-0.1-2.2-0.1h-1.4c-0.9,0-1.8,0-2.8,0c-3,0.1-6,0.1-9,0.4s-6,0.4-9.1,0.7s-5.8,0.6-8.7,0.9
	c-2.6,0.3-5.2,0.6-7.9,1c-1.5,0.2-3,0.4-4.4,0.6l-5.1,0.8c-1.5,0.2-2.9,0.5-4.4,0.8c-1.3,0.2-2.5,0.5-3.8,0.8s-2.6,0.5-3.9,0.9
	l-2.2,0.5l-1.5,0.2c-2.9,0.4-5.8,0.9-8.8,1.3c-5.6,0.9-11.3,1.7-17,2.6c-3,0.5-5.9,1.1-8.8,1.7s-5.6,1.4-8.4,2.1s-5.5,1.6-8.2,2.4
	s-5.3,1.7-8,2.8l0.2-0.1c-5.2,2-10.3,4.3-15.2,6.8c-2.7,1.3-5.3,2.7-7.9,4c-2.3,1.2-4.7,2.5-6.9,3.8l0.2-0.1
	C91.3,56.8,89.2,58.1,87.1,59.5z M0.1,326.5c0-0.2,0-0.4,0-0.6V0h325.7c0.2,0,0.4,0,0.6,0c0.7-0.1,0.9,0.1,0.8,0.8
	c0,0.2,0,0.4,0,0.6c0,108.6,0,217.3-0.1,326c-95.5,0.1-191,0.1-286.5,0.1l0.1-0.2c1.6-2.7,3.2-5.4,4.9-8.1c0.8-1.4,1.7-2.7,2.6-4
	s1.7-2.3,2.5-3.5c0.6-0.8,1.2-1.5,1.8-2.3c0.5-0.6,1-1.1,1.5-1.7s1.1-1.3,1.7-1.9l1.9-1.9c1-0.9,1.9-1.7,3-2.5s1.8-1.3,2.8-1.9
	l1.8-1.1l1.4-0.7c0.4-0.2,0.9-0.5,1.3-0.7l2.8-1.2c1.2-0.4,2.3-0.8,3.5-1.1c1.3-0.3,2.5-0.6,3.8-0.8c1.7-0.2,3.5-0.3,5.2-0.2
	c3,0,6.1,0.1,9.2,0.3l4.7,0.3c0.8,0,1.5,0,2.3,0.1c0.9,0,1.9,0,2.8-0.2c0.8-0.1,1.6-0.3,2.4-0.5c1.7-0.5,3.2-1.4,4.4-2.6
	c0.9-1,1.7-2.1,2.3-3.3c0.8-1.4,1.4-2.9,2.1-4.4c1.2-2.9,2.3-5.9,3.1-9c0.4-1.5,0.7-2.9,1.1-4.4s0.7-2.8,1.1-4.2
	c0.2-0.7,0.4-1.4,0.6-2.1s0.6-1.5,0.8-2.3c0.2-0.5,0.5-1.1,0.7-1.7c0.5-1.1,1.1-2.2,1.7-3.2c0.5-0.8,1-1.5,1.5-2.2l1-1.4
	c0.5-0.6,1-1.2,1.5-1.8l1.5-1.6c0.5-0.5,1-1,1.5-1.4l1.6-1.3c0.8-0.5,1.5-1,2.4-1.5c0.5-0.3,1-0.5,1.6-0.7c0.4-0.1,0.7-0.2,1-0.3
	s0.7-0.1,1-0.2c0.3,0,0.7,0,1,0l0,0c0.2,0,0.5,0,0.7,0c0.5,0.1,1.1,0.2,1.6,0.3c0.5,0.2,1.1,0.4,1.6,0.6c0.5,0.2,0.9,0.5,1.4,0.7
	c0.3,0.2,0.6,0.4,0.9,0.6c0.3,0.3,0.6,0.5,0.9,0.8s0.5,0.5,0.7,0.8c0.3,0.4,0.6,0.8,0.8,1.2c0.2,0.4,0.4,0.7,0.5,1.1
	s0.3,0.9,0.5,1.4c0.2,1.1,0.5,2.1,0.6,3.2c0.2,1.1,0.3,2.3,0.5,3.4c0.4,3.7,0.8,7.5,1.3,11.2c0.2,1.7,0.5,3.4,0.8,5.1
	c0.4,2.2,0.9,4.3,1.6,6.4c1.1,3.7,3.1,7.1,5.9,9.8c1.4,1.3,3.1,2.3,4.9,3.1c1.1,0.4,2.3,0.7,3.4,0.8c0.5,0.2,1,0.4,1.5,0.5
	c0.5,0.2,1,0.3,1.5,0.3c0.4,0.1,0.9,0.1,1.4,0.1h0.1c1.9-0.1,3.7-0.7,5.4-1.5c1.7-0.8,3.3-1.9,4.7-3.2c0.6-0.6,1.3-1.2,1.9-1.8
	c0.7-0.6,1.4-1.3,2-2.1c2.3-2.8,3.9-6.2,6.3-9l0,0l0.1-0.1l0,0l0,0l0.1,0c0.4-0.4,0.8-0.7,1.1-1.1c0.3-0.3,0.7-0.5,1-0.7
	c0.4-0.2,0.9-0.5,1.3-0.7l0.5-0.2l0.6-0.1l0.5,0.2c0.5,0.3,0.9,0.5,1.4,0.9c1.2,0.9,2.4,1.9,3.5,2.9c0.5,0.5,1.1,1.1,1.6,1.7
	c1.2,1.5,2.3,3,3.5,4.5c1.2,1.6,2.5,3,3.9,4.4c1.6,1.4,3.5,2.5,5.5,3.1c1.8,0.5,3.6,0.8,5.4,0.8h0.6c2.3-0.1,4.5-0.6,6.7-1.4
	c2-0.8,3.9-1.8,5.7-3c1.8-1.2,3.5-2.6,5-4.1c1.5-1.5,3-3.1,4.4-4.7s2.8-3.4,4.1-5.2c0.6-0.9,1.2-1.7,1.8-2.6s1.1-1.8,1.6-2.7
	c1-1.8,1.9-3.8,2.7-5.7s1.7-3.8,2.5-5.7c0.9-2,1.6-4.1,2.1-6.3c0.5-2.1,0.9-4.2,1.1-6.4c0.1-1.1,0-2.2-0.2-3.2
	c-0.2-1.1-0.6-2.2-1.2-3.2c-0.2-0.3-0.4-0.6-0.5-0.9c-0.4-1.2-0.9-2.3-1.6-3.4c-1-1.6-2.2-2.9-3.7-4.1c-1.5-1.2-3.2-2.2-5-3
	c-3.7-1.6-7.6-2.5-11.6-2.6c-1.5-0.1-2.9,0-4.4,0.1c-0.8,0.1-1.7,0.1-2.5,0.2l-2.7,0.4c-0.7,0.1-1.4,0.3-2,0.4s-1.4,0.3-2.1,0.5
	c-0.5,0.1-1,0.3-1.5,0.4c-0.3,0.1-0.6,0.1-0.9,0.2c-1.4,0.5-2.8,0.9-4.2,1.5c-0.8,0.3-1.6,0.6-2.4,1l-2.4,1.1
	c-3.2,1.5-6.3,3.3-9.6,4.6c-0.9,0.3-1.7,0.6-2.6,0.8c-0.6,0.1-1.2,0.2-1.8,0.3c-0.3,0-0.5,0-0.8,0c-0.3,0-0.7-0.1-1-0.1h0.3
	c-0.3-0.1-0.7-0.1-1-0.2l0,0l0.2,0.1l-0.4-0.2l-0.6-0.3l0.2,0.1c-0.2-0.1-0.4-0.3-0.6-0.4c-0.1-0.1-0.3-0.2-0.4-0.4
	c-0.1-0.2-0.3-0.4-0.4-0.6c0.1,0.1,0.1,0.1,0.1,0.2c-0.1-0.1-0.1-0.3-0.2-0.4c-0.1-0.2-0.2-0.4-0.3-0.7l0.1,0.2
	c-0.1-0.3-0.2-0.6-0.2-0.9c0,0.1,0,0.2,0,0.2c0-0.3-0.1-0.6-0.1-1v0.3c0-0.4,0-0.9,0-1.4c0.1-1.2,0.3-2.3,0.5-3.4
	c0.1-0.6,0.3-1.1,0.4-1.6s0.3-1.1,0.5-1.6v-0.1l0.1-0.2c0,0,0,0,0-0.1l0,0c0.2-0.5,0.4-1,0.5-1.5c0.5-1.1,1-2.3,1.5-3.4s1-2,1.5-2.9
	c0.1-0.2,0.2-0.4,0.4-0.6s0.3-0.5,0.4-0.8l0.5-0.9c0.5-0.9,1.1-1.8,1.6-2.6s1.2-1.8,1.9-2.7c1.1-1.6,2.4-3.2,3.5-4.8
	c2.5-3.3,5-6.6,7.4-10c0.9-1.3,1.8-2.6,2.6-3.9c0.4-0.6,0.8-1.3,1.2-2s0.7-1.1,1-1.6c0.5-0.9,1-1.8,1.5-2.7c0.3-0.6,0.6-1.2,0.9-1.8
	c1.4-2.8,2.5-5.7,3.3-8.7c1.2-4,1.4-8.2,0.5-12.2c-0.4-1.9-1.3-3.6-2.5-5.1c-0.5-0.6-1.1-1.2-1.7-1.6c-0.8-0.5-1.6-1-2.4-1.4
	c-1.9-0.8-4-1.1-6.1-1.1c-0.9,0-1.8,0-2.7,0.2c-0.8,0.1-1.5,0.2-2.2,0.4l-2.5,0.6c-0.3,0.1-0.6,0.2-1,0.3l-1.7,0.5l0.2-0.1
	c-1.1,0.4-2.2,0.8-3.3,1.2c-0.5,0.2-1,0.5-1.5,0.7l-1.5,0.7c-1.2,0.5-2.3,1.2-3.4,1.8s-2,1.2-3,1.8s-2,1.3-3,1.9s-1.9,1.3-2.8,2
	s-1.8,1.3-2.6,2s-1.7,1.4-2.6,2.1c-2.4,2.1-4.8,4.1-7.1,6.4c-1.1,1.1-2.3,2.2-3.4,3.3s-2.2,2.2-3.3,3.4s-2.1,2.3-3.2,3.6
	s-2.1,2.5-3.2,3.8c-1.9,2.5-3.9,5-5.7,7.6c-3.6,5-7.3,9.9-10.9,14.9c-1.9,2.6-3.8,5.2-5.7,7.9c-1,1.4-2,2.7-3,4
	c-0.8,1.1-1.7,2.2-2.6,3.3c-1.1,1.3-2.3,2.6-3.5,3.8c-0.7,0.6-1.4,1.3-2.2,1.8s-1.3,0.9-2,1.3c-0.5,0.3-1,0.5-1.6,0.7
	c-0.3,0.1-0.7,0.2-1.1,0.4s-0.6,0.1-0.9,0.2h0.2c-0.3,0-0.7,0.1-1,0.1c-0.3,0-0.7,0-1-0.1c-0.2,0-0.4-0.1-0.6-0.1s-0.6-0.2-0.9-0.3
	s-0.4-0.2-0.6-0.3l0,0c-0.2-0.1-0.4-0.3-0.6-0.4c-0.2-0.2-0.4-0.3-0.6-0.5c-0.2-0.2-0.3-0.4-0.4-0.5s-0.3-0.4-0.4-0.6
	s-0.2-0.4-0.3-0.6c-0.1-0.4-0.3-0.8-0.4-1.2s-0.2-0.9-0.3-1.4c-0.1-1.1-0.1-2.1-0.1-3.2c0.1-2.6,0.3-5.3,0.4-7.9
	c0.1-1.7,0.2-3.4,0.3-5c0.1-0.8,0.1-1.6,0.1-2.4c0-0.6,0.1-1.3,0.1-1.9c0-1.6,0-3.3-0.1-5s-0.2-3.4-0.3-5.1s-0.3-3.2-0.5-4.8
	c-0.1-0.8-0.2-1.5-0.3-2.3c-0.1-0.6-0.2-1.2-0.3-1.7c-0.5-2.6-1.2-5.1-2-7.6c-1.1-3.6-2.8-7.1-5.1-10.1c-1.3-1.6-2.8-3-4.4-4.2
	c-1.6-1.2-3.3-2.3-5.1-3.2c-3.4-1.8-7.3-2.6-11.2-2.3c-2,0.2-4,0.9-5.8,1.8c-1.6,0.9-3,1.9-4.3,3.1c-0.3,0.3-0.7,0.6-1,1
	s-0.6,0.6-0.9,0.9c-0.5,0.6-1.1,1.2-1.6,1.8l-1.7,2.1c-0.5,0.6-0.9,1.2-1.3,1.8s-0.8,1.2-1.2,1.8s-0.9,1.4-1.3,2.2
	c-0.7,1.3-1.4,2.7-2,4c-0.3,0.8-0.7,1.6-1,2.4s-0.6,1.7-0.9,2.6l0,0c0,0,0,0.1,0,0.1c0,0,0,0.1,0,0.1l0,0c-0.8,2.2-1.4,4.5-2.1,6.8
	c-0.6,2.1-1.1,4.2-1.6,6.4c-1.1,4.7-2.2,9.5-2.8,14.3l0,0c0,0.1,0,0.1,0,0.2v0.1l0,0c-0.3,2.2-0.6,4.5-0.9,6.7s-0.5,4.5-0.7,6.7
	c-0.4,4.1-0.7,8.1-1.1,12.2v-0.3c-0.3,3.3-0.8,6.6-1.3,9.9c-0.2,1.4-0.4,2.9-0.7,4.3c-0.4,1.8-0.7,3.5-1.1,5.3c-0.5,2-1,4.1-1.6,6.1
	c-0.2,0.9-0.6,1.8-0.8,2.7l-0.9,2.8c-0.3,0.9-0.6,1.8-1,2.6s-0.6,1.7-0.9,2.5l-2.1,5l0.1-0.2l-1.8,3.9c-0.5,1-1,2-1.5,2.9
	s-1,2-1.6,2.9s-1.3,2.2-2,3.3c-1,1.5-1.9,3-2.9,4.4c-1.1,1.6-2.2,3.2-3.4,4.9c-2.3,3.1-4.5,6.2-6.9,9.3l-2.1,2.6
	c-0.5,0.6-1.1,1.2-1.6,1.9s-1.1,1.2-1.7,1.9l-2.1,2.1l-1.4,1.2c-0.4,0.4-0.8,0.8-1.2,1.1L7,325.9l-2.2,1.6H1.6c-0.2,0-0.4,0-0.6,0
	H0.7C0.1,327.5-0.1,327.2,0.1,326.5L0.1,326.5z"/>
</svg>
