<?xml version="1.0" encoding="utf-8"?>
<!-- Generator: Adobe Illustrator 24.0.3, SVG Export Plug-In . SVG Version: 6.00 Build 0)  -->
<svg version="1.1" xmlns="http://www.w3.org/2000/svg" xmlns:xlink="http://www.w3.org/1999/xlink" x="0px" y="0px"
	 viewBox="0 0 186 94.9" style="enable-background:new 0 0 186 94.9;" xml:space="preserve">
<style type="text/css">
	.st0{fill:#58595B;}
	.st1{fill:#231F20;}
	.st2{fill:#414042;}
</style>
<g id="_x33_">
	<g id="Layer_4">
		<path class="st0" d="M167.1,86.8l-21.6-57.1c-1.4-3.7-5.7-5.7-9.4-4.3c-2,0.7-3.5,2.3-4.3,4.3l-12.4,32.6c-1.2,3.2-3.6,5.7-6.8,7
			c-3.1,1.3-6.5,1.4-9.7,0.1c-3.2-1.2-5.7-3.8-7.1-7.1L83.5,29.7c-0.7-1.8-2-3.3-3.8-4.1c-1.8-0.8-3.8-0.9-5.6-0.2
			c-2,0.7-3.5,2.3-4.3,4.3L57.5,62.3c-2.4,6.5-9.7,9.8-16.2,7.3c-3.4-1.3-6.1-3.9-7.3-7.3L12.2,5.2l4.9-1.9l21.7,57.1
			c0.7,2,2.3,3.5,4.3,4.3c3.7,1.4,8.1-0.6,9.4-4.3l12.4-32.6c1.3-3.4,3.9-6.1,7.3-7.3c6.5-2.4,13.8,0.9,16.2,7.3l12.4,32.6
			c0.7,1.9,2.2,3.4,4.1,4.1c1.9,0.8,3.9,0.7,5.7,0c1.8-0.8,3.2-2.2,3.9-4.1l12.4-32.6c1.3-3.4,3.9-6.1,7.3-7.3
			c6.5-2.4,13.8,0.9,16.2,7.3L172.1,85L167.1,86.8z"/>
	</g>
</g>
<g id="_x32_">
	<g id="Layer_3">
		<path class="st1" d="M172.8,94.9L143,81.7l0,0l1.3-2.8c6.6-14.9,24-21.7,38.9-15.1L186,65l0,0L172.8,94.9L172.8,94.9z M2.8,31.2
			L0,29.9l0,0L13,0l0,0l29.9,13l0,0l-1.2,2.8C35.2,30.8,17.8,37.6,2.8,31.2z"/>
	</g>
</g>
<g id="_x31_">
	<g id="Layer_2_1_">
		<path class="st2" d="M148.3,59.9l-2-4.9l20.4-8.2l2,4.9L148.3,59.9z M86,59.9l-2-4.9l20.3-8.2l2,4.9L86,59.9z M81.2,48.4l-1.9-4.9
			l20.4-8.1l1.9,4.9L81.2,48.4z M19.4,48.4l-1.9-4.9l20.3-8.1l1.9,4.9L19.4,48.4z"/>
	</g>
</g>
</svg>
