<?xml version="1.0" encoding="utf-8"?>
<!-- Generator: Adobe Illustrator 24.0.3, SVG Export Plug-In . SVG Version: 6.00 Build 0)  -->
<svg version="1.1" xmlns="http://www.w3.org/2000/svg" xmlns:xlink="http://www.w3.org/1999/xlink" x="0px" y="0px"
	 viewBox="0 0 87.1 154.1" style="enable-background:new 0 0 87.1 154.1;" xml:space="preserve">
<style type="text/css">
	.st0{fill:#231F20;}
	.st1{fill:#414042;}
	.st2{fill:#58595B;}
</style>
<g id="_x35_">
	<g id="Layer_6">
		<rect x="7.3" class="st0" width="17.6" height="154.1"/>
	</g>
</g>
<g id="_x34_">
	<g id="Layer_5">
		<rect x="34.4" y="52.5" class="st1" width="17.6" height="101.6"/>
	</g>
</g>
<g id="_x33_">
	<g id="Layer_4">
		<rect x="62.8" y="103.3" class="st2" width="17.6" height="50.8"/>
	</g>
</g>
<g id="_x32_">
	<g id="Layer_3">
		<path class="st0" d="M84.5,136.9H58.7c-1.5,0-2.6-1.2-2.6-2.6s1.2-2.6,2.6-2.6h25.8c1.5,0,2.6,1.2,2.6,2.6S86,136.9,84.5,136.9z
			 M84.5,125.7H58.7c-1.5,0-2.6-1.2-2.6-2.6s1.2-2.6,2.6-2.6h25.8c1.5,0,2.6,1.2,2.6,2.6S86,125.7,84.5,125.7z"/>
	</g>
</g>
<g id="_x31_">
	<g id="Layer_2_1_">
		<path class="st2" d="M28.4,139.6H2.6c-1.4,0-2.6-1.2-2.6-2.6s1.2-2.6,2.6-2.6h25.8c1.4,0,2.6,1.2,2.6,2.6S29.8,139.6,28.4,139.6z
			 M28.4,128.4H2.6c-1.4,0-2.6-1.2-2.6-2.6s1.2-2.6,2.6-2.6h25.8c1.4,0,2.6,1.2,2.6,2.6S29.8,128.4,28.4,128.4z M56.1,103.1H30.3
			c-1.4,0-2.6-1.2-2.6-2.6s1.2-2.6,2.6-2.6h25.8c1.5,0,2.6,1.2,2.6,2.6S57.5,103.1,56.1,103.1z M56.1,91.9H30.3
			c-1.4,0-2.6-1.2-2.6-2.6s1.2-2.6,2.6-2.6h25.8c1.5,0,2.6,1.2,2.6,2.6S57.5,91.9,56.1,91.9z M29,29.2H3.2c-1.4,0-2.6-1.2-2.6-2.6
			S1.8,24,3.2,24H29c1.4,0,2.6,1.2,2.6,2.6S30.4,29.2,29,29.2z M29,18H3.2c-1.4,0-2.6-1.2-2.6-2.6s1.2-2.6,2.6-2.6H29
			c1.4,0,2.6,1.2,2.6,2.6S30.4,18,29,18z"/>
	</g>
</g>
</svg>
