<?xml version="1.0" encoding="utf-8"?>
<!-- Generator: Adobe Illustrator 24.0.3, SVG Export Plug-In . SVG Version: 6.00 Build 0)  -->
<svg version="1.1" xmlns="http://www.w3.org/2000/svg" xmlns:xlink="http://www.w3.org/1999/xlink" x="0px" y="0px"
	 viewBox="0 0 129.2 129.2" style="enable-background:new 0 0 129.2 129.2;" xml:space="preserve">
<style type="text/css">
	.st0{fill:#231F20;}
	.st1{fill:#58595B;}
	.st2{fill:#414042;}
</style>
<g id="_x36_">
	
		<rect x="56.2" y="47.9" transform="matrix(0.7071 -0.7071 0.7071 0.7071 -26.7665 64.6364)" class="st0" width="16.8" height="33.5"/>
</g>
<g id="_x35_">
	<path class="st1" d="M14.6,117.2c-0.7,0-1.3-0.3-1.9-0.8c-1-1-1-2.7,0-3.7l100-100c1-1,2.7-1,3.7,0c1,1,1,2.7,0,3.7l-100,100
		C15.9,117,15.3,117.2,14.6,117.2z"/>
</g>
<g id="_x34_">
	<path class="st0" d="M82.4,116.3c-0.7,0-1.3-0.3-1.9-0.8L11,46.1c-1-1-1-2.7,0-3.7c1-1,2.7-1,3.7,0l69.5,69.5c1,1,1,2.7,0,3.7
		C83.7,116.1,83.1,116.3,82.4,116.3z M113.7,85c-0.7,0-1.3-0.3-1.9-0.8L42.3,14.8c-1-1-1-2.7,0-3.7c1-1,2.7-1,3.7,0l69.5,69.5
		c1,1,1,2.7,0,3.7C115,84.8,114.4,85,113.7,85z"/>
</g>
<g id="_x33_">
	<path class="st2" d="M15.7,58.8l11.9-11.9l11.9,11.9l-11.9,12L15.7,58.8z M46.9,27.6l11.9-11.9l11.9,11.9L58.9,39.5L46.9,27.6z
		 M58.4,101.6l11.9-11.9l11.9,11.9l-11.9,11.9L58.4,101.6z M89.7,70.3l11.9-11.9l11.9,11.9l-11.9,11.9L89.7,70.3z"/>
</g>
<g id="_x32_">
	<path class="st1" d="M0,74.5l11.9-11.9l11.9,11.9L11.9,86.4L0,74.5z M31.3,43.2l11.9-11.9l11.9,11.9L43.2,55.1L31.3,43.2z
		 M62.6,11.9L74.5,0l11.9,11.9L74.5,23.8L62.6,11.9z M42.8,117.3l11.9-11.9l11.9,11.9l-11.9,11.9L42.8,117.3z M74.1,86L86,74.1
		L97.9,86L86,97.9L74.1,86z M105.4,54.7l11.9-11.9l11.9,11.9l-11.9,11.9L105.4,54.7z"/>
</g>
<g id="_x31_">
	<path class="st0" d="M15.5,90l11.9-11.9l23.7,23.7l-11.9,11.9L15.5,90z M78.1,27.4L90,15.5l23.7,23.7l-11.9,11.9L78.1,27.4z
		 M48.9,74.8c3,0,5.4,2.4,5.4,5.4s-2.4,5.4-5.4,5.4s-5.4-2.4-5.4-5.4S46,74.8,48.9,74.8z M80.2,43.5c3,0,5.4,2.4,5.4,5.4
		s-2.4,5.4-5.4,5.4s-5.4-2.4-5.4-5.4S77.3,43.5,80.2,43.5z"/>
</g>
</svg>
