<?xml version="1.0" encoding="utf-8"?>
<!-- Generator: Adobe Illustrator 24.0.3, SVG Export Plug-In . SVG Version: 6.00 Build 0)  -->
<svg version="1.1" xmlns="http://www.w3.org/2000/svg" xmlns:xlink="http://www.w3.org/1999/xlink" x="0px" y="0px"
	 viewBox="0 0 80 80.1" style="enable-background:new 0 0 80 80.1;" xml:space="preserve">
<style type="text/css">
	.st0{fill:#231F20;}
	.st1{fill:#414042;}
	.st2{fill:#58595B;}
</style>
<g id="_x33_">
	<path class="st0" d="M40,67.5c-15.2,0-27.5-12.3-27.5-27.5c0-15.2,12.3-27.5,27.5-27.5c15.2,0,27.5,12.3,27.5,27.5
		C67.5,55.2,55.2,67.5,40,67.5z M40,17.7c-12.3,0-22.3,10-22.3,22.3s10,22.3,22.3,22.3s22.3-10,22.3-22.3S52.3,17.7,40,17.7z"/>
</g>
<g id="_x32_">
	<path class="st1" d="M76.6,80c-0.7,0-1.3-0.3-1.9-0.8L1.5,6.1c-1-1-1-2.7,0-3.7c1-1,2.7-1,3.7,0l73.2,73.2c1,1,1,2.7,0,3.7
		C77.9,79.8,77.3,80,76.6,80z"/>
</g>
<g id="_x31_">
	<path class="st2" d="M40,80c-22.1,0-40-18-40-40c0-22.1,18-40,40-40c22.1,0,40,18,40,40C80,62.1,62.1,80,40,80z M40,5.2
		C20.8,5.2,5.2,20.8,5.2,40S20.8,74.8,40,74.8S74.8,59.2,74.8,40S59.2,5.2,40,5.2z M40,27.2c7.1,0,12.8,5.7,12.8,12.8
		S47.1,52.8,40,52.8S27.2,47.1,27.2,40S32.9,27.2,40,27.2z"/>
</g>
</svg>
