<?xml version="1.0" encoding="utf-8"?>
<!-- Generator: Adobe Illustrator 24.1.0, SVG Export Plug-In . SVG Version: 6.00 Build 0)  -->
<svg version="1.1" xmlns="http://www.w3.org/2000/svg" xmlns:xlink="http://www.w3.org/1999/xlink" x="0px" y="0px"
	 viewBox="0 0 1080 1080" style="enable-background:new 0 0 1080 1080;" xml:space="preserve">
<style type="text/css">
	.st0{fill:#E6E6E6;}
	.st1{fill:#D9D9D9;}
	.st2{fill:#CCCCCC;}
	.st3{fill:#999999;}
	.st4{fill:#B3B3B3;}
	.st5{fill:#1A1A1A;}
	.st6{fill:#333333;}
	.st7{fill:#4D4D4D;}
	.st8{fill:#666666;}
	.st9{fill:#808080;}
</style>
<g id="Layer_2">
	<path class="st0" d="M618.9,536.8c-1.7-2.1-3-3.5-3-3.5c7.3-7.4,12.7-15.2,10-20.2c-2.5-4.5-6.5-6.7-11.5-7.4
		c0,0,2.4-11.3-3.8-17.5c-4-4.1-12.1-5.7-17.2-6.2c21.5-27.5,82.8-95.1,148.1-96.9c17.3-0.5,34.9,3.7,52.1,14.4
		c1.7,1.1,3.4,2.2,5,3.4c7.1,5.2,12.7,11.2,17,17.7c26.2,39.4,5.4,98.8-10.5,130.7c-3,6.1-5.9,11.2-8.2,15c-2.2,3.6-4,6-4.9,6.8
		C744.6,528.1,653.5,532.5,618.9,536.8z M694.9,741.6c1.2,0,4.1-0.4,8.3-1.4c4.3-1,9.9-2.6,16.4-4.8c33.8-11.3,90.5-38.5,99.8-85
		c1.5-7.6,1.8-15.8,0.5-24.5c-0.3-1.9-0.7-3.9-1.1-5.9c-4.6-19.7-14.1-35.1-26.6-47c-47.4-44.9-138.6-40.5-173.2-36.3
		c3.2,4,7.8,10.8,7.7,16.6c-0.1,8.7-9.7,15-9.7,15c3.1,4,4.3,8.4,2.9,13.3c-1.6,5.5-11,7.1-21.4,7.2c0,0,0,1.9-0.3,4.5
		C625.6,614.9,693.1,676.3,694.9,741.6z M507,792.1c0.8,0.9,3.2,2.6,6.8,4.9c3.8,2.3,8.9,5.2,15,8.2c31.9,15.9,91.2,36.7,130.7,10.5
		c6.5-4.3,12.4-9.9,17.7-17c1.2-1.6,2.3-3.3,3.4-5c10.7-17.2,14.9-34.8,14.4-52.1c-1.8-65.3-69.3-126.7-96.8-148.1
		c-0.6,5.1-2.1,13.2-6.2,17.2c-6.2,6.1-17.5,3.8-17.5,3.8c-0.6,5-2.9,9-7.4,11.5c-5,2.8-12.8-2.7-20.2-10c0,0-1.3,1.3-3.5,3
		C547.5,653.5,551.9,744.6,507,792.1z M338.4,694.9c0,1.2,0.4,4.1,1.4,8.3c1,4.3,2.6,9.9,4.8,16.4c11.3,33.8,38.5,90.5,85,99.8
		c7.6,1.5,15.8,1.8,24.5,0.5c1.9-0.3,3.9-0.7,5.9-1.1c19.7-4.6,35.1-14.1,47-26.6c44.9-47.4,40.5-138.6,36.3-173.2
		c-4,3.2-10.8,7.8-16.6,7.7c-8.7-0.1-15-9.7-15-9.7c-4,3.1-8.4,4.3-13.3,2.9c-5.5-1.6-7.1-11-7.2-21.4c0,0-1.9,0-4.5-0.3
		C465.1,625.6,403.7,693.1,338.4,694.9z M287.9,507c-0.9,0.8-2.6,3.2-4.9,6.8c-2.3,3.8-5.2,8.9-8.2,15
		c-15.9,31.9-36.7,91.2-10.5,130.7c4.3,6.5,9.9,12.4,17,17.7c1.6,1.2,3.3,2.3,5,3.4c17.2,10.7,34.8,14.9,52.1,14.4
		c65.3-1.8,126.7-69.3,148.1-96.8c-5.1-0.6-13.2-2.1-17.2-6.2c-6.1-6.2-3.8-17.5-3.8-17.5c-5-0.6-9-2.9-11.5-7.4
		c-2.8-5,2.7-12.8,10-20.2c0,0-1.3-1.3-3-3.5C426.5,547.5,335.4,551.9,287.9,507z M385.1,338.4c-1.2,0-4.1,0.4-8.3,1.4
		c-4.3,1-9.9,2.6-16.4,4.8c-33.8,11.3-90.5,38.5-99.8,85c-1.5,7.6-1.8,15.8-0.5,24.5c0.3,1.9,0.7,3.9,1.1,5.9
		c4.6,19.7,14.1,35.1,26.6,47c47.4,44.9,138.6,40.5,173.2,36.3c-3.2-4-7.8-10.8-7.7-16.6c0.1-8.7,9.7-15,9.7-15
		c-3.1-4-4.3-8.4-2.9-13.3c1.6-5.5,11-7.1,21.4-7.2c0,0,0-1.9,0.3-4.5C454.4,465.1,386.9,403.7,385.1,338.4z M573,287.9
		c-0.8-0.9-3.2-2.6-6.8-4.9c-3.8-2.3-8.9-5.2-15-8.2c-31.9-15.9-91.2-36.7-130.7-10.5c-6.5,4.3-12.4,9.9-17.7,17
		c-1.2,1.6-2.3,3.3-3.4,5c-10.7,17.2-14.9,34.8-14.4,52.1c1.8,65.3,69.4,126.7,96.9,148.1c0.6-5.1,2.1-13.2,6.2-17.2
		c6.2-6.1,17.5-3.8,17.5-3.8c0.6-5,2.9-9,7.4-11.5c5-2.8,12.8,2.7,20.2,10c0,0,1.3-1.3,3.5-3C532.5,426.5,528.1,335.4,573,287.9z
		 M741.6,385.1c0-1.2-0.4-4.1-1.4-8.3c-1-4.3-2.6-9.9-4.8-16.4c-11.3-33.8-38.5-90.5-85-99.8c-7.6-1.5-15.8-1.8-24.5-0.5
		c-1.9,0.3-3.9,0.7-5.9,1.1c-19.7,4.6-35.1,14.1-47,26.6c-44.9,47.4-40.5,138.6-36.3,173.2c4-3.2,10.8-7.8,16.6-7.7
		c8.7,0.1,15,9.7,15,9.7c4-3.1,8.4-4.3,13.3-2.9c5.5,1.6,7.1,11,7.2,21.4c0,0,1.9,0,4.5,0.3C614.9,454.4,676.3,386.9,741.6,385.1z"
		/>
</g>
<g id="Layer_3">
	<path class="st1" d="M586.1,512.2L586.1,512.2C563.4,522.2,540,540,540,540s4-29.1,13-52.3c4.1-10.5,9.2-19.8,15.4-24.6
		c4-3.1,8.4-4.3,13.3-2.9c5.5,1.6,7.2,11,7.2,21.4C589,495.7,586.2,511.7,586.1,512.2z M615.9,533.3c7.3-7.4,12.7-15.2,10-20.2
		c-2.5-4.5-6.5-6.7-11.5-7.4c-7.8-1-18,1.9-28.3,6.5C563.4,522.2,540,540,540,540s29.1,4,52.3,13l0,0
		C592.7,552.7,606,543.4,615.9,533.3z M598.4,588.9c10.4-0.1,19.8-1.8,21.4-7.2c1.4-4.9,0.2-9.3-2.9-13.3
		c-4.8-6.2-14.1-11.3-24.6-15.4c-23.2-9-52.3-13-52.3-13s17.8,23.4,27.8,46.1h0C568.3,586.2,584.3,589,598.4,588.9z M546.7,615.9
		c7.4,7.3,15.2,12.7,20.2,10c4.5-2.5,6.7-6.5,7.4-11.5c1-7.8-1.9-18-6.5-28.3C557.8,563.4,540,540,540,540s-4,29.1-13,52.3l0,0
		C527.3,592.7,536.6,606,546.7,615.9z M491.1,598.4c0.1,10.4,1.8,19.8,7.2,21.4c4.9,1.4,9.4,0.2,13.3-2.9
		c6.2-4.8,11.3-14.1,15.4-24.6c9-23.2,13-52.3,13-52.3s-23.4,17.8-46.1,27.8v0C493.8,568.3,491,584.3,491.1,598.4z M464.1,546.7
		c-7.3,7.4-12.7,15.2-10,20.2c2.5,4.5,6.5,6.7,11.5,7.4c7.8,1,18-1.9,28.3-6.5c22.7-10,46.1-27.8,46.1-27.8s-29.1-4-52.3-13l0,0
		C487.3,527.3,474,536.6,464.1,546.7z M481.6,491.1c-10.4,0.1-19.8,1.8-21.4,7.2c-1.4,4.9-0.2,9.4,2.9,13.3
		c4.8,6.2,14.1,11.3,24.6,15.4c23.2,9,52.3,13,52.3,13s-17.8-23.4-27.8-46.1h0C511.7,493.8,495.7,491,481.6,491.1z M533.3,464.1
		c-7.4-7.3-15.2-12.7-20.2-10c-4.5,2.5-6.7,6.5-7.4,11.5c-1,7.8,1.9,18,6.5,28.3c10,22.7,27.8,46.1,27.8,46.1s4-29.1,13-52.3l0,0
		C552.7,487.3,543.4,474,533.3,464.1z"/>
</g>
<g id="Layer_4">
	<path class="st2" d="M588.9,481.6c0,0,1.9,0,4.5,0.3c5.1,0.6,13.2,2.1,17.2,6.2c6.1,6.2,3.8,17.5,3.8,17.5c-7.8-1-18,1.9-28.3,6.5
		C586.2,511.7,589,495.7,588.9,481.6L588.9,481.6z M615.9,533.3c-9.9,10.1-23.2,19.4-23.6,19.7c10.5,4.1,19.8,9.2,24.6,15.4
		c0,0,9.6-6.3,9.7-15c0.1-5.7-4.6-12.6-7.7-16.6C617.2,534.6,615.9,533.3,615.9,533.3L615.9,533.3z M598.4,588.9
		c-14.1,0.1-30.1-2.7-30.6-2.8c4.5,10.3,7.5,20.5,6.5,28.3c0,0,11.3,2.4,17.5-3.8c4.1-4,5.7-12.1,6.2-17.2
		C598.4,590.8,598.4,588.9,598.4,588.9L598.4,588.9z M546.7,615.9c-10.1-9.9-19.4-23.2-19.7-23.6c-4.1,10.5-9.2,19.8-15.4,24.6
		c0,0,6.3,9.6,15,9.7c5.7,0.1,12.6-4.6,16.6-7.7C545.4,617.2,546.7,615.9,546.7,615.9L546.7,615.9z M491.1,598.4
		c-0.1-14.1,2.7-30.1,2.8-30.6c-10.3,4.5-20.5,7.5-28.3,6.5c0,0-2.4,11.3,3.8,17.5c4,4.1,12.1,5.7,17.2,6.2
		C489.2,598.4,491.1,598.4,491.1,598.4L491.1,598.4z M464.1,546.7c9.9-10.1,23.2-19.4,23.6-19.7c-10.5-4.1-19.8-9.2-24.6-15.4
		c0,0-9.6,6.3-9.7,15c-0.1,5.7,4.6,12.6,7.7,16.6C462.8,545.4,464.1,546.7,464.1,546.7L464.1,546.7z M481.6,491.1
		c14.1-0.1,30.1,2.7,30.6,2.8c-4.5-10.3-7.5-20.5-6.5-28.3c0,0-11.3-2.4-17.5,3.8c-4.1,4-5.7,12.1-6.2,17.2
		C481.6,489.2,481.6,491.1,481.6,491.1L481.6,491.1z M533.3,464.1c10.1,9.9,19.4,23.2,19.7,23.6c4.1-10.5,9.2-19.8,15.4-24.6
		c0,0-6.3-9.6-15-9.7c-5.7-0.1-12.6,4.6-16.6,7.7C534.6,462.8,533.3,464.1,533.3,464.1L533.3,464.1z"/>
</g>
<g id="Layer_6">
	<path class="st3" d="M642.9,493.5c0.7-1.2,23.8-38.3,57.1-52.5c33.8-14.4,81-4,78.3,31.8C773.8,532.9,674,496.4,642.9,493.5
		 M645.7,579.9c19.9,24,64.6,120.4,110.4,81.1c27.2-23.4,1.2-64.1-32.9-77.9C689.6,569.6,647,579.6,645.7,579.9 M586.5,642.9
		c-2.9,31.1-39.4,130.8,20.7,135.4c35.8,2.7,46.2-44.5,31.8-78.3C624.9,666.7,587.7,643.7,586.5,642.9 M500.1,645.7
		c-24,19.9-120.4,64.6-81.1,110.4c23.4,27.2,64.1,1.2,77.9-32.9C510.4,689.6,500.4,647,500.1,645.7 M437.1,586.5
		c-31.1-2.9-130.8-39.4-135.4,20.7c-2.7,35.8,44.5,46.2,78.3,31.8C413.3,624.9,436.4,587.7,437.1,586.5 M434.3,500.1
		c-19.9-24-64.6-120.4-110.4-81.1c-27.2,23.4-1.2,64.1,32.9,77.9C390.4,510.4,433,500.4,434.3,500.1 M493.5,437.1
		c2.9-31.1,39.4-130.8-20.7-135.4c-35.8-2.7-46.2,44.5-31.8,78.3C455.1,413.3,492.3,436.4,493.5,437.1 M579.9,434.3
		c24-19.9,120.4-64.6,81.1-110.4c-23.4-27.2-64.1-1.2-77.9,32.9C569.6,390.4,579.6,433,579.9,434.3"/>
</g>
<g id="Layer_5">
	<path class="st4" d="M642.9,493.5C642.9,493.5,642.9,493.5,642.9,493.5c0.9-1,25-27.8,46.1-36.9c28.3-12.2,48.2-2.2,51,10.7
		C746.8,497.8,680.8,492.1,642.9,493.5z M732.9,630c7.1-11.1,0.2-32.3-28.5-43.6c-21.4-8.5-57.4-6.5-58.7-6.5c0,0,0,0,0,0
		C673.5,605.7,716.1,656.4,732.9,630z M612.8,740c12.9-2.8,22.9-22.7,10.7-51c-9.1-21.1-36-45.2-36.9-46.1c0,0,0,0,0,0
		C587.9,680.8,582.2,746.8,612.8,740z M450,732.9c11.1,7.1,32.3,0.2,43.6-28.5c8.5-21.4,6.5-57.4,6.5-58.7c0,0,0,0,0,0
		C474.3,673.5,423.6,716.1,450,732.9z M340,612.8c2.8,12.9,22.7,22.9,51,10.7c21.1-9.1,45.2-36,46.1-36.9c0,0,0,0,0,0
		C399.1,587.9,333.2,582.2,340,612.8z M347.1,450c-7.1,11.1-0.2,32.3,28.5,43.6c21.4,8.5,57.4,6.5,58.7,6.5c0,0,0,0,0,0
		C406.5,474.3,363.9,423.6,347.1,450z M467.2,340c-12.9,2.8-22.9,22.7-10.7,51c9.1,21.1,35.9,45.2,36.9,46.1c0,0,0,0,0,0
		C492.1,399.1,497.8,333.2,467.2,340z M630,347.1c-11.1-7.1-32.3-0.2-43.6,28.5c-8.5,21.4-6.5,57.4-6.5,58.7c0,0,0,0,0,0
		C605.7,406.5,656.4,363.9,630,347.1z"/>
</g>
<g id="Layer_7">
	<path class="st5" d="M881.9,532.8c-0.2,0.1-0.4,0.3-0.6,0.4c-14.6,10.2-28.5,20-36.8,22.2c-17.3,4.6-39.3-4.3-39.3-4.3
		c15.9-31.9,36.7-91.2,10.5-130.7c0,0,25.6-10.5,60.6-11h0.4C878.8,427.9,886,494,881.9,532.8z M870.4,685.8l-0.3-0.3
		c-25.1-24.4-50.7-35.1-50.7-35.1c-9.3,46.5-66,73.7-99.8,85c0,0,9.2,21.8,24.7,30.8c7.4,4.3,24.3,7.2,41.8,10.3
		c0.2,0,0.5,0.1,0.7,0.1C817.1,752.1,858.9,700.3,870.4,685.8z M670.5,876.7v-0.4c-0.5-35.1-11-60.6-11-60.6
		c-39.5,26.2-98.8,5.4-130.7-10.5c0,0-8.9,21.9-4.3,39.3c2.2,8.3,12.1,22.2,22.2,36.8c0.1,0.2,0.3,0.4,0.4,0.6
		C586,886,652.1,878.8,670.5,876.7z M394.2,870.4l0.3-0.3c24.4-25.1,35.1-50.7,35.1-50.7c-46.5-9.3-73.7-66-85-99.8
		c0,0-21.8,9.2-30.8,24.7c-4.3,7.4-7.2,24.3-10.3,41.8c0,0.2-0.1,0.5-0.1,0.7C327.9,817.1,379.7,858.9,394.2,870.4z M203.3,670.5
		h0.4c35.1-0.5,60.6-11,60.6-11c-26.2-39.5-5.4-98.8,10.5-130.7c0,0-21.9-8.9-39.3-4.3c-8.3,2.2-22.2,12.1-36.8,22.2
		c-0.2,0.1-0.4,0.3-0.6,0.4C194,586,201.2,652.1,203.3,670.5z M209.6,394.2l0.3,0.3c25.1,24.4,50.7,35.1,50.7,35.1
		c9.3-46.5,66-73.7,99.8-85c0,0-9.2-21.8-24.7-30.8c-7.4-4.3-24.3-7.2-41.8-10.3c-0.2,0-0.5-0.1-0.7-0.1
		C262.9,327.9,221.1,379.7,209.6,394.2z M409.5,203.3v0.4c0.5,35.1,11,60.6,11,60.6c39.5-26.2,98.8-5.4,130.7,10.5
		c0,0,8.9-21.9,4.3-39.3c-2.2-8.3-12.1-22.2-22.2-36.8c-0.1-0.2-0.3-0.4-0.4-0.6C494,194,427.9,201.2,409.5,203.3z M685.8,209.6
		l-0.3,0.3c-24.4,25.1-35.1,50.7-35.1,50.7c46.5,9.3,73.7,66,85,99.8c0,0,21.8-9.2,30.8-24.7c4.3-7.4,7.2-24.3,10.3-41.8
		c0-0.2,0.1-0.5,0.1-0.7C752.1,262.9,700.3,221.1,685.8,209.6z"/>
</g>
<g id="Layer_8">
	<path class="st6" d="M984.7,529.9c-20.1-11.7-41.8-24.9-59.9-21.3c-10.9,2.2-27.2,13.3-42.9,24.2c4-38.8-3.1-105-5.2-123.4
		c22.6-0.3,49,3.6,75.1,17.2c7.2,3.8,14.3,7.8,21.3,12.1h0c0,0,0.1,0.1,0.1,0.1c0,0,0.1,0,0.1,0.1c0,0,0,0,0,0
		c5.5,3.4,10.8,6.9,16.1,10.5C989.4,449.5,996.3,494.1,984.7,529.9z M921.8,793.8c-1.1-6.3-2.4-12.5-3.9-18.8c0,0,0,0,0,0
		c0,0,0-0.1,0-0.1c0,0,0-0.1,0-0.2l0,0c-1.9-8-4-15.9-6.5-23.6c-8.9-28-24.8-49.5-41-65.3c-11.5,14.5-53.2,66.4-83.5,90.9
		c18.8,3.4,38.3,7,47.5,13.2c15.3,10.3,21.4,34.9,27.3,57.4C895.1,830.3,921.8,793.8,921.8,793.8z M630.5,989.4
		c3.6-5.2,7.1-10.6,10.5-16.1c0,0,0,0,0,0c0,0,0-0.1,0.1-0.1c0,0,0.1-0.1,0.1-0.1v0c4.3-7,8.4-14.1,12.1-21.3
		c13.6-26.1,17.5-52.6,17.2-75.1c-18.4,2.2-84.6,9.3-123.4,5.2c10.9,15.7,22.1,32,24.2,42.9c3.6,18.1-9.6,39.8-21.3,59.9
		C585.9,996.3,630.5,989.4,630.5,989.4z M286.2,921.8c6.3-1.1,12.5-2.4,18.8-3.9c0,0,0,0,0,0c0,0,0.1,0,0.1,0c0,0,0.1,0,0.2,0l0,0
		c8-1.9,15.9-4,23.6-6.5c28-8.9,49.5-24.8,65.3-41c-14.5-11.5-66.4-53.2-90.9-83.5c-3.4,18.8-7,38.3-13.2,47.5
		c-10.3,15.3-34.9,21.4-57.4,27.3C249.7,895.1,286.2,921.8,286.2,921.8z M90.6,630.5c5.2,3.6,10.6,7.1,16.1,10.5c0,0,0,0,0,0
		c0,0,0.1,0,0.1,0.1c0,0,0.1,0.1,0.1,0.1h0c7,4.3,14.1,8.4,21.3,12.1c26.1,13.6,52.6,17.5,75.1,17.2c-2.2-18.4-9.3-84.6-5.2-123.4
		c-15.7,10.9-32,22.1-42.9,24.2c-18.1,3.6-39.8-9.6-59.9-21.3C83.7,585.9,90.6,630.5,90.6,630.5z M158.2,286.2
		c1.1,6.3,2.4,12.5,3.9,18.8c0,0,0,0,0,0c0,0,0,0.1,0,0.1c0,0,0,0.1,0,0.2l0,0c1.9,8,4,15.9,6.5,23.6c8.9,28,24.8,49.5,41,65.3
		c11.5-14.5,53.2-66.4,83.5-90.9c-18.8-3.4-38.3-7-47.5-13.2c-15.3-10.3-21.4-34.9-27.3-57.4C184.9,249.7,158.2,286.2,158.2,286.2z
		 M449.5,90.6c-3.6,5.2-7.1,10.6-10.5,16.1c0,0,0,0,0,0c0,0,0,0.1-0.1,0.1c0,0-0.1,0.1-0.1,0.1v0c-4.3,7-8.4,14.1-12.1,21.3
		c-13.6,26.1-17.5,52.6-17.2,75.1c18.4-2.2,84.6-9.3,123.4-5.2c-10.9-15.7-22.1-32-24.2-42.9c-3.6-18.1,9.6-39.8,21.3-59.9
		C494.1,83.7,449.5,90.6,449.5,90.6z M793.8,158.2c-6.3,1.1-12.5,2.4-18.8,3.9c0,0,0,0,0,0c0,0-0.1,0-0.1,0c0,0-0.1,0-0.2,0l0,0
		c-8,1.9-15.9,4-23.6,6.5c-28,8.9-49.5,24.8-65.3,41c14.5,11.5,66.4,53.2,90.9,83.5c3.4-18.8,7-38.3,13.2-47.5
		c10.3-15.3,34.9-21.4,57.4-27.3C830.3,184.9,793.8,158.2,793.8,158.2z"/>
</g>
<g id="Layer_9">
	<path class="st7" d="M1076.9,525c0,0-16.8-1.5-26.3,2.8c-9.2,4-16.2,18.2-25.3,18.6c-11.2,0.4-25.4-7.6-40.5-16.4
		c11.6-35.8,4.7-80.4,4.7-80.4C1039.1,483.7,1076.9,525,1076.9,525z M921.8,793.8c0,0-26.7,36.5-60.2,53.5
		c4.4,16.9,8.8,32.6,17,40.3c6.6,6.2,21.7,1.1,31,4.7c9.8,3.8,20.6,16.7,20.6,16.7S932.7,853.1,921.8,793.8z M630.5,989.4
		c0,0-44.6,6.9-80.4-4.7c-8.8,15.1-16.8,29.3-16.4,40.5c0.3,9.1,14.5,16.1,18.6,25.3c4.2,9.6,2.8,26.3,2.8,26.3
		S596.3,1039.1,630.5,989.4z M286.2,921.8c0,0-36.5-26.7-53.5-60.2c-16.9,4.4-32.6,8.8-40.3,17c-6.2,6.6-1.1,21.7-4.7,31
		c-3.8,9.8-16.7,20.6-16.7,20.6S226.9,932.7,286.2,921.8z M90.6,630.5c0,0-6.9-44.6,4.7-80.4c-15.1-8.8-29.3-16.8-40.5-16.4
		c-9.1,0.3-16.1,14.5-25.3,18.6c-9.6,4.2-26.3,2.8-26.3,2.8S40.9,596.3,90.6,630.5z M158.2,286.2c0,0,26.7-36.5,60.2-53.5
		c-4.4-16.9-8.8-32.6-17-40.3c-6.6-6.2-21.7-1.1-31-4.7c-9.8-3.8-20.6-16.7-20.6-16.7S147.3,226.9,158.2,286.2z M449.5,90.6
		c0,0,44.6-6.9,80.4,4.7c8.8-15.1,16.8-29.3,16.4-40.5c-0.3-9.1-14.5-16.1-18.6-25.3c-4.2-9.6-2.8-26.3-2.8-26.3
		S483.7,40.9,449.5,90.6z M793.8,158.2c0,0,36.5,26.7,53.5,60.2c16.9-4.4,32.6-8.8,40.3-17c6.2-6.6,1.1-21.7,4.7-31
		c3.8-9.8,16.7-20.6,16.7-20.6S853.1,147.3,793.8,158.2z"/>
</g>
<g id="Layer_10">
	<path d="M1076.9,525c0,0-57.1,47.7-64.1,64.1c-3.1,7.2-2.6,16.5-0.4,26.8c0,0-24.2-17.8-41.2-24.5c-17-6.7-16.6-6.3-68.1,1.6
		c-51.5,7.9-106-26.8-106-26.8c2.3-3.8,5.2-8.9,8.2-15c0,0,21.9,8.9,39.3,4.3c8.3-2.2,22.2-12.1,36.8-22.2
		c15.9-11.1,32.5-22.5,43.5-24.7c18.1-3.6,39.8,9.6,59.9,21.3c15.1,8.8,29.3,16.8,40.5,16.4c9.1-0.3,16.1-14.5,25.3-18.6
		C1060.1,523.5,1076.9,525,1076.9,525z M909.6,892.4c-9.3-3.6-24.4,1.4-31-4.7c-8.2-7.6-12.6-23.4-17-40.3
		c-5.9-22.5-12-47.2-27.3-57.4c-9.3-6.3-29.2-10-48.2-13.4c-17.5-3.1-34.3-6-41.8-10.3c-15.5-9-24.7-30.8-24.7-30.8
		c-6.5,2.2-12.1,3.8-16.4,4.8c0,0,13.9,63.1,56,93.9c42,30.8,42,30.3,49.3,47.1c7.3,16.8,11.8,46.5,11.8,46.5
		c5.7-8.8,12-15.7,19.2-18.6c16.6-6.7,90.7,0,90.7,0S919.4,896.1,909.6,892.4z M552.2,1050.5c-4-9.2-18.2-16.2-18.6-25.3
		c-0.4-11.2,7.6-25.4,16.4-40.5c11.7-20.1,24.9-41.8,21.3-59.9c-2.2-11-13.6-27.7-24.7-43.5c-10.2-14.6-20-28.5-22.2-36.8
		c-4.6-17.3,4.3-39.3,4.3-39.3c-6.1-3-11.2-5.9-15-8.2c0,0-34.8,54.5-26.8,106c7.9,51.5,8.3,51.1,1.6,68.1
		c-6.7,17-24.5,41.2-24.5,41.2c10.3-2.2,19.6-2.7,26.8,0.4c16.5,7.1,64.1,64.1,64.1,64.1S556.5,1060.1,552.2,1050.5z M187.6,909.6
		c3.6-9.3-1.4-24.4,4.7-31c7.6-8.2,23.4-12.6,40.3-17c22.5-5.9,47.2-12,57.4-27.3c6.3-9.3,10-29.2,13.4-48.2
		c3.1-17.5,6-34.3,10.3-41.8c9-15.5,30.8-24.7,30.8-24.7c-2.2-6.5-3.8-12.1-4.8-16.4c0,0-63.1,13.9-93.9,56
		c-30.8,42-30.3,42-47.1,49.3c-16.8,7.3-46.5,11.8-46.5,11.8c8.8,5.7,15.7,12,18.6,19.2c6.7,16.6,0,90.7,0,90.7
		S183.9,919.4,187.6,909.6z M29.5,552.2c9.2-4,16.2-18.2,25.3-18.6c11.2-0.4,25.4,7.6,40.5,16.4c20.1,11.7,41.8,24.9,59.9,21.3
		c11-2.2,27.7-13.6,43.5-24.7c14.6-10.2,28.5-20,36.8-22.2c17.3-4.6,39.3,4.3,39.3,4.3c3-6.1,5.9-11.2,8.2-15
		c0,0-54.5-34.8-106-26.8c-51.5,7.9-51.1,8.3-68.1,1.6c-17-6.7-41.2-24.5-41.2-24.5c2.2,10.3,2.7,19.6-0.4,26.8
		C60.2,507.3,3.1,555,3.1,555S19.9,556.5,29.5,552.2z M170.4,187.6c9.3,3.6,24.4-1.4,31,4.7c8.2,7.6,12.6,23.4,17,40.3
		c5.9,22.5,12,47.2,27.3,57.4c9.3,6.3,29.2,10,48.2,13.4c17.5,3.1,34.3,6,41.8,10.3c15.5,9,24.7,30.8,24.7,30.8
		c6.5-2.2,12.1-3.8,16.4-4.8c0,0-13.9-63.1-56-93.9c-42-30.8-42-30.3-49.3-47.1c-7.3-16.8-11.8-46.5-11.8-46.5
		c-5.7,8.8-12,15.7-19.2,18.6c-16.6,6.7-90.7,0-90.7,0S160.6,183.9,170.4,187.6z M527.8,29.5c4,9.2,18.2,16.2,18.6,25.3
		c0.4,11.2-7.6,25.4-16.4,40.5c-11.7,20.1-24.9,41.8-21.3,59.9c2.2,11,13.6,27.7,24.7,43.5c10.2,14.6,20,28.5,22.2,36.8
		c4.6,17.3-4.3,39.3-4.3,39.3c6.1,3,11.2,5.9,15,8.2c0,0,34.8-54.5,26.8-106c-7.9-51.5-8.3-51.1-1.6-68.1
		c6.7-17,24.5-41.2,24.5-41.2c-10.3,2.2-19.6,2.7-26.8-0.4C572.7,60.2,525,3.1,525,3.1S523.5,19.9,527.8,29.5z M892.4,170.4
		c-3.6,9.3,1.4,24.4-4.7,31c-7.6,8.2-23.4,12.6-40.3,17c-22.5,5.9-47.2,12-57.4,27.3c-6.3,9.3-10,29.2-13.4,48.2
		c-3.1,17.5-6,34.3-10.3,41.8c-9,15.5-30.8,24.7-30.8,24.7c2.2,6.5,3.8,12.1,4.8,16.4c0,0,63.1-13.9,93.9-56
		c30.8-42,30.3-42,47.1-49.3c16.8-7.3,46.5-11.8,46.5-11.8c-8.8-5.7-15.7-12-18.6-19.2c-6.7-16.6,0-90.7,0-90.7
		S896.1,160.6,892.4,170.4z"/>
</g>
<g id="Layer_11">
	<path class="st8" d="M966.7,728.6c-7.9-21-30.9-46.4-44-55.9c-13.1-9.5-33.6-13.7-50.9-20.3c-21.2-8-52-26.6-52-26.6
		c-0.3-2-0.7-3.9-1.1-5.9c-4.6-19.7-14.1-35.1-26.6-47l4.9-6.8c0,0,54.5,34.8,106,26.8c51.5-7.9,51.1-8.3,68.1-1.6
		c17,6.7,41.2,24.5,41.2,24.5c7,32.4,31.7,74.2,19.1,89.2C1020.8,717.8,991.4,722.2,966.7,728.6z M708.3,975.1
		c9.3-20.5,10.9-54.6,8.4-70.6c-2.5-16-14-33.5-21.6-50.3c-9.3-20.6-18-55.6-18-55.6c1.2-1.6,2.3-3.3,3.4-5
		c10.7-17.2,14.9-34.8,14.4-52.1l8.3-1.4c0,0,13.9,63.1,56,93.9c42,30.8,42,30.3,49.3,47.1c7.3,16.8,11.8,46.5,11.8,46.5
		c-17.9,27.8-30,74.9-49.6,76.6C754.3,1005.7,730.4,988.1,708.3,975.1z M351.4,966.7c21-7.9,46.4-30.9,55.9-44
		c9.5-13.1,13.7-33.6,20.3-50.9c8-21.2,26.6-52,26.6-52c2-0.3,3.9-0.7,5.9-1.1c19.7-4.6,35.1-14.1,47-26.6l6.8,4.9
		c0,0-34.8,54.5-26.8,106c7.9,51.5,8.3,51.1,1.6,68.1c-6.7,17-24.5,41.2-24.5,41.2c-32.4,7-74.2,31.7-89.2,19.1
		C362.2,1020.8,357.8,991.4,351.4,966.7z M104.9,708.3c20.5,9.3,54.6,10.9,70.6,8.4c16-2.5,33.5-14,50.3-21.6
		c20.6-9.3,55.6-18,55.6-18c1.6,1.2,3.3,2.3,5,3.4c17.2,10.7,34.8,14.9,52.1,14.4l1.4,8.3c0,0-63.1,13.9-93.9,56
		c-30.8,42-30.3,42-47.1,49.3c-16.8,7.3-46.5,11.8-46.5,11.8c-27.8-17.9-74.9-30-76.6-49.6C74.3,754.3,91.9,730.4,104.9,708.3z
		 M113.3,351.4c7.9,21,30.9,46.4,44,55.9c13.1,9.5,33.6,13.7,50.9,20.3c21.2,8,52,26.6,52,26.6c0.3,2,0.7,3.9,1.1,5.9
		c4.6,19.7,14.1,35.1,26.6,47l-4.9,6.8c0,0-54.5-34.8-106-26.8c-51.5,7.9-51.1,8.3-68.1,1.6c-17-6.7-41.2-24.5-41.2-24.5
		c-7-32.4-31.7-74.2-19.1-89.2C59.2,362.2,88.6,357.8,113.3,351.4z M371.7,104.9c-9.3,20.5-10.9,54.6-8.4,70.6
		c2.5,16,14,33.5,21.6,50.3c9.3,20.6,18,55.6,18,55.6c-1.2,1.6-2.3,3.3-3.4,5c-10.7,17.2-14.9,34.8-14.4,52.1l-8.3,1.4
		c0,0-13.9-63.1-56-93.9c-42-30.8-42-30.3-49.3-47.1c-7.3-16.8-11.8-46.5-11.8-46.5c17.9-27.8,30-74.9,49.6-76.6
		C325.7,74.3,349.6,91.9,371.7,104.9z M728.6,113.3c-21,7.9-46.4,30.9-55.9,44c-9.5,13.1-13.7,33.6-20.3,50.9
		c-8,21.2-26.6,52-26.6,52c-2,0.3-3.9,0.7-5.9,1.1c-19.7,4.6-35.1,14.1-47,26.6l-6.8-4.9c0,0,34.8-54.5,26.8-106
		c-7.9-51.5-8.3-51.1-1.6-68.1c6.7-17,24.5-41.2,24.5-41.2c32.4-7,74.2-31.7,89.2-19.1C717.8,59.2,722.2,88.6,728.6,113.3z
		 M975.1,371.7c-20.5-9.3-54.6-10.9-70.6-8.4c-16,2.5-33.5,14-50.3,21.6c-20.6,9.3-55.6,18-55.6,18c-1.6-1.2-3.3-2.3-5-3.4
		c-17.2-10.7-34.8-14.9-52.1-14.4l-1.4-8.3c0,0,63.1-13.9,93.9-56c30.8-42,30.3-42,47.1-49.3c16.8-7.3,46.5-11.8,46.5-11.8
		c27.8,17.9,74.9,30,76.6,49.6C1005.7,325.7,988.1,349.6,975.1,371.7z"/>
</g>
<g id="Layer_13">
	<path class="st9" d="M819.9,625.9c1.4,8.7,1.1,16.9-0.5,24.5c0,0,25.5,10.6,50.7,35c16.2,15.8,32.3,37.4,41.2,65.6
		c2.4,7.7,4.6,15.6,6.5,23.6c0,0.1,0,0.2,0.1,0.4c0,0,0,0,0,0l0,0c0-0.1-0.1-0.2-0.1-0.4c-0.4-2.3-1.5-14.5,15.8-31.5
		c6.8-6.6,19.2-10.9,33.1-14.4c-7.9-21-30.9-46.4-44-55.9c-13.1-9.5-33.6-13.7-50.9-20.3C850.7,644.5,819.9,625.9,819.9,625.9z
		 M677.1,798.6c-5.2,7.1-11.2,12.7-17.6,17c0,0,10.6,25.6,11.1,60.6c0.3,22.7-3.5,49.3-17.2,75.5c-3.7,7.2-7.8,14.3-12.1,21.2
		c-0.1,0.1-0.1,0.2-0.2,0.3c0,0,0,0,0,0l0,0c0.1-0.1,0.1-0.2,0.2-0.3c1.4-1.9,9.2-11.4,33.5-11.1c9.5,0.1,21.2,5.9,33.6,13.2
		c9.3-20.5,10.9-54.6,8.4-70.6c-2.5-16-14-33.5-21.6-50.3C685.8,833.6,677.1,798.6,677.1,798.6z M454.1,819.9
		c-8.7,1.4-16.9,1.1-24.5-0.5c0,0-10.6,25.5-35.1,50.7c-15.8,16.2-37.3,32.3-65.5,41.2c-7.7,2.4-15.6,4.6-23.6,6.5
		c-0.1,0-0.2,0-0.4,0.1c0,0,0,0,0,0l0,0c0.1,0,0.2-0.1,0.4-0.1c2.3-0.4,14.6-1.5,31.5,15.8c6.6,6.8,10.8,19.2,14.4,33.1
		c21-7.9,46.4-30.9,55.9-44c9.5-13.1,13.7-33.6,20.3-50.9C435.5,850.7,454.1,819.9,454.1,819.9z M281.4,677.1
		c-7.1-5.2-12.7-11.2-17-17.6c0,0-25.6,10.6-60.6,11.1c-22.7,0.3-49.3-3.5-75.5-17.2c-7.2-3.7-14.3-7.8-21.2-12.1
		c-0.1-0.1-0.2-0.1-0.3-0.2c0,0,0,0,0,0l0,0c0.1,0.1,0.2,0.1,0.3,0.2c1.9,1.4,11.4,9.2,11.1,33.5c-0.1,9.5-5.9,21.2-13.2,33.6
		c20.5,9.3,54.6,10.9,70.6,8.4c16-2.5,33.5-14,50.3-21.6C246.4,685.8,281.4,677.1,281.4,677.1z M260.1,454.1
		c-1.4-8.7-1.1-16.9,0.4-24.5c0,0-25.5-10.6-50.7-35.1c-16.2-15.8-32.3-37.3-41.2-65.5c-2.4-7.7-4.6-15.6-6.4-23.6
		c0-0.1-0.1-0.2-0.1-0.4c0,0,0,0,0,0l0,0c0,0.1,0.1,0.2,0.1,0.4c0.4,2.3,1.5,14.6-15.8,31.5c-6.8,6.6-19.2,10.8-33.1,14.4
		c7.9,21,30.9,46.4,44,55.9c13.1,9.5,33.6,13.7,50.9,20.3C229.3,435.5,260.1,454.1,260.1,454.1z M402.9,281.4
		c5.2-7.1,11.2-12.7,17.6-17c0,0-10.6-25.6-11.1-60.6c-0.3-22.7,3.5-49.3,17.2-75.5c3.7-7.2,7.8-14.3,12.1-21.2
		c0.1-0.1,0.1-0.2,0.2-0.3c0,0,0,0,0,0l0,0c-0.1,0.1-0.1,0.2-0.2,0.3c-1.4,1.9-9.2,11.4-33.5,11.1c-9.5-0.1-21.2-5.9-33.6-13.2
		c-9.3,20.5-10.9,54.6-8.4,70.6c2.5,16,14,33.5,21.6,50.3C394.2,246.4,402.9,281.4,402.9,281.4z M625.9,260.1
		c8.7-1.4,16.9-1.1,24.5,0.4c0,0,10.6-25.5,35-50.7c15.8-16.2,37.4-32.3,65.6-41.2c7.7-2.4,15.6-4.6,23.6-6.4c0.1,0,0.2-0.1,0.4-0.1
		c0,0,0,0,0,0l0,0c-0.1,0-0.2,0.1-0.4,0.1c-2.3,0.4-14.5,1.5-31.5-15.8c-6.6-6.8-10.9-19.2-14.4-33.1c-21,7.9-46.4,30.9-55.9,44
		c-9.5,13.1-13.7,33.6-20.3,50.9C644.5,229.3,625.9,260.1,625.9,260.1z M798.6,402.9c7.1,5.2,12.7,11.2,17,17.6
		c0,0,25.6-10.6,60.6-11.1c22.7-0.3,49.3,3.5,75.5,17.2c7.2,3.7,14.3,7.8,21.2,12.1c0.1,0.1,0.2,0.1,0.3,0.2c0,0,0,0,0,0l0,0
		c-0.1-0.1-0.2-0.1-0.3-0.2c-1.9-1.4-11.4-9.2-11.1-33.5c0.1-9.5,5.9-21.2,13.2-33.6c-20.5-9.3-54.6-10.9-70.6-8.4
		c-16,2.5-33.5,14-50.3,21.6C833.6,394.2,798.6,402.9,798.6,402.9z"/>
</g>
</svg>
