<?xml version="1.0" encoding="utf-8"?>
<!-- Generator: Adobe Illustrator 24.1.0, SVG Export Plug-In . SVG Version: 6.00 Build 0)  -->
<svg version="1.1" id="Layer_1" xmlns="http://www.w3.org/2000/svg" xmlns:xlink="http://www.w3.org/1999/xlink" x="0px" y="0px"
	 viewBox="0 0 1090 1080" style="enable-background:new 0 0 1090 1080;" xml:space="preserve">
<style type="text/css">
	.st0{fill:#BFBFBF;}
	.st1{fill:#A6A6A6;}
	.st2{fill:#0D0D0D;}
	.st3{fill:#808080;}
	.st4{fill:#999999;}
	.st5{fill:#B3B3B3;}
	.st6{fill:#CCCCCC;}
	.st7{fill:#E6E6E6;}
	.st8{fill:#595959;}
	.st9{fill:#737373;}
	.st10{fill:#8C8C8C;}
	.st11{fill:#262626;}
	.st12{fill:#404040;}
	.st13{fill:#666666;}
	.st14{fill:#333333;}
</style>
<g id="Layer_2_1_">
	<path class="st0" d="M721.1,376.6c0,0-21.7-67.2-111.8-62.2C527,318.9,494.7,417,494.7,417s19.3-116.9,96.9-137.2
		C671.6,258.9,717.5,306.6,721.1,376.6z M761.9,389c-69.2-40.5-165.5,28.5-165.5,28.5S688.6,371,750,426
		c67.2,60.2,35.1,123,35.1,123C832,496.9,833.2,430.8,761.9,389z M805.1,586.6c-20.3-77.6-137.2-96.9-137.2-96.9
		S766,522,770.5,604.3c5,90.1-62.2,111.8-62.2,111.8C778.4,712.5,826,666.6,805.1,586.6z M696,756.9
		c40.5-69.2-28.5-165.5-28.5-165.5S714,683.6,659,745c-60.2,67.2-123,35.1-123,35.1C588.1,827,654.2,828.2,696,756.9z M498.3,800.1
		c77.6-20.3,96.9-137.2,96.9-137.2S562.9,761,480.6,765.6c-90.1,5-111.8-62.2-111.8-62.2C372.5,773.4,418.4,821,498.3,800.1z
		 M328,691c69.2,40.5,165.5-28.5,165.5-28.5S401.4,709,340,654c-67.2-60.2-35.1-123-35.1-123C258,583.1,256.7,649.2,328,691z
		 M284.8,493.3c20.3,77.6,137.2,96.9,137.2,96.9s-98.1-32.3-102.6-114.6c-5-90.1,62.2-111.8,62.2-111.8
		C311.6,367.5,263.9,413.4,284.8,493.3z M394,323c-40.5,69.2,28.5,165.5,28.5,165.5S376,396.4,431,335c60.2-67.2,123-35.1,123-35.1
		C501.9,253,435.8,251.7,394,323z"/>
</g>
<g id="Layer_3">
	<path class="st1" d="M691.5,337.1c-13.1-3.6-23.4-2.8-30.4-1.4c-31.6,6.5-56.7,39-64.7,81.8c0.1-4.2,0.4-25.8-16.3-43.4
		c-19.6-20.7-46.2-18.8-49.5-18.5l0,0c18.2-20.8,44-39.3,78.7-41.2c39.4-2.2,65.7,9.5,82.9,23.2 M792.2,501
		c-2.4-21.9-12.8-48.7-42.2-75.1c-25.9-23.2-57.2-28.3-84.8-26.5l0,0c2.6,2.2,22.7,19.6,22,48.1c-0.7,24.3-16.1,39.3-19.2,42.2
		c36-24.6,76.6-29.8,103.6-12.1c5.9,3.9,13.8,10.6,20.5,22.4 M747.3,687.2c13.8-17.1,25.4-43.5,23.2-82.9
		c-1.9-34.7-20.4-60.5-41.2-78.7l0,0c0.3,3.4,2.2,30-18.5,49.5c-17.6,16.7-39.2,16.4-43.4,16.3c42.8,8,75.3,33.1,81.8,64.7
		c1.4,6.9,2.3,17.3-1.4,30.4 M583.9,787.2c21.9-2.4,48.7-12.8,75.1-42.2c23.2-25.9,28.3-57.2,26.5-84.8l0,0
		c-2.2,2.6-19.6,22.7-48.1,22c-24.3-0.7-39.3-16.1-42.2-19.2c24.6,36,29.8,76.6,12.1,103.6c-3.9,5.9-10.6,13.8-22.4,20.5
		 M397.7,742.3c17.1,13.8,43.5,25.4,82.9,23.2c34.7-1.9,60.5-20.4,78.7-41.2l0,0c-3.4,0.3-30,2.2-49.5-18.5
		c-16.7-17.6-16.4-39.2-16.3-43.4c-8,42.8-33.1,75.3-64.7,81.8c-6.9,1.4-17.3,2.3-30.4-1.4 M297.8,578.9
		c2.4,21.9,12.8,48.7,42.2,75.1c25.9,23.2,57.2,28.3,84.8,26.5l0,0c-2.6-2.2-22.7-19.6-22-48.1c0.7-24.3,16.1-39.3,19.2-42.2
		c-36,24.6-76.6,29.8-103.6,12.1c-5.9-3.9-13.8-10.6-20.5-22.4 M342.7,392.7c-13.8,17.1-25.4,43.5-23.2,82.9
		c1.9,34.7,20.4,60.5,41.2,78.7l0,0c-0.3-3.4-2.2-30,18.5-49.5c17.6-16.7,39.2-16.4,43.4-16.3c-42.8-8-75.3-33.1-81.8-64.7
		c-1.4-6.9-2.3-17.3,1.4-30.4 M506,292.8c-21.9,2.4-48.7,12.8-75.1,42.2c-23.2,25.9-28.3,57.2-26.5,84.8l0,0
		c2.2-2.6,19.6-22.7,48.1-22c24.3,0.7,39.3,16.1,42.2,19.2c-24.6-36-29.8-76.6-12.1-103.6c3.9-5.9,10.6-13.8,22.4-20.5"/>
</g>
<g id="Layer_4">
	<path class="st2" d="M721.1,376.6c-2.9-55-31.8-96.3-82.9-101.2l0,0c9.7-24.4,24.6-47,50-58c6.4-2.8,12.8-4.9,19.1-6.4l0,0
		c17.3,18.2,25,35,28.8,46.1c10.6,30.9,2.3,50.4,11.4,90.3c4.3,18.7,10.4,33.2,14.4,41.6c-13-7.6-26.9-11.3-41-12.4L721.1,376.6z
		 M785,548.9c9.2,10.7,16.4,23.2,20.2,37.7c3.2-8.8,9-23.3,19.2-39.6c21.7-34.7,41.4-42.6,55.8-71.9c5.2-10.6,11.6-27.9,12.3-53l0,0
		c-5.5-3.4-11.5-6.4-18.1-9c-25.7-10.1-52.2-4.8-76.3,5.7l0,0c32.6,39.6,23.9,89.3-13,130.2L785,548.9z M708.4,716
		c-1.1,14.1-4.8,28-12.4,41c8.4-4,22.9-10.1,41.6-14.4c39.9-9.2,59.4-0.9,90.3-11.4c11.2-3.8,27.9-11.5,46.1-28.8l0,0
		c-1.5-6.3-3.6-12.7-6.4-19.1c-11-25.4-33.6-40.3-58-50l0,0c-5,51.1-46.2,80-101.2,82.9L708.4,716z M536.1,780
		c-10.7,9.2-23.2,16.4-37.7,20.2c8.8,3.2,23.3,9,39.6,19.2c34.7,21.7,42.6,41.4,71.9,55.8c10.6,5.2,27.9,11.6,53,12.3l0,0
		c3.4-5.5,6.4-11.5,9-18.1c10.1-25.7,4.8-52.2-5.7-76.3l0,0c-39.6,32.6-89.3,23.9-130.2-13L536.1,780z M369,703.4
		c-14.1-1.1-28-4.8-41-12.4c4,8.4,10.1,22.9,14.4,41.6c9.2,39.9,0.9,59.4,11.4,90.3c3.8,11.2,11.5,27.9,28.8,46.1l0,0
		c6.3-1.5,12.7-3.6,19.1-6.4c25.4-11,40.3-33.6,50-58l0,0c-51.1-5-80-46.2-82.9-101.2L369,703.4z M305,531.1
		c-9.2-10.7-16.4-23.2-20.2-37.7c-3.2,8.8-9,23.3-19.2,39.6c-21.7,34.7-41.4,42.6-55.8,71.9c-5.2,10.6-11.6,27.9-12.3,53l0,0
		c5.5,3.4,11.5,6.4,18.1,9c25.7,10.1,52.2,4.8,76.3-5.7l0,0c-32.6-39.6-23.9-89.3,13-130.2L305,531.1z M381.6,364
		c1.1-14.1,4.8-28,12.4-41c-8.4,4-22.9,10.1-41.6,14.4c-39.9,9.2-59.4,0.9-90.3,11.4c-11.2,3.8-27.9,11.5-46.1,28.8l0,0
		c1.5,6.3,3.6,12.7,6.4,19.1c11,25.4,33.6,40.3,58,50l0,0c5-51.1,46.2-80,101.2-82.9L381.6,364z M553.9,300
		c10.7-9.2,23.2-16.4,37.7-20.2c-8.8-3.2-23.3-9-39.6-19.2c-34.7-21.7-42.6-41.4-71.9-55.8c-10.6-5.2-27.9-11.6-53-12.3l0,0
		c-3.4,5.5-6.4,11.5-9,18.1c-10.1,25.7-4.8,52.2,5.7,76.3l0,0c39.6-32.6,89.3-23.9,130.2,13L553.9,300z"/>
</g>
<g id="Layer_5">
	<path class="st3" d="M545,540c-15.8-9.5-27.3-19.7-35.3-29.8c3.6-1.6,7.5-3.1,12-4.5c4.9-1.5,9.4-2.6,13.5-3.5
		C538.1,523,544.8,539.5,545,540z M564.8,506.4c-3.5-2.4-7.5-4.8-12-7.1c-4.1-2.1-8-3.9-11.6-5.3c-1.5,12.8-0.6,28.1,3.8,46
		C545.2,539.5,552.1,523.1,564.8,506.4z M582.8,530.2c-0.8-4.1-1.9-8.7-3.5-13.5c-1.4-4.4-2.9-8.4-4.5-12
		c-10.1,8-20.3,19.5-29.8,35.3C545.5,539.8,561.9,533.1,582.8,530.2z M578.6,559.8c2.4-3.5,4.8-7.5,7.1-12c2.1-4.1,3.9-8,5.3-11.6
		c-12.8-1.5-28.1-0.6-46,3.8C545.5,540.2,561.9,547.1,578.6,559.8z M554.8,577.8c4.1-0.8,8.7-1.9,13.5-3.5c4.4-1.4,8.4-2.9,12-4.5
		c-8-10.1-19.5-20.3-35.3-29.8C545.2,540.5,551.9,556.9,554.8,577.8z M525.2,573.6c3.5,2.4,7.5,4.8,12,7.1c4.1,2.1,8,3.9,11.6,5.3
		c1.5-12.8,0.6-28.1-3.8-46C544.8,540.5,537.9,556.9,525.2,573.6z M507.2,549.8c0.8,4.1,1.9,8.7,3.5,13.5c1.4,4.4,2.9,8.4,4.5,12
		c10.1-8,20.3-19.5,29.8-35.3C544.5,540.2,528,546.9,507.2,549.8z M511.4,520.2c-2.4,3.5-4.8,7.5-7.1,12c-2.1,4.1-3.9,8-5.3,11.6
		c12.8,1.5,28.1,0.6,46-3.8C544.5,539.8,528.1,532.9,511.4,520.2z"/>
</g>
<g id="Layer_6">
	<path class="st4" d="M534.4,474.9c-0.9,9.3-0.3,18.7,0.8,27.3c-4.1,0.8-8.7,1.9-13.5,3.5c-4.4,1.4-8.4,2.9-12,4.5
		c-11.1-14-15.6-28-16.2-40.3l0,0c6.1,0.3,12.7,0.8,19.7,1.6C520.7,472.4,528,473.6,534.4,474.9 M583.5,486.5
		c-3.6-5.4-7.9-11.5-12.5-17.4c-4.3-5.5-8.6-10.6-12.8-15.1l0,0c-8.3,9.1-14.9,22.2-17,39.9c3.6,1.4,7.5,3.2,11.6,5.3
		c4.5,2.3,8.5,4.8,12,7.1C570,499.4,576.3,492.4,583.5,486.5 M610.1,529.4c1.3-6.4,2.5-13.7,3.4-21.1c0.8-7,1.3-13.6,1.6-19.7l0,0
		c-12.3,0.6-26.2,5.1-40.3,16.2c1.6,3.6,3.1,7.5,4.5,12c1.5,4.9,2.6,9.4,3.5,13.5C591.4,529,600.8,528.5,610.1,529.4 M598.5,578.5
		c5.4-3.6,11.5-7.9,17.4-12.5c5.5-4.3,10.6-8.6,15.1-12.8l0,0c-9.1-8.3-22.2-14.9-39.9-17c-1.4,3.6-3.2,7.5-5.3,11.6
		c-2.3,4.5-4.8,8.5-7.1,12C585.6,565,592.5,571.3,598.5,578.5 M555.6,605.1c6.4,1.3,13.7,2.5,21.1,3.4c7,0.8,13.6,1.3,19.7,1.6l0,0
		c-0.6-12.3-5.1-26.2-16.2-40.3c-3.6,1.6-7.5,3.1-12,4.5c-4.9,1.5-9.4,2.6-13.5,3.5C556,586.4,556.5,595.8,555.6,605.1 M506.5,593.5
		c3.6,5.4,7.9,11.5,12.5,17.4c4.3,5.5,8.6,10.6,12.8,15.1l0,0c8.3-9.1,14.9-22.2,17-39.9c-3.6-1.4-7.5-3.2-11.6-5.3
		c-4.5-2.3-8.5-4.8-12-7.1C519.9,580.6,513.7,587.5,506.5,593.5 M479.9,550.6c-1.3,6.4-2.5,13.7-3.4,21.1c-0.8,7-1.3,13.6-1.6,19.7
		l0,0c12.3-0.6,26.2-5.1,40.3-16.2c-1.6-3.6-3.1-7.5-4.5-12c-1.5-4.9-2.6-9.4-3.5-13.5C498.6,551,489.2,551.5,479.9,550.6
		 M491.5,501.5c-5.4,3.6-11.5,7.9-17.4,12.5c-5.5,4.3-10.6,8.6-15.1,12.8l0,0c9.1,8.3,22.2,14.9,39.9,17c1.4-3.6,3.2-7.5,5.3-11.6
		c2.3-4.5,4.8-8.5,7.1-12C504.4,514.9,497.4,508.7,491.5,501.5"/>
</g>
<g id="Layer_7">
	<path class="st5" d="M533.9,474.9c-6.4-1.3-13.3-2.5-20.7-3.4c-7-0.8-13.6-1.3-19.7-1.6l0,0c-0.7-15.5,4.9-28.3,11.7-35.1
		c5.8,3.3,11.7,6.8,17.6,10.3c5.5,3.3,10.8,6.5,16,9.8c-2.4,6.4-3.8,13.2-4.5,20 M583.5,486.5c5.3-4.4,11-8.2,17.3-11
		c-1.4-6-2.8-12.1-4.4-18.3c-1.7-6.7-3.4-13.3-5.2-19.7c-9.6,0-22.6,5-33.1,16.5l0,0c4.2,4.5,8.5,9.5,12.8,15.1
		c4.6,5.9,8.7,11.6,12.2,17 M610.1,529.4c6.8,0.6,13.6,2,20,4.5c3.3-5.2,6.5-10.6,9.8-16c3.5-5.9,7-11.8,10.3-17.6
		c-6.7-6.8-19.5-12.4-35.1-11.7l0,0c-0.3,6.1-0.8,12.7-1.6,19.7c-0.9,7.4-2.1,14.4-3.4,20.7 M598.5,578.5c4.4,5.3,8.2,11,11,17.3
		c6-1.4,12.1-2.8,18.3-4.4c6.7-1.7,13.3-3.4,19.7-5.2c0-9.6-5-22.6-16.5-33.1l0,0c-4.5,4.2-9.5,8.5-15.1,12.8
		c-5.9,4.6-11.6,8.7-17,12.2 M555.6,605.1c-0.6,6.8-2,13.6-4.5,20c5.2,3.3,10.6,6.5,16,9.8c5.9,3.5,11.8,7,17.6,10.3
		c6.8-6.7,12.4-19.5,11.7-35.1l0,0c-6.1-0.3-12.7-0.8-19.7-1.6c-7.4-0.9-14.4-2.1-20.7-3.4 M506.5,593.5c-5.3,4.4-11,8.2-17.3,11
		c1.4,6,2.8,12.1,4.4,18.3c1.7,6.7,3.4,13.3,5.2,19.7c9.6,0,22.6-5,33.1-16.5l0,0c-4.2-4.5-8.5-9.5-12.8-15.1
		c-4.6-5.9-8.7-11.6-12.2-17 M479.9,550.6c-6.8-0.6-13.6-2-20-4.5c-3.3,5.2-6.5,10.6-9.8,16c-3.5,5.9-7,11.8-10.3,17.6
		c6.7,6.8,19.5,12.4,35.1,11.7l0,0c0.3-6.1,0.8-12.7,1.6-19.7c0.9-7.4,2.1-14.4,3.4-20.7 M491.5,501.5c-4.4-5.3-8.2-11-11-17.3
		c-6,1.4-12.1,2.8-18.3,4.4c-6.7,1.7-13.3,3.4-19.7,5.2c0,9.6,5,22.6,16.5,33.1l0,0c4.5-4.2,9.5-8.5,15.1-12.8
		c5.9-4.6,11.6-8.7,17-12.2"/>
</g>
<g id="Layer_8">
	<path class="st6" d="M547.8,439.2c-3.9,4.8-6.8,10.1-8.9,15.7c-5.2-3.3-10.6-6.5-16-9.8c-5.9-3.5-11.8-7-17.6-10.3l0,0
		c1.8-1.8,3.8-3.2,5.7-4C528,423,547.8,439.2,547.8,439.2z M598.1,438.6c-2-0.7-4.3-1.1-6.9-1.1l0,0c1.8,6.4,3.5,13,5.2,19.7
		c1.5,6.2,3,12.2,4.4,18.3c5.5-2.5,11.3-4.2,17.4-4.8C618.2,470.7,615.7,445.3,598.1,438.6z M654.2,505.9c-0.9-1.9-2.2-3.8-4-5.7
		l0,0c-3.3,5.8-6.8,11.7-10.3,17.6c-3.3,5.5-6.5,10.8-9.8,16c5.6,2.1,10.9,5,15.7,8.9C645.8,542.8,661.9,523,654.2,505.9z
		 M646.3,593.1c0.7-2,1.1-4.3,1.1-6.9l0,0c-6.4,1.8-13,3.5-19.7,5.2c-6.2,1.5-12.2,3-18.3,4.4c2.5,5.5,4.2,11.3,4.8,17.4
		C614.3,613.2,639.7,610.7,646.3,593.1z M579.1,649.2c1.9-0.9,3.8-2.2,5.7-4l0,0c-5.8-3.3-11.7-6.8-17.6-10.3
		c-5.5-3.3-10.8-6.5-16-9.8c-2.1,5.6-5,10.9-8.9,15.7C542.2,640.8,562,656.9,579.1,649.2z M491.9,641.3c2,0.7,4.3,1.1,6.9,1.1l0,0
		c-1.8-6.4-3.5-13-5.2-19.7c-1.5-6.2-3-12.2-4.4-18.3c-5.5,2.5-11.3,4.2-17.4,4.8C471.8,609.3,474.3,634.7,491.9,641.3z
		 M435.8,574.1c0.9,1.9,2.2,3.8,4,5.7l0,0c3.3-5.8,6.8-11.7,10.3-17.6c3.3-5.5,6.5-10.8,9.8-16c-5.6-2.1-10.9-5-15.7-8.9
		C444.2,537.2,428,557,435.8,574.1z M443.6,486.9c-0.7,2-1.1,4.3-1.1,6.9l0,0c6.4-1.8,13-3.5,19.7-5.2c6.2-1.5,12.2-3,18.3-4.4
		c-2.5-5.5-4.2-11.3-4.8-17.4C475.7,466.8,450.3,469.3,443.6,486.9z"/>
</g>
<g id="Layer_10">
	<path class="st7" d="M545,540c0,0-70.9-29.4-69.6-80.2s49.6-67.9,72.4-20.6c0,0-19.8-16.2-36.9-8.4C492.4,439.1,472,495.9,545,540z
		 M598.1,438.6c17.6,6.6,20.1,32,20.1,32c17.4-49.5-28.9-71.6-65.7-36.6S545,540,545,540C524.5,457.2,579.1,431.5,598.1,438.6z
		 M654.2,505.9c7.7,17.1-8.4,36.9-8.4,36.9c47.3-22.7,30.2-71.1-20.6-72.4S545,540,545,540C589.1,467,645.8,487.4,654.2,505.9z
		 M646.3,593.1c-6.6,17.6-32,20.1-32,20.1c49.5,17.4,71.6-28.9,36.6-65.7C615.9,510.7,545,540,545,540
		C627.8,519.5,653.5,574.1,646.3,593.1z M579.1,649.2c-17.1,7.7-36.9-8.4-36.9-8.4c22.7,47.3,71.1,30.2,72.4-20.6
		C615.8,569.4,545,540,545,540C618,584.1,597.5,640.8,579.1,649.2z M491.9,641.3c-17.6-6.6-20.1-32-20.1-32
		c-17.4,49.5,28.9,71.6,65.7,36.6S545,540,545,540C565.4,622.8,510.8,648.5,491.9,641.3z M435.8,574.1c-7.7-17.1,8.4-36.9,8.4-36.9
		c-47.3,22.7-30.2,71.1,20.6,72.4C515.6,610.8,545,540,545,540C500.9,613,444.1,592.5,435.8,574.1z M443.6,486.9
		c6.6-17.6,32-20.1,32-20.1c-49.5-17.4-71.6,28.9-36.6,65.7s106,7.5,106,7.5C462.2,560.4,436.5,505.8,443.6,486.9z"/>
</g>
<g id="Layer_11">
	<path class="st8" d="M596.4,417.5c-13.1-2.3-29.2,2.6-43.9,16.5c-1.7,1.6-3.3,3.4-4.7,5.1c-13.7-28.5-36.6-33.6-53-22.2
		c4.1-5.4,15.1-18.6,33.9-23.5C552.3,387.3,578.6,396.8,596.4,417.5 M667.9,489.8c2.1-27.3-9.8-52.6-30.9-64.9
		c-16.7-9.8-33.9-8.3-40.6-7.3c19.7,3.5,32.3,23.4,21.8,53.1c2.3-0.2,4.6-0.3,7-0.3C645.4,470.9,660.3,478.9,667.9,489.8
		 M667.4,591.4c20.8-17.8,30.2-44.1,24-67.8c-4.9-18.8-18.1-29.8-23.5-33.9c11.5,16.4,6.3,39.3-22.2,53c1.8,1.4,3.5,3,5.1,4.7
		C664.9,562.2,669.7,578.3,667.4,591.4 M595.2,662.9c27.3,2.1,52.6-9.8,64.9-30.9c9.8-16.7,8.3-33.9,7.3-40.6
		c-3.5,19.7-23.4,32.3-53.1,21.8c0.2,2.3,0.3,4.6,0.3,7C614.1,640.4,606.1,655.3,595.2,662.9 M493.6,662.4
		c17.8,20.8,44.1,30.2,67.8,24c18.8-4.9,29.8-18.1,33.9-23.5c-16.4,11.5-39.3,6.3-53-22.2c-1.4,1.8-3,3.5-4.7,5.1
		C522.8,659.9,506.6,664.7,493.6,662.4 M422.1,590.2c-2.1,27.3,9.8,52.6,30.9,64.9c16.7,9.8,33.9,8.3,40.6,7.3
		c-19.7-3.5-32.3-23.4-21.8-53.1c-2.3,0.2-4.6,0.3-7,0.3C444.5,609.1,429.7,601.1,422.1,590.2 M422.5,488.6
		c-20.8,17.8-30.2,44.1-24,67.8c4.9,18.8,18.1,29.8,23.5,33.9c-11.5-16.4-6.3-39.3,22.2-53c-1.8-1.4-3.5-3-5.1-4.7
		C425.1,517.8,420.2,501.6,422.5,488.6 M494.8,417.1c-27.3-2.1-52.6,9.8-64.9,30.9c-9.8,16.7-8.3,33.9-7.3,40.6
		c3.5-19.7,23.4-32.3,53.1-21.8c-0.2-2.3-0.3-4.6-0.3-7C475.9,439.5,483.9,424.7,494.8,417.1"/>
</g>
<g id="Layer_12">
	<path class="st9" d="M596.4,417.5c-17.8-20.8-44.1-30.2-67.8-24c-18.8,4.9-29.8,18.1-33.9,23.5c0,0,10.8-32.8,35.9-61.4l0,0
		c3.4-0.3,30-2.2,49.5,18.5C596.8,391.8,596.5,413.3,596.4,417.5 M667.9,489.8c3.1-2.9,18.5-17.9,19.2-42.2
		c0.8-28.5-19.4-45.9-22-48.1l0,0c-37.9,2.5-68.8,18.1-68.8,18.1c6.7-1,23.9-2.5,40.6,7.3C658.1,437.2,670,462.5,667.9,489.8
		 M667.4,591.4c4.2,0.1,25.8,0.4,43.4-16.3c20.7-19.6,18.8-46.2,18.5-49.5l0,0c-28.6-25-61.4-35.9-61.4-35.9
		c5.4,4.1,18.6,15.1,23.5,33.9C697.7,547.3,688.2,573.6,667.4,591.4 M595.2,662.9c2.9,3.1,17.9,18.5,42.2,19.2
		c28.5,0.8,45.9-19.4,48.1-22l0,0c-2.5-37.9-18.1-68.8-18.1-68.8c1,6.7,2.5,23.9-7.3,40.6C647.8,653.1,622.5,665,595.2,662.9
		 M493.6,662.4c-0.1,4.2-0.4,25.8,16.3,43.4c19.6,20.7,46.2,18.8,49.5,18.5l0,0c25-28.6,35.9-61.4,35.9-61.4
		c-4.1,5.4-15.1,18.6-33.9,23.5C537.7,692.7,511.4,683.2,493.6,662.4 M422,590.2c-3.1,2.9-18.5,17.9-19.2,42.2
		c-0.8,28.5,19.4,45.9,22,48.1l0,0c37.9-2.5,68.8-18.1,68.8-18.1c-6.7,1-23.9,2.5-40.6-7.3C431.9,642.8,420,617.5,422,590.2
		 M422.5,488.6c-4.2-0.1-25.8-0.4-43.4,16.3c-20.7,19.6-18.8,46.2-18.5,49.5l0,0c28.6,25,61.4,35.9,61.4,35.9
		c-5.4-4.1-18.6-15.1-23.5-33.9C392.3,532.7,401.8,506.4,422.5,488.6 M494.8,417c-2.9-3.1-17.9-18.5-42.2-19.2
		c-28.5-0.8-45.9,19.4-48.1,22l0,0c2.5,37.9,18.1,68.8,18.1,68.8c-1-6.7-2.5-23.9,7.3-40.6C442.2,426.9,467.5,415,494.8,417"/>
</g>
<g id="Layer_13">
	<path class="st10" d="M692.2,337.7c22,17.7,28.9,39,28.9,39h-0.2c-61-4.6-124.6,40.9-124.6,40.9c8-42.8,33.1-75.3,64.7-81.8
		c6.9-1.4,17.3-2.3,30.4,1.4 M792.1,500.1c-6.7-11.8-14.6-18.6-20.5-22.4c-27-17.7-67.7-12.5-103.6,12.1c0,0,77.2,12.7,117,59.1
		l0.1,0.1c0,0,10.2-19.9,7.1-48 M747.9,686.5c3.6-13.1,2.8-23.4,1.4-30.4c-6.5-31.6-39-56.7-81.8-64.7c0,0,45.6,63.6,40.9,124.6v0.2
		c0,0,21.2-6.9,39-28.9 M584.9,787.1c11.8-6.7,18.6-14.6,22.4-20.5c17.7-27,12.5-67.7-12.1-103.6c0,0-12.7,77.2-59.1,117l-0.1,0.1
		c0,0,19.9,10.2,48,7.1 M398.5,742.9c13.1,3.6,23.4,2.8,30.4,1.4c31.6-6.5,56.7-39,64.7-81.8c0,0-63.6,45.6-124.6,40.9h-0.2
		c0,0,6.9,21.2,28.9,39 M297.9,579.9c6.7,11.8,14.6,18.6,20.5,22.4c27,17.7,67.7,12.5,103.6-12.1c0,0-77.2-12.7-117-59.1l-0.1-0.1
		c0,0-10.2,19.9-7.1,48 M342.1,393.5c-3.6,13.1-2.8,23.4-1.4,30.4c6.5,31.6,39,56.7,81.8,64.7c0,0-45.6-63.6-40.9-124.6v-0.2
		c0,0-21.2,6.9-39,28.9 M505.1,292.9c-11.8,6.7-18.6,14.6-22.4,20.5c-17.7,27-12.5,67.7,12.1,103.6c0,0,12.7-77.2,59.1-117l0.1-0.1
		c0,0-19.9-10.2-48-7.1"/>
</g>
<g id="Layer_14">
	<path class="st11" d="M798,418.8c-8.9-10.8-20.8-20.9-36.1-29.8c-4-8.4-10.1-22.9-14.4-41.6c-9.2-39.9-0.9-59.4-11.4-90.3
		c-3.8-11.2-11.5-27.9-28.8-46.1l0,0c32.2-7.8,62.9-0.5,91.8,6.6c1.2,10.6,2.4,27.1,1.4,47.1c-2.2,46.6-14.1,64.5-9.1,95.5
		c2.1,12.9,7.5,31.3,23.5,52.3L798,418.8z M825.9,640.8c3.6-26.2,12.7-43.1,20.4-53.6c18.5-25.5,39.5-29.8,74-61.1
		c14.8-13.5,25.6-26,32.3-34.3c-15.4-25.5-32-52.3-60.2-69.6l0,0c-0.6,25.1-7.1,42.4-12.3,53c-14.4,29.3-34,37.3-55.8,71.9
		c-10.2,16.3-16.1,30.8-19.2,39.6c4.5,17.1,5.8,32.7,4.5,46.6L825.9,640.8z M672.4,809.9c21-16,39.4-21.4,52.3-23.5
		c31.1-5,49,6.9,95.5,9.1c20,1,36.5-0.3,47.1-1.4c7.1-28.9,14.4-59.6,6.6-91.8l0,0c-18.2,17.3-35,25-46.1,28.8
		c-30.9,10.6-50.4,2.3-90.3,11.4c-18.7,4.3-33.2,10.4-41.6,14.4c-8.9,15.3-19,27.2-29.8,36.1L672.4,809.9z M444.2,820.9
		c26.2,3.6,43.1,12.7,53.6,20.4c25.5,18.5,29.8,39.5,61.1,74c13.5,14.8,26,25.6,34.3,32.3c25.5-15.4,52.3-32,69.6-60.2l0,0
		c-25.1-0.6-42.4-7.1-53-12.3c-29.3-14.4-37.3-34-71.9-55.8c-16.3-10.2-30.8-16.1-39.6-19.2c-17.1,4.5-32.7,5.8-46.6,4.5
		L444.2,820.9z M275.1,667.4c16,21,21.4,39.4,23.5,52.3c5,31.1-6.9,49-9.1,95.5c-1,20,0.3,36.5,1.4,47.1
		c28.9,7.1,59.6,14.4,91.8,6.6l0,0c-17.3-18.2-25-35-28.8-46.1c-10.6-30.9-2.3-50.4-11.4-90.3c-4.3-18.7-10.4-33.2-14.4-41.6
		c-15.3-8.9-27.2-19-36.1-29.8L275.1,667.4z M264,439.2c-3.6,26.2-12.7,43.1-20.4,53.6c-18.5,25.5-39.5,29.8-74,61.1
		c-14.8,13.5-25.6,26-32.3,34.3c15.4,25.5,32,52.3,60.2,69.6l0,0c0.6-25.1,7.1-42.4,12.3-53c14.4-29.3,34-37.3,55.8-71.9
		c10.2-16.3,16.1-30.8,19.2-39.6c-4.5-17.1-5.8-32.7-4.5-46.6L264,439.2z M417.6,270.1c-21,16-39.4,21.4-52.3,23.5
		c-31.1,5-49-6.9-95.5-9.1c-20-1-36.5,0.3-47.1,1.4c-7.1,28.9-14.4,59.6-6.6,91.8l0,0c18.2-17.3,35-25,46.1-28.8
		c30.9-10.6,50.4-2.3,90.3-11.4c18.7-4.3,33.2-10.4,41.6-14.4c8.9-15.3,19-27.2,29.8-36.1L417.6,270.1z M645.8,259
		c-26.2-3.6-43.1-12.7-53.6-20.4c-25.5-18.5-29.8-39.5-61.1-74c-13.5-14.8-26-25.6-34.3-32.3c-25.5,15.4-52.3,32-69.6,60.2l0,0
		c25.1,0.6,42.4,7.1,53,12.3c29.3,14.4,37.3,34,71.9,55.8c16.3,10.2,30.8,16.1,39.6,19.2c17.1-4.5,32.7-5.8,46.6-4.5L645.8,259z"/>
</g>
<g id="Layer_15">
	<path class="st12" d="M814.9,412.6c-16-21-21.4-39.4-23.5-52.3c-5-31.1,6.9-49,9.1-95.5c1-20-0.3-36.5-1.4-47.1
		c22.3,5.5,43.5,11,63.5,9.4c-8,17.4-16.1,46.6-20.6,83.7c-5.3,43.4,2.4,78.5,18.6,98.4c-16-3.1-32-0.9-47.4,4 M824.3,639.9
		c14.3,7.4,27.2,17.3,36.3,30.7c2.6-25.6,22-55.8,56.5-82.7c29.4-23,55.8-38,73.7-44.6c-15.2-13.1-26.4-31.9-38.2-51.6
		c-6.7,8.3-17.4,20.9-32.3,34.3c-34.5,31.3-55.5,35.6-74,61.1c-7.7,10.6-16.8,27.5-20.4,53.6 M671.9,808.2c4.9,15.4,7,31.4,4,47.4
		c19.9-16.2,55-23.9,98.4-18.6c37.1,4.5,66.3,12.6,83.7,20.6c-1.5-20,3.9-41.2,9.4-63.5c-10.6,1.2-27.1,2.4-47.1,1.4
		c-46.6-2.2-64.5-14.1-95.5-9.1c-12.9,2.1-31.3,7.5-52.3,23.5 M445.1,819.3c-7.4,14.3-17.3,27.2-30.7,36.3
		c25.6,2.6,55.8,22,82.7,56.5c23,29.4,38,55.8,44.6,73.7c13.1-15.2,31.9-26.4,51.6-38.2c-8.3-6.7-20.9-17.4-34.3-32.3
		c-31.3-34.5-35.6-55.5-61.1-74c-10.6-7.7-27.5-16.8-53.6-20.4 M276.8,666.9c-15.4,4.9-31.4,7-47.4,4c16.2,19.9,23.9,55,18.6,98.4
		c-4.5,37.1-12.6,66.3-20.6,83.7c20-1.5,41.2,3.9,63.5,9.4c-1.2-10.6-2.4-27.1-1.4-47.1c2.2-46.6,14.1-64.5,9.1-95.5
		c-2.1-12.9-7.5-31.3-23.5-52.3 M265.6,440.1c-14.3-7.4-27.2-17.3-36.3-30.7c-2.6,25.6-22,55.8-56.5,82.7
		c-29.4,23-55.8,38-73.7,44.6c15.2,13.1,26.4,31.9,38.2,51.6c6.7-8.3,17.4-20.9,32.3-34.3c34.5-31.3,55.5-35.6,74-61.1
		c7.7-10.6,16.8-27.5,20.4-53.6 M418.1,271.8c-4.9-15.4-7-31.4-4-47.4c-19.9,16.2-55,23.9-98.4,18.6c-37.1-4.5-66.3-12.6-83.7-20.6
		c1.5,20-3.9,41.2-9.4,63.5c10.6-1.2,27.1-2.4,47.1-1.4c46.6,2.2,64.5,14.1,95.5,9.1c12.9-2.1,31.3-7.5,52.3-23.5 M644.9,260.6
		c7.4-14.3,17.3-27.2,30.7-36.3c-25.6-2.6-55.8-22-82.7-56.5c-23-29.4-38-55.8-44.6-73.7c-13.1,15.2-31.9,26.4-51.6,38.2
		c8.3,6.7,20.9,17.4,34.3,32.3c31.3,34.5,35.6,55.5,61.1,74c10.6,7.7,27.5,16.8,53.6,20.4"/>
</g>
<g id="Layer_16">
	<path class="st13" d="M922.7,448.3c-12.5-14.5-27.8-27-48.4-35.1c-4.6-1.8-9.2-3.1-13.8-4c-16.2-19.9-23.9-55-18.6-98.4
		c0,0,84.9-16.8,120.2,59.7C983.7,416.8,922.7,448.3,922.7,448.3 M877,742.3c0,0,65.3,20.9,83-27.2c29.1-79-42.8-127.2-42.8-127.2
		c-34.5,27-53.8,57.2-56.5,82.7c2.6,3.9,5,8.1,6.9,12.6C876.4,703.4,878.3,723.2,877,742.3 M636.7,917.7c0,0,31.4,60.9,77.9,39.5
		C791,921.9,774.3,837,774.3,837c-43.4-5.3-78.5,2.4-98.4,18.6c-0.9,4.6-2.2,9.2-4,13.8C663.8,889.9,651.2,905.2,636.7,917.7
		 M342.7,872c0,0-20.9,65.3,27.2,83c79,29.1,127.2-42.8,127.2-42.8c-27-34.5-57.2-53.8-82.7-56.5c-3.9,2.6-8.1,5-12.6,6.9
		C381.5,871.4,361.8,873.3,342.7,872 M167.2,631.7c0,0-60.9,31.4-39.5,77.9C163.1,786,248,769.3,248,769.3
		c5.3-43.4-2.4-78.5-18.6-98.4c-4.6-0.9-9.2-2.2-13.8-4C195.1,658.8,179.8,646.2,167.2,631.7 M213,337.7c0,0-65.3-20.9-83,27.2
		c-29.1,79,42.8,127.2,42.8,127.2c34.5-27,53.8-57.2,56.5-82.7c-2.6-3.9-5-8.1-6.9-12.6C213.6,376.5,211.7,356.8,213,337.7
		 M453.3,162.2c0,0-31.4-60.9-77.9-39.5C298.9,158.1,315.7,243,315.7,243c43.4,5.3,78.5-2.4,98.4-18.6c0.9-4.6,2.2-9.2,4-13.8
		C426.2,190.1,438.8,174.8,453.3,162.2 M747.3,208c0,0,20.9-65.3-27.2-83c-79-29.1-127.2,42.8-127.2,42.8
		c27,34.5,57.2,53.8,82.7,56.5c3.9-2.6,8.1-5,12.6-6.9C708.4,208.6,728.2,206.7,747.3,208"/>
</g>
<g id="Layer_18">
	<path d="M862.6,227.1c23.6-40.8,98.3-63.1,109.4,2.2c12.6,74.3-99.9,56.1-130,81.4C846.5,273.7,854.6,244.4,862.6,227.1z
		 M917.1,587.9c39.1,3.4,105.8,95.8,149.5,34.3c38.4-54-30.2-91.1-75.7-78.9C972.9,549.9,946.6,564.9,917.1,587.9z M774.3,837
		c25.3,30,7.1,142.5,81.4,130c65.3-11.1,43-85.7,2.2-109.4C840.6,849.6,811.3,841.5,774.3,837z M497.1,912.1
		c-3.4,39.1-95.8,105.8-34.3,149.5c54,38.4,91.1-30.2,78.9-75.7C535.1,967.9,520.1,941.6,497.1,912.1z M248,769.3
		c-30,25.3-142.5,7.1-130,81.4c11.1,65.3,85.7,43,109.4,2.2C235.4,835.6,243.4,806.3,248,769.3z M172.8,492.1
		c-39.1-3.4-105.8-95.8-149.5-34.3c-38.4,54,30.2,91.1,75.7,78.9C117.1,530.1,143.4,515.1,172.8,492.1z M315.7,243
		c-25.3-30-7.1-142.5-81.4-130c-65.3,11.1-43,85.7-2.2,109.4C249.4,230.4,278.7,238.4,315.7,243z M592.9,167.8
		c3.4-39.1,95.8-105.8,34.3-149.5c-54-38.4-91.1,30.2-78.9,75.7C554.9,112.1,569.9,138.4,592.9,167.8z"/>
</g>
<g id="Layer_17">
	<path class="st14" d="M862.6,261.2c13.1-20.4,23.2-22.7,27.2-24.6c8.8-4.4,35.7-0.8,23.9,19.4c-15.1,25.9-36.4,27.4-71.7,54.8
		C847.3,287.9,856,271.4,862.6,261.2z M917.1,587.9c44.3,5.5,60.4,19.6,89.4,11.9c22.6-6,6.1-27.5-3.2-30.6
		c-4.2-1.4-13-6.9-36.6-1.8C954.8,570,937,575.4,917.1,587.9z M774.3,837c27.4,35.2,28.9,56.6,54.8,71.7
		c20.2,11.8,23.8-15.1,19.4-23.9c-2-3.9-4.3-14.1-24.6-27.2C813.5,851,797.1,842.3,774.3,837z M497.1,912.1
		c-5.5,44.3-19.6,60.4-11.9,89.4c6,22.6,27.5,6.1,30.6-3.2c1.4-4.2,6.9-13,1.8-36.6C515,949.8,509.5,932,497.1,912.1z M248,769.3
		c-35.2,27.4-56.6,28.9-71.7,54.8c-11.8,20.2,15.1,23.8,23.9,19.4c3.9-2,14.1-4.3,27.2-24.6C234,808.5,242.7,792.1,248,769.3z
		 M172.8,492.1c-44.3-5.5-60.4-19.6-89.4-11.9c-22.6,6-6.1,27.5,3.2,30.6c4.2,1.4,13,6.9,36.6,1.8C135.2,510,153,504.5,172.8,492.1z
		 M315.7,243c-27.4-35.2-28.9-56.6-54.8-71.7c-20.2-11.8-23.8,15.1-19.4,23.9c2,3.9,4.3,14.1,24.6,27.2
		C276.4,229,292.9,237.7,315.7,243z M592.9,167.8c5.5-44.3,19.6-60.4,11.9-89.4c-6-22.6-27.5-6.1-30.6,3.2c-1.4,4.2-6.9,13-1.8,36.6
		C575,130.2,580.4,148,592.9,167.8z"/>
</g>
</svg>
