<?xml version="1.0" encoding="utf-8"?>
<!-- Generator: Adobe Illustrator 24.1.0, SVG Export Plug-In . SVG Version: 6.00 Build 0)  -->
<svg version="1.1" id="Layer_1" xmlns="http://www.w3.org/2000/svg" xmlns:xlink="http://www.w3.org/1999/xlink" x="0px" y="0px"
	 viewBox="0 0 1080 1080" style="enable-background:new 0 0 1080 1080;" xml:space="preserve">
<style type="text/css">
	.st0{fill:#919191;}
	.st1{fill:#1A1A1A;}
	.st2{fill:#CCCCCC;}
	.st3{fill:#333333;}
	.st4{fill:#4D4D4D;}
	.st5{fill:#808080;}
	.st6{fill:#999999;}
	.st7{fill:#A6A6A6;}
	.st8{fill:#737373;}
	.st9{fill:#BFBFBF;}
	.st10{fill:#666666;}
	.st11{fill:#262626;}
</style>
<g id="Layer_19">
	<path class="st0" d="M577,556.4L577,556.4L577,556.4c-7.7-2.1-13.6,1.1-16.5,4.1c-3.2,3.4-7.8,10.6-6,17.2h-0.2
		c-3.9-6.9-10.3-8.8-14.4-8.7c-4.8,0.1-13.4,2-16.6,8.3c0-0.1,0.1-0.3,0.2-0.4l-0.1-0.1v0.1c2.2-7.7-1-13.6-4-16.5
		c-3.4-3.2-10.6-7.8-17.2-6v-0.2c6.9-3.9,8.8-10.3,8.7-14.4c-0.1-4.8-2-13.4-8.3-16.6c0.1,0,0.3,0.1,0.4,0.2l0.1-0.1H503
		c7.7,2.2,13.6-1,16.5-4c3.2-3.4,7.8-10.6,6-17.2h0.2c3.9,6.9,10.3,8.8,14.4,8.7c4.8-0.1,13.4-2,16.6-8.3c0,0.1-0.1,0.3-0.2,0.4
		l0.1,0.1v-0.1c-2.2,7.7,1,13.6,4,16.5c3.4,3.2,10.6,7.8,17.2,6v0.2c-6.9,3.9-8.8,10.3-8.7,14.4c0.1,4.8,2,13.4,8.3,16.6
		C577.3,556.5,577.1,556.4,577,556.4z"/>
</g>
<g id="Layer_20">
	<path class="st1" d="M519.5,519.5c-2.9,3-8.8,6.2-16.5,4c-0.2,0-0.4-0.1-0.6-0.2h-0.1c0,0,0,0-0.1,0l0,0l0,0h-0.1
		c0,0-0.1,0-0.2-0.1c-0.2-0.1-0.4-0.1-0.6-0.2c-0.1,0-0.3-0.1-0.4-0.1l0,0c-0.2-0.1-0.5-0.2-0.7-0.3c-0.1,0-0.1,0-0.2-0.1
		c-0.2-0.1-0.3-0.2-0.5-0.2c-0.4-0.2-0.8-0.4-1.3-0.6c-0.2-0.1-0.4-0.2-0.7-0.4c-0.6-0.4-1.3-0.8-2-1.3c-0.2-0.2-0.5-0.3-0.7-0.5
		c-1-0.7-2-1.6-3.1-2.5c-0.3-0.2-0.5-0.5-0.8-0.7c-0.3-0.3-0.7-0.6-1-1c-0.7-0.7-1.4-1.4-2-2.2c-18.4-20.7-13.5-76.9-13.5-76.9
		c0.1,0.8,0.2,1.7,0.2,2.5c0.1,0.7,0.1,1.4,0.2,2.1c0.3,3,0.6,5.8,1,8.6c0.1,0.5,0.1,0.9,0.2,1.4c0.1,0.9,0.2,1.8,0.4,2.6
		c0.1,0.9,0.2,1.7,0.4,2.6l1.7,9.9c0.1,0.6,0.2,1.1,0.3,1.6v0.2c0.1,0.5,0.2,1.1,0.4,1.6c0.2,1,0.4,2,0.7,2.9c0,0.2,0.1,0.3,0.1,0.5
		c0.8,3.2,1.6,6.2,2.5,8.9c0.1,0.3,0.2,0.5,0.3,0.8c0.1,0.3,0.2,0.7,0.3,1c0.2,0.7,0.5,1.4,0.7,2c0.5,1.5,1.1,2.9,1.6,4.2
		c4.9,11.4,10.2,15.9,14.1,17.6c0.1,0,0.2,0.1,0.3,0.1c0.5,0.2,1,0.4,1.5,0.5c0.3,0.1,0.6,0.1,0.9,0.2c0.2,0,0.4,0.1,0.5,0.1
		s0.2,0,0.3,0c1.6,0.1,2.6-0.2,2.6-0.2c-3.2-6.6,4.2-18.4,13-13.3c0.4,0.2,0.8,0.5,1.1,0.7c0.1,0.1,0.2,0.1,0.3,0.2s0.3,0.2,0.4,0.3
		c0.1,0.1,0.3,0.2,0.4,0.3c0.3,0.2,0.5,0.4,0.8,0.6c0.1,0.1,0.2,0.2,0.3,0.3c0.6,0.6,1.2,1.2,1.6,1.8c0.1,0.1,0.2,0.3,0.3,0.4
		c0.2,0.3,0.4,0.5,0.5,0.8v0.1c0.2,0.4,0.4,0.8,0.6,1.2c0,0.1,0,0.1,0.1,0.2l0,0c0,0.1,0.1,0.2,0.1,0.3c0.1,0.1,0.1,0.2,0.1,0.4
		c0,0.1,0,0.1,0.1,0.2C527.3,508.8,522.7,516,519.5,519.5z M522.3,483.9c-0.1,1.6-0.1,3-0.1,4.4c0,0.4,0,0.8,0,1.1
		c0.1,2,0.3,3.8,0.7,5.4c0,0.2,0.1,0.4,0.1,0.5c0.1,0.3,0.1,0.6,0.2,0.9c0,0.1,0.1,0.3,0.1,0.4c0.1,0.2,0.1,0.4,0.2,0.7
		c0.3,0.9,0.6,1.8,0.9,2.5v0.1c0.1,0.2,0.2,0.4,0.2,0.5c0.1,0.2,0.2,0.4,0.2,0.5s0.1,0.1,0.1,0.2l0,0l0,0l0,0
		c0.1,0.3,0.3,0.6,0.4,0.8c3.9,6.9,10.3,8.8,14.4,8.7c4.8-0.1,13.4-2,16.6-8.3c0.1-0.1,0.2-0.3,0.2-0.4l0,0v-0.1l0,0
		c0-0.1,0.1-0.2,0.1-0.3c0.1-0.2,0.2-0.4,0.2-0.6c0,0,0-0.1,0.1-0.2v-0.1c0,0,0-0.1,0-0.2l0,0l0,0c0,0,0,0,0-0.1
		c0.1-0.2,0.1-0.3,0.1-0.5c0.1-0.2,0.1-0.5,0.1-0.7s0.1-0.4,0.1-0.6s0-0.5,0.1-0.8c0-0.3,0-0.6,0-0.9c0-1.4-0.2-2.9-0.7-4.6
		c-2.6-9.8-16.2-6.7-18.6,0.2c0,0-5.1-2.7-4.9-12.1c0-0.1,0-0.3,0-0.4v-0.1c0-0.3,0-0.7,0.1-1c0.1-1.1,0.2-2.3,0.5-3.5
		c0-0.2,0.1-0.3,0.1-0.5c0.2-0.8,0.4-1.7,0.6-2.6c0-0.2,0.1-0.4,0.2-0.6c0.4-1.3,0.8-2.6,1.3-4c0.1-0.3,0.2-0.7,0.4-1.1
		s0.3-0.9,0.5-1.4l0,0c0,0,0-0.1,0-0.2c0.8-2,1.8-4.1,2.9-6.4c0.5-0.9,1-1.9,1.5-2.9c0.3-0.7,0.7-1.3,1.1-2c0.6-1,1.2-2.1,1.8-3.1
		c0.8-1.3,1.6-2.7,2.5-4.1l0,0c0.1-0.1,0.1-0.2,0.2-0.3c0.5-0.8,1-1.5,1.5-2.3c0.3-0.4,0.5-0.8,0.8-1.2c0.3-0.4,0.5-0.8,0.8-1.2
		c2.2-3.2,4.7-6.7,7.5-10.3c0.3-0.5,0.7-0.9,1-1.4c0.7-0.9,1.5-1.8,2.2-2.8c0.7-0.9,1.4-1.8,2.2-2.7c1.2-1.5,2.5-3,3.8-4.6
		C565.8,421.2,523.9,456.7,522.3,483.9z M567.1,487.8c-0.8,0.7-1.5,1.4-2.2,2c-0.3,0.3-0.7,0.7-1,1c-0.2,0.3-0.5,0.5-0.7,0.8
		c-0.9,1-1.8,2.1-2.5,3.1c-0.2,0.2-0.3,0.4-0.5,0.7c-0.5,0.7-0.9,1.3-1.3,2c-0.1,0.2-0.2,0.4-0.4,0.7c-0.2,0.4-0.5,0.8-0.6,1.3
		c-0.1,0.2-0.2,0.3-0.2,0.5c0,0.1-0.1,0.1-0.1,0.2c-0.1,0.2-0.2,0.5-0.3,0.7l0,0c0,0.1-0.1,0.2-0.1,0.4c-0.1,0.2-0.2,0.4-0.2,0.6
		c0,0,0,0.1-0.1,0.2v0.1l0,0c0,0.1-0.1,0.2-0.1,0.3l-0.2,0.6c-2.2,7.7,1,13.6,4,16.5c3.4,3.2,10.6,7.8,17.2,6c0,0,0.1,0,0.2-0.1
		c0.1,0,0.2-0.1,0.4-0.1c0.1,0,0.2-0.1,0.3-0.1l0,0c0,0,0.1,0,0.2-0.1c0.4-0.2,0.8-0.3,1.2-0.6h0.1c0.3-0.2,0.6-0.3,0.8-0.5
		c0.2-0.1,0.3-0.2,0.4-0.3c0.6-0.5,1.2-1,1.8-1.6c0.1-0.1,0.2-0.2,0.3-0.3c0.2-0.2,0.4-0.5,0.6-0.8c0.1-0.1,0.2-0.3,0.3-0.4
		c0.2-0.2,0.3-0.5,0.5-0.8c0.2-0.4,0.5-0.7,0.7-1.1c5.1-8.8-6.7-16.2-13.3-13c0,0-0.2-0.7-0.2-2c0-0.1,0-0.2,0-0.3
		c0-0.1,0-0.2,0-0.3c0-0.1,0-0.2,0-0.3c0-0.2,0-0.3,0.1-0.5c0-0.2,0.1-0.4,0.1-0.5s0-0.2,0.1-0.4c0.1-0.5,0.3-1,0.5-1.5
		c0-0.1,0.1-0.2,0.1-0.3c1.7-4,6.2-9.3,17.6-14.1c1.3-0.5,2.7-1.1,4.2-1.6c0.7-0.2,1.3-0.5,2-0.7c0.3-0.1,0.7-0.2,1-0.3
		c0.3-0.1,0.5-0.2,0.8-0.3c2.7-0.9,5.7-1.7,8.9-2.5c0.2,0,0.3-0.1,0.5-0.1c1-0.2,1.9-0.5,2.9-0.7c0.5-0.1,1.1-0.2,1.6-0.4
		c0,0,0.1,0,0.2,0c0.5-0.1,1.1-0.2,1.6-0.3c3.1-0.6,6.4-1.2,9.9-1.7c0.8-0.1,1.7-0.3,2.6-0.4c0.9-0.1,1.8-0.2,2.6-0.4
		c0.5-0.1,0.9-0.1,1.4-0.2c2.7-0.4,5.6-0.7,8.6-1c0.7-0.1,1.4-0.1,2.1-0.2c0.8-0.1,1.6-0.2,2.5-0.2
		C644,474.3,587.8,469.5,567.1,487.8z M596.1,522.3c-1.6-0.1-3-0.1-4.4-0.1c-0.4,0-0.8,0-1.1,0c-2,0.1-3.8,0.3-5.4,0.7
		c-0.2,0-0.4,0.1-0.5,0.1c-0.3,0.1-0.6,0.1-0.9,0.2c-0.1,0-0.3,0.1-0.4,0.1c-0.2,0.1-0.4,0.1-0.7,0.2c-0.9,0.3-1.8,0.6-2.5,0.9h-0.1
		c-0.2,0.1-0.4,0.2-0.5,0.2c-0.2,0.1-0.4,0.2-0.5,0.2s-0.1,0.1-0.2,0.1l0,0l0,0l0,0c-0.3,0.1-0.6,0.3-0.8,0.4
		c-6.9,3.9-8.8,10.3-8.7,14.4c0.1,4.8,2,13.4,8.3,16.6c0.1,0.1,0.3,0.2,0.4,0.2h0.1l0,0c0.1,0,0.2,0.1,0.3,0.1
		c0.2,0.1,0.4,0.2,0.6,0.2c0,0,0.1,0,0.2,0.1h0.1c0,0,0.1,0,0.2,0l0,0l0,0c0,0,0,0,0.1,0c0.2,0.1,0.3,0.1,0.5,0.1
		c0.2,0.1,0.5,0.1,0.7,0.1s0.4,0.1,0.6,0.1c0.2,0,0.5,0,0.8,0.1c0.3,0,0.6,0,0.9,0c1.4,0,2.9-0.2,4.6-0.7c9.8-2.6,6.7-16.2-0.2-18.6
		c0,0,2.7-5.1,12.1-4.9c0.1,0,0.3,0,0.4,0h0.1c0.3,0,0.7,0,1,0.1c1.1,0.1,2.3,0.2,3.5,0.5c0.2,0,0.3,0.1,0.5,0.1
		c0.8,0.2,1.7,0.4,2.6,0.6c0.2,0,0.4,0.1,0.6,0.2c1.3,0.4,2.6,0.8,4,1.3c0.3,0.1,0.7,0.2,1.1,0.4c0.4,0.2,0.9,0.3,1.4,0.5l0,0
		c0,0,0.1,0,0.2,0c2,0.8,4.1,1.8,6.4,2.9c0.9,0.5,1.9,1,2.9,1.5c0.7,0.3,1.3,0.7,2,1.1c1,0.6,2.1,1.2,3.1,1.8
		c1.3,0.8,2.7,1.6,4.1,2.5l0,0c0.1,0.1,0.2,0.1,0.3,0.2c0.8,0.5,1.5,1,2.3,1.5c0.4,0.3,0.8,0.5,1.2,0.8s0.8,0.5,1.2,0.8
		c3.2,2.2,6.7,4.7,10.3,7.5c0.5,0.3,0.9,0.7,1.4,1c0.9,0.7,1.8,1.5,2.8,2.2c0.9,0.7,1.8,1.4,2.7,2.2c1.5,1.2,3,2.5,4.6,3.8
		C658.8,565.8,623.3,523.9,596.1,522.3z M592.2,567.1c-0.7-0.8-1.4-1.5-2-2.2c-0.3-0.3-0.7-0.7-1-1c-0.3-0.2-0.5-0.5-0.8-0.7
		c-1-0.9-2.1-1.8-3.1-2.5c-0.2-0.2-0.4-0.3-0.7-0.5c-0.7-0.5-1.3-0.9-2-1.3c-0.2-0.1-0.4-0.2-0.7-0.4c-0.4-0.2-0.8-0.5-1.3-0.6
		c-0.2-0.1-0.3-0.2-0.5-0.2c-0.1,0-0.1-0.1-0.2-0.1c-0.2-0.1-0.5-0.2-0.7-0.3l0,0c-0.1,0-0.2-0.1-0.4-0.1c-0.2-0.1-0.4-0.2-0.6-0.2
		c0,0-0.1,0-0.2-0.1h-0.1l0,0c-0.1,0-0.2-0.1-0.3-0.1l-0.6-0.2c-7.7-2.2-13.6,1-16.5,4c-3.2,3.4-7.8,10.6-6,17.2c0,0,0,0.1,0.1,0.2
		c0,0.1,0.1,0.2,0.1,0.4c0,0.1,0.1,0.2,0.1,0.3l0,0c0,0,0,0.1,0.1,0.2c0.2,0.4,0.3,0.8,0.6,1.2v0.1c0.2,0.3,0.3,0.6,0.5,0.8
		c0.1,0.2,0.2,0.3,0.3,0.4c0.5,0.6,1,1.2,1.6,1.8c0.1,0.1,0.2,0.2,0.3,0.3c0.2,0.2,0.5,0.4,0.8,0.6c0.1,0.1,0.3,0.2,0.4,0.3
		c0.2,0.2,0.5,0.3,0.8,0.5c0.4,0.2,0.7,0.5,1.1,0.7c8.8,5.1,16.2-6.7,13-13.3c0,0,0.7-0.2,2-0.2c0.1,0,0.2,0,0.3,0s0.2,0,0.3,0
		s0.2,0,0.3,0c0.2,0,0.3,0,0.5,0.1c0.2,0,0.4,0.1,0.5,0.1s0.2,0,0.4,0.1c0.5,0.1,1,0.3,1.5,0.5c0.1,0,0.2,0.1,0.3,0.1
		c4,1.7,9.3,6.2,14.1,17.6c0.5,1.3,1.1,2.7,1.6,4.2c0.2,0.7,0.5,1.3,0.7,2c0.1,0.3,0.2,0.7,0.3,1s0.2,0.5,0.3,0.8
		c0.9,2.7,1.7,5.7,2.5,8.9c0,0.2,0.1,0.3,0.1,0.5c0.2,1,0.5,1.9,0.7,2.9c0.1,0.5,0.2,1.1,0.4,1.6c0,0,0,0.1,0,0.2
		c0.1,0.5,0.2,1.1,0.3,1.6c0.6,3.1,1.2,6.4,1.7,9.9c0.1,0.8,0.3,1.7,0.4,2.6c0.1,0.9,0.2,1.8,0.4,2.6c0.1,0.5,0.1,0.9,0.2,1.4
		c0.4,2.7,0.7,5.6,1,8.6c0.1,0.7,0.1,1.4,0.2,2.1c0.1,0.8,0.2,1.6,0.2,2.5C605.7,644,610.5,587.8,592.2,567.1z M557.8,591.7
		c0-0.4,0-0.8,0-1.1c-0.1-2-0.3-3.8-0.7-5.4c0-0.2-0.1-0.4-0.1-0.5c-0.1-0.3-0.1-0.6-0.2-0.9c0-0.1-0.1-0.3-0.1-0.4
		c-0.1-0.2-0.1-0.4-0.2-0.7c-0.3-0.9-0.6-1.8-0.9-2.5v-0.1c-0.1-0.2-0.2-0.4-0.2-0.5c-0.1-0.2-0.2-0.4-0.2-0.5s-0.1-0.1-0.1-0.2l0,0
		l0,0l0,0c-0.1-0.3-0.3-0.6-0.4-0.8c-3.9-6.9-10.3-8.8-14.4-8.7c-4.8,0.1-13.4,2-16.6,8.3c-0.1,0.1-0.2,0.3-0.2,0.4c0,0,0,0,0,0.1
		l0,0l0,0c0,0.1-0.1,0.2-0.1,0.3c-0.1,0.2-0.2,0.4-0.2,0.6c0,0,0,0.1-0.1,0.2v0.1c0,0,0,0.1,0,0.2l0,0l0,0c0,0,0,0,0,0.1
		c-0.1,0.2-0.1,0.3-0.1,0.5c-0.1,0.2-0.1,0.5-0.1,0.7s-0.1,0.4-0.1,0.6c0,0.2,0,0.5-0.1,0.8c0,0.3,0,0.6,0,0.9
		c0,1.4,0.2,2.9,0.7,4.6c2.6,9.8,16.2,6.7,18.6-0.2c0,0,5.1,2.7,4.9,12.1c0,0.1,0,0.3,0,0.4v0.1c0,0.3,0,0.7-0.1,1
		c-0.1,1.1-0.2,2.3-0.5,3.5c0,0.2-0.1,0.3-0.1,0.5c-0.2,0.8-0.4,1.7-0.6,2.6c0,0.2-0.1,0.4-0.2,0.6c-0.4,1.3-0.8,2.6-1.3,4
		c-0.1,0.3-0.2,0.7-0.4,1.1c-0.2,0.4-0.3,0.9-0.5,1.4l0,0c0,0,0,0.1,0,0.2c-0.4,0.9-0.8,1.9-1.2,2.9c-0.2,0.5-0.5,1.1-0.8,1.7
		c-0.3,0.6-0.6,1.2-0.9,1.8c-0.5,0.9-1,1.9-1.5,2.9c-0.3,0.7-0.7,1.3-1.1,2c-0.6,1-1.2,2.1-1.8,3.1c-0.8,1.3-1.6,2.7-2.5,4.1l0,0
		c-0.1,0.1-0.1,0.2-0.2,0.3c-0.5,0.8-1,1.5-1.5,2.3c-0.3,0.4-0.5,0.8-0.8,1.2s-0.5,0.8-0.8,1.2c-2.2,3.2-4.7,6.7-7.5,10.3
		c-0.3,0.5-0.7,0.9-1,1.4c-0.7,0.9-1.5,1.8-2.2,2.8c-0.7,0.9-1.5,1.8-2.2,2.7c-1.2,1.5-2.5,3-3.8,4.6c1.3-1.1,43.2-36.7,44.8-63.9
		C557.8,594.5,557.8,593,557.8,591.7z M519.5,560.5c-3.4-3.2-10.6-7.8-17.2-6c0,0-0.1,0-0.2,0.1c-0.1,0-0.2,0.1-0.4,0.1
		c-0.1,0-0.2,0.1-0.3,0.1l0,0c0,0-0.1,0-0.2,0.1c-0.4,0.2-0.8,0.3-1.2,0.6h-0.1c-0.3,0.2-0.6,0.3-0.8,0.5c-0.2,0.1-0.3,0.2-0.4,0.3
		c-0.6,0.5-1.2,1-1.8,1.6c-0.1,0.1-0.2,0.2-0.3,0.3c-0.2,0.2-0.4,0.5-0.6,0.8c-0.1,0.1-0.2,0.3-0.3,0.4c-0.1,0.1-0.2,0.3-0.3,0.4
		c-0.1,0.1-0.2,0.2-0.2,0.3c-0.2,0.4-0.5,0.7-0.7,1.1c-5.1,8.8,6.7,16.2,13.3,13c0,0,0.3,1,0.2,2.6c0,0.1,0,0.2,0,0.3
		c0,0.2,0,0.3-0.1,0.5c-0.1,0.3-0.1,0.6-0.2,0.9c-0.1,0.5-0.3,1-0.5,1.5c0,0.1-0.1,0.2-0.1,0.3c-1.7,4-6.2,9.3-17.6,14.1
		c-1.3,0.5-2.7,1.1-4.2,1.6c-0.7,0.2-1.3,0.5-2,0.7c-0.3,0.1-0.7,0.2-1,0.3s-0.5,0.2-0.8,0.3c-2.7,0.9-5.7,1.7-8.9,2.5
		c-0.2,0-0.3,0.1-0.5,0.1c-1,0.2-1.9,0.5-2.9,0.7c-0.5,0.1-1.1,0.2-1.6,0.4c0,0-0.1,0-0.2,0c-0.5,0.1-1.1,0.2-1.6,0.3
		c-3.1,0.6-6.4,1.2-9.9,1.7c-0.8,0.1-1.7,0.3-2.6,0.4c-0.9,0.1-1.8,0.2-2.6,0.4c-0.5,0.1-0.9,0.1-1.4,0.2c-2.7,0.4-5.6,0.7-8.6,1
		c-0.7,0.1-1.4,0.1-2.1,0.2c-0.8,0.1-1.6,0.2-2.5,0.2c0,0,56.2,4.9,76.9-13.5c0.8-0.7,1.5-1.4,2.2-2c0.3-0.3,0.7-0.7,1-1
		c0.2-0.3,0.5-0.5,0.7-0.8c0.9-1,1.8-2.1,2.5-3.1c0.2-0.2,0.3-0.4,0.5-0.7c0.5-0.7,0.9-1.3,1.3-2c0.1-0.2,0.2-0.4,0.4-0.7
		c0.2-0.4,0.5-0.8,0.6-1.3c0.1-0.2,0.2-0.3,0.2-0.5c0-0.1,0.1-0.1,0.1-0.2c0.1-0.2,0.2-0.5,0.3-0.7l0,0c0-0.1,0.1-0.2,0.1-0.4
		c0.1-0.2,0.2-0.4,0.2-0.6c0,0,0-0.1,0.1-0.2v-0.1l0,0l0,0c0,0,0,0,0-0.1v-0.1l0.2-0.6C525.6,569.4,522.5,563.4,519.5,560.5z
		 M502.6,523.4c-0.1-0.1-0.3-0.2-0.4-0.2l0,0l0,0l0,0l0,0c-0.1,0-0.2-0.1-0.3-0.1c-0.2-0.1-0.4-0.2-0.6-0.2c0,0-0.1,0-0.2-0.1H501
		c0,0-0.1,0-0.2,0l0,0l0,0c0,0,0,0-0.1,0c-0.2-0.1-0.3-0.1-0.5-0.1c-0.2-0.1-0.5-0.1-0.7-0.1s-0.4-0.1-0.6-0.1s-0.5,0-0.8-0.1
		c-0.3,0-0.6,0-0.9,0c-1.4,0-2.9,0.2-4.6,0.7c-9.8,2.6-6.7,16.2,0.2,18.6c0,0-2.7,5.1-12.1,4.9c-0.1,0-0.3,0-0.4,0h-0.1
		c-0.3,0-0.7,0-1-0.1c-1.1-0.1-2.3-0.2-3.5-0.5c-0.2,0-0.3-0.1-0.5-0.1c-0.8-0.2-1.7-0.4-2.6-0.6c-0.2,0-0.4-0.1-0.6-0.2
		c-1.3-0.4-2.6-0.8-4-1.3c-0.3-0.1-0.7-0.2-1.1-0.4s-0.9-0.3-1.4-0.5l0,0c0,0-0.1,0-0.2,0c-0.9-0.4-1.9-0.8-2.9-1.2
		c-0.5-0.2-1.1-0.5-1.7-0.8s-1.2-0.6-1.8-0.9c-0.9-0.5-1.9-1-2.9-1.5c-0.7-0.3-1.3-0.7-2-1.1c-1-0.6-2.1-1.2-3.1-1.8
		c-1.3-0.8-2.7-1.6-4.1-2.5l0,0c-0.1-0.1-0.2-0.1-0.3-0.2c-0.8-0.5-1.5-1-2.3-1.5c-0.4-0.3-0.8-0.5-1.2-0.8
		c-0.4-0.3-0.8-0.5-1.2-0.8c-3.2-2.2-6.7-4.7-10.3-7.5c-0.5-0.3-0.9-0.7-1.4-1c-0.9-0.7-1.8-1.5-2.8-2.2c-0.9-0.7-1.8-1.5-2.7-2.2
		c-1.5-1.2-3-2.5-4.6-3.8c1.1,1.3,36.7,43.2,63.9,44.8c1.6,0.1,3,0.1,4.4,0.1c0.4,0,0.8,0,1.1,0c2-0.1,3.8-0.3,5.4-0.7
		c0.2,0,0.4-0.1,0.5-0.1c0.3-0.1,0.6-0.1,0.9-0.2c0.1,0,0.3-0.1,0.4-0.1c0.2-0.1,0.4-0.1,0.7-0.2c0.9-0.3,1.8-0.6,2.5-0.9h0.1
		c0.2-0.1,0.4-0.2,0.5-0.2c0.2-0.1,0.4-0.2,0.5-0.2s0.1-0.1,0.2-0.1l0,0l0,0l0,0c0.3-0.1,0.6-0.3,0.8-0.4c6.9-3.9,8.8-10.3,8.7-14.4
		C510.8,535.2,508.9,526.6,502.6,523.4z"/>
</g>
<g id="Layer_21">
	<path class="st2" d="M525,501.2v0.1c0-0.1-0.1-0.2-0.1-0.2c-0.1-0.2-0.2-0.4-0.2-0.5c-0.1-0.2-0.2-0.4-0.2-0.5
		C524.7,500.4,524.9,500.8,525,501.2z M525.1,501.4L525.1,501.4C525.1,501.3,525.1,501.3,525.1,501.4s0.1,0.2,0.1,0.3
		c0.1,0.1,0.1,0.2,0.1,0.4c0,0.1,0,0.1,0.1,0.2h0.2C525.4,502,525.3,501.7,525.1,501.4z M599.3,342c-0.1-0.1-0.2-0.2-0.4-0.3
		c-0.3-0.2-0.7-0.5-1-0.7c-0.2-0.1-0.4-0.3-0.6-0.5c-0.4-0.3-0.8-0.5-1.1-0.8c-0.6-0.4-1.1-0.9-1.7-1.3c-0.6-0.5-1.2-1-1.8-1.5
		c-0.1-0.1-0.2-0.2-0.3-0.3c-0.6-0.5-1.2-1-1.8-1.5c-0.7-0.6-1.3-1.1-2-1.7c-1.3-1.1-2.6-2.3-3.8-3.5l-2.6-2.6
		c-0.4-0.4-0.8-0.8-1.2-1.2l-19-23.7c-0.6-0.8-1.1-1.6-1.7-2.5l-1.1-1.7c-0.3-0.4-0.5-0.8-0.8-1.2l-1-1.5c-0.5-0.8-1-1.6-1.5-2.4
		l-4.1-6.8c-0.7-1.2-1.4-2.5-2.1-3.6c-0.4-0.7-0.8-1.4-1.2-2.1c-0.4-0.8-0.9-1.6-1.3-2.4c-0.2-0.4-0.4-0.7-0.6-1.1
		c-0.4-0.7-0.7-1.4-1.1-2c-0.3-0.7-0.7-1.3-1-1.9c-3.1-6.1-4.7-10-4.7-10s0,0,0,0.1l0,0v0.1c0,0,0,0.1-0.1,0.2
		c-0.3,0.6-0.8,1.8-1.7,3.5c-0.1,0.3-0.2,0.5-0.4,0.8c-0.4,0.9-0.9,1.8-1.4,2.8c-0.2,0.3-0.3,0.7-0.5,1c0,0,0,0,0,0.1
		c-0.2,0.4-0.4,0.7-0.6,1.1c-0.1,0.2-0.2,0.4-0.4,0.7c-0.1,0.2-0.2,0.5-0.4,0.7c-0.3,0.5-0.6,1.1-0.9,1.7c-0.2,0.4-0.5,0.9-0.7,1.3
		c0,0,0,0,0,0.1c-0.3,0.5-0.6,1.1-0.9,1.6c-0.1,0.1-0.1,0.2-0.2,0.4c-0.2,0.4-0.5,0.9-0.8,1.3c0,0,0,0.1-0.1,0.1
		c-0.3,0.5-0.6,1-0.9,1.5c-0.4,0.8-0.9,1.5-1.4,2.3c-0.3,0.5-0.6,1-1,1.6c-1,1.6-2,3.2-3.1,4.9c-0.2,0.3-0.4,0.6-0.6,1
		c-0.2,0.2-0.3,0.5-0.5,0.7c-0.3,0.4-0.6,0.9-0.9,1.3c-1.2,1.9-2.5,3.8-3.9,5.7c-0.4,0.6-0.8,1.2-1.3,1.8c-0.4,0.5-0.7,1-1.1,1.5
		c-0.9,1.2-1.9,2.5-2.8,3.8c-0.5,0.7-1,1.3-1.6,2c-0.1,0.1-0.1,0.1-0.1,0.2c-0.7,0.9-1.4,1.8-2.2,2.7c-0.4,0.5-0.9,1.1-1.3,1.6
		c-1.4,1.7-2.9,3.4-4.4,5.1c-0.6,0.7-1.3,1.4-2,2.1c-0.7,0.8-1.4,1.5-2.1,2.3c-0.6,0.7-1.3,1.3-1.9,2c-0.8,0.8-1.7,1.7-2.5,2.5l0,0
		c-0.6,0.6-1.2,1.2-1.8,1.7c-2.4,2.3-4.9,4.5-7.5,6.7c-0.7,0.5-1.3,1.1-2,1.6c-1.2,1-2.5,2-3.8,3c-0.8,0.6-1.5,1.1-2.3,1.6
		c-1.4,1-2.8,2-4.2,2.9c-3.6,2.3-7.3,4.5-11.1,6.4c-2.3,1.1-4.6,2.1-7,3c-0.3,0.1-0.7,0.2-1,0.4c-2,0.7-4,1.3-6,1.8
		c-1.6,0.4-3.3,0.8-4.9,1.1c-0.5,0.1-1.1,0.2-1.6,0.3l0,0c0.3,0.5,0.6,1.1,1,1.6c9.1,14.7,19.2,26.4,27.7,34.8c2.1,2.1,4.1,4,6,5.7
		c0.5,0.5,1.1,1,1.6,1.4c0.5,0.5,1,0.9,1.5,1.3c0.7,0.6,1.4,1.2,2.1,1.8c0.4,0.4,0.9,0.7,1.3,1c0.6,0.5,1.2,1,1.7,1.4s1,0.8,1.5,1.1
		c1.9,1.5,3,2.2,3,2.2l-0.1-0.5c-0.2-1.5-0.4-2.9-0.6-4.4c-0.1-0.6-0.2-1.3-0.3-1.9c-0.1-0.5-0.1-1-0.2-1.4
		c-0.1-0.8-0.3-1.6-0.4-2.5c-0.2-0.9-0.3-1.9-0.5-2.8c-0.2-1-0.4-2.1-0.6-3.1c-0.8-4-1.5-7.8-2.3-11.2c-0.2-0.8-0.3-1.5-0.5-2.2
		c-0.8-3.4-1.5-6.4-2.2-8.8c-0.1-0.4-0.2-0.8-0.3-1.1c-0.3-1.3-0.6-2.3-0.9-3.2c-0.1-0.2-0.1-0.5-0.2-0.7s-0.1-0.4-0.2-0.6
		c0-0.2-0.1-0.3-0.1-0.5c-0.1-0.4-0.2-0.6-0.2-0.7c26.8,48.3,34.2,90.2,5.7,124.4c4.9,11.4,10.2,15.9,14.1,17.6
		c0.1,0,0.2,0.1,0.3,0.1c0.5,0.2,1,0.4,1.5,0.5c0.3,0.1,0.6,0.1,0.9,0.2c0.2,0,0.4,0.1,0.5,0.1s0.2,0,0.3,0c1.6,0.1,2.6-0.2,2.6-0.2
		c-3.2-6.6,4.2-18.4,13-13.3c0.4,0.2,0.8,0.5,1.1,0.7c0.1,0.1,0.2,0.1,0.3,0.2s0.3,0.2,0.4,0.3c0.1,0.1,0.3,0.2,0.4,0.3
		c0.3,0.2,0.5,0.4,0.8,0.6c0.1,0.1,0.2,0.2,0.3,0.3c0.6,0.6,1.2,1.2,1.6,1.8c0.1,0.1,0.2,0.3,0.3,0.4c0.2,0.3,0.4,0.5,0.5,0.8
		c-0.3-0.8-0.6-1.6-0.9-2.5c-0.1-0.2-0.1-0.4-0.2-0.7c0-0.1-0.1-0.3-0.1-0.4c-0.1-0.3-0.1-0.6-0.2-0.9c-0.1-0.2-0.1-0.4-0.1-0.5
		c-0.3-1.6-0.6-3.4-0.7-5.4c0-0.4,0-0.7,0-1.1c0-1.4,0-2.9,0.1-4.4c1.6-27.2,43.5-62.8,44.8-63.9c-1.3,1.5-2.6,3.1-3.8,4.6
		c-0.8,0.9-1.5,1.8-2.2,2.7c-0.8,1-1.5,1.9-2.2,2.8c-0.3,0.5-0.7,0.9-1,1.4c-2.8,3.6-5.2,7-7.5,10.3c-0.3,0.4-0.5,0.8-0.8,1.2
		c-0.3,0.4-0.5,0.8-0.8,1.2c-0.5,0.8-1,1.6-1.5,2.3c-0.1,0.1-0.1,0.2-0.2,0.3l0,0c1,0.2,2,0.2,2.9,0.2c0.4,0,0.7,0,1,0s0.7,0,1-0.1
		h0.1c0.3,0,0.6-0.1,0.9-0.1c1.1-0.2,2.2-0.4,3.2-0.7c0.2-0.1,0.5-0.1,0.7-0.2c0.1,0,0.2-0.1,0.4-0.1c0.7-0.2,1.4-0.5,2.1-0.8
		c0.3-0.1,0.6-0.2,0.9-0.4c1.1-0.5,2.3-1.1,3.4-1.7c0.4-0.2,0.7-0.4,1.1-0.6c1.3-0.8,2.6-1.6,3.9-2.5c0.3-0.2,0.5-0.4,0.8-0.6
		s0.5-0.4,0.8-0.6c0.4-0.3,0.7-0.5,1.1-0.8c3.6-2.8,7.2-6.2,10.7-9.8c0.3-0.3,0.6-0.6,0.9-1c0.2-0.2,0.4-0.4,0.6-0.7
		C575.1,365.3,594.5,347.8,599.3,342z M556.6,502.6c0,0.1-0.1,0.3-0.2,0.4l0.1,0.1V503l0.2-0.6v-0.1
		C556.7,502.3,556.6,502.5,556.6,502.6z M556.9,501.8c0,0.1-0.1,0.2-0.1,0.3l0,0C556.9,501.9,556.9,501.8,556.9,501.8
		c0.1-0.2,0.2-0.4,0.2-0.6c0,0,0-0.1,0.1-0.2c0-0.1,0-0.1,0.1-0.2c0,0.1-0.1,0.2-0.1,0.4C557.1,501.3,557,501.5,556.9,501.8z
		 M557.3,500.7L557.3,500.7L557.3,500.7C557.3,500.8,557.3,500.7,557.3,500.7z M721.5,439.9c-0.1-0.3-0.1-0.6-0.1-0.9
		c-0.1-0.3-0.1-0.7-0.2-1c-0.1-0.6-0.2-1.2-0.2-1.8c-0.1-0.7-0.2-1.3-0.2-2c-0.1-0.7-0.1-1.3-0.2-2c0-0.3-0.1-0.6-0.1-0.9
		c0-0.5-0.1-1-0.1-1.5c0-0.4-0.1-0.9-0.1-1.3c-0.1-0.8-0.1-1.6-0.1-2.4c0-0.5,0-1.1,0-1.7c0-0.4,0-0.8,0-1.2c0-0.1,0-0.2,0-0.3l0,0
		c0-1.1,0-1.5,0-2c0-38.3,15.5-76.7,15.5-76.7l0,0c0,0,0,0-0.1,0c0,0,0,0-0.1,0c-0.8,0.3-3.8,1.4-8.6,2.9c-0.1,0-0.2,0.1-0.2,0.1
		c-1.6,0.5-3.3,1-5.2,1.6c-0.3,0.1-0.6,0.2-0.9,0.2c-3.2,0.9-6.9,1.9-10.9,2.8c-1.1,0.3-2.2,0.5-3.4,0.8c-1.2,0.2-2.3,0.5-3.5,0.8
		s-2.4,0.5-3.7,0.7c-2.1,0.4-4.2,0.8-6.4,1.1c-0.6,0.1-1.3,0.2-1.9,0.3c-0.3,0-0.6,0.1-1,0.2c-1.2,0.2-2.5,0.4-3.8,0.5
		c-0.9,0.1-1.8,0.2-2.8,0.3c-1.8,0.2-3.6,0.4-5.5,0.6c-0.9,0.1-1.8,0.2-2.8,0.2c-3.6,0.3-7.2,0.5-10.9,0.5c-0.4,0-0.8,0-1.2,0
		c-0.8,0-1.5,0-2.3,0c-0.7,0-1.3,0-2,0c-0.2,0-0.3,0-0.5,0c-1.2,0-2.4,0-3.6-0.1c-0.5,0-1,0-1.5-0.1c-0.3,0-0.6,0-0.9,0
		c-0.6,0-1.3-0.1-1.9-0.1c-0.1,0-0.2,0-0.3,0c-0.7,0-1.5-0.1-2.2-0.2c-0.8-0.1-1.6-0.1-2.3-0.2c-0.4,0-0.8-0.1-1.2-0.1
		c-0.7-0.1-1.3-0.1-1.9-0.2c-0.1,0-0.1,0-0.2,0c-0.7-0.1-1.4-0.2-2-0.3c-0.3,0-0.6-0.1-0.9-0.1c-0.8-0.1-1.5-0.2-2.3-0.4
		c-0.7-0.1-1.4-0.2-2.1-0.4c-0.4-0.1-0.7-0.1-1.1-0.2c-0.7-0.1-1.4-0.3-2.2-0.4c-0.7-0.1-1.3-0.3-2-0.4c-1.1-0.2-2.2-0.5-3.3-0.8
		c-0.7-0.2-1.5-0.4-2.2-0.6c-1.9-0.5-3.7-1.1-5.5-1.7c-2.5-0.8-5-1.9-7.5-3c-0.4-0.2-0.8-0.4-1.2-0.6c-0.6-0.3-1.3-0.6-1.9-1
		c-0.3-0.1-0.5-0.3-0.8-0.4c-0.4-0.2-0.7-0.4-1.1-0.6c-1.1-0.6-2.2-1.3-3.3-2c-0.4-0.2-0.8-0.5-1.2-0.7s-0.8-0.5-1.2-0.8
		s-0.8-0.5-1.1-0.8c-9.5,38.2-3.8,69.6-3.6,70.4l0.3-0.4c2.3-3,4.5-5.9,6.5-8.9c0.4-0.6,0.8-1.2,1.2-1.7c0.1-0.2,0.2-0.4,0.4-0.5
		c0.6-0.8,1.1-1.7,1.7-2.5c2-3,3.9-5.9,5.6-8.6c0.3-0.5,0.6-0.9,0.8-1.3c3.8-6,6.5-10.7,7.9-13.2c0-0.1,0.1-0.2,0.2-0.3
		c0-0.1,0.1-0.2,0.1-0.3c0.1-0.1,0.1-0.2,0.1-0.2c0.4-0.7,0.6-1,0.6-1c-15.3,53.1-39.6,87.9-84,92l0,0c-0.2,0.5-0.4,0.9-0.5,1.4
		c-0.1,0.4-0.3,0.7-0.4,1.1c-0.5,1.4-0.9,2.8-1.3,4c-0.1,0.2-0.1,0.4-0.2,0.6c-0.2,0.9-0.4,1.8-0.6,2.6c0,0.2-0.1,0.3-0.1,0.5
		c-0.2,1.3-0.4,2.4-0.5,3.5c0,0.4,0,0.7-0.1,1v0.1c0,0.1,0,0.3,0,0.4c-0.2,9.4,4.9,12.1,4.9,12.1c2.4-6.9,16-10,18.6-0.2
		c0.5,1.7,0.7,3.2,0.7,4.6c0,0.3,0,0.6,0,0.9c0,0.2,0,0.5-0.1,0.8c0,0.2-0.1,0.4-0.1,0.6s-0.1,0.5-0.1,0.7s-0.1,0.3-0.1,0.5
		c0,0,0,0,0,0.1c0.1-0.2,0.2-0.4,0.3-0.6c0-0.1,0-0.1,0.1-0.2c0.1-0.2,0.1-0.3,0.2-0.5c0.2-0.4,0.4-0.9,0.6-1.3
		c0.1-0.2,0.2-0.4,0.4-0.7c0.4-0.6,0.8-1.3,1.3-2c0.2-0.2,0.3-0.5,0.5-0.7c0.7-1,1.6-2,2.5-3.1c0.2-0.3,0.5-0.5,0.7-0.8
		c0.3-0.3,0.6-0.7,1-1c0.7-0.7,1.4-1.4,2.2-2c20.7-18.4,76.9-13.5,76.9-13.5c-0.8,0.1-1.7,0.2-2.5,0.2c-0.7,0.1-1.4,0.1-2.1,0.2
		c-3,0.3-5.8,0.6-8.6,1c-0.5,0.1-0.9,0.1-1.4,0.2c-0.9,0.1-1.8,0.2-2.6,0.4c-0.4,0-0.7,0.1-1.1,0.2c-0.5,0.1-1,0.1-1.5,0.2
		c-3.5,0.5-6.9,1.1-9.9,1.7c-0.6,0.1-1.1,0.2-1.6,0.3c-0.1,0-0.1,0-0.2,0c-0.5,0.1-1.1,0.2-1.6,0.4c2.2,3,5.3,5.3,9,7
		c0.7,0.3,1.4,0.6,2.1,0.9c0.7,0.3,1.5,0.5,2.2,0.8c0.2,0.1,0.4,0.1,0.6,0.2c0.3,0.1,0.7,0.2,1,0.3c0.5,0.1,0.9,0.2,1.4,0.4
		c1.5,0.4,3.1,0.7,4.8,1c0.6,0.1,1.1,0.2,1.7,0.3c0.7,0.1,1.4,0.2,2.2,0.3c0.6,0.1,1.3,0.1,1.9,0.2c3.4,0.3,6.9,0.4,10.6,0.3
		c0.4,0,0.9,0,1.3,0c0.5,0,1,0,1.5,0c0,0,0,0,0.1,0c37-49.3,63.1-48.1,70.5-48.7l0,0c0-0.1,0-0.2,0-0.2
		C721.7,441.1,721.6,440.5,721.5,439.9z M578.3,525.2c-0.1,0.1-0.2,0.1-0.4,0.1c-0.1,0-0.1,0-0.2,0.1v0.2c0.3-0.2,0.5-0.3,0.8-0.4
		l0,0l0,0C578.5,525.1,578.4,525.2,578.3,525.2z M578.9,525c-0.1,0-0.1,0.1-0.2,0.1h0.1c0.4-0.2,0.8-0.3,1.2-0.6
		c-0.2,0.1-0.4,0.2-0.5,0.2C579.3,524.8,579.1,524.9,578.9,525z M816.5,540L816.5,540C816.4,540,816.4,540,816.5,540
		c-0.1,0-0.2,0-0.3-0.1c-0.6-0.3-1.8-0.8-3.5-1.7c-0.3-0.1-0.5-0.2-0.8-0.4c-0.9-0.4-1.8-0.9-2.8-1.4c-0.3-0.2-0.7-0.3-1-0.5
		c0,0,0,0-0.1,0c-0.4-0.2-0.7-0.4-1.1-0.6c-0.2-0.1-0.4-0.2-0.7-0.4c-0.2-0.1-0.5-0.2-0.7-0.4c-0.5-0.3-1.1-0.6-1.7-0.9
		c-0.4-0.2-0.9-0.5-1.3-0.7c0,0,0,0-0.1,0c-0.5-0.3-1.1-0.6-1.6-0.9c-0.1-0.1-0.2-0.1-0.4-0.2c-0.4-0.2-0.9-0.5-1.3-0.8
		c0,0-0.1,0-0.1-0.1c-0.5-0.3-1-0.6-1.5-0.9c-0.8-0.4-1.5-0.9-2.3-1.4c-0.5-0.3-1-0.6-1.6-1c-1.6-1-3.2-2-4.9-3.1
		c-0.3-0.2-0.6-0.4-1-0.6c-0.2-0.2-0.5-0.3-0.7-0.5c-0.4-0.3-0.9-0.6-1.3-0.9c-1.9-1.2-3.8-2.5-5.7-3.9c-0.6-0.4-1.2-0.8-1.8-1.3
		c-0.5-0.4-1-0.7-1.5-1.1c-1.2-0.9-2.5-1.9-3.8-2.8c-0.7-0.5-1.3-1-2-1.6c-0.1-0.1-0.1-0.1-0.2-0.1c-0.9-0.7-1.8-1.4-2.7-2.2
		c-0.5-0.4-1.1-0.9-1.6-1.3c-1.7-1.4-3.4-2.9-5.1-4.4c-0.7-0.6-1.4-1.3-2.1-2c-0.8-0.7-1.5-1.4-2.3-2.1c-0.7-0.6-1.3-1.3-2-1.9
		c-0.8-0.8-1.7-1.7-2.5-2.5c-0.6-0.6-1.2-1.2-1.7-1.8c-2.3-2.4-4.5-4.9-6.7-7.5c-0.5-0.7-1.1-1.3-1.6-2c-1-1.2-2-2.5-3-3.8
		c-0.6-0.8-1.1-1.5-1.6-2.3c-1-1.4-2-2.8-2.9-4.2c-2.3-3.6-4.5-7.3-6.4-11.1c-1.1-2.3-2.1-4.6-3-7c-0.1-0.3-0.2-0.7-0.4-1
		c-0.7-2-1.3-4-1.8-6c-0.4-1.6-0.8-3.3-1.1-4.9c-0.1-0.5-0.2-1.1-0.3-1.6l0,0c-0.5,0.3-1.1,0.6-1.6,1c-14.7,9.1-26.4,19.2-34.8,27.7
		c-2.1,2.1-4,4.1-5.7,6c-0.5,0.5-1,1.1-1.4,1.6c-0.5,0.5-0.9,1-1.3,1.5c-0.6,0.7-1.2,1.4-1.8,2.1c-0.4,0.4-0.7,0.9-1,1.3
		c-0.5,0.6-1,1.2-1.4,1.7s-0.8,1-1.1,1.5c-1.5,1.9-2.2,3-2.2,3l0.5-0.1c1.5-0.2,2.9-0.4,4.4-0.6c0.6-0.1,1.3-0.2,1.9-0.3
		c0.5-0.1,1-0.1,1.4-0.2c0.8-0.1,1.6-0.3,2.5-0.4c0.9-0.2,1.9-0.3,2.8-0.5c1-0.2,2.1-0.4,3.1-0.6c4-0.8,7.8-1.5,11.2-2.3
		c0.8-0.2,1.5-0.3,2.2-0.5c3.4-0.8,6.4-1.5,8.8-2.2c0.4-0.1,0.8-0.2,1.1-0.3c1.3-0.3,2.3-0.6,3.2-0.9c0.2-0.1,0.5-0.1,0.7-0.2
		s0.4-0.1,0.6-0.2c0.2,0,0.3-0.1,0.5-0.1c0.4-0.1,0.6-0.2,0.7-0.2c-48.3,26.8-90.2,34.2-124.4,5.7c-11.4,4.9-15.9,10.2-17.6,14.1
		c0,0.1-0.1,0.2-0.1,0.3c-0.2,0.5-0.4,1-0.5,1.5c0,0.1-0.1,0.2-0.1,0.4c-0.1,0.2-0.1,0.4-0.1,0.5c0,0.2-0.1,0.4-0.1,0.5s0,0.2,0,0.3
		c0,0.1,0,0.2,0,0.3c0,0.1,0,0.2,0,0.3c0,1.2,0.2,2,0.2,2c6.6-3.2,18.4,4.2,13.3,13c-0.2,0.4-0.5,0.8-0.7,1.1s-0.3,0.5-0.5,0.8
		c-0.1,0.1-0.2,0.3-0.3,0.4c-0.2,0.3-0.4,0.5-0.6,0.8c-0.1,0.1-0.2,0.2-0.3,0.3c-0.6,0.6-1.2,1.2-1.8,1.6c-0.1,0.1-0.3,0.2-0.4,0.3
		c-0.3,0.2-0.5,0.4-0.8,0.5c0.8-0.3,1.6-0.6,2.5-0.9c0.2-0.1,0.4-0.1,0.7-0.2c0.1,0,0.3-0.1,0.4-0.1c0.3-0.1,0.6-0.1,0.9-0.2
		c0.2-0.1,0.4-0.1,0.5-0.1c1.6-0.3,3.4-0.6,5.4-0.7c0.4,0,0.7,0,1.1,0c1.4,0,2.9,0,4.4,0.1c27.2,1.6,62.8,43.5,63.9,44.8
		c-1.5-1.3-3.1-2.6-4.6-3.8c-0.9-0.8-1.8-1.5-2.7-2.2c-1-0.8-1.9-1.5-2.8-2.2c-0.5-0.3-0.9-0.7-1.4-1c-3.6-2.8-7-5.2-10.3-7.5
		c-0.4-0.3-0.8-0.5-1.2-0.8s-0.8-0.5-1.2-0.8c-0.8-0.5-1.6-1-2.3-1.5c-0.1-0.1-0.2-0.1-0.3-0.2l0,0c-0.2,1-0.2,2-0.2,2.9
		c0,0.4,0,0.7,0,1s0,0.7,0.1,1v0.1c0,0.3,0.1,0.6,0.1,0.9c0.2,1.1,0.4,2.2,0.7,3.2c0.1,0.2,0.1,0.5,0.2,0.7c0,0.1,0.1,0.2,0.1,0.4
		c0.2,0.7,0.5,1.4,0.8,2.1c0.1,0.3,0.2,0.6,0.4,0.9c0.5,1.1,1.1,2.3,1.7,3.4c0.2,0.4,0.4,0.7,0.6,1.1c0.8,1.3,1.6,2.6,2.5,3.9
		c0.2,0.3,0.4,0.5,0.6,0.8c0.2,0.3,0.4,0.5,0.6,0.8c0.3,0.4,0.5,0.7,0.8,1.1c2.8,3.6,6.2,7.2,9.8,10.7c0.3,0.3,0.6,0.6,1,0.9
		c0.2,0.2,0.4,0.4,0.7,0.6c61.1-8.7,78.6,10.7,84.3,15.4c0.1-0.1,0.2-0.2,0.3-0.4c0.2-0.3,0.5-0.7,0.7-1c0.1-0.2,0.3-0.4,0.5-0.6
		c0.3-0.4,0.5-0.8,0.8-1.1c0.4-0.6,0.9-1.1,1.3-1.7c0.5-0.6,1-1.2,1.5-1.8c0.1-0.1,0.2-0.2,0.3-0.3c0.5-0.6,1-1.2,1.5-1.8
		c0.6-0.7,1.1-1.3,1.7-2c1.1-1.3,2.3-2.6,3.5-3.8l2.6-2.6c0.4-0.4,0.8-0.8,1.2-1.2l23.7-19c0.8-0.6,1.6-1.1,2.5-1.7l1.7-1.1
		c0.4-0.3,0.8-0.5,1.2-0.8l1.5-1c0.8-0.5,1.6-1,2.4-1.5l6.8-4.1c1.2-0.7,2.5-1.4,3.6-2.1c0.7-0.4,1.4-0.8,2.1-1.2
		c0.8-0.4,1.6-0.9,2.4-1.3c0.4-0.2,0.7-0.4,1.1-0.6c0.7-0.4,1.4-0.7,2-1.1c0.7-0.3,1.3-0.7,1.9-1C812.8,541.6,816.6,540,816.5,540
		C816.6,540,816.6,540,816.5,540z M577.4,556.6c-0.1,0-0.3-0.1-0.4-0.2l-0.1,0.1h0.1l0.6,0.2h0.1
		C577.7,556.7,577.5,556.6,577.4,556.6z M578.2,556.9c-0.1,0-0.2-0.1-0.3-0.1l0,0C578.1,556.9,578.2,556.9,578.2,556.9
		c0.2,0.1,0.4,0.2,0.6,0.2c0,0,0.1,0,0.2,0.1c0.1,0,0.1,0,0.2,0.1c-0.1,0-0.2-0.1-0.4-0.1C578.7,557.1,578.5,557,578.2,556.9z
		 M579.3,557.3L579.3,557.3L579.3,557.3C579.2,557.3,579.3,557.3,579.3,557.3z M667.6,595.6l0.4,0.3c3,2.3,5.9,4.5,8.9,6.5
		c0.6,0.4,1.2,0.8,1.7,1.2c0.2,0.1,0.4,0.2,0.5,0.4c0.8,0.6,1.7,1.1,2.5,1.7c3,2,5.9,3.9,8.6,5.6c0.5,0.3,0.9,0.6,1.3,0.8
		c6,3.8,10.7,6.5,13.2,7.9c0.1,0,0.2,0.1,0.3,0.2c0.1,0,0.2,0.1,0.3,0.1c0.1,0.1,0.2,0.1,0.2,0.1c0.7,0.4,1,0.6,1,0.6
		c-53.1-15.3-87.9-39.6-92-84l0,0c-0.5-0.2-0.9-0.4-1.4-0.5c-0.4-0.1-0.7-0.3-1.1-0.4c-1.4-0.5-2.8-0.9-4-1.3
		c-0.2-0.1-0.4-0.1-0.6-0.2c-0.9-0.2-1.8-0.4-2.6-0.6c-0.2,0-0.3-0.1-0.5-0.1c-1.3-0.2-2.4-0.4-3.5-0.5c-0.4,0-0.7,0-1-0.1h-0.1
		c-0.1,0-0.3,0-0.4,0c-9.4-0.2-12.1,4.9-12.1,4.9c6.9,2.4,10,16,0.2,18.6c-1.7,0.5-3.2,0.7-4.6,0.7c-0.3,0-0.6,0-0.9,0
		c-0.2,0-0.5,0-0.8-0.1c-0.2,0-0.4-0.1-0.6-0.1c-0.2,0-0.5-0.1-0.7-0.1s-0.3-0.1-0.5-0.1c0,0,0,0-0.1,0c0.2,0.1,0.4,0.2,0.6,0.3
		c0.1,0,0.1,0,0.2,0.1c0.2,0.1,0.3,0.1,0.5,0.2c0.4,0.2,0.9,0.4,1.3,0.6c0.2,0.1,0.4,0.2,0.7,0.4c0.6,0.4,1.3,0.8,2,1.3
		c0.2,0.2,0.5,0.3,0.7,0.5c1,0.7,2,1.6,3.1,2.5c0.3,0.2,0.5,0.5,0.8,0.7c0.3,0.3,0.7,0.6,1,1c0.7,0.7,1.4,1.4,2,2.2
		c18.4,20.7,13.5,76.9,13.5,76.9c-0.1-0.8-0.2-1.7-0.2-2.5c-0.1-0.7-0.1-1.4-0.2-2.1c-0.3-3-0.6-5.8-1-8.6c-0.1-0.5-0.1-0.9-0.2-1.4
		c-0.1-0.9-0.2-1.8-0.4-2.6c0-0.4-0.1-0.7-0.2-1.1c-0.1-0.5-0.1-1-0.2-1.5c-0.5-3.5-1.1-6.9-1.7-9.9c-0.1-0.6-0.2-1.1-0.3-1.6
		c0-0.1,0-0.1,0-0.2c-0.1-0.5-0.2-1.1-0.4-1.6c-3,2.2-5.3,5.3-7,9c-0.3,0.7-0.6,1.4-0.9,2.1c-0.3,0.7-0.5,1.5-0.8,2.2
		c-0.1,0.2-0.1,0.4-0.2,0.6c-0.1,0.3-0.2,0.7-0.3,1c-0.1,0.5-0.2,0.9-0.4,1.4c-0.4,1.5-0.7,3.1-1,4.8c-0.1,0.6-0.2,1.1-0.3,1.7
		c-0.1,0.7-0.2,1.4-0.3,2.2c-0.1,0.6-0.1,1.3-0.2,1.9c-0.3,3.4-0.4,6.9-0.3,10.6c0,0.4,0,0.9,0,1.3c0,0.5,0,1,0,1.5c0,0,0,0,0,0.1
		c49.3,37,48.1,63.1,48.7,70.5l0,0c0.1,0,0.2,0,0.2,0c0.6-0.1,1.2-0.2,1.8-0.3c0.3-0.1,0.6-0.1,0.9-0.1c0.3-0.1,0.7-0.1,1-0.2
		c0.6-0.1,1.2-0.2,1.8-0.2c0.7-0.1,1.3-0.2,2-0.2c0.7-0.1,1.3-0.1,2-0.2c0.3,0,0.6-0.1,0.9-0.1c0.5,0,1-0.1,1.5-0.1
		c0.4,0,0.9-0.1,1.3-0.1c0.8-0.1,1.6-0.1,2.4-0.1c0.5,0,1.1,0,1.7,0c0.4,0,0.8,0,1.2,0c0.1,0,0.2,0,0.3,0l0,0c1.1,0,1.5,0,2,0
		c38.3,0,76.7,15.5,76.7,15.5l0,0c0,0,0,0,0-0.1c0,0,0,0,0-0.1c-0.3-0.8-1.4-3.8-2.9-8.6c0-0.1-0.1-0.2-0.1-0.2
		c-0.5-1.6-1-3.3-1.6-5.2c-0.1-0.3-0.2-0.6-0.2-0.9c-0.9-3.2-1.9-6.9-2.8-10.9c-0.3-1.1-0.5-2.2-0.8-3.4c-0.2-1.2-0.5-2.3-0.8-3.5
		s-0.5-2.4-0.7-3.7c-0.4-2.1-0.8-4.2-1.1-6.4c-0.1-0.6-0.2-1.3-0.3-1.9c0-0.3-0.1-0.6-0.2-1c-0.2-1.2-0.4-2.5-0.5-3.8
		c-0.1-0.9-0.2-1.8-0.3-2.8c-0.2-1.8-0.4-3.6-0.6-5.5c-0.1-0.9-0.2-1.8-0.2-2.8c-0.3-3.6-0.5-7.2-0.5-10.9c0-0.4,0-0.8,0-1.2
		c0-0.8,0-1.5,0-2.3c0-0.7,0-1.3,0-2c0-0.2,0-0.3,0-0.5c0-1.2,0-2.4,0.1-3.6c0-0.5,0-1,0.1-1.5c0-0.3,0-0.6,0-0.9
		c0-0.6,0.1-1.3,0.1-1.9c0-0.1,0-0.2,0-0.3c0-0.7,0.1-1.5,0.2-2.2c0.1-0.8,0.1-1.6,0.2-2.3c0-0.4,0.1-0.8,0.1-1.2
		c0.1-0.7,0.1-1.3,0.2-1.9c0-0.1,0-0.1,0-0.2c0.1-0.7,0.2-1.4,0.3-2c0-0.3,0.1-0.6,0.1-0.9c0.1-0.8,0.2-1.5,0.4-2.3
		c0.1-0.7,0.2-1.4,0.4-2.1c0.1-0.4,0.1-0.7,0.2-1.1c0.1-0.7,0.3-1.4,0.4-2.2c0.1-0.7,0.3-1.3,0.4-2c0.2-1.1,0.5-2.2,0.8-3.3
		c0.2-0.7,0.4-1.5,0.6-2.2c0.5-1.9,1.1-3.7,1.7-5.5c0.8-2.5,1.9-5,3-7.5c0.2-0.4,0.4-0.8,0.6-1.2c0.3-0.6,0.6-1.3,1-1.9
		c0.1-0.3,0.3-0.5,0.4-0.8c0.2-0.4,0.4-0.7,0.6-1.1c0.6-1.1,1.3-2.2,2-3.3c0.2-0.4,0.5-0.8,0.7-1.2s0.5-0.8,0.8-1.2s0.5-0.8,0.8-1.1
		C699.7,589.8,668.3,595.5,667.6,595.6z M554.8,578.3c-0.1-0.1-0.1-0.2-0.1-0.4c0-0.1,0-0.1-0.1-0.2h-0.2c0.2,0.3,0.3,0.5,0.4,0.8
		l0,0l0,0C554.9,578.5,554.8,578.4,554.8,578.3z M555.5,580c-0.1-0.2-0.2-0.4-0.2-0.5c-0.1-0.2-0.2-0.4-0.2-0.5s-0.1-0.1-0.1-0.2
		v0.1C555.1,579.2,555.3,579.6,555.5,580z M637.1,720.3c-9.1-14.7-19.2-26.4-27.7-34.8c-2.1-2.1-4.1-4-6-5.7c-0.5-0.5-1.1-1-1.6-1.4
		c-0.5-0.5-1-0.9-1.5-1.3c-0.7-0.6-1.4-1.2-2.1-1.8c-0.4-0.4-0.9-0.7-1.3-1c-0.6-0.5-1.2-1-1.7-1.4s-1-0.8-1.5-1.1
		c-1.9-1.5-3-2.2-3-2.2l0.1,0.5c0.2,1.5,0.4,2.9,0.6,4.4c0.1,0.6,0.2,1.3,0.3,1.9c0.1,0.5,0.1,1,0.2,1.4c0.1,0.8,0.3,1.6,0.4,2.5
		c0.2,0.9,0.3,1.9,0.5,2.8c0.2,1,0.4,2.1,0.6,3.1c0.8,4,1.5,7.8,2.3,11.2c0.2,0.8,0.3,1.5,0.5,2.2c0.8,3.4,1.5,6.4,2.2,8.8
		c0.1,0.4,0.2,0.8,0.3,1.1c0.3,1.3,0.6,2.3,0.9,3.2c0.1,0.2,0.1,0.5,0.2,0.7s0.1,0.4,0.2,0.6c0,0.2,0.1,0.3,0.1,0.5
		c0.1,0.4,0.2,0.6,0.2,0.7c-26.8-48.3-34.2-90.2-5.7-124.4c-4.9-11.4-10.2-15.9-14.1-17.6c-0.1,0-0.2-0.1-0.3-0.1
		c-0.5-0.2-1-0.4-1.5-0.5c-0.1,0-0.2-0.1-0.4-0.1c-0.2-0.1-0.4-0.1-0.5-0.1c-0.2,0-0.4-0.1-0.5-0.1s-0.2,0-0.3,0s-0.2,0-0.3,0
		s-0.2,0-0.3,0c-1.2,0-2,0.2-2,0.2c3.2,6.6-4.2,18.4-13,13.3c-0.4-0.2-0.8-0.5-1.1-0.7s-0.5-0.3-0.8-0.5c-0.1-0.1-0.3-0.2-0.4-0.3
		c-0.3-0.2-0.5-0.4-0.8-0.6c-0.1-0.1-0.2-0.2-0.3-0.3c-0.6-0.6-1.2-1.2-1.6-1.8c-0.1-0.1-0.2-0.3-0.3-0.4c-0.2-0.3-0.4-0.5-0.5-0.8
		c0.3,0.8,0.6,1.6,0.9,2.5c0.1,0.2,0.1,0.4,0.2,0.7c0,0.1,0.1,0.3,0.1,0.4c0.1,0.3,0.1,0.6,0.2,0.9c0.1,0.2,0.1,0.4,0.1,0.5
		c0.3,1.6,0.6,3.4,0.7,5.4c0,0.4,0,0.7,0,1.1c0,1.4,0,2.9-0.1,4.4c-1.6,27.2-43.5,62.8-44.8,63.9c1.3-1.5,2.6-3.1,3.8-4.6
		c0.8-0.9,1.5-1.8,2.2-2.7c0.8-1,1.5-1.9,2.2-2.8c0.3-0.5,0.7-0.9,1-1.4c2.8-3.6,5.2-7,7.5-10.3c0.3-0.4,0.5-0.8,0.8-1.2
		s0.5-0.8,0.8-1.2c0.5-0.8,1-1.6,1.5-2.3c0.1-0.1,0.1-0.2,0.2-0.3l0,0c-1-0.2-2-0.2-2.9-0.2c-0.4,0-0.7,0-1,0s-0.7,0-1,0.1h-0.1
		c-0.3,0-0.6,0.1-0.9,0.1c-1.1,0.2-2.2,0.4-3.2,0.7c-0.2,0.1-0.5,0.1-0.7,0.2c-0.1,0-0.2,0.1-0.4,0.1c-0.7,0.2-1.4,0.5-2.1,0.8
		c-0.3,0.1-0.6,0.2-0.9,0.4c-0.2,0.1-0.5,0.2-0.8,0.4c-0.2,0.1-0.5,0.2-0.7,0.3c-0.6,0.3-1.3,0.7-1.9,1c-0.4,0.2-0.7,0.4-1.1,0.6
		c-1.3,0.8-2.6,1.6-3.9,2.5c-0.3,0.2-0.5,0.4-0.8,0.6c-0.3,0.2-0.5,0.4-0.8,0.6c-0.4,0.3-0.7,0.5-1.1,0.8c-3.6,2.8-7.2,6.2-10.7,9.8
		c-0.3,0.3-0.6,0.6-0.9,1c-0.2,0.2-0.4,0.4-0.6,0.7c8.7,61.1-10.7,78.6-15.4,84.3c0.1,0.1,0.2,0.2,0.4,0.3c0.3,0.2,0.7,0.5,1,0.7
		c0.2,0.1,0.4,0.3,0.6,0.5c0.4,0.3,0.8,0.5,1.1,0.8c0.6,0.4,1.1,0.9,1.7,1.3c0.6,0.5,1.2,1,1.8,1.5c0.1,0.1,0.2,0.2,0.3,0.3
		c0.6,0.5,1.2,1,1.8,1.5c0.7,0.6,1.3,1.1,2,1.7c1.3,1.1,2.6,2.3,3.8,3.5l2.6,2.6c0.4,0.4,0.8,0.8,1.2,1.2l19,23.7
		c0.6,0.8,1.1,1.6,1.7,2.5l1.1,1.7c0.3,0.4,0.5,0.8,0.8,1.2l1,1.5c0.5,0.8,1,1.6,1.5,2.4l4.1,6.8c0.7,1.2,1.4,2.5,2.1,3.6
		c0.4,0.7,0.8,1.4,1.2,2.1c0.4,0.8,0.9,1.6,1.3,2.4c0.2,0.4,0.4,0.7,0.6,1.1c0.4,0.7,0.7,1.4,1.1,2c0.3,0.7,0.7,1.3,1,1.9
		c3.1,6.1,4.7,10,4.7,10s0,0,0-0.1l0,0v-0.1c0,0,0-0.1,0.1-0.2c0.3-0.6,0.8-1.8,1.7-3.5c0.1-0.3,0.3-0.5,0.4-0.8
		c0.4-0.9,0.9-1.8,1.4-2.8c0.2-0.3,0.3-0.7,0.5-1c0,0,0,0,0-0.1c0.2-0.4,0.4-0.7,0.6-1.1c0.1-0.2,0.2-0.4,0.4-0.7
		c0.1-0.2,0.2-0.5,0.4-0.7c0.3-0.5,0.6-1.1,0.9-1.7c0.2-0.4,0.5-0.9,0.7-1.3c0,0,0,0,0-0.1c0.3-0.5,0.6-1.1,0.9-1.6
		c0.1-0.1,0.1-0.2,0.2-0.4c0.2-0.4,0.5-0.9,0.8-1.3c0,0,0-0.1,0.1-0.1c0.3-0.5,0.6-1,0.9-1.5c0.4-0.8,0.9-1.5,1.4-2.3
		c0.3-0.5,0.6-1,1-1.6c1-1.6,2-3.2,3.1-4.9c0.2-0.3,0.4-0.6,0.6-1c0.2-0.2,0.3-0.5,0.5-0.7c0.3-0.4,0.6-0.9,0.9-1.3
		c1.2-1.9,2.5-3.8,3.9-5.7c0.4-0.6,0.8-1.2,1.3-1.8c0.4-0.5,0.7-1,1.1-1.5c0.9-1.2,1.9-2.5,2.8-3.8c0.5-0.7,1-1.3,1.6-2
		c0.1-0.1,0.1-0.1,0.1-0.2c0.7-0.9,1.4-1.8,2.2-2.7c0.4-0.5,0.9-1.1,1.3-1.6c1.4-1.7,2.9-3.4,4.4-5.1c0.6-0.7,1.3-1.4,2-2.1
		c0.7-0.8,1.4-1.5,2.1-2.3c0.6-0.7,1.3-1.3,1.9-2c0.8-0.8,1.7-1.7,2.5-2.5c0.6-0.6,1.2-1.2,1.8-1.7c2.4-2.3,4.9-4.5,7.5-6.7
		c0.7-0.5,1.3-1.1,2-1.6c1.2-1,2.5-2,3.8-3c0.8-0.6,1.5-1.1,2.3-1.6c1.4-1,2.8-2,4.2-2.9c3.6-2.3,7.3-4.5,11.1-6.4
		c2.3-1.1,4.6-2.1,7-3c0.3-0.1,0.7-0.2,1-0.4c2-0.7,4-1.3,6-1.8c1.6-0.4,3.3-0.8,4.9-1.1c0.5-0.1,1.1-0.2,1.6-0.3l0,0
		C637.7,721.3,637.4,720.8,637.1,720.3z M522.7,579.3L522.7,579.3L522.7,579.3C522.7,579.2,522.7,579.3,522.7,579.3z M523.1,578.2
		c0-0.1,0.1-0.2,0.1-0.3l0,0C523.1,578.1,523.1,578.2,523.1,578.2c-0.1,0.2-0.2,0.4-0.2,0.6c0,0,0,0.1-0.1,0.2c0,0.1,0,0.1-0.1,0.2
		c0-0.1,0.1-0.2,0.1-0.4C522.9,578.7,523,578.5,523.1,578.2z M523.5,576.9L523.5,576.9l-0.2,0.7v0.1c0.1-0.1,0.1-0.3,0.2-0.4
		c0-0.1,0.1-0.3,0.2-0.4L523.5,576.9z M541.5,587.2c-2.4,6.9-16,10-18.6,0.2c-0.5-1.7-0.7-3.2-0.7-4.6c0-0.3,0-0.6,0-0.9
		c0-0.2,0-0.5,0.1-0.8c0-0.2,0.1-0.4,0.1-0.6c0-0.2,0.1-0.5,0.1-0.7s0.1-0.3,0.1-0.5c0,0,0,0,0-0.1c-0.1,0.2-0.2,0.4-0.3,0.6
		c0,0.1,0,0.1-0.1,0.2c-0.1,0.2-0.1,0.3-0.2,0.5c-0.2,0.4-0.4,0.9-0.6,1.3c-0.1,0.2-0.2,0.4-0.4,0.7c-0.4,0.6-0.8,1.3-1.3,2
		c-0.2,0.2-0.3,0.5-0.5,0.7c-0.7,1-1.6,2-2.5,3.1c-0.2,0.3-0.5,0.5-0.7,0.8c-0.3,0.3-0.6,0.7-1,1c-0.7,0.7-1.4,1.4-2.2,2
		c-20.7,18.4-76.9,13.5-76.9,13.5c0.8-0.1,1.7-0.2,2.5-0.2c0.7-0.1,1.4-0.1,2.1-0.2c3-0.3,5.8-0.6,8.6-1c0.5-0.1,0.9-0.1,1.4-0.2
		c0.9-0.1,1.8-0.2,2.6-0.4c0.4,0,0.7-0.1,1.1-0.2c0.5-0.1,1-0.1,1.5-0.2c3.5-0.5,6.9-1.1,9.9-1.7c0.6-0.1,1.1-0.2,1.6-0.3
		c0.1,0,0.1,0,0.2,0c0.5-0.1,1.1-0.2,1.6-0.4c-2.2-3-5.3-5.3-9-7c-0.7-0.3-1.4-0.6-2.1-0.9c-0.7-0.3-1.5-0.5-2.2-0.8
		c-0.2-0.1-0.4-0.1-0.6-0.2c-0.3-0.1-0.7-0.2-1-0.3c-0.5-0.1-0.9-0.2-1.4-0.4c-1.5-0.4-3.1-0.7-4.8-1c-0.6-0.1-1.1-0.2-1.7-0.3
		c-0.7-0.1-1.4-0.2-2.2-0.3c-0.6-0.1-1.3-0.1-1.9-0.2c-3.4-0.3-6.9-0.4-10.6-0.3c-0.4,0-0.9,0-1.3,0c-0.5,0-1,0-1.5,0c0,0,0,0-0.1,0
		c-37,49.3-63.1,48.1-70.5,48.7l0,0c0,0.1,0,0.2,0,0.2c0.1,0.6,0.2,1.2,0.3,1.8c0.1,0.3,0.1,0.6,0.1,0.9c0.1,0.3,0.1,0.7,0.2,1
		c0.1,0.6,0.2,1.2,0.2,1.8c0.1,0.7,0.2,1.3,0.2,2c0.1,0.7,0.1,1.3,0.2,2c0,0.3,0.1,0.6,0.1,0.9c0,0.5,0.1,1,0.1,1.5
		c0,0.4,0.1,0.9,0.1,1.3c0.1,0.8,0.1,1.6,0.1,2.4c0,0.5,0,1.1,0,1.7c0,0.4,0,0.8,0,1.2c0,0.1,0,0.2,0,0.3l0,0c0,1.1,0,1.5,0,2
		c0,38.3-15.5,76.7-15.5,76.7l0,0c0,0,0,0,0.1,0c0,0,0,0,0.1,0c0.8-0.3,3.8-1.4,8.6-2.9c0.1,0,0.2-0.1,0.2-0.1
		c1.6-0.5,3.3-1,5.2-1.6c0.3-0.1,0.6-0.2,0.9-0.2c3.2-0.9,6.9-1.9,10.9-2.8c1.1-0.3,2.2-0.5,3.4-0.8c1.2-0.2,2.3-0.5,3.5-0.8
		s2.4-0.5,3.7-0.7c2.1-0.4,4.2-0.8,6.4-1.1c0.6-0.1,1.3-0.2,1.9-0.3c0.3,0,0.6-0.1,1-0.2c1.2-0.2,2.5-0.4,3.8-0.5
		c0.9-0.1,1.8-0.2,2.8-0.3c1.8-0.2,3.6-0.4,5.5-0.6c0.9-0.1,1.8-0.2,2.8-0.2c3.6-0.3,7.2-0.5,10.9-0.5c0.4,0,0.8,0,1.2,0
		c0.8,0,1.5,0,2.3,0c0.7,0,1.3,0,2,0c0.2,0,0.3,0,0.5,0c1.2,0,2.4,0,3.6,0.1c0.5,0,1,0,1.5,0.1c0.3,0,0.6,0,0.9,0
		c0.6,0,1.3,0.1,1.9,0.1c0.1,0,0.2,0,0.3,0c0.7,0,1.5,0.1,2.2,0.2c0.8,0.1,1.6,0.1,2.3,0.2c0.4,0,0.8,0.1,1.2,0.1
		c0.7,0.1,1.3,0.1,1.9,0.2c0.1,0,0.1,0,0.2,0c0.7,0.1,1.4,0.2,2,0.3c0.3,0,0.6,0.1,0.9,0.1c0.8,0.1,1.5,0.2,2.3,0.4
		c0.7,0.1,1.4,0.2,2.1,0.4c0.4,0.1,0.7,0.1,1.1,0.2c0.7,0.1,1.4,0.3,2.2,0.4c0.7,0.1,1.3,0.3,2,0.4c1.1,0.2,2.2,0.5,3.3,0.8
		c0.7,0.2,1.5,0.4,2.2,0.6c1.9,0.5,3.7,1.1,5.5,1.7c2.5,0.8,5,1.9,7.5,3c0.4,0.2,0.8,0.4,1.2,0.6c0.6,0.3,1.3,0.6,1.9,1
		c0.3,0.1,0.5,0.3,0.8,0.4c0.4,0.2,0.7,0.4,1.1,0.6c1.1,0.6,2.2,1.3,3.3,2c0.4,0.2,0.8,0.5,1.2,0.7s0.8,0.5,1.2,0.8
		c0.4,0.3,0.8,0.5,1.1,0.8c9.5-38.2,3.8-69.6,3.6-70.4L484,668c-2.3,3-4.5,5.9-6.5,8.9c-0.4,0.6-0.8,1.2-1.2,1.7
		c-0.1,0.2-0.2,0.4-0.4,0.5c-0.6,0.8-1.1,1.7-1.7,2.5c-2,3-3.9,5.9-5.6,8.6c-0.3,0.5-0.6,0.9-0.8,1.3c-3.8,6-6.5,10.7-7.9,13.2
		c0,0.1-0.1,0.2-0.2,0.3c0,0.1-0.1,0.2-0.1,0.3c-0.1,0.1-0.1,0.2-0.1,0.2c-0.4,0.7-0.6,1-0.6,1c15.3-53.1,39.6-87.9,84-92l0,0
		c0.2-0.5,0.4-0.9,0.5-1.4c0.1-0.4,0.3-0.7,0.4-1.1c0.5-1.4,0.9-2.8,1.3-4c0.1-0.2,0.1-0.4,0.2-0.6c0.2-0.9,0.4-1.8,0.6-2.6
		c0-0.2,0.1-0.3,0.1-0.5c0.2-1.3,0.4-2.4,0.5-3.5c0-0.4,0-0.7,0.1-1v-0.1c0-0.1,0-0.3,0-0.4C546.6,589.9,541.5,587.2,541.5,587.2z
		 M501.1,555c0.1,0,0.1-0.1,0.2-0.1h-0.1c-0.4,0.2-0.8,0.3-1.2,0.6c0.2-0.1,0.4-0.2,0.5-0.2C500.7,555.2,500.9,555.1,501.1,555z
		 M502.2,554.4c-0.3,0.2-0.5,0.3-0.8,0.4l0,0l0,0c0.1,0,0.3-0.1,0.4-0.1c0.1-0.1,0.2-0.1,0.4-0.1c0.1,0,0.1,0,0.2-0.1L502.2,554.4z
		 M507.7,574.4c-6.6,3.2-18.4-4.2-13.3-13c0.2-0.4,0.5-0.8,0.7-1.1c0.1-0.1,0.1-0.2,0.2-0.3s0.2-0.3,0.3-0.4
		c0.1-0.1,0.2-0.3,0.3-0.4c0.2-0.3,0.4-0.5,0.6-0.8c0.1-0.1,0.2-0.2,0.3-0.3c0.6-0.6,1.2-1.2,1.8-1.6c0.1-0.1,0.3-0.2,0.4-0.3
		c0.3-0.2,0.5-0.4,0.8-0.5c-0.8,0.3-1.6,0.6-2.5,0.9c-0.2,0.1-0.4,0.1-0.7,0.2c-0.1,0-0.3,0.1-0.4,0.1c-0.3,0.1-0.6,0.1-0.9,0.2
		c-0.2,0.1-0.4,0.1-0.5,0.1c-1.6,0.3-3.4,0.6-5.4,0.7c-0.4,0-0.7,0-1.1,0c-1.4,0-2.9,0-4.4-0.1c-27.2-1.6-62.8-43.5-63.9-44.8
		c1.5,1.3,3.1,2.6,4.6,3.8c0.9,0.8,1.8,1.5,2.7,2.2c1,0.8,1.9,1.5,2.8,2.2c0.5,0.3,0.9,0.7,1.4,1c3.6,2.8,7,5.2,10.3,7.5
		c0.4,0.3,0.8,0.5,1.2,0.8c0.4,0.3,0.8,0.5,1.2,0.8c0.8,0.5,1.6,1,2.3,1.5c0.1,0.1,0.2,0.1,0.3,0.2l0,0c0.2-1,0.2-2,0.2-2.9
		c0-0.4,0-0.7,0-1s0-0.7-0.1-1V528c0-0.3-0.1-0.6-0.1-0.9c-0.2-1.1-0.4-2.2-0.7-3.2c-0.1-0.2-0.1-0.5-0.2-0.7c0-0.1-0.1-0.2-0.1-0.4
		c-0.2-0.7-0.5-1.4-0.8-2.1c-0.1-0.3-0.2-0.6-0.4-0.9c-0.1-0.2-0.2-0.5-0.4-0.8c-0.1-0.2-0.2-0.5-0.3-0.7c-0.3-0.6-0.7-1.3-1-1.9
		c-0.2-0.4-0.4-0.7-0.6-1.1c-0.8-1.3-1.6-2.6-2.5-3.9c-0.2-0.3-0.4-0.5-0.6-0.8s-0.4-0.5-0.6-0.8c-0.3-0.4-0.5-0.7-0.8-1.1
		c-2.8-3.6-6.2-7.2-9.8-10.7c-0.3-0.3-0.6-0.6-1-0.9c-0.2-0.2-0.4-0.4-0.7-0.6c-61.1,8.7-78.6-10.7-84.3-15.4
		c-0.1,0.1-0.2,0.2-0.3,0.4c-0.2,0.3-0.5,0.7-0.7,1c-0.1,0.2-0.3,0.4-0.5,0.6c-0.3,0.4-0.5,0.8-0.8,1.1c-0.4,0.6-0.9,1.1-1.3,1.7
		c-0.5,0.6-1,1.2-1.5,1.8c-0.1,0.1-0.2,0.2-0.3,0.3c-0.5,0.6-1,1.2-1.5,1.8c-0.6,0.7-1.1,1.3-1.7,2c-1.1,1.3-2.3,2.6-3.5,3.8
		l-2.6,2.6c-0.4,0.4-0.8,0.8-1.2,1.2l-23.7,19c-0.8,0.6-1.6,1.1-2.5,1.7l-1.7,1.1c-0.4,0.3-0.8,0.5-1.2,0.8l-1.5,1
		c-0.8,0.5-1.6,1-2.4,1.5l-6.8,4.1c-1.2,0.7-2.5,1.4-3.6,2.1c-0.7,0.4-1.4,0.8-2.1,1.2c-0.8,0.4-1.6,0.9-2.4,1.3
		c-0.4,0.2-0.7,0.4-1.1,0.6c-0.7,0.4-1.4,0.7-2,1.1c-0.7,0.3-1.3,0.7-1.9,1c-6.1,3.1-10,4.7-10,4.7s0,0,0.1,0l0,0h0.1
		c0,0,0.1,0,0.2,0.1c0.6,0.3,1.8,0.8,3.5,1.7c0.3,0.1,0.5,0.3,0.8,0.4c0.9,0.4,1.8,0.9,2.8,1.4c0.3,0.2,0.7,0.3,1,0.5c0,0,0,0,0.1,0
		c0.4,0.2,0.7,0.4,1.1,0.6c0.2,0.1,0.4,0.2,0.7,0.4c0.2,0.1,0.5,0.2,0.7,0.4c0.5,0.3,1.1,0.6,1.7,0.9c0.4,0.2,0.9,0.5,1.3,0.7
		c0,0,0,0,0.1,0c0.5,0.3,1.1,0.6,1.6,0.9c0.1,0.1,0.2,0.1,0.4,0.2c0.4,0.2,0.9,0.5,1.3,0.8c0,0,0.1,0,0.1,0.1c0.5,0.3,1,0.6,1.5,0.9
		c0.8,0.4,1.5,0.9,2.3,1.4c0.5,0.3,1,0.6,1.6,1c1.6,1,3.2,2,4.9,3.1c0.3,0.2,0.6,0.4,1,0.6c0.2,0.2,0.5,0.3,0.7,0.5
		c0.4,0.3,0.9,0.6,1.3,0.9c1.9,1.2,3.8,2.5,5.7,3.9c0.6,0.4,1.2,0.8,1.8,1.3c0.5,0.4,1,0.7,1.5,1.1c1.2,0.9,2.5,1.9,3.8,2.8
		c0.7,0.5,1.3,1,2,1.6c0.1,0.1,0.1,0.1,0.2,0.1c0.9,0.7,1.8,1.4,2.7,2.2c0.5,0.4,1.1,0.9,1.6,1.3c1.7,1.4,3.4,2.9,5.1,4.4
		c0.7,0.6,1.4,1.3,2.1,2c0.8,0.7,1.5,1.4,2.3,2.1c0.7,0.6,1.3,1.3,2,1.9c0.8,0.8,1.7,1.7,2.5,2.5c0.6,0.6,1.2,1.2,1.7,1.8
		c2.3,2.4,4.5,4.9,6.7,7.5c0.5,0.7,1.1,1.3,1.6,2c1,1.2,2,2.5,3,3.8c0.6,0.8,1.1,1.5,1.6,2.3c1,1.4,2,2.8,2.9,4.2
		c2.3,3.6,4.5,7.3,6.4,11.1c1.1,2.3,2.1,4.6,3,7c0.1,0.3,0.2,0.7,0.4,1c0.7,2,1.3,4,1.8,6c0.4,1.6,0.8,3.3,1.1,4.9
		c0.1,0.5,0.2,1.1,0.3,1.6l0,0c0.5-0.3,1.1-0.6,1.6-1c14.7-9.1,26.4-19.2,34.8-27.7c2.1-2.1,4-4.1,5.7-6c0.5-0.5,1-1.1,1.4-1.6
		c0.5-0.5,0.9-1,1.3-1.5c0.6-0.7,1.2-1.4,1.8-2.1c0.4-0.4,0.7-0.9,1-1.3c0.5-0.6,1-1.2,1.4-1.7s0.8-1,1.1-1.5c1.5-1.9,2.2-3,2.2-3
		l-0.5,0.1c-1.5,0.2-2.9,0.4-4.4,0.6c-0.6,0.1-1.3,0.2-1.9,0.3c-0.5,0.1-1,0.1-1.4,0.2c-0.8,0.1-1.6,0.3-2.5,0.4
		c-0.9,0.2-1.9,0.3-2.8,0.5c-1,0.2-2.1,0.4-3.1,0.6c-4,0.8-7.8,1.5-11.2,2.3c-0.8,0.2-1.5,0.3-2.2,0.5c-3.4,0.8-6.4,1.5-8.8,2.2
		c-0.4,0.1-0.8,0.2-1.1,0.3c-1.3,0.3-2.3,0.6-3.2,0.9c-0.2,0.1-0.5,0.1-0.7,0.2s-0.4,0.1-0.6,0.2c-0.2,0-0.3,0.1-0.5,0.1
		c-0.4,0.1-0.6,0.2-0.7,0.2c48.3-26.8,90.2-34.2,124.4-5.7c11.4-4.9,15.9-10.2,17.6-14.1c0-0.1,0.1-0.2,0.1-0.3
		c0.2-0.5,0.4-1,0.5-1.5c0.1-0.3,0.1-0.6,0.2-0.9c0-0.2,0.1-0.4,0.1-0.5s0-0.2,0-0.3C508,575.4,507.7,574.4,507.7,574.4z
		 M499.8,522.3c-0.2-0.1-0.3-0.1-0.5-0.2c-0.4-0.2-0.8-0.4-1.3-0.6c-0.2-0.1-0.4-0.2-0.7-0.4c-0.6-0.4-1.3-0.8-2-1.3
		c-0.2-0.2-0.5-0.3-0.7-0.5c-1-0.7-2-1.6-3.1-2.5c-0.3-0.2-0.5-0.5-0.8-0.7c-0.3-0.3-0.7-0.6-1-1c-0.7-0.7-1.4-1.4-2-2.2
		c-18.4-20.7-13.5-76.9-13.5-76.9c0.1,0.8,0.2,1.7,0.2,2.5c0.1,0.7,0.1,1.4,0.2,2.1c0.3,3,0.6,5.8,1,8.6c0.1,0.5,0.1,0.9,0.2,1.4
		c0.1,0.9,0.2,1.8,0.4,2.6c0,0.4,0.1,0.7,0.2,1.1c0.1,0.5,0.1,1,0.2,1.5l1.7,9.9c0.1,0.6,0.2,1.1,0.3,1.6v0.2
		c0.1,0.5,0.2,1.1,0.4,1.6c3-2.2,5.3-5.3,7-9c0.3-0.7,0.6-1.4,0.9-2.1s0.5-1.5,0.8-2.2c0.1-0.2,0.1-0.4,0.2-0.6
		c0.1-0.3,0.2-0.7,0.3-1c0.1-0.5,0.2-0.9,0.4-1.4c0.4-1.5,0.7-3.1,1-4.8c0.1-0.6,0.2-1.1,0.3-1.7c0.1-0.7,0.2-1.4,0.3-2.2
		c0.1-0.6,0.1-1.3,0.2-1.9c0.3-3.4,0.4-6.9,0.3-10.6c0-0.4,0-0.9,0-1.3c0-0.5,0-1,0-1.5c0,0,0,0,0-0.1c-49.3-37-48.1-63.1-48.7-70.5
		l0,0c-0.1,0-0.2,0-0.2,0c-0.6,0.1-1.2,0.2-1.8,0.3c-0.3,0.1-0.6,0.1-0.9,0.1c-0.3,0.1-0.7,0.1-1,0.2c-0.6,0.1-1.2,0.2-1.8,0.2
		c-0.7,0.1-1.3,0.2-2,0.2c-0.7,0.1-1.3,0.1-2,0.2c-0.3,0-0.6,0.1-0.9,0.1c-0.5,0-1,0.1-1.5,0.1c-0.4,0-0.9,0.1-1.3,0.1
		c-0.8,0.1-1.6,0.1-2.4,0.1c-0.5,0-1.1,0-1.7,0c-0.4,0-0.8,0-1.2,0c-0.1,0-0.2,0-0.3,0l0,0c-1.1,0-1.5,0-2,0
		c-38.3,0-76.7-15.5-76.7-15.5l0,0c0,0,0,0,0,0.1c0,0,0,0,0,0.1c0.3,0.8,1.4,3.8,2.9,8.6c0,0.1,0.1,0.2,0.1,0.2
		c0.5,1.6,1,3.3,1.6,5.2c0.1,0.3,0.2,0.6,0.2,0.9c0.9,3.2,1.9,6.9,2.8,10.9c0.3,1.1,0.5,2.2,0.8,3.4c0.2,1.2,0.5,2.3,0.8,3.5
		s0.5,2.4,0.7,3.7c0.4,2.1,0.8,4.2,1.1,6.4c0.1,0.6,0.2,1.3,0.3,1.9c0,0.3,0.1,0.6,0.2,1c0.2,1.2,0.4,2.5,0.5,3.8
		c0.1,0.9,0.2,1.8,0.3,2.8c0.2,1.8,0.4,3.6,0.6,5.5c0.1,0.9,0.2,1.8,0.2,2.8c0.3,3.6,0.5,7.2,0.5,10.9c0,0.4,0,0.8,0,1.2
		c0,0.8,0,1.5,0,2.3c0,0.7,0,1.3,0,2c0,0.2,0,0.3,0,0.5c0,1.2,0,2.4-0.1,3.6c0,0.5,0,1-0.1,1.5c0,0.3,0,0.6,0,0.9
		c0,0.6-0.1,1.3-0.1,1.9c0,0.1,0,0.2,0,0.3c0,0.7-0.1,1.5-0.2,2.2c-0.1,0.8-0.1,1.6-0.2,2.3c0,0.4-0.1,0.8-0.1,1.2
		c-0.1,0.7-0.1,1.3-0.2,1.9c0,0.1,0,0.1,0,0.2c-0.1,0.7-0.2,1.4-0.3,2c0,0.3-0.1,0.6-0.1,0.9c-0.1,0.8-0.2,1.5-0.4,2.3
		c-0.1,0.7-0.2,1.4-0.4,2.1c-0.1,0.4-0.1,0.7-0.2,1.1c-0.1,0.7-0.3,1.4-0.4,2.2c-0.1,0.7-0.3,1.3-0.4,2c-0.2,1.1-0.5,2.2-0.8,3.3
		c-0.2,0.7-0.4,1.5-0.6,2.2c-0.5,1.9-1.1,3.7-1.7,5.5c-0.8,2.5-1.9,5-3,7.5c-0.2,0.4-0.4,0.8-0.6,1.2c-0.3,0.6-0.6,1.3-1,1.9
		c-0.1,0.3-0.3,0.5-0.4,0.8c-0.2,0.4-0.4,0.7-0.6,1.1c-0.6,1.1-1.3,2.2-2,3.3c-0.2,0.4-0.5,0.8-0.7,1.2s-0.5,0.8-0.8,1.2
		c-0.3,0.4-0.5,0.8-0.8,1.1c38.2,9.5,69.6,3.8,70.4,3.6L412,484c-3-2.3-5.9-4.5-8.9-6.5c-0.6-0.4-1.2-0.8-1.7-1.2
		c-0.2-0.1-0.4-0.2-0.5-0.4c-0.8-0.6-1.7-1.1-2.5-1.7c-3-2-5.9-3.9-8.6-5.6c-0.5-0.3-0.9-0.6-1.3-0.8c-6-3.8-10.7-6.5-13.2-7.9
		c-0.1,0-0.2-0.1-0.3-0.2c-0.1,0-0.2-0.1-0.3-0.1c-0.1-0.1-0.2-0.1-0.2-0.1c-0.7-0.4-1-0.6-1-0.6c53.1,15.3,87.9,39.6,92,84l0,0
		c0.5,0.2,0.9,0.4,1.4,0.5c0.4,0.1,0.7,0.3,1.1,0.4c1.4,0.5,2.8,0.9,4,1.3c0.2,0.1,0.4,0.1,0.6,0.2c0.9,0.2,1.8,0.4,2.6,0.6
		c0.2,0,0.3,0.1,0.5,0.1c1.3,0.2,2.4,0.4,3.5,0.5c0.4,0,0.7,0,1,0.1h0.1c0.1,0,0.3,0,0.4,0c9.4,0.2,12.1-4.9,12.1-4.9
		c-6.9-2.4-10-16-0.2-18.6c1.7-0.5,3.2-0.7,4.6-0.7c0.3,0,0.6,0,0.9,0c0.2,0,0.5,0,0.8,0.1c0.2,0,0.4,0.1,0.6,0.1s0.5,0.1,0.7,0.1
		s0.3,0.1,0.5,0.1c0,0,0,0,0.1,0c-0.2-0.1-0.4-0.2-0.6-0.3C499.9,522.4,499.9,522.3,499.8,522.3z M500.7,522.7L500.7,522.7
		C500.8,522.7,500.7,522.7,500.7,522.7L500.7,522.7z M501.7,523c-0.2-0.1-0.4-0.2-0.6-0.2c0,0-0.1,0-0.2-0.1c-0.1,0-0.1,0-0.2-0.1
		c0.1,0.1,0.2,0.1,0.4,0.1C501.3,522.9,501.5,523,501.7,523c0.1,0.1,0.2,0.1,0.4,0.1l0,0C501.9,523.1,501.8,523.1,501.7,523z
		 M503,523.5c-0.2,0-0.4-0.1-0.6-0.2h-0.1c0.1,0.1,0.3,0.1,0.4,0.2c0.1,0,0.3,0.1,0.4,0.2l0.1-0.1C503,523.5,503,523.5,503,523.5z"
		/>
</g>
<g id="Layer_22">
	<path class="st3" d="M479.1,469.1c25.8-18.8,0.5-104.2,0.5-104.2c26.8,48.4,34.2,90.2,5.7,124.5C483.1,484.1,481,477.5,479.1,469.1
		L479.1,469.1z M547.1,446.8c-4.6,7.3-7.8,13.4-9.9,18.7c44.4-4.1,68.7-38.9,84-92C621.2,373.5,578.6,451.8,547.1,446.8L547.1,446.8
		z M610.9,479.1c-8.4,1.9-15,4-20.2,6.2c34.3,28.5,76.1,21.1,124.5-5.7C715.2,479.6,629.7,504.9,610.9,479.1L610.9,479.1z
		 M633.2,547.1c-7.3-4.6-13.4-7.8-18.7-9.9c4.1,44.4,38.9,68.7,92,84C706.5,621.2,628.2,578.6,633.2,547.1L633.2,547.1z
		 M600.9,610.9c-1.9-8.4-4-15-6.2-20.2c-28.5,34.3-21.1,76.1,5.7,124.5C600.4,715.2,575.1,629.7,600.9,610.9L600.9,610.9z
		 M532.9,633.2c4.6-7.3,7.8-13.4,9.9-18.7c-44.4,4.1-68.7,38.9-84,92C458.8,706.5,501.4,628.2,532.9,633.2L532.9,633.2z
		 M469.1,600.9c8.4-1.9,15-4,20.2-6.2c-34.3-28.5-76.1-21.1-124.5,5.7C364.8,600.4,450.3,575.1,469.1,600.9L469.1,600.9z
		 M446.8,532.9c7.3,4.6,13.4,7.8,18.7,9.9c-4.1-44.4-38.9-68.7-92-84C373.5,458.8,451.8,501.4,446.8,532.9L446.8,532.9z"/>
</g>
<g id="Layer_23">
	<path class="st4" d="M490.7,428.7c-49.4-37.1-48.1-63.1-48.7-70.5c20.6,34.2,47.2,52.3,47.2,52.3c0.7,5.8,1.3,11.6,1.5,17.4V428.7z
		 M584.4,425.8c3.9-4.2,7.7-8.8,11.2-13.4c0,0-6-31.7,3.6-70.4c-4.8,5.7-24.1,23.2-15.4,84.3L584.4,425.8z M652.2,490.6
		c5.7-0.2,11.6-0.8,17.4-1.5c0,0,18.2-26.6,52.3-47.2c-7.4,0.7-33.5-0.6-70.5,48.7H652.2z M654.2,584.4c4.2,3.9,8.8,7.7,13.4,11.2
		c0,0,31.7-6,70.4,3.6c-5.7-4.8-23.2-24.1-84.3-15.4L654.2,584.4z M589.4,652.2c0.2,5.7,0.8,11.6,1.5,17.4c0,0,26.6,18.2,47.2,52.3
		c-0.7-7.4,0.6-33.5-48.7-70.5V652.2z M495.6,654.2c-3.9,4.2-7.7,8.8-11.2,13.4c0,0,6,31.7-3.6,70.4c4.8-5.7,24.1-23.2,15.4-84.3
		L495.6,654.2z M427.8,589.4c-5.7,0.2-11.6,0.8-17.4,1.5c0,0-18.2,26.6-52.3,47.2c7.4-0.7,33.5,0.6,70.5-48.7H427.8z M425.8,495.6
		c-4.2-3.9-8.8-7.7-13.4-11.2c0,0-31.7,6-70.4-3.6c5.7,4.8,23.2,24.1,84.3,15.4L425.8,495.6z"/>
</g>
<g id="Layer_24">
	<path class="st5" d="M584.7,329.9c0,0,25.4-64.4,75-87.4c0,0-3.5,28.2,3.5,40.6s17.9,58.1-4.6,75.1l0,0c-13.3-0.2-27-1.9-40-6.3
		C606,347.7,594.6,339.6,584.7,329.9L584.7,329.9z M720.1,423c0.2,13.9,2.5,27.7,8.4,39.5c6.1,12.3,14.6,23.2,23.9,32.7l0,0
		c27.9,3.8,52.5-36.2,56.3-49.9c3.8-13.7,26.2-31.1,26.2-31.1C783.6,395.4,720.1,423,720.1,423L720.1,423z M750.1,584.7
		c-9.7,10-17.8,21.3-22,33.9c-4.4,13-6.1,26.7-6.3,40l0,0c17,22.5,62.7,11.5,75.1,4.6c12.4-7,40.6-3.5,40.6-3.5
		C814.5,610,750.1,584.7,750.1,584.7L750.1,584.7z M657,720.1c-13.9,0.2-27.7,2.5-39.5,8.4c-12.3,6.1-23.2,14.6-32.7,23.9l0,0
		c-3.8,27.9,36.2,52.5,49.9,56.3s31.1,26.2,31.1,26.2C684.6,783.6,657,720.1,657,720.1L657,720.1z M495.3,750.1
		c-10-9.7-21.3-17.8-33.9-22c-13-4.4-26.7-6.1-40-6.3l0,0c-22.5,17-11.5,62.7-4.6,75.1c7,12.4,3.5,40.6,3.5,40.6
		C470,814.5,495.3,750.1,495.3,750.1L495.3,750.1z M359.9,657c-0.2-13.9-2.5-27.7-8.4-39.5c-6.1-12.3-14.6-23.2-23.9-32.7l0,0
		c-27.9-3.8-52.5,36.2-56.3,49.9s-26.2,31.1-26.2,31.1C296.4,684.6,359.9,657,359.9,657L359.9,657z M329.9,495.3
		c9.7-10,17.8-21.3,22-33.9c4.4-13,6.1-26.7,6.3-40l0,0c-17-22.5-62.7-11.5-75.1-4.6c-12.4,7-40.6,3.5-40.6,3.5
		C265.5,470,329.9,495.3,329.9,495.3L329.9,495.3z M423,359.9c13.9-0.2,27.7-2.5,39.5-8.4c12.3-6.1,23.2-14.6,32.7-23.9l0,0
		c3.8-27.9-36.2-52.5-49.9-56.3c-13.7-3.8-31.1-26.2-31.1-26.2C395.4,296.4,423,359.9,423,359.9L423,359.9z"/>
</g>
<g id="Layer_25">
	<path class="st6" d="M658.6,358.2c22.5-17,11.5-62.7,4.6-75.1c-7-12.4-3.5-40.6-3.5-40.6c-49.6,22.9-75,87.4-75,87.4
		c-2-5.5-4.8-15-4.1-26.5c2.4-37,38.7-55.3,78.5-100.1c11.5-12.9,28-33.4,44.5-62.2c-5.5,12.9-11.8,32.3-11.3,55.9
		c0.5,25.9,8.7,40.1,12.7,57.8c4.9,22.1,4.5,55.3-21.8,102.1l0,0C675.4,357.8,667.1,358.3,658.6,358.2L658.6,358.2z M752.4,495.3
		c5.9,6.1,12.2,11.6,18.4,16.5l0,0c51.6-14.5,75.4-37.6,87.6-56.8c9.7-15.3,13.9-31.2,31.9-49.8c16.4-17,34.6-26.3,47.6-31.5
		c-32.1,8.7-58.3,11.5-75.5,12.5c-59.8,3.6-98.4-9.2-126.3,15.2c-8.7,7.6-13.4,16.3-15.9,21.6c0,0,63.5-27.6,114.8-8.8
		c0,0-22.4,17.5-26.2,31.1C804.9,459.1,780.3,499.1,752.4,495.3L752.4,495.3z M721.8,658.6c-0.1,8.5,0.4,16.8,1.4,24.7l0,0
		c46.8,26.2,79.9,26.7,102,21.7c17.7-4,31.9-12.2,57.8-12.7c23.6-0.4,43,5.9,55.9,11.3c-28.8-16.5-49.3-33.1-62.2-44.5
		c-44.8-39.8-63.1-76.1-100.1-78.5c-11.5-0.8-21,2-26.5,4.1c0,0,64.4,25.4,87.4,75c0,0-28.2-3.5-40.6,3.5
		C784.5,670.1,738.8,681,721.8,658.6L721.8,658.6z M584.7,752.4c-6.1,5.9-11.6,12.2-16.5,18.4l0,0c14.5,51.6,37.6,75.4,56.8,87.6
		c15.3,9.7,31.2,13.9,49.8,31.9c17,16.4,26.3,34.6,31.5,47.6c-8.7-32.1-11.5-58.3-12.5-75.5c-3.6-59.8,9.2-98.4-15.2-126.3
		c-7.6-8.7-16.3-13.4-21.6-15.9c0,0,27.6,63.5,8.8,114.8c0,0-17.5-22.4-31.1-26.2C620.9,804.9,580.9,780.3,584.7,752.4L584.7,752.4z
		 M421.4,721.8c-8.5-0.1-16.8,0.4-24.7,1.4l0,0c-26.2,46.8-26.7,79.9-21.7,102c4,17.7,12.2,31.9,12.7,57.8
		c0.4,23.6-5.9,43-11.3,55.9c16.5-28.8,33.1-49.3,44.5-62.2c39.8-44.8,76.1-63.1,78.5-100.1c0.8-11.5-2-21-4.1-26.5
		c0,0-25.4,64.4-75,87.4c0,0,3.5-28.2-3.5-40.6C409.9,784.5,399,738.8,421.4,721.8L421.4,721.8z M327.6,584.7
		c-5.9-6.1-12.2-11.6-18.4-16.5l0,0c-51.6,14.5-75.4,37.6-87.6,56.8c-9.7,15.3-13.9,31.2-31.9,49.8c-16.4,17-34.6,26.3-47.6,31.5
		c32.1-8.7,58.3-11.5,75.5-12.5c59.8-3.6,98.4,9.2,126.3-15.2c8.7-7.6,13.4-16.3,15.9-21.6c0,0-63.5,27.6-114.8,8.8
		c0,0,22.4-17.5,26.2-31.1C275.1,620.9,299.7,580.9,327.6,584.7L327.6,584.7z M358.2,421.4c0.1-8.5-0.4-16.8-1.4-24.7l0,0
		c-46.8-26.2-79.9-26.7-102-21.7c-17.7,4-31.9,12.2-57.8,12.7c-23.6,0.4-43-5.9-55.9-11.3c28.8,16.5,49.3,33.1,62.2,44.5
		c44.8,39.8,63.1,76.1,100.1,78.5c11.5,0.8,21-2,26.5-4.1c0,0-64.4-25.4-87.4-75c0,0,28.2,3.5,40.6-3.5
		C295.5,409.9,341.2,399,358.2,421.4L358.2,421.4z M495.3,327.6c6.1-5.9,11.6-12.2,16.5-18.4l0,0c-14.5-51.6-37.6-75.4-56.8-87.6
		c-15.3-9.7-31.2-13.9-49.8-31.9c-17-16.4-26.3-34.6-31.5-47.6c8.7,32.1,11.5,58.3,12.5,75.5c3.6,59.8-9.2,98.4,15.2,126.3
		c7.6,8.7,16.3,13.4,21.6,15.9c0,0-27.6-63.5-8.8-114.8c0,0,17.5,22.4,31.1,26.2C459.1,275.1,499.1,299.7,495.3,327.6L495.3,327.6z"
		/>
</g>
<g id="Layer_26">
	<path class="st7" d="M602.8,136.7c23,30.1,48.3,50.7,69.8,50.7c-4.9,6.3-9.5,11.6-13.4,16c-39.8,44.8-76.1,63.1-78.5,100.1
		c-0.8,11.5,2,21,4.1,26.5l0,0c-27.9-27.1-44.7-66.5-44.7-66.5s-9.8,22.4-28.2,45.8c-14.5-51.6-37.6-75.4-56.8-87.6
		c-14.3-9.1-29.2-13.4-46.3-28.7c42,6.8,72.4-14.1,93.7-52.1c0.5,19,21.9,30.4,27.8,38.3c7.9,10.5,9.8,30.7,9.8,30.7
		c0-17.6,43.2-49.2,51.2-55.7C597.7,149.1,601.6,139.8,602.8,136.7z M848.9,303.5c-10.2-1.1-63.1-9.3-75.5,3.2
		c0,0,13-15.7,14.8-28.7c1.4-9.8-5.7-33,7.4-46.8c-41.9,11.7-78.2,5-103.1-29.4c1.3,22.9,8.8,36.5,12.5,53
		c4.9,22.1,4.5,55.3-21.8,102.1c29.6-3.5,52.4-12.4,52.4-12.4s-16,39.7-15.5,78.6l0,0c2.4-5.3,7.2-14,15.9-21.6
		c27.9-24.4,66.5-11.7,126.3-15.2c5.9-0.4,12.9-0.9,20.8-1.9c-15.2-15.2-18.6-47.6-13.6-85.2C866.5,300.6,857.3,304.4,848.9,303.5z
		 M925.7,591.2c-6.4-8-38-51.2-55.7-51.2c0,0,20.2-1.9,30.7-9.8c7.9-5.9,19.3-27.3,38.3-27.8c-38-21.4-58.8-51.8-52.1-93.7
		c-15.3,17.1-19.6,32-28.7,46.3c-12.1,19.1-35.9,42.2-87.6,56.8c23.4,18.4,45.8,28.2,45.8,28.2s-39.4,16.8-66.5,44.7l0,0
		c5.5-2,15-4.8,26.5-4.1c37,2.4,55.3,38.7,100.1,78.5c4.4,3.9,9.8,8.5,16,13.4c0-21.5,20.5-46.8,50.7-69.8
		C940.2,601.6,930.9,597.7,925.7,591.2z M776.5,848.9c1.1-10.2,9.3-63.1-3.2-75.5c0,0,15.7,13,28.7,14.8c9.8,1.4,33-5.7,46.8,7.4
		c-11.7-41.9-5-78.2,29.4-103.1c-22.9,1.3-36.5,8.8-53,12.5c-22.1,4.9-55.3,4.5-102.1-21.8c3.5,29.6,12.4,52.4,12.4,52.4
		s-39.7-16-78.6-15.5l0,0c5.3,2.4,14,7.2,21.6,15.9c24.4,27.9,11.7,66.5,15.2,126.3c0.4,5.9,0.9,12.9,1.9,20.8
		c15.2-15.2,47.6-18.6,85.2-13.6C779.4,866.5,775.6,857.3,776.5,848.9z M488.8,925.7c8-6.4,51.2-38,51.2-55.7c0,0,1.9,20.2,9.8,30.7
		c5.9,7.9,27.3,19.3,27.8,38.3c21.4-38,51.8-58.8,93.7-52.1c-17.1-15.3-32-19.6-46.3-28.7c-19.1-12.1-42.2-35.9-56.8-87.6
		C549.8,794,540,816.4,540,816.4s-16.8-39.4-44.7-66.5l0,0c2,5.5,4.8,15,4.1,26.5c-2.4,37-38.7,55.3-78.5,100.1
		c-3.9,4.4-8.5,9.8-13.4,16c21.5,0,46.8,20.5,69.8,50.7C478.4,940.2,482.3,930.9,488.8,925.7z M231.1,776.5
		c10.2,1.1,63.1,9.3,75.5-3.2c0,0-13,15.7-14.8,28.7c-1.4,9.8,5.7,33-7.4,46.8c41.9-11.7,78.2-5,103.1,29.4
		c-1.3-22.9-8.8-36.5-12.5-53c-4.9-22.1-4.5-55.3,21.8-102.1c-29.6,3.5-52.4,12.4-52.4,12.4s16-39.7,15.5-78.6l0,0
		c-2.4,5.3-7.2,14-15.9,21.6c-27.9,24.4-66.5,11.7-126.3,15.2c-5.9,0.4-12.9,0.9-20.8,1.9c15.2,15.2,18.6,47.6,13.6,85.2
		C213.5,779.4,222.7,775.6,231.1,776.5z M154.3,488.8c6.4,8,38,51.2,55.7,51.2c0,0-20.2,1.9-30.7,9.8c-7.9,5.9-19.3,27.3-38.3,27.8
		c38,21.4,58.8,51.8,52.1,93.7c15.3-17.1,19.6-32,28.7-46.3c12.1-19.1,35.9-42.2,87.6-56.8C286,549.8,263.6,540,263.6,540
		s39.4-16.8,66.5-44.7l0,0c-5.5,2-15,4.8-26.5,4.1c-37-2.4-55.3-38.7-100.1-78.5c-4.4-3.9-9.8-8.5-16-13.4
		c0,21.5-20.5,46.8-50.7,69.8C139.8,478.4,149.1,482.3,154.3,488.8z M303.5,231.1c-1.1,10.2-9.3,63.1,3.2,75.5
		c0,0-15.7-13-28.7-14.8c-9.8-1.4-33,5.7-46.8-7.4c11.7,41.9,5,78.2-29.4,103.1c22.9-1.3,36.5-8.8,53-12.5
		c22.1-4.9,55.3-4.5,102.1,21.8c-3.5-29.6-12.4-52.4-12.4-52.4s39.7,16,78.6,15.5l0,0c-5.3-2.4-14-7.2-21.6-15.9
		c-24.4-27.9-11.7-66.5-15.2-126.3c-0.4-5.9-0.9-12.9-1.9-20.8c-15.2,15.2-47.6,18.6-85.2,13.6C300.6,213.5,304.4,222.7,303.5,231.1
		z"/>
</g>
<g id="Layer_27">
	<path class="st8" d="M591.2,154.3c-8,6.4-51.2,38-51.2,55.7c0,0-1.9-20.2-9.8-30.7c-5.9-7.9-27.3-19.3-27.8-38.3
		c3.1-5.6,6.1-11.5,8.8-17.7c4.4,16.3,27.1,32.6,32,44.2c3.3-9.4,21.8-25.5,28.2-32.1c4.2-4.4,10.1-10.9,16.6-19.7
		c4.7,7.4,9.7,14.5,14.7,21.1C601.6,139.8,597.7,149.1,591.2,154.3z M869.6,299.2c1.1-8.2,2.6-16.7,4.5-25.3
		c-10.8,1.7-19.7,2.1-25.7,2.2c-9.2,0.2-33.6-1.6-42.6,2.7c4.7-11.7,0.2-39.3,8.6-53.9c-6.4,2.5-12.6,4.6-18.8,6.3
		c-13.1,13.8-6,37-7.4,46.8c-1.9,13-14.8,28.7-14.8,28.7c12.5-12.5,65.3-4.3,75.5-3.2C857.3,304.4,866.5,300.6,869.6,299.2z
		 M943.3,602.8c6.6-5,13.7-10,21.1-14.7c-8.8-6.5-15.4-12.4-19.7-16.6c-6.6-6.4-22.6-24.9-32.1-28.2c11.6-5,27.9-27.7,44.2-32
		c-6.3-2.7-12.2-5.7-17.7-8.8c-19,0.5-30.4,21.9-38.3,27.8c-10.5,7.9-30.7,9.8-30.7,9.8c17.6,0,49.2,43.2,55.7,51.2
		C930.9,597.7,940.2,601.6,943.3,602.8z M780.8,869.6c8.2,1.1,16.7,2.6,25.3,4.5c-1.7-10.8-2.1-19.7-2.2-25.7
		c-0.2-9.2,1.6-33.6-2.7-42.6c11.7,4.7,39.3,0.2,53.9,8.6c-2.5-6.4-4.6-12.6-6.3-18.8c-13.8-13.1-37-6-46.8-7.4
		c-13-1.9-28.7-14.8-28.7-14.8c12.5,12.5,4.3,65.3,3.2,75.5C775.6,857.3,779.4,866.5,780.8,869.6z M477.2,943.3
		c5,6.6,10,13.7,14.7,21.1c6.5-8.8,12.4-15.4,16.6-19.7c6.4-6.6,24.9-22.6,28.2-32.1c5,11.6,27.7,27.9,32,44.2
		c2.7-6.3,5.7-12.2,8.8-17.7c-0.5-19-21.9-30.4-27.8-38.3c-7.9-10.5-9.8-30.7-9.8-30.7c0,17.6-43.2,49.2-51.2,55.7
		C482.3,930.9,478.4,940.2,477.2,943.3z M210.4,780.8c-1.1,8.2-2.6,16.7-4.5,25.3c10.8-1.7,19.7-2.1,25.7-2.2
		c9.2-0.2,33.6,1.6,42.6-2.7c-4.7,11.7-0.2,39.3-8.6,53.9c6.4-2.5,12.6-4.6,18.8-6.3c13.1-13.8,6-37,7.4-46.8
		c1.9-13,14.8-28.7,14.8-28.7c-12.5,12.5-65.3,4.3-75.5,3.2C222.7,775.6,213.5,779.4,210.4,780.8z M136.7,477.2
		c-6.6,5-13.7,10-21.1,14.7c8.8,6.5,15.4,12.4,19.7,16.6c6.6,6.4,22.6,24.9,32.1,28.2c-11.6,5-27.9,27.7-44.2,32
		c6.3,2.7,12.2,5.7,17.7,8.8c19-0.5,30.4-21.9,38.3-27.8c10.5-7.9,30.7-9.8,30.7-9.8c-17.6,0-49.2-43.2-55.7-51.2
		C149.1,482.3,139.8,478.4,136.7,477.2z M299.2,210.4c-8.2-1.1-16.7-2.6-25.3-4.5c1.7,10.8,2.1,19.7,2.2,25.7
		c0.2,9.2-1.6,33.6,2.7,42.6c-11.7-4.7-39.3-0.2-53.9-8.6c2.5,6.4,4.6,12.6,6.3,18.8c13.8,13.1,37,6,46.8,7.4
		c13,1.9,28.7,14.8,28.7,14.8c-12.5-12.5-4.3-65.3-3.2-75.5C304.4,222.7,300.6,213.5,299.2,210.4z"/>
</g>
<g id="Layer_28">
	<path class="st9" d="M540,0c7.5,38.3,25.8,80.8,48.1,115.5c-6.5,8.8-12.4,15.4-16.6,19.7c-6.4,6.6-24.9,22.6-28.2,32.1
		c-5-11.6-27.7-27.9-32-44.2C525.4,90.9,534.6,49.8,540,4.4V0z M918.7,161.3c-35.9,28.3-71.5,50.8-104.3,63.6
		c-8.4,14.6-3.9,42.2-8.6,53.9c9-4.4,33.5-2.6,42.6-2.7c6.1-0.1,14.9-0.5,25.7-2.2c8.9-40.3,26-83.3,47.7-115.7L918.7,161.3z
		 M1075.6,540c-45.4-5.4-86.5-14.6-118.8-28.8c-16.3,4.4-32.6,27.1-44.2,32c9.4,3.3,25.5,21.8,32.1,28.2
		c4.4,4.2,10.9,10.1,19.7,16.6c34.8-22.2,77.3-40.5,115.5-48.1L1075.6,540L1075.6,540z M918.7,918.7
		c-28.3-35.9-50.8-71.5-63.6-104.3c-14.6-8.4-42.2-3.9-53.9-8.6c4.4,9,2.6,33.5,2.7,42.6c0.1,6.1,0.5,14.9,2.2,25.7
		c40.3,8.9,83.3,26,115.7,47.7L918.7,918.7z M540,1075.6c5.4-45.4,14.6-86.5,28.8-118.8c-4.4-16.3-27.1-32.6-32-44.2
		c-3.3,9.4-21.8,25.5-28.2,32.1c-4.2,4.4-10.1,10.9-16.6,19.7c22.2,34.8,40.5,77.3,48.1,115.5L540,1075.6L540,1075.6z M161.3,918.7
		c35.9-28.3,71.5-50.8,104.3-63.6c8.4-14.6,3.9-42.2,8.6-53.9c-9,4.4-33.5,2.6-42.6,2.7c-6.1,0.1-14.9,0.5-25.7,2.2
		c-8.9,40.3-26,83.3-47.7,115.7L161.3,918.7z M4.4,540c45.4,5.4,86.5,14.6,118.8,28.8c16.3-4.4,32.6-27.1,44.2-32
		c-9.4-3.3-25.5-21.8-32.1-28.2c-4.4-4.2-10.9-10.1-19.7-16.6C80.8,514.2,38.3,532.5,0,540H4.4z M161.3,161.3
		c28.3,35.9,50.8,71.5,63.6,104.3c14.6,8.4,42.2,3.9,53.9,8.6c-4.4-9-2.6-33.5-2.7-42.6c-0.1-6.1-0.5-14.9-2.2-25.7
		c-40.3-8.9-83.3-26-115.7-47.7L161.3,161.3z"/>
</g>
<g id="Layer_29">
	<path class="st10" d="M717.4,225.4c-9.2-5.6-17.5-13.5-24.9-23.7c-0.1-1.5-0.1-3.1-0.2-4.7c-0.4-23.6,5.9-43,11.3-55.9
		c-10.8,18.9-21.7,34.2-31.1,46.2c-9.1,0-18.9-3.7-28.9-10.2l0.5-0.7c29.9-30.8,58.5-44.1,73.2-79.5
		C723.3,133.5,706.1,193.4,717.4,225.4L717.4,225.4z M887.9,443c14.7-30.7,69.2-60.9,90.8-90.8c-35.4,14.6-65.1,3.8-108,4.4
		l-0.8,0.2c2.5,11.7,6.8,21.2,13.2,27.6c15.1-1.8,33.6-5,54.7-10.7c-13,5.2-31.2,14.5-47.6,31.5c-1.1,1.2-2.2,2.3-3.2,3.5
		C885,421.1,885.3,432.5,887.9,443L887.9,443z M854.6,717.4c32.1-11.3,92,5.9,128.5,0c-35.4-14.7-48.7-43.3-79.5-73.2l-0.7-0.5
		c-6.5,10-10.2,19.8-10.2,28.9c12,9.4,27.3,20.3,46.2,31.1c-12.9-5.5-32.3-11.8-55.9-11.3c-1.6,0-3.2,0.1-4.7,0.2
		C868,699.9,860.2,708.2,854.6,717.4L854.6,717.4z M637,887.9c30.7,14.7,60.9,69.2,90.8,90.8c-14.6-35.4-3.8-65.1-4.4-108l-0.2-0.8
		c-11.7,2.5-21.2,6.8-27.6,13.2c1.8,15.1,5,33.6,10.7,54.7c-5.2-13-14.5-31.2-31.5-47.6c-1.2-1.1-2.3-2.2-3.5-3.2
		C658.9,885,647.5,885.3,637,887.9L637,887.9z M362.6,854.6c11.3,32.1-5.9,92,0,128.5c14.7-35.4,43.3-48.7,73.2-79.5l0.5-0.7
		c-10-6.5-19.8-10.2-28.9-10.2c-9.4,12-20.3,27.3-31.1,46.2c5.5-12.9,11.8-32.3,11.3-55.9c0-1.6-0.1-3.2-0.2-4.7
		C380.1,868,371.8,860.2,362.6,854.6L362.6,854.6z M192.1,637c-14.7,30.7-69.2,60.9-90.8,90.8c35.4-14.6,65.1-3.8,108-4.4l0.8-0.2
		c-2.5-11.7-6.8-21.2-13.2-27.6c-15.1,1.8-33.6,5-54.7,10.7c13-5.2,31.2-14.5,47.6-31.5c1.1-1.2,2.2-2.3,3.2-3.5
		C195,658.9,194.7,647.5,192.1,637L192.1,637z M225.4,362.6c-32.1,11.3-92-5.9-128.5,0c35.4,14.7,48.7,43.3,79.5,73.2l0.7,0.5
		c6.5-10,10.2-19.8,10.2-28.9c-12-9.4-27.3-20.3-46.2-31.1c12.9,5.5,32.3,11.8,55.9,11.3c1.6,0,3.2-0.1,4.7-0.2
		C212,380.1,219.8,371.8,225.4,362.6L225.4,362.6z M443,192.1c-30.7-14.7-60.9-69.2-90.8-90.8c14.6,35.4,3.8,65.1,4.4,108l0.2,0.8
		c11.7-2.5,21.2-6.8,27.6-13.2c-1.8-15.1-5-33.6-10.7-54.7c5.2,13,14.5,31.2,31.5,47.6c1.2,1.1,2.3,2.2,3.5,3.2
		C421.1,195,432.5,194.7,443,192.1L443,192.1z"/>
</g>
<g id="Layer_30">
	<path class="st11" d="M531,401.5c-1.1-18.8-8.9-32-11.4-37.1c-7.9-16-7.9-44.7,20.4-101c-0.7,10.8-0.9,27.7,2.8,47.6
		c5.8,31,15.9,41.2,15.9,60.6c0,14.2-5.3,35-32.1,60.5C529.1,425,531.7,414.3,531,401.5z M606.8,454.3c37,0.9,55.5-10,65.5-20.1
		c13.7-13.7,13.8-28.1,31.5-54.1c11.5-16.8,23.5-28.5,31.7-35.7c-59.8,19.7-80.1,40-85.8,56.9c-1.9,5.5-5.6,20.3-18.2,34.3
		C623,445.2,613.6,450.9,606.8,454.3z M647.9,526.6c25.6,26.8,46.3,32.2,60.5,32.1c19.4,0,29.6-10.1,60.6-15.9
		c20-3.8,36.8-3.5,47.6-2.8c-56.2-28.3-85-28.3-101-20.4c-5.2,2.6-18.3,10.4-37.1,11.4C665.7,531.7,655,529.1,647.9,526.6z
		 M625.7,606.8c-0.9,37,10,55.5,20.1,65.5c13.7,13.7,28.1,13.8,54.1,31.5c16.8,11.5,28.5,23.5,35.7,31.7
		c-19.7-59.8-40-80.1-56.9-85.8c-5.5-1.9-20.3-5.6-34.3-18.2C634.8,623,629.1,613.6,625.7,606.8z M553.4,647.9
		c-26.8,25.6-32.2,46.3-32.1,60.5c0,19.4,10.1,29.6,15.9,60.6c3.8,20,3.5,36.8,2.8,47.6c28.3-56.2,28.3-85,20.4-101
		c-2.6-5.2-10.4-18.3-11.4-37.1C548.3,665.7,550.9,655,553.4,647.9z M473.2,625.7c-37-0.9-55.5,10-65.5,20.1
		c-13.7,13.7-13.8,28.1-31.5,54.1c-11.5,16.8-23.5,28.5-31.7,35.7c59.8-19.7,80.1-40,85.8-56.9c1.9-5.5,5.6-20.3,18.2-34.3
		C457,634.8,466.4,629.1,473.2,625.7z M432.1,553.4c-25.6-26.8-46.3-32.2-60.5-32.1c-19.4,0-29.6,10.1-60.6,15.9
		c-20,3.8-36.8,3.5-47.6,2.8c56.2,28.3,85,28.3,101,20.4c5.2-2.6,18.3-10.4,37.1-11.4C414.3,548.3,425,550.9,432.1,553.4z
		 M454.3,473.2c0.9-37-10-55.5-20.1-65.5c-13.7-13.7-28.1-13.8-54.1-31.5c-16.8-11.5-28.5-23.5-35.7-31.7
		c19.7,59.8,40,80.1,56.9,85.8c5.5,1.9,20.3,5.6,34.3,18.2C445.2,457,450.9,466.4,454.3,473.2z"/>
</g>
</svg>
