<?xml version="1.0" encoding="utf-8"?>
<!-- Generator: Adobe Illustrator 24.1.0, SVG Export Plug-In . SVG Version: 6.00 Build 0)  -->
<svg version="1.1" id="Layer_1" xmlns="http://www.w3.org/2000/svg" xmlns:xlink="http://www.w3.org/1999/xlink" x="0px" y="0px"
	 viewBox="0 0 1080 1080" style="enable-background:new 0 0 1080 1080;" xml:space="preserve">
<style type="text/css">
	.st0{fill:#A6A6A6;}
	.st1{fill:#999999;}
	.st2{fill:#B3B3B3;}
	.st3{fill:#BFBFBF;}
	.st4{fill:#4A4A4A;}
	.st5{fill:#616161;}
	.st6{fill:#424242;}
	.st7{fill:#919191;}
	.st8{fill:#0D0D0D;}
	.st9{fill:#1A1A1A;}
	.st10{fill:#303030;}
	.st11{fill:#333333;}
	.st12{fill:#404040;}
	.st13{fill:#4D4D4D;}
	.st14{fill:#595959;}
	.st15{fill:#666666;}
	.st16{fill:#737373;}
	.st17{fill:#808080;}
	.st18{fill:#B5B5B5;}
	.st19{fill:#949494;}
</style>
<g id="Layer_20">
	<path class="st0" d="M532.1,259.4c-2,21.7-37.1,25.2-44.9,50.6c-4.3,14.1-0.5,23.4,8.7,40.7c-8.5-11-16.3-22.8-18.2-36.8
		c-2.3-16.5,16.4-35,19.7-39.4c12-15.9,18.9-17.5,20-27c1.3-10-5.6-14.9-19.3-36.2c-9.2-14.3-16.2-25.2-19.7-34.2
		c12,26.6,23.1,32.4,38.5,53.2C527.8,244.8,532.7,252.6,532.1,259.4z M742.4,304.6c3.8-25.6,0-37.5,10.4-64.8
		c-3.9,8.8-6.7,21.5-10.3,38.1c-5.4,24.8-3.9,33.1-11.9,39.3c-7.6,5.9-13.6,2.1-33.3,4.9c-5.5,0.8-31.7,0.7-41.8,13.9
		c-8.6,11.3-11.4,25.1-13.2,38.9c5.6-18.7,9.5-28,22.6-34.9c23.5-12.4,50.8,9.9,67.5-4C737.7,331.5,739.8,322.5,742.4,304.6z
		 M849.2,516.5c20.8-15.4,26.6-26.5,53.2-38.5c-8.9,3.4-19.9,10.5-34.2,19.7C846.9,511.5,842,518.3,832,517c-9.5-1.2-11.1-8.1-27-20
		c-4.4-3.3-22.9-22-39.4-19.7c-14,1.9-25.8,9.7-36.8,18.2c17.2-9.3,26.5-13.1,40.7-8.7c25.4,7.8,28.9,42.9,50.6,44.9
		C826.9,532.2,834.7,527.3,849.2,516.5z M774.9,741.9c25.6,3.8,37.5,0,64.8,10.4c-8.8-3.9-21.5-6.7-38.1-10.3
		c-24.8-5.4-33.1-3.9-39.3-11.9c-5.9-7.6-2.1-13.6-4.9-33.3c-0.8-5.5-0.7-31.7-13.9-41.8c-11.3-8.6-25.1-11.4-38.9-13.2
		c18.7,5.6,28,9.5,34.9,22.6c12.4,23.5-9.9,50.8,4,67.5C748,737.2,757,739.3,774.9,741.9z M563,848.7c15.4,20.8,26.5,26.6,38.5,53.2
		c-3.4-8.9-10.5-19.9-19.7-34.2c-13.8-21.3-20.6-26.2-19.3-36.2c1.2-9.5,8.1-11.1,20-27c3.3-4.4,22-22.9,19.7-39.4
		c-1.9-14-9.7-25.8-18.2-36.8c9.3,17.2,13.1,26.5,8.7,40.7c-7.8,25.4-42.9,28.9-44.9,50.6C547.3,826.4,552.2,834.2,563,848.7z
		 M337.6,774.4c-3.8,25.6,0,37.5-10.4,64.8c3.9-8.8,6.7-21.5,10.3-38.1c5.4-24.8,3.9-33.1,11.9-39.3c7.6-5.9,13.6-2.1,33.3-4.9
		c5.5-0.8,31.7-0.7,41.8-13.9c8.6-11.3,11.4-25.1,13.2-38.9c-5.6,18.7-9.5,28-22.6,34.9c-23.5,12.4-50.8-9.9-67.5,4
		C342.3,747.5,340.2,756.5,337.6,774.4z M230.8,562.5C210,577.9,204.2,589,177.6,601c8.9-3.4,19.9-10.5,34.2-19.7
		c21.3-13.8,26.2-20.6,36.2-19.3c9.5,1.2,11.1,8.1,27,20c4.4,3.3,22.9,22,39.4,19.7c14-1.9,25.8-9.7,36.8-18.2
		c-17.2,9.3-26.5,13.1-40.7,8.7c-25.4-7.8-28.9-42.9-50.6-44.9C253.1,546.8,245.3,551.7,230.8,562.5z M305.1,337.1
		c-25.6-3.8-37.5,0-64.8-10.4c8.8,3.9,21.5,6.7,38.1,10.3c24.8,5.4,33.1,3.9,39.3,11.9c5.9,7.6,2.1,13.6,4.9,33.3
		c0.8,5.5,0.7,31.7,13.9,41.8c11.3,8.6,25.1,11.4,38.9,13.2c-18.7-5.6-28-9.5-34.9-22.6c-12.4-23.5,9.9-50.8-4-67.5
		C332,341.8,323,339.7,305.1,337.1z"/>
</g>
<g id="Layer_19">
	<path class="st1" d="M556,251.1c0,35.4-59.4,37.3-65.9,70.9c-2.1,10.7,1.6,20.5,4.8,26.7c-9.3-17.2-12-24.6-7.7-38.7
		c7.8-25.4,42.9-28.9,44.9-50.6c0.6-6.8-4.3-14.6-15.1-29.1c-15.4-20.8-26.3-26.6-38.3-53.2C500.7,224.5,556,237.6,556,251.1z
		 M752.9,239.9c-10.3,27.3-6.7,39.1-10.5,64.7c-2.6,17.9-4.7,26.9-9.9,31.3c-16.7,13.9-44-8.4-67.5,4c-13.1,6.9-16.3,14.1-21.9,32.8
		c2.1-6.6,6.4-16.2,15.4-22.3c28.4-19.2,71.8,21.5,96.8-3.5C764.8,337.3,734.9,289,752.9,239.9z M902.4,478.2
		c-26.6,12-32.5,22.9-53.2,38.3c-14.5,10.8-22.3,15.7-29.1,15.1c-21.7-2-25.2-37.1-50.6-44.9c-14.1-4.3-21.5-1.6-38.7,7.7
		c6.2-3.2,16-6.9,26.7-4.8c33.7,6.6,35.5,65.9,70.9,65.9C841.9,555.5,855,500.2,902.4,478.2z M839.6,752.4
		c-27.3-10.3-39.1-6.7-64.7-10.5c-17.9-2.6-26.9-4.7-31.3-9.9c-13.9-16.7,8.4-44-4-67.5c-6.9-13.1-14.1-16.3-32.8-21.9
		c6.6,2.1,16.2,6.4,22.3,15.4c19.2,28.4-21.5,71.8,3.5,96.8C742.2,764.3,790.5,734.4,839.6,752.4z M601.3,901.9
		c-12-26.6-22.9-32.5-38.3-53.2c-10.8-14.5-15.7-22.3-15.1-29.1c2-21.7,37.1-25.2,44.9-50.6c4.3-14.1,1.6-21.5-7.7-38.7
		c3.2,6.2,6.9,16,4.8,26.7c-6.6,33.7-65.9,35.5-65.9,70.9C524,841.4,579.3,854.5,601.3,901.9z M327.1,839.1
		c10.3-27.3,6.7-39.1,10.5-64.7c2.6-17.9,4.7-26.9,9.9-31.3c16.7-13.9,44,8.4,67.5-4c13.1-6.9,16.3-14.1,21.9-32.8
		c-2.1,6.6-6.4,16.2-15.4,22.3c-28.4,19.2-71.8-21.5-96.8,3.5C315.2,741.7,345.1,790,327.1,839.1z M177.6,600.8
		c26.6-12,32.5-22.9,53.2-38.3c14.5-10.8,22.3-15.7,29.1-15.1c21.7,2,25.2,37.1,50.6,44.9c14.1,4.3,21.5,1.6,38.7-7.7
		c-6.2,3.2-16,6.9-26.7,4.8c-33.7-6.6-35.5-65.9-70.9-65.9C238.1,523.5,225,578.8,177.6,600.8z M240.4,326.6
		c27.3,10.3,39.1,6.7,64.7,10.5c17.9,2.6,26.9,4.7,31.3,9.9c13.9,16.7-8.4,44,4,67.5c6.9,13.1,14.1,16.3,32.8,21.9
		c-6.6-2.1-16.2-6.4-22.3-15.4c-19.2-28.4,21.5-71.8-3.5-96.8C337.8,314.7,289.5,344.6,240.4,326.6z"/>
</g>
<g id="Layer_18">
	<path class="st2" d="M635.5,41.9C616.5,31,540.1-12.2,517,7.6c-27.5,23.6-10.3,44.9-1.7,84.7c4.2,19.5,5,31.2-2.3,42.3
		c2.3-1.9,4.3-3.8,6.1-5.9l0,0c13-19.7,5.3-70.7,16.7-85.2c16.9-21.6,63.3-20.8,100.9-0.6C636.4,42.5,635.9,42.2,635.5,41.9z
		 M959.7,256.7c-12.4-40.8-44.6-74.2-71.8-70.9c-18.3,2.2-49,43.7-72.1,48.5l0,0c-2.7,0.2-5.6,0.1-8.5-0.2
		c12.9-2.7,20.7-11.5,31.5-28.3c22-34.2,24.9-61.5,61-58.7c30.3,2.3,53.8,86.8,59.5,108C959.5,255.7,959.6,256.2,959.7,256.7z
		 M1036.7,636.4c20.1-37.6,20.9-84-0.6-100.9c-14.5-11.3-65.6-3.7-85.2-16.7l0,0c-2.1-1.8-4-3.8-5.9-6.1c11,7.2,22.7,6.5,42.3,2.3
		c39.8-8.6,61.1-25.8,84.7,1.7c19.8,23.1-23.4,99.4-34.3,118.4C1037.3,635.4,1037,635.9,1036.7,636.4z M822.8,959.2
		c40.8-12.4,74.2-44.6,70.9-71.8c-2.2-18.3-43.7-49-48.5-72.1l0,0c-0.2-2.7-0.1-5.6,0.2-8.5c2.7,12.9,11.5,20.7,28.3,31.5
		c34.2,22,61.5,24.9,58.7,61c-2.3,30.3-86.8,53.8-108,59.5C823.8,959,823.3,959.1,822.8,959.2z M443.1,1036.2
		c37.6,20.1,84,20.9,100.9-0.6c11.3-14.5,3.7-65.6,16.7-85.2l0,0c1.8-2.1,3.8-4,6.1-5.9c-7.2,11-6.5,22.7-2.3,42.3
		c8.6,39.8,25.8,61.1-1.7,84.7c-23.1,19.8-99.4-23.4-118.4-34.3C444.1,1036.8,443.6,1036.5,443.1,1036.2z M120.3,822.3
		c12.4,40.8,44.6,74.2,71.8,70.9c18.3-2.2,49-43.7,72.1-48.5l0,0c2.7-0.2,5.6-0.1,8.5,0.2c-12.9,2.7-20.7,11.5-31.5,28.3
		c-22,34.2-24.9,61.5-61,58.7c-30.3-2.3-53.8-86.8-59.5-108C120.5,823.3,120.4,822.8,120.3,822.3z M43.3,442.6
		c-20.1,37.6-20.9,84,0.6,100.9c14.5,11.3,65.6,3.7,85.2,16.7l0,0c2.1,1.8,4,3.8,5.9,6.1c-11-7.2-22.7-6.5-42.3-2.3
		c-39.7,8.7-61,26-84.6-1.5C-11.7,539.4,31.5,463,42.4,444C42.7,443.6,43,443.1,43.3,442.6z M257.2,119.8
		c-40.8,12.4-74.2,44.6-70.9,71.8c2.2,18.3,43.7,49,48.5,72.1l0,0c0.2,2.7,0.1,5.6-0.2,8.5c-2.7-12.9-11.5-20.7-28.3-31.5
		c-34.2-22-61.5-24.9-58.7-61c2.3-30.3,86.8-53.8,108-59.5C256.2,120,256.7,119.9,257.2,119.8z"/>
</g>
<g id="Layer_17">
	<path class="st3" d="M756.8,141.3c-20.3-12.9-36.9-20.5-50.3-24.5c-24.3-7.4-38.1-3-44.7,2c-5.4,4.1-8.8,8.7-10.7,13.6
		c-7.4,18.6,5.4,41.1,2,55.7c-0.3,1.3-0.7,2.5-1.1,3.7c-5,14.9-17,20.7-29.2,25.9c-11.7,5-23.5,9.5-29.3,21.1
		c-16.4,32.6,9.5,50.7,0,67.6c-0.9,1.6-1.9,3.1-2.9,4.4c-9.8,12.9-23,10.4-33.2,27.2c-1.2,2-2.2,4.1-3,6.2
		c-6.5,17.6,1.8,36.8,0.5,50.8c-0.2,1.9-0.5,3.8-1.2,5.5c-4.9,13.4-15.5,22.8-23.5,33.9c-4.5,6.2-8.1,12.9-9.6,21.2
		c-3,17.1-6.3,42.7,19.1,83.8c-17.1-18.7-36.3-46.3-34.8-78.9c1.4-31,20.2-38.7,16.9-65.5c-2-16.1-14.8-29.6-26.2-44.4
		c-3.2-6.2-8-17.9-5.9-28.6c6.6-33.7,65.9-35.5,65.9-70.9c0-13.6-55.5-26.6-77.5-74c-2.6-6.7-3.1-12.2-1.2-17.1
		c5.5-13.7,25-9,35.8-25.4c2-2,3.7-3.7,6.1-5.9l0,0c14.8-16.8,15.7-39.4,22.9-55.8c6.4-14.6,17.4-23.3,34.2-29.3
		c27-9.6,67.1,3.5,71.2,5.7C679.2,68.7,718,97.8,756.8,141.3z M962.8,268.9c-1.3-4.5-20.4-42.1-46.3-54.4
		c-16.2-7.7-30.1-9.3-44.9-3.5c-16.7,6.5-33.4,21.9-55.7,23.3l0,0c-3.2-0.2-5.7-0.2-8.5-0.2c-19.3,4-29.7-13.2-43.3-7.4
		c-4.9,2.1-8.4,6.4-11.3,13c-18,49.1,12,97.6,2.4,107.1c-25,25-68.3-15.6-96.8,3.5c-9,6.1-14,17.8-16.1,24.4
		c-2.4,18.6-2.9,37.2-12.9,49.9c-16.7,21.3-35.4,13.5-58.3,34.4c-24.1,22-30.1,55-31.2,80.4c11.1-47,31.5-62.9,45.7-72.8
		c6.9-4.8,14.2-7,21.8-8.2c13.6-2.2,27.7-1.4,40.6-7.4c1.6-0.8,3.2-1.8,4.7-3c10.8-8.9,18.6-28.4,35.6-36.2c2-0.9,4.2-1.7,6.5-2.3
		c19.1-4.7,26.6,6.3,42.7,4.2c1.6-0.2,3.3-0.6,5.1-1.1c18.6-5.3,13.2-36.4,47.8-47.8c12.3-4.1,23.8,1.1,35.6,5.8
		c12.3,4.9,24.8,9.3,38.9,2.3c1.1-0.6,2.3-1.2,3.4-1.9c12.8-7.9,19.7-32.9,38-40.8c4.8-2.1,10.5-3,17.2-2.1c8.2,1.1,21,7.7,33,30.2
		c6.6,12.3,13,29.4,18.2,52.9C978.2,353,971.3,305,962.8,268.9z M1030.3,647.1c2.2-4.1,15.3-44.2,5.7-71.2
		c-6-16.9-14.7-27.9-29.3-34.2c-16.4-7.2-39.1-8.1-55.8-22.9l0,0c-2.2-2.4-3.9-4.1-5.9-6.1c-16.5-10.8-11.7-30.3-25.4-35.8
		c-5-2-10.5-1.4-17.1,1.2c-47.4,22-60.5,77.5-74,77.5c-35.4,0-37.3-59.4-70.9-65.9c-10.7-2.1-22.4,2.7-28.6,5.9
		c-14.8,11.4-28.3,24.3-44.4,26.2c-26.9,3.3-34.6-15.5-65.5-16.9c-32.6-1.5-60.2,17.6-78.9,34.8c41.1-25.4,66.7-22.2,83.8-19.1
		c8.3,1.5,15,5.1,21.2,9.6c11.2,8,20.5,18.6,33.9,23.5c1.7,0.6,3.5,1,5.5,1.2c14,1.4,33.2-7,50.8-0.5c2.1,0.8,4.2,1.8,6.2,3
		c16.8,10.2,14.3,23.3,27.2,33.2c1.3,1,2.7,1.9,4.4,2.9c16.9,9.5,35-16.4,67.6,0c11.6,5.8,16.1,17.6,21.1,29.3
		c5.2,12.1,11,24.2,25.9,29.2c1.2,0.4,2.4,0.8,3.7,1.1c14.6,3.4,37.2-9.4,55.7-2c4.9,1.9,9.5,5.3,13.6,10.7c5,6.6,9.4,20.3,2,44.7
		c-4,13.4-11.6,29.9-24.5,50.3C981.7,717.5,1010.8,678.7,1030.3,647.1z M810.6,962.3c4.5-1.3,42.1-20.4,54.4-46.3
		c7.7-16.2,9.3-30.1,3.5-44.9c-6.5-16.7-21.9-33.4-23.3-55.7l0,0c0.2-3.2,0.2-5.7,0.2-8.5c-4-19.3,13.2-29.7,7.4-43.3
		c-2.1-4.9-6.4-8.4-13-11.3c-49.1-18-97.6,12-107.1,2.4c-25-25,15.6-68.3-3.5-96.8c-6.1-9-17.8-14-24.4-16.1
		c-18.6-2.4-37.2-2.9-49.9-12.9c-21.3-16.7-13.5-35.4-34.4-58.3c-22-24.1-55-30.1-80.4-31.2c47,11.1,62.9,31.5,72.8,45.7
		c4.8,6.9,7,14.2,8.2,21.8c2.2,13.6,1.4,27.7,7.4,40.6c0.8,1.6,1.8,3.2,3,4.7c8.9,10.8,28.4,18.6,36.2,35.6c0.9,2,1.7,4.2,2.3,6.5
		c4.7,19.1-6.3,26.6-4.2,42.7c0.2,1.6,0.6,3.3,1.1,5.1c5.3,18.6,36.4,13.2,47.8,47.8c4.1,12.3-1.1,23.8-5.8,35.6
		c-4.9,12.3-9.3,24.8-2.3,38.9c0.6,1.1,1.2,2.3,1.9,3.4c7.9,12.8,32.9,19.7,40.8,38c2.1,4.8,3,10.5,2.1,17.2
		c-1.1,8.2-7.7,21-30.2,33c-12.3,6.6-29.4,13-52.9,18.2C726.5,977.7,774.5,970.8,810.6,962.3z M432.4,1029.8
		c4.1,2.2,44.2,15.3,71.2,5.7c16.9-6,27.9-14.7,34.2-29.3c7.2-16.4,8.1-39.1,22.9-55.8l0,0c2.4-2.2,4.1-3.9,6.1-5.9
		c10.8-16.5,30.3-11.7,35.8-25.4c2-5,1.4-10.5-1.2-17.1c-22-47.4-77.5-60.5-77.5-74c0-35.4,59.4-37.3,65.9-70.9
		c2.1-10.7-2.7-22.4-5.9-28.6c-11.4-14.8-24.3-28.3-26.2-44.4c-3.3-26.9,15.5-34.6,16.9-65.5c1.5-32.6-17.6-60.2-34.8-78.9
		c25.4,41.1,22.2,66.7,19.1,83.8c-1.5,8.3-5.1,15-9.6,21.2c-8,11.2-18.6,20.5-23.5,33.9c-0.6,1.7-1,3.5-1.2,5.5
		c-1.4,14,7,33.2,0.5,50.8c-0.8,2.1-1.8,4.2-3,6.2c-10.2,16.8-23.3,14.3-33.2,27.2c-1,1.3-1.9,2.7-2.9,4.4c-9.5,16.9,16.4,35,0,67.6
		c-5.8,11.6-17.6,16.1-29.3,21.1c-12.1,5.2-24.2,11-29.2,25.9c-0.4,1.2-0.8,2.4-1.1,3.7c-3.4,14.6,9.4,37.2,2,55.7
		c-1.9,4.9-5.3,9.5-10.7,13.6c-6.6,5-20.3,9.4-44.7,2c-13.4-4-29.9-11.6-50.3-24.5C362,981.2,400.8,1010.3,432.4,1029.8z
		 M117.2,810.1c1.3,4.5,20.4,42.1,46.3,54.4c16.2,7.7,30.1,9.3,44.9,3.5c16.7-6.5,33.4-21.9,55.7-23.3l0,0c3.2,0.2,5.7,0.2,8.5,0.2
		c19.3-4,29.7,13.2,43.3,7.4c4.9-2.1,8.4-6.4,11.3-13c18-49.1-12-97.6-2.4-107.1c25-25,68.3,15.6,96.8-3.5c9-6.1,14-17.8,16.1-24.4
		c2.4-18.6,2.9-37.2,12.9-49.9c16.7-21.3,35.4-13.5,58.3-34.4c24.1-22,30.1-55,31.2-80.4c-11.1,47-31.5,62.9-45.7,72.8
		c-6.9,4.8-14.2,7-21.8,8.2c-13.6,2.2-27.7,1.4-40.6,7.4c-1.6,0.8-3.2,1.8-4.7,3c-10.8,8.9-18.6,28.4-35.6,36.2
		c-2,0.9-4.2,1.7-6.5,2.3c-19.1,4.7-26.6-6.3-42.7-4.2c-1.6,0.2-3.3,0.6-5.1,1.1c-18.6,5.3-13.2,36.4-47.8,47.8
		c-12.3,4.1-23.8-1.1-35.6-5.8c-12.3-4.9-24.8-9.3-38.9-2.3c-1.1,0.6-2.3,1.2-3.4,1.9c-12.8,7.9-19.7,32.9-38,40.8
		c-4.8,2.1-10.5,3-17.2,2.1c-8.2-1.1-21-7.7-33-30.2c-6.6-12.3-13-29.4-18.2-52.9C101.8,726,108.7,774,117.2,810.1z M49.7,431.9
		c-2.2,4.1-15.3,44.2-5.7,71.2c6,16.9,14.7,27.9,29.3,34.2c16.4,7.2,39.1,8.1,55.8,22.9l0,0c2.2,2.4,3.9,4.1,5.9,6.1
		c16.5,10.8,11.7,30.3,25.4,35.8c5,2,10.5,1.4,17.1-1.2c47.4-22,60.5-77.5,74-77.5c35.4,0,37.3,59.4,70.9,65.9
		c10.7,2.1,22.4-2.7,28.6-5.9c14.8-11.4,28.3-24.3,44.4-26.2c26.9-3.3,34.6,15.5,65.5,16.9c32.6,1.5,60.2-17.6,78.9-34.8
		c-41.1,25.4-66.7,22.2-83.8,19.1c-8.3-1.5-15-5.1-21.2-9.6c-11.2-8-20.5-18.6-33.9-23.5c-1.7-0.6-3.5-1-5.5-1.2
		c-14-1.4-33.2,7-50.8,0.5c-2.1-0.8-4.2-1.8-6.2-3c-16.8-10.2-14.3-23.3-27.2-33.2c-1.3-1-2.7-1.9-4.4-2.9c-16.9-9.5-35,16.4-67.6,0
		c-11.6-5.8-16.1-17.6-21.1-29.3c-5.2-12.1-11-24.2-25.9-29.2c-1.2-0.4-2.4-0.8-3.7-1.1c-14.6-3.4-37.2,9.4-55.7,2
		c-4.9-1.9-9.5-5.3-13.6-10.7c-5-6.6-9.4-20.3-2-44.7c4-13.4,11.6-29.9,24.5-50.3C98.3,361.5,69.2,400.3,49.7,431.9z M269.4,116.7
		c-4.5,1.3-42.1,20.4-54.4,46.3c-7.7,16.2-9.3,30.1-3.5,44.9c6.5,16.7,21.9,33.4,23.3,55.7l0,0c-0.2,3.2-0.2,5.7-0.2,8.5
		c4,19.3-13.2,29.7-7.4,43.3c2.1,4.9,6.4,8.4,13,11.3c49.1,18,97.6-12,107.1-2.4c25,25-15.6,68.3,3.5,96.8c6.1,9,17.8,14,24.4,16.1
		c18.6,2.4,37.2,2.9,49.9,12.9c21.3,16.7,13.5,35.4,34.4,58.3c22,24.1,55,30.1,80.4,31.2c-47-11.1-62.9-31.5-72.8-45.7
		c-4.8-6.9-7-14.2-8.2-21.8c-2.2-13.6-1.4-27.7-7.4-40.6c-0.8-1.6-1.8-3.2-3-4.7c-8.9-10.8-28.4-18.6-36.2-35.6
		c-0.9-2-1.7-4.2-2.3-6.5c-4.7-19.1,6.3-26.6,4.2-42.7c-0.2-1.6-0.6-3.3-1.1-5.1c-5.3-18.6-36.4-13.2-47.8-47.8
		c-4.1-12.3,1.1-23.8,5.8-35.6c4.9-12.3,9.3-24.8,2.3-38.9c-0.6-1.1-1.2-2.3-1.9-3.4c-7.9-12.8-32.9-19.7-40.8-38
		c-2.1-4.8-3-10.5-2.1-17.2c1.1-8.2,7.7-21,30.2-33c12.3-6.6,29.4-13,52.9-18.2C353.5,101.3,305.5,108.2,269.4,116.7z"/>
</g>
<g id="Layer_16">
	<path class="st4" d="M669.9,288.7c-10.8,10.4-22.8,23.5-34.6,39.6c-10.9,14.8-19.3,29-25.7,41.5c-15-11.3-17.5-27.7-17.9-30.8
		c16.2-13.5,36.3-16.7,39.6-34c2-10.7-5.4-16.7-9.9-24.8l0,0c2.1-0.7,25.5-8.4,46,6.6C668.3,287.5,669.1,288.1,669.9,288.7z
		 M808.8,450.9c-3.9-25.2-25.9-36.3-27.9-37.2l0,0c-2.6,8.9-1.5,18.4-10.5,24.5c-14.6,9.9-31.1-2.1-52.1-4
		c-1.9,2.5-11.7,15.8-9.1,34.4c13.4-4.3,29.3-8.4,47.5-11.2c19.8-3,37.5-3.8,52.5-3.5C809,453,808.9,452,808.8,450.9z M792.7,666.9
		c15-20.6,7.3-43.9,6.6-46l0,0c-8.1,4.4-14.1,11.9-24.8,9.9c-17.4-3.3-20.5-23.5-34-39.6c-3.1,0.4-19.5,2.9-30.8,17.9
		c12.5,6.4,26.7,14.8,41.5,25.7c16.1,11.8,29.2,23.9,39.6,34.6C791.4,668.6,792,667.8,792.7,666.9z M628.6,808.3
		c25.2-3.9,36.3-25.9,37.2-27.9l0,0c-8.9-2.6-18.4-1.5-24.5-10.5c-9.9-14.6,2.1-31.1,4-52.1c-2.5-1.9-15.8-11.7-34.4-9.1
		c4.3,13.4,8.4,29.3,11.2,47.5c3,19.8,3.8,37.5,3.5,52.5C626.5,808.5,627.5,808.4,628.6,808.3z M412.6,792.2
		c20.6,15,43.9,7.3,46,6.6l0,0c-4.4-8.1-11.9-14.1-9.9-24.8c3.3-17.4,23.5-20.5,39.6-34c-0.4-3.1-2.9-19.5-17.9-30.8
		c-6.4,12.5-14.8,26.7-25.7,41.5c-11.8,16.1-23.9,29.2-34.6,39.6C410.9,790.9,411.7,791.5,412.6,792.2z M271.2,628.1
		c3.9,25.2,25.9,36.3,27.9,37.2l0,0c2.6-8.9,1.5-18.4,10.5-24.5c14.6-9.9,31.1,2.1,52.1,4c1.9-2.5,11.7-15.8,9.1-34.4
		c-13.4,4.3-29.3,8.4-47.5,11.2c-19.8,3-37.5,3.8-52.5,3.5C271,626,271.1,627,271.2,628.1z M287.3,412.1c-15,20.6-7.3,43.9-6.6,46
		l0,0c8.1-4.4,14.1-11.9,24.8-9.9c17.4,3.3,20.5,23.5,34,39.6c3.1-0.4,19.5-2.9,30.8-17.9c-12.5-6.4-26.7-14.8-41.5-25.7
		c-16.1-11.8-29.2-23.9-39.6-34.6C288.6,410.4,288,411.2,287.3,412.1z M451.4,270.7c-25.2,3.9-36.3,25.9-37.2,27.9l0,0
		c8.9,2.6,18.4,1.5,24.5,10.5c9.9,14.6-2.1,31.1-4,52.1c2.5,1.9,15.8,11.7,34.4,9.1c-4.3-13.4-8.4-29.3-11.2-47.5
		c-3-19.8-3.8-37.5-3.5-52.5C453.5,270.5,452.5,270.6,451.4,270.7z M495.2,349.5c-0.1-0.2-0.3-0.5-0.4-0.8 M495.2,349.5
		c-0.1-0.2-0.3-0.5-0.4-0.8 M706.3,134L706.3,134 M554.6,344.3L554.6,344.3 M642.7,373.5c0.1-0.3,0.2-0.6,0.2-0.8 M642.7,373.5
		c0.1-0.3,0.2-0.6,0.2-0.8 M944.3,370.4L944.3,370.4 M688.4,411.8L688.4,411.8 M730,494.8c0.2-0.1,0.5-0.3,0.8-0.4 M730,494.8
		c0.2-0.1,0.5-0.3,0.8-0.4 M945.5,705.8L945.5,705.8 M735.2,554.1L735.2,554.1 M706,642.2c0.3,0.1,0.6,0.2,0.8,0.2 M706,642.2
		c0.3,0.1,0.6,0.2,0.8,0.2 M709.1,943.8L709.1,943.8 M667.7,687.9L667.7,687.9 M584.8,729.5c0.1,0.2,0.3,0.5,0.4,0.8 M584.8,729.5
		c0.1,0.2,0.3,0.5,0.4,0.8 M373.7,945L373.7,945 M525.4,734.7L525.4,734.7 M437.3,705.5c-0.1,0.3-0.2,0.6-0.2,0.8 M437.3,705.5
		c-0.1,0.3-0.2,0.6-0.2,0.8 M135.7,708.6L135.7,708.6 M391.6,667.2L391.6,667.2 M350,584.2c-0.2,0.1-0.5,0.3-0.8,0.4 M350,584.2
		c-0.2,0.1-0.5,0.3-0.8,0.4 M134.5,373.2L134.5,373.2 M344.8,524.9L344.8,524.9 M374,436.8c-0.3-0.1-0.6-0.2-0.8-0.2 M374,436.8
		c-0.3-0.1-0.6-0.2-0.8-0.2 M370.9,135.2L370.9,135.2 M412.3,391.1L412.3,391.1"/>
</g>
<g id="Layer_15">
	<path class="st5" d="M643.9,112.9c0,0-2.8-12.6-11.1-12.8c-8.3-0.3-19.1,11.1-25.9,7.7s-4-18.5-10.3-23.9s-12.5,2.8-18.8-1.1
		s-5.4-25.4-5.4-25.4s6,11.1,12.5,11.7s10.8-5.7,14.8-4.6c4,1.1,2,18.2,7.1,20.2s23.6-4,31,2.6C645.3,93.8,643.9,112.9,643.9,112.9z
		 M929,288.9c-0.7-9.9-17.9-18.7-20.1-23.8c-2.2-5,11.3-15.7,9.3-19.3s-9.5-2.2-13.7-7.3c-4.2-5-0.6-17.1-0.6-17.1
		s-15.7,14.5-14.1,21.8c1.6,7.3,11.9,5.8,12.5,14.1s-12.1,16.9-9.7,24.2c2.4,7.3,18.1,6.9,23.8,12.9c5.6,6-1.2,16.9-1.2,16.9
		S929.6,298.8,929,288.9z M992.2,637.3c6.5-7.5,0.6-25.9,2.6-31s19.1-3.1,20.2-7.1s-5.1-8.3-4.6-14.8c0.6-6.6,11.7-12.5,11.7-12.5
		s-21.4-0.9-25.4,5.4s4.3,12.5-1.1,18.8c-5.4,6.3-20.5,3.4-23.9,10.3s8,17.7,7.7,25.9c-0.3,8.3-12.8,11.1-12.8,11.1
		S985.7,644.8,992.2,637.3z M790.6,928.5c9.9-0.7,18.7-17.9,23.8-20.1c5-2.2,15.7,11.3,19.3,9.3s2.2-9.5,7.3-13.7
		c5-4.2,17.1-0.6,17.1-0.6s-14.5-15.7-21.8-14.1c-7.3,1.6-5.8,11.9-14.1,12.5s-16.9-12.1-24.2-9.7c-7.3,2.4-6.9,18.1-12.9,23.8
		c-6,5.6-16.9-1.2-16.9-1.2S780.7,929.1,790.6,928.5z M442.2,991.7c7.5,6.5,25.9,0.6,31,2.6s3.1,19.1,7.1,20.2s8.3-5.1,14.8-4.6
		c6.6,0.6,12.5,11.7,12.5,11.7s0.9-21.4-5.4-25.4s-12.5,4.3-18.8-1.1c-6.3-5.4-3.4-20.5-10.3-23.9s-17.7,8-25.9,7.7
		c-8.3-0.3-11.1-12.8-11.1-12.8S434.7,985.2,442.2,991.7z M151,790.1c0.7,9.9,17.9,18.7,20.1,23.8c2.2,5-11.3,15.7-9.3,19.3
		s9.5,2.2,13.7,7.3c4.2,5,0.6,17.1,0.6,17.1s15.7-14.5,14.1-21.8c-1.6-7.3-11.9-5.8-12.5-14.1s12.1-16.9,9.7-24.2
		c-2.4-7.3-18.1-6.9-23.8-12.9c-5.6-6,1.2-16.9,1.2-16.9S150.4,780.2,151,790.1z M87.8,441.7c-6.5,7.5-0.6,25.9-2.6,31
		s-19.1,3.1-20.2,7.1s5.1,8.3,4.6,14.8c-0.6,6.6-11.7,12.5-11.7,12.5s21.4,0.9,25.4-5.4s-4.3-12.5,1.1-18.8s20.5-3.4,23.9-10.3
		s-8-17.7-7.7-25.9c0.3-8.3,12.8-11.1,12.8-11.1S94.3,434.2,87.8,441.7z M289.4,150.5c-9.9,0.7-18.7,17.9-23.8,20.1
		c-5,2.2-15.7-11.3-19.3-9.3s-2.2,9.5-7.3,13.7c-5,4.2-17.1,0.6-17.1,0.6s14.5,15.7,21.8,14.1c7.3-1.6,5.8-11.9,14.1-12.5
		s16.9,12.1,24.2,9.7c7.3-2.4,6.9-18.1,12.9-23.8c6-5.6,16.9,1.2,16.9,1.2S299.3,149.9,289.4,150.5z"/>
</g>
<g id="Layer_14">
	<path class="st6" d="M543,121.7c0.3-7.8,1.8-21,8.5-35.6c6.5-14.1,15.2-23.5,20.8-28.8l0,0c0,0-0.9,21.4,5.4,25.4
		s12.5-4.3,18.8,1.1s3.4,20.5,10.3,23.9s17.7-8,25.9-7.7c8.3,0.3,11.1,12.8,11.1,12.8l0,0c-9.1,8.6-13.2,16.9-15.1,22.2
		c-3.3,8.9-4.2,17-3.2,33.1c0.6,9.5,0.3,9.5-0.8,16.7l0,0c0,0,2.3-25.9-11.4-27.4c-13.7-1.4-13.4,4-19.1,2.3
		c-5.7-1.7-7.7-25.9-15.4-26.8c-7.7-0.8-12,10.5-18.8,10C553.3,142.5,543.3,122.4,543,121.7 M837.5,246.2c-0.2,0.7-7.4,22-3,27.2
		c4.4,5.2,15.5,0.2,20.4,6.2c4.8,6.1-10.9,24.6-8.1,29.8c2.8,5.2,6.4,1.2,15.1,11.9c8.7,10.7-11.3,27.4-11.3,27.4l0,0
		c5.9-4.4,6.1-4.2,12.4-11.3c10.7-12.1,17.1-17.2,25.7-21.2c5.1-2.4,13.9-5.4,26.4-5l0,0c0,0,6.9-10.9,1.2-16.9
		c-5.6-6.1-21.4-5.6-23.8-12.9c-2.4-7.3,10.3-15.9,9.7-24.2c-0.6-8.3-10.9-6.9-12.5-14.1c-1.6-7.3,14.1-21.8,14.1-21.8l0,0
		c-7.7-0.3-20.5,0.3-35.1,5.6C853.6,232.6,843.3,240.9,837.5,246.2 M957.8,542.5c-0.6,0.3-20.8,10.4-21.4,17.1
		c-0.6,6.8,10.8,11.1,10,18.8c-0.9,7.7-25.1,9.7-26.8,15.4s3.7,5.4,2.3,19.1c-1.4,13.7-27.4,11.4-27.4,11.4l0,0
		c7.3,1.1,7.2,1.3,16.7,0.8c16.1-1,24.3,0,33.1,3.2c5.3,1.9,13.6,6,22.2,15.1l0,0c0,0,12.6-2.8,12.8-11.1
		c0.3-8.3-11.1-19.1-7.7-25.9s18.5-4,23.9-10.3s-2.8-12.5,1.1-18.8s25.4-5.4,25.4-5.4l0,0c-5.3-5.7-14.7-14.3-28.8-20.8
		C978.8,544.3,965.6,542.8,957.8,542.5 M833.3,837c-0.7-0.2-22-7.4-27.2-3s-0.2,15.5-6.2,20.4c-6.1,4.8-24.6-10.9-29.8-8.1
		c-5.2,2.8-1.2,6.4-11.9,15.1c-10.7,8.7-27.4-11.3-27.4-11.3l0,0c4.4,5.9,4.2,6.1,11.3,12.4c12.1,10.7,17.2,17.1,21.2,25.7
		c2.4,5.1,5.4,13.9,5,26.4l0,0c0,0,10.9,6.9,16.9,1.2c6.1-5.6,5.6-21.4,12.9-23.8c7.3-2.4,15.9,10.3,24.2,9.7s6.9-10.9,14.1-12.5
		c7.3-1.6,21.8,14.1,21.8,14.1l0,0c0.3-7.7-0.3-20.5-5.6-35.1C846.9,853.1,838.6,842.8,833.3,837 M537,957.3
		c-0.3-0.6-10.4-20.8-17.1-21.4c-6.8-0.6-11.1,10.8-18.8,10c-7.7-0.9-9.7-25.1-15.4-26.8c-5.7-1.7-5.4,3.7-19.1,2.3
		S455.2,894,455.2,894l0,0c-1.1,7.3-1.3,7.2-0.8,16.7c1,16.1,0,24.3-3.2,33.1c-1.9,5.3-6,13.6-15.1,22.2l0,0c0,0,2.8,12.6,11.1,12.8
		c8.3,0.3,19.1-11.1,25.9-7.7s4,18.5,10.3,23.9s12.5-2.8,18.8,1.1s5.4,25.4,5.4,25.4l0,0c5.7-5.3,14.3-14.7,20.8-28.8
		C535.2,978.3,536.7,965.1,537,957.3 M242.5,832.8c0.2-0.7,7.4-22,3-27.2s-15.5-0.2-20.4-6.2c-4.8-6.1,10.9-24.6,8.1-29.8
		c-2.8-5.2-6.4-1.2-15.1-11.9c-8.7-10.7,11.3-27.4,11.3-27.4l0,0c-5.9,4.4-6.1,4.2-12.4,11.3c-10.7,12.1-17.1,17.2-25.7,21.2
		c-5.1,2.4-13.9,5.4-26.4,5l0,0c0,0-6.9,10.9-1.2,16.9c5.6,6.1,21.4,5.6,23.8,12.9c2.4,7.3-10.3,15.9-9.7,24.2s10.9,6.9,12.5,14.1
		c1.6,7.3-14.1,21.8-14.1,21.8l0,0c7.7,0.3,20.5-0.3,35.1-5.6C226.4,846.4,236.7,838.1,242.5,832.8 M122.2,536.5
		c0.6-0.3,20.8-10.4,21.4-17.1c0.6-6.8-10.8-11.1-10-18.8c0.9-7.7,25.1-9.7,26.8-15.4c1.7-5.7-3.7-5.4-2.3-19.1s27.4-11.4,27.4-11.4
		l0,0c-7.3-1.1-7.2-1.3-16.7-0.8c-16.1,1-24.3,0-33.1-3.2c-5.3-1.9-13.6-6-22.2-15.1l0,0c0,0-12.6,2.8-12.8,11.1
		c-0.3,8.3,11.1,19.1,7.7,25.9s-18.5,4-23.9,10.3s2.8,12.5-1.1,18.8S58,507.1,58,507.1l0,0c5.3,5.7,14.7,14.3,28.8,20.8
		C101.2,534.7,114.4,536.2,122.2,536.5 M246.7,242c0.7,0.2,22,7.4,27.2,3c5.2-4.4,0.2-15.5,6.2-20.4c6.1-4.8,24.6,10.9,29.8,8.1
		c5.2-2.8,1.2-6.4,11.9-15.1c10.7-8.7,27.4,11.3,27.4,11.3l0,0c-4.4-5.9-4.2-6.1-11.3-12.4c-12.1-10.7-17.2-17.1-21.2-25.7
		c-2.4-5.1-5.4-13.9-5-26.4l0,0c0,0-10.9-6.9-16.9-1.2c-6.1,5.6-5.6,21.4-12.9,23.8c-7.3,2.4-15.9-10.3-24.2-9.7
		c-8.3,0.6-6.9,10.9-14.1,12.5c-7.3,1.6-21.8-14.1-21.8-14.1l0,0c-0.3,7.7,0.3,20.5,5.6,35.1C233.1,225.9,241.4,236.2,246.7,242"/>
</g>
<g id="Layer_13">
	<path class="st7" d="M624.8,185c0,0-8-13.4-12-13.4s-13.4,9.4-22.5,8.8c-9.1-0.6-14.5-26.2-18-27.6c-3.5-1.4-9.6,4-16.3,2.3
		c-6.6-1.7-12.8-32.4-13-33.3c0.3,0.6,10.4,20.8,17.1,21.4c6.8,0.6,11.1-10.8,18.8-10c7.7,0.9,9.7,25.1,15.4,26.8s5.4-3.7,19.1-2.3
		C627,159.1,624.8,185,624.8,185z M861.9,321.4c-8.7-10.7-12.3-6.7-15.1-11.9c-2.8-5.2,12.9-23.8,8.1-29.8c-4.8-6-15.9-1-20.4-6.2
		c-4.4-5.2,2.8-26.5,3-27.2c-0.5,0.8-17.9,26.9-14.4,32.7c3.5,5.9,11.7,6.5,13.2,9.9c1.4,3.5-12.9,25.4-6.8,32.3
		c6,6.9,19.3,6.9,22.2,9.7s-1,17.9-1,17.9S870.6,332,861.9,321.4z M921.9,612.9c1.4-13.7-4-13.4-2.3-19.1
		c1.7-5.7,25.9-7.7,26.8-15.4c0.8-7.7-10.5-12-10-18.8c0.6-6.7,20.7-16.8,21.4-17.1c-1,0.2-31.7,6.4-33.3,13
		c-1.7,6.7,3.7,12.9,2.3,16.3c-1.4,3.5-27.1,8.9-27.6,18c-0.6,9.1,8.8,18.5,8.8,22.5s-13.4,12-13.4,12S920.4,626.5,921.9,612.9z
		 M758.1,861.4c10.7-8.7,6.7-12.3,11.9-15.1s23.8,12.9,29.8,8.1c6-4.8,1-15.9,6.2-20.4c5.2-4.4,26.5,2.8,27.2,3
		c-0.8-0.5-26.9-17.9-32.7-14.4c-5.9,3.5-6.5,11.7-9.9,13.2c-3.5,1.4-25.4-12.9-32.3-6.8c-6.9,6-6.9,19.3-9.7,22.2s-17.9-1-17.9-1
		S747.5,870.1,758.1,861.4z M466.6,921.4c13.7,1.4,13.4-4,19.1-2.3s7.7,25.9,15.4,26.8c7.7,0.8,12-10.5,18.8-10
		c6.7,0.6,16.8,20.7,17.1,21.4c-0.2-1-6.4-31.7-13-33.3c-6.7-1.7-12.9,3.7-16.3,2.3c-3.5-1.4-8.9-27.1-18-27.6
		c-9.1-0.6-18.5,8.8-22.5,8.8s-12-13.4-12-13.4S453,919.9,466.6,921.4z M218.1,757.6c8.7,10.7,12.3,6.7,15.1,11.9
		s-12.9,23.8-8.1,29.8c4.8,6,15.9,1,20.4,6.2c4.4,5.2-2.8,26.5-3,27.2c0.5-0.8,17.9-26.9,14.4-32.7c-3.5-5.9-11.7-6.5-13.2-9.9
		c-1.4-3.5,12.9-25.4,6.8-32.3c-6-6.9-19.3-6.9-22.2-9.7s1-17.9,1-17.9S209.4,747,218.1,757.6z M158.1,466.1
		c-1.4,13.7,4,13.4,2.3,19.1s-25.9,7.7-26.8,15.4c-0.8,7.7,10.5,12,10,18.8c-0.6,6.7-20.7,16.8-21.4,17.1c1-0.2,31.7-6.4,33.3-13
		c1.7-6.7-3.7-12.9-2.3-16.3c1.4-3.5,27.1-8.9,27.6-18c0.6-9.1-8.8-18.5-8.8-22.5s13.4-12,13.4-12S159.6,452.5,158.1,466.1z
		 M321.9,217.6c-10.7,8.7-6.7,12.3-11.9,15.1c-5.2,2.8-23.8-12.9-29.8-8.1c-6,4.8-1,15.9-6.2,20.4c-5.2,4.4-26.5-2.8-27.2-3
		c0.8,0.5,26.9,17.9,32.7,14.4c5.9-3.5,6.5-11.7,9.9-13.2c3.5-1.4,25.4,12.9,32.3,6.8c6.9-6,6.9-19.3,9.7-22.2s17.9,1,17.9,1
		S332.5,208.9,321.9,217.6z"/>
</g>
<g id="Layer_12">
	<path class="st8" d="M756.8,141.3c-21.7-4.4-38.2-6.6-50.5-7.3l0.2-17.2C719.9,120.9,736.5,128.4,756.8,141.3z M956.6,358.4
		l-12.3,12c8.2,9.3,18.2,22.5,30.5,40.9C969.6,387.8,963.2,370.7,956.6,358.4z M962.7,706l-17.2-0.2c-0.7,12.3-3,28.8-7.3,50.5
		C951.1,736,958.6,719.4,962.7,706z M721.1,956.1l-12-12.3c-9.3,8.2-22.5,18.2-40.9,30.5C691.7,969.1,708.8,962.7,721.1,956.1z
		 M373.5,962.2l0.2-17.2c-12.3-0.7-28.8-3-50.5-7.3C343.5,950.6,360.1,958.1,373.5,962.2z M123.4,720.6l12.3-12
		c-8.2-9.3-18.2-22.5-30.5-40.9C110.4,691.2,116.8,708.3,123.4,720.6z M117.3,373l17.2,0.2c0.7-12.3,3-28.8,7.3-50.5
		C128.9,343,121.4,359.6,117.3,373z M358.9,122.9l12,12.3c9.3-8.2,22.5-18.2,40.9-30.5C388.3,109.9,371.2,116.3,358.9,122.9z"/>
</g>
<g id="Layer_11">
	<path class="st9" d="M706.5,116.8l-0.2,17.2c-24.3-1.5-32.9,2.8-35.3,8.2l-19.8-9.7c1.9-4.9,5.3-9.5,10.7-13.6
		C668.5,113.8,682.2,109.5,706.5,116.8z M923.6,328.2c-6.7-0.9-12.4,0-17.2,2.1l7.1,20.9c5.5-2,14.6,1,30.8,19.2l12.3-12
		C944.6,336,931.9,329.3,923.6,328.2z M960.7,661.4c-4.1-5.4-8.7-8.8-13.6-10.7l-9.7,19.8c5.3,2.5,9.6,11,8.2,35.3l17.2,0.2
		C970,681.7,965.7,668,960.7,661.4z M751.3,923.1c0.9-6.7,0-12.4-2.1-17.2l-20.9,7.1c2,5.5-1,14.6-19.2,30.8l12,12.3
		C743.5,944.1,750.2,931.4,751.3,923.1z M418.1,960.2c5.4-4.1,8.8-8.7,10.7-13.6l-19.8-9.7c-2.5,5.3-11,9.6-35.3,8.2l-0.2,17.2
		C397.8,969.5,411.5,965.2,418.1,960.2z M156.4,750.8c6.7,0.9,12.4,0,17.2-2.1l-7.1-20.9c-5.5,2-14.6-1-30.8-19.2l-12.3,12
		C135.4,743,148.1,749.7,156.4,750.8z M119.3,417.6c4.1,5.4,8.7,8.8,13.6,10.7l9.7-19.8c-5.3-2.5-9.6-11-8.2-35.3l-17.2-0.2
		C110,397.3,114.3,411,119.3,417.6z M328.7,155.9c-0.9,6.7,0,12.4,2.1,17.2l20.9-7.1c-2-5.5,1-14.6,19.2-30.8l-12-12.3
		C336.5,134.9,329.8,147.6,328.7,155.9z"/>
</g>
<g id="Layer_10">
	<path class="st10" d="M696.3,200.1c-3.4,9.8-13.1,8.6-38.5,25.4c-6.7,4.4-12.8,8.5-18.2,12.5l-16.8-20.1
		c12.1-5.2,24.2-11,29.2-25.9l45,0.5C697.5,195,697.2,197.5,696.3,200.1z M896.6,405.1L865,373c-14.1,7-26.7,2.6-38.9-2.3l-2.4,26.1
		c6.6,1,13.8,2.5,21.7,4.1c29.8,6.1,35.8,13.8,45.2,9.3C893,408.9,895,407.2,896.6,405.1z M887.1,696.6l0.5-45
		c-14.9-5-20.7-17-25.9-29.2l-20.1,16.8c4,5.4,8,11.5,12.5,18.2c16.8,25.4,15.6,35.1,25.4,38.5C882,696.7,884.5,697,887.1,696.6z
		 M674.4,896.1l32.2-31.5c-7-14.1-2.6-26.7,2.3-38.9l-26.1-2.4c-1,6.6-2.5,13.8-4.1,21.7c-6.1,29.8-13.8,35.8-9.3,45.2
		C670.6,892.5,672.3,894.5,674.4,896.1z M382.9,886.6l45,0.5c5-14.9,17-20.7,29.2-25.9l-16.8-20.1c-5.4,4-11.5,8-18.2,12.5
		c-25.4,16.8-35.1,15.6-38.5,25.4C382.8,881.5,382.5,884,382.9,886.6z M183.4,673.9L215,706c14.1-7,26.7-2.6,38.9,2.3l2.4-26.1
		c-6.6-1-13.8-2.5-21.7-4.1c-29.8-6.1-35.8-13.8-45.2-9.3C187,670.1,185,671.8,183.4,673.9z M192.9,382.4l-0.5,45
		c14.9,5,20.7,17,25.9,29.2l20.1-16.8c-4-5.4-8-11.5-12.5-18.2c-16.8-25.4-15.6-35.1-25.4-38.5C198,382.3,195.5,382,192.9,382.4z
		 M405.6,182.9l-32.2,31.5c7,14.1,2.6,26.7-2.3,38.9l26.1,2.4c1-6.6,2.5-13.8,4.1-21.7c6.1-29.8,13.8-35.8,9.3-45.2
		C409.4,186.5,407.7,184.5,405.6,182.9z"/>
</g>
<g id="Layer_9">
	<path class="st11" d="M653.2,188.2c3.4-14.6-9.4-37.2-2-55.7l19.8,9.7c-0.5,1-0.7,2.1-0.7,3.2c0,12,24.8,29.8,26.8,47l-45-0.5
		C652.5,190.7,652.8,189.5,653.2,188.2z M865,373l31.5,32.2c10.8-13.6,5.8-43.7,14.3-52.2c0.8-0.8,1.7-1.4,2.7-1.8l-7.1-20.9
		c-18.4,7.9-25.3,32.9-38,40.8C867.3,371.8,866.2,372.4,865,373z M887.6,651.6l-0.5,45c17.2-2,35-26.8,47-26.8
		c1.1,0,2.2,0.2,3.2,0.7l9.7-19.8c-18.6-7.4-41.1,5.4-55.7,2C890,652.3,888.8,652,887.6,651.6z M706.5,864.5L674.3,896
		c13.6,10.8,43.7,5.8,52.2,14.3c0.8,0.8,1.4,1.7,1.8,2.7l20.9-7.1c-7.9-18.4-32.9-25.3-40.8-38C707.7,866.8,707.1,865.7,706.5,864.5
		z M427.9,887.1l-45-0.5c2,17.2,26.8,35,26.8,47c0,1.1-0.2,2.2-0.7,3.2l19.8,9.7c7.4-18.6-5.4-41.1-2-55.7
		C427.2,889.5,427.5,888.3,427.9,887.1z M215,706l-31.5-32.2c-10.8,13.6-5.8,43.7-14.3,52.2c-0.8,0.8-1.7,1.4-2.7,1.8l7.1,20.9
		c18.4-7.9,25.3-32.9,38-40.8C212.7,707.2,213.8,706.6,215,706z M192.4,427.4l0.5-45c-17.2,2-35,26.8-47,26.8
		c-1.1,0-2.2-0.2-3.2-0.7l-9.7,19.8c18.6,7.4,41.1-5.4,55.7-2C190,426.7,191.2,427,192.4,427.4z M373.5,214.5l32.2-31.5
		c-13.6-10.8-43.7-5.8-52.2-14.3c-0.8-0.8-1.4-1.7-1.8-2.7l-20.9,7.1c7.9,18.4,32.9,25.3,40.8,38
		C372.3,212.2,372.9,213.3,373.5,214.5z"/>
</g>
<g id="Layer_8">
	<path class="st12" d="M639.7,237.9c-11.6,8.6-19.6,17-21.2,27.7c-0.3,1.9-0.3,3.7-0.2,5.3l-28.8,2.2c-2.2-9.5-2.8-20.7,4.1-34.3
		c5.8-11.6,17.6-16.1,29.3-21.1L639.7,237.9z M826.1,370.6c-11.8-4.7-23.3-9.9-35.6-5.8c-14.5,4.8-22,13-27.1,21.4l21.9,18.8
		c1.1-1.3,2.3-2.5,3.9-3.7c8.7-6.5,20.2-6.7,34.6-4.6L826.1,370.6z M861.7,622.4c-5-11.7-9.5-23.5-21.1-29.3
		c-13.6-6.9-24.8-6.3-34.3-4.1l2.2,28.8c1.7-0.2,3.4-0.1,5.3,0.2c10.8,1.6,19.1,9.6,27.7,21.2L861.7,622.4z M708.9,825.6
		c4.7-11.8,9.9-23.3,5.8-35.6c-4.8-14.5-13-22-21.4-27.1l-18.8,21.9c1.3,1.1,2.5,2.3,3.7,3.9c6.5,8.7,6.7,20.2,4.6,34.6L708.9,825.6
		z M457.1,861.2c11.7-5,23.5-9.5,29.3-21.1c6.9-13.6,6.3-24.8,4.1-34.3l-28.8,2.2c0.2,1.7,0.1,3.4-0.2,5.3
		c-1.6,10.8-9.6,19.1-21.2,27.7L457.1,861.2z M253.9,708.4c11.8,4.7,23.3,9.9,35.6,5.8c14.5-4.8,22-13,27.1-21.4L294.7,674
		c-1.1,1.3-2.3,2.5-3.9,3.7c-8.7,6.5-20.2,6.7-34.6,4.6L253.9,708.4z M218.3,456.6c5,11.7,9.5,23.5,21.1,29.3
		c13.6,6.9,24.8,6.3,34.3,4.1l-2.2-28.8c-1.7,0.2-3.4,0.1-5.3-0.2c-10.8-1.6-19.1-9.6-27.7-21.2L218.3,456.6z M371.1,253.4
		c-4.7,11.8-9.9,23.3-5.8,35.6c4.8,14.5,13,22,21.4,27.1l18.8-21.9c-1.3-1.1-2.5-2.3-3.7-3.9c-6.5-8.7-6.7-20.2-4.6-34.6
		L371.1,253.4z"/>
</g>
<g id="Layer_7">
	<path class="st13" d="M631.2,305c-2,10.4-10,15.7-19.7,21.2l-20.8-15.3c1-1.3,1.9-2.7,2.9-4.4c5.5-9.8-0.9-20.1-4.1-33.3l28.8-2.2
		C619.6,284.8,634,290.7,631.2,305z M785.3,405.1l-21.9-18.8c-7.2,11.6-9.9,23.4-20.7,26.4c-1.8,0.5-3.5,0.9-5.1,1.1l3.9,25.5
		c10.7,2.9,20.1,4.9,28.9-1.1C782.4,430,776.4,415.7,785.3,405.1z M808.5,617.9l-2.2-28.8c-13.2,3.1-23.5,9.5-33.3,4.1
		c-1.6-0.9-3.1-1.9-4.4-2.9l-15.3,20.8c5.5,9.6,10.8,17.7,21.2,19.7C788.8,633.5,794.8,619.1,808.5,617.9z M674.4,784.8l18.8-21.9
		c-11.6-7.2-23.4-9.9-26.4-20.7c-0.5-1.8-0.9-3.5-1.1-5.1l-25.5,3.9c-2.9,10.7-4.9,20.1,1.1,28.9
		C649.5,781.9,663.8,775.9,674.4,784.8z M461.6,808l28.8-2.2c-3.1-13.2-9.5-23.5-4.1-33.3c0.9-1.6,1.9-3.1,2.9-4.4l-20.8-15.3
		c-9.6,5.5-17.7,10.8-19.7,21.2C446,788.3,460.4,794.2,461.6,808z M294.7,673.9l21.9,18.8c7.2-11.6,9.9-23.4,20.7-26.4
		c1.8-0.5,3.5-0.9,5.1-1.1l-3.9-25.5c-10.7-2.9-20.1-4.9-28.9,1.1C297.6,649,303.6,663.3,294.7,673.9z M271.5,461.1l2.2,28.8
		c13.2-3.1,23.5-9.5,33.3-4.1c1.6,0.9,3.1,1.9,4.4,2.9l15.3-20.8c-5.5-9.6-10.8-17.7-21.2-19.7C291.2,445.5,285.2,459.9,271.5,461.1
		z M405.6,294.2l-18.8,21.9c11.6,7.2,23.4,9.9,26.4,20.7c0.5,1.8,0.9,3.5,1.1,5.1l25.5-3.9c2.9-10.7,4.9-20.1-1.1-28.9
		C430.5,297.1,416.2,303.1,405.6,294.2z"/>
</g>
<g id="Layer_6">
	<path class="st14" d="M611.6,326.2c-11.4,6.5-24.9,13.3-33.2,29.1l-23.7-11c0.8-2.1,1.8-4.2,3-6.2c10.2-16.8,23.3-14.3,33.2-27.2
		L611.6,326.2z M737.6,413.7c-16.1,2.2-23.6-8.9-42.7-4.2c-2.3,0.6-4.5,1.3-6.5,2.3l9,24.6c17.1-5.3,31.4-0.6,44,2.9L737.6,413.7z
		 M768.6,590.3c-12.9-9.8-10.4-23-27.2-33.2c-2-1.2-4.1-2.2-6.2-3l-11,23.7c15.8,8.3,22.6,21.8,29.1,33.2L768.6,590.3z M665.8,737.1
		c-2.2-16.1,8.9-23.6,4.2-42.7c-0.6-2.3-1.3-4.5-2.3-6.5l-24.6,9c5.3,17.1,0.6,31.4-2.9,44L665.8,737.1z M489.2,768.1
		c9.8-12.9,23-10.4,33.2-27.2c1.2-2,2.2-4.1,3-6.2l-23.7-11c-8.3,15.8-21.8,22.6-33.2,29.1L489.2,768.1z M342.4,665.3
		c16.1-2.2,23.6,8.9,42.7,4.2c2.3-0.6,4.5-1.3,6.5-2.3l-9-24.6c-17.1,5.3-31.4,0.6-44-2.9L342.4,665.3z M311.4,488.7
		c12.9,9.8,10.4,23,27.2,33.2c2,1.2,4.1,2.2,6.2,3l11-23.7c-15.8-8.3-22.6-21.8-29.1-33.2L311.4,488.7z M414.2,341.9
		c2.2,16.1-8.9,23.6-4.2,42.7c0.6,2.3,1.3,4.5,2.3,6.5l24.6-9c-5.3-17.1-0.6-31.4,2.9-44L414.2,341.9z"/>
</g>
<g id="Layer_5">
	<path class="st15" d="M576.1,395l-21,0.1c1.4-14-7-33.2-0.5-50.8l23.7,11C570.4,370.6,578.7,380.3,576.1,395z M697.4,436.4l-9-24.6
		c-17,7.8-24.8,27.3-35.6,36.2l14.9,14.8C679.9,454.3,680.9,441.6,697.4,436.4z M724.2,577.9l11-23.7c-17.6-6.5-36.8,1.8-50.8,0.5
		l0.1,21C699.2,578.2,708.9,569.9,724.2,577.9z M643.1,696.9l24.6-9c-7.8-17-27.3-24.8-36.2-35.6l-14.8,14.9
		C625.2,679.4,637.9,680.4,643.1,696.9z M501.6,723.7l23.7,11c6.5-17.6-1.8-36.8-0.5-50.8l-21,0.1
		C501.3,698.7,509.6,708.4,501.6,723.7z M382.6,642.6l9,24.6c17-7.8,24.8-27.3,35.6-36.2l-14.9-14.8
		C400.1,624.7,399.1,637.4,382.6,642.6z M355.8,501.1l-11,23.7c17.6,6.5,36.8-1.8,50.8-0.5l-0.1-21
		C380.8,500.8,371.1,509.1,355.8,501.1z M436.9,382.1l-24.6,9c7.8,17,27.3,24.8,36.2,35.6l14.8-14.9
		C454.8,399.6,442.1,398.6,436.9,382.1z"/>
</g>
<g id="Layer_4">
	<path class="st16" d="M576.1,395c-0.6,3.2-1.7,6.8-3.7,10.6c-7,13.9-13.7,12.3-26.2,30l-15.8-1.1c8-11.2,18.6-20.5,23.5-33.9
		c0.6-1.7,1-3.5,1.2-5.5L576.1,395z M652.8,448.1c-1.5,1.2-3,2.3-4.7,3c-12.9,6-27,5.2-40.6,7.4l10.4,12c21.4-3.7,24.9,2.2,39.8-2.7
		c4.1-1.3,7.4-3,10.1-4.9L652.8,448.1z M684.4,554.6c-1.9-0.2-3.8-0.5-5.5-1.2c-13.4-4.9-22.8-15.5-33.9-23.5l-1.1,15.8
		c17.7,12.5,16.1,19.2,30,26.2c3.9,2,7.4,3.1,10.6,3.7L684.4,554.6z M631.4,652.3c-1.2-1.5-2.3-3-3-4.7c-6-12.9-5.2-27-7.4-40.6
		l-12,10.4c3.7,21.4-2.2,24.9,2.7,39.8c1.3,4.1,3,7.4,4.9,10.1L631.4,652.3z M524.9,683.9c0.2-1.9,0.5-3.8,1.2-5.5
		c4.9-13.4,15.5-22.8,23.5-33.9l-15.8-1.1c-12.5,17.7-19.2,16.1-26.2,30c-2,3.9-3.1,7.4-3.7,10.6L524.9,683.9z M427.2,630.9
		c1.5-1.2,3-2.3,4.7-3c12.9-6,27-5.2,40.6-7.4l-10.4-12c-21.4,3.7-24.9-2.2-39.8,2.7c-4.1,1.3-7.4,3-10.1,4.9L427.2,630.9z
		 M395.6,524.4c1.9,0.2,3.8,0.5,5.5,1.2c13.4,4.9,22.8,15.5,33.9,23.5l1.1-15.8c-17.7-12.5-16.1-19.2-30-26.2
		c-3.9-2-7.4-3.1-10.6-3.7L395.6,524.4z M448.6,426.7c1.2,1.5,2.3,3,3,4.7c6,12.9,5.2,27,7.4,40.6l12-10.4
		c-3.7-21.4,2.2-24.9-2.7-39.8c-1.3-4.1-3-7.4-4.9-10.1L448.6,426.7z"/>
</g>
<g id="Layer_3">
	<path class="st17" d="M540,539.5c-25.4-41.1-22.2-66.7-19.1-83.8c1.5-8.3,5.1-15,9.6-21.2l15.8,1.1c-4.4,6.3-15.5,22.4-18.6,44.4
		C523.8,507.5,534.5,529.8,540,539.5z M573.3,488.7c17.7-13.4,37-16.9,44.6-18.2l-10.4-12c-7.5,1.2-14.9,3.4-21.8,8.2
		c-14.2,9.9-34.6,25.8-45.7,72.8C543,528.8,551.1,505.4,573.3,488.7z M599.4,527.1c22,3.1,38.1,14.2,44.4,18.6l1.1-15.8
		c-6.2-4.5-12.9-8.1-21.2-9.6c-17.1-3-42.7-6.3-83.8,19.1C549.7,534,572,523.3,599.4,527.1z M590.8,572.8
		c13.4,17.7,16.9,37,18.2,44.6l12-10.4c-1.2-7.5-3.4-14.9-8.2-21.8c-9.9-14.2-25.8-34.6-72.8-45.7
		C550.7,542.5,574.1,550.6,590.8,572.8z M552.4,598.9c-3.1,22-14.2,38.1-18.6,44.4l15.8,1.1c4.5-6.2,8.1-12.9,9.6-21.2
		c3-17.1,6.3-42.7-19.1-83.8C545.5,549.2,556.2,571.5,552.4,598.9z M506.7,590.3c-17.7,13.4-37,16.9-44.6,18.2l10.4,12
		c7.5-1.2,14.9-3.4,21.8-8.2c14.2-9.9,34.6-25.8,45.7-72.8C537,550.2,528.9,573.6,506.7,590.3z M480.6,551.9
		c-22-3.1-38.1-14.2-44.4-18.6l-1.1,15.8c6.2,4.5,12.9,8.1,21.2,9.6c17.1,3,42.7,6.3,83.8-19.1C530.3,545,508,555.7,480.6,551.9z
		 M489.2,506.2c-13.4-17.7-16.9-37-18.2-44.6L459,472c1.2,7.5,3.4,14.9,8.2,21.8c9.9,14.2,25.8,34.6,72.8,45.7
		C529.3,536.5,505.9,528.4,489.2,506.2z"/>
</g>
<g id="Layer_2_1_">
	<path class="st18" d="M684,308.5c-2.5-6.3-6.8-13.7-14.1-19.8c-10.8,10.4-22.8,23.5-34.6,39.6c-10.9,14.8-19.3,29-25.7,41.5
		c13.8,10.5,28.8,9.5,32.3,9.1c0.9-7.6,2-15.2,4-22.5s5-14.3,9.7-20.5c7-9.2,21.8-12,32-13.1C687.4,321.3,686.8,315.5,684,308.5z
		 M805.1,478c2.7-6.2,4.9-14.5,4-24c-14.9-0.3-32.7,0.5-52.5,3.5c-18.2,2.8-34.1,6.9-47.5,11.2c2.4,17.2,13.7,27.1,16.4,29.3
		c6-4.7,12.1-9.4,18.7-13.1c6.6-3.7,13.6-6.6,21.3-7.6c11.5-1.6,23.9,6.9,31.9,13.4C798.5,489.4,802.1,484.9,805.1,478z M771,683.5
		c6.3-2.5,13.7-6.8,19.8-14.1c-10.4-10.8-23.5-22.8-39.6-34.6c-14.8-10.9-29-19.3-41.5-25.7c-10.5,13.8-9.5,28.8-9.1,32.3
		c7.6,0.9,15.2,2,22.5,4s14.3,5,20.5,9.7c9.2,7,12,21.8,13.1,32C758.2,686.9,764,686.3,771,683.5z M601.5,804.6
		c6.2,2.7,14.5,4.9,24,4c0.3-14.9-0.5-32.7-3.5-52.5c-2.8-18.2-6.9-34.1-11.2-47.5c-17.2,2.4-27.1,13.7-29.3,16.4
		c4.7,6,9.4,12.1,13.1,18.7c3.7,6.6,6.6,13.6,7.6,21.3c1.6,11.5-6.9,23.9-13.4,31.9C590.1,798,594.6,801.6,601.5,804.6z M396,770.5
		c2.5,6.3,6.8,13.7,14.1,19.8c10.8-10.4,22.8-23.5,34.6-39.6c10.9-14.8,19.3-29,25.7-41.5c-13.8-10.5-28.8-9.5-32.3-9.1
		c-0.9,7.6-2,15.2-4,22.5s-5,14.3-9.7,20.5c-7,9.2-21.8,12-32,13.1C392.6,757.7,393.2,763.5,396,770.5z M274.9,601
		c-2.7,6.2-4.9,14.5-4,24c14.9,0.3,32.7-0.5,52.5-3.5c18.2-2.8,34.1-6.9,47.5-11.2c-2.4-17.2-13.7-27.1-16.4-29.3
		c-6,4.7-12.1,9.4-18.7,13.1c-6.6,3.7-13.6,6.6-21.3,7.6c-11.5,1.6-23.9-6.9-31.9-13.4C281.5,589.6,277.9,594.1,274.9,601z
		 M309,395.5c-6.3,2.5-13.7,6.8-19.8,14.1c10.4,10.8,23.5,22.8,39.6,34.6c14.8,10.9,29,19.3,41.5,25.7c10.5-13.8,9.5-28.8,9.1-32.3
		c-7.6-0.9-15.2-2-22.5-4s-14.3-5-20.5-9.7c-9.2-7-12-21.8-13.1-32C321.8,392.1,316,392.7,309,395.5z M478.5,274.4
		c-6.2-2.7-14.5-4.9-24-4c-0.3,14.9,0.5,32.7,3.5,52.5c2.8,18.2,6.9,34.1,11.2,47.5c17.2-2.4,27.1-13.7,29.3-16.4
		c-4.7-6-9.4-12.1-13.1-18.7s-6.6-13.6-7.6-21.3c-1.6-11.5,6.9-23.9,13.4-31.9C489.9,281,485.4,277.4,478.5,274.4z"/>
</g>
<g id="Layer_21">
	<path class="st19" d="M647.6,49.2c-4.1-2.2-44.2-15.3-71.2-5.7c-16.9,6-27.9,14.7-34.2,29.3c-7.2,16.4-8.1,39.1-22.9,55.8
		c13-19.7,5.3-70.7,16.7-85.2c16.9-21.6,63.3-20.8,100.9-0.6l0,0c3.3,1.9,6.8,4,10.3,6.2C647.3,49,647.5,49.1,647.6,49.2z
		 M962.7,268.4c-1-4-1.9-7.9-2.9-11.6l0,0c-12.4-40.8-44.6-74.2-71.8-70.9c-18.3,2.2-49,43.7-72.1,48.5c22.3-1.4,39-16.8,55.7-23.3
		c14.8-5.8,28.8-4.2,44.9,3.5c25.9,12.3,45,49.9,46.3,54.4C962.8,268.7,962.7,268.6,962.7,268.4z M1030.6,646.7
		c2.2-3.5,4.2-7,6.2-10.3l0,0c20.1-37.6,20.9-84-0.6-100.9c-14.5-11.3-65.6-3.7-85.2-16.7c16.8,14.8,39.4,15.7,55.8,22.9
		c14.6,6.4,23.3,17.4,29.3,34.2c9.6,27-3.5,67.1-5.7,71.2C1030.4,647,1030.5,646.8,1030.6,646.7z M811.1,962.2c4-1,7.9-1.9,11.6-2.9
		l0,0c40.8-12.4,74.2-44.6,70.9-71.8c-2.2-18.3-43.7-49-48.5-72.1c1.4,22.3,16.8,39,23.3,55.7c5.8,14.8,4.2,28.8-3.5,44.9
		c-12.3,25.9-49.9,45-54.4,46.3C810.8,962.3,810.9,962.2,811.1,962.2z M432.8,1030.1c3.5,2.2,7,4.2,10.3,6.2l0,0
		c37.6,20.1,84,20.9,100.9-0.6c11.3-14.5,3.7-65.6,16.7-85.2c-14.8,16.8-15.7,39.4-22.9,55.8c-6.4,14.6-17.4,23.3-34.2,29.3
		c-27,9.6-67.1-3.5-71.2-5.7C432.5,1029.9,432.7,1030,432.8,1030.1z M117.3,810.6c1,4,1.9,7.9,2.9,11.6l0,0
		c12.4,40.8,44.6,74.2,71.8,70.9c18.3-2.2,49-43.7,72.1-48.5c-22.3,1.4-39,16.8-55.7,23.3c-14.8,5.8-28.8,4.2-44.9-3.5
		c-25.9-12.3-45-49.9-46.3-54.4C117.2,810.3,117.3,810.4,117.3,810.6z M49.4,432.3c-2.2,3.5-4.2,7-6.2,10.3l0,0
		c-20.1,37.6-20.9,84,0.6,100.9c14.5,11.3,65.6,3.7,85.2,16.7c-16.8-14.8-39.4-15.7-55.8-22.9C58.7,531,50,520,44,503.1
		c-9.6-27,3.5-67.1,5.7-71.2C49.6,432,49.5,432.2,49.4,432.3z M268.9,116.8c-4,1-7.9,1.9-11.6,2.9l0,0
		c-40.8,12.4-74.2,44.6-70.9,71.8c2.2,18.3,43.7,49,48.5,72.1c-1.4-22.3-16.8-39-23.3-55.7c-5.8-14.8-4.2-28.8,3.5-44.9
		c12.3-25.9,49.9-45,54.4-46.3C269.2,116.7,269.1,116.8,268.9,116.8z"/>
</g>
</svg>
