<?xml version="1.0" encoding="utf-8"?>
<!-- Generator: Adobe Illustrator 24.1.3, SVG Export Plug-In . SVG Version: 6.00 Build 0)  -->
<svg version="1.1" id="Layer_1" xmlns="http://www.w3.org/2000/svg" xmlns:xlink="http://www.w3.org/1999/xlink" x="0px" y="0px"
	 viewBox="0 0 168.6 200" style="enable-background:new 0 0 168.6 200;" xml:space="preserve">
<path d="M58.8,200c-1,0-2.1-0.3-3-0.8c-0.5-0.3-1-0.6-1.4-1c-0.4-0.4-0.8-0.9-1.1-1.5c-0.6-1.1-1-2.3-1.1-3.5
	c-0.1-0.6-0.1-1.2-0.1-1.8c0-0.7,0.1-1.4,0.3-2.1c0.4-1.7,0.9-3.3,1.6-4.9c1.8-4.4,4-8.6,5.7-13.1c0.4-1.1,0.8-2.2,1-3.4
	c0.3-1.3,0.5-2.7,0.7-4c0-0.6,0.1-1.1,0.1-1.7c0-0.2,0-0.4-0.1-0.6l-0.1-0.3c0-0.1-0.1-0.2-0.1-0.4c0,0,0,0,0-0.1l0,0h-0.2l-0.3,0.1
	c-0.2,0.1-0.5,0.2-0.7,0.3c-0.5,0.2-1,0.5-1.5,0.8c-0.3,0.2-0.7,0.4-1,0.7l-1.4,1c-0.8,0.6-1.7,1.2-2.5,1.9
	c-1.6,1.2-3.2,2.5-4.9,3.6c-1.8,1.2-3.6,2.3-5.5,3.2c-2,1-4.1,1.8-6.3,2.5c-2.1,0.6-4.1,1-6.2,1.3c-2.1,0.4-4.2,0.5-6.4,0.6
	c-1,0-1.9-0.2-2.8-0.5c-1-0.3-1.8-0.9-2.4-1.8c-0.6-0.9-0.7-2-0.3-3c0.4-1.2,1.2-2.3,2.3-3.1c1.2-1,2.5-1.9,3.9-2.6
	c0.8-0.5,1.6-1,2.5-1.5c1.9-1.1,3.7-2.1,5.6-3.1s3.5-1.9,5.2-2.9c0.6-0.4,1.2-0.9,1.8-1.3l0.7-0.6l0.2-0.2l-0.2-0.1
	c-0.5-0.1-1-0.2-1.4-0.2c-1.5-0.1-2.9,0-4.4,0c-1.7,0-3.4,0.1-5.1-0.1c-0.8,0-1.6-0.1-2.5-0.3c-0.7-0.1-1.3-0.3-2-0.5
	c-0.8-0.3-1.6-0.6-2.3-1.1c-1.2-0.7-2.2-1.5-3.2-2.4c-0.5-0.4-0.9-0.9-1.3-1.3s-0.6-0.6-0.9-1c0,0.1,0.1,0.1,0.2,0.2l-1.4-1.7
	l0.1,0.1c-0.3-0.4-0.6-0.7-0.9-1.1s-0.7-0.9-1-1.3c-0.6-0.8-1.2-1.7-1.7-2.5c-1.2-1.9-2.4-3.7-3.5-5.7c-1.1-1.8-2.1-3.7-3-5.6
	c-0.4-1-0.8-2-1.2-3c-0.4-1-0.6-2-0.9-3c-0.6-2.1-1-4.2-1.4-6.4c-0.4-2.1-0.6-4.2-0.9-6.3c-0.5-4.2-1-8.4-1.3-12.6
	c-0.2-2.1-0.2-4.3,0-6.4c0.1-0.8,0.2-1.5,0.4-2.3c0.2-0.6,0.4-1.3,0.7-1.9c0.4-0.9,0.9-1.8,1.6-2.7c0.6-0.8,1.3-1.5,2-2.1
	c1-0.8,2.2-1.3,3.5-1.5c0.6-0.1,1.2-0.1,1.7,0c0.6,0.1,1.1,0.3,1.6,0.6c1.1,0.5,2,1.2,2.9,2c1.5,1.5,2.9,3.1,4.1,4.8
	c1.8,2.4,3.2,5.1,4.4,7.8c0.4-2,0.9-3.9,1.5-5.8c0.6-2,1.4-3.9,2.1-5.9c0.7-1.9,1.5-3.7,2.5-5.5c0.5-0.8,1.1-1.6,1.7-2.3
	c0.3-0.4,0.6-0.7,1-1c0.7-0.7,1.5-1.1,2.5-1.2c0.5,0,0.9,0.1,1.4,0.3c0.4,0.2,0.8,0.5,1.1,0.9c0.6,0.7,1.1,1.5,1.5,2.4
	c0.4,1,0.7,2,0.9,3c0.4,2,0.6,4,0.6,6c0,2-0.2,4-0.5,5.9c0,0.1,0,0.2,0,0.2l0.5,0.1c0.9,0.1,1.6,0.6,2.1,1.4c0.7,1.3,1,2.8,1,4.2
	c0,1,0,1.9-0.1,2.9c-0.1,1-0.2,2-0.4,2.9c-0.4,1.9-0.9,3.8-1.5,5.6c-0.6,1.8-1.3,3.6-2,5.3l0.1-0.2c-0.4,0.9-0.7,1.9-0.9,2.9
	c-0.2,0.8-0.3,1.6-0.4,2.4c0,0.6-0.1,1.1-0.1,1.7c0,0.6,0.1,1.2,0.2,1.8c0,0.3,0.1,0.5,0.2,0.8s0.2,0.4,0.2,0.6s0.3,0.5,0.4,0.8
	l0.3,0.4l0.1,0.1l0,0l0,0l0.3,0.1h0.3h0.5c0.5-0.1,0.9-0.2,1.4-0.3c0.8-0.2,1.6-0.5,2.3-0.9l0.3-0.1c1-1.3,2.1-2.6,3.1-3.9
	c0.3-0.5,0.7-0.9,1-1.4s0.7-1.1,1-1.7c0.6-1.1,1.1-2.2,1.6-3.4c0.7-1.8,1.2-3.5,1.7-5.3c0.2-0.9,0.4-1.9,0.6-2.8s0.3-2,0.5-3
	c0.1-1.5,0.3-2.9,0.3-4.4s0-2.8,0-4.2c0-0.7-0.1-1.3-0.1-2s-0.2-1.6-0.3-2.4c-0.2-1-0.3-1.9-0.5-2.9s-0.5-2.2-0.8-3.3
	c-0.3-0.9-0.6-1.8-0.9-2.8c-0.4-1.1-0.8-2.1-1.2-3.2l-0.1-0.2l0,0l-0.1-0.1c0,0,0-0.1,0-0.1l0,0c-0.2-0.4-0.4-0.9-0.6-1.4
	c0,0.1,0.1,0.2,0.1,0.2L49,79.5v0.1c-0.4-0.8-0.8-1.7-1.3-2.5c-0.5-1-1-1.9-1.6-2.9c-1-1.8-2.1-3.7-3.2-5.5c-2.2-3.6-4.5-7.3-6.4-11
	c-1-1.9-1.7-4-2.2-6.1c-0.3-1-0.5-2-0.7-3.1c-0.3-1.9-0.3-3.8-0.1-5.7c0.2-1.8,0.7-3.6,1.4-5.4c0.3-0.9,0.7-1.8,1.1-2.7
	c1-2.1,2-4.1,3-6.2c1-1.9,2-3.7,3-5.5c1-1.8,2.2-3.4,3.5-5c1.3-1.7,2.7-3.3,4.2-4.8c1.5-1.5,3.1-3,4.7-4.5s3-2.8,4.5-4.2
	c0.8-0.7,1.7-1.4,2.6-2.1l1.2-0.9c0.6-0.5,1.3-0.9,2.1-1.2C65.9,0,67-0.1,68.1,0.1c1.1,0.2,2.1,0.7,3,1.5c0.8,0.7,1.5,1.5,2.1,2.4
	c0.3,0.5,0.7,0.9,1,1.4c1.2,1.9,2.1,4,2.8,6.1c0.6,1.7,1,3.4,1.4,5.1c0.4,1.8,0.7,3.6,1,5.4s0.4,3.4,0.5,5.1s0.3,3.5,0.6,5.2
	c0.2,0.8,0.3,1.6,0.6,2.4c0.1,0.4,0.3,0.8,0.4,1.2s0.3,0.7,0.5,1l0.2,0.3l0.2,0.3l0.2,0.2c0.2,0.1,0.4,0.2,0.6,0.4l0.6,0.3h0.1h0.3
	H85c0.3,0,0.6,0,0.9-0.1l0.7-0.1l0.6-0.2c0.7-0.3,1.3-0.7,1.9-1c1.7-1.2,3.4-2.4,5.1-3.6s3.4-2.5,5.2-3.7c3.5-2.4,7.1-4.5,11-6.3
	c1.9-0.8,4-1.5,6-2.1c2-0.5,4.1-0.9,6.2-1.1c4.2-0.5,8.4-0.7,12.7-0.8c2,0,4.1-0.1,6.2,0c2.1,0,4.1,0.3,6.1,0.8c1,0.3,2,0.7,3,1.3
	c0.5,0.2,0.9,0.5,1.3,0.8c0.8,0.5,1.5,1.1,2.1,1.7c1.4,1.4,2.6,3.1,3.5,5c0.5,1.1,1,2.2,1.3,3.3c0.4,1.1,0.7,2.3,0.8,3.4
	c0.1,1.2,0.1,2.4,0,3.5c-0.1,1.3-0.4,2.5-0.8,3.7c-0.4,1.1-1,2.1-1.6,3.1c-0.5,0.8-1.1,1.6-1.8,2.3c-0.3,0.4-0.6,0.8-1,1.1
	s-0.6,0.7-1,1.1c-1.4,1.4-2.9,2.7-4.5,3.9c-1.6,1.2-3.2,2.3-4.8,3.5c-0.6,0.5-1.1,1-1.7,1.5c-0.3,0.3-0.6,0.6-0.8,1
	c-0.1,0.1-0.2,0.3-0.2,0.4c0,0,0-0.1,0.1-0.1c0,0.1-0.1,0.2-0.1,0.2c-0.1,0.2-0.1,0.4-0.2,0.6l0,0v0.1c0,0.1,0,0.1,0,0.2
	c0,0,0-0.1,0-0.1l0,0v-0.1l0,0c0,0,0,0.1,0,0.1l0,0c0,0.1,0.1,0.3,0.1,0.4c0,0.1,0.1,0.2,0.1,0.3s0.2,0.4,0.3,0.6s0.4,0.5,0.5,0.7
	c0.5,0.6,1.1,1.2,1.6,1.7c1.5,1.3,3.1,2.5,4.7,3.7s3.4,2.5,4.9,3.8c1.6,1.4,3.1,3,4.4,4.7c1.3,1.6,2.5,3.3,3.6,5
	c1.2,1.7,2.3,3.6,3.3,5.4c1,1.9,1.8,3.9,2.3,6c0.5,2,0.9,4,1.1,6c0.3,2,0.3,3.9,0.2,5.9c-0.1,1.3-0.5,2.6-1.1,3.7
	c-0.5,0.9-1.2,1.6-2.1,2.1c-1,0.6-2.1,1-3.2,1.1c-2.1,0.4-4.2,0.5-6.4,0.4c-2.2-0.2-4.3-0.6-6.3-1.3c-1-0.3-2-0.8-2.9-1.2
	c-1-0.5-1.9-1-2.8-1.7c-0.5-0.3-1-0.7-1.4-1.1c-0.4-0.4-0.9-0.7-1.3-1.1c-0.9-0.8-1.7-1.7-2.4-2.6c-1.3-1.6-2.6-3.4-3.6-5.2
	c-1,1.5-2,3.1-3,4.7c-1.1,1.8-2.3,3.5-3.4,5.3c-2.2,3.4-4.4,6.9-6.4,10.4c-0.3,0.5-0.5,1-0.8,1.5l0,0l0,0l-0.1,0.1l0,0l0,0l0,0l0,0
	l0,0c-0.3,0.7-0.7,1.3-1.1,2c-0.4,0.7-1,1.2-1.7,1.4c-0.9,0.2-1.8,0.1-2.5-0.5c-0.9-0.8-1.7-1.7-2.4-2.7l-1.5-1.8l0,0l0,0v-0.1
	c-0.6-0.7-1.2-1.3-1.8-2c-0.9-0.8-1.9-1.6-2.8-2.3c-1.1-0.8-2.2-1.5-3.3-2.2l-0.3-0.1l-0.4-0.1h-0.2h-0.1l-0.2,0.1l0.1-0.1l0,0
	l-0.3,0.2l-0.1,0.1l-0.3,0.3c-0.3,0.4-0.6,0.7-0.9,1.1c-0.7,1-1.3,2.1-1.9,3.2c-1,2-1.9,4.1-2.9,6.1c-0.5,1.1-1.1,2.1-1.9,3
	c-0.7,0.9-1.7,1.5-2.8,1.7c-0.9,0.1-1.8,0-2.7-0.3l0.2,0.1l-0.6-0.1h-0.2h-0.2l-0.2,0.1l-0.3,0.2l-0.2,0.1l-0.1,0.1
	c-0.2,0.2-0.3,0.4-0.4,0.6l0.1-0.2l-0.2,0.4c-0.1,0.3-0.3,0.6-0.4,0.8c-0.2,0.6-0.4,1.2-0.6,1.9c-0.3,1.5-0.6,3-0.7,4.5
	c-0.1,0.9-0.2,1.9-0.2,2.8s0,2.1,0,3.2l0,0c0,0,0,0.1,0,0.1l0,0c0.1,2,0.1,4,0.2,6.1l0,0c0.1,2,0.1,4,0.1,6.1
	c-0.1,2.2-0.3,4.3-0.6,6.5c-0.1,1-0.3,1.9-0.6,2.9c-0.3,1.2-0.5,2.4-0.8,3.6c-0.5,1.9-1,3.8-1.7,5.6c-0.9,2.5-1.9,5-3,7.5
	s-2.3,4.9-3.5,7.3c0-0.1,0.1-0.1,0.1-0.2c-0.3,0.5-0.5,1-0.8,1.4s-0.5,0.8-0.8,1.2c-0.6,0.9-1.3,1.8-2,2.7c-1.2,1.4-2.5,2.6-3.9,3.6
	c-0.9,0.6-1.8,1.2-2.8,1.8c-1.8,1-3.7,1.5-5.7,1.6H58.8z"/>
</svg>
