<?xml version="1.0" encoding="utf-8"?>
<!-- Generator: Adobe Illustrator 24.1.3, SVG Export Plug-In . SVG Version: 6.00 Build 0)  -->
<svg version="1.1" id="Layer_2" xmlns="http://www.w3.org/2000/svg" xmlns:xlink="http://www.w3.org/1999/xlink" x="0px" y="0px"
	 viewBox="0 0 200 137.3" style="enable-background:new 0 0 200 137.3;" xml:space="preserve">
<path d="M153.7,137.3c-0.4-0.1-0.9-0.2-1.2-0.4c-1.5-0.9-2.9-1.9-4.2-3.1c-1.5-1.3-2.8-2.7-4-4.1s-2.5-2.8-3.7-4.4
	c-1.2-1.5-2.3-3.1-3.2-4.8c-0.8-1.7-1.5-3.4-2.1-5.2c-0.2-0.7-0.4-1.5-0.6-2.2l-0.1-0.5c-0.2-0.8-0.4-1.6-0.6-2.3l-0.1-0.2V110
	c-0.1-0.4-0.3-0.8-0.4-1.1c-0.1-0.2-0.2-0.5-0.4-0.7c-0.1-0.2-0.2-0.3-0.3-0.5s-0.2-0.2-0.3-0.3c-0.2-0.2-0.3-0.3-0.5-0.4
	c-0.2-0.1-0.3-0.2-0.5-0.3l-0.5-0.2l-0.4-0.1h-0.1h-0.3h-0.1h-0.2l-0.6,0.2c-0.3,0.2-0.6,0.3-0.9,0.5c-0.3,0.2-0.6,0.4-0.9,0.7
	c-0.7,0.6-1.4,1.3-2,2l-0.6,0.6c-1,1.2-2.1,2.3-3.3,3.2c-1.5,1.2-3.2,2.1-5,2.9c-0.9,0.4-1.8,0.6-2.7,0.8c-0.5,0.1-1,0.1-1.4,0.1
	c-0.8,0-1.7-0.1-2.4-0.4c-1.7-0.5-3.4-1.3-4.9-2.3c-0.6-0.4-1.3-0.9-1.8-1.4c-0.4-0.4-0.7-0.8-1.1-1.2c-0.4-0.5-0.7-1.1-0.9-1.7
	c-0.3-1-0.5-2-0.4-3c0.1-0.8,0.2-1.6,0.5-2.3c0.4-1.2,0.9-2.4,1.5-3.6l0.2-0.5c0.6-1.3,1.2-2.7,1.7-4l0,0c0.1-0.4,0.3-0.8,0.4-1.2
	l0.2-0.6c0.4-1,0.7-1.8,1.1-2.7c0.3-0.6,0.6-1.2,0.9-1.8l0.4-0.7c0.6-1.2,1.2-2.4,1.7-3.7c0.2-0.7,0.4-1.3,0.6-2
	c0.1-0.3,0.1-0.7,0.2-1c0-0.1,0-0.2,0-0.4v-0.1v-0.1c-0.1-0.1-0.1-0.2-0.2-0.4l-0.1-0.1l-0.1-0.1l-0.4-0.4c-0.6-0.5-1-0.9-1.5-1.3
	l-0.4-0.3c-0.3-0.1-0.6-0.3-0.9-0.4s-0.8-0.2-1.3-0.4s-1.3-0.2-2-0.3c-0.4,0-0.8,0-1.1,0h-0.3c-0.8,0-1.5,0.1-2.3,0.3
	c-0.7,0.1-1.3,0.3-2,0.5c-2.9,0.9-5.7,2-8.4,3.2l-0.1,0.1l-1.9,1c-1.1,0.5-2.2,1.1-3.3,1.6s-2.2,1-3.2,1.4l-1.7,0.7l-1.7,0.7
	c-1.1,0.5-2.2,1-3.3,1.4c-1.3,0.5-2.7,1-4.1,1.5L69.1,92c-1.9,0.7-3.8,1.3-5.8,1.8c-0.8,0.2-1.6,0.4-2.3,0.6c-1,0.2-2.2,0.5-3.2,0.8
	c-0.7,0.2-1.3,0.5-1.9,0.7h-0.2c-0.7,0.3-1.5,0.6-2.2,0.9c-0.2,0.1-0.4,0.2-0.6,0.4l-0.1,0.1c-0.1,0.1-0.2,0.2-0.3,0.4
	c-0.1,0.2-0.2,0.3-0.3,0.5c-0.2,0.4-0.3,0.7-0.5,1.2c-0.1,0.3-0.2,0.5-0.2,0.7c-0.1,0.5-0.2,1-0.2,1.5c-0.1,1.6-0.1,3.2-0.1,4.8
	c0,0.4,0.1,0.8,0.1,1.1c0,0.2,0.1,0.4,0.1,0.5c0.1,0.3,0.3,0.7,0.4,1s0.2,0.6,0.3,0.8c0.2,0.6,0.4,1.3,0.5,2c0.1,1,0.2,2.1,0.2,3.1
	v0.8c0,0.2,0,0.3,0,0.5c0,0.3,0,0.5,0,0.8v0.3c0,0.8-0.1,1.5-0.2,2.3c-0.2,0.8-0.4,1.6-0.6,2.3l-0.2,0.6c-0.1,0.6-0.3,1.2-0.5,1.7
	c-0.6,1.4-1.4,2.7-2.5,3.8c-0.6,0.7-1.3,1.4-2.1,2c-0.7,0.6-1.5,1.1-2.3,1.6c-1.6,0.9-3.2,1.7-4.9,2.4c-1.7,0.7-3.6,1.2-5.4,1.5
	c-1.8,0.3-3.7,0.5-5.5,0.5h-0.4c-1.1,0-2.2-0.2-3.3-0.4c-1.1-0.3-2.1-0.7-3.1-1.2l-0.2-0.1c-1-0.6-1.9-1.2-2.7-2
	c-0.9-0.8-1.6-1.7-2.2-2.6l-0.1-0.1l0,0l0,0c-0.5-0.8-0.9-1.6-1.2-2.5c-0.3-0.9-0.6-1.8-0.8-2.7c-0.2-1-0.3-2-0.3-3
	c0-1,0.1-1.9,0.3-2.8c0.2-0.9,0.4-1.9,0.7-2.8c0.3-0.8,0.7-1.6,1.1-2.3l0.1-0.2c0.8-1.7,1.8-3.3,2.8-4.8c0.8-1.2,1.7-2.3,2.5-3.4
	l0.6-0.7c1.2-1.5,2.1-2.8,3-4c0.5-0.8,1-1.5,1.4-2.2s0.8-1.4,1.2-2.2c0.5-1,1-2,1.6-3c0.5-1,1-2.1,1.5-3.2c0.1-0.4,0.2-0.8,0.3-1.1
	c0.2-0.8,0.3-1.7,0.5-2.6c0-0.6,0-1.2,0-1.7s-0.1-1.1-0.2-1.7v-0.1c0-0.2-0.1-0.3-0.1-0.4v-0.1h-0.1c-0.4-0.1-0.8-0.3-1.2-0.4
	L30,81.3l-0.5-0.2c-0.5-0.2-0.9-0.3-1.4-0.4s-1.1-0.2-1.7-0.2l-1.6-0.1l-1.5-0.1C22.1,80.2,21,80,20,79.9h-0.1h-0.1
	c-0.8-0.1-1.6-0.1-2.4-0.1c-0.4,0-0.7,0-1.1,0h-1.8c-1.9-0.1-3.8-0.4-5.7-0.8c-2-0.6-3.9-1.6-5.5-3c-0.4-0.3-0.7-0.6-1.1-1
	c-0.6-0.6-1.1-1.3-1.5-2c-0.5-0.8-0.7-1.7-0.6-2.6c0.1-0.6,0.4-1.2,0.7-1.7c0.5-0.8,1.1-1.6,1.7-2.3c0.7-0.9,1.6-1.6,2.7-2.2
	l0.1-0.1c0.7-0.6,1.5-1.1,2.5-1.3c0.6-0.1,1.2-0.2,1.8-0.2h0.4c0.8-0.1,1.5-0.1,2.2-0.1h0.4c0.6,0,1.2,0,1.8,0.1l1,0.1l0.7,0.1
	c0.5,0,1,0.1,1.5,0.1s1.1,0,1.7,0h1h2.2c0.6,0,1.1,0,1.7,0l0,0c0.9-0.1,1.7-0.2,2.5-0.3c0.3-0.1,0.6-0.1,0.8-0.2l0.7-0.3l0.2-0.1
	h0.1c0.2-0.2,0.4-0.3,0.7-0.5l0.2-0.2c0.1-0.1,0.2-0.2,0.3-0.3s0.1-0.2,0.2-0.3s0.1-0.2,0.1-0.2v-0.1l0.1-0.2v-0.1l-0.2-0.5
	c-0.1-0.3-0.2-0.5-0.3-0.8c-0.1-0.2-0.2-0.5-0.3-0.7c-0.2-0.6-0.5-1.2-0.7-1.8s-0.4-1-0.5-1.5v-0.1c-0.2-0.5-0.4-1-0.6-1.4l-0.1-0.2
	c-0.4-0.7-0.8-1.5-1.1-2.3c-0.1-0.4-0.3-0.8-0.4-1.1s-0.3-0.9-0.5-1.3s-0.3-0.7-0.4-1c-0.2-0.5-0.4-1-0.6-1.5
	c-0.3-0.8-0.5-1.6-0.8-2.4l-0.1-0.5l-0.3-1c-0.5-1.5-0.9-3.1-1.2-4.6c-0.4-2-0.6-3.9-0.8-5.9c-0.2-2,0-4.1,0.5-6.1
	c0.2-1,0.5-1.9,0.8-2.9c0.2-0.9,0.5-1.8,0.8-2.7c0.7-1.8,1.6-3.5,2.6-5.1l0.1-0.2c0.9-1.6,1.9-3.2,2.9-4.7C30,8,31.3,6.5,32.8,5.2
	c1.3-1.4,2.8-2.5,4.5-3.5c1.9-1.1,4.1-1.7,6.3-1.7c0.5,0,1,0,1.5,0.1c1.4,0.3,2.7,0.9,3.8,1.8C49.5,2.4,50.3,3,51,3.6
	c0.3,0.3,0.5,0.5,0.8,0.8c0.3,0.4,0.6,0.9,0.7,1.5c0.2,0.6,0.3,1.3,0.3,2c0,0.8,0,1.6-0.1,2.4v0.4c0,0.4-0.1,0.8-0.1,1.2
	c-0.1,1.4-0.2,2.9-0.4,4.3c-0.1,0.8-0.3,1.6-0.5,2.4c-0.2,1-0.4,2-0.6,3L51,22.5c-0.1,0.7-0.2,1.3-0.3,2c-0.2,0.9-0.3,1.8-0.6,2.8
	c-0.1,0.5-0.2,0.9-0.3,1.4l-0.2,1c-0.2,0.7-0.3,1.4-0.4,2.1c0,0.3,0,0.6,0,0.8c0,0.6,0.1,1.2,0.2,1.8c0.2,0.8,0.3,1.5,0.5,2.1
	c0.1,0.3,0.3,0.7,0.4,1c0.1,0.2,0.2,0.3,0.3,0.5s0.3,0.5,0.5,0.7l0.8,1c0.3,0.4,0.7,0.8,1,1.2s0.7,0.8,1.1,1.2
	c0.2,0.2,0.4,0.4,0.7,0.5s0.5,0.3,0.7,0.4h0.1l0.9,0.4c0.6,0.2,1.1,0.4,1.7,0.5c0.6,0.1,1.2,0.2,1.8,0.3l1.3,0.2
	c1,0.2,1.9,0.4,2.9,0.5c0.5,0,0.9,0,1.4,0h1.1l1.3-0.1l1.6,0c1-0.1,2-0.1,3.1-0.3c0.8-0.2,1.6-0.4,2.4-0.6c0.6-0.2,1.2-0.5,1.8-0.7
	c1.4-0.6,2.7-1.4,4-2.2l0,0c1.1-0.7,2.2-1.5,3.2-2.4c0.5-0.5,1-0.9,1.4-1.3c0.2-0.2,0.4-0.5,0.6-0.7s0.2-0.3,0.3-0.5
	c0.2-0.4,0.4-0.9,0.6-1.3c0.2-0.5,0.3-1,0.4-1.5c0.2-0.9,0.3-1.8,0.4-2.6c0.1-1.1,0.1-2.3,0.1-3.4c0-0.4,0-0.8,0-1.1
	c-0.1-0.8-0.1-1.6,0-2.4c0-0.5,0.1-1,0.2-1.5c0.1-0.3,0.2-0.6,0.3-1c0.2-0.6,0.5-1.2,0.8-1.7c0.3-0.5,0.6-1,0.9-1.5
	c0.3-0.6,0.7-1.1,1.2-1.6c0.8-0.8,1.6-1.5,2.6-2c0.8-0.4,1.7-0.7,2.6-0.9c1.2-0.3,2.4-0.4,3.6-0.4c0.7,0,1.5,0.1,2.2,0.2
	c1.5,0.2,2.9,0.8,4.1,1.8c0.7,0.7,1.3,1.4,1.8,2.2c0.5,0.7,1,1.4,1.3,2.2c0.4,0.8,0.6,1.7,0.6,2.6c0.1,1.3,0,2.7-0.2,4l-0.1,0.6
	c-0.2,1-0.3,2-0.4,3.1c0,0.4,0,0.9,0,1.3v0.2c0,0.1,0,0.3,0,0.4c0,0.1,0.1,0.4,0.2,0.7c0,0,0,0.1,0,0.1l0.1,0.1l0,0
	c0.3,0.1,0.6,0.2,0.9,0.4l0.4,0.2l0.9,0.4L112,34l0.7,0.2c0.8,0.2,1.7,0.2,2.5,0.3c0.3,0,0.7,0,1,0h0.7c1.5-0.1,3-0.3,4.6-0.5
	c1.4-0.3,2.8-0.7,4.2-1.1h0.1l2.9-1c1.1-0.4,2.3-0.8,3.4-1.1c1.5-0.5,2.9-0.9,4.4-1.3c1.2-0.3,2.4-0.6,3.5-0.8l1.1-0.2l1.4-0.3
	c1-0.2,2.1-0.5,3.1-0.7s2.4-0.5,3.6-0.6l1.4-0.2c1.7-0.3,3.5-0.7,5.4-1.2l1.6-0.4c1.3-0.4,2.7-0.7,4.1-1s2.7-0.6,4.1-0.9l1.6-0.3
	c2.1-0.5,3.9-0.9,5.5-1.3l2.8-0.8l2.9-0.9c2-0.6,3.9-1.1,5.6-1.5l1.8-0.5c1.2-0.3,2.5-0.7,3.8-0.9c0.9-0.2,1.8-0.3,2.8-0.4h0.2
	c0.8,0,1.6,0.1,2.3,0.3c0.6,0.2,1.3,0.4,1.8,0.8c0.5,0.3,0.9,0.6,1.3,0.9c0.5,0.5,1,1,1.3,1.6c0.4,0.7,0.6,1.5,0.5,2.2
	c0,0.6-0.1,1.1-0.2,1.6c-0.1,0.5-0.3,1-0.5,1.4c-0.2,0.5-0.5,1-0.8,1.5c-0.4,0.5-0.7,1-1.1,1.4l-0.8,1c-0.2,0.4-0.5,0.8-0.7,1.1
	l-0.4,0.6c-0.4,0.6-0.9,1.2-1.4,1.7c-0.6,0.6-1.3,1.2-1.9,1.7c-0.5,0.4-1,0.8-1.4,1.3c-0.6,0.5-1.1,0.9-1.8,1.4
	c-0.7,0.5-1.5,0.9-2.3,1.2l-1.6,0.7c-0.8,0.3-1.6,0.6-2.4,1l-0.4,0.2c-0.5,0.2-1,0.5-1.5,0.7l-0.9,0.4l-0.8,0.3l-0.1,0.1h-0.1
	c-0.5,0.2-1.1,0.5-1.6,0.8l-1.1,0.5c-1,0.5-2,0.8-3,1l-0.3,0.1c-0.9,0.2-1.8,0.4-2.7,0.7l-0.7,0.2l-2.1,0.6
	c-0.6,0.2-1.1,0.4-1.6,0.6c-0.1,0.1-0.2,0.1-0.4,0.2c-0.1,0.1-0.3,0.2-0.4,0.3c0,0-0.1,0.1-0.1,0.1l0.4,0.5c0.3,0.3,0.6,0.7,0.9,1.1
	c0.9,0.9,1.7,1.9,2.3,3c0.5,0.8,0.8,1.7,1,2.7c0.1,0.6,0.1,1.3-0.1,1.9c-0.6,2.2-2.3,3.9-4.4,4.6c-0.7,0.2-1.4,0.4-2.1,0.6l-0.6,0.2
	h-0.2c-0.8,0.2-1.6,0.5-2.5,0.7l-1,0.3c-0.7,0.2-1.4,0.4-2.1,0.6c-0.4,0.1-0.7,0.2-1.1,0.4l-0.6,0.3l-0.3,0.2l-0.1,0.1l-0.2,0.2
	l-0.1,0.1c-0.1,0.1-0.1,0.2-0.2,0.3l-0.1,0.2c0,0,0,0.1,0,0.1c0,0.1,0,0.2-0.1,0.4V65c0,0.1,0,0.2,0,0.2c0.1,0.1,0.2,0.2,0.3,0.3
	c0.1,0.1,0.2,0.2,0.4,0.3c0.5,0.3,1,0.6,1.4,0.9l0.6,0.4c0.7,0.4,1.4,0.9,2.2,1.4c1.4,1,2.8,2.2,4,3.4c0.3,0.3,0.6,0.6,0.9,1
	c0.3,0.4,0.5,0.8,0.8,1.2c0.7,1.1,1,2.5,0.8,3.8c-0.1,1-0.4,2-0.9,2.9c-0.4,0.8-0.8,1.6-1.3,2.3c-0.7,1.1-1.5,2.2-2.3,3.2
	c-0.4,0.5-0.8,1.1-1.2,1.6l-0.1,0.1l0,0l-0.2,0.4c-1.7,2.3-3.3,4.7-4.7,7.2l-0.1,0.1l-0.1,0.1l0,0l0,0c-0.3,0.6-0.5,1.1-0.8,1.7
	c-0.1,0.3-0.2,0.6-0.3,0.8c-0.1,0.5-0.2,1-0.2,1.6v0.5c-0.1,1.1-0.2,2.3-0.2,3.4l0.1,0.7c0.1,0.5,0.2,1,0.4,1.5
	c0.3,0.9,0.6,1.7,1,2.6c0.3,0.6,0.6,1.1,0.9,1.7l0.3,0.6c0.4,0.9,0.9,1.8,1.3,2.6c0.3,0.7,0.6,1.3,1,2c0.5,0.9,1,1.9,1.4,2.9
	c0.2,0.5,0.4,1,0.6,1.5l0.4,1.2c0.1,0.3,0.3,0.7,0.4,1s0.4,0.9,0.6,1.4c0.2,0.6,0.4,1.2,0.4,1.8c0.1,0.7,0.1,1.3,0,2
	c-0.1,1-0.3,1.9-0.6,2.8c-0.2,0.5-0.3,1-0.5,1.4c-0.2,0.3-0.3,0.7-0.5,1l-0.2,0.3c-0.4,0.8-1,1.6-1.6,2.3c-0.7,0.9-1.7,1.6-2.8,2
	c-0.5,0.2-1,0.3-1.6,0.3L153.7,137.3z"/>
</svg>
