<?xml version="1.0" encoding="utf-8"?>
<!-- Generator: Adobe Illustrator 24.1.3, SVG Export Plug-In . SVG Version: 6.00 Build 0)  -->
<svg version="1.1" id="Layer_1" xmlns="http://www.w3.org/2000/svg" xmlns:xlink="http://www.w3.org/1999/xlink" x="0px" y="0px"
	 viewBox="0 0 124.4 199.7" style="enable-background:new 0 0 124.4 199.7;" xml:space="preserve">
<path d="M20.6,198.7c-2.4-1.9-3.5-4.9-4.2-7.8c-0.6-2.3-1.1-4.6-1.5-7c-0.4-2.5-0.7-5.1-0.8-7.7c-0.1-2.6-0.1-5.2,0-7.8
	c0.1-5,0.2-10,0.4-14.9c0.2-4.1,0.6-8.2,1.3-12.2c0.8-4.1,1.8-8.1,2.4-12.2c0-0.6,0.1-1.1,0.1-1.6s0-1.3-0.1-1.9
	c0-0.1,0-0.2-0.1-0.3s-0.1-0.4-0.2-0.5s-0.1-0.3-0.2-0.4l-0.1-0.1l-0.1-0.1l0,0l-0.2-0.1l-0.2-0.1l-0.5-0.2
	c-0.6-0.1-1.2-0.2-1.8-0.3c-1.1-0.1-2.2-0.2-3.3-0.4c-1.1-0.2-2.3-0.4-3.4-0.7c-1.7-0.4-3.1-1.3-4.2-2.7c-1.4-1.9-1-4.3,0-6.3
	c1-2,2.4-3.8,4.1-5.2c1.7-1.5,3.5-2.7,5.3-4.1c0.7-0.6,1.4-1.2,2-1.8c0.2-0.2,0.3-0.4,0.5-0.5s0.3-0.4,0.4-0.6s0.3-0.6,0.4-0.8
	s0.2-0.6,0.3-0.9s0.1-0.6,0.2-0.9c0-0.3,0-0.5,0-0.8c0-0.3,0-0.6-0.1-0.9s-0.1-0.6-0.2-0.8c-0.1-0.4-0.3-0.8-0.5-1.3
	c-0.2-0.5-0.5-1-0.8-1.4c-0.4-0.7-0.9-1.3-1.4-2c-0.4-0.5-0.9-0.9-1.3-1.4s-1-0.9-1.5-1.3l0,0h-0.1l-0.2-0.1l0.1,0.1l-0.5-0.4
	l0.2,0.2C9,87,6.9,86,5,84.6c-1.2-0.8-2.2-1.8-3-2.9c-1.5-1.9-2.2-4.3-2-6.6c0.3-1.7,0.9-3.4,2-4.8c0.7-1.1,1.5-2.1,2.4-3
	c1.8-1.9,4-3.4,6.3-4.6c1.2-0.6,2.4-1.1,3.7-1.5c1.3-0.4,2.6-0.7,3.9-1c2.5-0.5,5-0.8,7.5-1c2.5-0.2,5.1-0.2,7.6,0
	c2.6,0.1,5.2,0.4,7.7,0.8c1.6,0.3,3.3,0.6,4.9,1h-0.2c2.1,0.5,4.2,1.1,6.2,1.6c2.5,0.6,4.9,1.1,7.4,1.5c1.2,0.2,2.3,0.4,3.5,0.6
	c0.1-0.2,0.1-0.3,0.2-0.5l0.1-0.3v-0.3c0-0.2,0-0.4,0-0.6c0-0.1,0-0.1,0-0.2L63,62.5c-0.1-0.2-0.2-0.5-0.3-0.7s-0.2-0.4-0.4-0.6
	c-0.5-0.5-0.9-1-1.4-1.5l0.2,0.2l-0.4-0.4l0,0L60,59l0,0c-0.7-0.7-1.5-1.3-2.2-1.9c-0.5-0.4-1-0.7-1.5-1c-1.1-0.6-2.3-1-3.4-1.5
	s-2.3-1-3.4-1.4c-0.7-0.3-1.5-0.5-2.3-0.8s-1.5-0.3-2.3-0.4c-1.5-0.2-3.1-0.3-4.7-0.5l0,0c-2.2-0.3-4.4-0.7-6.5-1.4
	c-2.3-0.7-4.4-2-6-3.8c-1.6-1.7-2.1-4.1-1.5-6.3c0.3-1.1,0.9-2.1,1.7-3c0.9-0.9,1.8-1.7,2.9-2.3c1-0.6,2-1.1,3-1.6l0.4-0.2l-0.2,0.1
	l0.3-0.1h-0.1c2-0.9,4.2-1.5,6.2-2.3c0.5-0.2,1-0.5,1.4-0.7c0.1-0.1,0.3-0.2,0.4-0.3l0.3-0.2l0,0c-0.1-0.2-0.2-0.3-0.3-0.5
	S42,28.3,41.7,28c-0.7-0.9-1.5-1.6-2.3-2.4c-0.9-1-1.8-2-2.6-3c-1.5-1.9-2.7-4.1-3.6-6.4c-0.2-0.7-0.4-1.3-0.5-2
	c-0.2-1.6-0.2-3.1,0.3-4.7c0.5-1.9,1.1-3.7,1.8-5.4c0.6-1.2,1.6-2.3,2.7-3c1.2-0.8,2.6-1.2,4-1.3c1.6-0.1,3.3,0.1,4.9,0.6
	c2.6,0.9,5,2,7.3,3.5l0,0c1.4,0.8,2.7,1.6,3.9,2.5c1.4,0.9,2.7,2,3.9,3.1c1.1,1.1,2.1,2.2,3.1,3.4c1,1.2,1.9,2.4,3,3.5
	c0.2,0.2,0.4,0.4,0.6,0.5l0.8,0.5c2,0.9,4,2,5.9,3.2c2,1.5,3.8,3.3,5.3,5.3c2.9,4.1,4.4,9,5.9,13.7c0.9,3.1,2,6.1,3.2,9.1
	c0.5,1.1,1,2.2,1.6,3.3c0.2,0.4,0.5,0.8,0.8,1.1l0.5,0.5c0.3,0.3,0.7,0.6,1.1,0.9l0.4,0.2l0,0l0,0l0.2,0.1c0.2,0.1,0.5,0.2,0.7,0.2
	h0.2h0.1h0.5c0.2,0,0.4-0.1,0.7-0.1c0.2-0.1,0.5-0.2,0.7-0.2c0.3-0.1,0.6-0.3,0.9-0.5l0.9-0.6c0.4-0.4,0.9-0.8,1.3-1.2
	c0.5-0.6,1-1.2,1.5-1.8s0.7-1,1-1.6c0.9-1.8,1.8-3.7,2.5-5.6c0.9-2.4,1.8-4.8,2.7-7.2c1-2.8,2.5-5.3,4.4-7.6c0.6-0.7,1.3-1.4,2.1-2
	c0.5-0.4,1.1-0.8,1.8-1.1c0.8-0.3,1.6-0.3,2.4-0.2c1.8,0.3,3.3,2,4.3,3.6c1.3,2.2,2,4.7,2.1,7.3c0.1,2.5,0,5.1-0.1,7.7
	s-0.2,5.3-0.4,8c-0.5,5.1-1.2,10.2-2.3,15.2c-0.5,2.6-1.1,5.1-1.7,7.7c-0.7,2.5-1.6,5-2.8,7.4c-0.6,1.1-1.2,2.2-1.9,3.2
	c-0.8,1.1-1.6,2.2-2.4,3.3c-1.6,2-3.3,3.9-5.1,5.7c-2.3,2.3-4.8,4.4-7.6,6.1l-0.5,0.3l0.3-0.2l-0.6,0.4l0,0
	c-2.1,1.3-4.4,2.3-6.7,3.2c-2.4,0.9-5,1.4-7.6,1.6c-1.3,0.1-2.7,0-4-0.2c-1.3-0.2-2.5-0.4-3.8-0.7c-2.4-0.7-4.8-1.7-7.1-2.8
	c-0.9-0.4-1.8-0.8-2.7-1.2c-2.4-1-4.9-1.8-7.3-2.8c-2.3-1.1-4.5-2.3-6.7-3.6c-0.6-0.3-1.2-0.6-1.8-0.9l-0.9-0.3
	c-0.3-0.1-0.5-0.1-0.8-0.1c-0.2,0-0.3,0-0.5,0L49,93c-0.1,0-0.3,0.1-0.4,0.1s-0.5,0.2-0.7,0.2l-0.5,0.3L46.8,94l-0.2,0.2l-0.2,0.2
	c-0.1,0.1-0.1,0.2-0.2,0.3l0.1-0.2l0,0c-0.1,0.2-0.2,0.4-0.3,0.6c0,0.1-0.1,0.2-0.1,0.3l0,0c0,0,0,0.1,0,0.2l0,0c0-0.1,0-0.1,0-0.2
	l-0.1,0.3v0.5c0,0.1,0,0.3,0,0.4s0.1,0.3,0.1,0.5s0.2,0.5,0.3,0.8s0.2,0.4,0.3,0.6s0.3,0.5,0.5,0.8s0.3,0.3,0.4,0.5
	c0.1,0.1,0.3,0.2,0.4,0.3l0,0l-0.1-0.1l0.2,0.1l0.2,0.1h0.1h0.1h0.2h0.2c0.3-0.1,0.6-0.1,1-0.2c0.9-0.3,1.8-0.6,2.7-0.9
	c1.8-0.6,3.8-1.1,5.7-0.3c1.5,0.8,2.8,2,3.5,3.6c0.6,1,1.1,2.1,1.5,3.3c0.8,2.3,1.4,4.7,1.9,7.1c0.5,2.4,0.8,4.8,1.4,7.2
	c0.1,0.5,0.3,0.9,0.5,1.4c0.1,0.1,0.1,0.3,0.2,0.4l0.1,0.1c0.1,0.1,0.2,0.2,0.3,0.3l0.1,0.1l0.2,0.1h-0.1l0,0
	c0.2,0.1,0.4,0.1,0.6,0.2l0,0l-0.2-0.1l0.4,0.1c0.2,0,0.4,0,0.6,0c0.4,0,0.9,0,1.3-0.1c2.5-0.4,5.1-1,7.5-1.8l-0.3,0.1l0.3-0.1h-0.1
	h0.1H78h0l0.2-0.1l0,0l0,0l0,0l0.3-0.1h-0.2c4.8-1.4,9.5-2.7,14.2-4.3c2.3-0.8,4.6-1.8,7-2.6c1.2-0.4,2.4-0.8,3.7-1
	c1.2-0.3,2.5-0.4,3.8-0.5c4.9-0.3,9.5,2.3,11.8,6.6c0.8,1.5,1.2,3.2,1.3,4.9c0.1,1.9-0.4,3.9-1.4,5.5c-0.7,1.1-1.4,2.1-2.3,3
	c-1.7,1.8-3.6,3.5-5.6,4.9c-2.2,1.5-4.5,2.7-7,3.6c-2.4,0.9-4.9,1.6-7.4,2.1c-2.4,0.4-4.9,0.6-7.3,0.5c-2.6,0.1-5.2,0.2-7.8,0.5
	c-0.7,0.1-1.4,0.2-2.1,0.3l0,0c-1.2,0.2-2.3,0.4-3.5,0.6s-2.4,0.6-3.6,0.9l0.3-0.1c-1,0.4-2.1,0.7-3.1,1.2c-0.5,0.2-1,0.5-1.5,0.8
	c-0.2,0.1-0.4,0.3-0.7,0.4l-0.1,0.1c-0.1,0.1-0.1,0.1-0.2,0.2c0,0.1-0.1,0.1-0.1,0.2c0,0.1-0.1,0.1-0.1,0.2l0,0l0.1,0.1
	c0.2,0.2,0.3,0.3,0.5,0.4c1.4,0.9,2.9,1.8,4.4,2.6l-0.1-0.1c1.8,1,3.7,2,5.4,3.1s3.2,2.3,4.9,3.2c0.5,0.3,1.1,0.6,1.7,0.8
	c0.9,0.3,1.8,0.6,2.7,0.8c2.2,0.5,4.5,0.9,6.8,1.3c2.6,0.5,5.1,1.2,7.6,2.1c1.2,0.5,2.3,1.1,3.4,1.7c1.1,0.6,2.1,1.3,3.1,2.1
	c1.6,1.4,3,3.4,2.7,5.7c-0.4,1.7-1.4,3.2-2.7,4.4c-0.3,0.3-0.7,0.6-1,0.9l-0.1,0.1l0,0l-0.4,0.3l0,0c-1.9,1.5-3.9,2.9-6.1,4
	c-2.2,1.2-4.5,2.3-6.9,3.1c-1.3,0.4-2.6,0.8-3.9,1.1c-1.3,0.3-2.7,0.5-4,0.7c-1.2,0.1-2.5,0.2-3.8,0.1c-1.4-0.1-2.8-0.3-4.1-0.5
	c-4.6-0.9-8.8-3-12.9-5c-2.2-1.1-4.3-2.1-6.4-3.4s-3.9-2.6-6-3.9l0.3,0.1l-0.9-0.5L51,174c-0.4-0.2-0.8-0.4-1.2-0.6
	c-0.1-0.1-0.3-0.1-0.4-0.1c-0.3-0.1-0.6-0.1-0.9-0.2h-0.2l-0.6,0.1l-0.6,0.1c-0.3,0.1-0.7,0.3-1,0.4l-1,0.5c-0.5,0.3-0.9,0.6-1.4,1
	s-0.7,0.7-1.1,1c-0.6,0.7-1.1,1.3-1.7,2c-1.7,2.5-3.3,5.1-4.8,7.8c0.1-0.1,0.1-0.2,0.2-0.3c-1.2,2.3-2.5,4.6-3.8,6.9
	c-1.1,2-2.6,3.8-4.3,5.4c-1.3,1.1-2.9,1.7-4.6,1.7C22.6,199.7,21.5,199.3,20.6,198.7z"/>
</svg>
