<?xml version="1.0" encoding="utf-8"?>
<!-- Generator: Adobe Illustrator 24.1.3, SVG Export Plug-In . SVG Version: 6.00 Build 0)  -->
<svg version="1.1" id="Layer_1" xmlns="http://www.w3.org/2000/svg" xmlns:xlink="http://www.w3.org/1999/xlink" x="0px" y="0px"
	 viewBox="0 0 200 221.2" style="enable-background:new 0 0 200 221.2;" xml:space="preserve">
<path d="M85.2,221.2c-1-0.1-1.9-0.4-2.7-1c-0.8-0.5-1.6-1.2-2.2-1.9c-1.5-1.9-2.7-4-3.6-6.2c-0.4-1.1-0.8-2.3-1.1-3.5l-0.2-0.8
	c-0.4-1.6-0.9-3.2-1.4-4.8c-0.9-3-1.9-6-3.1-9.1c-0.4-1.2-1-2.3-1.5-3.4c-0.3-0.5-0.6-1-1-1.5c-0.2-0.2-0.4-0.5-0.7-0.7
	s-0.4-0.3-0.6-0.5l-0.4-0.3c-0.2-0.1-0.5-0.3-0.8-0.3l-0.3-0.1h-0.4H65h-0.2h-0.2l-0.3,0.1c-0.5,0.2-0.9,0.4-1.3,0.6
	c-0.7,0.4-1.4,0.9-2.2,1.4c-0.4,0.3-0.8,0.6-1.2,1s-0.7,0.6-1,0.9l-0.1,0.1c-0.8,0.9-1.6,1.8-2.3,2.7c-0.5,0.6-1,1.2-1.5,1.9
	l-0.5,0.7c-1.5,1.9-2.9,3.8-4.6,5.5c-0.8,0.9-1.7,1.7-2.6,2.5c-0.8,0.7-1.7,1.3-2.6,1.8c-0.6,0.3-1.2,0.6-1.8,0.7
	c-0.4,0.1-0.9,0.1-1.3,0.2c-0.2,0-0.5,0-0.7-0.1h-0.2c-0.2,0-0.4-0.1-0.6-0.2c-0.3-0.1-0.5-0.3-0.8-0.4c-0.4-0.3-0.8-0.7-1-1.1
	c-0.4-0.9-0.6-1.9-0.6-2.9c0-1.2,0.1-2.3,0.3-3.4c0.2-1.3,0.4-2.7,0.8-3.9c0.4-1.4,0.8-2.7,1.3-3.9c0.9-2.3,1.9-4.6,2.8-6.9l0.4-1.1
	c0,0,0-0.1,0-0.1c1.2-2.9,2-5.2,2.7-7.4s1.3-4.4,1.9-6.5l0.3-1.2v-0.1l0.1-0.3c0-0.1,0.1-0.3,0.1-0.5l0.1-0.2l0,0
	c0.4-1.6,0.9-3.1,1.3-4.6c0.1-0.5,0.3-0.9,0.4-1.4c0.3-1,0.7-2.1,1-3.1c0.2-0.7,0.3-1.3,0.4-2c0-0.3,0.1-0.6,0.1-0.9
	c0-0.1,0-0.3,0-0.4c0-0.1,0-0.2,0-0.2c0-0.1,0-0.2-0.1-0.3l0,0v-0.1v-0.1l-0.1-0.1l0,0c-0.1-0.1-0.2-0.2-0.3-0.4c0,0-0.1,0-0.1-0.1
	l-0.5-0.4l-0.6-0.4L49,152c-0.3-0.2-0.6-0.5-0.9-0.8c-0.4-0.4-0.7-1-0.9-1.6c-0.1-0.6-0.1-1.3,0.1-1.9c0.1-0.4,0.3-0.8,0.5-1.2
	s0.2-0.5,0.3-0.8l0.3-0.8c0.2-0.5,0.3-0.9,0.5-1.4c0-0.2,0.1-0.4,0.1-0.6v-0.1c0-0.1,0-0.1,0-0.2s0-0.2,0-0.4c0-0.1,0-0.2,0-0.3
	c0-0.1-0.1-0.3-0.1-0.4s-0.2-0.5-0.3-0.7s-0.3-0.4-0.4-0.7s-0.6-0.7-0.9-1c-0.5-0.5-1.2-1-1.7-1.5c-0.2-0.2-0.5-0.4-0.7-0.6
	c-0.9-0.6-1.4-1.7-1.4-2.8c0.1-0.8,0.6-1.6,1.2-2.2c0.3-0.4,0.7-0.8,1-1.1s0.8-0.8,1.1-1.2c0.7-0.7,1.3-1.5,2.1-2.5
	c0.4-0.6,0.7-1.1,1-1.6c0.2-0.4,0.4-0.7,0.5-1.1s0.2-0.5,0.3-0.8l0.1-0.4c0-0.2,0-0.3,0-0.5l0,0c0-0.1,0-0.3,0-0.4l-0.1-0.3l0,0l0,0
	v0.1l0,0l0,0c0,0-0.1-0.3-0.2-0.5s-0.1-0.2-0.2-0.3c-0.1-0.1-0.1-0.2-0.2-0.3c-0.1-0.1-0.1-0.2-0.2-0.2c-0.2-0.2-0.3-0.3-0.5-0.4
	c-0.1-0.1-0.2-0.1-0.3-0.2c-0.7-0.4-1.5-0.7-2.2-1l-0.7-0.3c-1.3-0.5-2.4-1.2-3.5-2c-1-0.8-1.8-1.7-2.4-2.8
	c-0.5-1.1-0.6-2.4-0.3-3.6c0.4-1.2,1-2.4,1.8-3.4c0.6-0.8,1.3-1.6,2.1-2.3c0.8-0.8,1.7-1.6,2.6-2.3c0.8-0.7,1.7-1.4,2.7-2
	c2.3-1.6,4.1-2.8,5.9-3.8l1.5-0.9l0.2-0.1c0.2-0.1,0.3-0.2,0.5-0.3l1.5-0.8l0.2-0.1l0.3-0.2l0,0l0,0l0,0l0,0l1-0.6
	c1.4-0.8,2.8-1.5,4.1-2.2s2.6-1.4,3.9-2.1l1.8-1.1c0.4-0.3,0.9-0.6,1.3-0.9l0.6-0.4l0,0l0,0l0,0l0.2-0.1l0.3-0.2l0.6-0.5
	c0.7-0.5,1.4-1.1,2-1.8c0.5-0.5,1-1,1.4-1.6s0.8-1.1,1.1-1.7s0.5-1,0.7-1.5s0.4-1.1,0.6-1.7c0.3-1,0.5-2,0.6-3v-0.1V75
	c-0.1-0.6-0.2-1.2-0.3-1.8v-0.1c-0.1-0.2-0.2-0.4-0.3-0.6l-0.2-0.3c-0.1-0.1-0.1-0.1-0.2-0.2L78.1,72L78,71.9
	c-0.2-0.1-0.4-0.2-0.6-0.3c-1.1,0.7-2.2,1.4-3.4,2.3s-2.5,2-3.6,3c-1.8,1.6-3.6,3.1-5.6,4.5c-1.7,1.1-3.4,2.2-5.1,3.1l-0.3,0.2
	c-0.6,0.3-1.1,0.6-1.8,0.9c-0.4,0.1-0.8,0.2-1.2,0.3h-0.1c-0.4,0-0.9-0.1-1.3-0.4c-0.3-0.2-0.6-0.5-0.7-0.9c-0.2-0.5-0.2-1,0-1.5
	c0.1-0.4,0.3-0.9,0.5-1.3l0.2-0.4c0.3-0.8,0.6-1.6,0.9-2.5c0.1-0.4,0.2-0.9,0.3-1.4s0.1-1,0.1-1.4s-0.1-1-0.1-1.6
	c-0.1-0.3-0.1-0.7-0.2-1s-0.2-0.7-0.3-1.1c-0.1-0.2-0.1-0.3-0.2-0.5c-0.5,0.2-1.1,0.4-1.7,0.6c-1.1,0.4-2.1,0.9-3.1,1.5
	c-0.9,0.5-1.7,1.1-2.6,1.7s-2,1.3-3,1.9s-2.2,1.3-3.3,1.8c-0.8,0.4-1.5,0.8-2.3,1.1l-0.7,0.3c-1.2,0.6-2.3,1-3.3,1.4
	c-0.7,0.3-1.4,0.5-2.1,0.6c-0.5,0.1-1,0.2-1.5,0.2h-0.4c-0.6,0-1.2-0.2-1.7-0.4c-0.6-0.3-1.1-0.6-1.6-1.2c-0.6-0.8-0.9-1.8-0.7-2.8
	c0.2-0.8,0.5-1.6,1-2.3c0.6-1,1.4-1.9,2.2-2.7c1.5-1.4,3.1-2.7,4.6-4l2.3-1.9c0.8-0.7,1.5-1.3,2.2-2l0,0l0.1-0.1l0.1-0.1
	c0.2-0.2,0.3-0.4,0.5-0.5l0,0l0,0l0.2-0.2l-0.1,0.1l0.5-0.5l0.5-0.5c0.2-0.2,0.4-0.5,0.6-0.7l0.2-0.3c0.4-0.5,0.7-1,1-1.5
	s0.4-0.8,0.6-1.2s0.2-0.6,0.3-0.9s0.2-0.7,0.2-1s0.1-0.7,0.1-1c0-0.2,0-0.4,0-0.5c0-0.3-0.1-0.5-0.1-0.7s-0.1-0.3-0.1-0.4
	s-0.2-0.5-0.3-0.7s-0.3-0.5-0.5-0.7s-0.3-0.3-0.4-0.5l-0.4-0.4L42.2,53l-0.4-0.2h-0.1l-0.2-0.1L41,52.6h-0.5h-0.6l-1,0.2l0,0
	c-0.6,0.1-1.1,0.3-1.7,0.5c-2.7,0.8-5.4,1.9-8,3L29,56.3l-2.4,1c-1.3,0.6-2.6,1.1-3.9,1.6c-1.1,0.4-2.2,0.9-3.6,1.3
	c-1.4,0.5-2.8,0.8-4.3,1c-0.9,0.1-1.8,0.2-2.7,0.2c-0.8,0-1.5,0-2.3-0.1c-1.4-0.1-2.8-0.5-4.1-1C4.5,59.8,3.4,59,2.5,58
	c-0.9-1.1-1.6-2.3-2-3.7c-0.4-1.5-0.6-3-0.5-4.6c0.1-3,0.8-6,2-8.7c1-2.2,2.1-4.3,3.6-6.3l0.3-0.4l0.8-1.1c0.3-0.4,0.6-0.7,0.9-1.1
	l0.4-0.5c0.7-0.9,1.5-1.8,2.2-2.6l0.2-0.2c1.6-1.7,3.3-3.4,5.1-4.9c0.7-0.6,1.3-1.1,1.9-1.6l0.8-0.6c0.6-0.5,1.3-1,2-1.5l0.9-0.7
	c0.6-0.4,1.2-0.9,1.9-1.3l0.9-0.6c0.3-0.2,0.6-0.4,1-0.6l0.5-0.3l0.5-0.3c0.4-0.2,0.7-0.4,1.1-0.6l0,0l0,0c0.3-0.2,0.5-0.3,0.8-0.5
	c0.7-0.4,1.4-0.8,2.1-1.2l1-0.5c0.7-0.4,1.4-0.8,2.2-1.1l2.1-1l1.2-0.6c0.8-0.4,1.5-0.7,2.3-1c0.4-0.2,0.8-0.3,1.1-0.5
	c0.8-0.3,1.6-0.6,2.3-0.9l1.2-0.5c0.8-0.3,1.6-0.6,2.4-0.9l1-0.3c1.8-0.7,3.7-1.2,5.5-1.8l1.1-0.3c2.1-0.7,4.3-1.3,6.5-1.8l0.8-0.2
	c2-0.5,4-1,6.1-1.3h0.3c1.1-0.2,2.2-0.4,3.4-0.6s2.4-0.3,3.9-0.4c2.3-0.3,4.6-0.4,6.9-0.5h1.1h1c0.4,0,0.8,0,1.3,0h0.7l1.3,0.1
	c1.4,0.1,2.7,0.4,4,0.8c2.9,0.9,5.6,2.4,7.9,4.4c0.8,0.6,1.6,1.3,2.6,2.2c1.7,1.6,3.3,3.2,4.8,5l0.4,0.5c0.7,0.8,1.3,1.5,2,2.3
	c0.7,0.8,1.5,1.9,2.4,3.1c1.4,1.9,2.6,3.8,3.7,5.9c1.1,2,2,4.2,2.7,6.4l0.6,1.8c0.1,0.4,0.2,0.8,0.4,1.3c0.1,0.2,0.1,0.5,0.2,0.7
	c0.2,0.9,0.4,1.8,0.7,2.7l0.2,0.7c0.1,0.3,0.1,0.7,0.2,1.1l0.1,0.5l0.1,0.4c0.1,0.4,0.1,0.7,0.2,1.1l0.1,0.8
	c0.1,0.9,0.2,1.8,0.3,2.7c0.5,4.7,0.8,9.5,0.9,14.3c0,2.1,0,4.6-0.2,7s-0.3,5-0.5,7.5c-0.3,3.4-0.6,6.3-0.9,9l-0.2,1.3
	c-0.1,1.1-0.3,2.2-0.4,3.2c-0.2,1.6-0.3,3.2-0.4,4.7c0,0.5,0,0.9,0,1.4s0,0.7,0.1,1.1v0.5c0.1,1,0.3,1.9,0.4,2.8s0.4,1.8,0.6,2.6
	l0.1,0.3l0.4,1.5c0.1,0.4,0.2,0.7,0.4,1.1l0.1,0.2c0.4,0.8,0.7,1.6,1.1,2.4c0.3,0.5,0.6,1,1,1.5c0.2,0.2,0.4,0.5,0.6,0.7
	c0.1-0.2,0.2-0.4,0.2-0.7c0.5-1.4,1.1-2.9,1.6-4.3l0.5-1.4l0.5-1.4l0.7-1.8l0.2-0.7c0.6-1.7,1.2-3.4,2-5c0.6-1.3,1.4-2.5,2.2-3.7
	c0.9-1.1,1.8-2.1,2.9-3c1.1-0.9,2.3-1.5,3.6-2c0.7-0.2,1.5-0.4,2.2-0.3c0.5,0,1,0,1.5,0.1c0.6,0.1,1.1,0.3,1.6,0.5
	c1.8,0.7,3.1,2.2,3.7,4c0.4,1.1,0.6,2.1,0.9,3.2c0.2,0.9,0.3,1.8,0.4,2.7v0.4v0.1l0,0c0,0,0,0.1,0,0.1v0.1l0,0l0.1,0.8l0,0l0,0
	c0,0.2,0,0.4,0.1,0.7c0.1,0.9,0.1,1.9,0.2,2.8v0.7c0.1,1.2,0,2.5,0,3.7v0.7c0,1.1-0.1,2.2-0.2,3.2l-0.1,1.1
	c-0.1,1.2-0.1,2.5-0.2,4.1v0.3c0,0.9,0,1.8,0.1,2.7c0.1,0.4,0.1,0.8,0.2,1.2l0.1,0.5l0.1,0.2l0.1,0.1l0,0l0,0l0.1,0.2l0.1,0.1
	l0.1,0.1l0.1,0.1l0,0h0.1l0,0h0.4l0,0l0.2-0.1c1.4-0.4,2.8-0.9,4.1-1.4l0,0l0.2-0.1c0.7-0.3,1.5-0.7,2.2-1c0.9-0.5,1.8-1,2.7-1.5
	c2-1.2,4-2.4,6-3.6s4-2.4,6-3.6c1.8-1.1,3.8-2.1,6.4-3.5c0.3-0.2,0.6-0.3,0.9-0.4l0.4-0.2l0.4-0.2c0.3-0.2,0.7-0.3,1-0.5l2-0.8
	c0.4-0.2,0.8-0.3,1.2-0.5l0.6-0.2c2.4-1,4.9-1.5,7.5-1.6h0.2c3.1,0,5.7,1.2,7.1,3c2,2.8,1.9,6.2,1.6,8.1c-0.2,1.5-0.6,2.9-1.2,4.3
	c-0.6,1.5-1.4,2.9-2.3,4.2c-0.5,0.8-1.1,1.5-1.6,2.1l-0.3,0.4c-0.2,0.3-0.5,0.6-0.8,0.9c-0.9,0.9-1.7,1.9-2.6,2.8s-1.9,1.8-2.9,2.6
	l-0.8,0.6l-0.2,0.2l-0.5,0.4c-0.4,0.3-0.7,0.6-1.1,0.9l-0.8,0.6c-0.6,0.5-1.2,0.9-1.9,1.4c-1.1,0.7-2.1,1.5-3.2,2.2
	c-2.2,1.4-4.4,2.7-6.4,3.8s-4,2.1-5.9,3c-2.2,1.1-4.5,2.1-6.7,3.2l-1.9,0.9c-3.4,1.6-7,3.3-10.6,4.7c-2.1,0.8-4.3,1.7-6.6,2.4
	s-4.4,1.5-6.8,2.2l-0.8,0.2c-0.9,0.3-1.7,0.5-2.6,0.8c-1.2,0.4-2.4,0.8-3.5,1.2c-1.6,0.6-3.2,1.4-4.7,2.2c-0.7,0.4-1.4,0.8-2,1.3
	c-0.5,0.4-0.9,0.8-1.4,1.2c-0.2,0.2-0.4,0.5-0.6,0.7s-0.3,0.4-0.4,0.6c-0.1,0.2-0.2,0.3-0.2,0.5c-0.1,0.1-0.1,0.3-0.1,0.4
	c0,0.1,0,0.2-0.1,0.3v0.2c0,0.1,0,0.1,0,0.2v0.2v0.1l0.4-0.1c0.2-0.1,0.4-0.1,0.7-0.2c1.6-0.6,3.1-1.4,4.6-2.2l1.5-0.8
	c1-0.5,2.1-1,3.2-1.5c1.1-0.5,2.3-0.9,3.4-1.2c1.7-0.5,3.5-0.8,5.3-0.8c1,0,1.9,0.1,2.9,0.2c1.2,0.2,2.4,0.7,3.4,1.5
	c0.9,0.8,1.4,1.9,1.4,3.1c0,0.8-0.2,1.5-0.4,2.2c-0.2,0.6-0.4,1.1-0.6,1.6c-0.3,0.7-0.7,1.4-1.1,2c-0.5,0.8-1.1,1.6-1.8,2.2
	c-0.8,0.8-1.6,1.6-2.4,2.3l-0.2,0.2c-0.8,0.7-1.6,1.4-2.4,2s-1.8,1.5-2.7,2.2s-2,1.5-2.9,2.1c-1.9,1.3-3.9,2.5-6.1,3.8
	c-1.9,1.2-3.9,2.2-6,3.1c-2,0.9-4.1,1.7-6.3,2.2c-1,0.2-2,0.4-3.1,0.7c-0.9,0.2-1.8,0.3-2.6,0.4l-0.5,0.1l-0.7,0.1
	c-1.8,0.2-3.6,0.4-5.4,0.7c-2.3,0.4-4.4,0.8-6.3,1.2l-0.2,0.1c-0.8,0.2-1.7,0.5-2.6,0.8c-0.6,0.2-1.1,0.5-1.6,0.8s-0.8,0.5-1.2,0.8
	c-0.4,0.3-0.7,0.6-1.1,0.9c-0.2,0.3-0.5,0.5-0.7,0.8s-0.3,0.5-0.5,0.7s-0.3,0.5-0.4,0.8s-0.1,0.3-0.2,0.5s-0.1,0.3-0.1,0.4
	s0,0.3,0,0.4s0,0.3,0,0.4s0.1,0.3,0.1,0.4s0.1,0.4,0.2,0.5c0.4,1.1,1,2.1,1.5,3.1l0.2,0.3c0.6,1.1,1.2,2.2,1.7,3.3
	c0.5,1,0.9,2,1.3,3.1c0.5,1.2,0.8,2.5,1,3.8c0.2,1.4,0,2.8-0.4,4.2c-0.2,0.5-0.4,1-0.7,1.5c-0.3,0.5-0.7,0.9-1.1,1.4
	c-0.4,0.4-1,0.7-1.5,0.9c-0.6,0.2-1.2,0.3-1.8,0.3L85.2,221.2z"/>
</svg>
