<?xml version="1.0" encoding="utf-8"?>
<!-- Generator: Adobe Illustrator 24.1.3, SVG Export Plug-In . SVG Version: 6.00 Build 0)  -->
<svg version="1.1" id="Layer_1" xmlns="http://www.w3.org/2000/svg" xmlns:xlink="http://www.w3.org/1999/xlink" x="0px" y="0px"
	 viewBox="0 0 147.8 200" style="enable-background:new 0 0 147.8 200;" xml:space="preserve">
<path d="M69.5,199.8c-1.3-0.4-2.5-1.3-3.2-2.5c-0.5-0.8-0.8-1.6-1.1-2.4c-0.2-0.7-0.3-1.4-0.4-2.1l-0.1-0.6
	c-0.1-0.8-0.2-1.6-0.4-2.3c0,0,0-0.1,0-0.1l0,0c-0.3-1.5-0.7-3.1-1.2-4.6c-0.2-0.5-0.5-1.2-0.8-1.8c-0.6-1.1-1.2-2.2-1.9-3.2
	c-0.8-1.2-1.7-2.4-2.7-3.5c-0.5-0.5-1.1-1.1-1.6-1.6c-0.4-0.3-0.8-0.7-1.3-1s-0.8-0.5-1.2-0.7s-0.6-0.3-1-0.4
	c-0.6-0.2-1.1-0.3-1.7-0.4c-0.6-0.1-1-0.2-1.5-0.2h-0.3h-0.1l-3.3-0.1l-2-0.1c-1-0.1-2.1-0.1-3.1-0.1l-2.8,0h-1.3
	c-1.4-0.1-2.8-0.1-4.2-0.1h-2.5c-1.4,0-2.8-0.1-4.1-0.3c-1.1-0.2-2.1-0.5-3.1-0.9c-1.3-0.5-2.4-1.2-3.5-2c-0.8-0.6-1.4-1.4-1.9-2.3
	c-0.4-0.9-0.8-1.7-1-2.7c-0.3-1-0.5-1.9-0.6-2.9c-0.2-1-0.3-2.1-0.3-3.1c-0.1-1.1-0.1-2.2,0-3.3c0.1-2.1,0.3-4.2,0.6-6.3
	c0-0.3,0.1-0.6,0.2-0.9V147v-0.1c0.4-2,1-3.9,1.8-5.8c0.8-1.9,1.8-3.7,2.9-5.4l1.1-1.7c1.8-2.8,3.6-5.7,5.3-8.7
	c0.4-0.8,0.8-1.6,1.2-2.3s0.7-1.5,1-2.2s0.5-1.3,0.7-1.9l0.1-0.2c0.5-1.6,0.9-3,1.1-4.4s0.6-2.9,1-4.4c0.1-0.7,0.2-1.4,0.3-2.1
	c0-0.9,0-1.8,0-2.6c-0.1-0.6-0.1-1.3-0.2-1.9c-0.1-0.4-0.2-0.8-0.4-1.2s-0.4-1-0.6-1.5c-0.1-0.2-0.3-0.5-0.4-0.7
	c-0.1-0.1-0.2-0.2-0.3-0.3c-0.1-0.1-0.2-0.2-0.3-0.3l-0.2-0.2l-0.2-0.1l-0.2-0.1h0.1h0.1l-0.4-0.1h-0.3h-0.4c-0.4,0-0.8,0.1-1.2,0.2
	c-1.2,0.3-2.4,0.7-3.6,1.1c-0.7,0.2-1.3,0.4-2,0.6c-2,0.6-4.1,1-6.2,1.2c-1.1,0.1-2.3,0.2-3.4,0.3c-0.7,0-1.5,0.1-2.3,0.1
	c-0.9,0-1.8-0.1-2.6-0.2c-1.2-0.2-2.4-0.6-3.4-1.3c-0.9-0.6-1.6-1.3-2.2-2.1c-0.6-0.7-1.1-1.6-1.4-2.4c-0.4-1.1-0.4-2.3-0.2-3.5
	c0.7-4.1,2.3-8.1,4.7-11.5c0.3-0.4,0.6-0.9,0.9-1.3s0.7-0.8,1-1.2l0.1-0.1c0.7-0.7,1.5-1.4,2.3-2c1.8-1.3,3.7-2.3,5.7-3
	c2-0.8,3.8-1.6,5.5-2.3s3.8-1.7,5.7-2.5c1.4-0.6,2.8-1.3,4.2-2l1.3-0.6c2.1-1,3.9-1.8,5.6-2.4s3.3-1.2,4.9-1.7l0.9-0.3
	c1.3-0.5,2.7-1,4-1.5l1.4-0.6c0.8-0.3,1.7-0.7,2.5-1l1.7-0.7c0.8-0.3,1.6-0.6,2.4-0.9c1.3-0.5,2.6-1.1,4.1-1.8s3-1.6,4.4-2.4
	l2.7-1.5c2.5-1.4,4.8-2.6,7-4.1c0.5-0.4,1-0.8,1.5-1.2s0.7-0.7,1-1.1c0.4-0.5,0.9-1.1,1.3-1.7c0.2-0.4,0.5-0.8,0.7-1.3l0.1-0.2
	L78,41c0.1-0.4,0.2-0.8,0.3-1.2c0.2-0.9,0.3-1.7,0.3-2.6c0.1-1.7,0.1-3.5,0-5.3V32c-0.2-2.2-0.4-4.3-0.8-6.5
	c-0.4-1.9-0.9-3.8-1.6-5.7l-0.2-0.6c-0.7-1.7-1.1-3.5-1.4-5.3c-0.1-1-0.2-2.1-0.3-3.2c0-1.1,0-2.2,0.1-3.3C74.6,6.8,74.8,6,75,5.3
	c0.3-1.1,1-2.2,1.8-3l0.1-0.1l0,0c0-0.3,0.2-0.7,0.4-0.9c0.1-0.1,0.2-0.2,0.3-0.3c0.1-0.2,0.3-0.3,0.4-0.5c0.2-0.2,0.5-0.3,0.8-0.4
	C79.1,0,79.5,0,79.8,0c0.4,0,0.8,0.1,1.2,0.2c1.3,0.4,2.5,1,3.6,1.7c1.2,0.8,2.3,1.9,3.2,3.1c1,1.3,1.8,2.6,2.5,4.1
	c1.6,3.2,2.9,6,4,8.6l0.5,1.2c0.4,1,0.9,2,1.3,3.1c0.3,0.7,0.5,1.4,0.8,2.1c0.2,0.5,0.3,0.9,0.5,1.4l0.2,0.6l0.2,0.5
	c0.2,0.5,0.3,0.9,0.4,1.4s0.3,1,0.4,1.5l0.2,0.8c0.1,0.4,0.2,0.8,0.3,1.3l0.2,0.7l0.1,0.5c0.1,0.5,0.2,1,0.3,1.5
	c0.2,1.2,0.5,2.5,0.7,3.7c0.1,0.3,0.1,0.6,0.2,0.9c0.2,0.8,0.3,1.7,0.5,2.6c0.3,1.2,0.7,2.5,1.2,3.7c0.2,0.4,0.4,0.8,0.6,1.2
	c0.3,0.3,0.7,0.6,1,0.9s0.6,0.5,0.9,0.7l0.6,0.3h0.1l0,0c0.2,0.1,0.3,0.1,0.5,0.1h0.2h0.8c0.3,0,0.7-0.1,1-0.1s0.8-0.2,1.2-0.3
	s1-0.4,1.6-0.6c0.7-0.4,1.4-0.8,2.2-1.3c1.1-0.8,2.2-1.6,3.2-2.5l1.4-1.1c1.6-1.2,3.4-2.2,5.3-3c1-0.5,2.2-0.7,3.3-0.7
	c0.6,0,1.1,0.1,1.6,0.2c0.9,0.2,1.7,0.8,2.3,1.6c0.4,0.6,0.6,1.3,0.7,2.1c0.1,0.7,0.1,1.3-0.1,2c-0.2,0.7-0.5,1.5-0.9,2.1
	c-0.3,0.5-0.7,1-1.2,1.5c-0.4,0.4-0.8,0.8-1.3,1.2c-1,0.8-2.1,1.6-3.2,2.4l-1.6,1.3c-1,0.7-1.9,1.4-2.8,2.1l-2,1.5
	c-1.3,1-3.1,2.3-5,3.5c-1.6,1-3.3,2-5,2.9l-0.2,0.1c-1.8,1-3.8,2.1-5.8,3.1l-0.2,0.1h-0.1l0,0l-0.2,0.1h-0.1h-0.1
	c-2.2,1.1-4.2,2.2-6.3,3.6c-1.3,0.9-2.2,1.6-3.1,2.4c-0.3,0.3-0.7,0.7-1,1.1s-0.5,0.7-0.8,1s-0.3,0.4-0.4,0.7s-0.1,0.2-0.2,0.4
	c-0.1,0.2-0.1,0.4-0.1,0.5c0,0.3-0.1,0.5-0.1,0.8v0.5c0,0.3,0.1,0.6,0.1,1v0.2c0,0.1,0.1,0.1,0.1,0.2l0.2,0.3l0.1,0.1l0.3,0.3
	l0.3,0.2c0.2,0.2,0.5,0.3,0.8,0.4c0.2,0.1,0.4,0.2,0.6,0.2l0.2,0.1l0.5,0.1c0.6,0,1.2,0,1.7,0h1c0.7,0,1.3,0,1.9,0.1h1h1.8
	c1.4,0,2.8,0,4.2,0.2c1.1,0.1,2.3,0.4,3.3,0.8c1,0.5,1.9,1.2,2.8,2c0.8,0.7,1.5,1.4,2.2,2.1c0.7,0.7,1.3,1.6,1.8,2.4
	c0.8,1.2,1.3,2.6,1.5,4c0.1,1.3,0.2,2.6,0.1,3.8c0,1.1-0.1,2.4-0.2,3.8c0,0.6-0.1,1.2-0.2,1.9s-0.1,1.1-0.2,1.7
	c-0.1,0.9-0.1,1.8,0,2.7c0.1,0.6,0.1,1.1,0.2,1.6c0.1,0.6,0.3,1.1,0.5,1.7c0.1,0.3,0.3,0.7,0.4,1c0.1,0.2,0.2,0.4,0.3,0.5l0.2,0.3
	c0.1,0.1,0.1,0.1,0.2,0.2l0.3,0.2c0.5,0.3,1,0.6,1.6,0.9c0.6,0.3,1.1,0.5,1.6,0.7c0.9,0.3,1.8,0.5,2.6,0.7s1.8,0.5,2.7,0.8l0.7,0.2
	c0.6,0.2,1.3,0.4,1.9,0.6l0.8,0.2c0.7,0.2,1.4,0.4,2.1,0.6l0.7,0.2c1.6,0.5,3.3,0.9,4.8,1.5l1.7,0.7l0.8,0.3c1,0.4,1.9,0.8,2.8,1.3
	c1.2,0.7,2.2,1.6,2.9,2.8c0.6,0.8,1.2,1.7,1.6,2.7c0.2,0.5,0.5,1,0.6,1.5c0.2,0.7,0.4,1.5,0.4,2.3c0,1-0.1,2-0.2,3
	c-0.1,1-0.3,2-0.5,3c-0.1,0.5-0.3,0.9-0.5,1.4c-0.3,0.6-0.7,1.2-1.1,1.8c-0.8,1.1-1.9,2-3.2,2.5c-0.4,0.2-0.9,0.3-1.3,0.3l0,0
	c-1.1,0-2.1-0.4-2.9-1.1c-0.8-0.9-1.3-2.2-1.3-3.4c0-0.6,0-1.2,0-1.8c-0.1-1-0.2-2-0.4-2.9c-0.2-0.8-0.4-1.6-0.7-2.4
	c-0.1-0.4-0.3-0.8-0.5-1.1c-0.1-0.2-0.2-0.4-0.3-0.6c-0.2-0.3-0.4-0.6-0.6-0.8c-0.2-0.2-0.4-0.4-0.7-0.6c-0.6-0.4-1.1-0.8-1.6-1.2
	s-1-0.7-1.6-0.9s-0.9-0.4-1.3-0.6l-1.2-0.3c-0.5-0.1-0.9-0.2-1.4-0.2h-0.9c-0.6,0-1.3,0-2,0.1h0.1c-2.1,0.2-4.1,0.6-6.2,1h-0.1
	l-0.7,0.1c-0.6,0.1-1.3,0.3-1.9,0.4h-0.2c-0.8,0.2-1.7,0.4-2.5,0.5c-0.7,0.1-1.3,0.1-2,0.1c-1.3,0-2.5-0.1-3.7-0.3
	c-1.9-0.3-3.8-0.8-5.7-1.5c-0.8-0.3-1.5-0.7-2.2-1c-1-0.5-2-1-3-1.3c-0.6-0.2-1.2-0.3-1.9-0.5s-1.3-0.2-2-0.3h-0.4
	c-0.4,0-0.8,0-1.2,0s-0.5,0-0.7,0.1c-0.1,0-0.2,0-0.2,0.1h0.1h-0.2l-0.2,0.1l-0.2,0.1l0,0l-0.1,0.1l-0.2,0.2
	c-0.2,0.2-0.3,0.4-0.4,0.6c-0.3,0.5-0.6,0.9-0.8,1.4c-0.3,0.7-0.6,1.4-0.9,2.1l-0.2,0.5c-0.4,1-0.8,1.9-1.1,2.7
	c-0.9,1.9-2.2,3.7-3.9,5c-0.7,0.6-1.6,0.9-2.5,1.1c-0.3,0-0.6,0-0.8,0c-0.2,0-0.5,0-0.7,0c-0.9-0.1-1.9-0.3-2.8-0.7
	c-1.3-0.6-2.6-1.2-3.8-2c-0.4-0.3-0.9-0.5-1.3-0.8c-0.7-0.4-1.4-0.8-2.1-1.1l-0.6-0.3l-0.8-0.4c-0.6-0.3-1.2-0.6-1.7-0.9
	c-0.6-0.3-1.1-0.5-1.7-0.7c-0.5-0.2-0.9-0.3-1.4-0.4c-0.3,0-0.5-0.1-0.8-0.1h-0.2l-0.6,0l-0.3,0.1l-0.3,0.1l-0.2,0.1
	c-0.1,0.1-0.2,0.1-0.2,0.2l-0.3,0.3l-0.5,0.6c-0.2,0.3-0.3,0.6-0.5,0.9s-0.3,0.7-0.4,1.1s-0.3,1.1-0.4,1.7c-0.2,0.9-0.3,1.8-0.4,2.7
	c-0.1,1.1-0.1,2.2,0,3.3c0.1,1,0.2,2.1,0.5,3.1c0,0.1,0,0.2,0,0.2v0.1l0,0v0.1c0.2,0.8,0.4,1.7,0.7,2.5c0.2,0.5,0.4,0.9,0.6,1.3
	s0.4,0.8,0.7,1.1s0.3,0.5,0.5,0.7s0.5,0.5,0.7,0.7l0.2,0.2l0.4,0.2l0.4,0.1h0.2H61c0.6-0.1,1.3-0.2,2.1-0.3c0.6-0.1,1.3-0.3,1.9-0.5
	c0.3-0.1,0.6-0.2,0.9-0.4s0.8-0.4,1.2-0.6c0.6-0.4,1.3-0.8,2-1.1c0.8-0.4,1.7-0.6,2.5-0.7h0.5c0.4,0,0.9,0,1.3,0.1
	c0.7,0.1,1.4,0.4,1.9,0.9c0.7,0.6,1.2,1.4,1.4,2.3c0.2,0.7,0.2,1.4,0.2,2.1c0,0.6-0.2,1.3-0.2,1.9s-0.2,1.1-0.2,1.6s0,0.9,0,1.5
	c0,0.3,0.1,0.6,0.1,1c0,0.1,0.1,0.2,0.1,0.4v0.1v0.1l0.1,0.1l0.1,0.1l0.1,0.1c0.2,0.1,0.3,0.2,0.5,0.3s0.5,0.2,0.8,0.3l0.5,0.1h0.2
	h0.4c0.3,0,0.5-0.1,0.8-0.1c0.2,0,0.4-0.1,0.6-0.1c0.3-0.1,0.7-0.3,1-0.4c0.4-0.2,0.9-0.5,1.3-0.8l0.2-0.1l0.2-0.1l0.1-0.1
	c1-0.7,1.9-1.5,2.8-2.2l0.6-0.5c0.8-0.7,1.7-1.4,2.6-2.2c1-0.9,2-1.9,2.8-2.9l1.6-1.9l0.2-0.3l0.3-0.3c0.5-0.6,1.1-1.3,1.7-1.9
	c1.4-1.4,2.9-2.7,4.5-3.9c0.8-0.7,1.6-1.2,2.5-1.8c0.9-0.5,1.8-1,2.8-1.3c1-0.3,2-0.5,3-0.6h0.1c1,0,1.9,0.4,2.6,1.2
	c0.3,0.4,0.5,0.8,0.7,1.2c0.2,0.5,0.2,1,0.2,1.5c0,0.6-0.2,1.2-0.3,1.8l-0.1,0.4c-0.4,1.2-0.8,2.3-1.4,3.4c-0.5,1-1.2,2.1-1.9,3.3
	c-1.5,2.1-3.2,4-5.1,5.6v-0.1l-0.3,0.3l-1.4,1.3c-1.2,1.1-2.4,2.1-3.6,3.2c-0.8,0.7-1.6,1.4-2.4,2.1s-1.7,1.4-2.5,2.2
	c-0.4,0.4-1,0.9-1.5,1.5c-0.2,0.2-0.4,0.5-0.6,0.8c-0.3,0.5-0.6,1-0.9,1.6c-0.1,0.3-0.2,0.6-0.4,1c-0.2,0.6-0.3,1.1-0.4,1.6
	c-0.1,0.3-0.1,0.6-0.1,0.9s0,0.8,0,1.2c0.1,0.6,0.1,1.3,0.3,1.9c0.2,0.9,0.4,1.7,0.7,2.5s0.6,2,0.8,2.9s0.4,2,0.5,2.8
	c0.1,0.5,0.1,1,0.1,1.6c0,0.5,0,1-0.1,1.5c-0.1,1-0.4,1.9-0.9,2.8c-0.4,0.9-1,1.8-1.6,2.6c-1.4,1.5-2.9,2.9-4.5,4.1
	c-0.8,0.6-1.5,1.2-2.4,1.7c-0.9,0.6-1.9,1-3,1.4c-1.7,0.5-3.4,0.9-5.1,1.3l-0.5,0.1c-0.5,0.1-0.9,0.2-1.4,0.3
	c-0.4,0.1-0.7,0.1-1.1,0.1C70.4,200,70,199.9,69.5,199.8z"/>
</svg>
