<?xml version="1.0" encoding="utf-8"?>
<!-- Generator: Adobe Illustrator 24.1.3, SVG Export Plug-In . SVG Version: 6.00 Build 0)  -->
<svg version="1.1" id="Layer_1" xmlns="http://www.w3.org/2000/svg" xmlns:xlink="http://www.w3.org/1999/xlink" x="0px" y="0px"
	 viewBox="0 0 128 200" style="enable-background:new 0 0 128 200;" xml:space="preserve">
<path d="M54.1,200c-0.7,0-1.5-0.1-2.2-0.2c-1.3-0.3-2.6-1-3.5-2c-0.5-0.6-0.8-1.2-1.2-1.9c-0.6-1.3-1.2-2.6-1.6-3.9
	c-0.3-0.9-0.6-1.9-0.8-2.8c-0.1-0.5-0.3-1-0.4-1.4l-0.1-0.2c0-0.1-0.1-0.3-0.1-0.4c-0.2-0.6-0.4-1.2-0.6-1.8c-0.3-1.1-0.7-2.2-1-3.3
	c-0.5-1.8-1-3.6-1.5-5.5c-0.2-1-0.5-2-0.7-3c-0.1-0.7-0.3-1.4-0.4-2c-0.4-1.8-0.8-3.4-1.2-4.9c-0.8-2.7-1.7-5.3-2.7-7.8
	c-0.2-0.5-0.5-0.9-0.7-1.4s-0.5-0.7-0.7-1s-0.5-0.6-0.8-0.8s-0.3-0.3-0.5-0.4c-0.1-0.1-0.2-0.1-0.3-0.2h-0.1l-0.2-0.1l-0.2-0.1
	l-0.9-0.2c-0.3,0-0.5,0-0.8,0c-0.7,0-1.4,0.1-2,0.2c-0.3,0.1-0.6,0.1-0.9,0.2s-0.8,0.3-1.2,0.4l-0.4,0.2c-0.4,0.3-0.8,0.5-1.1,0.8
	c-0.5,0.4-0.9,0.7-1.4,1.1c-1.1,1.3-2.1,2.7-2.9,3.7c-1,1.5-2.3,3.2-3.4,5.1c-0.3,0.5-0.7,1-1,1.6c-0.9,1.3-1.7,2.7-2.6,4
	c-0.8,1.1-1.7,2.2-2.7,3.2c-0.7,0.6-1.4,1.1-2.2,1.5c-1.1,0.6-2.3,1-3.6,1.1H5.3c-1,0-1.9-0.3-2.7-0.8c-0.9-0.7-1.6-1.6-1.9-2.7
	c-0.3-1-0.5-2.1-0.6-3.1c-0.1-1.1-0.1-2.2,0.1-3.2v-0.2c0.1-1,0.2-2,0.4-3.2c0.4-2.2,0.8-4.4,1.4-6.7c0.5-2.1,1.3-4.2,2.3-6.2
	c0.5-0.9,1-1.8,1.5-2.6l0.2-0.3c0.6-0.9,1.1-1.9,1.7-2.8c0.3-0.6,0.7-1.1,1-1.7c0.9-1.6,1.9-3.4,3-4.9c1.3-1.8,2.6-3.6,4-5.2
	c1.1-1.4,2.3-2.7,3.5-4.1l0.7-0.8c1.5-1.7,2.9-3.4,4.4-5c0.7-0.7,1.5-1.4,2.2-2.1s1.6-1.5,2.3-2.2s1.3-1.5,1.8-2.2
	c1.3-1.9,2.5-3.8,3.6-5.8c0.3-0.6,0.5-1,0.7-1.5c0.1-0.2,0.1-0.3,0.2-0.5s0.1-0.4,0.1-0.6s0-0.3,0-0.5s0-0.6-0.1-0.9
	s-0.1-0.6-0.2-0.9s-0.2-0.5-0.3-0.7l-0.2-0.3c-0.2-0.2-0.3-0.4-0.5-0.7l-0.4-0.4c-0.5-0.4-1-0.8-1.5-1.2l-0.9-0.7
	c-0.8-0.6-1.6-1.4-2.3-2.1c-1.7-1.8-2.9-4-3.6-6.3c-0.3-1.8,0.1-3.6,0.9-5.1c0.4-1,0.9-2,1.5-2.9c1.1-1.8,2.4-3.6,3.8-5.2
	c2.8-3.3,6-6.3,9.5-8.8c1.8-1.3,3.7-2.5,5.6-3.6c0.9-0.5,1.8-0.9,2.7-1.4S51,66.5,52,66c2-1.1,4-2.2,6-3.4l0.3-0.2l0.2-0.1
	c0.5-0.9,1.2-1.7,1.8-2.5c0.3-0.4,0.5-0.7,0.8-1.1c0.3-0.4,0.6-0.9,0.9-1.4c0.2-0.4,0.4-0.8,0.5-1.2l0.1-0.2c0.4-1,0.7-1.9,1-2.9
	c0.1-0.3,0.1-0.6,0.2-1s0.2-0.8,0.3-1.2c0,0,0-0.1,0-0.1c0.1-0.5,0.2-0.9,0.3-1.4c0-0.2,0-0.5,0-0.7c0-0.6-0.1-1-0.1-1.5
	c0-0.2-0.1-0.3-0.1-0.5c0-0.1-0.1-0.2-0.1-0.3l-0.1-0.2V46c-0.1-0.2-0.3-0.4-0.5-0.6c-0.4-0.4-0.8-0.8-1.2-1.2s-0.5-0.5-0.8-0.8
	c-0.7-0.7-1.3-1.5-2.1-2.5c-0.6-0.7-1.1-1.5-1.5-2.3l-0.2-0.2l-1.7-2.6c-1.5-2.3-3.5-5.3-2.7-8.4c0.3-1,0.8-2,1.5-2.8
	c0.6-0.6,1.3-1.2,2.1-1.5c1-0.5,2-0.8,3-1.1c1.1-0.3,2.2-0.6,3.3-0.9c1.1-0.2,2.1-0.4,3.2-0.4h0.1c2.2,0,4.3,0.4,6.4,1
	c2.1,0.6,4.2,1.3,6.3,1.9c1,0.3,2,0.7,3,1.1c0.6,0.2,1.1,0.5,1.7,0.8l1.2,0.6c0.6,0.3,1,0.5,1.5,0.7c1.8,0.7,3.7,1.2,5.6,1.7
	c0.6,0.1,1.2,0.2,1.9,0.3c0.3,0,0.6,0,1,0.1c0.7,0,1.4-0.1,2.1-0.2c0.3-0.1,0.7-0.2,1.1-0.2s0.6-0.2,0.8-0.3l0.2-0.1l0.1-0.1l0,0
	h0.1l0.5-0.3c0.3-0.2,0.6-0.4,0.8-0.6s0.7-0.6,1-0.9s0.4-0.5,0.6-0.7s0.5-0.8,0.7-1.2s0.4-0.9,0.6-1.3l0.4-1.1
	c0.6-1.6,1.2-3.2,1.9-4.8c0.9-1.9,1.9-3.8,3-5.9c1-1.9,2.1-3.8,3.4-5.6c1.4-1.7,3.1-3.2,5.1-4.2c1-0.6,2-1,3.1-1.3
	c0.6-0.1,1.3-0.2,1.9-0.2c0.8,0,1.6,0.1,2.4,0.3c1.1,0.2,2.1,0.9,2.8,1.9c0.5,0.9,0.6,1.9,0.4,2.9c-0.1,0.4-0.1,0.8-0.2,1.2
	c-0.1,0.7-0.2,1.3-0.3,2c0,0.5-0.1,1-0.1,1.4s-0.1,0.9-0.1,1.4s-0.1,1.1-0.2,1.6c-0.1,0.6-0.2,1.2-0.4,1.7c-0.3,1-0.6,1.9-1,2.8
	c-0.3,0.7-0.6,1.3-0.8,2l-0.4,1c-0.9,2.1-1.7,3.9-2.7,5.8s-1.8,3.6-2.8,5.8c-0.5,1-1,2.1-1.6,3.2c-0.3,0.5-0.5,1-0.8,1.4
	s-0.7,1.2-1,1.8c-0.4,0.8-0.7,1.5-1,2.4c-0.6,1.5-1.1,3-1.7,4.4c-0.1,0.3-0.2,0.6-0.3,0.9c0,0.1,0,0.2,0,0.2v-0.1c0,0.1,0,0.2,0,0.3
	v0.2v0.1c0,0.1,0,0.1,0,0.2l0.1,0.2l0.1,0.2l0.1,0.1l0.1,0.2l0.1,0.1l0.3,0.2c0.2,0,0.4,0.1,0.6,0.1c0.6,0,1.2,0.1,1.7,0.1l1.2,0.1
	c1.2,0.1,2.3,0.3,3.4,0.6c1,0.3,3.4,1.1,4.2,3.2c0.3,1.4,0.1,2.9-0.6,4.1c-0.5,1-1,1.9-1.7,2.8c-0.6,0.9-1.2,1.7-1.9,2.5
	c-1.3,1.3-2.8,2.5-4.4,3.5l-0.5,0.4c-2.1,1.5-4.3,2.9-6.6,4.1l-1.9,1c-1.5,0.8-3.1,1.6-4.6,2.5c-0.6,0.4-1.2,0.8-1.7,1.2l-0.1,0.1
	l-0.1,0.1l-0.1,0.2c0.3,0.2,0.6,0.4,0.9,0.7s0.8,0.5,1.3,0.8c0.6,0.3,1.3,0.6,1.9,0.9l0.5,0.2c1,0.5,1.9,1.1,2.8,1.7l0.2,0.2
	c0.9,0.5,1.7,1.3,2.4,2.1c0.6,0.8,0.9,1.9,0.8,2.9c-0.1,1.1-0.4,2.2-0.9,3.2c-1,1.9-2.4,3.6-4,5c-1.5,1.4-3.1,2.6-4.9,3.6
	c-2.4,1.4-5.1,2.4-7.8,3.1l-3.5,1.1c-0.7,0.2-1.5,0.5-2.4,0.9h0.2h0.8c2,0,4,0.4,5.8,1.2c0.7,0.3,1.3,0.6,1.9,1.1
	c0.7,0.5,1.3,1.1,1.9,1.8c0.8,1.1,1.3,2.5,1.4,3.9c0.1,0.8,0.1,1.6,0,2.4c-0.1,0.5-0.2,0.9-0.4,1.3c-0.2,0.4-0.4,0.8-0.7,1.2
	l-0.1,0.2c-0.4,0.5-1,1-1.5,1.4c-0.5,0.4-1,0.7-1.5,1c-1.4,0.8-2.9,1.5-4.4,2.1l-1.8,0.8c-1.1,0.5-2.1,1-3,1.6
	c-0.5,0.3-1,0.7-1.6,1.2s-0.8,0.8-1.2,1.1l-0.6,0.8c-0.4,0.7-0.7,1.2-1,1.7c-0.1,0.3-0.3,0.6-0.4,0.9s-0.2,0.7-0.3,1
	s-0.1,0.5-0.1,0.7s0,0.2,0,0.3s0,0.4,0.1,0.7s0.1,0.6,0.2,0.9c0.1,0.2,0.1,0.3,0.2,0.5c0.2,0.3,0.3,0.6,0.5,0.9
	c0.1,0.1,0.2,0.3,0.3,0.4l0.1,0.1l0.1,0.2l0.1,0.1c0.2,0.2,0.4,0.5,0.7,0.7l0.3,0.2l0.7,0.4c0.8,0.4,1.7,0.9,2.5,1.2
	c2.7,1,5.6,2,8.6,2.8c1.9,0.4,3.8,0.7,5.7,1l2.8,0.4c1.4,0.2,3,0.5,4.5,0.8c1.3,0.3,2.5,0.6,3.8,0.9l0.9,0.2l0.4,0.1
	c0.9,0.2,1.8,0.4,2.6,0.6c0.7,0.2,1.4,0.5,2.1,0.9c0.5,0.3,0.8,0.6,1.2,1.1c0.4,0.5,0.6,1.1,0.8,1.8c0.1,0.6,0.1,1.2,0.1,1.7
	c0,0.6-0.1,1.2-0.2,1.9c-0.3,1.3-0.9,2.5-1.7,3.6c-1.3,1.7-3,3-5,3.9c-1.1,0.5-2.1,0.9-3.2,1.3c-0.8,0.3-1.7,0.6-2.5,0.8L107,159
	c-0.8,0.2-1.6,0.5-2.3,0.7l-0.2,0.1h-0.1h-0.1c-3.5,1.1-7.2,1.9-10.8,2.2c-0.7,0.1-1.4,0.1-2.1,0.1c-1.2,0-2.3-0.1-3.4-0.1l-1.2-0.1
	c-1.2-0.1-2.4-0.2-3.7-0.2h-0.4c-1.1,0.1-2,0.2-2.8,0.3c-0.5,0.1-1,0.2-1.4,0.4l-0.7,0.3c-0.4,0.2-0.7,0.4-1.1,0.6s-0.7,0.5-1.1,0.8
	s-1,1-1.7,1.6c-1,1-1.9,2.1-2.7,3.2c-0.4,0.6-0.8,1.3-1.3,2.1s-0.9,1.9-1.2,2.8c-0.4,1.2-0.8,2.3-1.2,3.5l-0.8,2.3
	c-0.8,2.2-1.4,4.2-2,6.1l-0.1,0.2c-0.6,2-1.2,4-2,6c-0.4,1.1-0.8,2.1-1.3,2.9c-0.2,0.5-0.5,0.9-0.8,1.4v0.1c-0.6,1-1.4,1.8-2.3,2.5
	C57,199.6,55.6,200,54.1,200L54.1,200z"/>
</svg>
